%TF.GenerationSoftware,KiCad,Pcbnew,7.0.9-1.fc39*%
%TF.CreationDate,2024-01-02T19:24:07+02:00*%
%TF.ProjectId,SplitHsideLeft3,53706c69-7448-4736-9964-654c65667433,rev?*%
%TF.SameCoordinates,Original*%
%TF.FileFunction,Drillmap*%
%TF.FilePolarity,Positive*%
%FSLAX45Y45*%
G04 Gerber Fmt 4.5, Leading zero omitted, Abs format (unit mm)*
G04 Created by KiCad (PCBNEW 7.0.9-1.fc39) date 2024-01-02 19:24:07*
%MOMM*%
%LPD*%
G01*
G04 APERTURE LIST*
%ADD10C,0.100000*%
%ADD11C,0.050000*%
%ADD12C,0.200000*%
%ADD13C,0.150000*%
%ADD14C,0.175000*%
%ADD15C,0.304800*%
%ADD16C,0.320000*%
%ADD17C,0.398780*%
G04 APERTURE END LIST*
D10*
X7102075Y-19268309D02*
X7144228Y-19279604D01*
X7146728Y-5448270D02*
X7104575Y-5459565D01*
X6808781Y-19022206D02*
X6830601Y-19060000D01*
X6792838Y-5745219D02*
X6777912Y-5786228D01*
X6947973Y-19188088D02*
X6983721Y-19213120D01*
X6752736Y-18813041D02*
X6756539Y-18856515D01*
X6811281Y-5705668D02*
X6792838Y-5745219D01*
X6790338Y-18982655D02*
X6808781Y-19022206D01*
X22034500Y-5689600D02*
X22032500Y-5951974D01*
X6775412Y-18941646D02*
X6790338Y-18982655D01*
D11*
X18906468Y-1904083D02*
G75*
G03*
X16643727Y-1904083I-1131371J-1131371D01*
G01*
D10*
X22034500Y-5524500D02*
X22034500Y-5321371D01*
X6886184Y-5598695D02*
X6858132Y-5632126D01*
X6752500Y-18791221D02*
X6752736Y-18813041D01*
X6986221Y-5514755D02*
X6950473Y-5539786D01*
X18906468Y-1904083D02*
X21740930Y-4650000D01*
X6756539Y-18856515D02*
X6764117Y-18899493D01*
X6917042Y-5567837D02*
X6886184Y-5598695D01*
X7187205Y-19287182D02*
X7230680Y-19290985D01*
X7061066Y-19253383D02*
X7102075Y-19268309D01*
X7255000Y-5436653D02*
X7233180Y-5436889D01*
X22034504Y-5154654D02*
G75*
G03*
X21892665Y-4805774I-500004J-6D01*
G01*
X22032500Y-7611068D02*
X22032500Y-5951974D01*
X21530000Y-19291220D02*
G75*
G03*
X22030000Y-18791221I0J500000D01*
G01*
X7230680Y-19290985D02*
X7252500Y-19291221D01*
X7024015Y-5492934D02*
X6986221Y-5514755D01*
X7233180Y-5436889D02*
X7189705Y-5440692D01*
X22034500Y-5524500D02*
X22034500Y-5689600D01*
X7144228Y-19279604D02*
X7187205Y-19287182D01*
X12334633Y-5437242D02*
G75*
G03*
X13748847Y-4851456I-8J2000020D01*
G01*
X6883684Y-19129179D02*
X6914542Y-19160037D01*
X7189705Y-5440692D02*
X7146728Y-5448270D01*
X7252500Y-19291221D02*
X19530000Y-19291221D01*
X6833101Y-5667874D02*
X6811281Y-5705668D01*
X6759039Y-5871359D02*
X6755236Y-5914833D01*
X6755236Y-5914833D02*
X6752500Y-18791221D01*
X7104575Y-5459565D02*
X7063566Y-5474491D01*
X6855632Y-19095748D02*
X6883684Y-19129179D01*
X6858132Y-5632126D02*
X6833101Y-5667874D01*
X7063566Y-5474491D02*
X7024015Y-5492934D01*
X7021515Y-19234940D02*
X7061066Y-19253383D01*
X22034500Y-5321371D02*
X22034500Y-5154654D01*
X6830601Y-19060000D02*
X6855632Y-19095748D01*
X6914542Y-19160037D02*
X6947973Y-19188088D01*
X6766617Y-5828381D02*
X6759039Y-5871359D01*
X6777912Y-5786228D02*
X6766617Y-5828381D01*
X22030000Y-18791221D02*
X22032500Y-17010000D01*
X6983721Y-19213120D02*
X7021515Y-19234940D01*
X19530000Y-19291221D02*
X21530000Y-19291221D01*
X16643727Y-1904083D02*
X13748847Y-4851456D01*
X6950473Y-5539786D02*
X6917042Y-5567837D01*
X12334633Y-5437242D02*
X7255000Y-5436653D01*
X6764117Y-18899493D02*
X6775412Y-18941646D01*
X22032500Y-17010000D02*
X22032500Y-7611068D01*
X21892665Y-4805774D02*
X21740930Y-4650000D01*
D12*
D10*
X20040528Y-4479203D02*
X20120528Y-4559203D01*
X20120528Y-4479203D02*
X20040528Y-4559203D01*
X20535503Y-3984228D02*
X20615503Y-4064228D01*
X20615503Y-3984228D02*
X20535503Y-4064228D01*
D13*
X20255000Y-17780000D02*
G75*
G03*
X20255000Y-17780000I-75000J0D01*
G01*
D10*
X20255000Y-17845000D02*
X20255000Y-17715000D01*
X20255000Y-17715000D02*
G75*
G03*
X20105000Y-17715000I-75000J0D01*
G01*
X20105000Y-17715000D02*
X20105000Y-17845000D01*
X20105000Y-17845000D02*
G75*
G03*
X20255000Y-17845000I75000J0D01*
G01*
D13*
X21375000Y-17780000D02*
G75*
G03*
X21375000Y-17780000I-75000J0D01*
G01*
D10*
X21375000Y-17845000D02*
X21375000Y-17715000D01*
X21375000Y-17715000D02*
G75*
G03*
X21225000Y-17715000I-75000J0D01*
G01*
X21225000Y-17715000D02*
X21225000Y-17845000D01*
X21225000Y-17845000D02*
G75*
G03*
X21375000Y-17845000I75000J0D01*
G01*
D14*
X7584783Y-7070622D02*
X7584783Y-7245622D01*
X7497283Y-7158122D02*
X7672283Y-7158122D01*
X7584783Y-9928134D02*
X7584783Y-10103134D01*
X7497283Y-10015634D02*
X7672283Y-10015634D01*
X7822909Y-15643158D02*
X7822909Y-15818158D01*
X7735409Y-15730658D02*
X7910409Y-15730658D01*
X7822909Y-17548166D02*
X7822909Y-17723166D01*
X7735409Y-17635666D02*
X7910409Y-17635666D01*
X8061035Y-11833142D02*
X8061035Y-12008142D01*
X7973535Y-11920642D02*
X8148535Y-11920642D01*
X8299161Y-13738150D02*
X8299161Y-13913150D01*
X8211661Y-13825650D02*
X8386661Y-13825650D01*
X8600783Y-7070622D02*
X8600783Y-7245622D01*
X8513283Y-7158122D02*
X8688283Y-7158122D01*
X8600783Y-9928134D02*
X8600783Y-10103134D01*
X8513283Y-10015634D02*
X8688283Y-10015634D01*
X8838909Y-15643158D02*
X8838909Y-15818158D01*
X8751409Y-15730658D02*
X8926409Y-15730658D01*
X8838909Y-17548166D02*
X8838909Y-17723166D01*
X8751409Y-17635666D02*
X8926409Y-17635666D01*
X9077035Y-11833142D02*
X9077035Y-12008142D01*
X8989535Y-11920642D02*
X9164535Y-11920642D01*
X9315161Y-13738150D02*
X9315161Y-13913150D01*
X9227661Y-13825650D02*
X9402661Y-13825650D01*
X9489791Y-9928134D02*
X9489791Y-10103134D01*
X9402291Y-10015634D02*
X9577291Y-10015634D01*
X9966043Y-15643158D02*
X9966043Y-15818158D01*
X9878543Y-15730658D02*
X10053543Y-15730658D01*
X10204169Y-17548166D02*
X10204169Y-17723166D01*
X10116669Y-17635666D02*
X10291669Y-17635666D01*
X10442295Y-11833142D02*
X10442295Y-12008142D01*
X10354795Y-11920642D02*
X10529795Y-11920642D01*
X10505791Y-9928134D02*
X10505791Y-10103134D01*
X10418291Y-10015634D02*
X10593291Y-10015634D01*
X10918547Y-13738150D02*
X10918547Y-13913150D01*
X10831047Y-13825650D02*
X11006047Y-13825650D01*
X10982043Y-15643158D02*
X10982043Y-15818158D01*
X10894543Y-15730658D02*
X11069543Y-15730658D01*
X11220169Y-17548166D02*
X11220169Y-17723166D01*
X11132669Y-17635666D02*
X11307669Y-17635666D01*
X11394771Y-7070610D02*
X11394771Y-7245610D01*
X11307271Y-7158110D02*
X11482271Y-7158110D01*
X11394799Y-9928134D02*
X11394799Y-10103134D01*
X11307299Y-10015634D02*
X11482299Y-10015634D01*
X11458295Y-11833142D02*
X11458295Y-12008142D01*
X11370795Y-11920642D02*
X11545795Y-11920642D01*
X11871051Y-15643158D02*
X11871051Y-15818158D01*
X11783551Y-15730658D02*
X11958551Y-15730658D01*
X11934547Y-13738150D02*
X11934547Y-13913150D01*
X11847047Y-13825650D02*
X12022047Y-13825650D01*
X12347303Y-11833142D02*
X12347303Y-12008142D01*
X12259803Y-11920642D02*
X12434803Y-11920642D01*
X12410771Y-7070610D02*
X12410771Y-7245610D01*
X12323271Y-7158110D02*
X12498271Y-7158110D01*
X12410799Y-9928134D02*
X12410799Y-10103134D01*
X12323299Y-10015634D02*
X12498299Y-10015634D01*
X12585429Y-17548166D02*
X12585429Y-17723166D01*
X12497929Y-17635666D02*
X12672929Y-17635666D01*
X12823555Y-13738150D02*
X12823555Y-13913150D01*
X12736055Y-13825650D02*
X12911055Y-13825650D01*
X12887051Y-15643158D02*
X12887051Y-15818158D01*
X12799551Y-15730658D02*
X12974551Y-15730658D01*
X13299771Y-7070622D02*
X13299771Y-7245622D01*
X13212271Y-7158122D02*
X13387271Y-7158122D01*
X13299807Y-9928134D02*
X13299807Y-10103134D01*
X13212307Y-10015634D02*
X13387307Y-10015634D01*
X13363303Y-11833142D02*
X13363303Y-12008142D01*
X13275803Y-11920642D02*
X13450803Y-11920642D01*
X13601429Y-17548166D02*
X13601429Y-17723166D01*
X13513929Y-17635666D02*
X13688929Y-17635666D01*
X13776059Y-15643158D02*
X13776059Y-15818158D01*
X13688559Y-15730658D02*
X13863559Y-15730658D01*
X13839555Y-13738150D02*
X13839555Y-13913150D01*
X13752055Y-13825650D02*
X13927055Y-13825650D01*
X14252311Y-11833142D02*
X14252311Y-12008142D01*
X14164811Y-11920642D02*
X14339811Y-11920642D01*
X14315771Y-7070622D02*
X14315771Y-7245622D01*
X14228271Y-7158122D02*
X14403271Y-7158122D01*
X14315807Y-9928134D02*
X14315807Y-10103134D01*
X14228307Y-10015634D02*
X14403307Y-10015634D01*
X14728563Y-13738150D02*
X14728563Y-13913150D01*
X14641063Y-13825650D02*
X14816063Y-13825650D01*
X14792059Y-15643158D02*
X14792059Y-15818158D01*
X14704559Y-15730658D02*
X14879559Y-15730658D01*
X15204771Y-9928110D02*
X15204771Y-10103110D01*
X15117271Y-10015610D02*
X15292271Y-10015610D01*
X15204807Y-7070622D02*
X15204807Y-7245622D01*
X15117307Y-7158122D02*
X15292307Y-7158122D01*
X15268311Y-11833142D02*
X15268311Y-12008142D01*
X15180811Y-11920642D02*
X15355811Y-11920642D01*
X15681021Y-15643110D02*
X15681021Y-15818110D01*
X15593521Y-15730610D02*
X15768521Y-15730610D01*
X15744563Y-13738150D02*
X15744563Y-13913150D01*
X15657063Y-13825650D02*
X15832063Y-13825650D01*
X16157271Y-11833110D02*
X16157271Y-12008110D01*
X16069771Y-11920610D02*
X16244771Y-11920610D01*
X16220771Y-9928110D02*
X16220771Y-10103110D01*
X16133271Y-10015610D02*
X16308271Y-10015610D01*
X16220807Y-7070622D02*
X16220807Y-7245622D01*
X16133307Y-7158122D02*
X16308307Y-7158122D01*
X16395396Y-17548110D02*
X16395396Y-17723110D01*
X16307896Y-17635610D02*
X16482896Y-17635610D01*
X16633521Y-13738110D02*
X16633521Y-13913110D01*
X16546021Y-13825610D02*
X16721021Y-13825610D01*
X16697021Y-15643110D02*
X16697021Y-15818110D01*
X16609521Y-15730610D02*
X16784521Y-15730610D01*
X17109771Y-7070622D02*
X17109771Y-7245622D01*
X17022271Y-7158122D02*
X17197271Y-7158122D01*
X17109771Y-9928110D02*
X17109771Y-10103110D01*
X17022271Y-10015610D02*
X17197271Y-10015610D01*
X17173271Y-11833110D02*
X17173271Y-12008110D01*
X17085771Y-11920610D02*
X17260771Y-11920610D01*
X17411396Y-17548110D02*
X17411396Y-17723110D01*
X17323896Y-17635610D02*
X17498896Y-17635610D01*
X17586021Y-15643110D02*
X17586021Y-15818110D01*
X17498521Y-15730610D02*
X17673521Y-15730610D01*
X17649521Y-13738110D02*
X17649521Y-13913110D01*
X17562021Y-13825610D02*
X17737021Y-13825610D01*
X18062271Y-11833110D02*
X18062271Y-12008110D01*
X17974771Y-11920610D02*
X18149771Y-11920610D01*
X18125771Y-7070622D02*
X18125771Y-7245622D01*
X18038271Y-7158122D02*
X18213271Y-7158122D01*
X18125771Y-9928110D02*
X18125771Y-10103110D01*
X18038271Y-10015610D02*
X18213271Y-10015610D01*
X18538521Y-13738110D02*
X18538521Y-13913110D01*
X18451021Y-13825610D02*
X18626021Y-13825610D01*
X18602021Y-15643110D02*
X18602021Y-15818110D01*
X18514521Y-15730610D02*
X18689521Y-15730610D01*
X19014771Y-9928110D02*
X19014771Y-10103110D01*
X18927271Y-10015610D02*
X19102271Y-10015610D01*
X19078271Y-11833110D02*
X19078271Y-12008110D01*
X18990771Y-11920610D02*
X19165771Y-11920610D01*
X19491021Y-15643110D02*
X19491021Y-15818110D01*
X19403521Y-15730610D02*
X19578521Y-15730610D01*
X19554521Y-13738110D02*
X19554521Y-13913110D01*
X19467021Y-13825610D02*
X19642021Y-13825610D01*
X19967271Y-11833110D02*
X19967271Y-12008110D01*
X19879771Y-11920610D02*
X20054771Y-11920610D01*
X20030771Y-9928110D02*
X20030771Y-10103110D01*
X19943271Y-10015610D02*
X20118271Y-10015610D01*
X20443521Y-13738110D02*
X20443521Y-13913110D01*
X20356021Y-13825610D02*
X20531021Y-13825610D01*
X20507021Y-15643110D02*
X20507021Y-15818110D01*
X20419521Y-15730610D02*
X20594521Y-15730610D01*
X20983271Y-11833110D02*
X20983271Y-12008110D01*
X20895771Y-11920610D02*
X21070771Y-11920610D01*
X21459521Y-13738110D02*
X21459521Y-13913110D01*
X21372021Y-13825610D02*
X21547021Y-13825610D01*
D15*
X15820535Y-17044874D02*
X15820535Y-16829346D01*
X15605007Y-16829346D01*
X15605007Y-17044874D01*
X15820535Y-17044874D01*
X18201785Y-17044874D02*
X18201785Y-16829346D01*
X17986257Y-16829346D01*
X17986257Y-17044874D01*
X18201785Y-17044874D01*
D16*
X7098000Y-5980000D02*
X7258000Y-5820000D01*
X7098000Y-5660000D01*
X6938000Y-5820000D01*
X7098000Y-5980000D01*
X7100000Y-19110000D02*
X7260000Y-18950000D01*
X7100000Y-18790000D01*
X6940000Y-18950000D01*
X7100000Y-19110000D01*
X13700000Y-5560000D02*
X13860000Y-5400000D01*
X13700000Y-5240000D01*
X13540000Y-5400000D01*
X13700000Y-5560000D01*
X17750000Y-1910000D02*
X17910000Y-1750000D01*
X17750000Y-1590000D01*
X17590000Y-1750000D01*
X17750000Y-1910000D01*
X19400000Y-5260000D02*
X19560000Y-5100000D01*
X19400000Y-4940000D01*
X19240000Y-5100000D01*
X19400000Y-5260000D01*
X21650000Y-5260000D02*
X21810000Y-5100000D01*
X21650000Y-4940000D01*
X21490000Y-5100000D01*
X21650000Y-5260000D01*
X21700000Y-19110000D02*
X21860000Y-18950000D01*
X21700000Y-18790000D01*
X21540000Y-18950000D01*
X21700000Y-19110000D01*
D17*
X7893393Y-6958732D02*
X8292173Y-7357512D01*
X8292173Y-6958732D02*
X7893393Y-7357512D01*
X8292173Y-7158122D02*
G75*
G03*
X8292173Y-7158122I-199390J0D01*
G01*
X7893393Y-9816244D02*
X8292173Y-10215024D01*
X8292173Y-9816244D02*
X7893393Y-10215024D01*
X8292173Y-10015634D02*
G75*
G03*
X8292173Y-10015634I-199390J0D01*
G01*
X8131519Y-15531268D02*
X8530299Y-15930048D01*
X8530299Y-15531268D02*
X8131519Y-15930048D01*
X8530299Y-15730658D02*
G75*
G03*
X8530299Y-15730658I-199390J0D01*
G01*
X8131519Y-17436276D02*
X8530299Y-17835056D01*
X8530299Y-17436276D02*
X8131519Y-17835056D01*
X8530299Y-17635666D02*
G75*
G03*
X8530299Y-17635666I-199390J0D01*
G01*
X8369645Y-11721252D02*
X8768425Y-12120032D01*
X8768425Y-11721252D02*
X8369645Y-12120032D01*
X8768425Y-11920642D02*
G75*
G03*
X8768425Y-11920642I-199390J0D01*
G01*
X8607771Y-13626260D02*
X9006551Y-14025040D01*
X9006551Y-13626260D02*
X8607771Y-14025040D01*
X9006551Y-13825650D02*
G75*
G03*
X9006551Y-13825650I-199390J0D01*
G01*
X9798401Y-9816244D02*
X10197181Y-10215024D01*
X10197181Y-9816244D02*
X9798401Y-10215024D01*
X10197181Y-10015634D02*
G75*
G03*
X10197181Y-10015634I-199390J0D01*
G01*
X10274653Y-15531268D02*
X10673433Y-15930048D01*
X10673433Y-15531268D02*
X10274653Y-15930048D01*
X10673433Y-15730658D02*
G75*
G03*
X10673433Y-15730658I-199390J0D01*
G01*
X10512779Y-17436276D02*
X10911559Y-17835056D01*
X10911559Y-17436276D02*
X10512779Y-17835056D01*
X10911559Y-17635666D02*
G75*
G03*
X10911559Y-17635666I-199390J0D01*
G01*
X10750905Y-11721252D02*
X11149685Y-12120032D01*
X11149685Y-11721252D02*
X10750905Y-12120032D01*
X11149685Y-11920642D02*
G75*
G03*
X11149685Y-11920642I-199390J0D01*
G01*
X11227157Y-13626260D02*
X11625937Y-14025040D01*
X11625937Y-13626260D02*
X11227157Y-14025040D01*
X11625937Y-13825650D02*
G75*
G03*
X11625937Y-13825650I-199390J0D01*
G01*
X11703381Y-6958720D02*
X12102161Y-7357500D01*
X12102161Y-6958720D02*
X11703381Y-7357500D01*
X12102161Y-7158110D02*
G75*
G03*
X12102161Y-7158110I-199390J0D01*
G01*
X11703409Y-9816244D02*
X12102189Y-10215024D01*
X12102189Y-9816244D02*
X11703409Y-10215024D01*
X12102189Y-10015634D02*
G75*
G03*
X12102189Y-10015634I-199390J0D01*
G01*
X12179661Y-15531268D02*
X12578441Y-15930048D01*
X12578441Y-15531268D02*
X12179661Y-15930048D01*
X12578441Y-15730658D02*
G75*
G03*
X12578441Y-15730658I-199390J0D01*
G01*
X12655913Y-11721252D02*
X13054693Y-12120032D01*
X13054693Y-11721252D02*
X12655913Y-12120032D01*
X13054693Y-11920642D02*
G75*
G03*
X13054693Y-11920642I-199390J0D01*
G01*
X12894039Y-17436276D02*
X13292819Y-17835056D01*
X13292819Y-17436276D02*
X12894039Y-17835056D01*
X13292819Y-17635666D02*
G75*
G03*
X13292819Y-17635666I-199390J0D01*
G01*
X13132165Y-13626260D02*
X13530945Y-14025040D01*
X13530945Y-13626260D02*
X13132165Y-14025040D01*
X13530945Y-13825650D02*
G75*
G03*
X13530945Y-13825650I-199390J0D01*
G01*
X13608381Y-6958732D02*
X14007161Y-7357512D01*
X14007161Y-6958732D02*
X13608381Y-7357512D01*
X14007161Y-7158122D02*
G75*
G03*
X14007161Y-7158122I-199390J0D01*
G01*
X13608417Y-9816244D02*
X14007197Y-10215024D01*
X14007197Y-9816244D02*
X13608417Y-10215024D01*
X14007197Y-10015634D02*
G75*
G03*
X14007197Y-10015634I-199390J0D01*
G01*
X14084669Y-15531268D02*
X14483449Y-15930048D01*
X14483449Y-15531268D02*
X14084669Y-15930048D01*
X14483449Y-15730658D02*
G75*
G03*
X14483449Y-15730658I-199390J0D01*
G01*
X14560921Y-11721252D02*
X14959701Y-12120032D01*
X14959701Y-11721252D02*
X14560921Y-12120032D01*
X14959701Y-11920642D02*
G75*
G03*
X14959701Y-11920642I-199390J0D01*
G01*
X15037173Y-13626260D02*
X15435953Y-14025040D01*
X15435953Y-13626260D02*
X15037173Y-14025040D01*
X15435953Y-13825650D02*
G75*
G03*
X15435953Y-13825650I-199390J0D01*
G01*
X15513381Y-9816220D02*
X15912161Y-10215000D01*
X15912161Y-9816220D02*
X15513381Y-10215000D01*
X15912161Y-10015610D02*
G75*
G03*
X15912161Y-10015610I-199390J0D01*
G01*
X15513381Y-18261720D02*
X15912161Y-18660500D01*
X15912161Y-18261720D02*
X15513381Y-18660500D01*
X15912161Y-18461110D02*
G75*
G03*
X15912161Y-18461110I-199390J0D01*
G01*
X15513417Y-6958732D02*
X15912197Y-7357512D01*
X15912197Y-6958732D02*
X15513417Y-7357512D01*
X15912197Y-7158122D02*
G75*
G03*
X15912197Y-7158122I-199390J0D01*
G01*
X15989631Y-15531220D02*
X16388411Y-15930000D01*
X16388411Y-15531220D02*
X15989631Y-15930000D01*
X16388411Y-15730610D02*
G75*
G03*
X16388411Y-15730610I-199390J0D01*
G01*
X16465881Y-11721220D02*
X16864661Y-12120000D01*
X16864661Y-11721220D02*
X16465881Y-12120000D01*
X16864661Y-11920610D02*
G75*
G03*
X16864661Y-11920610I-199390J0D01*
G01*
X16704006Y-17436220D02*
X17102786Y-17835000D01*
X17102786Y-17436220D02*
X16704006Y-17835000D01*
X17102786Y-17635610D02*
G75*
G03*
X17102786Y-17635610I-199390J0D01*
G01*
X16942131Y-13626220D02*
X17340911Y-14025000D01*
X17340911Y-13626220D02*
X16942131Y-14025000D01*
X17340911Y-13825610D02*
G75*
G03*
X17340911Y-13825610I-199390J0D01*
G01*
X17418381Y-6958732D02*
X17817161Y-7357512D01*
X17817161Y-6958732D02*
X17418381Y-7357512D01*
X17817161Y-7158122D02*
G75*
G03*
X17817161Y-7158122I-199390J0D01*
G01*
X17418381Y-9816220D02*
X17817161Y-10215000D01*
X17817161Y-9816220D02*
X17418381Y-10215000D01*
X17817161Y-10015610D02*
G75*
G03*
X17817161Y-10015610I-199390J0D01*
G01*
X17894631Y-15531220D02*
X18293411Y-15930000D01*
X18293411Y-15531220D02*
X17894631Y-15930000D01*
X18293411Y-15730610D02*
G75*
G03*
X18293411Y-15730610I-199390J0D01*
G01*
X17894631Y-18261720D02*
X18293411Y-18660500D01*
X18293411Y-18261720D02*
X17894631Y-18660500D01*
X18293411Y-18461110D02*
G75*
G03*
X18293411Y-18461110I-199390J0D01*
G01*
X18370881Y-11721220D02*
X18769661Y-12120000D01*
X18769661Y-11721220D02*
X18370881Y-12120000D01*
X18769661Y-11920610D02*
G75*
G03*
X18769661Y-11920610I-199390J0D01*
G01*
X18847131Y-13626220D02*
X19245911Y-14025000D01*
X19245911Y-13626220D02*
X18847131Y-14025000D01*
X19245911Y-13825610D02*
G75*
G03*
X19245911Y-13825610I-199390J0D01*
G01*
X19323381Y-9816220D02*
X19722161Y-10215000D01*
X19722161Y-9816220D02*
X19323381Y-10215000D01*
X19722161Y-10015610D02*
G75*
G03*
X19722161Y-10015610I-199390J0D01*
G01*
X19799631Y-15531220D02*
X20198411Y-15930000D01*
X20198411Y-15531220D02*
X19799631Y-15930000D01*
X20198411Y-15730610D02*
G75*
G03*
X20198411Y-15730610I-199390J0D01*
G01*
X20275881Y-11721220D02*
X20674661Y-12120000D01*
X20674661Y-11721220D02*
X20275881Y-12120000D01*
X20674661Y-11920610D02*
G75*
G03*
X20674661Y-11920610I-199390J0D01*
G01*
X20752131Y-13626220D02*
X21150911Y-14025000D01*
X21150911Y-13626220D02*
X20752131Y-14025000D01*
X21150911Y-13825610D02*
G75*
G03*
X21150911Y-13825610I-199390J0D01*
G01*
D12*
X7008277Y-19607705D02*
X7008277Y-19407705D01*
X7008277Y-19407705D02*
X7055896Y-19407705D01*
X7055896Y-19407705D02*
X7084467Y-19417229D01*
X7084467Y-19417229D02*
X7103515Y-19436276D01*
X7103515Y-19436276D02*
X7113039Y-19455324D01*
X7113039Y-19455324D02*
X7122562Y-19493419D01*
X7122562Y-19493419D02*
X7122562Y-19521990D01*
X7122562Y-19521990D02*
X7113039Y-19560086D01*
X7113039Y-19560086D02*
X7103515Y-19579133D01*
X7103515Y-19579133D02*
X7084467Y-19598181D01*
X7084467Y-19598181D02*
X7055896Y-19607705D01*
X7055896Y-19607705D02*
X7008277Y-19607705D01*
X7208277Y-19607705D02*
X7208277Y-19474371D01*
X7208277Y-19512467D02*
X7217801Y-19493419D01*
X7217801Y-19493419D02*
X7227324Y-19483895D01*
X7227324Y-19483895D02*
X7246372Y-19474371D01*
X7246372Y-19474371D02*
X7265420Y-19474371D01*
X7332086Y-19607705D02*
X7332086Y-19474371D01*
X7332086Y-19407705D02*
X7322562Y-19417229D01*
X7322562Y-19417229D02*
X7332086Y-19426752D01*
X7332086Y-19426752D02*
X7341610Y-19417229D01*
X7341610Y-19417229D02*
X7332086Y-19407705D01*
X7332086Y-19407705D02*
X7332086Y-19426752D01*
X7455896Y-19607705D02*
X7436848Y-19598181D01*
X7436848Y-19598181D02*
X7427324Y-19579133D01*
X7427324Y-19579133D02*
X7427324Y-19407705D01*
X7560658Y-19607705D02*
X7541610Y-19598181D01*
X7541610Y-19598181D02*
X7532086Y-19579133D01*
X7532086Y-19579133D02*
X7532086Y-19407705D01*
X7789229Y-19607705D02*
X7789229Y-19407705D01*
X7789229Y-19407705D02*
X7855896Y-19550562D01*
X7855896Y-19550562D02*
X7922562Y-19407705D01*
X7922562Y-19407705D02*
X7922562Y-19607705D01*
X8103515Y-19607705D02*
X8103515Y-19502943D01*
X8103515Y-19502943D02*
X8093991Y-19483895D01*
X8093991Y-19483895D02*
X8074943Y-19474371D01*
X8074943Y-19474371D02*
X8036848Y-19474371D01*
X8036848Y-19474371D02*
X8017801Y-19483895D01*
X8103515Y-19598181D02*
X8084467Y-19607705D01*
X8084467Y-19607705D02*
X8036848Y-19607705D01*
X8036848Y-19607705D02*
X8017801Y-19598181D01*
X8017801Y-19598181D02*
X8008277Y-19579133D01*
X8008277Y-19579133D02*
X8008277Y-19560086D01*
X8008277Y-19560086D02*
X8017801Y-19541038D01*
X8017801Y-19541038D02*
X8036848Y-19531514D01*
X8036848Y-19531514D02*
X8084467Y-19531514D01*
X8084467Y-19531514D02*
X8103515Y-19521990D01*
X8198753Y-19474371D02*
X8198753Y-19674371D01*
X8198753Y-19483895D02*
X8217801Y-19474371D01*
X8217801Y-19474371D02*
X8255896Y-19474371D01*
X8255896Y-19474371D02*
X8274943Y-19483895D01*
X8274943Y-19483895D02*
X8284467Y-19493419D01*
X8284467Y-19493419D02*
X8293991Y-19512467D01*
X8293991Y-19512467D02*
X8293991Y-19569609D01*
X8293991Y-19569609D02*
X8284467Y-19588657D01*
X8284467Y-19588657D02*
X8274943Y-19598181D01*
X8274943Y-19598181D02*
X8255896Y-19607705D01*
X8255896Y-19607705D02*
X8217801Y-19607705D01*
X8217801Y-19607705D02*
X8198753Y-19598181D01*
X8379705Y-19588657D02*
X8389229Y-19598181D01*
X8389229Y-19598181D02*
X8379705Y-19607705D01*
X8379705Y-19607705D02*
X8370182Y-19598181D01*
X8370182Y-19598181D02*
X8379705Y-19588657D01*
X8379705Y-19588657D02*
X8379705Y-19607705D01*
X8379705Y-19483895D02*
X8389229Y-19493419D01*
X8389229Y-19493419D02*
X8379705Y-19502943D01*
X8379705Y-19502943D02*
X8370182Y-19493419D01*
X8370182Y-19493419D02*
X8379705Y-19483895D01*
X8379705Y-19483895D02*
X8379705Y-19502943D01*
D10*
X6667500Y-19896221D02*
X6747500Y-19976221D01*
X6747500Y-19896221D02*
X6667500Y-19976221D01*
D12*
X7046372Y-19827705D02*
X7065420Y-19827705D01*
X7065420Y-19827705D02*
X7084467Y-19837229D01*
X7084467Y-19837229D02*
X7093991Y-19846752D01*
X7093991Y-19846752D02*
X7103515Y-19865800D01*
X7103515Y-19865800D02*
X7113039Y-19903895D01*
X7113039Y-19903895D02*
X7113039Y-19951514D01*
X7113039Y-19951514D02*
X7103515Y-19989609D01*
X7103515Y-19989609D02*
X7093991Y-20008657D01*
X7093991Y-20008657D02*
X7084467Y-20018181D01*
X7084467Y-20018181D02*
X7065420Y-20027705D01*
X7065420Y-20027705D02*
X7046372Y-20027705D01*
X7046372Y-20027705D02*
X7027324Y-20018181D01*
X7027324Y-20018181D02*
X7017801Y-20008657D01*
X7017801Y-20008657D02*
X7008277Y-19989609D01*
X7008277Y-19989609D02*
X6998753Y-19951514D01*
X6998753Y-19951514D02*
X6998753Y-19903895D01*
X6998753Y-19903895D02*
X7008277Y-19865800D01*
X7008277Y-19865800D02*
X7017801Y-19846752D01*
X7017801Y-19846752D02*
X7027324Y-19837229D01*
X7027324Y-19837229D02*
X7046372Y-19827705D01*
X7198753Y-20008657D02*
X7208277Y-20018181D01*
X7208277Y-20018181D02*
X7198753Y-20027705D01*
X7198753Y-20027705D02*
X7189229Y-20018181D01*
X7189229Y-20018181D02*
X7198753Y-20008657D01*
X7198753Y-20008657D02*
X7198753Y-20027705D01*
X7322562Y-19913419D02*
X7303515Y-19903895D01*
X7303515Y-19903895D02*
X7293991Y-19894371D01*
X7293991Y-19894371D02*
X7284467Y-19875324D01*
X7284467Y-19875324D02*
X7284467Y-19865800D01*
X7284467Y-19865800D02*
X7293991Y-19846752D01*
X7293991Y-19846752D02*
X7303515Y-19837229D01*
X7303515Y-19837229D02*
X7322562Y-19827705D01*
X7322562Y-19827705D02*
X7360658Y-19827705D01*
X7360658Y-19827705D02*
X7379705Y-19837229D01*
X7379705Y-19837229D02*
X7389229Y-19846752D01*
X7389229Y-19846752D02*
X7398753Y-19865800D01*
X7398753Y-19865800D02*
X7398753Y-19875324D01*
X7398753Y-19875324D02*
X7389229Y-19894371D01*
X7389229Y-19894371D02*
X7379705Y-19903895D01*
X7379705Y-19903895D02*
X7360658Y-19913419D01*
X7360658Y-19913419D02*
X7322562Y-19913419D01*
X7322562Y-19913419D02*
X7303515Y-19922943D01*
X7303515Y-19922943D02*
X7293991Y-19932467D01*
X7293991Y-19932467D02*
X7284467Y-19951514D01*
X7284467Y-19951514D02*
X7284467Y-19989609D01*
X7284467Y-19989609D02*
X7293991Y-20008657D01*
X7293991Y-20008657D02*
X7303515Y-20018181D01*
X7303515Y-20018181D02*
X7322562Y-20027705D01*
X7322562Y-20027705D02*
X7360658Y-20027705D01*
X7360658Y-20027705D02*
X7379705Y-20018181D01*
X7379705Y-20018181D02*
X7389229Y-20008657D01*
X7389229Y-20008657D02*
X7398753Y-19989609D01*
X7398753Y-19989609D02*
X7398753Y-19951514D01*
X7398753Y-19951514D02*
X7389229Y-19932467D01*
X7389229Y-19932467D02*
X7379705Y-19922943D01*
X7379705Y-19922943D02*
X7360658Y-19913419D01*
X7522562Y-19827705D02*
X7541610Y-19827705D01*
X7541610Y-19827705D02*
X7560658Y-19837229D01*
X7560658Y-19837229D02*
X7570182Y-19846752D01*
X7570182Y-19846752D02*
X7579705Y-19865800D01*
X7579705Y-19865800D02*
X7589229Y-19903895D01*
X7589229Y-19903895D02*
X7589229Y-19951514D01*
X7589229Y-19951514D02*
X7579705Y-19989609D01*
X7579705Y-19989609D02*
X7570182Y-20008657D01*
X7570182Y-20008657D02*
X7560658Y-20018181D01*
X7560658Y-20018181D02*
X7541610Y-20027705D01*
X7541610Y-20027705D02*
X7522562Y-20027705D01*
X7522562Y-20027705D02*
X7503515Y-20018181D01*
X7503515Y-20018181D02*
X7493991Y-20008657D01*
X7493991Y-20008657D02*
X7484467Y-19989609D01*
X7484467Y-19989609D02*
X7474943Y-19951514D01*
X7474943Y-19951514D02*
X7474943Y-19903895D01*
X7474943Y-19903895D02*
X7484467Y-19865800D01*
X7484467Y-19865800D02*
X7493991Y-19846752D01*
X7493991Y-19846752D02*
X7503515Y-19837229D01*
X7503515Y-19837229D02*
X7522562Y-19827705D01*
X7713039Y-19827705D02*
X7732086Y-19827705D01*
X7732086Y-19827705D02*
X7751134Y-19837229D01*
X7751134Y-19837229D02*
X7760658Y-19846752D01*
X7760658Y-19846752D02*
X7770182Y-19865800D01*
X7770182Y-19865800D02*
X7779705Y-19903895D01*
X7779705Y-19903895D02*
X7779705Y-19951514D01*
X7779705Y-19951514D02*
X7770182Y-19989609D01*
X7770182Y-19989609D02*
X7760658Y-20008657D01*
X7760658Y-20008657D02*
X7751134Y-20018181D01*
X7751134Y-20018181D02*
X7732086Y-20027705D01*
X7732086Y-20027705D02*
X7713039Y-20027705D01*
X7713039Y-20027705D02*
X7693991Y-20018181D01*
X7693991Y-20018181D02*
X7684467Y-20008657D01*
X7684467Y-20008657D02*
X7674943Y-19989609D01*
X7674943Y-19989609D02*
X7665420Y-19951514D01*
X7665420Y-19951514D02*
X7665420Y-19903895D01*
X7665420Y-19903895D02*
X7674943Y-19865800D01*
X7674943Y-19865800D02*
X7684467Y-19846752D01*
X7684467Y-19846752D02*
X7693991Y-19837229D01*
X7693991Y-19837229D02*
X7713039Y-19827705D01*
X7865420Y-20027705D02*
X7865420Y-19894371D01*
X7865420Y-19913419D02*
X7874943Y-19903895D01*
X7874943Y-19903895D02*
X7893991Y-19894371D01*
X7893991Y-19894371D02*
X7922563Y-19894371D01*
X7922563Y-19894371D02*
X7941610Y-19903895D01*
X7941610Y-19903895D02*
X7951134Y-19922943D01*
X7951134Y-19922943D02*
X7951134Y-20027705D01*
X7951134Y-19922943D02*
X7960658Y-19903895D01*
X7960658Y-19903895D02*
X7979705Y-19894371D01*
X7979705Y-19894371D02*
X8008277Y-19894371D01*
X8008277Y-19894371D02*
X8027324Y-19903895D01*
X8027324Y-19903895D02*
X8036848Y-19922943D01*
X8036848Y-19922943D02*
X8036848Y-20027705D01*
X8132086Y-20027705D02*
X8132086Y-19894371D01*
X8132086Y-19913419D02*
X8141610Y-19903895D01*
X8141610Y-19903895D02*
X8160658Y-19894371D01*
X8160658Y-19894371D02*
X8189229Y-19894371D01*
X8189229Y-19894371D02*
X8208277Y-19903895D01*
X8208277Y-19903895D02*
X8217801Y-19922943D01*
X8217801Y-19922943D02*
X8217801Y-20027705D01*
X8217801Y-19922943D02*
X8227324Y-19903895D01*
X8227324Y-19903895D02*
X8246372Y-19894371D01*
X8246372Y-19894371D02*
X8274943Y-19894371D01*
X8274943Y-19894371D02*
X8293991Y-19903895D01*
X8293991Y-19903895D02*
X8303515Y-19922943D01*
X8303515Y-19922943D02*
X8303515Y-20027705D01*
X8693991Y-19818181D02*
X8522563Y-20075324D01*
X8951134Y-19827705D02*
X8970182Y-19827705D01*
X8970182Y-19827705D02*
X8989229Y-19837229D01*
X8989229Y-19837229D02*
X8998753Y-19846752D01*
X8998753Y-19846752D02*
X9008277Y-19865800D01*
X9008277Y-19865800D02*
X9017801Y-19903895D01*
X9017801Y-19903895D02*
X9017801Y-19951514D01*
X9017801Y-19951514D02*
X9008277Y-19989609D01*
X9008277Y-19989609D02*
X8998753Y-20008657D01*
X8998753Y-20008657D02*
X8989229Y-20018181D01*
X8989229Y-20018181D02*
X8970182Y-20027705D01*
X8970182Y-20027705D02*
X8951134Y-20027705D01*
X8951134Y-20027705D02*
X8932087Y-20018181D01*
X8932087Y-20018181D02*
X8922563Y-20008657D01*
X8922563Y-20008657D02*
X8913039Y-19989609D01*
X8913039Y-19989609D02*
X8903515Y-19951514D01*
X8903515Y-19951514D02*
X8903515Y-19903895D01*
X8903515Y-19903895D02*
X8913039Y-19865800D01*
X8913039Y-19865800D02*
X8922563Y-19846752D01*
X8922563Y-19846752D02*
X8932087Y-19837229D01*
X8932087Y-19837229D02*
X8951134Y-19827705D01*
X9103515Y-20008657D02*
X9113039Y-20018181D01*
X9113039Y-20018181D02*
X9103515Y-20027705D01*
X9103515Y-20027705D02*
X9093991Y-20018181D01*
X9093991Y-20018181D02*
X9103515Y-20008657D01*
X9103515Y-20008657D02*
X9103515Y-20027705D01*
X9236848Y-19827705D02*
X9255896Y-19827705D01*
X9255896Y-19827705D02*
X9274944Y-19837229D01*
X9274944Y-19837229D02*
X9284468Y-19846752D01*
X9284468Y-19846752D02*
X9293991Y-19865800D01*
X9293991Y-19865800D02*
X9303515Y-19903895D01*
X9303515Y-19903895D02*
X9303515Y-19951514D01*
X9303515Y-19951514D02*
X9293991Y-19989609D01*
X9293991Y-19989609D02*
X9284468Y-20008657D01*
X9284468Y-20008657D02*
X9274944Y-20018181D01*
X9274944Y-20018181D02*
X9255896Y-20027705D01*
X9255896Y-20027705D02*
X9236848Y-20027705D01*
X9236848Y-20027705D02*
X9217801Y-20018181D01*
X9217801Y-20018181D02*
X9208277Y-20008657D01*
X9208277Y-20008657D02*
X9198753Y-19989609D01*
X9198753Y-19989609D02*
X9189229Y-19951514D01*
X9189229Y-19951514D02*
X9189229Y-19903895D01*
X9189229Y-19903895D02*
X9198753Y-19865800D01*
X9198753Y-19865800D02*
X9208277Y-19846752D01*
X9208277Y-19846752D02*
X9217801Y-19837229D01*
X9217801Y-19837229D02*
X9236848Y-19827705D01*
X9370182Y-19827705D02*
X9493991Y-19827705D01*
X9493991Y-19827705D02*
X9427325Y-19903895D01*
X9427325Y-19903895D02*
X9455896Y-19903895D01*
X9455896Y-19903895D02*
X9474944Y-19913419D01*
X9474944Y-19913419D02*
X9484468Y-19922943D01*
X9484468Y-19922943D02*
X9493991Y-19941990D01*
X9493991Y-19941990D02*
X9493991Y-19989609D01*
X9493991Y-19989609D02*
X9484468Y-20008657D01*
X9484468Y-20008657D02*
X9474944Y-20018181D01*
X9474944Y-20018181D02*
X9455896Y-20027705D01*
X9455896Y-20027705D02*
X9398753Y-20027705D01*
X9398753Y-20027705D02*
X9379706Y-20018181D01*
X9379706Y-20018181D02*
X9370182Y-20008657D01*
X9684468Y-20027705D02*
X9570182Y-20027705D01*
X9627325Y-20027705D02*
X9627325Y-19827705D01*
X9627325Y-19827705D02*
X9608277Y-19856276D01*
X9608277Y-19856276D02*
X9589229Y-19875324D01*
X9589229Y-19875324D02*
X9570182Y-19884848D01*
X9865420Y-19827705D02*
X9770182Y-19827705D01*
X9770182Y-19827705D02*
X9760658Y-19922943D01*
X9760658Y-19922943D02*
X9770182Y-19913419D01*
X9770182Y-19913419D02*
X9789229Y-19903895D01*
X9789229Y-19903895D02*
X9836849Y-19903895D01*
X9836849Y-19903895D02*
X9855896Y-19913419D01*
X9855896Y-19913419D02*
X9865420Y-19922943D01*
X9865420Y-19922943D02*
X9874944Y-19941990D01*
X9874944Y-19941990D02*
X9874944Y-19989609D01*
X9874944Y-19989609D02*
X9865420Y-20008657D01*
X9865420Y-20008657D02*
X9855896Y-20018181D01*
X9855896Y-20018181D02*
X9836849Y-20027705D01*
X9836849Y-20027705D02*
X9789229Y-20027705D01*
X9789229Y-20027705D02*
X9770182Y-20018181D01*
X9770182Y-20018181D02*
X9760658Y-20008657D01*
X9951134Y-19827705D02*
X9951134Y-19865800D01*
X10027325Y-19827705D02*
X10027325Y-19865800D01*
X10322563Y-20103895D02*
X10313039Y-20094371D01*
X10313039Y-20094371D02*
X10293991Y-20065800D01*
X10293991Y-20065800D02*
X10284468Y-20046752D01*
X10284468Y-20046752D02*
X10274944Y-20018181D01*
X10274944Y-20018181D02*
X10265420Y-19970562D01*
X10265420Y-19970562D02*
X10265420Y-19932467D01*
X10265420Y-19932467D02*
X10274944Y-19884848D01*
X10274944Y-19884848D02*
X10284468Y-19856276D01*
X10284468Y-19856276D02*
X10293991Y-19837229D01*
X10293991Y-19837229D02*
X10313039Y-19808657D01*
X10313039Y-19808657D02*
X10322563Y-19799133D01*
X10389230Y-19846752D02*
X10398753Y-19837229D01*
X10398753Y-19837229D02*
X10417801Y-19827705D01*
X10417801Y-19827705D02*
X10465420Y-19827705D01*
X10465420Y-19827705D02*
X10484468Y-19837229D01*
X10484468Y-19837229D02*
X10493991Y-19846752D01*
X10493991Y-19846752D02*
X10503515Y-19865800D01*
X10503515Y-19865800D02*
X10503515Y-19884848D01*
X10503515Y-19884848D02*
X10493991Y-19913419D01*
X10493991Y-19913419D02*
X10379706Y-20027705D01*
X10379706Y-20027705D02*
X10503515Y-20027705D01*
X10741611Y-20027705D02*
X10741611Y-19827705D01*
X10827325Y-20027705D02*
X10827325Y-19922943D01*
X10827325Y-19922943D02*
X10817801Y-19903895D01*
X10817801Y-19903895D02*
X10798753Y-19894371D01*
X10798753Y-19894371D02*
X10770182Y-19894371D01*
X10770182Y-19894371D02*
X10751134Y-19903895D01*
X10751134Y-19903895D02*
X10741611Y-19913419D01*
X10951134Y-20027705D02*
X10932087Y-20018181D01*
X10932087Y-20018181D02*
X10922563Y-20008657D01*
X10922563Y-20008657D02*
X10913039Y-19989609D01*
X10913039Y-19989609D02*
X10913039Y-19932467D01*
X10913039Y-19932467D02*
X10922563Y-19913419D01*
X10922563Y-19913419D02*
X10932087Y-19903895D01*
X10932087Y-19903895D02*
X10951134Y-19894371D01*
X10951134Y-19894371D02*
X10979706Y-19894371D01*
X10979706Y-19894371D02*
X10998753Y-19903895D01*
X10998753Y-19903895D02*
X11008277Y-19913419D01*
X11008277Y-19913419D02*
X11017801Y-19932467D01*
X11017801Y-19932467D02*
X11017801Y-19989609D01*
X11017801Y-19989609D02*
X11008277Y-20008657D01*
X11008277Y-20008657D02*
X10998753Y-20018181D01*
X10998753Y-20018181D02*
X10979706Y-20027705D01*
X10979706Y-20027705D02*
X10951134Y-20027705D01*
X11132087Y-20027705D02*
X11113039Y-20018181D01*
X11113039Y-20018181D02*
X11103515Y-19999133D01*
X11103515Y-19999133D02*
X11103515Y-19827705D01*
X11284468Y-20018181D02*
X11265420Y-20027705D01*
X11265420Y-20027705D02*
X11227325Y-20027705D01*
X11227325Y-20027705D02*
X11208277Y-20018181D01*
X11208277Y-20018181D02*
X11198753Y-19999133D01*
X11198753Y-19999133D02*
X11198753Y-19922943D01*
X11198753Y-19922943D02*
X11208277Y-19903895D01*
X11208277Y-19903895D02*
X11227325Y-19894371D01*
X11227325Y-19894371D02*
X11265420Y-19894371D01*
X11265420Y-19894371D02*
X11284468Y-19903895D01*
X11284468Y-19903895D02*
X11293991Y-19922943D01*
X11293991Y-19922943D02*
X11293991Y-19941990D01*
X11293991Y-19941990D02*
X11198753Y-19961038D01*
X11370182Y-20018181D02*
X11389230Y-20027705D01*
X11389230Y-20027705D02*
X11427325Y-20027705D01*
X11427325Y-20027705D02*
X11446372Y-20018181D01*
X11446372Y-20018181D02*
X11455896Y-19999133D01*
X11455896Y-19999133D02*
X11455896Y-19989609D01*
X11455896Y-19989609D02*
X11446372Y-19970562D01*
X11446372Y-19970562D02*
X11427325Y-19961038D01*
X11427325Y-19961038D02*
X11398753Y-19961038D01*
X11398753Y-19961038D02*
X11379706Y-19951514D01*
X11379706Y-19951514D02*
X11370182Y-19932467D01*
X11370182Y-19932467D02*
X11370182Y-19922943D01*
X11370182Y-19922943D02*
X11379706Y-19903895D01*
X11379706Y-19903895D02*
X11398753Y-19894371D01*
X11398753Y-19894371D02*
X11427325Y-19894371D01*
X11427325Y-19894371D02*
X11446372Y-19903895D01*
X11522563Y-20103895D02*
X11532087Y-20094371D01*
X11532087Y-20094371D02*
X11551134Y-20065800D01*
X11551134Y-20065800D02*
X11560658Y-20046752D01*
X11560658Y-20046752D02*
X11570182Y-20018181D01*
X11570182Y-20018181D02*
X11579706Y-19970562D01*
X11579706Y-19970562D02*
X11579706Y-19932467D01*
X11579706Y-19932467D02*
X11570182Y-19884848D01*
X11570182Y-19884848D02*
X11560658Y-19856276D01*
X11560658Y-19856276D02*
X11551134Y-19837229D01*
X11551134Y-19837229D02*
X11532087Y-19808657D01*
X11532087Y-19808657D02*
X11522563Y-19799133D01*
X11884468Y-20103895D02*
X11874944Y-20094371D01*
X11874944Y-20094371D02*
X11855896Y-20065800D01*
X11855896Y-20065800D02*
X11846372Y-20046752D01*
X11846372Y-20046752D02*
X11836849Y-20018181D01*
X11836849Y-20018181D02*
X11827325Y-19970562D01*
X11827325Y-19970562D02*
X11827325Y-19932467D01*
X11827325Y-19932467D02*
X11836849Y-19884848D01*
X11836849Y-19884848D02*
X11846372Y-19856276D01*
X11846372Y-19856276D02*
X11855896Y-19837229D01*
X11855896Y-19837229D02*
X11874944Y-19808657D01*
X11874944Y-19808657D02*
X11884468Y-19799133D01*
X11960658Y-19894371D02*
X11960658Y-20027705D01*
X11960658Y-19913419D02*
X11970182Y-19903895D01*
X11970182Y-19903895D02*
X11989230Y-19894371D01*
X11989230Y-19894371D02*
X12017801Y-19894371D01*
X12017801Y-19894371D02*
X12036849Y-19903895D01*
X12036849Y-19903895D02*
X12046372Y-19922943D01*
X12046372Y-19922943D02*
X12046372Y-20027705D01*
X12170182Y-20027705D02*
X12151134Y-20018181D01*
X12151134Y-20018181D02*
X12141611Y-20008657D01*
X12141611Y-20008657D02*
X12132087Y-19989609D01*
X12132087Y-19989609D02*
X12132087Y-19932467D01*
X12132087Y-19932467D02*
X12141611Y-19913419D01*
X12141611Y-19913419D02*
X12151134Y-19903895D01*
X12151134Y-19903895D02*
X12170182Y-19894371D01*
X12170182Y-19894371D02*
X12198753Y-19894371D01*
X12198753Y-19894371D02*
X12217801Y-19903895D01*
X12217801Y-19903895D02*
X12227325Y-19913419D01*
X12227325Y-19913419D02*
X12236849Y-19932467D01*
X12236849Y-19932467D02*
X12236849Y-19989609D01*
X12236849Y-19989609D02*
X12227325Y-20008657D01*
X12227325Y-20008657D02*
X12217801Y-20018181D01*
X12217801Y-20018181D02*
X12198753Y-20027705D01*
X12198753Y-20027705D02*
X12170182Y-20027705D01*
X12293992Y-19894371D02*
X12370182Y-19894371D01*
X12322563Y-19827705D02*
X12322563Y-19999133D01*
X12322563Y-19999133D02*
X12332087Y-20018181D01*
X12332087Y-20018181D02*
X12351134Y-20027705D01*
X12351134Y-20027705D02*
X12370182Y-20027705D01*
X12589230Y-19894371D02*
X12589230Y-20094371D01*
X12589230Y-19903895D02*
X12608277Y-19894371D01*
X12608277Y-19894371D02*
X12646373Y-19894371D01*
X12646373Y-19894371D02*
X12665420Y-19903895D01*
X12665420Y-19903895D02*
X12674944Y-19913419D01*
X12674944Y-19913419D02*
X12684468Y-19932467D01*
X12684468Y-19932467D02*
X12684468Y-19989609D01*
X12684468Y-19989609D02*
X12674944Y-20008657D01*
X12674944Y-20008657D02*
X12665420Y-20018181D01*
X12665420Y-20018181D02*
X12646373Y-20027705D01*
X12646373Y-20027705D02*
X12608277Y-20027705D01*
X12608277Y-20027705D02*
X12589230Y-20018181D01*
X12798753Y-20027705D02*
X12779706Y-20018181D01*
X12779706Y-20018181D02*
X12770182Y-19999133D01*
X12770182Y-19999133D02*
X12770182Y-19827705D01*
X12960658Y-20027705D02*
X12960658Y-19922943D01*
X12960658Y-19922943D02*
X12951134Y-19903895D01*
X12951134Y-19903895D02*
X12932087Y-19894371D01*
X12932087Y-19894371D02*
X12893992Y-19894371D01*
X12893992Y-19894371D02*
X12874944Y-19903895D01*
X12960658Y-20018181D02*
X12941611Y-20027705D01*
X12941611Y-20027705D02*
X12893992Y-20027705D01*
X12893992Y-20027705D02*
X12874944Y-20018181D01*
X12874944Y-20018181D02*
X12865420Y-19999133D01*
X12865420Y-19999133D02*
X12865420Y-19980086D01*
X12865420Y-19980086D02*
X12874944Y-19961038D01*
X12874944Y-19961038D02*
X12893992Y-19951514D01*
X12893992Y-19951514D02*
X12941611Y-19951514D01*
X12941611Y-19951514D02*
X12960658Y-19941990D01*
X13027325Y-19894371D02*
X13103515Y-19894371D01*
X13055896Y-19827705D02*
X13055896Y-19999133D01*
X13055896Y-19999133D02*
X13065420Y-20018181D01*
X13065420Y-20018181D02*
X13084468Y-20027705D01*
X13084468Y-20027705D02*
X13103515Y-20027705D01*
X13246373Y-20018181D02*
X13227325Y-20027705D01*
X13227325Y-20027705D02*
X13189230Y-20027705D01*
X13189230Y-20027705D02*
X13170182Y-20018181D01*
X13170182Y-20018181D02*
X13160658Y-19999133D01*
X13160658Y-19999133D02*
X13160658Y-19922943D01*
X13160658Y-19922943D02*
X13170182Y-19903895D01*
X13170182Y-19903895D02*
X13189230Y-19894371D01*
X13189230Y-19894371D02*
X13227325Y-19894371D01*
X13227325Y-19894371D02*
X13246373Y-19903895D01*
X13246373Y-19903895D02*
X13255896Y-19922943D01*
X13255896Y-19922943D02*
X13255896Y-19941990D01*
X13255896Y-19941990D02*
X13160658Y-19961038D01*
X13427325Y-20027705D02*
X13427325Y-19827705D01*
X13427325Y-20018181D02*
X13408277Y-20027705D01*
X13408277Y-20027705D02*
X13370182Y-20027705D01*
X13370182Y-20027705D02*
X13351134Y-20018181D01*
X13351134Y-20018181D02*
X13341611Y-20008657D01*
X13341611Y-20008657D02*
X13332087Y-19989609D01*
X13332087Y-19989609D02*
X13332087Y-19932467D01*
X13332087Y-19932467D02*
X13341611Y-19913419D01*
X13341611Y-19913419D02*
X13351134Y-19903895D01*
X13351134Y-19903895D02*
X13370182Y-19894371D01*
X13370182Y-19894371D02*
X13408277Y-19894371D01*
X13408277Y-19894371D02*
X13427325Y-19903895D01*
X13503515Y-20103895D02*
X13513039Y-20094371D01*
X13513039Y-20094371D02*
X13532087Y-20065800D01*
X13532087Y-20065800D02*
X13541611Y-20046752D01*
X13541611Y-20046752D02*
X13551134Y-20018181D01*
X13551134Y-20018181D02*
X13560658Y-19970562D01*
X13560658Y-19970562D02*
X13560658Y-19932467D01*
X13560658Y-19932467D02*
X13551134Y-19884848D01*
X13551134Y-19884848D02*
X13541611Y-19856276D01*
X13541611Y-19856276D02*
X13532087Y-19837229D01*
X13532087Y-19837229D02*
X13513039Y-19808657D01*
X13513039Y-19808657D02*
X13503515Y-19799133D01*
D13*
X6747500Y-20200221D02*
G75*
G03*
X6747500Y-20200221I-75000J0D01*
G01*
D12*
X7113039Y-20291705D02*
X6998753Y-20291705D01*
X7055896Y-20291705D02*
X7055896Y-20091705D01*
X7055896Y-20091705D02*
X7036848Y-20120276D01*
X7036848Y-20120276D02*
X7017801Y-20139324D01*
X7017801Y-20139324D02*
X6998753Y-20148848D01*
X7198753Y-20272657D02*
X7208277Y-20282181D01*
X7208277Y-20282181D02*
X7198753Y-20291705D01*
X7198753Y-20291705D02*
X7189229Y-20282181D01*
X7189229Y-20282181D02*
X7198753Y-20272657D01*
X7198753Y-20272657D02*
X7198753Y-20291705D01*
X7389229Y-20091705D02*
X7293991Y-20091705D01*
X7293991Y-20091705D02*
X7284467Y-20186943D01*
X7284467Y-20186943D02*
X7293991Y-20177419D01*
X7293991Y-20177419D02*
X7313039Y-20167895D01*
X7313039Y-20167895D02*
X7360658Y-20167895D01*
X7360658Y-20167895D02*
X7379705Y-20177419D01*
X7379705Y-20177419D02*
X7389229Y-20186943D01*
X7389229Y-20186943D02*
X7398753Y-20205990D01*
X7398753Y-20205990D02*
X7398753Y-20253609D01*
X7398753Y-20253609D02*
X7389229Y-20272657D01*
X7389229Y-20272657D02*
X7379705Y-20282181D01*
X7379705Y-20282181D02*
X7360658Y-20291705D01*
X7360658Y-20291705D02*
X7313039Y-20291705D01*
X7313039Y-20291705D02*
X7293991Y-20282181D01*
X7293991Y-20282181D02*
X7284467Y-20272657D01*
X7522562Y-20091705D02*
X7541610Y-20091705D01*
X7541610Y-20091705D02*
X7560658Y-20101229D01*
X7560658Y-20101229D02*
X7570182Y-20110752D01*
X7570182Y-20110752D02*
X7579705Y-20129800D01*
X7579705Y-20129800D02*
X7589229Y-20167895D01*
X7589229Y-20167895D02*
X7589229Y-20215514D01*
X7589229Y-20215514D02*
X7579705Y-20253609D01*
X7579705Y-20253609D02*
X7570182Y-20272657D01*
X7570182Y-20272657D02*
X7560658Y-20282181D01*
X7560658Y-20282181D02*
X7541610Y-20291705D01*
X7541610Y-20291705D02*
X7522562Y-20291705D01*
X7522562Y-20291705D02*
X7503515Y-20282181D01*
X7503515Y-20282181D02*
X7493991Y-20272657D01*
X7493991Y-20272657D02*
X7484467Y-20253609D01*
X7484467Y-20253609D02*
X7474943Y-20215514D01*
X7474943Y-20215514D02*
X7474943Y-20167895D01*
X7474943Y-20167895D02*
X7484467Y-20129800D01*
X7484467Y-20129800D02*
X7493991Y-20110752D01*
X7493991Y-20110752D02*
X7503515Y-20101229D01*
X7503515Y-20101229D02*
X7522562Y-20091705D01*
X7713039Y-20091705D02*
X7732086Y-20091705D01*
X7732086Y-20091705D02*
X7751134Y-20101229D01*
X7751134Y-20101229D02*
X7760658Y-20110752D01*
X7760658Y-20110752D02*
X7770182Y-20129800D01*
X7770182Y-20129800D02*
X7779705Y-20167895D01*
X7779705Y-20167895D02*
X7779705Y-20215514D01*
X7779705Y-20215514D02*
X7770182Y-20253609D01*
X7770182Y-20253609D02*
X7760658Y-20272657D01*
X7760658Y-20272657D02*
X7751134Y-20282181D01*
X7751134Y-20282181D02*
X7732086Y-20291705D01*
X7732086Y-20291705D02*
X7713039Y-20291705D01*
X7713039Y-20291705D02*
X7693991Y-20282181D01*
X7693991Y-20282181D02*
X7684467Y-20272657D01*
X7684467Y-20272657D02*
X7674943Y-20253609D01*
X7674943Y-20253609D02*
X7665420Y-20215514D01*
X7665420Y-20215514D02*
X7665420Y-20167895D01*
X7665420Y-20167895D02*
X7674943Y-20129800D01*
X7674943Y-20129800D02*
X7684467Y-20110752D01*
X7684467Y-20110752D02*
X7693991Y-20101229D01*
X7693991Y-20101229D02*
X7713039Y-20091705D01*
X7865420Y-20291705D02*
X7865420Y-20158371D01*
X7865420Y-20177419D02*
X7874943Y-20167895D01*
X7874943Y-20167895D02*
X7893991Y-20158371D01*
X7893991Y-20158371D02*
X7922563Y-20158371D01*
X7922563Y-20158371D02*
X7941610Y-20167895D01*
X7941610Y-20167895D02*
X7951134Y-20186943D01*
X7951134Y-20186943D02*
X7951134Y-20291705D01*
X7951134Y-20186943D02*
X7960658Y-20167895D01*
X7960658Y-20167895D02*
X7979705Y-20158371D01*
X7979705Y-20158371D02*
X8008277Y-20158371D01*
X8008277Y-20158371D02*
X8027324Y-20167895D01*
X8027324Y-20167895D02*
X8036848Y-20186943D01*
X8036848Y-20186943D02*
X8036848Y-20291705D01*
X8132086Y-20291705D02*
X8132086Y-20158371D01*
X8132086Y-20177419D02*
X8141610Y-20167895D01*
X8141610Y-20167895D02*
X8160658Y-20158371D01*
X8160658Y-20158371D02*
X8189229Y-20158371D01*
X8189229Y-20158371D02*
X8208277Y-20167895D01*
X8208277Y-20167895D02*
X8217801Y-20186943D01*
X8217801Y-20186943D02*
X8217801Y-20291705D01*
X8217801Y-20186943D02*
X8227324Y-20167895D01*
X8227324Y-20167895D02*
X8246372Y-20158371D01*
X8246372Y-20158371D02*
X8274943Y-20158371D01*
X8274943Y-20158371D02*
X8293991Y-20167895D01*
X8293991Y-20167895D02*
X8303515Y-20186943D01*
X8303515Y-20186943D02*
X8303515Y-20291705D01*
X8693991Y-20082181D02*
X8522563Y-20339324D01*
X8951134Y-20091705D02*
X8970182Y-20091705D01*
X8970182Y-20091705D02*
X8989229Y-20101229D01*
X8989229Y-20101229D02*
X8998753Y-20110752D01*
X8998753Y-20110752D02*
X9008277Y-20129800D01*
X9008277Y-20129800D02*
X9017801Y-20167895D01*
X9017801Y-20167895D02*
X9017801Y-20215514D01*
X9017801Y-20215514D02*
X9008277Y-20253609D01*
X9008277Y-20253609D02*
X8998753Y-20272657D01*
X8998753Y-20272657D02*
X8989229Y-20282181D01*
X8989229Y-20282181D02*
X8970182Y-20291705D01*
X8970182Y-20291705D02*
X8951134Y-20291705D01*
X8951134Y-20291705D02*
X8932087Y-20282181D01*
X8932087Y-20282181D02*
X8922563Y-20272657D01*
X8922563Y-20272657D02*
X8913039Y-20253609D01*
X8913039Y-20253609D02*
X8903515Y-20215514D01*
X8903515Y-20215514D02*
X8903515Y-20167895D01*
X8903515Y-20167895D02*
X8913039Y-20129800D01*
X8913039Y-20129800D02*
X8922563Y-20110752D01*
X8922563Y-20110752D02*
X8932087Y-20101229D01*
X8932087Y-20101229D02*
X8951134Y-20091705D01*
X9103515Y-20272657D02*
X9113039Y-20282181D01*
X9113039Y-20282181D02*
X9103515Y-20291705D01*
X9103515Y-20291705D02*
X9093991Y-20282181D01*
X9093991Y-20282181D02*
X9103515Y-20272657D01*
X9103515Y-20272657D02*
X9103515Y-20291705D01*
X9236848Y-20091705D02*
X9255896Y-20091705D01*
X9255896Y-20091705D02*
X9274944Y-20101229D01*
X9274944Y-20101229D02*
X9284468Y-20110752D01*
X9284468Y-20110752D02*
X9293991Y-20129800D01*
X9293991Y-20129800D02*
X9303515Y-20167895D01*
X9303515Y-20167895D02*
X9303515Y-20215514D01*
X9303515Y-20215514D02*
X9293991Y-20253609D01*
X9293991Y-20253609D02*
X9284468Y-20272657D01*
X9284468Y-20272657D02*
X9274944Y-20282181D01*
X9274944Y-20282181D02*
X9255896Y-20291705D01*
X9255896Y-20291705D02*
X9236848Y-20291705D01*
X9236848Y-20291705D02*
X9217801Y-20282181D01*
X9217801Y-20282181D02*
X9208277Y-20272657D01*
X9208277Y-20272657D02*
X9198753Y-20253609D01*
X9198753Y-20253609D02*
X9189229Y-20215514D01*
X9189229Y-20215514D02*
X9189229Y-20167895D01*
X9189229Y-20167895D02*
X9198753Y-20129800D01*
X9198753Y-20129800D02*
X9208277Y-20110752D01*
X9208277Y-20110752D02*
X9217801Y-20101229D01*
X9217801Y-20101229D02*
X9236848Y-20091705D01*
X9484468Y-20091705D02*
X9389229Y-20091705D01*
X9389229Y-20091705D02*
X9379706Y-20186943D01*
X9379706Y-20186943D02*
X9389229Y-20177419D01*
X9389229Y-20177419D02*
X9408277Y-20167895D01*
X9408277Y-20167895D02*
X9455896Y-20167895D01*
X9455896Y-20167895D02*
X9474944Y-20177419D01*
X9474944Y-20177419D02*
X9484468Y-20186943D01*
X9484468Y-20186943D02*
X9493991Y-20205990D01*
X9493991Y-20205990D02*
X9493991Y-20253609D01*
X9493991Y-20253609D02*
X9484468Y-20272657D01*
X9484468Y-20272657D02*
X9474944Y-20282181D01*
X9474944Y-20282181D02*
X9455896Y-20291705D01*
X9455896Y-20291705D02*
X9408277Y-20291705D01*
X9408277Y-20291705D02*
X9389229Y-20282181D01*
X9389229Y-20282181D02*
X9379706Y-20272657D01*
X9589229Y-20291705D02*
X9627325Y-20291705D01*
X9627325Y-20291705D02*
X9646372Y-20282181D01*
X9646372Y-20282181D02*
X9655896Y-20272657D01*
X9655896Y-20272657D02*
X9674944Y-20244086D01*
X9674944Y-20244086D02*
X9684468Y-20205990D01*
X9684468Y-20205990D02*
X9684468Y-20129800D01*
X9684468Y-20129800D02*
X9674944Y-20110752D01*
X9674944Y-20110752D02*
X9665420Y-20101229D01*
X9665420Y-20101229D02*
X9646372Y-20091705D01*
X9646372Y-20091705D02*
X9608277Y-20091705D01*
X9608277Y-20091705D02*
X9589229Y-20101229D01*
X9589229Y-20101229D02*
X9579706Y-20110752D01*
X9579706Y-20110752D02*
X9570182Y-20129800D01*
X9570182Y-20129800D02*
X9570182Y-20177419D01*
X9570182Y-20177419D02*
X9579706Y-20196467D01*
X9579706Y-20196467D02*
X9589229Y-20205990D01*
X9589229Y-20205990D02*
X9608277Y-20215514D01*
X9608277Y-20215514D02*
X9646372Y-20215514D01*
X9646372Y-20215514D02*
X9665420Y-20205990D01*
X9665420Y-20205990D02*
X9674944Y-20196467D01*
X9674944Y-20196467D02*
X9684468Y-20177419D01*
X9874944Y-20291705D02*
X9760658Y-20291705D01*
X9817801Y-20291705D02*
X9817801Y-20091705D01*
X9817801Y-20091705D02*
X9798753Y-20120276D01*
X9798753Y-20120276D02*
X9779706Y-20139324D01*
X9779706Y-20139324D02*
X9760658Y-20148848D01*
X9951134Y-20091705D02*
X9951134Y-20129800D01*
X10027325Y-20091705D02*
X10027325Y-20129800D01*
X10322563Y-20367895D02*
X10313039Y-20358371D01*
X10313039Y-20358371D02*
X10293991Y-20329800D01*
X10293991Y-20329800D02*
X10284468Y-20310752D01*
X10284468Y-20310752D02*
X10274944Y-20282181D01*
X10274944Y-20282181D02*
X10265420Y-20234562D01*
X10265420Y-20234562D02*
X10265420Y-20196467D01*
X10265420Y-20196467D02*
X10274944Y-20148848D01*
X10274944Y-20148848D02*
X10284468Y-20120276D01*
X10284468Y-20120276D02*
X10293991Y-20101229D01*
X10293991Y-20101229D02*
X10313039Y-20072657D01*
X10313039Y-20072657D02*
X10322563Y-20063133D01*
X10436849Y-20091705D02*
X10455896Y-20091705D01*
X10455896Y-20091705D02*
X10474944Y-20101229D01*
X10474944Y-20101229D02*
X10484468Y-20110752D01*
X10484468Y-20110752D02*
X10493991Y-20129800D01*
X10493991Y-20129800D02*
X10503515Y-20167895D01*
X10503515Y-20167895D02*
X10503515Y-20215514D01*
X10503515Y-20215514D02*
X10493991Y-20253609D01*
X10493991Y-20253609D02*
X10484468Y-20272657D01*
X10484468Y-20272657D02*
X10474944Y-20282181D01*
X10474944Y-20282181D02*
X10455896Y-20291705D01*
X10455896Y-20291705D02*
X10436849Y-20291705D01*
X10436849Y-20291705D02*
X10417801Y-20282181D01*
X10417801Y-20282181D02*
X10408277Y-20272657D01*
X10408277Y-20272657D02*
X10398753Y-20253609D01*
X10398753Y-20253609D02*
X10389230Y-20215514D01*
X10389230Y-20215514D02*
X10389230Y-20167895D01*
X10389230Y-20167895D02*
X10398753Y-20129800D01*
X10398753Y-20129800D02*
X10408277Y-20110752D01*
X10408277Y-20110752D02*
X10417801Y-20101229D01*
X10417801Y-20101229D02*
X10436849Y-20091705D01*
X10741611Y-20291705D02*
X10741611Y-20091705D01*
X10827325Y-20291705D02*
X10827325Y-20186943D01*
X10827325Y-20186943D02*
X10817801Y-20167895D01*
X10817801Y-20167895D02*
X10798753Y-20158371D01*
X10798753Y-20158371D02*
X10770182Y-20158371D01*
X10770182Y-20158371D02*
X10751134Y-20167895D01*
X10751134Y-20167895D02*
X10741611Y-20177419D01*
X10951134Y-20291705D02*
X10932087Y-20282181D01*
X10932087Y-20282181D02*
X10922563Y-20272657D01*
X10922563Y-20272657D02*
X10913039Y-20253609D01*
X10913039Y-20253609D02*
X10913039Y-20196467D01*
X10913039Y-20196467D02*
X10922563Y-20177419D01*
X10922563Y-20177419D02*
X10932087Y-20167895D01*
X10932087Y-20167895D02*
X10951134Y-20158371D01*
X10951134Y-20158371D02*
X10979706Y-20158371D01*
X10979706Y-20158371D02*
X10998753Y-20167895D01*
X10998753Y-20167895D02*
X11008277Y-20177419D01*
X11008277Y-20177419D02*
X11017801Y-20196467D01*
X11017801Y-20196467D02*
X11017801Y-20253609D01*
X11017801Y-20253609D02*
X11008277Y-20272657D01*
X11008277Y-20272657D02*
X10998753Y-20282181D01*
X10998753Y-20282181D02*
X10979706Y-20291705D01*
X10979706Y-20291705D02*
X10951134Y-20291705D01*
X11132087Y-20291705D02*
X11113039Y-20282181D01*
X11113039Y-20282181D02*
X11103515Y-20263133D01*
X11103515Y-20263133D02*
X11103515Y-20091705D01*
X11284468Y-20282181D02*
X11265420Y-20291705D01*
X11265420Y-20291705D02*
X11227325Y-20291705D01*
X11227325Y-20291705D02*
X11208277Y-20282181D01*
X11208277Y-20282181D02*
X11198753Y-20263133D01*
X11198753Y-20263133D02*
X11198753Y-20186943D01*
X11198753Y-20186943D02*
X11208277Y-20167895D01*
X11208277Y-20167895D02*
X11227325Y-20158371D01*
X11227325Y-20158371D02*
X11265420Y-20158371D01*
X11265420Y-20158371D02*
X11284468Y-20167895D01*
X11284468Y-20167895D02*
X11293991Y-20186943D01*
X11293991Y-20186943D02*
X11293991Y-20205990D01*
X11293991Y-20205990D02*
X11198753Y-20225038D01*
X11370182Y-20282181D02*
X11389230Y-20291705D01*
X11389230Y-20291705D02*
X11427325Y-20291705D01*
X11427325Y-20291705D02*
X11446372Y-20282181D01*
X11446372Y-20282181D02*
X11455896Y-20263133D01*
X11455896Y-20263133D02*
X11455896Y-20253609D01*
X11455896Y-20253609D02*
X11446372Y-20234562D01*
X11446372Y-20234562D02*
X11427325Y-20225038D01*
X11427325Y-20225038D02*
X11398753Y-20225038D01*
X11398753Y-20225038D02*
X11379706Y-20215514D01*
X11379706Y-20215514D02*
X11370182Y-20196467D01*
X11370182Y-20196467D02*
X11370182Y-20186943D01*
X11370182Y-20186943D02*
X11379706Y-20167895D01*
X11379706Y-20167895D02*
X11398753Y-20158371D01*
X11398753Y-20158371D02*
X11427325Y-20158371D01*
X11427325Y-20158371D02*
X11446372Y-20167895D01*
X11693992Y-20215514D02*
X11846373Y-20215514D01*
X11770182Y-20291705D02*
X11770182Y-20139324D01*
X12084468Y-20110752D02*
X12093992Y-20101229D01*
X12093992Y-20101229D02*
X12113039Y-20091705D01*
X12113039Y-20091705D02*
X12160658Y-20091705D01*
X12160658Y-20091705D02*
X12179706Y-20101229D01*
X12179706Y-20101229D02*
X12189230Y-20110752D01*
X12189230Y-20110752D02*
X12198753Y-20129800D01*
X12198753Y-20129800D02*
X12198753Y-20148848D01*
X12198753Y-20148848D02*
X12189230Y-20177419D01*
X12189230Y-20177419D02*
X12074944Y-20291705D01*
X12074944Y-20291705D02*
X12198753Y-20291705D01*
X12427325Y-20282181D02*
X12446373Y-20291705D01*
X12446373Y-20291705D02*
X12484468Y-20291705D01*
X12484468Y-20291705D02*
X12503515Y-20282181D01*
X12503515Y-20282181D02*
X12513039Y-20263133D01*
X12513039Y-20263133D02*
X12513039Y-20253609D01*
X12513039Y-20253609D02*
X12503515Y-20234562D01*
X12503515Y-20234562D02*
X12484468Y-20225038D01*
X12484468Y-20225038D02*
X12455896Y-20225038D01*
X12455896Y-20225038D02*
X12436849Y-20215514D01*
X12436849Y-20215514D02*
X12427325Y-20196467D01*
X12427325Y-20196467D02*
X12427325Y-20186943D01*
X12427325Y-20186943D02*
X12436849Y-20167895D01*
X12436849Y-20167895D02*
X12455896Y-20158371D01*
X12455896Y-20158371D02*
X12484468Y-20158371D01*
X12484468Y-20158371D02*
X12503515Y-20167895D01*
X12627325Y-20291705D02*
X12608277Y-20282181D01*
X12608277Y-20282181D02*
X12598754Y-20263133D01*
X12598754Y-20263133D02*
X12598754Y-20091705D01*
X12732087Y-20291705D02*
X12713039Y-20282181D01*
X12713039Y-20282181D02*
X12703515Y-20272657D01*
X12703515Y-20272657D02*
X12693992Y-20253609D01*
X12693992Y-20253609D02*
X12693992Y-20196467D01*
X12693992Y-20196467D02*
X12703515Y-20177419D01*
X12703515Y-20177419D02*
X12713039Y-20167895D01*
X12713039Y-20167895D02*
X12732087Y-20158371D01*
X12732087Y-20158371D02*
X12760658Y-20158371D01*
X12760658Y-20158371D02*
X12779706Y-20167895D01*
X12779706Y-20167895D02*
X12789230Y-20177419D01*
X12789230Y-20177419D02*
X12798754Y-20196467D01*
X12798754Y-20196467D02*
X12798754Y-20253609D01*
X12798754Y-20253609D02*
X12789230Y-20272657D01*
X12789230Y-20272657D02*
X12779706Y-20282181D01*
X12779706Y-20282181D02*
X12760658Y-20291705D01*
X12760658Y-20291705D02*
X12732087Y-20291705D01*
X12855896Y-20158371D02*
X12932087Y-20158371D01*
X12884468Y-20091705D02*
X12884468Y-20263133D01*
X12884468Y-20263133D02*
X12893992Y-20282181D01*
X12893992Y-20282181D02*
X12913039Y-20291705D01*
X12913039Y-20291705D02*
X12932087Y-20291705D01*
X12989230Y-20282181D02*
X13008277Y-20291705D01*
X13008277Y-20291705D02*
X13046373Y-20291705D01*
X13046373Y-20291705D02*
X13065420Y-20282181D01*
X13065420Y-20282181D02*
X13074944Y-20263133D01*
X13074944Y-20263133D02*
X13074944Y-20253609D01*
X13074944Y-20253609D02*
X13065420Y-20234562D01*
X13065420Y-20234562D02*
X13046373Y-20225038D01*
X13046373Y-20225038D02*
X13017801Y-20225038D01*
X13017801Y-20225038D02*
X12998754Y-20215514D01*
X12998754Y-20215514D02*
X12989230Y-20196467D01*
X12989230Y-20196467D02*
X12989230Y-20186943D01*
X12989230Y-20186943D02*
X12998754Y-20167895D01*
X12998754Y-20167895D02*
X13017801Y-20158371D01*
X13017801Y-20158371D02*
X13046373Y-20158371D01*
X13046373Y-20158371D02*
X13065420Y-20167895D01*
X13141611Y-20367895D02*
X13151135Y-20358371D01*
X13151135Y-20358371D02*
X13170182Y-20329800D01*
X13170182Y-20329800D02*
X13179706Y-20310752D01*
X13179706Y-20310752D02*
X13189230Y-20282181D01*
X13189230Y-20282181D02*
X13198754Y-20234562D01*
X13198754Y-20234562D02*
X13198754Y-20196467D01*
X13198754Y-20196467D02*
X13189230Y-20148848D01*
X13189230Y-20148848D02*
X13179706Y-20120276D01*
X13179706Y-20120276D02*
X13170182Y-20101229D01*
X13170182Y-20101229D02*
X13151135Y-20072657D01*
X13151135Y-20072657D02*
X13141611Y-20063133D01*
X13503516Y-20367895D02*
X13493992Y-20358371D01*
X13493992Y-20358371D02*
X13474944Y-20329800D01*
X13474944Y-20329800D02*
X13465420Y-20310752D01*
X13465420Y-20310752D02*
X13455896Y-20282181D01*
X13455896Y-20282181D02*
X13446373Y-20234562D01*
X13446373Y-20234562D02*
X13446373Y-20196467D01*
X13446373Y-20196467D02*
X13455896Y-20148848D01*
X13455896Y-20148848D02*
X13465420Y-20120276D01*
X13465420Y-20120276D02*
X13474944Y-20101229D01*
X13474944Y-20101229D02*
X13493992Y-20072657D01*
X13493992Y-20072657D02*
X13503516Y-20063133D01*
X13579706Y-20158371D02*
X13579706Y-20291705D01*
X13579706Y-20177419D02*
X13589230Y-20167895D01*
X13589230Y-20167895D02*
X13608277Y-20158371D01*
X13608277Y-20158371D02*
X13636849Y-20158371D01*
X13636849Y-20158371D02*
X13655896Y-20167895D01*
X13655896Y-20167895D02*
X13665420Y-20186943D01*
X13665420Y-20186943D02*
X13665420Y-20291705D01*
X13789230Y-20291705D02*
X13770182Y-20282181D01*
X13770182Y-20282181D02*
X13760658Y-20272657D01*
X13760658Y-20272657D02*
X13751135Y-20253609D01*
X13751135Y-20253609D02*
X13751135Y-20196467D01*
X13751135Y-20196467D02*
X13760658Y-20177419D01*
X13760658Y-20177419D02*
X13770182Y-20167895D01*
X13770182Y-20167895D02*
X13789230Y-20158371D01*
X13789230Y-20158371D02*
X13817801Y-20158371D01*
X13817801Y-20158371D02*
X13836849Y-20167895D01*
X13836849Y-20167895D02*
X13846373Y-20177419D01*
X13846373Y-20177419D02*
X13855896Y-20196467D01*
X13855896Y-20196467D02*
X13855896Y-20253609D01*
X13855896Y-20253609D02*
X13846373Y-20272657D01*
X13846373Y-20272657D02*
X13836849Y-20282181D01*
X13836849Y-20282181D02*
X13817801Y-20291705D01*
X13817801Y-20291705D02*
X13789230Y-20291705D01*
X13913039Y-20158371D02*
X13989230Y-20158371D01*
X13941611Y-20091705D02*
X13941611Y-20263133D01*
X13941611Y-20263133D02*
X13951135Y-20282181D01*
X13951135Y-20282181D02*
X13970182Y-20291705D01*
X13970182Y-20291705D02*
X13989230Y-20291705D01*
X14208277Y-20158371D02*
X14208277Y-20358371D01*
X14208277Y-20167895D02*
X14227325Y-20158371D01*
X14227325Y-20158371D02*
X14265420Y-20158371D01*
X14265420Y-20158371D02*
X14284468Y-20167895D01*
X14284468Y-20167895D02*
X14293992Y-20177419D01*
X14293992Y-20177419D02*
X14303516Y-20196467D01*
X14303516Y-20196467D02*
X14303516Y-20253609D01*
X14303516Y-20253609D02*
X14293992Y-20272657D01*
X14293992Y-20272657D02*
X14284468Y-20282181D01*
X14284468Y-20282181D02*
X14265420Y-20291705D01*
X14265420Y-20291705D02*
X14227325Y-20291705D01*
X14227325Y-20291705D02*
X14208277Y-20282181D01*
X14417801Y-20291705D02*
X14398754Y-20282181D01*
X14398754Y-20282181D02*
X14389230Y-20263133D01*
X14389230Y-20263133D02*
X14389230Y-20091705D01*
X14579706Y-20291705D02*
X14579706Y-20186943D01*
X14579706Y-20186943D02*
X14570182Y-20167895D01*
X14570182Y-20167895D02*
X14551135Y-20158371D01*
X14551135Y-20158371D02*
X14513039Y-20158371D01*
X14513039Y-20158371D02*
X14493992Y-20167895D01*
X14579706Y-20282181D02*
X14560658Y-20291705D01*
X14560658Y-20291705D02*
X14513039Y-20291705D01*
X14513039Y-20291705D02*
X14493992Y-20282181D01*
X14493992Y-20282181D02*
X14484468Y-20263133D01*
X14484468Y-20263133D02*
X14484468Y-20244086D01*
X14484468Y-20244086D02*
X14493992Y-20225038D01*
X14493992Y-20225038D02*
X14513039Y-20215514D01*
X14513039Y-20215514D02*
X14560658Y-20215514D01*
X14560658Y-20215514D02*
X14579706Y-20205990D01*
X14646373Y-20158371D02*
X14722563Y-20158371D01*
X14674944Y-20091705D02*
X14674944Y-20263133D01*
X14674944Y-20263133D02*
X14684468Y-20282181D01*
X14684468Y-20282181D02*
X14703516Y-20291705D01*
X14703516Y-20291705D02*
X14722563Y-20291705D01*
X14865420Y-20282181D02*
X14846373Y-20291705D01*
X14846373Y-20291705D02*
X14808277Y-20291705D01*
X14808277Y-20291705D02*
X14789230Y-20282181D01*
X14789230Y-20282181D02*
X14779706Y-20263133D01*
X14779706Y-20263133D02*
X14779706Y-20186943D01*
X14779706Y-20186943D02*
X14789230Y-20167895D01*
X14789230Y-20167895D02*
X14808277Y-20158371D01*
X14808277Y-20158371D02*
X14846373Y-20158371D01*
X14846373Y-20158371D02*
X14865420Y-20167895D01*
X14865420Y-20167895D02*
X14874944Y-20186943D01*
X14874944Y-20186943D02*
X14874944Y-20205990D01*
X14874944Y-20205990D02*
X14779706Y-20225038D01*
X15046373Y-20291705D02*
X15046373Y-20091705D01*
X15046373Y-20282181D02*
X15027325Y-20291705D01*
X15027325Y-20291705D02*
X14989230Y-20291705D01*
X14989230Y-20291705D02*
X14970182Y-20282181D01*
X14970182Y-20282181D02*
X14960658Y-20272657D01*
X14960658Y-20272657D02*
X14951135Y-20253609D01*
X14951135Y-20253609D02*
X14951135Y-20196467D01*
X14951135Y-20196467D02*
X14960658Y-20177419D01*
X14960658Y-20177419D02*
X14970182Y-20167895D01*
X14970182Y-20167895D02*
X14989230Y-20158371D01*
X14989230Y-20158371D02*
X15027325Y-20158371D01*
X15027325Y-20158371D02*
X15046373Y-20167895D01*
X15122563Y-20367895D02*
X15132087Y-20358371D01*
X15132087Y-20358371D02*
X15151135Y-20329800D01*
X15151135Y-20329800D02*
X15160658Y-20310752D01*
X15160658Y-20310752D02*
X15170182Y-20282181D01*
X15170182Y-20282181D02*
X15179706Y-20234562D01*
X15179706Y-20234562D02*
X15179706Y-20196467D01*
X15179706Y-20196467D02*
X15170182Y-20148848D01*
X15170182Y-20148848D02*
X15160658Y-20120276D01*
X15160658Y-20120276D02*
X15151135Y-20101229D01*
X15151135Y-20101229D02*
X15132087Y-20072657D01*
X15132087Y-20072657D02*
X15122563Y-20063133D01*
D14*
X6660000Y-20382721D02*
X6660000Y-20557721D01*
X6572500Y-20470221D02*
X6747500Y-20470221D01*
D12*
X7113039Y-20561705D02*
X6998753Y-20561705D01*
X7055896Y-20561705D02*
X7055896Y-20361705D01*
X7055896Y-20361705D02*
X7036848Y-20390276D01*
X7036848Y-20390276D02*
X7017801Y-20409324D01*
X7017801Y-20409324D02*
X6998753Y-20418848D01*
X7198753Y-20542657D02*
X7208277Y-20552181D01*
X7208277Y-20552181D02*
X7198753Y-20561705D01*
X7198753Y-20561705D02*
X7189229Y-20552181D01*
X7189229Y-20552181D02*
X7198753Y-20542657D01*
X7198753Y-20542657D02*
X7198753Y-20561705D01*
X7274943Y-20361705D02*
X7408277Y-20361705D01*
X7408277Y-20361705D02*
X7322562Y-20561705D01*
X7579705Y-20361705D02*
X7484467Y-20361705D01*
X7484467Y-20361705D02*
X7474943Y-20456943D01*
X7474943Y-20456943D02*
X7484467Y-20447419D01*
X7484467Y-20447419D02*
X7503515Y-20437895D01*
X7503515Y-20437895D02*
X7551134Y-20437895D01*
X7551134Y-20437895D02*
X7570182Y-20447419D01*
X7570182Y-20447419D02*
X7579705Y-20456943D01*
X7579705Y-20456943D02*
X7589229Y-20475990D01*
X7589229Y-20475990D02*
X7589229Y-20523609D01*
X7589229Y-20523609D02*
X7579705Y-20542657D01*
X7579705Y-20542657D02*
X7570182Y-20552181D01*
X7570182Y-20552181D02*
X7551134Y-20561705D01*
X7551134Y-20561705D02*
X7503515Y-20561705D01*
X7503515Y-20561705D02*
X7484467Y-20552181D01*
X7484467Y-20552181D02*
X7474943Y-20542657D01*
X7713039Y-20361705D02*
X7732086Y-20361705D01*
X7732086Y-20361705D02*
X7751134Y-20371229D01*
X7751134Y-20371229D02*
X7760658Y-20380752D01*
X7760658Y-20380752D02*
X7770182Y-20399800D01*
X7770182Y-20399800D02*
X7779705Y-20437895D01*
X7779705Y-20437895D02*
X7779705Y-20485514D01*
X7779705Y-20485514D02*
X7770182Y-20523609D01*
X7770182Y-20523609D02*
X7760658Y-20542657D01*
X7760658Y-20542657D02*
X7751134Y-20552181D01*
X7751134Y-20552181D02*
X7732086Y-20561705D01*
X7732086Y-20561705D02*
X7713039Y-20561705D01*
X7713039Y-20561705D02*
X7693991Y-20552181D01*
X7693991Y-20552181D02*
X7684467Y-20542657D01*
X7684467Y-20542657D02*
X7674943Y-20523609D01*
X7674943Y-20523609D02*
X7665420Y-20485514D01*
X7665420Y-20485514D02*
X7665420Y-20437895D01*
X7665420Y-20437895D02*
X7674943Y-20399800D01*
X7674943Y-20399800D02*
X7684467Y-20380752D01*
X7684467Y-20380752D02*
X7693991Y-20371229D01*
X7693991Y-20371229D02*
X7713039Y-20361705D01*
X7865420Y-20561705D02*
X7865420Y-20428371D01*
X7865420Y-20447419D02*
X7874943Y-20437895D01*
X7874943Y-20437895D02*
X7893991Y-20428371D01*
X7893991Y-20428371D02*
X7922563Y-20428371D01*
X7922563Y-20428371D02*
X7941610Y-20437895D01*
X7941610Y-20437895D02*
X7951134Y-20456943D01*
X7951134Y-20456943D02*
X7951134Y-20561705D01*
X7951134Y-20456943D02*
X7960658Y-20437895D01*
X7960658Y-20437895D02*
X7979705Y-20428371D01*
X7979705Y-20428371D02*
X8008277Y-20428371D01*
X8008277Y-20428371D02*
X8027324Y-20437895D01*
X8027324Y-20437895D02*
X8036848Y-20456943D01*
X8036848Y-20456943D02*
X8036848Y-20561705D01*
X8132086Y-20561705D02*
X8132086Y-20428371D01*
X8132086Y-20447419D02*
X8141610Y-20437895D01*
X8141610Y-20437895D02*
X8160658Y-20428371D01*
X8160658Y-20428371D02*
X8189229Y-20428371D01*
X8189229Y-20428371D02*
X8208277Y-20437895D01*
X8208277Y-20437895D02*
X8217801Y-20456943D01*
X8217801Y-20456943D02*
X8217801Y-20561705D01*
X8217801Y-20456943D02*
X8227324Y-20437895D01*
X8227324Y-20437895D02*
X8246372Y-20428371D01*
X8246372Y-20428371D02*
X8274943Y-20428371D01*
X8274943Y-20428371D02*
X8293991Y-20437895D01*
X8293991Y-20437895D02*
X8303515Y-20456943D01*
X8303515Y-20456943D02*
X8303515Y-20561705D01*
X8693991Y-20352181D02*
X8522563Y-20609324D01*
X8951134Y-20361705D02*
X8970182Y-20361705D01*
X8970182Y-20361705D02*
X8989229Y-20371229D01*
X8989229Y-20371229D02*
X8998753Y-20380752D01*
X8998753Y-20380752D02*
X9008277Y-20399800D01*
X9008277Y-20399800D02*
X9017801Y-20437895D01*
X9017801Y-20437895D02*
X9017801Y-20485514D01*
X9017801Y-20485514D02*
X9008277Y-20523609D01*
X9008277Y-20523609D02*
X8998753Y-20542657D01*
X8998753Y-20542657D02*
X8989229Y-20552181D01*
X8989229Y-20552181D02*
X8970182Y-20561705D01*
X8970182Y-20561705D02*
X8951134Y-20561705D01*
X8951134Y-20561705D02*
X8932087Y-20552181D01*
X8932087Y-20552181D02*
X8922563Y-20542657D01*
X8922563Y-20542657D02*
X8913039Y-20523609D01*
X8913039Y-20523609D02*
X8903515Y-20485514D01*
X8903515Y-20485514D02*
X8903515Y-20437895D01*
X8903515Y-20437895D02*
X8913039Y-20399800D01*
X8913039Y-20399800D02*
X8922563Y-20380752D01*
X8922563Y-20380752D02*
X8932087Y-20371229D01*
X8932087Y-20371229D02*
X8951134Y-20361705D01*
X9103515Y-20542657D02*
X9113039Y-20552181D01*
X9113039Y-20552181D02*
X9103515Y-20561705D01*
X9103515Y-20561705D02*
X9093991Y-20552181D01*
X9093991Y-20552181D02*
X9103515Y-20542657D01*
X9103515Y-20542657D02*
X9103515Y-20561705D01*
X9236848Y-20361705D02*
X9255896Y-20361705D01*
X9255896Y-20361705D02*
X9274944Y-20371229D01*
X9274944Y-20371229D02*
X9284468Y-20380752D01*
X9284468Y-20380752D02*
X9293991Y-20399800D01*
X9293991Y-20399800D02*
X9303515Y-20437895D01*
X9303515Y-20437895D02*
X9303515Y-20485514D01*
X9303515Y-20485514D02*
X9293991Y-20523609D01*
X9293991Y-20523609D02*
X9284468Y-20542657D01*
X9284468Y-20542657D02*
X9274944Y-20552181D01*
X9274944Y-20552181D02*
X9255896Y-20561705D01*
X9255896Y-20561705D02*
X9236848Y-20561705D01*
X9236848Y-20561705D02*
X9217801Y-20552181D01*
X9217801Y-20552181D02*
X9208277Y-20542657D01*
X9208277Y-20542657D02*
X9198753Y-20523609D01*
X9198753Y-20523609D02*
X9189229Y-20485514D01*
X9189229Y-20485514D02*
X9189229Y-20437895D01*
X9189229Y-20437895D02*
X9198753Y-20399800D01*
X9198753Y-20399800D02*
X9208277Y-20380752D01*
X9208277Y-20380752D02*
X9217801Y-20371229D01*
X9217801Y-20371229D02*
X9236848Y-20361705D01*
X9474944Y-20361705D02*
X9436848Y-20361705D01*
X9436848Y-20361705D02*
X9417801Y-20371229D01*
X9417801Y-20371229D02*
X9408277Y-20380752D01*
X9408277Y-20380752D02*
X9389229Y-20409324D01*
X9389229Y-20409324D02*
X9379706Y-20447419D01*
X9379706Y-20447419D02*
X9379706Y-20523609D01*
X9379706Y-20523609D02*
X9389229Y-20542657D01*
X9389229Y-20542657D02*
X9398753Y-20552181D01*
X9398753Y-20552181D02*
X9417801Y-20561705D01*
X9417801Y-20561705D02*
X9455896Y-20561705D01*
X9455896Y-20561705D02*
X9474944Y-20552181D01*
X9474944Y-20552181D02*
X9484468Y-20542657D01*
X9484468Y-20542657D02*
X9493991Y-20523609D01*
X9493991Y-20523609D02*
X9493991Y-20475990D01*
X9493991Y-20475990D02*
X9484468Y-20456943D01*
X9484468Y-20456943D02*
X9474944Y-20447419D01*
X9474944Y-20447419D02*
X9455896Y-20437895D01*
X9455896Y-20437895D02*
X9417801Y-20437895D01*
X9417801Y-20437895D02*
X9398753Y-20447419D01*
X9398753Y-20447419D02*
X9389229Y-20456943D01*
X9389229Y-20456943D02*
X9379706Y-20475990D01*
X9608277Y-20447419D02*
X9589229Y-20437895D01*
X9589229Y-20437895D02*
X9579706Y-20428371D01*
X9579706Y-20428371D02*
X9570182Y-20409324D01*
X9570182Y-20409324D02*
X9570182Y-20399800D01*
X9570182Y-20399800D02*
X9579706Y-20380752D01*
X9579706Y-20380752D02*
X9589229Y-20371229D01*
X9589229Y-20371229D02*
X9608277Y-20361705D01*
X9608277Y-20361705D02*
X9646372Y-20361705D01*
X9646372Y-20361705D02*
X9665420Y-20371229D01*
X9665420Y-20371229D02*
X9674944Y-20380752D01*
X9674944Y-20380752D02*
X9684468Y-20399800D01*
X9684468Y-20399800D02*
X9684468Y-20409324D01*
X9684468Y-20409324D02*
X9674944Y-20428371D01*
X9674944Y-20428371D02*
X9665420Y-20437895D01*
X9665420Y-20437895D02*
X9646372Y-20447419D01*
X9646372Y-20447419D02*
X9608277Y-20447419D01*
X9608277Y-20447419D02*
X9589229Y-20456943D01*
X9589229Y-20456943D02*
X9579706Y-20466467D01*
X9579706Y-20466467D02*
X9570182Y-20485514D01*
X9570182Y-20485514D02*
X9570182Y-20523609D01*
X9570182Y-20523609D02*
X9579706Y-20542657D01*
X9579706Y-20542657D02*
X9589229Y-20552181D01*
X9589229Y-20552181D02*
X9608277Y-20561705D01*
X9608277Y-20561705D02*
X9646372Y-20561705D01*
X9646372Y-20561705D02*
X9665420Y-20552181D01*
X9665420Y-20552181D02*
X9674944Y-20542657D01*
X9674944Y-20542657D02*
X9684468Y-20523609D01*
X9684468Y-20523609D02*
X9684468Y-20485514D01*
X9684468Y-20485514D02*
X9674944Y-20466467D01*
X9674944Y-20466467D02*
X9665420Y-20456943D01*
X9665420Y-20456943D02*
X9646372Y-20447419D01*
X9779706Y-20561705D02*
X9817801Y-20561705D01*
X9817801Y-20561705D02*
X9836849Y-20552181D01*
X9836849Y-20552181D02*
X9846372Y-20542657D01*
X9846372Y-20542657D02*
X9865420Y-20514086D01*
X9865420Y-20514086D02*
X9874944Y-20475990D01*
X9874944Y-20475990D02*
X9874944Y-20399800D01*
X9874944Y-20399800D02*
X9865420Y-20380752D01*
X9865420Y-20380752D02*
X9855896Y-20371229D01*
X9855896Y-20371229D02*
X9836849Y-20361705D01*
X9836849Y-20361705D02*
X9798753Y-20361705D01*
X9798753Y-20361705D02*
X9779706Y-20371229D01*
X9779706Y-20371229D02*
X9770182Y-20380752D01*
X9770182Y-20380752D02*
X9760658Y-20399800D01*
X9760658Y-20399800D02*
X9760658Y-20447419D01*
X9760658Y-20447419D02*
X9770182Y-20466467D01*
X9770182Y-20466467D02*
X9779706Y-20475990D01*
X9779706Y-20475990D02*
X9798753Y-20485514D01*
X9798753Y-20485514D02*
X9836849Y-20485514D01*
X9836849Y-20485514D02*
X9855896Y-20475990D01*
X9855896Y-20475990D02*
X9865420Y-20466467D01*
X9865420Y-20466467D02*
X9874944Y-20447419D01*
X9951134Y-20361705D02*
X9951134Y-20399800D01*
X10027325Y-20361705D02*
X10027325Y-20399800D01*
X10322563Y-20637895D02*
X10313039Y-20628371D01*
X10313039Y-20628371D02*
X10293991Y-20599800D01*
X10293991Y-20599800D02*
X10284468Y-20580752D01*
X10284468Y-20580752D02*
X10274944Y-20552181D01*
X10274944Y-20552181D02*
X10265420Y-20504562D01*
X10265420Y-20504562D02*
X10265420Y-20466467D01*
X10265420Y-20466467D02*
X10274944Y-20418848D01*
X10274944Y-20418848D02*
X10284468Y-20390276D01*
X10284468Y-20390276D02*
X10293991Y-20371229D01*
X10293991Y-20371229D02*
X10313039Y-20342657D01*
X10313039Y-20342657D02*
X10322563Y-20333133D01*
X10379706Y-20361705D02*
X10513039Y-20361705D01*
X10513039Y-20361705D02*
X10427325Y-20561705D01*
X10674944Y-20428371D02*
X10674944Y-20561705D01*
X10627325Y-20352181D02*
X10579706Y-20495038D01*
X10579706Y-20495038D02*
X10703515Y-20495038D01*
X10932087Y-20561705D02*
X10932087Y-20361705D01*
X11017801Y-20561705D02*
X11017801Y-20456943D01*
X11017801Y-20456943D02*
X11008277Y-20437895D01*
X11008277Y-20437895D02*
X10989230Y-20428371D01*
X10989230Y-20428371D02*
X10960658Y-20428371D01*
X10960658Y-20428371D02*
X10941611Y-20437895D01*
X10941611Y-20437895D02*
X10932087Y-20447419D01*
X11141611Y-20561705D02*
X11122563Y-20552181D01*
X11122563Y-20552181D02*
X11113039Y-20542657D01*
X11113039Y-20542657D02*
X11103515Y-20523609D01*
X11103515Y-20523609D02*
X11103515Y-20466467D01*
X11103515Y-20466467D02*
X11113039Y-20447419D01*
X11113039Y-20447419D02*
X11122563Y-20437895D01*
X11122563Y-20437895D02*
X11141611Y-20428371D01*
X11141611Y-20428371D02*
X11170182Y-20428371D01*
X11170182Y-20428371D02*
X11189230Y-20437895D01*
X11189230Y-20437895D02*
X11198753Y-20447419D01*
X11198753Y-20447419D02*
X11208277Y-20466467D01*
X11208277Y-20466467D02*
X11208277Y-20523609D01*
X11208277Y-20523609D02*
X11198753Y-20542657D01*
X11198753Y-20542657D02*
X11189230Y-20552181D01*
X11189230Y-20552181D02*
X11170182Y-20561705D01*
X11170182Y-20561705D02*
X11141611Y-20561705D01*
X11322563Y-20561705D02*
X11303515Y-20552181D01*
X11303515Y-20552181D02*
X11293991Y-20533133D01*
X11293991Y-20533133D02*
X11293991Y-20361705D01*
X11474944Y-20552181D02*
X11455896Y-20561705D01*
X11455896Y-20561705D02*
X11417801Y-20561705D01*
X11417801Y-20561705D02*
X11398753Y-20552181D01*
X11398753Y-20552181D02*
X11389230Y-20533133D01*
X11389230Y-20533133D02*
X11389230Y-20456943D01*
X11389230Y-20456943D02*
X11398753Y-20437895D01*
X11398753Y-20437895D02*
X11417801Y-20428371D01*
X11417801Y-20428371D02*
X11455896Y-20428371D01*
X11455896Y-20428371D02*
X11474944Y-20437895D01*
X11474944Y-20437895D02*
X11484468Y-20456943D01*
X11484468Y-20456943D02*
X11484468Y-20475990D01*
X11484468Y-20475990D02*
X11389230Y-20495038D01*
X11560658Y-20552181D02*
X11579706Y-20561705D01*
X11579706Y-20561705D02*
X11617801Y-20561705D01*
X11617801Y-20561705D02*
X11636849Y-20552181D01*
X11636849Y-20552181D02*
X11646372Y-20533133D01*
X11646372Y-20533133D02*
X11646372Y-20523609D01*
X11646372Y-20523609D02*
X11636849Y-20504562D01*
X11636849Y-20504562D02*
X11617801Y-20495038D01*
X11617801Y-20495038D02*
X11589230Y-20495038D01*
X11589230Y-20495038D02*
X11570182Y-20485514D01*
X11570182Y-20485514D02*
X11560658Y-20466467D01*
X11560658Y-20466467D02*
X11560658Y-20456943D01*
X11560658Y-20456943D02*
X11570182Y-20437895D01*
X11570182Y-20437895D02*
X11589230Y-20428371D01*
X11589230Y-20428371D02*
X11617801Y-20428371D01*
X11617801Y-20428371D02*
X11636849Y-20437895D01*
X11713039Y-20637895D02*
X11722563Y-20628371D01*
X11722563Y-20628371D02*
X11741611Y-20599800D01*
X11741611Y-20599800D02*
X11751134Y-20580752D01*
X11751134Y-20580752D02*
X11760658Y-20552181D01*
X11760658Y-20552181D02*
X11770182Y-20504562D01*
X11770182Y-20504562D02*
X11770182Y-20466467D01*
X11770182Y-20466467D02*
X11760658Y-20418848D01*
X11760658Y-20418848D02*
X11751134Y-20390276D01*
X11751134Y-20390276D02*
X11741611Y-20371229D01*
X11741611Y-20371229D02*
X11722563Y-20342657D01*
X11722563Y-20342657D02*
X11713039Y-20333133D01*
X12074944Y-20637895D02*
X12065420Y-20628371D01*
X12065420Y-20628371D02*
X12046372Y-20599800D01*
X12046372Y-20599800D02*
X12036849Y-20580752D01*
X12036849Y-20580752D02*
X12027325Y-20552181D01*
X12027325Y-20552181D02*
X12017801Y-20504562D01*
X12017801Y-20504562D02*
X12017801Y-20466467D01*
X12017801Y-20466467D02*
X12027325Y-20418848D01*
X12027325Y-20418848D02*
X12036849Y-20390276D01*
X12036849Y-20390276D02*
X12046372Y-20371229D01*
X12046372Y-20371229D02*
X12065420Y-20342657D01*
X12065420Y-20342657D02*
X12074944Y-20333133D01*
X12151134Y-20428371D02*
X12151134Y-20561705D01*
X12151134Y-20447419D02*
X12160658Y-20437895D01*
X12160658Y-20437895D02*
X12179706Y-20428371D01*
X12179706Y-20428371D02*
X12208277Y-20428371D01*
X12208277Y-20428371D02*
X12227325Y-20437895D01*
X12227325Y-20437895D02*
X12236849Y-20456943D01*
X12236849Y-20456943D02*
X12236849Y-20561705D01*
X12360658Y-20561705D02*
X12341611Y-20552181D01*
X12341611Y-20552181D02*
X12332087Y-20542657D01*
X12332087Y-20542657D02*
X12322563Y-20523609D01*
X12322563Y-20523609D02*
X12322563Y-20466467D01*
X12322563Y-20466467D02*
X12332087Y-20447419D01*
X12332087Y-20447419D02*
X12341611Y-20437895D01*
X12341611Y-20437895D02*
X12360658Y-20428371D01*
X12360658Y-20428371D02*
X12389230Y-20428371D01*
X12389230Y-20428371D02*
X12408277Y-20437895D01*
X12408277Y-20437895D02*
X12417801Y-20447419D01*
X12417801Y-20447419D02*
X12427325Y-20466467D01*
X12427325Y-20466467D02*
X12427325Y-20523609D01*
X12427325Y-20523609D02*
X12417801Y-20542657D01*
X12417801Y-20542657D02*
X12408277Y-20552181D01*
X12408277Y-20552181D02*
X12389230Y-20561705D01*
X12389230Y-20561705D02*
X12360658Y-20561705D01*
X12484468Y-20428371D02*
X12560658Y-20428371D01*
X12513039Y-20361705D02*
X12513039Y-20533133D01*
X12513039Y-20533133D02*
X12522563Y-20552181D01*
X12522563Y-20552181D02*
X12541611Y-20561705D01*
X12541611Y-20561705D02*
X12560658Y-20561705D01*
X12779706Y-20428371D02*
X12779706Y-20628371D01*
X12779706Y-20437895D02*
X12798753Y-20428371D01*
X12798753Y-20428371D02*
X12836849Y-20428371D01*
X12836849Y-20428371D02*
X12855896Y-20437895D01*
X12855896Y-20437895D02*
X12865420Y-20447419D01*
X12865420Y-20447419D02*
X12874944Y-20466467D01*
X12874944Y-20466467D02*
X12874944Y-20523609D01*
X12874944Y-20523609D02*
X12865420Y-20542657D01*
X12865420Y-20542657D02*
X12855896Y-20552181D01*
X12855896Y-20552181D02*
X12836849Y-20561705D01*
X12836849Y-20561705D02*
X12798753Y-20561705D01*
X12798753Y-20561705D02*
X12779706Y-20552181D01*
X12989230Y-20561705D02*
X12970182Y-20552181D01*
X12970182Y-20552181D02*
X12960658Y-20533133D01*
X12960658Y-20533133D02*
X12960658Y-20361705D01*
X13151134Y-20561705D02*
X13151134Y-20456943D01*
X13151134Y-20456943D02*
X13141611Y-20437895D01*
X13141611Y-20437895D02*
X13122563Y-20428371D01*
X13122563Y-20428371D02*
X13084468Y-20428371D01*
X13084468Y-20428371D02*
X13065420Y-20437895D01*
X13151134Y-20552181D02*
X13132087Y-20561705D01*
X13132087Y-20561705D02*
X13084468Y-20561705D01*
X13084468Y-20561705D02*
X13065420Y-20552181D01*
X13065420Y-20552181D02*
X13055896Y-20533133D01*
X13055896Y-20533133D02*
X13055896Y-20514086D01*
X13055896Y-20514086D02*
X13065420Y-20495038D01*
X13065420Y-20495038D02*
X13084468Y-20485514D01*
X13084468Y-20485514D02*
X13132087Y-20485514D01*
X13132087Y-20485514D02*
X13151134Y-20475990D01*
X13217801Y-20428371D02*
X13293992Y-20428371D01*
X13246373Y-20361705D02*
X13246373Y-20533133D01*
X13246373Y-20533133D02*
X13255896Y-20552181D01*
X13255896Y-20552181D02*
X13274944Y-20561705D01*
X13274944Y-20561705D02*
X13293992Y-20561705D01*
X13436849Y-20552181D02*
X13417801Y-20561705D01*
X13417801Y-20561705D02*
X13379706Y-20561705D01*
X13379706Y-20561705D02*
X13360658Y-20552181D01*
X13360658Y-20552181D02*
X13351134Y-20533133D01*
X13351134Y-20533133D02*
X13351134Y-20456943D01*
X13351134Y-20456943D02*
X13360658Y-20437895D01*
X13360658Y-20437895D02*
X13379706Y-20428371D01*
X13379706Y-20428371D02*
X13417801Y-20428371D01*
X13417801Y-20428371D02*
X13436849Y-20437895D01*
X13436849Y-20437895D02*
X13446373Y-20456943D01*
X13446373Y-20456943D02*
X13446373Y-20475990D01*
X13446373Y-20475990D02*
X13351134Y-20495038D01*
X13617801Y-20561705D02*
X13617801Y-20361705D01*
X13617801Y-20552181D02*
X13598754Y-20561705D01*
X13598754Y-20561705D02*
X13560658Y-20561705D01*
X13560658Y-20561705D02*
X13541611Y-20552181D01*
X13541611Y-20552181D02*
X13532087Y-20542657D01*
X13532087Y-20542657D02*
X13522563Y-20523609D01*
X13522563Y-20523609D02*
X13522563Y-20466467D01*
X13522563Y-20466467D02*
X13532087Y-20447419D01*
X13532087Y-20447419D02*
X13541611Y-20437895D01*
X13541611Y-20437895D02*
X13560658Y-20428371D01*
X13560658Y-20428371D02*
X13598754Y-20428371D01*
X13598754Y-20428371D02*
X13617801Y-20437895D01*
X13693992Y-20637895D02*
X13703515Y-20628371D01*
X13703515Y-20628371D02*
X13722563Y-20599800D01*
X13722563Y-20599800D02*
X13732087Y-20580752D01*
X13732087Y-20580752D02*
X13741611Y-20552181D01*
X13741611Y-20552181D02*
X13751134Y-20504562D01*
X13751134Y-20504562D02*
X13751134Y-20466467D01*
X13751134Y-20466467D02*
X13741611Y-20418848D01*
X13741611Y-20418848D02*
X13732087Y-20390276D01*
X13732087Y-20390276D02*
X13722563Y-20371229D01*
X13722563Y-20371229D02*
X13703515Y-20342657D01*
X13703515Y-20342657D02*
X13693992Y-20333133D01*
X6718211Y-20835932D02*
X6718211Y-20694510D01*
X6576789Y-20694510D01*
X6576789Y-20835932D01*
X6718211Y-20835932D01*
X6989229Y-20656705D02*
X7113039Y-20656705D01*
X7113039Y-20656705D02*
X7046372Y-20732895D01*
X7046372Y-20732895D02*
X7074943Y-20732895D01*
X7074943Y-20732895D02*
X7093991Y-20742419D01*
X7093991Y-20742419D02*
X7103515Y-20751943D01*
X7103515Y-20751943D02*
X7113039Y-20770990D01*
X7113039Y-20770990D02*
X7113039Y-20818609D01*
X7113039Y-20818609D02*
X7103515Y-20837657D01*
X7103515Y-20837657D02*
X7093991Y-20847181D01*
X7093991Y-20847181D02*
X7074943Y-20856705D01*
X7074943Y-20856705D02*
X7017801Y-20856705D01*
X7017801Y-20856705D02*
X6998753Y-20847181D01*
X6998753Y-20847181D02*
X6989229Y-20837657D01*
X7198753Y-20837657D02*
X7208277Y-20847181D01*
X7208277Y-20847181D02*
X7198753Y-20856705D01*
X7198753Y-20856705D02*
X7189229Y-20847181D01*
X7189229Y-20847181D02*
X7198753Y-20837657D01*
X7198753Y-20837657D02*
X7198753Y-20856705D01*
X7332086Y-20656705D02*
X7351134Y-20656705D01*
X7351134Y-20656705D02*
X7370182Y-20666229D01*
X7370182Y-20666229D02*
X7379705Y-20675752D01*
X7379705Y-20675752D02*
X7389229Y-20694800D01*
X7389229Y-20694800D02*
X7398753Y-20732895D01*
X7398753Y-20732895D02*
X7398753Y-20780514D01*
X7398753Y-20780514D02*
X7389229Y-20818609D01*
X7389229Y-20818609D02*
X7379705Y-20837657D01*
X7379705Y-20837657D02*
X7370182Y-20847181D01*
X7370182Y-20847181D02*
X7351134Y-20856705D01*
X7351134Y-20856705D02*
X7332086Y-20856705D01*
X7332086Y-20856705D02*
X7313039Y-20847181D01*
X7313039Y-20847181D02*
X7303515Y-20837657D01*
X7303515Y-20837657D02*
X7293991Y-20818609D01*
X7293991Y-20818609D02*
X7284467Y-20780514D01*
X7284467Y-20780514D02*
X7284467Y-20732895D01*
X7284467Y-20732895D02*
X7293991Y-20694800D01*
X7293991Y-20694800D02*
X7303515Y-20675752D01*
X7303515Y-20675752D02*
X7313039Y-20666229D01*
X7313039Y-20666229D02*
X7332086Y-20656705D01*
X7570182Y-20723371D02*
X7570182Y-20856705D01*
X7522562Y-20647181D02*
X7474943Y-20790038D01*
X7474943Y-20790038D02*
X7598753Y-20790038D01*
X7703515Y-20742419D02*
X7684467Y-20732895D01*
X7684467Y-20732895D02*
X7674943Y-20723371D01*
X7674943Y-20723371D02*
X7665420Y-20704324D01*
X7665420Y-20704324D02*
X7665420Y-20694800D01*
X7665420Y-20694800D02*
X7674943Y-20675752D01*
X7674943Y-20675752D02*
X7684467Y-20666229D01*
X7684467Y-20666229D02*
X7703515Y-20656705D01*
X7703515Y-20656705D02*
X7741610Y-20656705D01*
X7741610Y-20656705D02*
X7760658Y-20666229D01*
X7760658Y-20666229D02*
X7770182Y-20675752D01*
X7770182Y-20675752D02*
X7779705Y-20694800D01*
X7779705Y-20694800D02*
X7779705Y-20704324D01*
X7779705Y-20704324D02*
X7770182Y-20723371D01*
X7770182Y-20723371D02*
X7760658Y-20732895D01*
X7760658Y-20732895D02*
X7741610Y-20742419D01*
X7741610Y-20742419D02*
X7703515Y-20742419D01*
X7703515Y-20742419D02*
X7684467Y-20751943D01*
X7684467Y-20751943D02*
X7674943Y-20761467D01*
X7674943Y-20761467D02*
X7665420Y-20780514D01*
X7665420Y-20780514D02*
X7665420Y-20818609D01*
X7665420Y-20818609D02*
X7674943Y-20837657D01*
X7674943Y-20837657D02*
X7684467Y-20847181D01*
X7684467Y-20847181D02*
X7703515Y-20856705D01*
X7703515Y-20856705D02*
X7741610Y-20856705D01*
X7741610Y-20856705D02*
X7760658Y-20847181D01*
X7760658Y-20847181D02*
X7770182Y-20837657D01*
X7770182Y-20837657D02*
X7779705Y-20818609D01*
X7779705Y-20818609D02*
X7779705Y-20780514D01*
X7779705Y-20780514D02*
X7770182Y-20761467D01*
X7770182Y-20761467D02*
X7760658Y-20751943D01*
X7760658Y-20751943D02*
X7741610Y-20742419D01*
X7865420Y-20856705D02*
X7865420Y-20723371D01*
X7865420Y-20742419D02*
X7874943Y-20732895D01*
X7874943Y-20732895D02*
X7893991Y-20723371D01*
X7893991Y-20723371D02*
X7922563Y-20723371D01*
X7922563Y-20723371D02*
X7941610Y-20732895D01*
X7941610Y-20732895D02*
X7951134Y-20751943D01*
X7951134Y-20751943D02*
X7951134Y-20856705D01*
X7951134Y-20751943D02*
X7960658Y-20732895D01*
X7960658Y-20732895D02*
X7979705Y-20723371D01*
X7979705Y-20723371D02*
X8008277Y-20723371D01*
X8008277Y-20723371D02*
X8027324Y-20732895D01*
X8027324Y-20732895D02*
X8036848Y-20751943D01*
X8036848Y-20751943D02*
X8036848Y-20856705D01*
X8132086Y-20856705D02*
X8132086Y-20723371D01*
X8132086Y-20742419D02*
X8141610Y-20732895D01*
X8141610Y-20732895D02*
X8160658Y-20723371D01*
X8160658Y-20723371D02*
X8189229Y-20723371D01*
X8189229Y-20723371D02*
X8208277Y-20732895D01*
X8208277Y-20732895D02*
X8217801Y-20751943D01*
X8217801Y-20751943D02*
X8217801Y-20856705D01*
X8217801Y-20751943D02*
X8227324Y-20732895D01*
X8227324Y-20732895D02*
X8246372Y-20723371D01*
X8246372Y-20723371D02*
X8274943Y-20723371D01*
X8274943Y-20723371D02*
X8293991Y-20732895D01*
X8293991Y-20732895D02*
X8303515Y-20751943D01*
X8303515Y-20751943D02*
X8303515Y-20856705D01*
X8693991Y-20647181D02*
X8522563Y-20904324D01*
X8951134Y-20656705D02*
X8970182Y-20656705D01*
X8970182Y-20656705D02*
X8989229Y-20666229D01*
X8989229Y-20666229D02*
X8998753Y-20675752D01*
X8998753Y-20675752D02*
X9008277Y-20694800D01*
X9008277Y-20694800D02*
X9017801Y-20732895D01*
X9017801Y-20732895D02*
X9017801Y-20780514D01*
X9017801Y-20780514D02*
X9008277Y-20818609D01*
X9008277Y-20818609D02*
X8998753Y-20837657D01*
X8998753Y-20837657D02*
X8989229Y-20847181D01*
X8989229Y-20847181D02*
X8970182Y-20856705D01*
X8970182Y-20856705D02*
X8951134Y-20856705D01*
X8951134Y-20856705D02*
X8932087Y-20847181D01*
X8932087Y-20847181D02*
X8922563Y-20837657D01*
X8922563Y-20837657D02*
X8913039Y-20818609D01*
X8913039Y-20818609D02*
X8903515Y-20780514D01*
X8903515Y-20780514D02*
X8903515Y-20732895D01*
X8903515Y-20732895D02*
X8913039Y-20694800D01*
X8913039Y-20694800D02*
X8922563Y-20675752D01*
X8922563Y-20675752D02*
X8932087Y-20666229D01*
X8932087Y-20666229D02*
X8951134Y-20656705D01*
X9103515Y-20837657D02*
X9113039Y-20847181D01*
X9113039Y-20847181D02*
X9103515Y-20856705D01*
X9103515Y-20856705D02*
X9093991Y-20847181D01*
X9093991Y-20847181D02*
X9103515Y-20837657D01*
X9103515Y-20837657D02*
X9103515Y-20856705D01*
X9303515Y-20856705D02*
X9189229Y-20856705D01*
X9246372Y-20856705D02*
X9246372Y-20656705D01*
X9246372Y-20656705D02*
X9227325Y-20685276D01*
X9227325Y-20685276D02*
X9208277Y-20704324D01*
X9208277Y-20704324D02*
X9189229Y-20713848D01*
X9379706Y-20675752D02*
X9389229Y-20666229D01*
X9389229Y-20666229D02*
X9408277Y-20656705D01*
X9408277Y-20656705D02*
X9455896Y-20656705D01*
X9455896Y-20656705D02*
X9474944Y-20666229D01*
X9474944Y-20666229D02*
X9484468Y-20675752D01*
X9484468Y-20675752D02*
X9493991Y-20694800D01*
X9493991Y-20694800D02*
X9493991Y-20713848D01*
X9493991Y-20713848D02*
X9484468Y-20742419D01*
X9484468Y-20742419D02*
X9370182Y-20856705D01*
X9370182Y-20856705D02*
X9493991Y-20856705D01*
X9617801Y-20656705D02*
X9636849Y-20656705D01*
X9636849Y-20656705D02*
X9655896Y-20666229D01*
X9655896Y-20666229D02*
X9665420Y-20675752D01*
X9665420Y-20675752D02*
X9674944Y-20694800D01*
X9674944Y-20694800D02*
X9684468Y-20732895D01*
X9684468Y-20732895D02*
X9684468Y-20780514D01*
X9684468Y-20780514D02*
X9674944Y-20818609D01*
X9674944Y-20818609D02*
X9665420Y-20837657D01*
X9665420Y-20837657D02*
X9655896Y-20847181D01*
X9655896Y-20847181D02*
X9636849Y-20856705D01*
X9636849Y-20856705D02*
X9617801Y-20856705D01*
X9617801Y-20856705D02*
X9598753Y-20847181D01*
X9598753Y-20847181D02*
X9589229Y-20837657D01*
X9589229Y-20837657D02*
X9579706Y-20818609D01*
X9579706Y-20818609D02*
X9570182Y-20780514D01*
X9570182Y-20780514D02*
X9570182Y-20732895D01*
X9570182Y-20732895D02*
X9579706Y-20694800D01*
X9579706Y-20694800D02*
X9589229Y-20675752D01*
X9589229Y-20675752D02*
X9598753Y-20666229D01*
X9598753Y-20666229D02*
X9617801Y-20656705D01*
X9808277Y-20656705D02*
X9827325Y-20656705D01*
X9827325Y-20656705D02*
X9846372Y-20666229D01*
X9846372Y-20666229D02*
X9855896Y-20675752D01*
X9855896Y-20675752D02*
X9865420Y-20694800D01*
X9865420Y-20694800D02*
X9874944Y-20732895D01*
X9874944Y-20732895D02*
X9874944Y-20780514D01*
X9874944Y-20780514D02*
X9865420Y-20818609D01*
X9865420Y-20818609D02*
X9855896Y-20837657D01*
X9855896Y-20837657D02*
X9846372Y-20847181D01*
X9846372Y-20847181D02*
X9827325Y-20856705D01*
X9827325Y-20856705D02*
X9808277Y-20856705D01*
X9808277Y-20856705D02*
X9789229Y-20847181D01*
X9789229Y-20847181D02*
X9779706Y-20837657D01*
X9779706Y-20837657D02*
X9770182Y-20818609D01*
X9770182Y-20818609D02*
X9760658Y-20780514D01*
X9760658Y-20780514D02*
X9760658Y-20732895D01*
X9760658Y-20732895D02*
X9770182Y-20694800D01*
X9770182Y-20694800D02*
X9779706Y-20675752D01*
X9779706Y-20675752D02*
X9789229Y-20666229D01*
X9789229Y-20666229D02*
X9808277Y-20656705D01*
X9951134Y-20656705D02*
X9951134Y-20694800D01*
X10027325Y-20656705D02*
X10027325Y-20694800D01*
X10322563Y-20932895D02*
X10313039Y-20923371D01*
X10313039Y-20923371D02*
X10293991Y-20894800D01*
X10293991Y-20894800D02*
X10284468Y-20875752D01*
X10284468Y-20875752D02*
X10274944Y-20847181D01*
X10274944Y-20847181D02*
X10265420Y-20799562D01*
X10265420Y-20799562D02*
X10265420Y-20761467D01*
X10265420Y-20761467D02*
X10274944Y-20713848D01*
X10274944Y-20713848D02*
X10284468Y-20685276D01*
X10284468Y-20685276D02*
X10293991Y-20666229D01*
X10293991Y-20666229D02*
X10313039Y-20637657D01*
X10313039Y-20637657D02*
X10322563Y-20628133D01*
X10389230Y-20675752D02*
X10398753Y-20666229D01*
X10398753Y-20666229D02*
X10417801Y-20656705D01*
X10417801Y-20656705D02*
X10465420Y-20656705D01*
X10465420Y-20656705D02*
X10484468Y-20666229D01*
X10484468Y-20666229D02*
X10493991Y-20675752D01*
X10493991Y-20675752D02*
X10503515Y-20694800D01*
X10503515Y-20694800D02*
X10503515Y-20713848D01*
X10503515Y-20713848D02*
X10493991Y-20742419D01*
X10493991Y-20742419D02*
X10379706Y-20856705D01*
X10379706Y-20856705D02*
X10503515Y-20856705D01*
X10741611Y-20856705D02*
X10741611Y-20656705D01*
X10827325Y-20856705D02*
X10827325Y-20751943D01*
X10827325Y-20751943D02*
X10817801Y-20732895D01*
X10817801Y-20732895D02*
X10798753Y-20723371D01*
X10798753Y-20723371D02*
X10770182Y-20723371D01*
X10770182Y-20723371D02*
X10751134Y-20732895D01*
X10751134Y-20732895D02*
X10741611Y-20742419D01*
X10951134Y-20856705D02*
X10932087Y-20847181D01*
X10932087Y-20847181D02*
X10922563Y-20837657D01*
X10922563Y-20837657D02*
X10913039Y-20818609D01*
X10913039Y-20818609D02*
X10913039Y-20761467D01*
X10913039Y-20761467D02*
X10922563Y-20742419D01*
X10922563Y-20742419D02*
X10932087Y-20732895D01*
X10932087Y-20732895D02*
X10951134Y-20723371D01*
X10951134Y-20723371D02*
X10979706Y-20723371D01*
X10979706Y-20723371D02*
X10998753Y-20732895D01*
X10998753Y-20732895D02*
X11008277Y-20742419D01*
X11008277Y-20742419D02*
X11017801Y-20761467D01*
X11017801Y-20761467D02*
X11017801Y-20818609D01*
X11017801Y-20818609D02*
X11008277Y-20837657D01*
X11008277Y-20837657D02*
X10998753Y-20847181D01*
X10998753Y-20847181D02*
X10979706Y-20856705D01*
X10979706Y-20856705D02*
X10951134Y-20856705D01*
X11132087Y-20856705D02*
X11113039Y-20847181D01*
X11113039Y-20847181D02*
X11103515Y-20828133D01*
X11103515Y-20828133D02*
X11103515Y-20656705D01*
X11284468Y-20847181D02*
X11265420Y-20856705D01*
X11265420Y-20856705D02*
X11227325Y-20856705D01*
X11227325Y-20856705D02*
X11208277Y-20847181D01*
X11208277Y-20847181D02*
X11198753Y-20828133D01*
X11198753Y-20828133D02*
X11198753Y-20751943D01*
X11198753Y-20751943D02*
X11208277Y-20732895D01*
X11208277Y-20732895D02*
X11227325Y-20723371D01*
X11227325Y-20723371D02*
X11265420Y-20723371D01*
X11265420Y-20723371D02*
X11284468Y-20732895D01*
X11284468Y-20732895D02*
X11293991Y-20751943D01*
X11293991Y-20751943D02*
X11293991Y-20770990D01*
X11293991Y-20770990D02*
X11198753Y-20790038D01*
X11370182Y-20847181D02*
X11389230Y-20856705D01*
X11389230Y-20856705D02*
X11427325Y-20856705D01*
X11427325Y-20856705D02*
X11446372Y-20847181D01*
X11446372Y-20847181D02*
X11455896Y-20828133D01*
X11455896Y-20828133D02*
X11455896Y-20818609D01*
X11455896Y-20818609D02*
X11446372Y-20799562D01*
X11446372Y-20799562D02*
X11427325Y-20790038D01*
X11427325Y-20790038D02*
X11398753Y-20790038D01*
X11398753Y-20790038D02*
X11379706Y-20780514D01*
X11379706Y-20780514D02*
X11370182Y-20761467D01*
X11370182Y-20761467D02*
X11370182Y-20751943D01*
X11370182Y-20751943D02*
X11379706Y-20732895D01*
X11379706Y-20732895D02*
X11398753Y-20723371D01*
X11398753Y-20723371D02*
X11427325Y-20723371D01*
X11427325Y-20723371D02*
X11446372Y-20732895D01*
X11522563Y-20932895D02*
X11532087Y-20923371D01*
X11532087Y-20923371D02*
X11551134Y-20894800D01*
X11551134Y-20894800D02*
X11560658Y-20875752D01*
X11560658Y-20875752D02*
X11570182Y-20847181D01*
X11570182Y-20847181D02*
X11579706Y-20799562D01*
X11579706Y-20799562D02*
X11579706Y-20761467D01*
X11579706Y-20761467D02*
X11570182Y-20713848D01*
X11570182Y-20713848D02*
X11560658Y-20685276D01*
X11560658Y-20685276D02*
X11551134Y-20666229D01*
X11551134Y-20666229D02*
X11532087Y-20637657D01*
X11532087Y-20637657D02*
X11522563Y-20628133D01*
X11884468Y-20932895D02*
X11874944Y-20923371D01*
X11874944Y-20923371D02*
X11855896Y-20894800D01*
X11855896Y-20894800D02*
X11846372Y-20875752D01*
X11846372Y-20875752D02*
X11836849Y-20847181D01*
X11836849Y-20847181D02*
X11827325Y-20799562D01*
X11827325Y-20799562D02*
X11827325Y-20761467D01*
X11827325Y-20761467D02*
X11836849Y-20713848D01*
X11836849Y-20713848D02*
X11846372Y-20685276D01*
X11846372Y-20685276D02*
X11855896Y-20666229D01*
X11855896Y-20666229D02*
X11874944Y-20637657D01*
X11874944Y-20637657D02*
X11884468Y-20628133D01*
X11960658Y-20723371D02*
X11960658Y-20856705D01*
X11960658Y-20742419D02*
X11970182Y-20732895D01*
X11970182Y-20732895D02*
X11989230Y-20723371D01*
X11989230Y-20723371D02*
X12017801Y-20723371D01*
X12017801Y-20723371D02*
X12036849Y-20732895D01*
X12036849Y-20732895D02*
X12046372Y-20751943D01*
X12046372Y-20751943D02*
X12046372Y-20856705D01*
X12170182Y-20856705D02*
X12151134Y-20847181D01*
X12151134Y-20847181D02*
X12141611Y-20837657D01*
X12141611Y-20837657D02*
X12132087Y-20818609D01*
X12132087Y-20818609D02*
X12132087Y-20761467D01*
X12132087Y-20761467D02*
X12141611Y-20742419D01*
X12141611Y-20742419D02*
X12151134Y-20732895D01*
X12151134Y-20732895D02*
X12170182Y-20723371D01*
X12170182Y-20723371D02*
X12198753Y-20723371D01*
X12198753Y-20723371D02*
X12217801Y-20732895D01*
X12217801Y-20732895D02*
X12227325Y-20742419D01*
X12227325Y-20742419D02*
X12236849Y-20761467D01*
X12236849Y-20761467D02*
X12236849Y-20818609D01*
X12236849Y-20818609D02*
X12227325Y-20837657D01*
X12227325Y-20837657D02*
X12217801Y-20847181D01*
X12217801Y-20847181D02*
X12198753Y-20856705D01*
X12198753Y-20856705D02*
X12170182Y-20856705D01*
X12293992Y-20723371D02*
X12370182Y-20723371D01*
X12322563Y-20656705D02*
X12322563Y-20828133D01*
X12322563Y-20828133D02*
X12332087Y-20847181D01*
X12332087Y-20847181D02*
X12351134Y-20856705D01*
X12351134Y-20856705D02*
X12370182Y-20856705D01*
X12589230Y-20723371D02*
X12589230Y-20923371D01*
X12589230Y-20732895D02*
X12608277Y-20723371D01*
X12608277Y-20723371D02*
X12646373Y-20723371D01*
X12646373Y-20723371D02*
X12665420Y-20732895D01*
X12665420Y-20732895D02*
X12674944Y-20742419D01*
X12674944Y-20742419D02*
X12684468Y-20761467D01*
X12684468Y-20761467D02*
X12684468Y-20818609D01*
X12684468Y-20818609D02*
X12674944Y-20837657D01*
X12674944Y-20837657D02*
X12665420Y-20847181D01*
X12665420Y-20847181D02*
X12646373Y-20856705D01*
X12646373Y-20856705D02*
X12608277Y-20856705D01*
X12608277Y-20856705D02*
X12589230Y-20847181D01*
X12798753Y-20856705D02*
X12779706Y-20847181D01*
X12779706Y-20847181D02*
X12770182Y-20828133D01*
X12770182Y-20828133D02*
X12770182Y-20656705D01*
X12960658Y-20856705D02*
X12960658Y-20751943D01*
X12960658Y-20751943D02*
X12951134Y-20732895D01*
X12951134Y-20732895D02*
X12932087Y-20723371D01*
X12932087Y-20723371D02*
X12893992Y-20723371D01*
X12893992Y-20723371D02*
X12874944Y-20732895D01*
X12960658Y-20847181D02*
X12941611Y-20856705D01*
X12941611Y-20856705D02*
X12893992Y-20856705D01*
X12893992Y-20856705D02*
X12874944Y-20847181D01*
X12874944Y-20847181D02*
X12865420Y-20828133D01*
X12865420Y-20828133D02*
X12865420Y-20809086D01*
X12865420Y-20809086D02*
X12874944Y-20790038D01*
X12874944Y-20790038D02*
X12893992Y-20780514D01*
X12893992Y-20780514D02*
X12941611Y-20780514D01*
X12941611Y-20780514D02*
X12960658Y-20770990D01*
X13027325Y-20723371D02*
X13103515Y-20723371D01*
X13055896Y-20656705D02*
X13055896Y-20828133D01*
X13055896Y-20828133D02*
X13065420Y-20847181D01*
X13065420Y-20847181D02*
X13084468Y-20856705D01*
X13084468Y-20856705D02*
X13103515Y-20856705D01*
X13246373Y-20847181D02*
X13227325Y-20856705D01*
X13227325Y-20856705D02*
X13189230Y-20856705D01*
X13189230Y-20856705D02*
X13170182Y-20847181D01*
X13170182Y-20847181D02*
X13160658Y-20828133D01*
X13160658Y-20828133D02*
X13160658Y-20751943D01*
X13160658Y-20751943D02*
X13170182Y-20732895D01*
X13170182Y-20732895D02*
X13189230Y-20723371D01*
X13189230Y-20723371D02*
X13227325Y-20723371D01*
X13227325Y-20723371D02*
X13246373Y-20732895D01*
X13246373Y-20732895D02*
X13255896Y-20751943D01*
X13255896Y-20751943D02*
X13255896Y-20770990D01*
X13255896Y-20770990D02*
X13160658Y-20790038D01*
X13427325Y-20856705D02*
X13427325Y-20656705D01*
X13427325Y-20847181D02*
X13408277Y-20856705D01*
X13408277Y-20856705D02*
X13370182Y-20856705D01*
X13370182Y-20856705D02*
X13351134Y-20847181D01*
X13351134Y-20847181D02*
X13341611Y-20837657D01*
X13341611Y-20837657D02*
X13332087Y-20818609D01*
X13332087Y-20818609D02*
X13332087Y-20761467D01*
X13332087Y-20761467D02*
X13341611Y-20742419D01*
X13341611Y-20742419D02*
X13351134Y-20732895D01*
X13351134Y-20732895D02*
X13370182Y-20723371D01*
X13370182Y-20723371D02*
X13408277Y-20723371D01*
X13408277Y-20723371D02*
X13427325Y-20732895D01*
X13503515Y-20932895D02*
X13513039Y-20923371D01*
X13513039Y-20923371D02*
X13532087Y-20894800D01*
X13532087Y-20894800D02*
X13541611Y-20875752D01*
X13541611Y-20875752D02*
X13551134Y-20847181D01*
X13551134Y-20847181D02*
X13560658Y-20799562D01*
X13560658Y-20799562D02*
X13560658Y-20761467D01*
X13560658Y-20761467D02*
X13551134Y-20713848D01*
X13551134Y-20713848D02*
X13541611Y-20685276D01*
X13541611Y-20685276D02*
X13532087Y-20666229D01*
X13532087Y-20666229D02*
X13513039Y-20637657D01*
X13513039Y-20637657D02*
X13503515Y-20628133D01*
X6647500Y-21185221D02*
X6747500Y-21085221D01*
X6647500Y-20985221D01*
X6547500Y-21085221D01*
X6647500Y-21185221D01*
X6989229Y-20976705D02*
X7113039Y-20976705D01*
X7113039Y-20976705D02*
X7046372Y-21052895D01*
X7046372Y-21052895D02*
X7074943Y-21052895D01*
X7074943Y-21052895D02*
X7093991Y-21062419D01*
X7093991Y-21062419D02*
X7103515Y-21071943D01*
X7103515Y-21071943D02*
X7113039Y-21090990D01*
X7113039Y-21090990D02*
X7113039Y-21138609D01*
X7113039Y-21138609D02*
X7103515Y-21157657D01*
X7103515Y-21157657D02*
X7093991Y-21167181D01*
X7093991Y-21167181D02*
X7074943Y-21176705D01*
X7074943Y-21176705D02*
X7017801Y-21176705D01*
X7017801Y-21176705D02*
X6998753Y-21167181D01*
X6998753Y-21167181D02*
X6989229Y-21157657D01*
X7198753Y-21157657D02*
X7208277Y-21167181D01*
X7208277Y-21167181D02*
X7198753Y-21176705D01*
X7198753Y-21176705D02*
X7189229Y-21167181D01*
X7189229Y-21167181D02*
X7198753Y-21157657D01*
X7198753Y-21157657D02*
X7198753Y-21176705D01*
X7284467Y-20995752D02*
X7293991Y-20986229D01*
X7293991Y-20986229D02*
X7313039Y-20976705D01*
X7313039Y-20976705D02*
X7360658Y-20976705D01*
X7360658Y-20976705D02*
X7379705Y-20986229D01*
X7379705Y-20986229D02*
X7389229Y-20995752D01*
X7389229Y-20995752D02*
X7398753Y-21014800D01*
X7398753Y-21014800D02*
X7398753Y-21033848D01*
X7398753Y-21033848D02*
X7389229Y-21062419D01*
X7389229Y-21062419D02*
X7274943Y-21176705D01*
X7274943Y-21176705D02*
X7398753Y-21176705D01*
X7522562Y-20976705D02*
X7541610Y-20976705D01*
X7541610Y-20976705D02*
X7560658Y-20986229D01*
X7560658Y-20986229D02*
X7570182Y-20995752D01*
X7570182Y-20995752D02*
X7579705Y-21014800D01*
X7579705Y-21014800D02*
X7589229Y-21052895D01*
X7589229Y-21052895D02*
X7589229Y-21100514D01*
X7589229Y-21100514D02*
X7579705Y-21138609D01*
X7579705Y-21138609D02*
X7570182Y-21157657D01*
X7570182Y-21157657D02*
X7560658Y-21167181D01*
X7560658Y-21167181D02*
X7541610Y-21176705D01*
X7541610Y-21176705D02*
X7522562Y-21176705D01*
X7522562Y-21176705D02*
X7503515Y-21167181D01*
X7503515Y-21167181D02*
X7493991Y-21157657D01*
X7493991Y-21157657D02*
X7484467Y-21138609D01*
X7484467Y-21138609D02*
X7474943Y-21100514D01*
X7474943Y-21100514D02*
X7474943Y-21052895D01*
X7474943Y-21052895D02*
X7484467Y-21014800D01*
X7484467Y-21014800D02*
X7493991Y-20995752D01*
X7493991Y-20995752D02*
X7503515Y-20986229D01*
X7503515Y-20986229D02*
X7522562Y-20976705D01*
X7713039Y-20976705D02*
X7732086Y-20976705D01*
X7732086Y-20976705D02*
X7751134Y-20986229D01*
X7751134Y-20986229D02*
X7760658Y-20995752D01*
X7760658Y-20995752D02*
X7770182Y-21014800D01*
X7770182Y-21014800D02*
X7779705Y-21052895D01*
X7779705Y-21052895D02*
X7779705Y-21100514D01*
X7779705Y-21100514D02*
X7770182Y-21138609D01*
X7770182Y-21138609D02*
X7760658Y-21157657D01*
X7760658Y-21157657D02*
X7751134Y-21167181D01*
X7751134Y-21167181D02*
X7732086Y-21176705D01*
X7732086Y-21176705D02*
X7713039Y-21176705D01*
X7713039Y-21176705D02*
X7693991Y-21167181D01*
X7693991Y-21167181D02*
X7684467Y-21157657D01*
X7684467Y-21157657D02*
X7674943Y-21138609D01*
X7674943Y-21138609D02*
X7665420Y-21100514D01*
X7665420Y-21100514D02*
X7665420Y-21052895D01*
X7665420Y-21052895D02*
X7674943Y-21014800D01*
X7674943Y-21014800D02*
X7684467Y-20995752D01*
X7684467Y-20995752D02*
X7693991Y-20986229D01*
X7693991Y-20986229D02*
X7713039Y-20976705D01*
X7865420Y-21176705D02*
X7865420Y-21043371D01*
X7865420Y-21062419D02*
X7874943Y-21052895D01*
X7874943Y-21052895D02*
X7893991Y-21043371D01*
X7893991Y-21043371D02*
X7922563Y-21043371D01*
X7922563Y-21043371D02*
X7941610Y-21052895D01*
X7941610Y-21052895D02*
X7951134Y-21071943D01*
X7951134Y-21071943D02*
X7951134Y-21176705D01*
X7951134Y-21071943D02*
X7960658Y-21052895D01*
X7960658Y-21052895D02*
X7979705Y-21043371D01*
X7979705Y-21043371D02*
X8008277Y-21043371D01*
X8008277Y-21043371D02*
X8027324Y-21052895D01*
X8027324Y-21052895D02*
X8036848Y-21071943D01*
X8036848Y-21071943D02*
X8036848Y-21176705D01*
X8132086Y-21176705D02*
X8132086Y-21043371D01*
X8132086Y-21062419D02*
X8141610Y-21052895D01*
X8141610Y-21052895D02*
X8160658Y-21043371D01*
X8160658Y-21043371D02*
X8189229Y-21043371D01*
X8189229Y-21043371D02*
X8208277Y-21052895D01*
X8208277Y-21052895D02*
X8217801Y-21071943D01*
X8217801Y-21071943D02*
X8217801Y-21176705D01*
X8217801Y-21071943D02*
X8227324Y-21052895D01*
X8227324Y-21052895D02*
X8246372Y-21043371D01*
X8246372Y-21043371D02*
X8274943Y-21043371D01*
X8274943Y-21043371D02*
X8293991Y-21052895D01*
X8293991Y-21052895D02*
X8303515Y-21071943D01*
X8303515Y-21071943D02*
X8303515Y-21176705D01*
X8693991Y-20967181D02*
X8522563Y-21224324D01*
X8951134Y-20976705D02*
X8970182Y-20976705D01*
X8970182Y-20976705D02*
X8989229Y-20986229D01*
X8989229Y-20986229D02*
X8998753Y-20995752D01*
X8998753Y-20995752D02*
X9008277Y-21014800D01*
X9008277Y-21014800D02*
X9017801Y-21052895D01*
X9017801Y-21052895D02*
X9017801Y-21100514D01*
X9017801Y-21100514D02*
X9008277Y-21138609D01*
X9008277Y-21138609D02*
X8998753Y-21157657D01*
X8998753Y-21157657D02*
X8989229Y-21167181D01*
X8989229Y-21167181D02*
X8970182Y-21176705D01*
X8970182Y-21176705D02*
X8951134Y-21176705D01*
X8951134Y-21176705D02*
X8932087Y-21167181D01*
X8932087Y-21167181D02*
X8922563Y-21157657D01*
X8922563Y-21157657D02*
X8913039Y-21138609D01*
X8913039Y-21138609D02*
X8903515Y-21100514D01*
X8903515Y-21100514D02*
X8903515Y-21052895D01*
X8903515Y-21052895D02*
X8913039Y-21014800D01*
X8913039Y-21014800D02*
X8922563Y-20995752D01*
X8922563Y-20995752D02*
X8932087Y-20986229D01*
X8932087Y-20986229D02*
X8951134Y-20976705D01*
X9103515Y-21157657D02*
X9113039Y-21167181D01*
X9113039Y-21167181D02*
X9103515Y-21176705D01*
X9103515Y-21176705D02*
X9093991Y-21167181D01*
X9093991Y-21167181D02*
X9103515Y-21157657D01*
X9103515Y-21157657D02*
X9103515Y-21176705D01*
X9303515Y-21176705D02*
X9189229Y-21176705D01*
X9246372Y-21176705D02*
X9246372Y-20976705D01*
X9246372Y-20976705D02*
X9227325Y-21005276D01*
X9227325Y-21005276D02*
X9208277Y-21024324D01*
X9208277Y-21024324D02*
X9189229Y-21033848D01*
X9379706Y-20995752D02*
X9389229Y-20986229D01*
X9389229Y-20986229D02*
X9408277Y-20976705D01*
X9408277Y-20976705D02*
X9455896Y-20976705D01*
X9455896Y-20976705D02*
X9474944Y-20986229D01*
X9474944Y-20986229D02*
X9484468Y-20995752D01*
X9484468Y-20995752D02*
X9493991Y-21014800D01*
X9493991Y-21014800D02*
X9493991Y-21033848D01*
X9493991Y-21033848D02*
X9484468Y-21062419D01*
X9484468Y-21062419D02*
X9370182Y-21176705D01*
X9370182Y-21176705D02*
X9493991Y-21176705D01*
X9665420Y-20976705D02*
X9627325Y-20976705D01*
X9627325Y-20976705D02*
X9608277Y-20986229D01*
X9608277Y-20986229D02*
X9598753Y-20995752D01*
X9598753Y-20995752D02*
X9579706Y-21024324D01*
X9579706Y-21024324D02*
X9570182Y-21062419D01*
X9570182Y-21062419D02*
X9570182Y-21138609D01*
X9570182Y-21138609D02*
X9579706Y-21157657D01*
X9579706Y-21157657D02*
X9589229Y-21167181D01*
X9589229Y-21167181D02*
X9608277Y-21176705D01*
X9608277Y-21176705D02*
X9646372Y-21176705D01*
X9646372Y-21176705D02*
X9665420Y-21167181D01*
X9665420Y-21167181D02*
X9674944Y-21157657D01*
X9674944Y-21157657D02*
X9684468Y-21138609D01*
X9684468Y-21138609D02*
X9684468Y-21090990D01*
X9684468Y-21090990D02*
X9674944Y-21071943D01*
X9674944Y-21071943D02*
X9665420Y-21062419D01*
X9665420Y-21062419D02*
X9646372Y-21052895D01*
X9646372Y-21052895D02*
X9608277Y-21052895D01*
X9608277Y-21052895D02*
X9589229Y-21062419D01*
X9589229Y-21062419D02*
X9579706Y-21071943D01*
X9579706Y-21071943D02*
X9570182Y-21090990D01*
X9808277Y-20976705D02*
X9827325Y-20976705D01*
X9827325Y-20976705D02*
X9846372Y-20986229D01*
X9846372Y-20986229D02*
X9855896Y-20995752D01*
X9855896Y-20995752D02*
X9865420Y-21014800D01*
X9865420Y-21014800D02*
X9874944Y-21052895D01*
X9874944Y-21052895D02*
X9874944Y-21100514D01*
X9874944Y-21100514D02*
X9865420Y-21138609D01*
X9865420Y-21138609D02*
X9855896Y-21157657D01*
X9855896Y-21157657D02*
X9846372Y-21167181D01*
X9846372Y-21167181D02*
X9827325Y-21176705D01*
X9827325Y-21176705D02*
X9808277Y-21176705D01*
X9808277Y-21176705D02*
X9789229Y-21167181D01*
X9789229Y-21167181D02*
X9779706Y-21157657D01*
X9779706Y-21157657D02*
X9770182Y-21138609D01*
X9770182Y-21138609D02*
X9760658Y-21100514D01*
X9760658Y-21100514D02*
X9760658Y-21052895D01*
X9760658Y-21052895D02*
X9770182Y-21014800D01*
X9770182Y-21014800D02*
X9779706Y-20995752D01*
X9779706Y-20995752D02*
X9789229Y-20986229D01*
X9789229Y-20986229D02*
X9808277Y-20976705D01*
X9951134Y-20976705D02*
X9951134Y-21014800D01*
X10027325Y-20976705D02*
X10027325Y-21014800D01*
X10322563Y-21252895D02*
X10313039Y-21243371D01*
X10313039Y-21243371D02*
X10293991Y-21214800D01*
X10293991Y-21214800D02*
X10284468Y-21195752D01*
X10284468Y-21195752D02*
X10274944Y-21167181D01*
X10274944Y-21167181D02*
X10265420Y-21119562D01*
X10265420Y-21119562D02*
X10265420Y-21081467D01*
X10265420Y-21081467D02*
X10274944Y-21033848D01*
X10274944Y-21033848D02*
X10284468Y-21005276D01*
X10284468Y-21005276D02*
X10293991Y-20986229D01*
X10293991Y-20986229D02*
X10313039Y-20957657D01*
X10313039Y-20957657D02*
X10322563Y-20948133D01*
X10379706Y-20976705D02*
X10513039Y-20976705D01*
X10513039Y-20976705D02*
X10427325Y-21176705D01*
X10741611Y-21176705D02*
X10741611Y-20976705D01*
X10827325Y-21176705D02*
X10827325Y-21071943D01*
X10827325Y-21071943D02*
X10817801Y-21052895D01*
X10817801Y-21052895D02*
X10798753Y-21043371D01*
X10798753Y-21043371D02*
X10770182Y-21043371D01*
X10770182Y-21043371D02*
X10751134Y-21052895D01*
X10751134Y-21052895D02*
X10741611Y-21062419D01*
X10951134Y-21176705D02*
X10932087Y-21167181D01*
X10932087Y-21167181D02*
X10922563Y-21157657D01*
X10922563Y-21157657D02*
X10913039Y-21138609D01*
X10913039Y-21138609D02*
X10913039Y-21081467D01*
X10913039Y-21081467D02*
X10922563Y-21062419D01*
X10922563Y-21062419D02*
X10932087Y-21052895D01*
X10932087Y-21052895D02*
X10951134Y-21043371D01*
X10951134Y-21043371D02*
X10979706Y-21043371D01*
X10979706Y-21043371D02*
X10998753Y-21052895D01*
X10998753Y-21052895D02*
X11008277Y-21062419D01*
X11008277Y-21062419D02*
X11017801Y-21081467D01*
X11017801Y-21081467D02*
X11017801Y-21138609D01*
X11017801Y-21138609D02*
X11008277Y-21157657D01*
X11008277Y-21157657D02*
X10998753Y-21167181D01*
X10998753Y-21167181D02*
X10979706Y-21176705D01*
X10979706Y-21176705D02*
X10951134Y-21176705D01*
X11132087Y-21176705D02*
X11113039Y-21167181D01*
X11113039Y-21167181D02*
X11103515Y-21148133D01*
X11103515Y-21148133D02*
X11103515Y-20976705D01*
X11284468Y-21167181D02*
X11265420Y-21176705D01*
X11265420Y-21176705D02*
X11227325Y-21176705D01*
X11227325Y-21176705D02*
X11208277Y-21167181D01*
X11208277Y-21167181D02*
X11198753Y-21148133D01*
X11198753Y-21148133D02*
X11198753Y-21071943D01*
X11198753Y-21071943D02*
X11208277Y-21052895D01*
X11208277Y-21052895D02*
X11227325Y-21043371D01*
X11227325Y-21043371D02*
X11265420Y-21043371D01*
X11265420Y-21043371D02*
X11284468Y-21052895D01*
X11284468Y-21052895D02*
X11293991Y-21071943D01*
X11293991Y-21071943D02*
X11293991Y-21090990D01*
X11293991Y-21090990D02*
X11198753Y-21110038D01*
X11370182Y-21167181D02*
X11389230Y-21176705D01*
X11389230Y-21176705D02*
X11427325Y-21176705D01*
X11427325Y-21176705D02*
X11446372Y-21167181D01*
X11446372Y-21167181D02*
X11455896Y-21148133D01*
X11455896Y-21148133D02*
X11455896Y-21138609D01*
X11455896Y-21138609D02*
X11446372Y-21119562D01*
X11446372Y-21119562D02*
X11427325Y-21110038D01*
X11427325Y-21110038D02*
X11398753Y-21110038D01*
X11398753Y-21110038D02*
X11379706Y-21100514D01*
X11379706Y-21100514D02*
X11370182Y-21081467D01*
X11370182Y-21081467D02*
X11370182Y-21071943D01*
X11370182Y-21071943D02*
X11379706Y-21052895D01*
X11379706Y-21052895D02*
X11398753Y-21043371D01*
X11398753Y-21043371D02*
X11427325Y-21043371D01*
X11427325Y-21043371D02*
X11446372Y-21052895D01*
X11522563Y-21252895D02*
X11532087Y-21243371D01*
X11532087Y-21243371D02*
X11551134Y-21214800D01*
X11551134Y-21214800D02*
X11560658Y-21195752D01*
X11560658Y-21195752D02*
X11570182Y-21167181D01*
X11570182Y-21167181D02*
X11579706Y-21119562D01*
X11579706Y-21119562D02*
X11579706Y-21081467D01*
X11579706Y-21081467D02*
X11570182Y-21033848D01*
X11570182Y-21033848D02*
X11560658Y-21005276D01*
X11560658Y-21005276D02*
X11551134Y-20986229D01*
X11551134Y-20986229D02*
X11532087Y-20957657D01*
X11532087Y-20957657D02*
X11522563Y-20948133D01*
X11884468Y-21252895D02*
X11874944Y-21243371D01*
X11874944Y-21243371D02*
X11855896Y-21214800D01*
X11855896Y-21214800D02*
X11846372Y-21195752D01*
X11846372Y-21195752D02*
X11836849Y-21167181D01*
X11836849Y-21167181D02*
X11827325Y-21119562D01*
X11827325Y-21119562D02*
X11827325Y-21081467D01*
X11827325Y-21081467D02*
X11836849Y-21033848D01*
X11836849Y-21033848D02*
X11846372Y-21005276D01*
X11846372Y-21005276D02*
X11855896Y-20986229D01*
X11855896Y-20986229D02*
X11874944Y-20957657D01*
X11874944Y-20957657D02*
X11884468Y-20948133D01*
X11960658Y-21043371D02*
X11960658Y-21176705D01*
X11960658Y-21062419D02*
X11970182Y-21052895D01*
X11970182Y-21052895D02*
X11989230Y-21043371D01*
X11989230Y-21043371D02*
X12017801Y-21043371D01*
X12017801Y-21043371D02*
X12036849Y-21052895D01*
X12036849Y-21052895D02*
X12046372Y-21071943D01*
X12046372Y-21071943D02*
X12046372Y-21176705D01*
X12170182Y-21176705D02*
X12151134Y-21167181D01*
X12151134Y-21167181D02*
X12141611Y-21157657D01*
X12141611Y-21157657D02*
X12132087Y-21138609D01*
X12132087Y-21138609D02*
X12132087Y-21081467D01*
X12132087Y-21081467D02*
X12141611Y-21062419D01*
X12141611Y-21062419D02*
X12151134Y-21052895D01*
X12151134Y-21052895D02*
X12170182Y-21043371D01*
X12170182Y-21043371D02*
X12198753Y-21043371D01*
X12198753Y-21043371D02*
X12217801Y-21052895D01*
X12217801Y-21052895D02*
X12227325Y-21062419D01*
X12227325Y-21062419D02*
X12236849Y-21081467D01*
X12236849Y-21081467D02*
X12236849Y-21138609D01*
X12236849Y-21138609D02*
X12227325Y-21157657D01*
X12227325Y-21157657D02*
X12217801Y-21167181D01*
X12217801Y-21167181D02*
X12198753Y-21176705D01*
X12198753Y-21176705D02*
X12170182Y-21176705D01*
X12293992Y-21043371D02*
X12370182Y-21043371D01*
X12322563Y-20976705D02*
X12322563Y-21148133D01*
X12322563Y-21148133D02*
X12332087Y-21167181D01*
X12332087Y-21167181D02*
X12351134Y-21176705D01*
X12351134Y-21176705D02*
X12370182Y-21176705D01*
X12589230Y-21043371D02*
X12589230Y-21243371D01*
X12589230Y-21052895D02*
X12608277Y-21043371D01*
X12608277Y-21043371D02*
X12646373Y-21043371D01*
X12646373Y-21043371D02*
X12665420Y-21052895D01*
X12665420Y-21052895D02*
X12674944Y-21062419D01*
X12674944Y-21062419D02*
X12684468Y-21081467D01*
X12684468Y-21081467D02*
X12684468Y-21138609D01*
X12684468Y-21138609D02*
X12674944Y-21157657D01*
X12674944Y-21157657D02*
X12665420Y-21167181D01*
X12665420Y-21167181D02*
X12646373Y-21176705D01*
X12646373Y-21176705D02*
X12608277Y-21176705D01*
X12608277Y-21176705D02*
X12589230Y-21167181D01*
X12798753Y-21176705D02*
X12779706Y-21167181D01*
X12779706Y-21167181D02*
X12770182Y-21148133D01*
X12770182Y-21148133D02*
X12770182Y-20976705D01*
X12960658Y-21176705D02*
X12960658Y-21071943D01*
X12960658Y-21071943D02*
X12951134Y-21052895D01*
X12951134Y-21052895D02*
X12932087Y-21043371D01*
X12932087Y-21043371D02*
X12893992Y-21043371D01*
X12893992Y-21043371D02*
X12874944Y-21052895D01*
X12960658Y-21167181D02*
X12941611Y-21176705D01*
X12941611Y-21176705D02*
X12893992Y-21176705D01*
X12893992Y-21176705D02*
X12874944Y-21167181D01*
X12874944Y-21167181D02*
X12865420Y-21148133D01*
X12865420Y-21148133D02*
X12865420Y-21129086D01*
X12865420Y-21129086D02*
X12874944Y-21110038D01*
X12874944Y-21110038D02*
X12893992Y-21100514D01*
X12893992Y-21100514D02*
X12941611Y-21100514D01*
X12941611Y-21100514D02*
X12960658Y-21090990D01*
X13027325Y-21043371D02*
X13103515Y-21043371D01*
X13055896Y-20976705D02*
X13055896Y-21148133D01*
X13055896Y-21148133D02*
X13065420Y-21167181D01*
X13065420Y-21167181D02*
X13084468Y-21176705D01*
X13084468Y-21176705D02*
X13103515Y-21176705D01*
X13246373Y-21167181D02*
X13227325Y-21176705D01*
X13227325Y-21176705D02*
X13189230Y-21176705D01*
X13189230Y-21176705D02*
X13170182Y-21167181D01*
X13170182Y-21167181D02*
X13160658Y-21148133D01*
X13160658Y-21148133D02*
X13160658Y-21071943D01*
X13160658Y-21071943D02*
X13170182Y-21052895D01*
X13170182Y-21052895D02*
X13189230Y-21043371D01*
X13189230Y-21043371D02*
X13227325Y-21043371D01*
X13227325Y-21043371D02*
X13246373Y-21052895D01*
X13246373Y-21052895D02*
X13255896Y-21071943D01*
X13255896Y-21071943D02*
X13255896Y-21090990D01*
X13255896Y-21090990D02*
X13160658Y-21110038D01*
X13427325Y-21176705D02*
X13427325Y-20976705D01*
X13427325Y-21167181D02*
X13408277Y-21176705D01*
X13408277Y-21176705D02*
X13370182Y-21176705D01*
X13370182Y-21176705D02*
X13351134Y-21167181D01*
X13351134Y-21167181D02*
X13341611Y-21157657D01*
X13341611Y-21157657D02*
X13332087Y-21138609D01*
X13332087Y-21138609D02*
X13332087Y-21081467D01*
X13332087Y-21081467D02*
X13341611Y-21062419D01*
X13341611Y-21062419D02*
X13351134Y-21052895D01*
X13351134Y-21052895D02*
X13370182Y-21043371D01*
X13370182Y-21043371D02*
X13408277Y-21043371D01*
X13408277Y-21043371D02*
X13427325Y-21052895D01*
X13503515Y-21252895D02*
X13513039Y-21243371D01*
X13513039Y-21243371D02*
X13532087Y-21214800D01*
X13532087Y-21214800D02*
X13541611Y-21195752D01*
X13541611Y-21195752D02*
X13551134Y-21167181D01*
X13551134Y-21167181D02*
X13560658Y-21119562D01*
X13560658Y-21119562D02*
X13560658Y-21081467D01*
X13560658Y-21081467D02*
X13551134Y-21033848D01*
X13551134Y-21033848D02*
X13541611Y-21005276D01*
X13541611Y-21005276D02*
X13532087Y-20986229D01*
X13532087Y-20986229D02*
X13513039Y-20957657D01*
X13513039Y-20957657D02*
X13503515Y-20948133D01*
X6547500Y-21305221D02*
X6747500Y-21505221D01*
X6747500Y-21305221D02*
X6547500Y-21505221D01*
X6747500Y-21405221D02*
G75*
G03*
X6747500Y-21405221I-100000J0D01*
G01*
X6989229Y-21296705D02*
X7113039Y-21296705D01*
X7113039Y-21296705D02*
X7046372Y-21372895D01*
X7046372Y-21372895D02*
X7074943Y-21372895D01*
X7074943Y-21372895D02*
X7093991Y-21382419D01*
X7093991Y-21382419D02*
X7103515Y-21391943D01*
X7103515Y-21391943D02*
X7113039Y-21410990D01*
X7113039Y-21410990D02*
X7113039Y-21458609D01*
X7113039Y-21458609D02*
X7103515Y-21477657D01*
X7103515Y-21477657D02*
X7093991Y-21487181D01*
X7093991Y-21487181D02*
X7074943Y-21496705D01*
X7074943Y-21496705D02*
X7017801Y-21496705D01*
X7017801Y-21496705D02*
X6998753Y-21487181D01*
X6998753Y-21487181D02*
X6989229Y-21477657D01*
X7198753Y-21477657D02*
X7208277Y-21487181D01*
X7208277Y-21487181D02*
X7198753Y-21496705D01*
X7198753Y-21496705D02*
X7189229Y-21487181D01*
X7189229Y-21487181D02*
X7198753Y-21477657D01*
X7198753Y-21477657D02*
X7198753Y-21496705D01*
X7303515Y-21496705D02*
X7341610Y-21496705D01*
X7341610Y-21496705D02*
X7360658Y-21487181D01*
X7360658Y-21487181D02*
X7370182Y-21477657D01*
X7370182Y-21477657D02*
X7389229Y-21449086D01*
X7389229Y-21449086D02*
X7398753Y-21410990D01*
X7398753Y-21410990D02*
X7398753Y-21334800D01*
X7398753Y-21334800D02*
X7389229Y-21315752D01*
X7389229Y-21315752D02*
X7379705Y-21306229D01*
X7379705Y-21306229D02*
X7360658Y-21296705D01*
X7360658Y-21296705D02*
X7322562Y-21296705D01*
X7322562Y-21296705D02*
X7303515Y-21306229D01*
X7303515Y-21306229D02*
X7293991Y-21315752D01*
X7293991Y-21315752D02*
X7284467Y-21334800D01*
X7284467Y-21334800D02*
X7284467Y-21382419D01*
X7284467Y-21382419D02*
X7293991Y-21401467D01*
X7293991Y-21401467D02*
X7303515Y-21410990D01*
X7303515Y-21410990D02*
X7322562Y-21420514D01*
X7322562Y-21420514D02*
X7360658Y-21420514D01*
X7360658Y-21420514D02*
X7379705Y-21410990D01*
X7379705Y-21410990D02*
X7389229Y-21401467D01*
X7389229Y-21401467D02*
X7398753Y-21382419D01*
X7513039Y-21382419D02*
X7493991Y-21372895D01*
X7493991Y-21372895D02*
X7484467Y-21363371D01*
X7484467Y-21363371D02*
X7474943Y-21344324D01*
X7474943Y-21344324D02*
X7474943Y-21334800D01*
X7474943Y-21334800D02*
X7484467Y-21315752D01*
X7484467Y-21315752D02*
X7493991Y-21306229D01*
X7493991Y-21306229D02*
X7513039Y-21296705D01*
X7513039Y-21296705D02*
X7551134Y-21296705D01*
X7551134Y-21296705D02*
X7570182Y-21306229D01*
X7570182Y-21306229D02*
X7579705Y-21315752D01*
X7579705Y-21315752D02*
X7589229Y-21334800D01*
X7589229Y-21334800D02*
X7589229Y-21344324D01*
X7589229Y-21344324D02*
X7579705Y-21363371D01*
X7579705Y-21363371D02*
X7570182Y-21372895D01*
X7570182Y-21372895D02*
X7551134Y-21382419D01*
X7551134Y-21382419D02*
X7513039Y-21382419D01*
X7513039Y-21382419D02*
X7493991Y-21391943D01*
X7493991Y-21391943D02*
X7484467Y-21401467D01*
X7484467Y-21401467D02*
X7474943Y-21420514D01*
X7474943Y-21420514D02*
X7474943Y-21458609D01*
X7474943Y-21458609D02*
X7484467Y-21477657D01*
X7484467Y-21477657D02*
X7493991Y-21487181D01*
X7493991Y-21487181D02*
X7513039Y-21496705D01*
X7513039Y-21496705D02*
X7551134Y-21496705D01*
X7551134Y-21496705D02*
X7570182Y-21487181D01*
X7570182Y-21487181D02*
X7579705Y-21477657D01*
X7579705Y-21477657D02*
X7589229Y-21458609D01*
X7589229Y-21458609D02*
X7589229Y-21420514D01*
X7589229Y-21420514D02*
X7579705Y-21401467D01*
X7579705Y-21401467D02*
X7570182Y-21391943D01*
X7570182Y-21391943D02*
X7551134Y-21382419D01*
X7703515Y-21382419D02*
X7684467Y-21372895D01*
X7684467Y-21372895D02*
X7674943Y-21363371D01*
X7674943Y-21363371D02*
X7665420Y-21344324D01*
X7665420Y-21344324D02*
X7665420Y-21334800D01*
X7665420Y-21334800D02*
X7674943Y-21315752D01*
X7674943Y-21315752D02*
X7684467Y-21306229D01*
X7684467Y-21306229D02*
X7703515Y-21296705D01*
X7703515Y-21296705D02*
X7741610Y-21296705D01*
X7741610Y-21296705D02*
X7760658Y-21306229D01*
X7760658Y-21306229D02*
X7770182Y-21315752D01*
X7770182Y-21315752D02*
X7779705Y-21334800D01*
X7779705Y-21334800D02*
X7779705Y-21344324D01*
X7779705Y-21344324D02*
X7770182Y-21363371D01*
X7770182Y-21363371D02*
X7760658Y-21372895D01*
X7760658Y-21372895D02*
X7741610Y-21382419D01*
X7741610Y-21382419D02*
X7703515Y-21382419D01*
X7703515Y-21382419D02*
X7684467Y-21391943D01*
X7684467Y-21391943D02*
X7674943Y-21401467D01*
X7674943Y-21401467D02*
X7665420Y-21420514D01*
X7665420Y-21420514D02*
X7665420Y-21458609D01*
X7665420Y-21458609D02*
X7674943Y-21477657D01*
X7674943Y-21477657D02*
X7684467Y-21487181D01*
X7684467Y-21487181D02*
X7703515Y-21496705D01*
X7703515Y-21496705D02*
X7741610Y-21496705D01*
X7741610Y-21496705D02*
X7760658Y-21487181D01*
X7760658Y-21487181D02*
X7770182Y-21477657D01*
X7770182Y-21477657D02*
X7779705Y-21458609D01*
X7779705Y-21458609D02*
X7779705Y-21420514D01*
X7779705Y-21420514D02*
X7770182Y-21401467D01*
X7770182Y-21401467D02*
X7760658Y-21391943D01*
X7760658Y-21391943D02*
X7741610Y-21382419D01*
X7865420Y-21496705D02*
X7865420Y-21363371D01*
X7865420Y-21382419D02*
X7874943Y-21372895D01*
X7874943Y-21372895D02*
X7893991Y-21363371D01*
X7893991Y-21363371D02*
X7922563Y-21363371D01*
X7922563Y-21363371D02*
X7941610Y-21372895D01*
X7941610Y-21372895D02*
X7951134Y-21391943D01*
X7951134Y-21391943D02*
X7951134Y-21496705D01*
X7951134Y-21391943D02*
X7960658Y-21372895D01*
X7960658Y-21372895D02*
X7979705Y-21363371D01*
X7979705Y-21363371D02*
X8008277Y-21363371D01*
X8008277Y-21363371D02*
X8027324Y-21372895D01*
X8027324Y-21372895D02*
X8036848Y-21391943D01*
X8036848Y-21391943D02*
X8036848Y-21496705D01*
X8132086Y-21496705D02*
X8132086Y-21363371D01*
X8132086Y-21382419D02*
X8141610Y-21372895D01*
X8141610Y-21372895D02*
X8160658Y-21363371D01*
X8160658Y-21363371D02*
X8189229Y-21363371D01*
X8189229Y-21363371D02*
X8208277Y-21372895D01*
X8208277Y-21372895D02*
X8217801Y-21391943D01*
X8217801Y-21391943D02*
X8217801Y-21496705D01*
X8217801Y-21391943D02*
X8227324Y-21372895D01*
X8227324Y-21372895D02*
X8246372Y-21363371D01*
X8246372Y-21363371D02*
X8274943Y-21363371D01*
X8274943Y-21363371D02*
X8293991Y-21372895D01*
X8293991Y-21372895D02*
X8303515Y-21391943D01*
X8303515Y-21391943D02*
X8303515Y-21496705D01*
X8693991Y-21287181D02*
X8522563Y-21544324D01*
X8951134Y-21296705D02*
X8970182Y-21296705D01*
X8970182Y-21296705D02*
X8989229Y-21306229D01*
X8989229Y-21306229D02*
X8998753Y-21315752D01*
X8998753Y-21315752D02*
X9008277Y-21334800D01*
X9008277Y-21334800D02*
X9017801Y-21372895D01*
X9017801Y-21372895D02*
X9017801Y-21420514D01*
X9017801Y-21420514D02*
X9008277Y-21458609D01*
X9008277Y-21458609D02*
X8998753Y-21477657D01*
X8998753Y-21477657D02*
X8989229Y-21487181D01*
X8989229Y-21487181D02*
X8970182Y-21496705D01*
X8970182Y-21496705D02*
X8951134Y-21496705D01*
X8951134Y-21496705D02*
X8932087Y-21487181D01*
X8932087Y-21487181D02*
X8922563Y-21477657D01*
X8922563Y-21477657D02*
X8913039Y-21458609D01*
X8913039Y-21458609D02*
X8903515Y-21420514D01*
X8903515Y-21420514D02*
X8903515Y-21372895D01*
X8903515Y-21372895D02*
X8913039Y-21334800D01*
X8913039Y-21334800D02*
X8922563Y-21315752D01*
X8922563Y-21315752D02*
X8932087Y-21306229D01*
X8932087Y-21306229D02*
X8951134Y-21296705D01*
X9103515Y-21477657D02*
X9113039Y-21487181D01*
X9113039Y-21487181D02*
X9103515Y-21496705D01*
X9103515Y-21496705D02*
X9093991Y-21487181D01*
X9093991Y-21487181D02*
X9103515Y-21477657D01*
X9103515Y-21477657D02*
X9103515Y-21496705D01*
X9303515Y-21496705D02*
X9189229Y-21496705D01*
X9246372Y-21496705D02*
X9246372Y-21296705D01*
X9246372Y-21296705D02*
X9227325Y-21325276D01*
X9227325Y-21325276D02*
X9208277Y-21344324D01*
X9208277Y-21344324D02*
X9189229Y-21353848D01*
X9484468Y-21296705D02*
X9389229Y-21296705D01*
X9389229Y-21296705D02*
X9379706Y-21391943D01*
X9379706Y-21391943D02*
X9389229Y-21382419D01*
X9389229Y-21382419D02*
X9408277Y-21372895D01*
X9408277Y-21372895D02*
X9455896Y-21372895D01*
X9455896Y-21372895D02*
X9474944Y-21382419D01*
X9474944Y-21382419D02*
X9484468Y-21391943D01*
X9484468Y-21391943D02*
X9493991Y-21410990D01*
X9493991Y-21410990D02*
X9493991Y-21458609D01*
X9493991Y-21458609D02*
X9484468Y-21477657D01*
X9484468Y-21477657D02*
X9474944Y-21487181D01*
X9474944Y-21487181D02*
X9455896Y-21496705D01*
X9455896Y-21496705D02*
X9408277Y-21496705D01*
X9408277Y-21496705D02*
X9389229Y-21487181D01*
X9389229Y-21487181D02*
X9379706Y-21477657D01*
X9560658Y-21296705D02*
X9693991Y-21296705D01*
X9693991Y-21296705D02*
X9608277Y-21496705D01*
X9808277Y-21296705D02*
X9827325Y-21296705D01*
X9827325Y-21296705D02*
X9846372Y-21306229D01*
X9846372Y-21306229D02*
X9855896Y-21315752D01*
X9855896Y-21315752D02*
X9865420Y-21334800D01*
X9865420Y-21334800D02*
X9874944Y-21372895D01*
X9874944Y-21372895D02*
X9874944Y-21420514D01*
X9874944Y-21420514D02*
X9865420Y-21458609D01*
X9865420Y-21458609D02*
X9855896Y-21477657D01*
X9855896Y-21477657D02*
X9846372Y-21487181D01*
X9846372Y-21487181D02*
X9827325Y-21496705D01*
X9827325Y-21496705D02*
X9808277Y-21496705D01*
X9808277Y-21496705D02*
X9789229Y-21487181D01*
X9789229Y-21487181D02*
X9779706Y-21477657D01*
X9779706Y-21477657D02*
X9770182Y-21458609D01*
X9770182Y-21458609D02*
X9760658Y-21420514D01*
X9760658Y-21420514D02*
X9760658Y-21372895D01*
X9760658Y-21372895D02*
X9770182Y-21334800D01*
X9770182Y-21334800D02*
X9779706Y-21315752D01*
X9779706Y-21315752D02*
X9789229Y-21306229D01*
X9789229Y-21306229D02*
X9808277Y-21296705D01*
X9951134Y-21296705D02*
X9951134Y-21334800D01*
X10027325Y-21296705D02*
X10027325Y-21334800D01*
X10322563Y-21572895D02*
X10313039Y-21563371D01*
X10313039Y-21563371D02*
X10293991Y-21534800D01*
X10293991Y-21534800D02*
X10284468Y-21515752D01*
X10284468Y-21515752D02*
X10274944Y-21487181D01*
X10274944Y-21487181D02*
X10265420Y-21439562D01*
X10265420Y-21439562D02*
X10265420Y-21401467D01*
X10265420Y-21401467D02*
X10274944Y-21353848D01*
X10274944Y-21353848D02*
X10284468Y-21325276D01*
X10284468Y-21325276D02*
X10293991Y-21306229D01*
X10293991Y-21306229D02*
X10313039Y-21277657D01*
X10313039Y-21277657D02*
X10322563Y-21268133D01*
X10379706Y-21296705D02*
X10503515Y-21296705D01*
X10503515Y-21296705D02*
X10436849Y-21372895D01*
X10436849Y-21372895D02*
X10465420Y-21372895D01*
X10465420Y-21372895D02*
X10484468Y-21382419D01*
X10484468Y-21382419D02*
X10493991Y-21391943D01*
X10493991Y-21391943D02*
X10503515Y-21410990D01*
X10503515Y-21410990D02*
X10503515Y-21458609D01*
X10503515Y-21458609D02*
X10493991Y-21477657D01*
X10493991Y-21477657D02*
X10484468Y-21487181D01*
X10484468Y-21487181D02*
X10465420Y-21496705D01*
X10465420Y-21496705D02*
X10408277Y-21496705D01*
X10408277Y-21496705D02*
X10389230Y-21487181D01*
X10389230Y-21487181D02*
X10379706Y-21477657D01*
X10598753Y-21496705D02*
X10636849Y-21496705D01*
X10636849Y-21496705D02*
X10655896Y-21487181D01*
X10655896Y-21487181D02*
X10665420Y-21477657D01*
X10665420Y-21477657D02*
X10684468Y-21449086D01*
X10684468Y-21449086D02*
X10693991Y-21410990D01*
X10693991Y-21410990D02*
X10693991Y-21334800D01*
X10693991Y-21334800D02*
X10684468Y-21315752D01*
X10684468Y-21315752D02*
X10674944Y-21306229D01*
X10674944Y-21306229D02*
X10655896Y-21296705D01*
X10655896Y-21296705D02*
X10617801Y-21296705D01*
X10617801Y-21296705D02*
X10598753Y-21306229D01*
X10598753Y-21306229D02*
X10589230Y-21315752D01*
X10589230Y-21315752D02*
X10579706Y-21334800D01*
X10579706Y-21334800D02*
X10579706Y-21382419D01*
X10579706Y-21382419D02*
X10589230Y-21401467D01*
X10589230Y-21401467D02*
X10598753Y-21410990D01*
X10598753Y-21410990D02*
X10617801Y-21420514D01*
X10617801Y-21420514D02*
X10655896Y-21420514D01*
X10655896Y-21420514D02*
X10674944Y-21410990D01*
X10674944Y-21410990D02*
X10684468Y-21401467D01*
X10684468Y-21401467D02*
X10693991Y-21382419D01*
X10932087Y-21496705D02*
X10932087Y-21296705D01*
X11017801Y-21496705D02*
X11017801Y-21391943D01*
X11017801Y-21391943D02*
X11008277Y-21372895D01*
X11008277Y-21372895D02*
X10989230Y-21363371D01*
X10989230Y-21363371D02*
X10960658Y-21363371D01*
X10960658Y-21363371D02*
X10941611Y-21372895D01*
X10941611Y-21372895D02*
X10932087Y-21382419D01*
X11141611Y-21496705D02*
X11122563Y-21487181D01*
X11122563Y-21487181D02*
X11113039Y-21477657D01*
X11113039Y-21477657D02*
X11103515Y-21458609D01*
X11103515Y-21458609D02*
X11103515Y-21401467D01*
X11103515Y-21401467D02*
X11113039Y-21382419D01*
X11113039Y-21382419D02*
X11122563Y-21372895D01*
X11122563Y-21372895D02*
X11141611Y-21363371D01*
X11141611Y-21363371D02*
X11170182Y-21363371D01*
X11170182Y-21363371D02*
X11189230Y-21372895D01*
X11189230Y-21372895D02*
X11198753Y-21382419D01*
X11198753Y-21382419D02*
X11208277Y-21401467D01*
X11208277Y-21401467D02*
X11208277Y-21458609D01*
X11208277Y-21458609D02*
X11198753Y-21477657D01*
X11198753Y-21477657D02*
X11189230Y-21487181D01*
X11189230Y-21487181D02*
X11170182Y-21496705D01*
X11170182Y-21496705D02*
X11141611Y-21496705D01*
X11322563Y-21496705D02*
X11303515Y-21487181D01*
X11303515Y-21487181D02*
X11293991Y-21468133D01*
X11293991Y-21468133D02*
X11293991Y-21296705D01*
X11474944Y-21487181D02*
X11455896Y-21496705D01*
X11455896Y-21496705D02*
X11417801Y-21496705D01*
X11417801Y-21496705D02*
X11398753Y-21487181D01*
X11398753Y-21487181D02*
X11389230Y-21468133D01*
X11389230Y-21468133D02*
X11389230Y-21391943D01*
X11389230Y-21391943D02*
X11398753Y-21372895D01*
X11398753Y-21372895D02*
X11417801Y-21363371D01*
X11417801Y-21363371D02*
X11455896Y-21363371D01*
X11455896Y-21363371D02*
X11474944Y-21372895D01*
X11474944Y-21372895D02*
X11484468Y-21391943D01*
X11484468Y-21391943D02*
X11484468Y-21410990D01*
X11484468Y-21410990D02*
X11389230Y-21430038D01*
X11560658Y-21487181D02*
X11579706Y-21496705D01*
X11579706Y-21496705D02*
X11617801Y-21496705D01*
X11617801Y-21496705D02*
X11636849Y-21487181D01*
X11636849Y-21487181D02*
X11646372Y-21468133D01*
X11646372Y-21468133D02*
X11646372Y-21458609D01*
X11646372Y-21458609D02*
X11636849Y-21439562D01*
X11636849Y-21439562D02*
X11617801Y-21430038D01*
X11617801Y-21430038D02*
X11589230Y-21430038D01*
X11589230Y-21430038D02*
X11570182Y-21420514D01*
X11570182Y-21420514D02*
X11560658Y-21401467D01*
X11560658Y-21401467D02*
X11560658Y-21391943D01*
X11560658Y-21391943D02*
X11570182Y-21372895D01*
X11570182Y-21372895D02*
X11589230Y-21363371D01*
X11589230Y-21363371D02*
X11617801Y-21363371D01*
X11617801Y-21363371D02*
X11636849Y-21372895D01*
X11713039Y-21572895D02*
X11722563Y-21563371D01*
X11722563Y-21563371D02*
X11741611Y-21534800D01*
X11741611Y-21534800D02*
X11751134Y-21515752D01*
X11751134Y-21515752D02*
X11760658Y-21487181D01*
X11760658Y-21487181D02*
X11770182Y-21439562D01*
X11770182Y-21439562D02*
X11770182Y-21401467D01*
X11770182Y-21401467D02*
X11760658Y-21353848D01*
X11760658Y-21353848D02*
X11751134Y-21325276D01*
X11751134Y-21325276D02*
X11741611Y-21306229D01*
X11741611Y-21306229D02*
X11722563Y-21277657D01*
X11722563Y-21277657D02*
X11713039Y-21268133D01*
X12074944Y-21572895D02*
X12065420Y-21563371D01*
X12065420Y-21563371D02*
X12046372Y-21534800D01*
X12046372Y-21534800D02*
X12036849Y-21515752D01*
X12036849Y-21515752D02*
X12027325Y-21487181D01*
X12027325Y-21487181D02*
X12017801Y-21439562D01*
X12017801Y-21439562D02*
X12017801Y-21401467D01*
X12017801Y-21401467D02*
X12027325Y-21353848D01*
X12027325Y-21353848D02*
X12036849Y-21325276D01*
X12036849Y-21325276D02*
X12046372Y-21306229D01*
X12046372Y-21306229D02*
X12065420Y-21277657D01*
X12065420Y-21277657D02*
X12074944Y-21268133D01*
X12151134Y-21363371D02*
X12151134Y-21496705D01*
X12151134Y-21382419D02*
X12160658Y-21372895D01*
X12160658Y-21372895D02*
X12179706Y-21363371D01*
X12179706Y-21363371D02*
X12208277Y-21363371D01*
X12208277Y-21363371D02*
X12227325Y-21372895D01*
X12227325Y-21372895D02*
X12236849Y-21391943D01*
X12236849Y-21391943D02*
X12236849Y-21496705D01*
X12360658Y-21496705D02*
X12341611Y-21487181D01*
X12341611Y-21487181D02*
X12332087Y-21477657D01*
X12332087Y-21477657D02*
X12322563Y-21458609D01*
X12322563Y-21458609D02*
X12322563Y-21401467D01*
X12322563Y-21401467D02*
X12332087Y-21382419D01*
X12332087Y-21382419D02*
X12341611Y-21372895D01*
X12341611Y-21372895D02*
X12360658Y-21363371D01*
X12360658Y-21363371D02*
X12389230Y-21363371D01*
X12389230Y-21363371D02*
X12408277Y-21372895D01*
X12408277Y-21372895D02*
X12417801Y-21382419D01*
X12417801Y-21382419D02*
X12427325Y-21401467D01*
X12427325Y-21401467D02*
X12427325Y-21458609D01*
X12427325Y-21458609D02*
X12417801Y-21477657D01*
X12417801Y-21477657D02*
X12408277Y-21487181D01*
X12408277Y-21487181D02*
X12389230Y-21496705D01*
X12389230Y-21496705D02*
X12360658Y-21496705D01*
X12484468Y-21363371D02*
X12560658Y-21363371D01*
X12513039Y-21296705D02*
X12513039Y-21468133D01*
X12513039Y-21468133D02*
X12522563Y-21487181D01*
X12522563Y-21487181D02*
X12541611Y-21496705D01*
X12541611Y-21496705D02*
X12560658Y-21496705D01*
X12779706Y-21363371D02*
X12779706Y-21563371D01*
X12779706Y-21372895D02*
X12798753Y-21363371D01*
X12798753Y-21363371D02*
X12836849Y-21363371D01*
X12836849Y-21363371D02*
X12855896Y-21372895D01*
X12855896Y-21372895D02*
X12865420Y-21382419D01*
X12865420Y-21382419D02*
X12874944Y-21401467D01*
X12874944Y-21401467D02*
X12874944Y-21458609D01*
X12874944Y-21458609D02*
X12865420Y-21477657D01*
X12865420Y-21477657D02*
X12855896Y-21487181D01*
X12855896Y-21487181D02*
X12836849Y-21496705D01*
X12836849Y-21496705D02*
X12798753Y-21496705D01*
X12798753Y-21496705D02*
X12779706Y-21487181D01*
X12989230Y-21496705D02*
X12970182Y-21487181D01*
X12970182Y-21487181D02*
X12960658Y-21468133D01*
X12960658Y-21468133D02*
X12960658Y-21296705D01*
X13151134Y-21496705D02*
X13151134Y-21391943D01*
X13151134Y-21391943D02*
X13141611Y-21372895D01*
X13141611Y-21372895D02*
X13122563Y-21363371D01*
X13122563Y-21363371D02*
X13084468Y-21363371D01*
X13084468Y-21363371D02*
X13065420Y-21372895D01*
X13151134Y-21487181D02*
X13132087Y-21496705D01*
X13132087Y-21496705D02*
X13084468Y-21496705D01*
X13084468Y-21496705D02*
X13065420Y-21487181D01*
X13065420Y-21487181D02*
X13055896Y-21468133D01*
X13055896Y-21468133D02*
X13055896Y-21449086D01*
X13055896Y-21449086D02*
X13065420Y-21430038D01*
X13065420Y-21430038D02*
X13084468Y-21420514D01*
X13084468Y-21420514D02*
X13132087Y-21420514D01*
X13132087Y-21420514D02*
X13151134Y-21410990D01*
X13217801Y-21363371D02*
X13293992Y-21363371D01*
X13246373Y-21296705D02*
X13246373Y-21468133D01*
X13246373Y-21468133D02*
X13255896Y-21487181D01*
X13255896Y-21487181D02*
X13274944Y-21496705D01*
X13274944Y-21496705D02*
X13293992Y-21496705D01*
X13436849Y-21487181D02*
X13417801Y-21496705D01*
X13417801Y-21496705D02*
X13379706Y-21496705D01*
X13379706Y-21496705D02*
X13360658Y-21487181D01*
X13360658Y-21487181D02*
X13351134Y-21468133D01*
X13351134Y-21468133D02*
X13351134Y-21391943D01*
X13351134Y-21391943D02*
X13360658Y-21372895D01*
X13360658Y-21372895D02*
X13379706Y-21363371D01*
X13379706Y-21363371D02*
X13417801Y-21363371D01*
X13417801Y-21363371D02*
X13436849Y-21372895D01*
X13436849Y-21372895D02*
X13446373Y-21391943D01*
X13446373Y-21391943D02*
X13446373Y-21410990D01*
X13446373Y-21410990D02*
X13351134Y-21430038D01*
X13617801Y-21496705D02*
X13617801Y-21296705D01*
X13617801Y-21487181D02*
X13598754Y-21496705D01*
X13598754Y-21496705D02*
X13560658Y-21496705D01*
X13560658Y-21496705D02*
X13541611Y-21487181D01*
X13541611Y-21487181D02*
X13532087Y-21477657D01*
X13532087Y-21477657D02*
X13522563Y-21458609D01*
X13522563Y-21458609D02*
X13522563Y-21401467D01*
X13522563Y-21401467D02*
X13532087Y-21382419D01*
X13532087Y-21382419D02*
X13541611Y-21372895D01*
X13541611Y-21372895D02*
X13560658Y-21363371D01*
X13560658Y-21363371D02*
X13598754Y-21363371D01*
X13598754Y-21363371D02*
X13617801Y-21372895D01*
X13693992Y-21572895D02*
X13703515Y-21563371D01*
X13703515Y-21563371D02*
X13722563Y-21534800D01*
X13722563Y-21534800D02*
X13732087Y-21515752D01*
X13732087Y-21515752D02*
X13741611Y-21487181D01*
X13741611Y-21487181D02*
X13751134Y-21439562D01*
X13751134Y-21439562D02*
X13751134Y-21401467D01*
X13751134Y-21401467D02*
X13741611Y-21353848D01*
X13741611Y-21353848D02*
X13732087Y-21325276D01*
X13732087Y-21325276D02*
X13722563Y-21306229D01*
X13722563Y-21306229D02*
X13703515Y-21277657D01*
X13703515Y-21277657D02*
X13693992Y-21268133D01*
M02*
