G04 #@! TF.GenerationSoftware,KiCad,Pcbnew,7.0.9-1.fc39*
G04 #@! TF.CreationDate,2024-01-02T19:22:47+02:00*
G04 #@! TF.ProjectId,SplitHsideLeft3,53706c69-7448-4736-9964-654c65667433,rev?*
G04 #@! TF.SameCoordinates,Original*
G04 #@! TF.FileFunction,Soldermask,Top*
G04 #@! TF.FilePolarity,Negative*
%FSLAX46Y46*%
G04 Gerber Fmt 4.6, Leading zero omitted, Abs format (unit mm)*
G04 Created by KiCad (PCBNEW 7.0.9-1.fc39) date 2024-01-02 19:22:47*
%MOMM*%
%LPD*%
G01*
G04 APERTURE LIST*
G04 Aperture macros list*
%AMHorizOval*
0 Thick line with rounded ends*
0 $1 width*
0 $2 $3 position (X,Y) of the first rounded end (center of the circle)*
0 $4 $5 position (X,Y) of the second rounded end (center of the circle)*
0 Add line between two ends*
20,1,$1,$2,$3,$4,$5,0*
0 Add two circle primitives to create the rounded ends*
1,1,$1,$2,$3*
1,1,$1,$4,$5*%
%AMRotRect*
0 Rectangle, with rotation*
0 The origin of the aperture is its center*
0 $1 length*
0 $2 width*
0 $3 Rotation angle, in degrees counterclockwise*
0 Add horizontal line*
21,1,$1,$2,0,0,$3*%
G04 Aperture macros list end*
%ADD10R,1.600000X1.600000*%
%ADD11C,1.600000*%
%ADD12RotRect,1.752600X1.752600X225.000000*%
%ADD13C,1.752600*%
%ADD14C,0.800000*%
%ADD15HorizOval,1.600000X-0.141421X-0.141421X0.141421X0.141421X0*%
%ADD16C,1.750000*%
%ADD17C,3.987800*%
%ADD18C,3.200000*%
%ADD19C,3.048000*%
%ADD20RotRect,1.700000X1.700000X225.000000*%
%ADD21HorizOval,1.700000X0.000000X0.000000X0.000000X0.000000X0*%
%ADD22O,2.000000X3.200000*%
%ADD23R,2.000000X2.000000*%
%ADD24C,2.000000*%
G04 APERTURE END LIST*
D10*
X71402790Y-69100000D03*
D11*
X71402790Y-76900000D03*
D10*
X71402790Y-97500000D03*
D11*
X71402790Y-105300000D03*
D10*
X76165310Y-115901749D03*
D11*
X76165310Y-123701749D03*
D10*
X78500000Y-135600000D03*
D11*
X78500000Y-143400000D03*
D10*
X73784050Y-154500000D03*
D11*
X73784050Y-162300000D03*
D10*
X73784050Y-173700000D03*
D11*
X73784050Y-181500000D03*
D10*
X90500000Y-97600000D03*
D11*
X90500000Y-105400000D03*
D10*
X99977910Y-115901749D03*
D11*
X99977910Y-123701749D03*
D10*
X104740430Y-135500000D03*
D11*
X104740430Y-143300000D03*
D10*
X95215390Y-154700000D03*
D11*
X95215390Y-162500000D03*
D10*
X97596650Y-173600000D03*
D11*
X97596650Y-181400000D03*
D10*
X109502950Y-97500000D03*
D11*
X109502950Y-105300000D03*
D10*
X119027990Y-116229859D03*
D11*
X119027990Y-124029859D03*
D10*
X124000000Y-135600000D03*
D11*
X124000000Y-143400000D03*
D10*
X114265470Y-154700000D03*
D11*
X114265470Y-162500000D03*
D10*
X121409250Y-173600000D03*
D11*
X121409250Y-181400000D03*
D10*
X128553030Y-97600000D03*
D11*
X128553030Y-105400000D03*
D10*
X138078070Y-116229859D03*
D11*
X138078070Y-124029859D03*
D10*
X143000000Y-135600000D03*
D11*
X143000000Y-143400000D03*
D10*
X133315550Y-154700000D03*
D11*
X133315550Y-162500000D03*
D10*
X166652710Y-69200000D03*
D11*
X166652710Y-77000000D03*
D10*
X147500000Y-97600000D03*
D11*
X147500000Y-105400000D03*
D10*
X157127710Y-116110799D03*
D11*
X157127710Y-123910799D03*
D10*
X161890210Y-135600000D03*
D11*
X161890210Y-143400000D03*
D10*
X152365210Y-154600000D03*
D11*
X152365210Y-162400000D03*
D10*
X180940210Y-135500000D03*
D11*
X180940210Y-143300000D03*
D10*
X171500000Y-154700000D03*
D11*
X171500000Y-162500000D03*
D10*
X195227710Y-116500000D03*
D11*
X195227710Y-124300000D03*
D10*
X199990210Y-135600000D03*
D11*
X199990210Y-143400000D03*
D10*
X190500000Y-154700000D03*
D11*
X190500000Y-162500000D03*
D12*
X181902710Y-27153485D03*
D13*
X180106659Y-28949536D03*
X178310608Y-30745587D03*
X176514556Y-32541638D03*
X174718505Y-34337689D03*
X172922454Y-36133741D03*
X171126403Y-37929792D03*
X169330351Y-39725843D03*
X167534300Y-41521894D03*
X165738249Y-43317946D03*
X163942198Y-45113997D03*
X162146147Y-46910048D03*
X172922454Y-57686355D03*
X174718505Y-55890304D03*
X176514556Y-54094253D03*
X178310608Y-52298202D03*
X180106659Y-50502151D03*
X181902710Y-48706099D03*
X183698761Y-46910048D03*
X185494813Y-45113997D03*
X187290864Y-43317946D03*
X189086915Y-41521894D03*
X190882966Y-39725843D03*
X192679017Y-37929792D03*
D14*
X205755025Y-40242284D03*
X200805278Y-45192031D03*
D15*
X197269744Y-45474874D03*
X201300252Y-47949748D03*
X204128680Y-45121321D03*
X206250000Y-43000000D03*
D16*
X75847830Y-100156339D03*
D17*
X80927830Y-100156339D03*
D16*
X86007830Y-100156339D03*
X80610350Y-119206419D03*
D17*
X85690350Y-119206419D03*
D16*
X90770350Y-119206419D03*
X82991610Y-138256499D03*
D17*
X88071610Y-138256499D03*
D16*
X93151610Y-138256499D03*
X78229090Y-157306579D03*
D17*
X83309090Y-157306579D03*
D16*
X88389090Y-157306579D03*
X78229090Y-176356659D03*
D17*
X83309090Y-176356659D03*
D16*
X88389090Y-176356659D03*
X94897910Y-100156339D03*
D17*
X99977910Y-100156339D03*
D16*
X105057910Y-100156339D03*
X104422950Y-119206419D03*
D17*
X109502950Y-119206419D03*
D16*
X114582950Y-119206419D03*
X109185470Y-138256499D03*
D17*
X114265470Y-138256499D03*
D16*
X119345470Y-138256499D03*
X99660430Y-157306579D03*
D17*
X104740430Y-157306579D03*
D16*
X109820430Y-157306579D03*
X102041690Y-176356659D03*
D17*
X107121690Y-176356659D03*
D16*
X112201690Y-176356659D03*
X132997710Y-71581219D03*
D17*
X138077710Y-71581219D03*
D16*
X143157710Y-71581219D03*
X113947990Y-100156339D03*
D17*
X119027990Y-100156339D03*
D16*
X124107990Y-100156339D03*
X123473030Y-119206419D03*
D17*
X128553030Y-119206419D03*
D16*
X133633030Y-119206419D03*
X128235550Y-138256499D03*
D17*
X133315550Y-138256499D03*
D16*
X138395550Y-138256499D03*
X118710510Y-157306579D03*
D17*
X123790510Y-157306579D03*
D16*
X128870510Y-157306579D03*
X125854290Y-176356659D03*
D17*
X130934290Y-176356659D03*
D16*
X136014290Y-176356659D03*
X132998070Y-100156339D03*
D17*
X138078070Y-100156339D03*
D16*
X143158070Y-100156339D03*
X142523110Y-119206419D03*
D17*
X147603110Y-119206419D03*
D16*
X152683110Y-119206419D03*
X147285630Y-138256499D03*
D17*
X152365630Y-138256499D03*
D16*
X157445630Y-138256499D03*
X137760590Y-157306579D03*
D17*
X142840590Y-157306579D03*
D16*
X147920590Y-157306579D03*
X171097710Y-71581219D03*
D17*
X176177710Y-71581219D03*
D16*
X181257710Y-71581219D03*
X152047710Y-100156099D03*
D17*
X157127710Y-100156099D03*
D16*
X162207710Y-100156099D03*
X161572710Y-119206099D03*
D17*
X166652710Y-119206099D03*
D16*
X171732710Y-119206099D03*
X166335210Y-138256099D03*
D17*
X171415210Y-138256099D03*
D16*
X176495210Y-138256099D03*
X156810210Y-157306099D03*
D17*
X161890210Y-157306099D03*
D16*
X166970210Y-157306099D03*
X75847830Y-71581219D03*
D17*
X80927830Y-71581219D03*
D16*
X86007830Y-71581219D03*
D18*
X217000000Y-189500000D03*
X70980000Y-58200000D03*
X71000000Y-189500000D03*
D10*
X110296460Y-69100000D03*
D11*
X110296460Y-76900000D03*
D10*
X185702710Y-97500000D03*
D11*
X185702710Y-105300000D03*
D16*
X190147710Y-100156099D03*
D17*
X195227710Y-100156099D03*
D16*
X200307710Y-100156099D03*
X152048070Y-71581219D03*
D17*
X157128070Y-71581219D03*
D16*
X162208070Y-71581219D03*
D10*
X147602710Y-69100000D03*
D11*
X147602710Y-76900000D03*
D10*
X128500000Y-69100000D03*
D11*
X128500000Y-76900000D03*
D16*
X171097710Y-100156099D03*
D17*
X176177710Y-100156099D03*
D16*
X181257710Y-100156099D03*
X180622710Y-119206099D03*
D17*
X185702710Y-119206099D03*
D16*
X190782710Y-119206099D03*
X185385210Y-138256099D03*
D17*
X190465210Y-138256099D03*
D16*
X195545210Y-138256099D03*
X175860210Y-157306099D03*
D17*
X180940210Y-157306099D03*
D16*
X186020210Y-157306099D03*
X199672710Y-119206099D03*
D17*
X204752710Y-119206099D03*
D16*
X209832710Y-119206099D03*
X204435210Y-138256099D03*
D17*
X209515210Y-138256099D03*
D16*
X214595210Y-138256099D03*
X194910210Y-157306099D03*
D17*
X199990210Y-157306099D03*
D16*
X205070210Y-157306099D03*
X113947710Y-71581099D03*
D17*
X119027710Y-71581099D03*
D16*
X124107710Y-71581099D03*
D10*
X166500000Y-97600000D03*
D11*
X166500000Y-105400000D03*
D10*
X149225000Y-173600000D03*
D11*
X149225000Y-181400000D03*
D19*
X157127710Y-169371099D03*
D17*
X157127710Y-184611099D03*
D16*
X163953960Y-176356099D03*
D17*
X169033960Y-176356099D03*
D16*
X174113960Y-176356099D03*
D19*
X180940210Y-169371099D03*
D17*
X180940210Y-184611099D03*
D10*
X176971460Y-116298299D03*
D11*
X176971460Y-124098299D03*
D18*
X137000000Y-54000000D03*
X194000000Y-51000000D03*
D20*
X167600000Y-57600000D03*
D21*
X165803949Y-55803949D03*
X164007898Y-54007898D03*
X162211846Y-52211846D03*
D18*
X177500000Y-17500000D03*
X216500000Y-51000000D03*
D22*
X201800000Y-177800000D03*
X213000000Y-177800000D03*
D23*
X204900000Y-185300000D03*
D24*
X209900000Y-185300000D03*
X207400000Y-185300000D03*
X209900000Y-170800000D03*
X204900000Y-170800000D03*
D10*
X194750000Y-173700000D03*
D11*
X194750000Y-181500000D03*
M02*
