G04 #@! TF.GenerationSoftware,KiCad,Pcbnew,7.0.9-1.fc39*
G04 #@! TF.CreationDate,2024-01-02T19:22:47+02:00*
G04 #@! TF.ProjectId,SplitHsideLeft3,53706c69-7448-4736-9964-654c65667433,rev?*
G04 #@! TF.SameCoordinates,Original*
G04 #@! TF.FileFunction,Profile,NP*
%FSLAX46Y46*%
G04 Gerber Fmt 4.6, Leading zero omitted, Abs format (unit mm)*
G04 Created by KiCad (PCBNEW 7.0.9-1.fc39) date 2024-01-02 19:22:47*
%MOMM*%
%LPD*%
G01*
G04 APERTURE LIST*
G04 #@! TA.AperFunction,Profile*
%ADD10C,0.100000*%
G04 #@! TD*
G04 #@! TA.AperFunction,Profile*
%ADD11C,0.050000*%
G04 #@! TD*
G04 APERTURE END LIST*
D10*
X71020748Y-192683088D02*
X71442281Y-192796038D01*
X71467281Y-54482702D02*
X71045748Y-54595652D01*
X68087812Y-190222063D02*
X68306014Y-190600000D01*
X67928380Y-57452193D02*
X67779121Y-57862279D01*
X69479728Y-191880884D02*
X69837209Y-192131195D01*
X67527356Y-188130411D02*
X67565391Y-188565154D01*
X68112812Y-57056677D02*
X67928380Y-57452193D01*
X67903380Y-189826547D02*
X68087812Y-190222063D01*
X220345000Y-56896000D02*
X220325000Y-59519742D01*
X67754121Y-189416461D02*
X67903380Y-189826547D01*
D11*
X189064684Y-19040834D02*
G75*
G03*
X166437268Y-19040834I-11313708J-11313709D01*
G01*
D10*
X220345000Y-55245000D02*
X220345000Y-53213711D01*
X68861840Y-55986955D02*
X68581325Y-56321259D01*
X67525000Y-187912209D02*
X67527356Y-188130411D01*
X69862209Y-55147545D02*
X69504728Y-55397856D01*
X189064684Y-19040834D02*
X217409298Y-46500000D01*
X67565391Y-188565154D02*
X67641171Y-188994928D01*
X69170424Y-55678371D02*
X68861840Y-55986955D01*
X71872055Y-192871818D02*
X72306798Y-192909853D01*
X70610662Y-192533829D02*
X71020748Y-192683088D01*
X72550000Y-54366531D02*
X72331798Y-54368887D01*
X220345040Y-51546542D02*
G75*
G03*
X218926653Y-48057737I-5000040J-58D01*
G01*
X220325000Y-76110678D02*
X220325000Y-59519742D01*
X215300000Y-192912200D02*
G75*
G03*
X220300000Y-187912209I0J5000000D01*
G01*
X72306798Y-192909853D02*
X72525000Y-192912209D01*
X70240146Y-54929343D02*
X69862209Y-55147545D01*
X72331798Y-54368887D02*
X71897055Y-54406922D01*
X220345000Y-55245000D02*
X220345000Y-56896000D01*
X71442281Y-192796038D02*
X71872055Y-192871818D01*
X123346332Y-54372419D02*
G75*
G03*
X137488466Y-48514556I-82J20000199D01*
G01*
X68836840Y-191291785D02*
X69145424Y-191600369D01*
X71897055Y-54406922D02*
X71467281Y-54482702D01*
X72525000Y-192912209D02*
X195300000Y-192912209D01*
X68331014Y-56678740D02*
X68112812Y-57056677D01*
X67590391Y-58713586D02*
X67552356Y-59148329D01*
X67552356Y-59148329D02*
X67525000Y-187912209D01*
X71045748Y-54595652D02*
X70635662Y-54744911D01*
X68556325Y-190957481D02*
X68836840Y-191291785D01*
X68581325Y-56321259D02*
X68331014Y-56678740D01*
X70635662Y-54744911D02*
X70240146Y-54929343D01*
X70215146Y-192349397D02*
X70610662Y-192533829D01*
X220345000Y-53213711D02*
X220345000Y-51546542D01*
X68306014Y-190600000D02*
X68556325Y-190957481D01*
X69145424Y-191600369D02*
X69479728Y-191880884D01*
X67666171Y-58283812D02*
X67590391Y-58713586D01*
X67779121Y-57862279D02*
X67666171Y-58283812D01*
X220300000Y-187912209D02*
X220325000Y-170100000D01*
X69837209Y-192131195D02*
X70215146Y-192349397D01*
X195300000Y-192912209D02*
X215300000Y-192912209D01*
X166437268Y-19040834D02*
X137488467Y-48514557D01*
X69504728Y-55397856D02*
X69170424Y-55678371D01*
X123346332Y-54372421D02*
X72550000Y-54366531D01*
X67641171Y-188994928D02*
X67754121Y-189416461D01*
X220325000Y-170100000D02*
X220325000Y-76110678D01*
X218926653Y-48057737D02*
X217409298Y-46500000D01*
M02*
