M48
; DRILL file {KiCad 7.0.9-1.fc39} date ti  2. tammikuuta 2024 19.23.30
; FORMAT={-:-/ absolute / metric / decimal}
; #@! TF.CreationDate,2024-01-02T19:23:30+02:00
; #@! TF.GenerationSoftware,Kicad,Pcbnew,7.0.9-1.fc39
; #@! TF.FileFunction,Plated,1,2,PTH
FMAT,2
METRIC
; #@! TA.AperFunction,Plated,PTH,ViaDrill
T1C0.400
; #@! TA.AperFunction,Plated,PTH,ComponentDrill
T2C0.900
; #@! TA.AperFunction,Plated,PTH,ComponentDrill
T3C1.000
; #@! TA.AperFunction,Plated,PTH,ComponentDrill
T4C1.092
; #@! TA.AperFunction,Plated,PTH,ComponentDrill
T5C1.470
%
G90
G05
T1
X158.85Y-57.666
X172.9Y-45.016
X174.719Y-39.581
X178.1Y-47.1
X210.75Y-152.41
T3
X71.403Y-69.1
X71.403Y-76.9
X71.403Y-97.5
X71.403Y-105.3
X73.784Y-154.5
X73.784Y-162.3
X73.784Y-173.7
X73.784Y-181.5
X76.165Y-115.902
X76.165Y-123.702
X78.5Y-135.6
X78.5Y-143.4
X90.5Y-97.6
X90.5Y-105.4
X95.215Y-154.7
X95.215Y-162.5
X97.597Y-173.6
X97.597Y-181.4
X99.978Y-115.902
X99.978Y-123.702
X104.74Y-135.5
X104.74Y-143.3
X109.503Y-97.5
X109.503Y-105.3
X110.296Y-69.1
X110.296Y-76.9
X114.265Y-154.7
X114.265Y-162.5
X119.028Y-116.23
X119.028Y-124.03
X121.409Y-173.6
X121.409Y-181.4
X124.0Y-135.6
X124.0Y-143.4
X128.5Y-69.1
X128.5Y-76.9
X128.553Y-97.6
X128.553Y-105.4
X133.316Y-154.7
X133.316Y-162.5
X138.078Y-116.23
X138.078Y-124.03
X143.0Y-135.6
X143.0Y-143.4
X147.5Y-97.6
X147.5Y-105.4
X147.603Y-69.1
X147.603Y-76.9
X149.225Y-173.6
X149.225Y-181.4
X152.365Y-154.6
X152.365Y-162.4
X157.128Y-116.111
X157.128Y-123.911
X161.89Y-135.6
X161.89Y-143.4
X162.212Y-52.212
X164.008Y-54.008
X165.804Y-55.804
X166.5Y-97.6
X166.5Y-105.4
X166.653Y-69.2
X166.653Y-77.0
X167.6Y-57.6
X171.5Y-154.7
X171.5Y-162.5
X176.971Y-116.298
X176.971Y-124.098
X180.94Y-135.5
X180.94Y-143.3
X185.703Y-97.5
X185.703Y-105.3
X190.5Y-154.7
X190.5Y-162.5
X194.75Y-173.7
X194.75Y-181.5
X195.228Y-116.5
X195.228Y-124.3
X199.99Y-135.6
X199.99Y-143.4
X204.9Y-170.8
X204.9Y-185.3
X207.4Y-185.3
X209.9Y-170.8
X209.9Y-185.3
T4
X162.146Y-46.91
X163.942Y-45.114
X165.738Y-43.318
X167.534Y-41.522
X169.33Y-39.726
X171.126Y-37.93
X172.922Y-36.134
X172.922Y-57.686
X174.719Y-34.338
X174.719Y-55.89
X176.515Y-32.542
X176.515Y-54.094
X178.311Y-30.746
X178.311Y-52.298
X180.107Y-28.95
X180.107Y-50.502
X181.903Y-27.153
X181.903Y-48.706
X183.699Y-46.91
X185.495Y-45.114
X187.291Y-43.318
X189.087Y-41.522
X190.883Y-39.726
X192.679Y-37.93
T5
X77.118Y-69.041
X77.118Y-97.616
X79.499Y-154.767
X79.499Y-173.817
X81.88Y-116.666
X83.468Y-66.501
X83.468Y-95.076
X84.262Y-135.716
X85.849Y-152.227
X85.849Y-171.277
X88.23Y-114.126
X90.612Y-133.176
X96.168Y-97.616
X100.93Y-154.767
X102.518Y-95.076
X103.312Y-173.817
X105.693Y-116.666
X107.28Y-152.227
X109.662Y-171.277
X110.455Y-135.716
X112.043Y-114.126
X115.218Y-69.041
X115.218Y-97.616
X116.805Y-133.176
X119.981Y-154.767
X121.568Y-66.501
X121.568Y-95.076
X124.743Y-116.666
X126.331Y-152.227
X127.124Y-173.817
X129.506Y-135.716
X131.093Y-114.126
X133.474Y-171.277
X134.268Y-69.041
X134.268Y-97.616
X135.856Y-133.176
X139.031Y-154.767
X140.618Y-66.501
X140.618Y-95.076
X143.793Y-116.666
X145.381Y-152.227
X148.556Y-135.716
X150.143Y-114.126
X153.318Y-97.616
X153.318Y-69.041
X154.906Y-133.176
X158.08Y-154.766
X159.668Y-95.076
X159.668Y-66.501
X162.843Y-116.666
X164.43Y-152.226
X165.224Y-173.816
X167.605Y-135.716
X169.193Y-114.126
X171.574Y-171.276
X172.368Y-69.041
X172.368Y-97.616
X173.955Y-133.176
X177.13Y-154.766
X178.718Y-66.501
X178.718Y-95.076
X181.893Y-116.666
X183.48Y-152.226
X186.655Y-135.716
X188.243Y-114.126
X191.418Y-97.616
X193.005Y-133.176
X196.18Y-154.766
X197.768Y-95.076
X200.943Y-116.666
X202.53Y-152.226
X205.705Y-135.716
X207.293Y-114.126
X212.055Y-133.176
T2
X197.411Y-45.333G85X197.128Y-45.616
G05
X201.442Y-47.808G85X201.159Y-48.091
G05
X204.27Y-44.98G85X203.987Y-45.263
G05
X206.391Y-42.859G85X206.109Y-43.141
G05
T0
M30
