%TF.GenerationSoftware,KiCad,Pcbnew,7.0.9-1.fc39*%
%TF.CreationDate,2024-01-02T19:24:07+02:00*%
%TF.ProjectId,SplitHsideLeft3,53706c69-7448-4736-9964-654c65667433,rev?*%
%TF.SameCoordinates,Original*%
%TF.FileFunction,Drillmap*%
%TF.FilePolarity,Positive*%
%FSLAX45Y45*%
G04 Gerber Fmt 4.5, Leading zero omitted, Abs format (unit mm)*
G04 Created by KiCad (PCBNEW 7.0.9-1.fc39) date 2024-01-02 19:24:07*
%MOMM*%
%LPD*%
G01*
G04 APERTURE LIST*
%ADD10C,0.100000*%
%ADD11C,0.050000*%
%ADD12C,0.200000*%
%ADD13C,0.109220*%
%ADD14C,0.147000*%
G04 APERTURE END LIST*
D10*
X7102075Y-19268309D02*
X7144228Y-19279604D01*
X7146728Y-5448270D02*
X7104575Y-5459565D01*
X6808781Y-19022206D02*
X6830601Y-19060000D01*
X6792838Y-5745219D02*
X6777912Y-5786228D01*
X6947973Y-19188088D02*
X6983721Y-19213120D01*
X6752736Y-18813041D02*
X6756539Y-18856515D01*
X6811281Y-5705668D02*
X6792838Y-5745219D01*
X6790338Y-18982655D02*
X6808781Y-19022206D01*
X22034500Y-5689600D02*
X22032500Y-5951974D01*
X6775412Y-18941646D02*
X6790338Y-18982655D01*
D11*
X18906468Y-1904083D02*
G75*
G03*
X16643727Y-1904083I-1131371J-1131371D01*
G01*
D10*
X22034500Y-5524500D02*
X22034500Y-5321371D01*
X6886184Y-5598695D02*
X6858132Y-5632126D01*
X6752500Y-18791221D02*
X6752736Y-18813041D01*
X6986221Y-5514755D02*
X6950473Y-5539786D01*
X18906468Y-1904083D02*
X21740930Y-4650000D01*
X6756539Y-18856515D02*
X6764117Y-18899493D01*
X6917042Y-5567837D02*
X6886184Y-5598695D01*
X7187205Y-19287182D02*
X7230680Y-19290985D01*
X7061066Y-19253383D02*
X7102075Y-19268309D01*
X7255000Y-5436653D02*
X7233180Y-5436889D01*
X22034504Y-5154654D02*
G75*
G03*
X21892665Y-4805774I-500004J-6D01*
G01*
X22032500Y-7611068D02*
X22032500Y-5951974D01*
X21530000Y-19291220D02*
G75*
G03*
X22030000Y-18791221I0J500000D01*
G01*
X7230680Y-19290985D02*
X7252500Y-19291221D01*
X7024015Y-5492934D02*
X6986221Y-5514755D01*
X7233180Y-5436889D02*
X7189705Y-5440692D01*
X22034500Y-5524500D02*
X22034500Y-5689600D01*
X7144228Y-19279604D02*
X7187205Y-19287182D01*
X12334633Y-5437242D02*
G75*
G03*
X13748847Y-4851456I-8J2000020D01*
G01*
X6883684Y-19129179D02*
X6914542Y-19160037D01*
X7189705Y-5440692D02*
X7146728Y-5448270D01*
X7252500Y-19291221D02*
X19530000Y-19291221D01*
X6833101Y-5667874D02*
X6811281Y-5705668D01*
X6759039Y-5871359D02*
X6755236Y-5914833D01*
X6755236Y-5914833D02*
X6752500Y-18791221D01*
X7104575Y-5459565D02*
X7063566Y-5474491D01*
X6855632Y-19095748D02*
X6883684Y-19129179D01*
X6858132Y-5632126D02*
X6833101Y-5667874D01*
X7063566Y-5474491D02*
X7024015Y-5492934D01*
X7021515Y-19234940D02*
X7061066Y-19253383D01*
X22034500Y-5321371D02*
X22034500Y-5154654D01*
X6830601Y-19060000D02*
X6855632Y-19095748D01*
X6914542Y-19160037D02*
X6947973Y-19188088D01*
X6766617Y-5828381D02*
X6759039Y-5871359D01*
X6777912Y-5786228D02*
X6766617Y-5828381D01*
X22030000Y-18791221D02*
X22032500Y-17010000D01*
X6983721Y-19213120D02*
X7021515Y-19234940D01*
X19530000Y-19291221D02*
X21530000Y-19291221D01*
X16643727Y-1904083D02*
X13748847Y-4851456D01*
X6950473Y-5539786D02*
X6917042Y-5567837D01*
X12334633Y-5437242D02*
X7255000Y-5436653D01*
X6764117Y-18899493D02*
X6775412Y-18941646D01*
X22032500Y-17010000D02*
X22032500Y-7611068D01*
X21892665Y-4805774D02*
X21740930Y-4650000D01*
D12*
D10*
X15864950Y-5746595D02*
X15904950Y-5786595D01*
X15904950Y-5746595D02*
X15864950Y-5786595D01*
X17270000Y-4481579D02*
X17310000Y-4521579D01*
X17310000Y-4481579D02*
X17270000Y-4521579D01*
X17451851Y-3938149D02*
X17491851Y-3978149D01*
X17491851Y-3938149D02*
X17451851Y-3978149D01*
X17790000Y-4690000D02*
X17830000Y-4730000D01*
X17830000Y-4690000D02*
X17790000Y-4730000D01*
X21055000Y-15220970D02*
X21095000Y-15260970D01*
X21095000Y-15220970D02*
X21055000Y-15260970D01*
X19771974Y-4547487D02*
G75*
G03*
X19771974Y-4547487I-45000J0D01*
G01*
X19709297Y-4501526D02*
X19681013Y-4529810D01*
X19681013Y-4529810D02*
G75*
G03*
X19744652Y-4593449I31820J-31820D01*
G01*
X19744652Y-4593449D02*
X19772936Y-4565165D01*
X19772936Y-4565165D02*
G75*
G03*
X19709297Y-4501526I-31820J31820D01*
G01*
X20175025Y-4794975D02*
G75*
G03*
X20175025Y-4794975I-45000J0D01*
G01*
X20112348Y-4749013D02*
X20084063Y-4777297D01*
X20084063Y-4777297D02*
G75*
G03*
X20147703Y-4840937I31820J-31820D01*
G01*
X20147703Y-4840937D02*
X20175987Y-4812653D01*
X20175987Y-4812653D02*
G75*
G03*
X20112348Y-4749013I-31820J31820D01*
G01*
X20457868Y-4512132D02*
G75*
G03*
X20457868Y-4512132I-45000J0D01*
G01*
X20395190Y-4466170D02*
X20366906Y-4494454D01*
X20366906Y-4494454D02*
G75*
G03*
X20430546Y-4558094I31820J-31820D01*
G01*
X20430546Y-4558094D02*
X20458830Y-4529810D01*
X20458830Y-4529810D02*
G75*
G03*
X20395190Y-4466170I-31820J31820D01*
G01*
X20670000Y-4300000D02*
G75*
G03*
X20670000Y-4300000I-45000J0D01*
G01*
X20607322Y-4254038D02*
X20579038Y-4282322D01*
X20579038Y-4282322D02*
G75*
G03*
X20642678Y-4345962I31820J-31820D01*
G01*
X20642678Y-4345962D02*
X20670962Y-4317678D01*
X20670962Y-4317678D02*
G75*
G03*
X20607322Y-4254038I-31820J31820D01*
G01*
X7140279Y-6860000D02*
X7140279Y-6960000D01*
X7090279Y-6910000D02*
X7190279Y-6910000D01*
X7140279Y-7640000D02*
X7140279Y-7740000D01*
X7090279Y-7690000D02*
X7190279Y-7690000D01*
X7140279Y-9700000D02*
X7140279Y-9800000D01*
X7090279Y-9750000D02*
X7190279Y-9750000D01*
X7140279Y-10480000D02*
X7140279Y-10580000D01*
X7090279Y-10530000D02*
X7190279Y-10530000D01*
X7378405Y-15400000D02*
X7378405Y-15500000D01*
X7328405Y-15450000D02*
X7428405Y-15450000D01*
X7378405Y-16180000D02*
X7378405Y-16280000D01*
X7328405Y-16230000D02*
X7428405Y-16230000D01*
X7378405Y-17320000D02*
X7378405Y-17420000D01*
X7328405Y-17370000D02*
X7428405Y-17370000D01*
X7378405Y-18100000D02*
X7378405Y-18200000D01*
X7328405Y-18150000D02*
X7428405Y-18150000D01*
X7616531Y-11540175D02*
X7616531Y-11640175D01*
X7566531Y-11590175D02*
X7666531Y-11590175D01*
X7616531Y-12320175D02*
X7616531Y-12420175D01*
X7566531Y-12370175D02*
X7666531Y-12370175D01*
X7850000Y-13510000D02*
X7850000Y-13610000D01*
X7800000Y-13560000D02*
X7900000Y-13560000D01*
X7850000Y-14290000D02*
X7850000Y-14390000D01*
X7800000Y-14340000D02*
X7900000Y-14340000D01*
X9050000Y-9710000D02*
X9050000Y-9810000D01*
X9000000Y-9760000D02*
X9100000Y-9760000D01*
X9050000Y-10490000D02*
X9050000Y-10590000D01*
X9000000Y-10540000D02*
X9100000Y-10540000D01*
X9521539Y-15420000D02*
X9521539Y-15520000D01*
X9471539Y-15470000D02*
X9571539Y-15470000D01*
X9521539Y-16200000D02*
X9521539Y-16300000D01*
X9471539Y-16250000D02*
X9571539Y-16250000D01*
X9759665Y-17310000D02*
X9759665Y-17410000D01*
X9709665Y-17360000D02*
X9809665Y-17360000D01*
X9759665Y-18090000D02*
X9759665Y-18190000D01*
X9709665Y-18140000D02*
X9809665Y-18140000D01*
X9997791Y-11540175D02*
X9997791Y-11640175D01*
X9947791Y-11590175D02*
X10047791Y-11590175D01*
X9997791Y-12320175D02*
X9997791Y-12420175D01*
X9947791Y-12370175D02*
X10047791Y-12370175D01*
X10474043Y-13500000D02*
X10474043Y-13600000D01*
X10424043Y-13550000D02*
X10524043Y-13550000D01*
X10474043Y-14280000D02*
X10474043Y-14380000D01*
X10424043Y-14330000D02*
X10524043Y-14330000D01*
X10950295Y-9700000D02*
X10950295Y-9800000D01*
X10900295Y-9750000D02*
X11000295Y-9750000D01*
X10950295Y-10480000D02*
X10950295Y-10580000D01*
X10900295Y-10530000D02*
X11000295Y-10530000D01*
X11029646Y-6860000D02*
X11029646Y-6960000D01*
X10979646Y-6910000D02*
X11079646Y-6910000D01*
X11029646Y-7640000D02*
X11029646Y-7740000D01*
X10979646Y-7690000D02*
X11079646Y-7690000D01*
X11426547Y-15420000D02*
X11426547Y-15520000D01*
X11376547Y-15470000D02*
X11476547Y-15470000D01*
X11426547Y-16200000D02*
X11426547Y-16300000D01*
X11376547Y-16250000D02*
X11476547Y-16250000D01*
X11902799Y-11572986D02*
X11902799Y-11672986D01*
X11852799Y-11622986D02*
X11952799Y-11622986D01*
X11902799Y-12352986D02*
X11902799Y-12452986D01*
X11852799Y-12402986D02*
X11952799Y-12402986D01*
X12140925Y-17310000D02*
X12140925Y-17410000D01*
X12090925Y-17360000D02*
X12190925Y-17360000D01*
X12140925Y-18090000D02*
X12140925Y-18190000D01*
X12090925Y-18140000D02*
X12190925Y-18140000D01*
X12400000Y-13510000D02*
X12400000Y-13610000D01*
X12350000Y-13560000D02*
X12450000Y-13560000D01*
X12400000Y-14290000D02*
X12400000Y-14390000D01*
X12350000Y-14340000D02*
X12450000Y-14340000D01*
X12850000Y-6860000D02*
X12850000Y-6960000D01*
X12800000Y-6910000D02*
X12900000Y-6910000D01*
X12850000Y-7640000D02*
X12850000Y-7740000D01*
X12800000Y-7690000D02*
X12900000Y-7690000D01*
X12855303Y-9710000D02*
X12855303Y-9810000D01*
X12805303Y-9760000D02*
X12905303Y-9760000D01*
X12855303Y-10490000D02*
X12855303Y-10590000D01*
X12805303Y-10540000D02*
X12905303Y-10540000D01*
X13331555Y-15420000D02*
X13331555Y-15520000D01*
X13281555Y-15470000D02*
X13381555Y-15470000D01*
X13331555Y-16200000D02*
X13331555Y-16300000D01*
X13281555Y-16250000D02*
X13381555Y-16250000D01*
X13807807Y-11572986D02*
X13807807Y-11672986D01*
X13757807Y-11622986D02*
X13857807Y-11622986D01*
X13807807Y-12352986D02*
X13807807Y-12452986D01*
X13757807Y-12402986D02*
X13857807Y-12402986D01*
X14300000Y-13510000D02*
X14300000Y-13610000D01*
X14250000Y-13560000D02*
X14350000Y-13560000D01*
X14300000Y-14290000D02*
X14300000Y-14390000D01*
X14250000Y-14340000D02*
X14350000Y-14340000D01*
X14750000Y-9710000D02*
X14750000Y-9810000D01*
X14700000Y-9760000D02*
X14800000Y-9760000D01*
X14750000Y-10490000D02*
X14750000Y-10590000D01*
X14700000Y-10540000D02*
X14800000Y-10540000D01*
X14760271Y-6860000D02*
X14760271Y-6960000D01*
X14710271Y-6910000D02*
X14810271Y-6910000D01*
X14760271Y-7640000D02*
X14760271Y-7740000D01*
X14710271Y-7690000D02*
X14810271Y-7690000D01*
X14922500Y-17310000D02*
X14922500Y-17410000D01*
X14872500Y-17360000D02*
X14972500Y-17360000D01*
X14922500Y-18090000D02*
X14922500Y-18190000D01*
X14872500Y-18140000D02*
X14972500Y-18140000D01*
X15236521Y-15410000D02*
X15236521Y-15510000D01*
X15186521Y-15460000D02*
X15286521Y-15460000D01*
X15236521Y-16190000D02*
X15236521Y-16290000D01*
X15186521Y-16240000D02*
X15286521Y-16240000D01*
X15712771Y-11561080D02*
X15712771Y-11661080D01*
X15662771Y-11611080D02*
X15762771Y-11611080D01*
X15712771Y-12341080D02*
X15712771Y-12441080D01*
X15662771Y-12391080D02*
X15762771Y-12391080D01*
X16189021Y-13510000D02*
X16189021Y-13610000D01*
X16139021Y-13560000D02*
X16239021Y-13560000D01*
X16189021Y-14290000D02*
X16189021Y-14390000D01*
X16139021Y-14340000D02*
X16239021Y-14340000D01*
X16221185Y-5171185D02*
X16221185Y-5271185D01*
X16171185Y-5221185D02*
X16271185Y-5221185D01*
X16400790Y-5350790D02*
X16400790Y-5450790D01*
X16350790Y-5400790D02*
X16450790Y-5400790D01*
X16580395Y-5530395D02*
X16580395Y-5630395D01*
X16530395Y-5580395D02*
X16630395Y-5580395D01*
X16650000Y-9710000D02*
X16650000Y-9810000D01*
X16600000Y-9760000D02*
X16700000Y-9760000D01*
X16650000Y-10490000D02*
X16650000Y-10590000D01*
X16600000Y-10540000D02*
X16700000Y-10540000D01*
X16665271Y-6870000D02*
X16665271Y-6970000D01*
X16615271Y-6920000D02*
X16715271Y-6920000D01*
X16665271Y-7650000D02*
X16665271Y-7750000D01*
X16615271Y-7700000D02*
X16715271Y-7700000D01*
X16760000Y-5710000D02*
X16760000Y-5810000D01*
X16710000Y-5760000D02*
X16810000Y-5760000D01*
X17150000Y-15420000D02*
X17150000Y-15520000D01*
X17100000Y-15470000D02*
X17200000Y-15470000D01*
X17150000Y-16200000D02*
X17150000Y-16300000D01*
X17100000Y-16250000D02*
X17200000Y-16250000D01*
X17697146Y-11579830D02*
X17697146Y-11679830D01*
X17647146Y-11629830D02*
X17747146Y-11629830D01*
X17697146Y-12359830D02*
X17697146Y-12459830D01*
X17647146Y-12409830D02*
X17747146Y-12409830D01*
X18094021Y-13500000D02*
X18094021Y-13600000D01*
X18044021Y-13550000D02*
X18144021Y-13550000D01*
X18094021Y-14280000D02*
X18094021Y-14380000D01*
X18044021Y-14330000D02*
X18144021Y-14330000D01*
X18570271Y-9700000D02*
X18570271Y-9800000D01*
X18520271Y-9750000D02*
X18620271Y-9750000D01*
X18570271Y-10480000D02*
X18570271Y-10580000D01*
X18520271Y-10530000D02*
X18620271Y-10530000D01*
X19050000Y-15420000D02*
X19050000Y-15520000D01*
X19000000Y-15470000D02*
X19100000Y-15470000D01*
X19050000Y-16200000D02*
X19050000Y-16300000D01*
X19000000Y-16250000D02*
X19100000Y-16250000D01*
X19475000Y-17320000D02*
X19475000Y-17420000D01*
X19425000Y-17370000D02*
X19525000Y-17370000D01*
X19475000Y-18100000D02*
X19475000Y-18200000D01*
X19425000Y-18150000D02*
X19525000Y-18150000D01*
X19522771Y-11600000D02*
X19522771Y-11700000D01*
X19472771Y-11650000D02*
X19572771Y-11650000D01*
X19522771Y-12380000D02*
X19522771Y-12480000D01*
X19472771Y-12430000D02*
X19572771Y-12430000D01*
X19999021Y-13510000D02*
X19999021Y-13610000D01*
X19949021Y-13560000D02*
X20049021Y-13560000D01*
X19999021Y-14290000D02*
X19999021Y-14390000D01*
X19949021Y-14340000D02*
X20049021Y-14340000D01*
X20490000Y-17030000D02*
X20490000Y-17130000D01*
X20440000Y-17080000D02*
X20540000Y-17080000D01*
X20490000Y-18480000D02*
X20490000Y-18580000D01*
X20440000Y-18530000D02*
X20540000Y-18530000D01*
X20740000Y-18480000D02*
X20740000Y-18580000D01*
X20690000Y-18530000D02*
X20790000Y-18530000D01*
X20990000Y-17030000D02*
X20990000Y-17130000D01*
X20940000Y-17080000D02*
X21040000Y-17080000D01*
X20990000Y-18480000D02*
X20990000Y-18580000D01*
X20940000Y-18530000D02*
X21040000Y-18530000D01*
D13*
X16253230Y-4729620D02*
X16253230Y-4652389D01*
X16175999Y-4652389D01*
X16175999Y-4729620D01*
X16253230Y-4729620D01*
X16432835Y-4550015D02*
X16432835Y-4472784D01*
X16355604Y-4472784D01*
X16355604Y-4550015D01*
X16432835Y-4550015D01*
X16612440Y-4370410D02*
X16612440Y-4293179D01*
X16535209Y-4293179D01*
X16535209Y-4370410D01*
X16612440Y-4370410D01*
X16792046Y-4190805D02*
X16792046Y-4113574D01*
X16714814Y-4113574D01*
X16714814Y-4190805D01*
X16792046Y-4190805D01*
X16971651Y-4011200D02*
X16971651Y-3933969D01*
X16894420Y-3933969D01*
X16894420Y-4011200D01*
X16971651Y-4011200D01*
X17151256Y-3831595D02*
X17151256Y-3754364D01*
X17074025Y-3754364D01*
X17074025Y-3831595D01*
X17151256Y-3831595D01*
X17330861Y-3651990D02*
X17330861Y-3574759D01*
X17253630Y-3574759D01*
X17253630Y-3651990D01*
X17330861Y-3651990D01*
X17330861Y-5807251D02*
X17330861Y-5730020D01*
X17253630Y-5730020D01*
X17253630Y-5807251D01*
X17330861Y-5807251D01*
X17510466Y-3472384D02*
X17510466Y-3395153D01*
X17433235Y-3395153D01*
X17433235Y-3472384D01*
X17510466Y-3472384D01*
X17510466Y-5627646D02*
X17510466Y-5550415D01*
X17433235Y-5550415D01*
X17433235Y-5627646D01*
X17510466Y-5627646D01*
X17690071Y-3292779D02*
X17690071Y-3215548D01*
X17612840Y-3215548D01*
X17612840Y-3292779D01*
X17690071Y-3292779D01*
X17690071Y-5448041D02*
X17690071Y-5370810D01*
X17612840Y-5370810D01*
X17612840Y-5448041D01*
X17690071Y-5448041D01*
X17869676Y-3113174D02*
X17869676Y-3035943D01*
X17792445Y-3035943D01*
X17792445Y-3113174D01*
X17869676Y-3113174D01*
X17869676Y-5268436D02*
X17869676Y-5191205D01*
X17792445Y-5191205D01*
X17792445Y-5268436D01*
X17869676Y-5268436D01*
X18049281Y-2933569D02*
X18049281Y-2856338D01*
X17972050Y-2856338D01*
X17972050Y-2933569D01*
X18049281Y-2933569D01*
X18049281Y-5088831D02*
X18049281Y-5011600D01*
X17972050Y-5011600D01*
X17972050Y-5088831D01*
X18049281Y-5088831D01*
X18228887Y-2753964D02*
X18228887Y-2676733D01*
X18151656Y-2676733D01*
X18151656Y-2753964D01*
X18228887Y-2753964D01*
X18228887Y-4909225D02*
X18228887Y-4831994D01*
X18151656Y-4831994D01*
X18151656Y-4909225D01*
X18228887Y-4909225D01*
X18408492Y-4729620D02*
X18408492Y-4652389D01*
X18331261Y-4652389D01*
X18331261Y-4729620D01*
X18408492Y-4729620D01*
X18588097Y-4550015D02*
X18588097Y-4472784D01*
X18510866Y-4472784D01*
X18510866Y-4550015D01*
X18588097Y-4550015D01*
X18767702Y-4370410D02*
X18767702Y-4293179D01*
X18690471Y-4293179D01*
X18690471Y-4370410D01*
X18767702Y-4370410D01*
X18947307Y-4190805D02*
X18947307Y-4113574D01*
X18870076Y-4113574D01*
X18870076Y-4190805D01*
X18947307Y-4190805D01*
X19126912Y-4011200D02*
X19126912Y-3933969D01*
X19049681Y-3933969D01*
X19049681Y-4011200D01*
X19126912Y-4011200D01*
X19306517Y-3831595D02*
X19306517Y-3754364D01*
X19229286Y-3754364D01*
X19229286Y-3831595D01*
X19306517Y-3831595D01*
D14*
X7711783Y-6977622D02*
X7785283Y-6904122D01*
X7711783Y-6830622D01*
X7638283Y-6904122D01*
X7711783Y-6977622D01*
X7711783Y-9835134D02*
X7785283Y-9761634D01*
X7711783Y-9688134D01*
X7638283Y-9761634D01*
X7711783Y-9835134D01*
X7949909Y-15550158D02*
X8023409Y-15476658D01*
X7949909Y-15403158D01*
X7876409Y-15476658D01*
X7949909Y-15550158D01*
X7949909Y-17455166D02*
X8023409Y-17381666D01*
X7949909Y-17308166D01*
X7876409Y-17381666D01*
X7949909Y-17455166D01*
X8188035Y-11740142D02*
X8261535Y-11666642D01*
X8188035Y-11593142D01*
X8114535Y-11666642D01*
X8188035Y-11740142D01*
X8346783Y-6723622D02*
X8420283Y-6650122D01*
X8346783Y-6576622D01*
X8273283Y-6650122D01*
X8346783Y-6723622D01*
X8346783Y-9581134D02*
X8420283Y-9507634D01*
X8346783Y-9434134D01*
X8273283Y-9507634D01*
X8346783Y-9581134D01*
X8426161Y-13645150D02*
X8499661Y-13571650D01*
X8426161Y-13498150D01*
X8352661Y-13571650D01*
X8426161Y-13645150D01*
X8584909Y-15296158D02*
X8658409Y-15222658D01*
X8584909Y-15149158D01*
X8511409Y-15222658D01*
X8584909Y-15296158D01*
X8584909Y-17201166D02*
X8658409Y-17127666D01*
X8584909Y-17054166D01*
X8511409Y-17127666D01*
X8584909Y-17201166D01*
X8823035Y-11486142D02*
X8896535Y-11412642D01*
X8823035Y-11339142D01*
X8749535Y-11412642D01*
X8823035Y-11486142D01*
X9061161Y-13391150D02*
X9134661Y-13317650D01*
X9061161Y-13244150D01*
X8987661Y-13317650D01*
X9061161Y-13391150D01*
X9616791Y-9835134D02*
X9690291Y-9761634D01*
X9616791Y-9688134D01*
X9543291Y-9761634D01*
X9616791Y-9835134D01*
X10093043Y-15550158D02*
X10166543Y-15476658D01*
X10093043Y-15403158D01*
X10019543Y-15476658D01*
X10093043Y-15550158D01*
X10251791Y-9581134D02*
X10325291Y-9507634D01*
X10251791Y-9434134D01*
X10178291Y-9507634D01*
X10251791Y-9581134D01*
X10331169Y-17455166D02*
X10404669Y-17381666D01*
X10331169Y-17308166D01*
X10257669Y-17381666D01*
X10331169Y-17455166D01*
X10569295Y-11740142D02*
X10642795Y-11666642D01*
X10569295Y-11593142D01*
X10495795Y-11666642D01*
X10569295Y-11740142D01*
X10728043Y-15296158D02*
X10801543Y-15222658D01*
X10728043Y-15149158D01*
X10654543Y-15222658D01*
X10728043Y-15296158D01*
X10966169Y-17201166D02*
X11039669Y-17127666D01*
X10966169Y-17054166D01*
X10892669Y-17127666D01*
X10966169Y-17201166D01*
X11045547Y-13645150D02*
X11119047Y-13571650D01*
X11045547Y-13498150D01*
X10972047Y-13571650D01*
X11045547Y-13645150D01*
X11204295Y-11486142D02*
X11277795Y-11412642D01*
X11204295Y-11339142D01*
X11130795Y-11412642D01*
X11204295Y-11486142D01*
X11521771Y-6977610D02*
X11595271Y-6904110D01*
X11521771Y-6830610D01*
X11448271Y-6904110D01*
X11521771Y-6977610D01*
X11521799Y-9835134D02*
X11595299Y-9761634D01*
X11521799Y-9688134D01*
X11448299Y-9761634D01*
X11521799Y-9835134D01*
X11680547Y-13391150D02*
X11754047Y-13317650D01*
X11680547Y-13244150D01*
X11607047Y-13317650D01*
X11680547Y-13391150D01*
X11998051Y-15550158D02*
X12071551Y-15476658D01*
X11998051Y-15403158D01*
X11924551Y-15476658D01*
X11998051Y-15550158D01*
X12156771Y-6723610D02*
X12230271Y-6650110D01*
X12156771Y-6576610D01*
X12083271Y-6650110D01*
X12156771Y-6723610D01*
X12156799Y-9581134D02*
X12230299Y-9507634D01*
X12156799Y-9434134D01*
X12083299Y-9507634D01*
X12156799Y-9581134D01*
X12474303Y-11740142D02*
X12547803Y-11666642D01*
X12474303Y-11593142D01*
X12400803Y-11666642D01*
X12474303Y-11740142D01*
X12633051Y-15296158D02*
X12706551Y-15222658D01*
X12633051Y-15149158D01*
X12559551Y-15222658D01*
X12633051Y-15296158D01*
X12712429Y-17455166D02*
X12785929Y-17381666D01*
X12712429Y-17308166D01*
X12638929Y-17381666D01*
X12712429Y-17455166D01*
X12950555Y-13645150D02*
X13024055Y-13571650D01*
X12950555Y-13498150D01*
X12877055Y-13571650D01*
X12950555Y-13645150D01*
X13109303Y-11486142D02*
X13182803Y-11412642D01*
X13109303Y-11339142D01*
X13035803Y-11412642D01*
X13109303Y-11486142D01*
X13347429Y-17201166D02*
X13420929Y-17127666D01*
X13347429Y-17054166D01*
X13273929Y-17127666D01*
X13347429Y-17201166D01*
X13426771Y-6977622D02*
X13500271Y-6904122D01*
X13426771Y-6830622D01*
X13353271Y-6904122D01*
X13426771Y-6977622D01*
X13426807Y-9835134D02*
X13500307Y-9761634D01*
X13426807Y-9688134D01*
X13353307Y-9761634D01*
X13426807Y-9835134D01*
X13585555Y-13391150D02*
X13659055Y-13317650D01*
X13585555Y-13244150D01*
X13512055Y-13317650D01*
X13585555Y-13391150D01*
X13903059Y-15550158D02*
X13976559Y-15476658D01*
X13903059Y-15403158D01*
X13829559Y-15476658D01*
X13903059Y-15550158D01*
X14061771Y-6723622D02*
X14135271Y-6650122D01*
X14061771Y-6576622D01*
X13988271Y-6650122D01*
X14061771Y-6723622D01*
X14061807Y-9581134D02*
X14135307Y-9507634D01*
X14061807Y-9434134D01*
X13988307Y-9507634D01*
X14061807Y-9581134D01*
X14379311Y-11740142D02*
X14452811Y-11666642D01*
X14379311Y-11593142D01*
X14305811Y-11666642D01*
X14379311Y-11740142D01*
X14538059Y-15296158D02*
X14611559Y-15222658D01*
X14538059Y-15149158D01*
X14464559Y-15222658D01*
X14538059Y-15296158D01*
X14855563Y-13645150D02*
X14929063Y-13571650D01*
X14855563Y-13498150D01*
X14782063Y-13571650D01*
X14855563Y-13645150D01*
X15014311Y-11486142D02*
X15087811Y-11412642D01*
X15014311Y-11339142D01*
X14940811Y-11412642D01*
X15014311Y-11486142D01*
X15331771Y-9835110D02*
X15405271Y-9761610D01*
X15331771Y-9688110D01*
X15258271Y-9761610D01*
X15331771Y-9835110D01*
X15331807Y-6977622D02*
X15405307Y-6904122D01*
X15331807Y-6830622D01*
X15258307Y-6904122D01*
X15331807Y-6977622D01*
X15490563Y-13391150D02*
X15564063Y-13317650D01*
X15490563Y-13244150D01*
X15417063Y-13317650D01*
X15490563Y-13391150D01*
X15808021Y-15550110D02*
X15881521Y-15476610D01*
X15808021Y-15403110D01*
X15734521Y-15476610D01*
X15808021Y-15550110D01*
X15966771Y-9581110D02*
X16040271Y-9507610D01*
X15966771Y-9434110D01*
X15893271Y-9507610D01*
X15966771Y-9581110D01*
X15966807Y-6723622D02*
X16040307Y-6650122D01*
X15966807Y-6576622D01*
X15893307Y-6650122D01*
X15966807Y-6723622D01*
X16284271Y-11740110D02*
X16357771Y-11666610D01*
X16284271Y-11593110D01*
X16210771Y-11666610D01*
X16284271Y-11740110D01*
X16443021Y-15296110D02*
X16516521Y-15222610D01*
X16443021Y-15149110D01*
X16369521Y-15222610D01*
X16443021Y-15296110D01*
X16522396Y-17455110D02*
X16595896Y-17381610D01*
X16522396Y-17308110D01*
X16448896Y-17381610D01*
X16522396Y-17455110D01*
X16760521Y-13645110D02*
X16834021Y-13571610D01*
X16760521Y-13498110D01*
X16687021Y-13571610D01*
X16760521Y-13645110D01*
X16919271Y-11486110D02*
X16992771Y-11412610D01*
X16919271Y-11339110D01*
X16845771Y-11412610D01*
X16919271Y-11486110D01*
X17157396Y-17201110D02*
X17230896Y-17127610D01*
X17157396Y-17054110D01*
X17083896Y-17127610D01*
X17157396Y-17201110D01*
X17236771Y-6977622D02*
X17310271Y-6904122D01*
X17236771Y-6830622D01*
X17163271Y-6904122D01*
X17236771Y-6977622D01*
X17236771Y-9835110D02*
X17310271Y-9761610D01*
X17236771Y-9688110D01*
X17163271Y-9761610D01*
X17236771Y-9835110D01*
X17395521Y-13391110D02*
X17469021Y-13317610D01*
X17395521Y-13244110D01*
X17322021Y-13317610D01*
X17395521Y-13391110D01*
X17713021Y-15550110D02*
X17786521Y-15476610D01*
X17713021Y-15403110D01*
X17639521Y-15476610D01*
X17713021Y-15550110D01*
X17871771Y-6723622D02*
X17945271Y-6650122D01*
X17871771Y-6576622D01*
X17798271Y-6650122D01*
X17871771Y-6723622D01*
X17871771Y-9581110D02*
X17945271Y-9507610D01*
X17871771Y-9434110D01*
X17798271Y-9507610D01*
X17871771Y-9581110D01*
X18189271Y-11740110D02*
X18262771Y-11666610D01*
X18189271Y-11593110D01*
X18115771Y-11666610D01*
X18189271Y-11740110D01*
X18348021Y-15296110D02*
X18421521Y-15222610D01*
X18348021Y-15149110D01*
X18274521Y-15222610D01*
X18348021Y-15296110D01*
X18665521Y-13645110D02*
X18739021Y-13571610D01*
X18665521Y-13498110D01*
X18592021Y-13571610D01*
X18665521Y-13645110D01*
X18824271Y-11486110D02*
X18897771Y-11412610D01*
X18824271Y-11339110D01*
X18750771Y-11412610D01*
X18824271Y-11486110D01*
X19141771Y-9835110D02*
X19215271Y-9761610D01*
X19141771Y-9688110D01*
X19068271Y-9761610D01*
X19141771Y-9835110D01*
X19300521Y-13391110D02*
X19374021Y-13317610D01*
X19300521Y-13244110D01*
X19227021Y-13317610D01*
X19300521Y-13391110D01*
X19618021Y-15550110D02*
X19691521Y-15476610D01*
X19618021Y-15403110D01*
X19544521Y-15476610D01*
X19618021Y-15550110D01*
X19776771Y-9581110D02*
X19850271Y-9507610D01*
X19776771Y-9434110D01*
X19703271Y-9507610D01*
X19776771Y-9581110D01*
X20094271Y-11740110D02*
X20167771Y-11666610D01*
X20094271Y-11593110D01*
X20020771Y-11666610D01*
X20094271Y-11740110D01*
X20253021Y-15296110D02*
X20326521Y-15222610D01*
X20253021Y-15149110D01*
X20179521Y-15222610D01*
X20253021Y-15296110D01*
X20570521Y-13645110D02*
X20644021Y-13571610D01*
X20570521Y-13498110D01*
X20497021Y-13571610D01*
X20570521Y-13645110D01*
X20729271Y-11486110D02*
X20802771Y-11412610D01*
X20729271Y-11339110D01*
X20655771Y-11412610D01*
X20729271Y-11486110D01*
X21205521Y-13391110D02*
X21279021Y-13317610D01*
X21205521Y-13244110D01*
X21132021Y-13317610D01*
X21205521Y-13391110D01*
D12*
X7008277Y-19607705D02*
X7008277Y-19407705D01*
X7008277Y-19407705D02*
X7055896Y-19407705D01*
X7055896Y-19407705D02*
X7084467Y-19417229D01*
X7084467Y-19417229D02*
X7103515Y-19436276D01*
X7103515Y-19436276D02*
X7113039Y-19455324D01*
X7113039Y-19455324D02*
X7122562Y-19493419D01*
X7122562Y-19493419D02*
X7122562Y-19521990D01*
X7122562Y-19521990D02*
X7113039Y-19560086D01*
X7113039Y-19560086D02*
X7103515Y-19579133D01*
X7103515Y-19579133D02*
X7084467Y-19598181D01*
X7084467Y-19598181D02*
X7055896Y-19607705D01*
X7055896Y-19607705D02*
X7008277Y-19607705D01*
X7208277Y-19607705D02*
X7208277Y-19474371D01*
X7208277Y-19512467D02*
X7217801Y-19493419D01*
X7217801Y-19493419D02*
X7227324Y-19483895D01*
X7227324Y-19483895D02*
X7246372Y-19474371D01*
X7246372Y-19474371D02*
X7265420Y-19474371D01*
X7332086Y-19607705D02*
X7332086Y-19474371D01*
X7332086Y-19407705D02*
X7322562Y-19417229D01*
X7322562Y-19417229D02*
X7332086Y-19426752D01*
X7332086Y-19426752D02*
X7341610Y-19417229D01*
X7341610Y-19417229D02*
X7332086Y-19407705D01*
X7332086Y-19407705D02*
X7332086Y-19426752D01*
X7455896Y-19607705D02*
X7436848Y-19598181D01*
X7436848Y-19598181D02*
X7427324Y-19579133D01*
X7427324Y-19579133D02*
X7427324Y-19407705D01*
X7560658Y-19607705D02*
X7541610Y-19598181D01*
X7541610Y-19598181D02*
X7532086Y-19579133D01*
X7532086Y-19579133D02*
X7532086Y-19407705D01*
X7789229Y-19607705D02*
X7789229Y-19407705D01*
X7789229Y-19407705D02*
X7855896Y-19550562D01*
X7855896Y-19550562D02*
X7922562Y-19407705D01*
X7922562Y-19407705D02*
X7922562Y-19607705D01*
X8103515Y-19607705D02*
X8103515Y-19502943D01*
X8103515Y-19502943D02*
X8093991Y-19483895D01*
X8093991Y-19483895D02*
X8074943Y-19474371D01*
X8074943Y-19474371D02*
X8036848Y-19474371D01*
X8036848Y-19474371D02*
X8017801Y-19483895D01*
X8103515Y-19598181D02*
X8084467Y-19607705D01*
X8084467Y-19607705D02*
X8036848Y-19607705D01*
X8036848Y-19607705D02*
X8017801Y-19598181D01*
X8017801Y-19598181D02*
X8008277Y-19579133D01*
X8008277Y-19579133D02*
X8008277Y-19560086D01*
X8008277Y-19560086D02*
X8017801Y-19541038D01*
X8017801Y-19541038D02*
X8036848Y-19531514D01*
X8036848Y-19531514D02*
X8084467Y-19531514D01*
X8084467Y-19531514D02*
X8103515Y-19521990D01*
X8198753Y-19474371D02*
X8198753Y-19674371D01*
X8198753Y-19483895D02*
X8217801Y-19474371D01*
X8217801Y-19474371D02*
X8255896Y-19474371D01*
X8255896Y-19474371D02*
X8274943Y-19483895D01*
X8274943Y-19483895D02*
X8284467Y-19493419D01*
X8284467Y-19493419D02*
X8293991Y-19512467D01*
X8293991Y-19512467D02*
X8293991Y-19569609D01*
X8293991Y-19569609D02*
X8284467Y-19588657D01*
X8284467Y-19588657D02*
X8274943Y-19598181D01*
X8274943Y-19598181D02*
X8255896Y-19607705D01*
X8255896Y-19607705D02*
X8217801Y-19607705D01*
X8217801Y-19607705D02*
X8198753Y-19598181D01*
X8379705Y-19588657D02*
X8389229Y-19598181D01*
X8389229Y-19598181D02*
X8379705Y-19607705D01*
X8379705Y-19607705D02*
X8370182Y-19598181D01*
X8370182Y-19598181D02*
X8379705Y-19588657D01*
X8379705Y-19588657D02*
X8379705Y-19607705D01*
X8379705Y-19483895D02*
X8389229Y-19493419D01*
X8389229Y-19493419D02*
X8379705Y-19502943D01*
X8379705Y-19502943D02*
X8370182Y-19493419D01*
X8370182Y-19493419D02*
X8379705Y-19483895D01*
X8379705Y-19483895D02*
X8379705Y-19502943D01*
D10*
X6707500Y-19916221D02*
X6747500Y-19956221D01*
X6747500Y-19916221D02*
X6707500Y-19956221D01*
D12*
X7046372Y-19827705D02*
X7065420Y-19827705D01*
X7065420Y-19827705D02*
X7084467Y-19837229D01*
X7084467Y-19837229D02*
X7093991Y-19846752D01*
X7093991Y-19846752D02*
X7103515Y-19865800D01*
X7103515Y-19865800D02*
X7113039Y-19903895D01*
X7113039Y-19903895D02*
X7113039Y-19951514D01*
X7113039Y-19951514D02*
X7103515Y-19989609D01*
X7103515Y-19989609D02*
X7093991Y-20008657D01*
X7093991Y-20008657D02*
X7084467Y-20018181D01*
X7084467Y-20018181D02*
X7065420Y-20027705D01*
X7065420Y-20027705D02*
X7046372Y-20027705D01*
X7046372Y-20027705D02*
X7027324Y-20018181D01*
X7027324Y-20018181D02*
X7017801Y-20008657D01*
X7017801Y-20008657D02*
X7008277Y-19989609D01*
X7008277Y-19989609D02*
X6998753Y-19951514D01*
X6998753Y-19951514D02*
X6998753Y-19903895D01*
X6998753Y-19903895D02*
X7008277Y-19865800D01*
X7008277Y-19865800D02*
X7017801Y-19846752D01*
X7017801Y-19846752D02*
X7027324Y-19837229D01*
X7027324Y-19837229D02*
X7046372Y-19827705D01*
X7198753Y-20008657D02*
X7208277Y-20018181D01*
X7208277Y-20018181D02*
X7198753Y-20027705D01*
X7198753Y-20027705D02*
X7189229Y-20018181D01*
X7189229Y-20018181D02*
X7198753Y-20008657D01*
X7198753Y-20008657D02*
X7198753Y-20027705D01*
X7379705Y-19894371D02*
X7379705Y-20027705D01*
X7332086Y-19818181D02*
X7284467Y-19961038D01*
X7284467Y-19961038D02*
X7408277Y-19961038D01*
X7522562Y-19827705D02*
X7541610Y-19827705D01*
X7541610Y-19827705D02*
X7560658Y-19837229D01*
X7560658Y-19837229D02*
X7570182Y-19846752D01*
X7570182Y-19846752D02*
X7579705Y-19865800D01*
X7579705Y-19865800D02*
X7589229Y-19903895D01*
X7589229Y-19903895D02*
X7589229Y-19951514D01*
X7589229Y-19951514D02*
X7579705Y-19989609D01*
X7579705Y-19989609D02*
X7570182Y-20008657D01*
X7570182Y-20008657D02*
X7560658Y-20018181D01*
X7560658Y-20018181D02*
X7541610Y-20027705D01*
X7541610Y-20027705D02*
X7522562Y-20027705D01*
X7522562Y-20027705D02*
X7503515Y-20018181D01*
X7503515Y-20018181D02*
X7493991Y-20008657D01*
X7493991Y-20008657D02*
X7484467Y-19989609D01*
X7484467Y-19989609D02*
X7474943Y-19951514D01*
X7474943Y-19951514D02*
X7474943Y-19903895D01*
X7474943Y-19903895D02*
X7484467Y-19865800D01*
X7484467Y-19865800D02*
X7493991Y-19846752D01*
X7493991Y-19846752D02*
X7503515Y-19837229D01*
X7503515Y-19837229D02*
X7522562Y-19827705D01*
X7713039Y-19827705D02*
X7732086Y-19827705D01*
X7732086Y-19827705D02*
X7751134Y-19837229D01*
X7751134Y-19837229D02*
X7760658Y-19846752D01*
X7760658Y-19846752D02*
X7770182Y-19865800D01*
X7770182Y-19865800D02*
X7779705Y-19903895D01*
X7779705Y-19903895D02*
X7779705Y-19951514D01*
X7779705Y-19951514D02*
X7770182Y-19989609D01*
X7770182Y-19989609D02*
X7760658Y-20008657D01*
X7760658Y-20008657D02*
X7751134Y-20018181D01*
X7751134Y-20018181D02*
X7732086Y-20027705D01*
X7732086Y-20027705D02*
X7713039Y-20027705D01*
X7713039Y-20027705D02*
X7693991Y-20018181D01*
X7693991Y-20018181D02*
X7684467Y-20008657D01*
X7684467Y-20008657D02*
X7674943Y-19989609D01*
X7674943Y-19989609D02*
X7665420Y-19951514D01*
X7665420Y-19951514D02*
X7665420Y-19903895D01*
X7665420Y-19903895D02*
X7674943Y-19865800D01*
X7674943Y-19865800D02*
X7684467Y-19846752D01*
X7684467Y-19846752D02*
X7693991Y-19837229D01*
X7693991Y-19837229D02*
X7713039Y-19827705D01*
X7865420Y-20027705D02*
X7865420Y-19894371D01*
X7865420Y-19913419D02*
X7874943Y-19903895D01*
X7874943Y-19903895D02*
X7893991Y-19894371D01*
X7893991Y-19894371D02*
X7922563Y-19894371D01*
X7922563Y-19894371D02*
X7941610Y-19903895D01*
X7941610Y-19903895D02*
X7951134Y-19922943D01*
X7951134Y-19922943D02*
X7951134Y-20027705D01*
X7951134Y-19922943D02*
X7960658Y-19903895D01*
X7960658Y-19903895D02*
X7979705Y-19894371D01*
X7979705Y-19894371D02*
X8008277Y-19894371D01*
X8008277Y-19894371D02*
X8027324Y-19903895D01*
X8027324Y-19903895D02*
X8036848Y-19922943D01*
X8036848Y-19922943D02*
X8036848Y-20027705D01*
X8132086Y-20027705D02*
X8132086Y-19894371D01*
X8132086Y-19913419D02*
X8141610Y-19903895D01*
X8141610Y-19903895D02*
X8160658Y-19894371D01*
X8160658Y-19894371D02*
X8189229Y-19894371D01*
X8189229Y-19894371D02*
X8208277Y-19903895D01*
X8208277Y-19903895D02*
X8217801Y-19922943D01*
X8217801Y-19922943D02*
X8217801Y-20027705D01*
X8217801Y-19922943D02*
X8227324Y-19903895D01*
X8227324Y-19903895D02*
X8246372Y-19894371D01*
X8246372Y-19894371D02*
X8274943Y-19894371D01*
X8274943Y-19894371D02*
X8293991Y-19903895D01*
X8293991Y-19903895D02*
X8303515Y-19922943D01*
X8303515Y-19922943D02*
X8303515Y-20027705D01*
X8693991Y-19818181D02*
X8522563Y-20075324D01*
X8951134Y-19827705D02*
X8970182Y-19827705D01*
X8970182Y-19827705D02*
X8989229Y-19837229D01*
X8989229Y-19837229D02*
X8998753Y-19846752D01*
X8998753Y-19846752D02*
X9008277Y-19865800D01*
X9008277Y-19865800D02*
X9017801Y-19903895D01*
X9017801Y-19903895D02*
X9017801Y-19951514D01*
X9017801Y-19951514D02*
X9008277Y-19989609D01*
X9008277Y-19989609D02*
X8998753Y-20008657D01*
X8998753Y-20008657D02*
X8989229Y-20018181D01*
X8989229Y-20018181D02*
X8970182Y-20027705D01*
X8970182Y-20027705D02*
X8951134Y-20027705D01*
X8951134Y-20027705D02*
X8932087Y-20018181D01*
X8932087Y-20018181D02*
X8922563Y-20008657D01*
X8922563Y-20008657D02*
X8913039Y-19989609D01*
X8913039Y-19989609D02*
X8903515Y-19951514D01*
X8903515Y-19951514D02*
X8903515Y-19903895D01*
X8903515Y-19903895D02*
X8913039Y-19865800D01*
X8913039Y-19865800D02*
X8922563Y-19846752D01*
X8922563Y-19846752D02*
X8932087Y-19837229D01*
X8932087Y-19837229D02*
X8951134Y-19827705D01*
X9103515Y-20008657D02*
X9113039Y-20018181D01*
X9113039Y-20018181D02*
X9103515Y-20027705D01*
X9103515Y-20027705D02*
X9093991Y-20018181D01*
X9093991Y-20018181D02*
X9103515Y-20008657D01*
X9103515Y-20008657D02*
X9103515Y-20027705D01*
X9236848Y-19827705D02*
X9255896Y-19827705D01*
X9255896Y-19827705D02*
X9274944Y-19837229D01*
X9274944Y-19837229D02*
X9284468Y-19846752D01*
X9284468Y-19846752D02*
X9293991Y-19865800D01*
X9293991Y-19865800D02*
X9303515Y-19903895D01*
X9303515Y-19903895D02*
X9303515Y-19951514D01*
X9303515Y-19951514D02*
X9293991Y-19989609D01*
X9293991Y-19989609D02*
X9284468Y-20008657D01*
X9284468Y-20008657D02*
X9274944Y-20018181D01*
X9274944Y-20018181D02*
X9255896Y-20027705D01*
X9255896Y-20027705D02*
X9236848Y-20027705D01*
X9236848Y-20027705D02*
X9217801Y-20018181D01*
X9217801Y-20018181D02*
X9208277Y-20008657D01*
X9208277Y-20008657D02*
X9198753Y-19989609D01*
X9198753Y-19989609D02*
X9189229Y-19951514D01*
X9189229Y-19951514D02*
X9189229Y-19903895D01*
X9189229Y-19903895D02*
X9198753Y-19865800D01*
X9198753Y-19865800D02*
X9208277Y-19846752D01*
X9208277Y-19846752D02*
X9217801Y-19837229D01*
X9217801Y-19837229D02*
X9236848Y-19827705D01*
X9493991Y-20027705D02*
X9379706Y-20027705D01*
X9436848Y-20027705D02*
X9436848Y-19827705D01*
X9436848Y-19827705D02*
X9417801Y-19856276D01*
X9417801Y-19856276D02*
X9398753Y-19875324D01*
X9398753Y-19875324D02*
X9379706Y-19884848D01*
X9674944Y-19827705D02*
X9579706Y-19827705D01*
X9579706Y-19827705D02*
X9570182Y-19922943D01*
X9570182Y-19922943D02*
X9579706Y-19913419D01*
X9579706Y-19913419D02*
X9598753Y-19903895D01*
X9598753Y-19903895D02*
X9646372Y-19903895D01*
X9646372Y-19903895D02*
X9665420Y-19913419D01*
X9665420Y-19913419D02*
X9674944Y-19922943D01*
X9674944Y-19922943D02*
X9684468Y-19941990D01*
X9684468Y-19941990D02*
X9684468Y-19989609D01*
X9684468Y-19989609D02*
X9674944Y-20008657D01*
X9674944Y-20008657D02*
X9665420Y-20018181D01*
X9665420Y-20018181D02*
X9646372Y-20027705D01*
X9646372Y-20027705D02*
X9598753Y-20027705D01*
X9598753Y-20027705D02*
X9579706Y-20018181D01*
X9579706Y-20018181D02*
X9570182Y-20008657D01*
X9751134Y-19827705D02*
X9884468Y-19827705D01*
X9884468Y-19827705D02*
X9798753Y-20027705D01*
X9951134Y-19827705D02*
X9951134Y-19865800D01*
X10027325Y-19827705D02*
X10027325Y-19865800D01*
X10322563Y-20103895D02*
X10313039Y-20094371D01*
X10313039Y-20094371D02*
X10293991Y-20065800D01*
X10293991Y-20065800D02*
X10284468Y-20046752D01*
X10284468Y-20046752D02*
X10274944Y-20018181D01*
X10274944Y-20018181D02*
X10265420Y-19970562D01*
X10265420Y-19970562D02*
X10265420Y-19932467D01*
X10265420Y-19932467D02*
X10274944Y-19884848D01*
X10274944Y-19884848D02*
X10284468Y-19856276D01*
X10284468Y-19856276D02*
X10293991Y-19837229D01*
X10293991Y-19837229D02*
X10313039Y-19808657D01*
X10313039Y-19808657D02*
X10322563Y-19799133D01*
X10493991Y-19827705D02*
X10398753Y-19827705D01*
X10398753Y-19827705D02*
X10389230Y-19922943D01*
X10389230Y-19922943D02*
X10398753Y-19913419D01*
X10398753Y-19913419D02*
X10417801Y-19903895D01*
X10417801Y-19903895D02*
X10465420Y-19903895D01*
X10465420Y-19903895D02*
X10484468Y-19913419D01*
X10484468Y-19913419D02*
X10493991Y-19922943D01*
X10493991Y-19922943D02*
X10503515Y-19941990D01*
X10503515Y-19941990D02*
X10503515Y-19989609D01*
X10503515Y-19989609D02*
X10493991Y-20008657D01*
X10493991Y-20008657D02*
X10484468Y-20018181D01*
X10484468Y-20018181D02*
X10465420Y-20027705D01*
X10465420Y-20027705D02*
X10417801Y-20027705D01*
X10417801Y-20027705D02*
X10398753Y-20018181D01*
X10398753Y-20018181D02*
X10389230Y-20008657D01*
X10741611Y-20027705D02*
X10741611Y-19827705D01*
X10827325Y-20027705D02*
X10827325Y-19922943D01*
X10827325Y-19922943D02*
X10817801Y-19903895D01*
X10817801Y-19903895D02*
X10798753Y-19894371D01*
X10798753Y-19894371D02*
X10770182Y-19894371D01*
X10770182Y-19894371D02*
X10751134Y-19903895D01*
X10751134Y-19903895D02*
X10741611Y-19913419D01*
X10951134Y-20027705D02*
X10932087Y-20018181D01*
X10932087Y-20018181D02*
X10922563Y-20008657D01*
X10922563Y-20008657D02*
X10913039Y-19989609D01*
X10913039Y-19989609D02*
X10913039Y-19932467D01*
X10913039Y-19932467D02*
X10922563Y-19913419D01*
X10922563Y-19913419D02*
X10932087Y-19903895D01*
X10932087Y-19903895D02*
X10951134Y-19894371D01*
X10951134Y-19894371D02*
X10979706Y-19894371D01*
X10979706Y-19894371D02*
X10998753Y-19903895D01*
X10998753Y-19903895D02*
X11008277Y-19913419D01*
X11008277Y-19913419D02*
X11017801Y-19932467D01*
X11017801Y-19932467D02*
X11017801Y-19989609D01*
X11017801Y-19989609D02*
X11008277Y-20008657D01*
X11008277Y-20008657D02*
X10998753Y-20018181D01*
X10998753Y-20018181D02*
X10979706Y-20027705D01*
X10979706Y-20027705D02*
X10951134Y-20027705D01*
X11132087Y-20027705D02*
X11113039Y-20018181D01*
X11113039Y-20018181D02*
X11103515Y-19999133D01*
X11103515Y-19999133D02*
X11103515Y-19827705D01*
X11284468Y-20018181D02*
X11265420Y-20027705D01*
X11265420Y-20027705D02*
X11227325Y-20027705D01*
X11227325Y-20027705D02*
X11208277Y-20018181D01*
X11208277Y-20018181D02*
X11198753Y-19999133D01*
X11198753Y-19999133D02*
X11198753Y-19922943D01*
X11198753Y-19922943D02*
X11208277Y-19903895D01*
X11208277Y-19903895D02*
X11227325Y-19894371D01*
X11227325Y-19894371D02*
X11265420Y-19894371D01*
X11265420Y-19894371D02*
X11284468Y-19903895D01*
X11284468Y-19903895D02*
X11293991Y-19922943D01*
X11293991Y-19922943D02*
X11293991Y-19941990D01*
X11293991Y-19941990D02*
X11198753Y-19961038D01*
X11370182Y-20018181D02*
X11389230Y-20027705D01*
X11389230Y-20027705D02*
X11427325Y-20027705D01*
X11427325Y-20027705D02*
X11446372Y-20018181D01*
X11446372Y-20018181D02*
X11455896Y-19999133D01*
X11455896Y-19999133D02*
X11455896Y-19989609D01*
X11455896Y-19989609D02*
X11446372Y-19970562D01*
X11446372Y-19970562D02*
X11427325Y-19961038D01*
X11427325Y-19961038D02*
X11398753Y-19961038D01*
X11398753Y-19961038D02*
X11379706Y-19951514D01*
X11379706Y-19951514D02*
X11370182Y-19932467D01*
X11370182Y-19932467D02*
X11370182Y-19922943D01*
X11370182Y-19922943D02*
X11379706Y-19903895D01*
X11379706Y-19903895D02*
X11398753Y-19894371D01*
X11398753Y-19894371D02*
X11427325Y-19894371D01*
X11427325Y-19894371D02*
X11446372Y-19903895D01*
X11522563Y-20103895D02*
X11532087Y-20094371D01*
X11532087Y-20094371D02*
X11551134Y-20065800D01*
X11551134Y-20065800D02*
X11560658Y-20046752D01*
X11560658Y-20046752D02*
X11570182Y-20018181D01*
X11570182Y-20018181D02*
X11579706Y-19970562D01*
X11579706Y-19970562D02*
X11579706Y-19932467D01*
X11579706Y-19932467D02*
X11570182Y-19884848D01*
X11570182Y-19884848D02*
X11560658Y-19856276D01*
X11560658Y-19856276D02*
X11551134Y-19837229D01*
X11551134Y-19837229D02*
X11532087Y-19808657D01*
X11532087Y-19808657D02*
X11522563Y-19799133D01*
D10*
X6747500Y-20200221D02*
G75*
G03*
X6747500Y-20200221I-45000J0D01*
G01*
D12*
X7046372Y-20091705D02*
X7065420Y-20091705D01*
X7065420Y-20091705D02*
X7084467Y-20101229D01*
X7084467Y-20101229D02*
X7093991Y-20110752D01*
X7093991Y-20110752D02*
X7103515Y-20129800D01*
X7103515Y-20129800D02*
X7113039Y-20167895D01*
X7113039Y-20167895D02*
X7113039Y-20215514D01*
X7113039Y-20215514D02*
X7103515Y-20253609D01*
X7103515Y-20253609D02*
X7093991Y-20272657D01*
X7093991Y-20272657D02*
X7084467Y-20282181D01*
X7084467Y-20282181D02*
X7065420Y-20291705D01*
X7065420Y-20291705D02*
X7046372Y-20291705D01*
X7046372Y-20291705D02*
X7027324Y-20282181D01*
X7027324Y-20282181D02*
X7017801Y-20272657D01*
X7017801Y-20272657D02*
X7008277Y-20253609D01*
X7008277Y-20253609D02*
X6998753Y-20215514D01*
X6998753Y-20215514D02*
X6998753Y-20167895D01*
X6998753Y-20167895D02*
X7008277Y-20129800D01*
X7008277Y-20129800D02*
X7017801Y-20110752D01*
X7017801Y-20110752D02*
X7027324Y-20101229D01*
X7027324Y-20101229D02*
X7046372Y-20091705D01*
X7198753Y-20272657D02*
X7208277Y-20282181D01*
X7208277Y-20282181D02*
X7198753Y-20291705D01*
X7198753Y-20291705D02*
X7189229Y-20282181D01*
X7189229Y-20282181D02*
X7198753Y-20272657D01*
X7198753Y-20272657D02*
X7198753Y-20291705D01*
X7303515Y-20291705D02*
X7341610Y-20291705D01*
X7341610Y-20291705D02*
X7360658Y-20282181D01*
X7360658Y-20282181D02*
X7370182Y-20272657D01*
X7370182Y-20272657D02*
X7389229Y-20244086D01*
X7389229Y-20244086D02*
X7398753Y-20205990D01*
X7398753Y-20205990D02*
X7398753Y-20129800D01*
X7398753Y-20129800D02*
X7389229Y-20110752D01*
X7389229Y-20110752D02*
X7379705Y-20101229D01*
X7379705Y-20101229D02*
X7360658Y-20091705D01*
X7360658Y-20091705D02*
X7322562Y-20091705D01*
X7322562Y-20091705D02*
X7303515Y-20101229D01*
X7303515Y-20101229D02*
X7293991Y-20110752D01*
X7293991Y-20110752D02*
X7284467Y-20129800D01*
X7284467Y-20129800D02*
X7284467Y-20177419D01*
X7284467Y-20177419D02*
X7293991Y-20196467D01*
X7293991Y-20196467D02*
X7303515Y-20205990D01*
X7303515Y-20205990D02*
X7322562Y-20215514D01*
X7322562Y-20215514D02*
X7360658Y-20215514D01*
X7360658Y-20215514D02*
X7379705Y-20205990D01*
X7379705Y-20205990D02*
X7389229Y-20196467D01*
X7389229Y-20196467D02*
X7398753Y-20177419D01*
X7522562Y-20091705D02*
X7541610Y-20091705D01*
X7541610Y-20091705D02*
X7560658Y-20101229D01*
X7560658Y-20101229D02*
X7570182Y-20110752D01*
X7570182Y-20110752D02*
X7579705Y-20129800D01*
X7579705Y-20129800D02*
X7589229Y-20167895D01*
X7589229Y-20167895D02*
X7589229Y-20215514D01*
X7589229Y-20215514D02*
X7579705Y-20253609D01*
X7579705Y-20253609D02*
X7570182Y-20272657D01*
X7570182Y-20272657D02*
X7560658Y-20282181D01*
X7560658Y-20282181D02*
X7541610Y-20291705D01*
X7541610Y-20291705D02*
X7522562Y-20291705D01*
X7522562Y-20291705D02*
X7503515Y-20282181D01*
X7503515Y-20282181D02*
X7493991Y-20272657D01*
X7493991Y-20272657D02*
X7484467Y-20253609D01*
X7484467Y-20253609D02*
X7474943Y-20215514D01*
X7474943Y-20215514D02*
X7474943Y-20167895D01*
X7474943Y-20167895D02*
X7484467Y-20129800D01*
X7484467Y-20129800D02*
X7493991Y-20110752D01*
X7493991Y-20110752D02*
X7503515Y-20101229D01*
X7503515Y-20101229D02*
X7522562Y-20091705D01*
X7713039Y-20091705D02*
X7732086Y-20091705D01*
X7732086Y-20091705D02*
X7751134Y-20101229D01*
X7751134Y-20101229D02*
X7760658Y-20110752D01*
X7760658Y-20110752D02*
X7770182Y-20129800D01*
X7770182Y-20129800D02*
X7779705Y-20167895D01*
X7779705Y-20167895D02*
X7779705Y-20215514D01*
X7779705Y-20215514D02*
X7770182Y-20253609D01*
X7770182Y-20253609D02*
X7760658Y-20272657D01*
X7760658Y-20272657D02*
X7751134Y-20282181D01*
X7751134Y-20282181D02*
X7732086Y-20291705D01*
X7732086Y-20291705D02*
X7713039Y-20291705D01*
X7713039Y-20291705D02*
X7693991Y-20282181D01*
X7693991Y-20282181D02*
X7684467Y-20272657D01*
X7684467Y-20272657D02*
X7674943Y-20253609D01*
X7674943Y-20253609D02*
X7665420Y-20215514D01*
X7665420Y-20215514D02*
X7665420Y-20167895D01*
X7665420Y-20167895D02*
X7674943Y-20129800D01*
X7674943Y-20129800D02*
X7684467Y-20110752D01*
X7684467Y-20110752D02*
X7693991Y-20101229D01*
X7693991Y-20101229D02*
X7713039Y-20091705D01*
X7865420Y-20291705D02*
X7865420Y-20158371D01*
X7865420Y-20177419D02*
X7874943Y-20167895D01*
X7874943Y-20167895D02*
X7893991Y-20158371D01*
X7893991Y-20158371D02*
X7922563Y-20158371D01*
X7922563Y-20158371D02*
X7941610Y-20167895D01*
X7941610Y-20167895D02*
X7951134Y-20186943D01*
X7951134Y-20186943D02*
X7951134Y-20291705D01*
X7951134Y-20186943D02*
X7960658Y-20167895D01*
X7960658Y-20167895D02*
X7979705Y-20158371D01*
X7979705Y-20158371D02*
X8008277Y-20158371D01*
X8008277Y-20158371D02*
X8027324Y-20167895D01*
X8027324Y-20167895D02*
X8036848Y-20186943D01*
X8036848Y-20186943D02*
X8036848Y-20291705D01*
X8132086Y-20291705D02*
X8132086Y-20158371D01*
X8132086Y-20177419D02*
X8141610Y-20167895D01*
X8141610Y-20167895D02*
X8160658Y-20158371D01*
X8160658Y-20158371D02*
X8189229Y-20158371D01*
X8189229Y-20158371D02*
X8208277Y-20167895D01*
X8208277Y-20167895D02*
X8217801Y-20186943D01*
X8217801Y-20186943D02*
X8217801Y-20291705D01*
X8217801Y-20186943D02*
X8227324Y-20167895D01*
X8227324Y-20167895D02*
X8246372Y-20158371D01*
X8246372Y-20158371D02*
X8274943Y-20158371D01*
X8274943Y-20158371D02*
X8293991Y-20167895D01*
X8293991Y-20167895D02*
X8303515Y-20186943D01*
X8303515Y-20186943D02*
X8303515Y-20291705D01*
X8693991Y-20082181D02*
X8522563Y-20339324D01*
X8951134Y-20091705D02*
X8970182Y-20091705D01*
X8970182Y-20091705D02*
X8989229Y-20101229D01*
X8989229Y-20101229D02*
X8998753Y-20110752D01*
X8998753Y-20110752D02*
X9008277Y-20129800D01*
X9008277Y-20129800D02*
X9017801Y-20167895D01*
X9017801Y-20167895D02*
X9017801Y-20215514D01*
X9017801Y-20215514D02*
X9008277Y-20253609D01*
X9008277Y-20253609D02*
X8998753Y-20272657D01*
X8998753Y-20272657D02*
X8989229Y-20282181D01*
X8989229Y-20282181D02*
X8970182Y-20291705D01*
X8970182Y-20291705D02*
X8951134Y-20291705D01*
X8951134Y-20291705D02*
X8932087Y-20282181D01*
X8932087Y-20282181D02*
X8922563Y-20272657D01*
X8922563Y-20272657D02*
X8913039Y-20253609D01*
X8913039Y-20253609D02*
X8903515Y-20215514D01*
X8903515Y-20215514D02*
X8903515Y-20167895D01*
X8903515Y-20167895D02*
X8913039Y-20129800D01*
X8913039Y-20129800D02*
X8922563Y-20110752D01*
X8922563Y-20110752D02*
X8932087Y-20101229D01*
X8932087Y-20101229D02*
X8951134Y-20091705D01*
X9103515Y-20272657D02*
X9113039Y-20282181D01*
X9113039Y-20282181D02*
X9103515Y-20291705D01*
X9103515Y-20291705D02*
X9093991Y-20282181D01*
X9093991Y-20282181D02*
X9103515Y-20272657D01*
X9103515Y-20272657D02*
X9103515Y-20291705D01*
X9236848Y-20091705D02*
X9255896Y-20091705D01*
X9255896Y-20091705D02*
X9274944Y-20101229D01*
X9274944Y-20101229D02*
X9284468Y-20110752D01*
X9284468Y-20110752D02*
X9293991Y-20129800D01*
X9293991Y-20129800D02*
X9303515Y-20167895D01*
X9303515Y-20167895D02*
X9303515Y-20215514D01*
X9303515Y-20215514D02*
X9293991Y-20253609D01*
X9293991Y-20253609D02*
X9284468Y-20272657D01*
X9284468Y-20272657D02*
X9274944Y-20282181D01*
X9274944Y-20282181D02*
X9255896Y-20291705D01*
X9255896Y-20291705D02*
X9236848Y-20291705D01*
X9236848Y-20291705D02*
X9217801Y-20282181D01*
X9217801Y-20282181D02*
X9208277Y-20272657D01*
X9208277Y-20272657D02*
X9198753Y-20253609D01*
X9198753Y-20253609D02*
X9189229Y-20215514D01*
X9189229Y-20215514D02*
X9189229Y-20167895D01*
X9189229Y-20167895D02*
X9198753Y-20129800D01*
X9198753Y-20129800D02*
X9208277Y-20110752D01*
X9208277Y-20110752D02*
X9217801Y-20101229D01*
X9217801Y-20101229D02*
X9236848Y-20091705D01*
X9370182Y-20091705D02*
X9493991Y-20091705D01*
X9493991Y-20091705D02*
X9427325Y-20167895D01*
X9427325Y-20167895D02*
X9455896Y-20167895D01*
X9455896Y-20167895D02*
X9474944Y-20177419D01*
X9474944Y-20177419D02*
X9484468Y-20186943D01*
X9484468Y-20186943D02*
X9493991Y-20205990D01*
X9493991Y-20205990D02*
X9493991Y-20253609D01*
X9493991Y-20253609D02*
X9484468Y-20272657D01*
X9484468Y-20272657D02*
X9474944Y-20282181D01*
X9474944Y-20282181D02*
X9455896Y-20291705D01*
X9455896Y-20291705D02*
X9398753Y-20291705D01*
X9398753Y-20291705D02*
X9379706Y-20282181D01*
X9379706Y-20282181D02*
X9370182Y-20272657D01*
X9674944Y-20091705D02*
X9579706Y-20091705D01*
X9579706Y-20091705D02*
X9570182Y-20186943D01*
X9570182Y-20186943D02*
X9579706Y-20177419D01*
X9579706Y-20177419D02*
X9598753Y-20167895D01*
X9598753Y-20167895D02*
X9646372Y-20167895D01*
X9646372Y-20167895D02*
X9665420Y-20177419D01*
X9665420Y-20177419D02*
X9674944Y-20186943D01*
X9674944Y-20186943D02*
X9684468Y-20205990D01*
X9684468Y-20205990D02*
X9684468Y-20253609D01*
X9684468Y-20253609D02*
X9674944Y-20272657D01*
X9674944Y-20272657D02*
X9665420Y-20282181D01*
X9665420Y-20282181D02*
X9646372Y-20291705D01*
X9646372Y-20291705D02*
X9598753Y-20291705D01*
X9598753Y-20291705D02*
X9579706Y-20282181D01*
X9579706Y-20282181D02*
X9570182Y-20272657D01*
X9855896Y-20158371D02*
X9855896Y-20291705D01*
X9808277Y-20082181D02*
X9760658Y-20225038D01*
X9760658Y-20225038D02*
X9884468Y-20225038D01*
X9951134Y-20091705D02*
X9951134Y-20129800D01*
X10027325Y-20091705D02*
X10027325Y-20129800D01*
X10322563Y-20367895D02*
X10313039Y-20358371D01*
X10313039Y-20358371D02*
X10293991Y-20329800D01*
X10293991Y-20329800D02*
X10284468Y-20310752D01*
X10284468Y-20310752D02*
X10274944Y-20282181D01*
X10274944Y-20282181D02*
X10265420Y-20234562D01*
X10265420Y-20234562D02*
X10265420Y-20196467D01*
X10265420Y-20196467D02*
X10274944Y-20148848D01*
X10274944Y-20148848D02*
X10284468Y-20120276D01*
X10284468Y-20120276D02*
X10293991Y-20101229D01*
X10293991Y-20101229D02*
X10313039Y-20072657D01*
X10313039Y-20072657D02*
X10322563Y-20063133D01*
X10436849Y-20091705D02*
X10455896Y-20091705D01*
X10455896Y-20091705D02*
X10474944Y-20101229D01*
X10474944Y-20101229D02*
X10484468Y-20110752D01*
X10484468Y-20110752D02*
X10493991Y-20129800D01*
X10493991Y-20129800D02*
X10503515Y-20167895D01*
X10503515Y-20167895D02*
X10503515Y-20215514D01*
X10503515Y-20215514D02*
X10493991Y-20253609D01*
X10493991Y-20253609D02*
X10484468Y-20272657D01*
X10484468Y-20272657D02*
X10474944Y-20282181D01*
X10474944Y-20282181D02*
X10455896Y-20291705D01*
X10455896Y-20291705D02*
X10436849Y-20291705D01*
X10436849Y-20291705D02*
X10417801Y-20282181D01*
X10417801Y-20282181D02*
X10408277Y-20272657D01*
X10408277Y-20272657D02*
X10398753Y-20253609D01*
X10398753Y-20253609D02*
X10389230Y-20215514D01*
X10389230Y-20215514D02*
X10389230Y-20167895D01*
X10389230Y-20167895D02*
X10398753Y-20129800D01*
X10398753Y-20129800D02*
X10408277Y-20110752D01*
X10408277Y-20110752D02*
X10417801Y-20101229D01*
X10417801Y-20101229D02*
X10436849Y-20091705D01*
X10741611Y-20291705D02*
X10741611Y-20091705D01*
X10827325Y-20291705D02*
X10827325Y-20186943D01*
X10827325Y-20186943D02*
X10817801Y-20167895D01*
X10817801Y-20167895D02*
X10798753Y-20158371D01*
X10798753Y-20158371D02*
X10770182Y-20158371D01*
X10770182Y-20158371D02*
X10751134Y-20167895D01*
X10751134Y-20167895D02*
X10741611Y-20177419D01*
X10951134Y-20291705D02*
X10932087Y-20282181D01*
X10932087Y-20282181D02*
X10922563Y-20272657D01*
X10922563Y-20272657D02*
X10913039Y-20253609D01*
X10913039Y-20253609D02*
X10913039Y-20196467D01*
X10913039Y-20196467D02*
X10922563Y-20177419D01*
X10922563Y-20177419D02*
X10932087Y-20167895D01*
X10932087Y-20167895D02*
X10951134Y-20158371D01*
X10951134Y-20158371D02*
X10979706Y-20158371D01*
X10979706Y-20158371D02*
X10998753Y-20167895D01*
X10998753Y-20167895D02*
X11008277Y-20177419D01*
X11008277Y-20177419D02*
X11017801Y-20196467D01*
X11017801Y-20196467D02*
X11017801Y-20253609D01*
X11017801Y-20253609D02*
X11008277Y-20272657D01*
X11008277Y-20272657D02*
X10998753Y-20282181D01*
X10998753Y-20282181D02*
X10979706Y-20291705D01*
X10979706Y-20291705D02*
X10951134Y-20291705D01*
X11132087Y-20291705D02*
X11113039Y-20282181D01*
X11113039Y-20282181D02*
X11103515Y-20263133D01*
X11103515Y-20263133D02*
X11103515Y-20091705D01*
X11284468Y-20282181D02*
X11265420Y-20291705D01*
X11265420Y-20291705D02*
X11227325Y-20291705D01*
X11227325Y-20291705D02*
X11208277Y-20282181D01*
X11208277Y-20282181D02*
X11198753Y-20263133D01*
X11198753Y-20263133D02*
X11198753Y-20186943D01*
X11198753Y-20186943D02*
X11208277Y-20167895D01*
X11208277Y-20167895D02*
X11227325Y-20158371D01*
X11227325Y-20158371D02*
X11265420Y-20158371D01*
X11265420Y-20158371D02*
X11284468Y-20167895D01*
X11284468Y-20167895D02*
X11293991Y-20186943D01*
X11293991Y-20186943D02*
X11293991Y-20205990D01*
X11293991Y-20205990D02*
X11198753Y-20225038D01*
X11370182Y-20282181D02*
X11389230Y-20291705D01*
X11389230Y-20291705D02*
X11427325Y-20291705D01*
X11427325Y-20291705D02*
X11446372Y-20282181D01*
X11446372Y-20282181D02*
X11455896Y-20263133D01*
X11455896Y-20263133D02*
X11455896Y-20253609D01*
X11455896Y-20253609D02*
X11446372Y-20234562D01*
X11446372Y-20234562D02*
X11427325Y-20225038D01*
X11427325Y-20225038D02*
X11398753Y-20225038D01*
X11398753Y-20225038D02*
X11379706Y-20215514D01*
X11379706Y-20215514D02*
X11370182Y-20196467D01*
X11370182Y-20196467D02*
X11370182Y-20186943D01*
X11370182Y-20186943D02*
X11379706Y-20167895D01*
X11379706Y-20167895D02*
X11398753Y-20158371D01*
X11398753Y-20158371D02*
X11427325Y-20158371D01*
X11427325Y-20158371D02*
X11446372Y-20167895D01*
X11693992Y-20215514D02*
X11846373Y-20215514D01*
X11770182Y-20291705D02*
X11770182Y-20139324D01*
X12179706Y-20158371D02*
X12179706Y-20291705D01*
X12132087Y-20082181D02*
X12084468Y-20225038D01*
X12084468Y-20225038D02*
X12208277Y-20225038D01*
X12427325Y-20282181D02*
X12446373Y-20291705D01*
X12446373Y-20291705D02*
X12484468Y-20291705D01*
X12484468Y-20291705D02*
X12503515Y-20282181D01*
X12503515Y-20282181D02*
X12513039Y-20263133D01*
X12513039Y-20263133D02*
X12513039Y-20253609D01*
X12513039Y-20253609D02*
X12503515Y-20234562D01*
X12503515Y-20234562D02*
X12484468Y-20225038D01*
X12484468Y-20225038D02*
X12455896Y-20225038D01*
X12455896Y-20225038D02*
X12436849Y-20215514D01*
X12436849Y-20215514D02*
X12427325Y-20196467D01*
X12427325Y-20196467D02*
X12427325Y-20186943D01*
X12427325Y-20186943D02*
X12436849Y-20167895D01*
X12436849Y-20167895D02*
X12455896Y-20158371D01*
X12455896Y-20158371D02*
X12484468Y-20158371D01*
X12484468Y-20158371D02*
X12503515Y-20167895D01*
X12627325Y-20291705D02*
X12608277Y-20282181D01*
X12608277Y-20282181D02*
X12598754Y-20263133D01*
X12598754Y-20263133D02*
X12598754Y-20091705D01*
X12732087Y-20291705D02*
X12713039Y-20282181D01*
X12713039Y-20282181D02*
X12703515Y-20272657D01*
X12703515Y-20272657D02*
X12693992Y-20253609D01*
X12693992Y-20253609D02*
X12693992Y-20196467D01*
X12693992Y-20196467D02*
X12703515Y-20177419D01*
X12703515Y-20177419D02*
X12713039Y-20167895D01*
X12713039Y-20167895D02*
X12732087Y-20158371D01*
X12732087Y-20158371D02*
X12760658Y-20158371D01*
X12760658Y-20158371D02*
X12779706Y-20167895D01*
X12779706Y-20167895D02*
X12789230Y-20177419D01*
X12789230Y-20177419D02*
X12798754Y-20196467D01*
X12798754Y-20196467D02*
X12798754Y-20253609D01*
X12798754Y-20253609D02*
X12789230Y-20272657D01*
X12789230Y-20272657D02*
X12779706Y-20282181D01*
X12779706Y-20282181D02*
X12760658Y-20291705D01*
X12760658Y-20291705D02*
X12732087Y-20291705D01*
X12855896Y-20158371D02*
X12932087Y-20158371D01*
X12884468Y-20091705D02*
X12884468Y-20263133D01*
X12884468Y-20263133D02*
X12893992Y-20282181D01*
X12893992Y-20282181D02*
X12913039Y-20291705D01*
X12913039Y-20291705D02*
X12932087Y-20291705D01*
X12989230Y-20282181D02*
X13008277Y-20291705D01*
X13008277Y-20291705D02*
X13046373Y-20291705D01*
X13046373Y-20291705D02*
X13065420Y-20282181D01*
X13065420Y-20282181D02*
X13074944Y-20263133D01*
X13074944Y-20263133D02*
X13074944Y-20253609D01*
X13074944Y-20253609D02*
X13065420Y-20234562D01*
X13065420Y-20234562D02*
X13046373Y-20225038D01*
X13046373Y-20225038D02*
X13017801Y-20225038D01*
X13017801Y-20225038D02*
X12998754Y-20215514D01*
X12998754Y-20215514D02*
X12989230Y-20196467D01*
X12989230Y-20196467D02*
X12989230Y-20186943D01*
X12989230Y-20186943D02*
X12998754Y-20167895D01*
X12998754Y-20167895D02*
X13017801Y-20158371D01*
X13017801Y-20158371D02*
X13046373Y-20158371D01*
X13046373Y-20158371D02*
X13065420Y-20167895D01*
X13141611Y-20367895D02*
X13151135Y-20358371D01*
X13151135Y-20358371D02*
X13170182Y-20329800D01*
X13170182Y-20329800D02*
X13179706Y-20310752D01*
X13179706Y-20310752D02*
X13189230Y-20282181D01*
X13189230Y-20282181D02*
X13198754Y-20234562D01*
X13198754Y-20234562D02*
X13198754Y-20196467D01*
X13198754Y-20196467D02*
X13189230Y-20148848D01*
X13189230Y-20148848D02*
X13179706Y-20120276D01*
X13179706Y-20120276D02*
X13170182Y-20101229D01*
X13170182Y-20101229D02*
X13151135Y-20072657D01*
X13151135Y-20072657D02*
X13141611Y-20063133D01*
D10*
X6697500Y-20414221D02*
X6697500Y-20514221D01*
X6647500Y-20464221D02*
X6747500Y-20464221D01*
D12*
X7113039Y-20555705D02*
X6998753Y-20555705D01*
X7055896Y-20555705D02*
X7055896Y-20355705D01*
X7055896Y-20355705D02*
X7036848Y-20384276D01*
X7036848Y-20384276D02*
X7017801Y-20403324D01*
X7017801Y-20403324D02*
X6998753Y-20412848D01*
X7198753Y-20536657D02*
X7208277Y-20546181D01*
X7208277Y-20546181D02*
X7198753Y-20555705D01*
X7198753Y-20555705D02*
X7189229Y-20546181D01*
X7189229Y-20546181D02*
X7198753Y-20536657D01*
X7198753Y-20536657D02*
X7198753Y-20555705D01*
X7332086Y-20355705D02*
X7351134Y-20355705D01*
X7351134Y-20355705D02*
X7370182Y-20365229D01*
X7370182Y-20365229D02*
X7379705Y-20374752D01*
X7379705Y-20374752D02*
X7389229Y-20393800D01*
X7389229Y-20393800D02*
X7398753Y-20431895D01*
X7398753Y-20431895D02*
X7398753Y-20479514D01*
X7398753Y-20479514D02*
X7389229Y-20517609D01*
X7389229Y-20517609D02*
X7379705Y-20536657D01*
X7379705Y-20536657D02*
X7370182Y-20546181D01*
X7370182Y-20546181D02*
X7351134Y-20555705D01*
X7351134Y-20555705D02*
X7332086Y-20555705D01*
X7332086Y-20555705D02*
X7313039Y-20546181D01*
X7313039Y-20546181D02*
X7303515Y-20536657D01*
X7303515Y-20536657D02*
X7293991Y-20517609D01*
X7293991Y-20517609D02*
X7284467Y-20479514D01*
X7284467Y-20479514D02*
X7284467Y-20431895D01*
X7284467Y-20431895D02*
X7293991Y-20393800D01*
X7293991Y-20393800D02*
X7303515Y-20374752D01*
X7303515Y-20374752D02*
X7313039Y-20365229D01*
X7313039Y-20365229D02*
X7332086Y-20355705D01*
X7522562Y-20355705D02*
X7541610Y-20355705D01*
X7541610Y-20355705D02*
X7560658Y-20365229D01*
X7560658Y-20365229D02*
X7570182Y-20374752D01*
X7570182Y-20374752D02*
X7579705Y-20393800D01*
X7579705Y-20393800D02*
X7589229Y-20431895D01*
X7589229Y-20431895D02*
X7589229Y-20479514D01*
X7589229Y-20479514D02*
X7579705Y-20517609D01*
X7579705Y-20517609D02*
X7570182Y-20536657D01*
X7570182Y-20536657D02*
X7560658Y-20546181D01*
X7560658Y-20546181D02*
X7541610Y-20555705D01*
X7541610Y-20555705D02*
X7522562Y-20555705D01*
X7522562Y-20555705D02*
X7503515Y-20546181D01*
X7503515Y-20546181D02*
X7493991Y-20536657D01*
X7493991Y-20536657D02*
X7484467Y-20517609D01*
X7484467Y-20517609D02*
X7474943Y-20479514D01*
X7474943Y-20479514D02*
X7474943Y-20431895D01*
X7474943Y-20431895D02*
X7484467Y-20393800D01*
X7484467Y-20393800D02*
X7493991Y-20374752D01*
X7493991Y-20374752D02*
X7503515Y-20365229D01*
X7503515Y-20365229D02*
X7522562Y-20355705D01*
X7713039Y-20355705D02*
X7732086Y-20355705D01*
X7732086Y-20355705D02*
X7751134Y-20365229D01*
X7751134Y-20365229D02*
X7760658Y-20374752D01*
X7760658Y-20374752D02*
X7770182Y-20393800D01*
X7770182Y-20393800D02*
X7779705Y-20431895D01*
X7779705Y-20431895D02*
X7779705Y-20479514D01*
X7779705Y-20479514D02*
X7770182Y-20517609D01*
X7770182Y-20517609D02*
X7760658Y-20536657D01*
X7760658Y-20536657D02*
X7751134Y-20546181D01*
X7751134Y-20546181D02*
X7732086Y-20555705D01*
X7732086Y-20555705D02*
X7713039Y-20555705D01*
X7713039Y-20555705D02*
X7693991Y-20546181D01*
X7693991Y-20546181D02*
X7684467Y-20536657D01*
X7684467Y-20536657D02*
X7674943Y-20517609D01*
X7674943Y-20517609D02*
X7665420Y-20479514D01*
X7665420Y-20479514D02*
X7665420Y-20431895D01*
X7665420Y-20431895D02*
X7674943Y-20393800D01*
X7674943Y-20393800D02*
X7684467Y-20374752D01*
X7684467Y-20374752D02*
X7693991Y-20365229D01*
X7693991Y-20365229D02*
X7713039Y-20355705D01*
X7865420Y-20555705D02*
X7865420Y-20422371D01*
X7865420Y-20441419D02*
X7874943Y-20431895D01*
X7874943Y-20431895D02*
X7893991Y-20422371D01*
X7893991Y-20422371D02*
X7922563Y-20422371D01*
X7922563Y-20422371D02*
X7941610Y-20431895D01*
X7941610Y-20431895D02*
X7951134Y-20450943D01*
X7951134Y-20450943D02*
X7951134Y-20555705D01*
X7951134Y-20450943D02*
X7960658Y-20431895D01*
X7960658Y-20431895D02*
X7979705Y-20422371D01*
X7979705Y-20422371D02*
X8008277Y-20422371D01*
X8008277Y-20422371D02*
X8027324Y-20431895D01*
X8027324Y-20431895D02*
X8036848Y-20450943D01*
X8036848Y-20450943D02*
X8036848Y-20555705D01*
X8132086Y-20555705D02*
X8132086Y-20422371D01*
X8132086Y-20441419D02*
X8141610Y-20431895D01*
X8141610Y-20431895D02*
X8160658Y-20422371D01*
X8160658Y-20422371D02*
X8189229Y-20422371D01*
X8189229Y-20422371D02*
X8208277Y-20431895D01*
X8208277Y-20431895D02*
X8217801Y-20450943D01*
X8217801Y-20450943D02*
X8217801Y-20555705D01*
X8217801Y-20450943D02*
X8227324Y-20431895D01*
X8227324Y-20431895D02*
X8246372Y-20422371D01*
X8246372Y-20422371D02*
X8274943Y-20422371D01*
X8274943Y-20422371D02*
X8293991Y-20431895D01*
X8293991Y-20431895D02*
X8303515Y-20450943D01*
X8303515Y-20450943D02*
X8303515Y-20555705D01*
X8693991Y-20346181D02*
X8522563Y-20603324D01*
X8951134Y-20355705D02*
X8970182Y-20355705D01*
X8970182Y-20355705D02*
X8989229Y-20365229D01*
X8989229Y-20365229D02*
X8998753Y-20374752D01*
X8998753Y-20374752D02*
X9008277Y-20393800D01*
X9008277Y-20393800D02*
X9017801Y-20431895D01*
X9017801Y-20431895D02*
X9017801Y-20479514D01*
X9017801Y-20479514D02*
X9008277Y-20517609D01*
X9008277Y-20517609D02*
X8998753Y-20536657D01*
X8998753Y-20536657D02*
X8989229Y-20546181D01*
X8989229Y-20546181D02*
X8970182Y-20555705D01*
X8970182Y-20555705D02*
X8951134Y-20555705D01*
X8951134Y-20555705D02*
X8932087Y-20546181D01*
X8932087Y-20546181D02*
X8922563Y-20536657D01*
X8922563Y-20536657D02*
X8913039Y-20517609D01*
X8913039Y-20517609D02*
X8903515Y-20479514D01*
X8903515Y-20479514D02*
X8903515Y-20431895D01*
X8903515Y-20431895D02*
X8913039Y-20393800D01*
X8913039Y-20393800D02*
X8922563Y-20374752D01*
X8922563Y-20374752D02*
X8932087Y-20365229D01*
X8932087Y-20365229D02*
X8951134Y-20355705D01*
X9103515Y-20536657D02*
X9113039Y-20546181D01*
X9113039Y-20546181D02*
X9103515Y-20555705D01*
X9103515Y-20555705D02*
X9093991Y-20546181D01*
X9093991Y-20546181D02*
X9103515Y-20536657D01*
X9103515Y-20536657D02*
X9103515Y-20555705D01*
X9236848Y-20355705D02*
X9255896Y-20355705D01*
X9255896Y-20355705D02*
X9274944Y-20365229D01*
X9274944Y-20365229D02*
X9284468Y-20374752D01*
X9284468Y-20374752D02*
X9293991Y-20393800D01*
X9293991Y-20393800D02*
X9303515Y-20431895D01*
X9303515Y-20431895D02*
X9303515Y-20479514D01*
X9303515Y-20479514D02*
X9293991Y-20517609D01*
X9293991Y-20517609D02*
X9284468Y-20536657D01*
X9284468Y-20536657D02*
X9274944Y-20546181D01*
X9274944Y-20546181D02*
X9255896Y-20555705D01*
X9255896Y-20555705D02*
X9236848Y-20555705D01*
X9236848Y-20555705D02*
X9217801Y-20546181D01*
X9217801Y-20546181D02*
X9208277Y-20536657D01*
X9208277Y-20536657D02*
X9198753Y-20517609D01*
X9198753Y-20517609D02*
X9189229Y-20479514D01*
X9189229Y-20479514D02*
X9189229Y-20431895D01*
X9189229Y-20431895D02*
X9198753Y-20393800D01*
X9198753Y-20393800D02*
X9208277Y-20374752D01*
X9208277Y-20374752D02*
X9217801Y-20365229D01*
X9217801Y-20365229D02*
X9236848Y-20355705D01*
X9370182Y-20355705D02*
X9493991Y-20355705D01*
X9493991Y-20355705D02*
X9427325Y-20431895D01*
X9427325Y-20431895D02*
X9455896Y-20431895D01*
X9455896Y-20431895D02*
X9474944Y-20441419D01*
X9474944Y-20441419D02*
X9484468Y-20450943D01*
X9484468Y-20450943D02*
X9493991Y-20469990D01*
X9493991Y-20469990D02*
X9493991Y-20517609D01*
X9493991Y-20517609D02*
X9484468Y-20536657D01*
X9484468Y-20536657D02*
X9474944Y-20546181D01*
X9474944Y-20546181D02*
X9455896Y-20555705D01*
X9455896Y-20555705D02*
X9398753Y-20555705D01*
X9398753Y-20555705D02*
X9379706Y-20546181D01*
X9379706Y-20546181D02*
X9370182Y-20536657D01*
X9589229Y-20555705D02*
X9627325Y-20555705D01*
X9627325Y-20555705D02*
X9646372Y-20546181D01*
X9646372Y-20546181D02*
X9655896Y-20536657D01*
X9655896Y-20536657D02*
X9674944Y-20508086D01*
X9674944Y-20508086D02*
X9684468Y-20469990D01*
X9684468Y-20469990D02*
X9684468Y-20393800D01*
X9684468Y-20393800D02*
X9674944Y-20374752D01*
X9674944Y-20374752D02*
X9665420Y-20365229D01*
X9665420Y-20365229D02*
X9646372Y-20355705D01*
X9646372Y-20355705D02*
X9608277Y-20355705D01*
X9608277Y-20355705D02*
X9589229Y-20365229D01*
X9589229Y-20365229D02*
X9579706Y-20374752D01*
X9579706Y-20374752D02*
X9570182Y-20393800D01*
X9570182Y-20393800D02*
X9570182Y-20441419D01*
X9570182Y-20441419D02*
X9579706Y-20460467D01*
X9579706Y-20460467D02*
X9589229Y-20469990D01*
X9589229Y-20469990D02*
X9608277Y-20479514D01*
X9608277Y-20479514D02*
X9646372Y-20479514D01*
X9646372Y-20479514D02*
X9665420Y-20469990D01*
X9665420Y-20469990D02*
X9674944Y-20460467D01*
X9674944Y-20460467D02*
X9684468Y-20441419D01*
X9855896Y-20422371D02*
X9855896Y-20555705D01*
X9808277Y-20346181D02*
X9760658Y-20489038D01*
X9760658Y-20489038D02*
X9884468Y-20489038D01*
X9951134Y-20355705D02*
X9951134Y-20393800D01*
X10027325Y-20355705D02*
X10027325Y-20393800D01*
X10322563Y-20631895D02*
X10313039Y-20622371D01*
X10313039Y-20622371D02*
X10293991Y-20593800D01*
X10293991Y-20593800D02*
X10284468Y-20574752D01*
X10284468Y-20574752D02*
X10274944Y-20546181D01*
X10274944Y-20546181D02*
X10265420Y-20498562D01*
X10265420Y-20498562D02*
X10265420Y-20460467D01*
X10265420Y-20460467D02*
X10274944Y-20412848D01*
X10274944Y-20412848D02*
X10284468Y-20384276D01*
X10284468Y-20384276D02*
X10293991Y-20365229D01*
X10293991Y-20365229D02*
X10313039Y-20336657D01*
X10313039Y-20336657D02*
X10322563Y-20327133D01*
X10427325Y-20441419D02*
X10408277Y-20431895D01*
X10408277Y-20431895D02*
X10398753Y-20422371D01*
X10398753Y-20422371D02*
X10389230Y-20403324D01*
X10389230Y-20403324D02*
X10389230Y-20393800D01*
X10389230Y-20393800D02*
X10398753Y-20374752D01*
X10398753Y-20374752D02*
X10408277Y-20365229D01*
X10408277Y-20365229D02*
X10427325Y-20355705D01*
X10427325Y-20355705D02*
X10465420Y-20355705D01*
X10465420Y-20355705D02*
X10484468Y-20365229D01*
X10484468Y-20365229D02*
X10493991Y-20374752D01*
X10493991Y-20374752D02*
X10503515Y-20393800D01*
X10503515Y-20393800D02*
X10503515Y-20403324D01*
X10503515Y-20403324D02*
X10493991Y-20422371D01*
X10493991Y-20422371D02*
X10484468Y-20431895D01*
X10484468Y-20431895D02*
X10465420Y-20441419D01*
X10465420Y-20441419D02*
X10427325Y-20441419D01*
X10427325Y-20441419D02*
X10408277Y-20450943D01*
X10408277Y-20450943D02*
X10398753Y-20460467D01*
X10398753Y-20460467D02*
X10389230Y-20479514D01*
X10389230Y-20479514D02*
X10389230Y-20517609D01*
X10389230Y-20517609D02*
X10398753Y-20536657D01*
X10398753Y-20536657D02*
X10408277Y-20546181D01*
X10408277Y-20546181D02*
X10427325Y-20555705D01*
X10427325Y-20555705D02*
X10465420Y-20555705D01*
X10465420Y-20555705D02*
X10484468Y-20546181D01*
X10484468Y-20546181D02*
X10493991Y-20536657D01*
X10493991Y-20536657D02*
X10503515Y-20517609D01*
X10503515Y-20517609D02*
X10503515Y-20479514D01*
X10503515Y-20479514D02*
X10493991Y-20460467D01*
X10493991Y-20460467D02*
X10484468Y-20450943D01*
X10484468Y-20450943D02*
X10465420Y-20441419D01*
X10684468Y-20355705D02*
X10589230Y-20355705D01*
X10589230Y-20355705D02*
X10579706Y-20450943D01*
X10579706Y-20450943D02*
X10589230Y-20441419D01*
X10589230Y-20441419D02*
X10608277Y-20431895D01*
X10608277Y-20431895D02*
X10655896Y-20431895D01*
X10655896Y-20431895D02*
X10674944Y-20441419D01*
X10674944Y-20441419D02*
X10684468Y-20450943D01*
X10684468Y-20450943D02*
X10693991Y-20469990D01*
X10693991Y-20469990D02*
X10693991Y-20517609D01*
X10693991Y-20517609D02*
X10684468Y-20536657D01*
X10684468Y-20536657D02*
X10674944Y-20546181D01*
X10674944Y-20546181D02*
X10655896Y-20555705D01*
X10655896Y-20555705D02*
X10608277Y-20555705D01*
X10608277Y-20555705D02*
X10589230Y-20546181D01*
X10589230Y-20546181D02*
X10579706Y-20536657D01*
X10932087Y-20555705D02*
X10932087Y-20355705D01*
X11017801Y-20555705D02*
X11017801Y-20450943D01*
X11017801Y-20450943D02*
X11008277Y-20431895D01*
X11008277Y-20431895D02*
X10989230Y-20422371D01*
X10989230Y-20422371D02*
X10960658Y-20422371D01*
X10960658Y-20422371D02*
X10941611Y-20431895D01*
X10941611Y-20431895D02*
X10932087Y-20441419D01*
X11141611Y-20555705D02*
X11122563Y-20546181D01*
X11122563Y-20546181D02*
X11113039Y-20536657D01*
X11113039Y-20536657D02*
X11103515Y-20517609D01*
X11103515Y-20517609D02*
X11103515Y-20460467D01*
X11103515Y-20460467D02*
X11113039Y-20441419D01*
X11113039Y-20441419D02*
X11122563Y-20431895D01*
X11122563Y-20431895D02*
X11141611Y-20422371D01*
X11141611Y-20422371D02*
X11170182Y-20422371D01*
X11170182Y-20422371D02*
X11189230Y-20431895D01*
X11189230Y-20431895D02*
X11198753Y-20441419D01*
X11198753Y-20441419D02*
X11208277Y-20460467D01*
X11208277Y-20460467D02*
X11208277Y-20517609D01*
X11208277Y-20517609D02*
X11198753Y-20536657D01*
X11198753Y-20536657D02*
X11189230Y-20546181D01*
X11189230Y-20546181D02*
X11170182Y-20555705D01*
X11170182Y-20555705D02*
X11141611Y-20555705D01*
X11322563Y-20555705D02*
X11303515Y-20546181D01*
X11303515Y-20546181D02*
X11293991Y-20527133D01*
X11293991Y-20527133D02*
X11293991Y-20355705D01*
X11474944Y-20546181D02*
X11455896Y-20555705D01*
X11455896Y-20555705D02*
X11417801Y-20555705D01*
X11417801Y-20555705D02*
X11398753Y-20546181D01*
X11398753Y-20546181D02*
X11389230Y-20527133D01*
X11389230Y-20527133D02*
X11389230Y-20450943D01*
X11389230Y-20450943D02*
X11398753Y-20431895D01*
X11398753Y-20431895D02*
X11417801Y-20422371D01*
X11417801Y-20422371D02*
X11455896Y-20422371D01*
X11455896Y-20422371D02*
X11474944Y-20431895D01*
X11474944Y-20431895D02*
X11484468Y-20450943D01*
X11484468Y-20450943D02*
X11484468Y-20469990D01*
X11484468Y-20469990D02*
X11389230Y-20489038D01*
X11560658Y-20546181D02*
X11579706Y-20555705D01*
X11579706Y-20555705D02*
X11617801Y-20555705D01*
X11617801Y-20555705D02*
X11636849Y-20546181D01*
X11636849Y-20546181D02*
X11646372Y-20527133D01*
X11646372Y-20527133D02*
X11646372Y-20517609D01*
X11646372Y-20517609D02*
X11636849Y-20498562D01*
X11636849Y-20498562D02*
X11617801Y-20489038D01*
X11617801Y-20489038D02*
X11589230Y-20489038D01*
X11589230Y-20489038D02*
X11570182Y-20479514D01*
X11570182Y-20479514D02*
X11560658Y-20460467D01*
X11560658Y-20460467D02*
X11560658Y-20450943D01*
X11560658Y-20450943D02*
X11570182Y-20431895D01*
X11570182Y-20431895D02*
X11589230Y-20422371D01*
X11589230Y-20422371D02*
X11617801Y-20422371D01*
X11617801Y-20422371D02*
X11636849Y-20431895D01*
X11713039Y-20631895D02*
X11722563Y-20622371D01*
X11722563Y-20622371D02*
X11741611Y-20593800D01*
X11741611Y-20593800D02*
X11751134Y-20574752D01*
X11751134Y-20574752D02*
X11760658Y-20546181D01*
X11760658Y-20546181D02*
X11770182Y-20498562D01*
X11770182Y-20498562D02*
X11770182Y-20460467D01*
X11770182Y-20460467D02*
X11760658Y-20412848D01*
X11760658Y-20412848D02*
X11751134Y-20384276D01*
X11751134Y-20384276D02*
X11741611Y-20365229D01*
X11741611Y-20365229D02*
X11722563Y-20336657D01*
X11722563Y-20336657D02*
X11713039Y-20327133D01*
D13*
X6731505Y-20766836D02*
X6731505Y-20689605D01*
X6654274Y-20689605D01*
X6654274Y-20766836D01*
X6731505Y-20766836D01*
D12*
X7113039Y-20819705D02*
X6998753Y-20819705D01*
X7055896Y-20819705D02*
X7055896Y-20619705D01*
X7055896Y-20619705D02*
X7036848Y-20648276D01*
X7036848Y-20648276D02*
X7017801Y-20667324D01*
X7017801Y-20667324D02*
X6998753Y-20676848D01*
X7198753Y-20800657D02*
X7208277Y-20810181D01*
X7208277Y-20810181D02*
X7198753Y-20819705D01*
X7198753Y-20819705D02*
X7189229Y-20810181D01*
X7189229Y-20810181D02*
X7198753Y-20800657D01*
X7198753Y-20800657D02*
X7198753Y-20819705D01*
X7332086Y-20619705D02*
X7351134Y-20619705D01*
X7351134Y-20619705D02*
X7370182Y-20629229D01*
X7370182Y-20629229D02*
X7379705Y-20638752D01*
X7379705Y-20638752D02*
X7389229Y-20657800D01*
X7389229Y-20657800D02*
X7398753Y-20695895D01*
X7398753Y-20695895D02*
X7398753Y-20743514D01*
X7398753Y-20743514D02*
X7389229Y-20781609D01*
X7389229Y-20781609D02*
X7379705Y-20800657D01*
X7379705Y-20800657D02*
X7370182Y-20810181D01*
X7370182Y-20810181D02*
X7351134Y-20819705D01*
X7351134Y-20819705D02*
X7332086Y-20819705D01*
X7332086Y-20819705D02*
X7313039Y-20810181D01*
X7313039Y-20810181D02*
X7303515Y-20800657D01*
X7303515Y-20800657D02*
X7293991Y-20781609D01*
X7293991Y-20781609D02*
X7284467Y-20743514D01*
X7284467Y-20743514D02*
X7284467Y-20695895D01*
X7284467Y-20695895D02*
X7293991Y-20657800D01*
X7293991Y-20657800D02*
X7303515Y-20638752D01*
X7303515Y-20638752D02*
X7313039Y-20629229D01*
X7313039Y-20629229D02*
X7332086Y-20619705D01*
X7493991Y-20819705D02*
X7532086Y-20819705D01*
X7532086Y-20819705D02*
X7551134Y-20810181D01*
X7551134Y-20810181D02*
X7560658Y-20800657D01*
X7560658Y-20800657D02*
X7579705Y-20772086D01*
X7579705Y-20772086D02*
X7589229Y-20733990D01*
X7589229Y-20733990D02*
X7589229Y-20657800D01*
X7589229Y-20657800D02*
X7579705Y-20638752D01*
X7579705Y-20638752D02*
X7570182Y-20629229D01*
X7570182Y-20629229D02*
X7551134Y-20619705D01*
X7551134Y-20619705D02*
X7513039Y-20619705D01*
X7513039Y-20619705D02*
X7493991Y-20629229D01*
X7493991Y-20629229D02*
X7484467Y-20638752D01*
X7484467Y-20638752D02*
X7474943Y-20657800D01*
X7474943Y-20657800D02*
X7474943Y-20705419D01*
X7474943Y-20705419D02*
X7484467Y-20724467D01*
X7484467Y-20724467D02*
X7493991Y-20733990D01*
X7493991Y-20733990D02*
X7513039Y-20743514D01*
X7513039Y-20743514D02*
X7551134Y-20743514D01*
X7551134Y-20743514D02*
X7570182Y-20733990D01*
X7570182Y-20733990D02*
X7579705Y-20724467D01*
X7579705Y-20724467D02*
X7589229Y-20705419D01*
X7665420Y-20638752D02*
X7674943Y-20629229D01*
X7674943Y-20629229D02*
X7693991Y-20619705D01*
X7693991Y-20619705D02*
X7741610Y-20619705D01*
X7741610Y-20619705D02*
X7760658Y-20629229D01*
X7760658Y-20629229D02*
X7770182Y-20638752D01*
X7770182Y-20638752D02*
X7779705Y-20657800D01*
X7779705Y-20657800D02*
X7779705Y-20676848D01*
X7779705Y-20676848D02*
X7770182Y-20705419D01*
X7770182Y-20705419D02*
X7655896Y-20819705D01*
X7655896Y-20819705D02*
X7779705Y-20819705D01*
X7865420Y-20819705D02*
X7865420Y-20686371D01*
X7865420Y-20705419D02*
X7874943Y-20695895D01*
X7874943Y-20695895D02*
X7893991Y-20686371D01*
X7893991Y-20686371D02*
X7922563Y-20686371D01*
X7922563Y-20686371D02*
X7941610Y-20695895D01*
X7941610Y-20695895D02*
X7951134Y-20714943D01*
X7951134Y-20714943D02*
X7951134Y-20819705D01*
X7951134Y-20714943D02*
X7960658Y-20695895D01*
X7960658Y-20695895D02*
X7979705Y-20686371D01*
X7979705Y-20686371D02*
X8008277Y-20686371D01*
X8008277Y-20686371D02*
X8027324Y-20695895D01*
X8027324Y-20695895D02*
X8036848Y-20714943D01*
X8036848Y-20714943D02*
X8036848Y-20819705D01*
X8132086Y-20819705D02*
X8132086Y-20686371D01*
X8132086Y-20705419D02*
X8141610Y-20695895D01*
X8141610Y-20695895D02*
X8160658Y-20686371D01*
X8160658Y-20686371D02*
X8189229Y-20686371D01*
X8189229Y-20686371D02*
X8208277Y-20695895D01*
X8208277Y-20695895D02*
X8217801Y-20714943D01*
X8217801Y-20714943D02*
X8217801Y-20819705D01*
X8217801Y-20714943D02*
X8227324Y-20695895D01*
X8227324Y-20695895D02*
X8246372Y-20686371D01*
X8246372Y-20686371D02*
X8274943Y-20686371D01*
X8274943Y-20686371D02*
X8293991Y-20695895D01*
X8293991Y-20695895D02*
X8303515Y-20714943D01*
X8303515Y-20714943D02*
X8303515Y-20819705D01*
X8693991Y-20610181D02*
X8522563Y-20867324D01*
X8951134Y-20619705D02*
X8970182Y-20619705D01*
X8970182Y-20619705D02*
X8989229Y-20629229D01*
X8989229Y-20629229D02*
X8998753Y-20638752D01*
X8998753Y-20638752D02*
X9008277Y-20657800D01*
X9008277Y-20657800D02*
X9017801Y-20695895D01*
X9017801Y-20695895D02*
X9017801Y-20743514D01*
X9017801Y-20743514D02*
X9008277Y-20781609D01*
X9008277Y-20781609D02*
X8998753Y-20800657D01*
X8998753Y-20800657D02*
X8989229Y-20810181D01*
X8989229Y-20810181D02*
X8970182Y-20819705D01*
X8970182Y-20819705D02*
X8951134Y-20819705D01*
X8951134Y-20819705D02*
X8932087Y-20810181D01*
X8932087Y-20810181D02*
X8922563Y-20800657D01*
X8922563Y-20800657D02*
X8913039Y-20781609D01*
X8913039Y-20781609D02*
X8903515Y-20743514D01*
X8903515Y-20743514D02*
X8903515Y-20695895D01*
X8903515Y-20695895D02*
X8913039Y-20657800D01*
X8913039Y-20657800D02*
X8922563Y-20638752D01*
X8922563Y-20638752D02*
X8932087Y-20629229D01*
X8932087Y-20629229D02*
X8951134Y-20619705D01*
X9103515Y-20800657D02*
X9113039Y-20810181D01*
X9113039Y-20810181D02*
X9103515Y-20819705D01*
X9103515Y-20819705D02*
X9093991Y-20810181D01*
X9093991Y-20810181D02*
X9103515Y-20800657D01*
X9103515Y-20800657D02*
X9103515Y-20819705D01*
X9236848Y-20619705D02*
X9255896Y-20619705D01*
X9255896Y-20619705D02*
X9274944Y-20629229D01*
X9274944Y-20629229D02*
X9284468Y-20638752D01*
X9284468Y-20638752D02*
X9293991Y-20657800D01*
X9293991Y-20657800D02*
X9303515Y-20695895D01*
X9303515Y-20695895D02*
X9303515Y-20743514D01*
X9303515Y-20743514D02*
X9293991Y-20781609D01*
X9293991Y-20781609D02*
X9284468Y-20800657D01*
X9284468Y-20800657D02*
X9274944Y-20810181D01*
X9274944Y-20810181D02*
X9255896Y-20819705D01*
X9255896Y-20819705D02*
X9236848Y-20819705D01*
X9236848Y-20819705D02*
X9217801Y-20810181D01*
X9217801Y-20810181D02*
X9208277Y-20800657D01*
X9208277Y-20800657D02*
X9198753Y-20781609D01*
X9198753Y-20781609D02*
X9189229Y-20743514D01*
X9189229Y-20743514D02*
X9189229Y-20695895D01*
X9189229Y-20695895D02*
X9198753Y-20657800D01*
X9198753Y-20657800D02*
X9208277Y-20638752D01*
X9208277Y-20638752D02*
X9217801Y-20629229D01*
X9217801Y-20629229D02*
X9236848Y-20619705D01*
X9474944Y-20686371D02*
X9474944Y-20819705D01*
X9427325Y-20610181D02*
X9379706Y-20753038D01*
X9379706Y-20753038D02*
X9503515Y-20753038D01*
X9560658Y-20619705D02*
X9684468Y-20619705D01*
X9684468Y-20619705D02*
X9617801Y-20695895D01*
X9617801Y-20695895D02*
X9646372Y-20695895D01*
X9646372Y-20695895D02*
X9665420Y-20705419D01*
X9665420Y-20705419D02*
X9674944Y-20714943D01*
X9674944Y-20714943D02*
X9684468Y-20733990D01*
X9684468Y-20733990D02*
X9684468Y-20781609D01*
X9684468Y-20781609D02*
X9674944Y-20800657D01*
X9674944Y-20800657D02*
X9665420Y-20810181D01*
X9665420Y-20810181D02*
X9646372Y-20819705D01*
X9646372Y-20819705D02*
X9589229Y-20819705D01*
X9589229Y-20819705D02*
X9570182Y-20810181D01*
X9570182Y-20810181D02*
X9560658Y-20800657D01*
X9808277Y-20619705D02*
X9827325Y-20619705D01*
X9827325Y-20619705D02*
X9846372Y-20629229D01*
X9846372Y-20629229D02*
X9855896Y-20638752D01*
X9855896Y-20638752D02*
X9865420Y-20657800D01*
X9865420Y-20657800D02*
X9874944Y-20695895D01*
X9874944Y-20695895D02*
X9874944Y-20743514D01*
X9874944Y-20743514D02*
X9865420Y-20781609D01*
X9865420Y-20781609D02*
X9855896Y-20800657D01*
X9855896Y-20800657D02*
X9846372Y-20810181D01*
X9846372Y-20810181D02*
X9827325Y-20819705D01*
X9827325Y-20819705D02*
X9808277Y-20819705D01*
X9808277Y-20819705D02*
X9789229Y-20810181D01*
X9789229Y-20810181D02*
X9779706Y-20800657D01*
X9779706Y-20800657D02*
X9770182Y-20781609D01*
X9770182Y-20781609D02*
X9760658Y-20743514D01*
X9760658Y-20743514D02*
X9760658Y-20695895D01*
X9760658Y-20695895D02*
X9770182Y-20657800D01*
X9770182Y-20657800D02*
X9779706Y-20638752D01*
X9779706Y-20638752D02*
X9789229Y-20629229D01*
X9789229Y-20629229D02*
X9808277Y-20619705D01*
X9951134Y-20619705D02*
X9951134Y-20657800D01*
X10027325Y-20619705D02*
X10027325Y-20657800D01*
X10322563Y-20895895D02*
X10313039Y-20886371D01*
X10313039Y-20886371D02*
X10293991Y-20857800D01*
X10293991Y-20857800D02*
X10284468Y-20838752D01*
X10284468Y-20838752D02*
X10274944Y-20810181D01*
X10274944Y-20810181D02*
X10265420Y-20762562D01*
X10265420Y-20762562D02*
X10265420Y-20724467D01*
X10265420Y-20724467D02*
X10274944Y-20676848D01*
X10274944Y-20676848D02*
X10284468Y-20648276D01*
X10284468Y-20648276D02*
X10293991Y-20629229D01*
X10293991Y-20629229D02*
X10313039Y-20600657D01*
X10313039Y-20600657D02*
X10322563Y-20591133D01*
X10389230Y-20638752D02*
X10398753Y-20629229D01*
X10398753Y-20629229D02*
X10417801Y-20619705D01*
X10417801Y-20619705D02*
X10465420Y-20619705D01*
X10465420Y-20619705D02*
X10484468Y-20629229D01*
X10484468Y-20629229D02*
X10493991Y-20638752D01*
X10493991Y-20638752D02*
X10503515Y-20657800D01*
X10503515Y-20657800D02*
X10503515Y-20676848D01*
X10503515Y-20676848D02*
X10493991Y-20705419D01*
X10493991Y-20705419D02*
X10379706Y-20819705D01*
X10379706Y-20819705D02*
X10503515Y-20819705D01*
X10674944Y-20686371D02*
X10674944Y-20819705D01*
X10627325Y-20610181D02*
X10579706Y-20753038D01*
X10579706Y-20753038D02*
X10703515Y-20753038D01*
X10932087Y-20819705D02*
X10932087Y-20619705D01*
X11017801Y-20819705D02*
X11017801Y-20714943D01*
X11017801Y-20714943D02*
X11008277Y-20695895D01*
X11008277Y-20695895D02*
X10989230Y-20686371D01*
X10989230Y-20686371D02*
X10960658Y-20686371D01*
X10960658Y-20686371D02*
X10941611Y-20695895D01*
X10941611Y-20695895D02*
X10932087Y-20705419D01*
X11141611Y-20819705D02*
X11122563Y-20810181D01*
X11122563Y-20810181D02*
X11113039Y-20800657D01*
X11113039Y-20800657D02*
X11103515Y-20781609D01*
X11103515Y-20781609D02*
X11103515Y-20724467D01*
X11103515Y-20724467D02*
X11113039Y-20705419D01*
X11113039Y-20705419D02*
X11122563Y-20695895D01*
X11122563Y-20695895D02*
X11141611Y-20686371D01*
X11141611Y-20686371D02*
X11170182Y-20686371D01*
X11170182Y-20686371D02*
X11189230Y-20695895D01*
X11189230Y-20695895D02*
X11198753Y-20705419D01*
X11198753Y-20705419D02*
X11208277Y-20724467D01*
X11208277Y-20724467D02*
X11208277Y-20781609D01*
X11208277Y-20781609D02*
X11198753Y-20800657D01*
X11198753Y-20800657D02*
X11189230Y-20810181D01*
X11189230Y-20810181D02*
X11170182Y-20819705D01*
X11170182Y-20819705D02*
X11141611Y-20819705D01*
X11322563Y-20819705D02*
X11303515Y-20810181D01*
X11303515Y-20810181D02*
X11293991Y-20791133D01*
X11293991Y-20791133D02*
X11293991Y-20619705D01*
X11474944Y-20810181D02*
X11455896Y-20819705D01*
X11455896Y-20819705D02*
X11417801Y-20819705D01*
X11417801Y-20819705D02*
X11398753Y-20810181D01*
X11398753Y-20810181D02*
X11389230Y-20791133D01*
X11389230Y-20791133D02*
X11389230Y-20714943D01*
X11389230Y-20714943D02*
X11398753Y-20695895D01*
X11398753Y-20695895D02*
X11417801Y-20686371D01*
X11417801Y-20686371D02*
X11455896Y-20686371D01*
X11455896Y-20686371D02*
X11474944Y-20695895D01*
X11474944Y-20695895D02*
X11484468Y-20714943D01*
X11484468Y-20714943D02*
X11484468Y-20733990D01*
X11484468Y-20733990D02*
X11389230Y-20753038D01*
X11560658Y-20810181D02*
X11579706Y-20819705D01*
X11579706Y-20819705D02*
X11617801Y-20819705D01*
X11617801Y-20819705D02*
X11636849Y-20810181D01*
X11636849Y-20810181D02*
X11646372Y-20791133D01*
X11646372Y-20791133D02*
X11646372Y-20781609D01*
X11646372Y-20781609D02*
X11636849Y-20762562D01*
X11636849Y-20762562D02*
X11617801Y-20753038D01*
X11617801Y-20753038D02*
X11589230Y-20753038D01*
X11589230Y-20753038D02*
X11570182Y-20743514D01*
X11570182Y-20743514D02*
X11560658Y-20724467D01*
X11560658Y-20724467D02*
X11560658Y-20714943D01*
X11560658Y-20714943D02*
X11570182Y-20695895D01*
X11570182Y-20695895D02*
X11589230Y-20686371D01*
X11589230Y-20686371D02*
X11617801Y-20686371D01*
X11617801Y-20686371D02*
X11636849Y-20695895D01*
X11713039Y-20895895D02*
X11722563Y-20886371D01*
X11722563Y-20886371D02*
X11741611Y-20857800D01*
X11741611Y-20857800D02*
X11751134Y-20838752D01*
X11751134Y-20838752D02*
X11760658Y-20810181D01*
X11760658Y-20810181D02*
X11770182Y-20762562D01*
X11770182Y-20762562D02*
X11770182Y-20724467D01*
X11770182Y-20724467D02*
X11760658Y-20676848D01*
X11760658Y-20676848D02*
X11751134Y-20648276D01*
X11751134Y-20648276D02*
X11741611Y-20629229D01*
X11741611Y-20629229D02*
X11722563Y-20600657D01*
X11722563Y-20600657D02*
X11713039Y-20591133D01*
D14*
X6674000Y-21065721D02*
X6747500Y-20992221D01*
X6674000Y-20918721D01*
X6600500Y-20992221D01*
X6674000Y-21065721D01*
D12*
X7113039Y-21083705D02*
X6998753Y-21083705D01*
X7055896Y-21083705D02*
X7055896Y-20883705D01*
X7055896Y-20883705D02*
X7036848Y-20912276D01*
X7036848Y-20912276D02*
X7017801Y-20931324D01*
X7017801Y-20931324D02*
X6998753Y-20940848D01*
X7198753Y-21064657D02*
X7208277Y-21074181D01*
X7208277Y-21074181D02*
X7198753Y-21083705D01*
X7198753Y-21083705D02*
X7189229Y-21074181D01*
X7189229Y-21074181D02*
X7198753Y-21064657D01*
X7198753Y-21064657D02*
X7198753Y-21083705D01*
X7379705Y-20950371D02*
X7379705Y-21083705D01*
X7332086Y-20874181D02*
X7284467Y-21017038D01*
X7284467Y-21017038D02*
X7408277Y-21017038D01*
X7465420Y-20883705D02*
X7598753Y-20883705D01*
X7598753Y-20883705D02*
X7513039Y-21083705D01*
X7713039Y-20883705D02*
X7732086Y-20883705D01*
X7732086Y-20883705D02*
X7751134Y-20893229D01*
X7751134Y-20893229D02*
X7760658Y-20902752D01*
X7760658Y-20902752D02*
X7770182Y-20921800D01*
X7770182Y-20921800D02*
X7779705Y-20959895D01*
X7779705Y-20959895D02*
X7779705Y-21007514D01*
X7779705Y-21007514D02*
X7770182Y-21045609D01*
X7770182Y-21045609D02*
X7760658Y-21064657D01*
X7760658Y-21064657D02*
X7751134Y-21074181D01*
X7751134Y-21074181D02*
X7732086Y-21083705D01*
X7732086Y-21083705D02*
X7713039Y-21083705D01*
X7713039Y-21083705D02*
X7693991Y-21074181D01*
X7693991Y-21074181D02*
X7684467Y-21064657D01*
X7684467Y-21064657D02*
X7674943Y-21045609D01*
X7674943Y-21045609D02*
X7665420Y-21007514D01*
X7665420Y-21007514D02*
X7665420Y-20959895D01*
X7665420Y-20959895D02*
X7674943Y-20921800D01*
X7674943Y-20921800D02*
X7684467Y-20902752D01*
X7684467Y-20902752D02*
X7693991Y-20893229D01*
X7693991Y-20893229D02*
X7713039Y-20883705D01*
X7865420Y-21083705D02*
X7865420Y-20950371D01*
X7865420Y-20969419D02*
X7874943Y-20959895D01*
X7874943Y-20959895D02*
X7893991Y-20950371D01*
X7893991Y-20950371D02*
X7922563Y-20950371D01*
X7922563Y-20950371D02*
X7941610Y-20959895D01*
X7941610Y-20959895D02*
X7951134Y-20978943D01*
X7951134Y-20978943D02*
X7951134Y-21083705D01*
X7951134Y-20978943D02*
X7960658Y-20959895D01*
X7960658Y-20959895D02*
X7979705Y-20950371D01*
X7979705Y-20950371D02*
X8008277Y-20950371D01*
X8008277Y-20950371D02*
X8027324Y-20959895D01*
X8027324Y-20959895D02*
X8036848Y-20978943D01*
X8036848Y-20978943D02*
X8036848Y-21083705D01*
X8132086Y-21083705D02*
X8132086Y-20950371D01*
X8132086Y-20969419D02*
X8141610Y-20959895D01*
X8141610Y-20959895D02*
X8160658Y-20950371D01*
X8160658Y-20950371D02*
X8189229Y-20950371D01*
X8189229Y-20950371D02*
X8208277Y-20959895D01*
X8208277Y-20959895D02*
X8217801Y-20978943D01*
X8217801Y-20978943D02*
X8217801Y-21083705D01*
X8217801Y-20978943D02*
X8227324Y-20959895D01*
X8227324Y-20959895D02*
X8246372Y-20950371D01*
X8246372Y-20950371D02*
X8274943Y-20950371D01*
X8274943Y-20950371D02*
X8293991Y-20959895D01*
X8293991Y-20959895D02*
X8303515Y-20978943D01*
X8303515Y-20978943D02*
X8303515Y-21083705D01*
X8693991Y-20874181D02*
X8522563Y-21131324D01*
X8951134Y-20883705D02*
X8970182Y-20883705D01*
X8970182Y-20883705D02*
X8989229Y-20893229D01*
X8989229Y-20893229D02*
X8998753Y-20902752D01*
X8998753Y-20902752D02*
X9008277Y-20921800D01*
X9008277Y-20921800D02*
X9017801Y-20959895D01*
X9017801Y-20959895D02*
X9017801Y-21007514D01*
X9017801Y-21007514D02*
X9008277Y-21045609D01*
X9008277Y-21045609D02*
X8998753Y-21064657D01*
X8998753Y-21064657D02*
X8989229Y-21074181D01*
X8989229Y-21074181D02*
X8970182Y-21083705D01*
X8970182Y-21083705D02*
X8951134Y-21083705D01*
X8951134Y-21083705D02*
X8932087Y-21074181D01*
X8932087Y-21074181D02*
X8922563Y-21064657D01*
X8922563Y-21064657D02*
X8913039Y-21045609D01*
X8913039Y-21045609D02*
X8903515Y-21007514D01*
X8903515Y-21007514D02*
X8903515Y-20959895D01*
X8903515Y-20959895D02*
X8913039Y-20921800D01*
X8913039Y-20921800D02*
X8922563Y-20902752D01*
X8922563Y-20902752D02*
X8932087Y-20893229D01*
X8932087Y-20893229D02*
X8951134Y-20883705D01*
X9103515Y-21064657D02*
X9113039Y-21074181D01*
X9113039Y-21074181D02*
X9103515Y-21083705D01*
X9103515Y-21083705D02*
X9093991Y-21074181D01*
X9093991Y-21074181D02*
X9103515Y-21064657D01*
X9103515Y-21064657D02*
X9103515Y-21083705D01*
X9236848Y-20883705D02*
X9255896Y-20883705D01*
X9255896Y-20883705D02*
X9274944Y-20893229D01*
X9274944Y-20893229D02*
X9284468Y-20902752D01*
X9284468Y-20902752D02*
X9293991Y-20921800D01*
X9293991Y-20921800D02*
X9303515Y-20959895D01*
X9303515Y-20959895D02*
X9303515Y-21007514D01*
X9303515Y-21007514D02*
X9293991Y-21045609D01*
X9293991Y-21045609D02*
X9284468Y-21064657D01*
X9284468Y-21064657D02*
X9274944Y-21074181D01*
X9274944Y-21074181D02*
X9255896Y-21083705D01*
X9255896Y-21083705D02*
X9236848Y-21083705D01*
X9236848Y-21083705D02*
X9217801Y-21074181D01*
X9217801Y-21074181D02*
X9208277Y-21064657D01*
X9208277Y-21064657D02*
X9198753Y-21045609D01*
X9198753Y-21045609D02*
X9189229Y-21007514D01*
X9189229Y-21007514D02*
X9189229Y-20959895D01*
X9189229Y-20959895D02*
X9198753Y-20921800D01*
X9198753Y-20921800D02*
X9208277Y-20902752D01*
X9208277Y-20902752D02*
X9217801Y-20893229D01*
X9217801Y-20893229D02*
X9236848Y-20883705D01*
X9484468Y-20883705D02*
X9389229Y-20883705D01*
X9389229Y-20883705D02*
X9379706Y-20978943D01*
X9379706Y-20978943D02*
X9389229Y-20969419D01*
X9389229Y-20969419D02*
X9408277Y-20959895D01*
X9408277Y-20959895D02*
X9455896Y-20959895D01*
X9455896Y-20959895D02*
X9474944Y-20969419D01*
X9474944Y-20969419D02*
X9484468Y-20978943D01*
X9484468Y-20978943D02*
X9493991Y-20997990D01*
X9493991Y-20997990D02*
X9493991Y-21045609D01*
X9493991Y-21045609D02*
X9484468Y-21064657D01*
X9484468Y-21064657D02*
X9474944Y-21074181D01*
X9474944Y-21074181D02*
X9455896Y-21083705D01*
X9455896Y-21083705D02*
X9408277Y-21083705D01*
X9408277Y-21083705D02*
X9389229Y-21074181D01*
X9389229Y-21074181D02*
X9379706Y-21064657D01*
X9560658Y-20883705D02*
X9693991Y-20883705D01*
X9693991Y-20883705D02*
X9608277Y-21083705D01*
X9779706Y-21083705D02*
X9817801Y-21083705D01*
X9817801Y-21083705D02*
X9836849Y-21074181D01*
X9836849Y-21074181D02*
X9846372Y-21064657D01*
X9846372Y-21064657D02*
X9865420Y-21036086D01*
X9865420Y-21036086D02*
X9874944Y-20997990D01*
X9874944Y-20997990D02*
X9874944Y-20921800D01*
X9874944Y-20921800D02*
X9865420Y-20902752D01*
X9865420Y-20902752D02*
X9855896Y-20893229D01*
X9855896Y-20893229D02*
X9836849Y-20883705D01*
X9836849Y-20883705D02*
X9798753Y-20883705D01*
X9798753Y-20883705D02*
X9779706Y-20893229D01*
X9779706Y-20893229D02*
X9770182Y-20902752D01*
X9770182Y-20902752D02*
X9760658Y-20921800D01*
X9760658Y-20921800D02*
X9760658Y-20969419D01*
X9760658Y-20969419D02*
X9770182Y-20988467D01*
X9770182Y-20988467D02*
X9779706Y-20997990D01*
X9779706Y-20997990D02*
X9798753Y-21007514D01*
X9798753Y-21007514D02*
X9836849Y-21007514D01*
X9836849Y-21007514D02*
X9855896Y-20997990D01*
X9855896Y-20997990D02*
X9865420Y-20988467D01*
X9865420Y-20988467D02*
X9874944Y-20969419D01*
X9951134Y-20883705D02*
X9951134Y-20921800D01*
X10027325Y-20883705D02*
X10027325Y-20921800D01*
X10322563Y-21159895D02*
X10313039Y-21150371D01*
X10313039Y-21150371D02*
X10293991Y-21121800D01*
X10293991Y-21121800D02*
X10284468Y-21102752D01*
X10284468Y-21102752D02*
X10274944Y-21074181D01*
X10274944Y-21074181D02*
X10265420Y-21026562D01*
X10265420Y-21026562D02*
X10265420Y-20988467D01*
X10265420Y-20988467D02*
X10274944Y-20940848D01*
X10274944Y-20940848D02*
X10284468Y-20912276D01*
X10284468Y-20912276D02*
X10293991Y-20893229D01*
X10293991Y-20893229D02*
X10313039Y-20864657D01*
X10313039Y-20864657D02*
X10322563Y-20855133D01*
X10379706Y-20883705D02*
X10513039Y-20883705D01*
X10513039Y-20883705D02*
X10427325Y-21083705D01*
X10674944Y-20950371D02*
X10674944Y-21083705D01*
X10627325Y-20874181D02*
X10579706Y-21017038D01*
X10579706Y-21017038D02*
X10703515Y-21017038D01*
X10932087Y-21083705D02*
X10932087Y-20883705D01*
X11017801Y-21083705D02*
X11017801Y-20978943D01*
X11017801Y-20978943D02*
X11008277Y-20959895D01*
X11008277Y-20959895D02*
X10989230Y-20950371D01*
X10989230Y-20950371D02*
X10960658Y-20950371D01*
X10960658Y-20950371D02*
X10941611Y-20959895D01*
X10941611Y-20959895D02*
X10932087Y-20969419D01*
X11141611Y-21083705D02*
X11122563Y-21074181D01*
X11122563Y-21074181D02*
X11113039Y-21064657D01*
X11113039Y-21064657D02*
X11103515Y-21045609D01*
X11103515Y-21045609D02*
X11103515Y-20988467D01*
X11103515Y-20988467D02*
X11113039Y-20969419D01*
X11113039Y-20969419D02*
X11122563Y-20959895D01*
X11122563Y-20959895D02*
X11141611Y-20950371D01*
X11141611Y-20950371D02*
X11170182Y-20950371D01*
X11170182Y-20950371D02*
X11189230Y-20959895D01*
X11189230Y-20959895D02*
X11198753Y-20969419D01*
X11198753Y-20969419D02*
X11208277Y-20988467D01*
X11208277Y-20988467D02*
X11208277Y-21045609D01*
X11208277Y-21045609D02*
X11198753Y-21064657D01*
X11198753Y-21064657D02*
X11189230Y-21074181D01*
X11189230Y-21074181D02*
X11170182Y-21083705D01*
X11170182Y-21083705D02*
X11141611Y-21083705D01*
X11322563Y-21083705D02*
X11303515Y-21074181D01*
X11303515Y-21074181D02*
X11293991Y-21055133D01*
X11293991Y-21055133D02*
X11293991Y-20883705D01*
X11474944Y-21074181D02*
X11455896Y-21083705D01*
X11455896Y-21083705D02*
X11417801Y-21083705D01*
X11417801Y-21083705D02*
X11398753Y-21074181D01*
X11398753Y-21074181D02*
X11389230Y-21055133D01*
X11389230Y-21055133D02*
X11389230Y-20978943D01*
X11389230Y-20978943D02*
X11398753Y-20959895D01*
X11398753Y-20959895D02*
X11417801Y-20950371D01*
X11417801Y-20950371D02*
X11455896Y-20950371D01*
X11455896Y-20950371D02*
X11474944Y-20959895D01*
X11474944Y-20959895D02*
X11484468Y-20978943D01*
X11484468Y-20978943D02*
X11484468Y-20997990D01*
X11484468Y-20997990D02*
X11389230Y-21017038D01*
X11560658Y-21074181D02*
X11579706Y-21083705D01*
X11579706Y-21083705D02*
X11617801Y-21083705D01*
X11617801Y-21083705D02*
X11636849Y-21074181D01*
X11636849Y-21074181D02*
X11646372Y-21055133D01*
X11646372Y-21055133D02*
X11646372Y-21045609D01*
X11646372Y-21045609D02*
X11636849Y-21026562D01*
X11636849Y-21026562D02*
X11617801Y-21017038D01*
X11617801Y-21017038D02*
X11589230Y-21017038D01*
X11589230Y-21017038D02*
X11570182Y-21007514D01*
X11570182Y-21007514D02*
X11560658Y-20988467D01*
X11560658Y-20988467D02*
X11560658Y-20978943D01*
X11560658Y-20978943D02*
X11570182Y-20959895D01*
X11570182Y-20959895D02*
X11589230Y-20950371D01*
X11589230Y-20950371D02*
X11617801Y-20950371D01*
X11617801Y-20950371D02*
X11636849Y-20959895D01*
X11713039Y-21159895D02*
X11722563Y-21150371D01*
X11722563Y-21150371D02*
X11741611Y-21121800D01*
X11741611Y-21121800D02*
X11751134Y-21102752D01*
X11751134Y-21102752D02*
X11760658Y-21074181D01*
X11760658Y-21074181D02*
X11770182Y-21026562D01*
X11770182Y-21026562D02*
X11770182Y-20988467D01*
X11770182Y-20988467D02*
X11760658Y-20940848D01*
X11760658Y-20940848D02*
X11751134Y-20912276D01*
X11751134Y-20912276D02*
X11741611Y-20893229D01*
X11741611Y-20893229D02*
X11722563Y-20864657D01*
X11722563Y-20864657D02*
X11713039Y-20855133D01*
M02*
