M48
; DRILL file {KiCad 7.0.9-1.fc39} date ti  2. tammikuuta 2024 19.23.30
; FORMAT={-:-/ absolute / metric / decimal}
; #@! TF.CreationDate,2024-01-02T19:23:30+02:00
; #@! TF.GenerationSoftware,Kicad,Pcbnew,7.0.9-1.fc39
; #@! TF.FileFunction,NonPlated,1,2,NPTH
FMAT,2
METRIC
; #@! TA.AperFunction,NonPlated,NPTH,ComponentDrill
T1C0.800
; #@! TA.AperFunction,NonPlated,NPTH,ComponentDrill
T2C1.500
; #@! TA.AperFunction,NonPlated,NPTH,ComponentDrill
T3C1.750
; #@! TA.AperFunction,NonPlated,NPTH,ComponentDrill
T4C3.048
; #@! TA.AperFunction,NonPlated,NPTH,ComponentDrill
T5C3.200
; #@! TA.AperFunction,NonPlated,NPTH,ComponentDrill
T6C3.988
%
G90
G05
T1
X200.805Y-45.192
X205.755Y-40.242
T3
X75.848Y-71.581
X75.848Y-100.156
X78.229Y-157.307
X78.229Y-176.357
X80.61Y-119.206
X82.992Y-138.256
X86.008Y-71.581
X86.008Y-100.156
X88.389Y-157.307
X88.389Y-176.357
X90.77Y-119.206
X93.152Y-138.256
X94.898Y-100.156
X99.66Y-157.307
X102.042Y-176.357
X104.423Y-119.206
X105.058Y-100.156
X109.185Y-138.256
X109.82Y-157.307
X112.202Y-176.357
X113.948Y-71.581
X113.948Y-100.156
X114.583Y-119.206
X118.711Y-157.307
X119.345Y-138.256
X123.473Y-119.206
X124.108Y-71.581
X124.108Y-100.156
X125.854Y-176.357
X128.236Y-138.256
X128.871Y-157.307
X132.998Y-71.581
X132.998Y-100.156
X133.633Y-119.206
X136.014Y-176.357
X137.761Y-157.307
X138.396Y-138.256
X142.523Y-119.206
X143.158Y-71.581
X143.158Y-100.156
X147.286Y-138.256
X147.921Y-157.307
X152.048Y-100.156
X152.048Y-71.581
X152.683Y-119.206
X156.81Y-157.306
X157.446Y-138.256
X161.573Y-119.206
X162.208Y-100.156
X162.208Y-71.581
X163.954Y-176.356
X166.335Y-138.256
X166.97Y-157.306
X171.098Y-71.581
X171.098Y-100.156
X171.733Y-119.206
X174.114Y-176.356
X175.86Y-157.306
X176.495Y-138.256
X180.623Y-119.206
X181.258Y-71.581
X181.258Y-100.156
X185.385Y-138.256
X186.02Y-157.306
X190.148Y-100.156
X190.783Y-119.206
X194.91Y-157.306
X195.545Y-138.256
X199.673Y-119.206
X200.308Y-100.156
X204.435Y-138.256
X205.07Y-157.306
X209.833Y-119.206
X214.595Y-138.256
T4
X157.128Y-169.371
X180.94Y-169.371
T5
X70.98Y-58.2
X71.0Y-189.5
X137.0Y-54.0
X177.5Y-17.5
X194.0Y-51.0
X216.5Y-51.0
X217.0Y-189.5
T6
X80.928Y-71.581
X80.928Y-100.156
X83.309Y-157.307
X83.309Y-176.357
X85.69Y-119.206
X88.072Y-138.256
X99.978Y-100.156
X104.74Y-157.307
X107.122Y-176.357
X109.503Y-119.206
X114.265Y-138.256
X119.028Y-71.581
X119.028Y-100.156
X123.791Y-157.307
X128.553Y-119.206
X130.934Y-176.357
X133.316Y-138.256
X138.078Y-71.581
X138.078Y-100.156
X142.841Y-157.307
X147.603Y-119.206
X152.366Y-138.256
X157.128Y-100.156
X157.128Y-184.611
X157.128Y-71.581
X161.89Y-157.306
X166.653Y-119.206
X169.034Y-176.356
X171.415Y-138.256
X176.178Y-71.581
X176.178Y-100.156
X180.94Y-157.306
X180.94Y-184.611
X185.703Y-119.206
X190.465Y-138.256
X195.228Y-100.156
X199.99Y-157.306
X204.753Y-119.206
X209.515Y-138.256
T2
X201.8Y-178.45G85X201.8Y-177.15
G05
X213.0Y-178.45G85X213.0Y-177.15
G05
T0
M30
