G04 #@! TF.GenerationSoftware,KiCad,Pcbnew,7.0.5*
G04 #@! TF.CreationDate,2024-07-22T22:48:02+03:00*
G04 #@! TF.ProjectId,TuuVeiTwoPlateRight,54757556-6569-4547-976f-506c61746552,rev?*
G04 #@! TF.SameCoordinates,Original*
G04 #@! TF.FileFunction,Profile,NP*
%FSLAX46Y46*%
G04 Gerber Fmt 4.6, Leading zero omitted, Abs format (unit mm)*
G04 Created by KiCad (PCBNEW 7.0.5) date 2024-07-22 22:48:02*
%MOMM*%
%LPD*%
G01*
G04 APERTURE LIST*
G04 #@! TA.AperFunction,Profile*
%ADD10C,0.150000*%
G04 #@! TD*
G04 APERTURE END LIST*
D10*
X52638396Y-118317029D02*
X50095762Y-118317029D01*
X115999037Y-61271214D02*
X116052214Y-61235295D01*
X155980421Y-150999944D02*
X155958998Y-151061650D01*
X144526076Y-80363477D02*
X144574080Y-80321210D01*
X155930037Y-151119390D02*
X155958998Y-151061650D01*
X197755934Y-119684110D02*
X197769240Y-119749181D01*
X155894118Y-151172566D02*
X155930037Y-151119390D01*
X116109953Y-61206323D02*
X116052214Y-61235295D01*
X155851851Y-151220586D02*
X155894118Y-151172566D01*
X144627241Y-80285295D02*
X144574080Y-80321210D01*
X155803847Y-151262853D02*
X155851851Y-151220586D01*
X197773817Y-119817029D02*
X197769240Y-119749181D01*
X155750685Y-151298772D02*
X155803847Y-151262853D01*
X116171660Y-61184888D02*
X116109953Y-61206323D01*
X155692946Y-151327741D02*
X155750685Y-151298772D01*
X144684981Y-80256322D02*
X144627241Y-80285295D01*
X155631239Y-151349172D02*
X155692946Y-151327741D01*
X190773817Y-119817029D02*
X190778425Y-119749188D01*
X155566176Y-151362470D02*
X155631239Y-151349172D01*
X116236738Y-61171594D02*
X116171660Y-61184888D01*
X155498335Y-151367032D02*
X155566176Y-151362470D01*
X144746687Y-80234891D02*
X144684981Y-80256322D01*
X142498335Y-151367032D02*
X142457777Y-151364308D01*
X142430464Y-151362477D02*
X142457777Y-151364308D01*
X190791731Y-119684117D02*
X190778425Y-119749188D01*
X142365401Y-151349179D02*
X142430464Y-151362477D01*
X116304579Y-61167027D02*
X116236738Y-61171594D01*
X142303694Y-151327748D02*
X142365401Y-151349179D01*
X144811751Y-80221597D02*
X144746687Y-80234891D01*
X142245955Y-151298779D02*
X142303694Y-151327748D01*
X190813154Y-119622411D02*
X190791731Y-119684117D01*
X142192793Y-151262860D02*
X142245955Y-151298779D01*
X110754576Y-74667027D02*
X110750029Y-74734876D01*
X142144789Y-151220593D02*
X142192793Y-151262860D01*
X144879591Y-80217031D02*
X144811751Y-80221597D01*
X142102522Y-151172574D02*
X142144789Y-151220593D01*
X190842116Y-119564672D02*
X190813154Y-119622411D01*
X142066603Y-151119397D02*
X142102522Y-151172574D01*
X110736738Y-74799947D02*
X110750029Y-74734876D01*
X142037642Y-151061658D02*
X142066603Y-151119397D01*
X139329573Y-93717031D02*
X139325026Y-93784879D01*
X142016218Y-150999951D02*
X142037642Y-151061658D01*
X190878035Y-119511495D02*
X190842116Y-119564672D01*
X142002913Y-150934880D02*
X142016218Y-150999951D01*
X110715300Y-74861650D02*
X110736738Y-74799947D01*
X141998335Y-150867032D02*
X142002913Y-150934880D01*
X139311735Y-93849950D02*
X139325026Y-93784879D01*
X155498335Y-137367032D02*
X155566206Y-137371587D01*
X190920302Y-119463475D02*
X190878035Y-119511495D01*
X155631270Y-137384885D02*
X155566206Y-137371587D01*
X110686323Y-74919385D02*
X110715300Y-74861650D01*
X155692976Y-137406316D02*
X155631270Y-137384885D01*
X139290297Y-93911653D02*
X139311735Y-93849950D01*
X155750715Y-137435285D02*
X155692976Y-137406316D01*
X190968306Y-119421208D02*
X190920302Y-119463475D01*
X155803877Y-137471204D02*
X155750715Y-137435285D01*
X110650404Y-74972562D02*
X110686323Y-74919385D01*
X155851881Y-137513471D02*
X155803877Y-137471204D01*
X139261320Y-93969388D02*
X139290297Y-93911653D01*
X155894148Y-137561490D02*
X155851881Y-137513471D01*
X191021467Y-119385289D02*
X190968306Y-119421208D01*
X155930067Y-137614667D02*
X155894148Y-137561490D01*
X110608137Y-75020581D02*
X110650404Y-74972562D01*
X155959028Y-137672406D02*
X155930067Y-137614667D01*
X139225401Y-94022565D02*
X139261320Y-93969388D01*
X155980452Y-137734113D02*
X155959028Y-137672406D01*
X191079207Y-119356320D02*
X191021467Y-119385289D01*
X155993757Y-137799184D02*
X155980452Y-137734113D01*
X110560118Y-75062848D02*
X110608137Y-75020581D01*
X155998335Y-137867032D02*
X155993757Y-137799184D01*
X139183134Y-94070584D02*
X139225401Y-94022565D01*
X141998335Y-137867032D02*
X142002943Y-137799191D01*
X191140913Y-119334889D02*
X191079207Y-119356320D01*
X142016249Y-137734120D02*
X142002943Y-137799191D01*
X110506941Y-75098763D02*
X110560118Y-75062848D01*
X142037672Y-137672414D02*
X142016249Y-137734120D01*
X139135115Y-94112851D02*
X139183134Y-94070584D01*
X142066633Y-137614675D02*
X142037672Y-137672414D01*
X191205977Y-119321591D02*
X191140913Y-119334889D01*
X142102553Y-137561498D02*
X142066633Y-137614675D01*
X110449202Y-75127736D02*
X110506941Y-75098763D01*
X142144819Y-137513478D02*
X142102553Y-137561498D01*
X139081938Y-94148770D02*
X139135115Y-94112851D01*
X142192824Y-137471211D02*
X142144819Y-137513478D01*
X191273817Y-119317029D02*
X191205977Y-119321591D01*
X142245985Y-137435292D02*
X142192824Y-137471211D01*
X110387495Y-75149167D02*
X110449202Y-75127736D01*
X142303725Y-137406323D02*
X142245985Y-137435292D01*
X139024199Y-94177739D02*
X139081938Y-94148770D01*
X142365431Y-137384892D02*
X142303725Y-137406323D01*
X173897841Y-133817029D02*
X173893233Y-133884870D01*
X142430495Y-137371594D02*
X142365431Y-137384892D01*
X110322417Y-75162461D02*
X110387495Y-75149167D01*
X142498335Y-137367032D02*
X142430495Y-137371594D01*
X138962492Y-94199170D02*
X139024199Y-94177739D01*
X132185835Y-150867032D02*
X132181288Y-150934873D01*
X173879927Y-133949941D02*
X173893233Y-133884870D01*
X132167998Y-150999944D02*
X132181288Y-150934873D01*
X110254576Y-75167027D02*
X110322417Y-75162461D01*
X132146559Y-151061650D02*
X132167998Y-150999944D01*
X138897413Y-94212468D02*
X138962492Y-94199170D01*
X132117583Y-151119390D02*
X132146559Y-151061650D01*
X173858504Y-134011647D02*
X173879927Y-133949941D01*
X132081663Y-151172566D02*
X132117583Y-151119390D01*
X97254576Y-75167027D02*
X97186751Y-75162461D01*
X132039397Y-151220586D02*
X132081663Y-151172566D01*
X138829573Y-94217031D02*
X138897413Y-94212468D01*
X131991377Y-151262853D02*
X132039397Y-151220586D01*
X173829542Y-134069386D02*
X173858504Y-134011647D01*
X131938200Y-151298772D02*
X131991377Y-151262853D01*
X97121672Y-75149167D02*
X97186751Y-75162461D01*
X131880461Y-151327741D02*
X131938200Y-151298772D01*
X125829573Y-94217031D02*
X125761748Y-94212468D01*
X131818754Y-151349172D02*
X131880461Y-151327741D01*
X173793623Y-134122563D02*
X173829542Y-134069386D01*
X131753676Y-151362470D02*
X131818754Y-151349172D01*
X97059965Y-75127736D02*
X97121672Y-75149167D01*
X131685835Y-151367032D02*
X131753676Y-151362470D01*
X125696669Y-94199170D02*
X125761748Y-94212468D01*
X118685835Y-151367032D02*
X118618010Y-151362477D01*
X173751356Y-134170583D02*
X173793623Y-134122563D01*
X118552931Y-151349179D02*
X118618010Y-151362477D01*
X97002226Y-75098763D02*
X97059965Y-75127736D01*
X118491225Y-151327748D02*
X118552931Y-151349179D01*
X125634962Y-94177739D02*
X125696669Y-94199170D01*
X118433485Y-151298779D02*
X118491225Y-151327748D01*
X173703352Y-134212850D02*
X173751356Y-134170583D01*
X118380308Y-151262860D02*
X118433485Y-151298779D01*
X96949049Y-75062848D02*
X97002226Y-75098763D01*
X118332289Y-151220593D02*
X118380308Y-151262860D01*
X125577223Y-94148770D02*
X125634962Y-94177739D01*
X118290022Y-151172574D02*
X118332289Y-151220593D01*
X173650191Y-134248769D02*
X173703352Y-134212850D01*
X118254103Y-151119397D02*
X118290022Y-151172574D01*
X96901030Y-75020581D02*
X96949049Y-75062848D01*
X118225126Y-151061658D02*
X118254103Y-151119397D01*
X125524046Y-94112851D02*
X125577223Y-94148770D01*
X118203688Y-150999951D02*
X118225126Y-151061658D01*
X173592451Y-134277738D02*
X173650191Y-134248769D01*
X118190397Y-150934880D02*
X118203688Y-150999951D01*
X96858763Y-74972562D02*
X96901030Y-75020581D01*
X118185835Y-150867032D02*
X118190397Y-150934880D01*
X125476027Y-94070584D02*
X125524046Y-94112851D01*
X131685835Y-137367032D02*
X131753660Y-137371587D01*
X173530745Y-134299169D02*
X173592451Y-134277738D01*
X131818739Y-137384885D02*
X131753660Y-137371587D01*
X96822844Y-74919385D02*
X96858763Y-74972562D01*
X131880446Y-137406316D02*
X131818739Y-137384885D01*
X125433760Y-94022565D02*
X125476027Y-94070584D01*
X131938185Y-137435285D02*
X131880446Y-137406316D01*
X173465681Y-134312467D02*
X173530745Y-134299169D01*
X131991362Y-137471204D02*
X131938185Y-137435285D01*
X96793867Y-74861650D02*
X96822844Y-74919385D01*
X132039381Y-137513471D02*
X131991362Y-137471204D01*
X125397841Y-93969388D02*
X125433760Y-94022565D01*
X132081648Y-137561490D02*
X132039381Y-137513471D01*
X173397841Y-134317029D02*
X173465681Y-134312467D01*
X132117567Y-137614667D02*
X132081648Y-137561490D01*
X96772429Y-74799947D02*
X96793867Y-74861650D01*
X132146544Y-137672406D02*
X132117567Y-137614667D01*
X125368864Y-93911653D02*
X125397841Y-93969388D01*
X132167982Y-137734113D02*
X132146544Y-137672406D01*
X167397841Y-134317029D02*
X167329970Y-134312474D01*
X132181273Y-137799184D02*
X132167982Y-137734113D01*
X96759138Y-74734876D02*
X96772429Y-74799947D01*
X132185835Y-137867032D02*
X132181273Y-137799184D01*
X125347426Y-93849950D02*
X125368864Y-93911653D01*
X118185835Y-137867032D02*
X118190382Y-137799191D01*
X167264906Y-134299176D02*
X167329970Y-134312474D01*
X118203673Y-137734120D02*
X118190382Y-137799191D01*
X96754576Y-74667027D02*
X96759138Y-74734876D01*
X118225111Y-137672414D02*
X118203673Y-137734120D01*
X125334135Y-93784879D02*
X125347426Y-93849950D01*
X118254088Y-137614675D02*
X118225111Y-137672414D01*
X167203200Y-134277745D02*
X167264906Y-134299176D01*
X118290007Y-137561498D02*
X118254088Y-137614675D01*
X110254576Y-61167027D02*
X110322401Y-61171594D01*
X118332274Y-137513478D02*
X118290007Y-137561498D01*
X125329573Y-93717031D02*
X125334135Y-93784879D01*
X118380293Y-137471211D02*
X118332274Y-137513478D01*
X167145460Y-134248776D02*
X167203200Y-134277745D01*
X118433470Y-137435292D02*
X118380293Y-137471211D01*
X110387480Y-61184888D02*
X110322401Y-61171594D01*
X118491209Y-137406323D02*
X118433470Y-137435292D01*
X138829573Y-80217031D02*
X138897398Y-80221597D01*
X118552916Y-137384892D02*
X118491209Y-137406323D01*
X167092299Y-134212857D02*
X167145460Y-134248776D01*
X118617995Y-137371594D02*
X118552916Y-137384892D01*
X110449187Y-61206323D02*
X110387480Y-61184888D01*
X118685835Y-137367032D02*
X118617995Y-137371594D01*
X138962477Y-80234891D02*
X138897398Y-80221597D01*
X102524519Y-152867032D02*
X102519972Y-152934873D01*
X167044295Y-134170590D02*
X167092299Y-134212857D01*
X102506682Y-152999944D02*
X102519972Y-152934873D01*
X110506926Y-61235295D02*
X110449187Y-61206323D01*
X102485243Y-153061650D02*
X102506682Y-152999944D01*
X139024183Y-80256322D02*
X138962477Y-80234891D01*
X102456267Y-153119390D02*
X102485243Y-153061650D01*
X167002028Y-134122571D02*
X167044295Y-134170590D01*
X102420347Y-153172566D02*
X102456267Y-153119390D01*
X110560103Y-61271214D02*
X110506926Y-61235295D01*
X102378081Y-153220586D02*
X102420347Y-153172566D01*
X139081923Y-80285295D02*
X139024183Y-80256322D01*
X102330061Y-153262853D02*
X102378081Y-153220586D01*
X166966109Y-134069394D02*
X167002028Y-134122571D01*
X102276884Y-153298772D02*
X102330061Y-153262853D01*
X110608122Y-61313478D02*
X110560103Y-61271214D01*
X102219145Y-153327741D02*
X102276884Y-153298772D01*
X139135100Y-80321210D02*
X139081923Y-80285295D01*
X102157438Y-153349172D02*
X102219145Y-153327741D01*
X166937147Y-134011655D02*
X166966109Y-134069394D01*
X102092360Y-153362470D02*
X102157438Y-153349172D01*
X110650389Y-61361493D02*
X110608122Y-61313478D01*
X102024519Y-153367032D02*
X102092360Y-153362470D01*
X139183119Y-80363477D02*
X139135100Y-80321210D01*
X96024519Y-153367032D02*
X95956694Y-153362477D01*
X166915724Y-133949948D02*
X166937147Y-134011655D01*
X95891615Y-153349179D02*
X95956694Y-153362477D01*
X110686308Y-61414670D02*
X110650389Y-61361493D01*
X95829909Y-153327748D02*
X95891615Y-153349179D01*
X139225386Y-80411496D02*
X139183119Y-80363477D01*
X95772169Y-153298779D02*
X95829909Y-153327748D01*
X166902418Y-133884877D02*
X166915724Y-133949948D01*
X95718992Y-153262860D02*
X95772169Y-153298779D01*
X110715285Y-61472409D02*
X110686308Y-61414670D01*
X95670973Y-153220593D02*
X95718992Y-153262860D01*
X139261305Y-80464673D02*
X139225386Y-80411496D01*
X95628706Y-153172574D02*
X95670973Y-153220593D01*
X166897841Y-133817029D02*
X166902418Y-133884877D01*
X95592787Y-153119397D02*
X95628706Y-153172574D01*
X110736723Y-61534108D02*
X110715285Y-61472409D01*
X95563811Y-153061658D02*
X95592787Y-153119397D01*
X139290282Y-80522408D02*
X139261305Y-80464673D01*
X95542372Y-152999951D02*
X95563811Y-153061658D01*
X173397841Y-119317029D02*
X173465712Y-119321584D01*
X95529082Y-152934880D02*
X95542372Y-152999951D01*
X110750014Y-61599183D02*
X110736723Y-61534108D01*
X95524519Y-152867032D02*
X95529082Y-152934880D01*
X139311720Y-80584111D02*
X139290282Y-80522408D01*
X102024519Y-138367032D02*
X102092345Y-138371587D01*
X173530775Y-119334882D02*
X173465712Y-119321584D01*
X102157423Y-138384885D02*
X102092345Y-138371587D01*
X110754576Y-61667027D02*
X110750014Y-61599183D01*
X102219130Y-138406316D02*
X102157423Y-138384885D01*
X139325011Y-80649182D02*
X139311720Y-80584111D01*
X102276869Y-138435285D02*
X102219130Y-138406316D01*
X173592482Y-119356313D02*
X173530775Y-119334882D01*
X102330046Y-138471204D02*
X102276869Y-138435285D01*
X96754576Y-61667027D02*
X96759123Y-61599183D01*
X102378065Y-138513471D02*
X102330046Y-138471204D01*
X139329573Y-80717031D02*
X139325011Y-80649182D01*
X102420332Y-138561490D02*
X102378065Y-138513471D01*
X173650221Y-119385282D02*
X173592482Y-119356313D01*
X102456251Y-138614667D02*
X102420332Y-138561490D01*
X96772413Y-61534108D02*
X96759123Y-61599183D01*
X102485228Y-138672406D02*
X102456251Y-138614667D01*
X125329573Y-80717031D02*
X125334120Y-80649182D01*
X102506666Y-138734113D02*
X102485228Y-138672406D01*
X173703383Y-119421201D02*
X173650221Y-119385282D01*
X102519957Y-138799184D02*
X102506666Y-138734113D01*
X96793852Y-61472409D02*
X96772413Y-61534108D01*
X102524519Y-138867032D02*
X102519957Y-138799184D01*
X125347410Y-80584111D02*
X125334120Y-80649182D01*
X95524519Y-138867032D02*
X95529066Y-138799191D01*
X173751387Y-119463468D02*
X173732069Y-119446469D01*
X173732069Y-119446469D02*
X173703383Y-119421201D01*
X95542357Y-138734120D02*
X95529066Y-138799191D01*
X96822829Y-61414670D02*
X96793852Y-61472409D01*
X95563795Y-138672414D02*
X95542357Y-138734120D01*
X125368849Y-80522408D02*
X125347410Y-80584111D01*
X95592772Y-138614675D02*
X95563795Y-138672414D01*
X173793654Y-119511487D02*
X173751387Y-119463468D01*
X95628691Y-138561498D02*
X95592772Y-138614675D01*
X96858748Y-61361493D02*
X96822829Y-61414670D01*
X95670958Y-138513478D02*
X95628691Y-138561498D01*
X125397825Y-80464673D02*
X125368849Y-80522408D01*
X95718977Y-138471211D02*
X95670958Y-138513478D01*
X173829573Y-119564664D02*
X173793654Y-119511487D01*
X95772154Y-138435292D02*
X95718977Y-138471211D01*
X96901015Y-61313478D02*
X96858748Y-61361493D01*
X95829893Y-138406323D02*
X95772154Y-138435292D01*
X125433745Y-80411496D02*
X125397825Y-80464673D01*
X95891600Y-138384892D02*
X95829893Y-138406323D01*
X173858534Y-119622403D02*
X173829573Y-119564664D01*
X95956679Y-138371594D02*
X95891600Y-138384892D01*
X96949034Y-61271214D02*
X96901015Y-61313478D01*
X96024519Y-138367032D02*
X95956679Y-138371594D01*
X125476011Y-80363477D02*
X125433745Y-80411496D01*
X78648512Y-152867032D02*
X78643965Y-152934873D01*
X173879957Y-119684110D02*
X173858534Y-119622403D01*
X78630675Y-152999944D02*
X78643965Y-152934873D01*
X97002211Y-61235295D02*
X96949034Y-61271214D01*
X78609236Y-153061650D02*
X78630675Y-152999944D01*
X125524031Y-80321210D02*
X125476011Y-80363477D01*
X78580260Y-153119390D02*
X78609236Y-153061650D01*
X173893263Y-119749181D02*
X173879957Y-119684110D01*
X78544340Y-153172566D02*
X78580260Y-153119390D01*
X97059950Y-61206323D02*
X97002211Y-61235295D01*
X78502074Y-153220586D02*
X78544340Y-153172566D01*
X125577208Y-80285295D02*
X125524031Y-80321210D01*
X78454054Y-153262853D02*
X78502074Y-153220586D01*
X173897841Y-119817029D02*
X173893263Y-119749181D01*
X78400877Y-153298772D02*
X78454054Y-153262853D01*
X97121657Y-61184888D02*
X97059950Y-61206323D01*
X78343138Y-153327741D02*
X78400877Y-153298772D01*
X125634947Y-80256322D02*
X125577208Y-80285295D01*
X78281431Y-153349172D02*
X78343138Y-153327741D01*
X166897841Y-119817029D02*
X166902449Y-119749188D01*
X78216353Y-153362470D02*
X78281431Y-153349172D01*
X97186735Y-61171594D02*
X97121657Y-61184888D01*
X78148512Y-153367032D02*
X78216353Y-153362470D01*
X125696654Y-80234891D02*
X125634947Y-80256322D01*
X72148512Y-153367032D02*
X72080687Y-153362477D01*
X166915755Y-119684117D02*
X166902449Y-119749188D01*
X72015608Y-153349179D02*
X72080687Y-153362477D01*
X97254576Y-61167027D02*
X97186735Y-61171594D01*
X71953902Y-153327748D02*
X72015608Y-153349179D01*
X125761732Y-80221597D02*
X125696654Y-80234891D01*
X71896162Y-153298779D02*
X71953902Y-153327748D01*
X166937178Y-119622411D02*
X166915755Y-119684117D01*
X71842985Y-153262860D02*
X71896162Y-153298779D01*
X91704573Y-74667027D02*
X91700026Y-74734876D01*
X71794966Y-153220593D02*
X71842985Y-153262860D01*
X125829573Y-80217031D02*
X125761732Y-80221597D01*
X71752699Y-153172574D02*
X71794966Y-153220593D01*
X166966139Y-119564672D02*
X166937178Y-119622411D01*
X71716780Y-153119397D02*
X71752699Y-153172574D01*
X91686735Y-74799947D02*
X91700026Y-74734876D01*
X71687803Y-153061658D02*
X71716780Y-153119397D01*
X120279585Y-93717031D02*
X120275038Y-93784879D01*
X71666365Y-152999951D02*
X71687803Y-153061658D01*
X167002058Y-119511495D02*
X166966139Y-119564672D01*
X71653074Y-152934880D02*
X71666365Y-152999951D01*
X91665297Y-74861650D02*
X91686735Y-74799947D01*
X71648512Y-152867032D02*
X71653074Y-152934880D01*
X120261748Y-93849950D02*
X120275038Y-93784879D01*
X78148512Y-138367032D02*
X78216337Y-138371587D01*
X167044325Y-119463475D02*
X167002058Y-119511495D01*
X78281416Y-138384885D02*
X78216337Y-138371587D01*
X91636320Y-74919385D02*
X91665297Y-74861650D01*
X78343123Y-138406316D02*
X78281416Y-138384885D01*
X120240309Y-93911653D02*
X120261748Y-93849950D01*
X78400862Y-138435285D02*
X78343123Y-138406316D01*
X167092329Y-119421208D02*
X167044325Y-119463475D01*
X78454039Y-138471204D02*
X78400862Y-138435285D01*
X91600401Y-74972562D02*
X91636320Y-74919385D01*
X78502058Y-138513471D02*
X78454039Y-138471204D01*
X120211333Y-93969388D02*
X120240309Y-93911653D01*
X78544325Y-138561490D02*
X78502058Y-138513471D01*
X167145491Y-119385289D02*
X167092329Y-119421208D01*
X78580244Y-138614667D02*
X78544325Y-138561490D01*
X91558134Y-75020581D02*
X91600401Y-74972562D01*
X78609221Y-138672406D02*
X78580244Y-138614667D01*
X120175413Y-94022565D02*
X120211333Y-93969388D01*
X78630659Y-138734113D02*
X78609221Y-138672406D01*
X167203230Y-119356320D02*
X167145491Y-119385289D01*
X78643950Y-138799184D02*
X78630659Y-138734113D01*
X91510115Y-75062848D02*
X91558134Y-75020581D01*
X78648512Y-138867032D02*
X78643950Y-138799184D01*
X120133147Y-94070584D02*
X120175413Y-94022565D01*
X71648512Y-138867032D02*
X71653059Y-138799191D01*
X167264937Y-119334889D02*
X167203230Y-119356320D01*
X71666350Y-138734120D02*
X71653059Y-138799191D01*
X91456938Y-75098763D02*
X91510115Y-75062848D01*
X71687788Y-138672414D02*
X71666350Y-138734120D01*
X120085127Y-94112851D02*
X120133147Y-94070584D01*
X71716765Y-138614675D02*
X71687788Y-138672414D01*
X167330000Y-119321591D02*
X167264937Y-119334889D01*
X71752684Y-138561498D02*
X71716765Y-138614675D01*
X91399199Y-75127736D02*
X91456938Y-75098763D01*
X71794951Y-138513478D02*
X71752684Y-138561498D01*
X120031950Y-94148770D02*
X120085127Y-94112851D01*
X71842970Y-138471211D02*
X71794951Y-138513478D01*
X167397841Y-119317029D02*
X167330000Y-119321591D01*
X71896147Y-138435292D02*
X71842970Y-138471211D01*
X91337492Y-75149167D02*
X91399199Y-75127736D01*
X71953886Y-138406323D02*
X71896147Y-138435292D01*
X119974211Y-94177739D02*
X120031950Y-94148770D01*
X72015593Y-138384892D02*
X71953886Y-138406323D01*
X189335829Y-131817029D02*
X189331221Y-131884870D01*
X72080672Y-138371594D02*
X72015593Y-138384892D01*
X91272413Y-75162461D02*
X91337492Y-75149167D01*
X72148512Y-138367032D02*
X72080672Y-138371594D01*
X119912504Y-94199170D02*
X119974211Y-94177739D01*
X94086531Y-150867032D02*
X94081984Y-150934873D01*
X189317915Y-131949941D02*
X189331221Y-131884870D01*
X94068693Y-150999944D02*
X94081984Y-150934873D01*
X91204573Y-75167027D02*
X91272413Y-75162461D01*
X94047255Y-151061650D02*
X94068693Y-150999944D01*
X119847426Y-94212468D02*
X119912504Y-94199170D01*
X94018278Y-151119390D02*
X94047255Y-151061650D01*
X189296492Y-132011647D02*
X189317915Y-131949941D01*
X93982359Y-151172566D02*
X94018278Y-151119390D01*
X78204573Y-75167027D02*
X78136748Y-75162461D01*
X93940092Y-151220586D02*
X93982359Y-151172566D01*
X119779585Y-94217031D02*
X119847426Y-94212468D01*
X93892073Y-151262853D02*
X93940092Y-151220586D01*
X189267531Y-132069386D02*
X189296492Y-132011647D01*
X93838896Y-151298772D02*
X93892073Y-151262853D01*
X78071669Y-75149167D02*
X78136748Y-75162461D01*
X93781157Y-151327741D02*
X93838896Y-151298772D01*
X106779585Y-94217031D02*
X106711760Y-94212468D01*
X93719450Y-151349172D02*
X93781157Y-151327741D01*
X189231611Y-132122563D02*
X189267531Y-132069386D01*
X93654371Y-151362470D02*
X93719450Y-151349172D01*
X78009962Y-75127736D02*
X78071669Y-75149167D01*
X93586531Y-151367032D02*
X93654371Y-151362470D01*
X106646681Y-94199170D02*
X106711760Y-94212468D01*
X80586531Y-151367032D02*
X80518706Y-151362477D01*
X189189345Y-132170583D02*
X189231611Y-132122563D01*
X80453627Y-151349179D02*
X80518706Y-151362477D01*
X77952223Y-75098763D02*
X78009962Y-75127736D01*
X80391920Y-151327748D02*
X80453627Y-151349179D01*
X106584975Y-94177739D02*
X106646681Y-94199170D01*
X80334181Y-151298779D02*
X80391920Y-151327748D01*
X189141340Y-132212850D02*
X189189345Y-132170583D01*
X80281004Y-151262860D02*
X80334181Y-151298779D01*
X77899046Y-75062848D02*
X77952223Y-75098763D01*
X80232985Y-151220593D02*
X80281004Y-151262860D01*
X106527235Y-94148770D02*
X106584975Y-94177739D01*
X80190718Y-151172574D02*
X80232985Y-151220593D01*
X189088179Y-132248769D02*
X189141340Y-132212850D01*
X80154799Y-151119397D02*
X80190718Y-151172574D01*
X77851027Y-75020581D02*
X77899046Y-75062848D01*
X80125822Y-151061658D02*
X80154799Y-151119397D01*
X106474058Y-94112851D02*
X106527235Y-94148770D01*
X80104384Y-150999951D02*
X80125822Y-151061658D01*
X189030440Y-132277738D02*
X189088179Y-132248769D01*
X80091093Y-150934880D02*
X80104384Y-150999951D01*
X77808760Y-74972562D02*
X77851027Y-75020581D01*
X80086531Y-150867032D02*
X80091093Y-150934880D01*
X106426039Y-94070584D02*
X106474058Y-94112851D01*
X93586531Y-137367032D02*
X93654356Y-137371587D01*
X188968733Y-132299169D02*
X189030440Y-132277738D01*
X93719435Y-137384885D02*
X93654356Y-137371587D01*
X77772841Y-74919385D02*
X77808760Y-74972562D01*
X93781142Y-137406316D02*
X93719435Y-137384885D01*
X106383772Y-94022565D02*
X106426039Y-94070584D01*
X93838881Y-137435285D02*
X93781142Y-137406316D01*
X188903670Y-132312467D02*
X188968733Y-132299169D01*
X93892058Y-137471204D02*
X93838881Y-137435285D01*
X77743864Y-74861650D02*
X77772841Y-74919385D01*
X93940077Y-137513471D02*
X93892058Y-137471204D01*
X106347853Y-93969388D02*
X106383772Y-94022565D01*
X93982344Y-137561490D02*
X93940077Y-137513471D01*
X188835829Y-132317029D02*
X188903670Y-132312467D01*
X94018263Y-137614667D02*
X93982344Y-137561490D01*
X77722426Y-74799947D02*
X77743864Y-74861650D01*
X94047240Y-137672406D02*
X94018263Y-137614667D01*
X106318876Y-93911653D02*
X106347853Y-93969388D01*
X94068678Y-137734113D02*
X94047240Y-137672406D01*
X175835829Y-132317029D02*
X175767958Y-132312474D01*
X94081969Y-137799184D02*
X94068678Y-137734113D01*
X77709135Y-74734876D02*
X77722426Y-74799947D01*
X94084700Y-137839742D02*
X94081969Y-137799184D01*
X94086531Y-137867032D02*
X94084700Y-137839742D01*
X106297438Y-93849950D02*
X106318876Y-93911653D01*
X80086531Y-137867032D02*
X80091078Y-137799191D01*
X175702894Y-132299176D02*
X175767958Y-132312474D01*
X80104368Y-137734120D02*
X80091078Y-137799191D01*
X77704573Y-74667027D02*
X77709135Y-74734876D01*
X80125807Y-137672414D02*
X80104368Y-137734120D01*
X106284147Y-93784879D02*
X106297438Y-93849950D01*
X80154783Y-137614675D02*
X80125807Y-137672414D01*
X175641188Y-132277745D02*
X175702894Y-132299176D01*
X80190703Y-137561498D02*
X80154783Y-137614675D01*
X91204573Y-61167027D02*
X91272398Y-61171594D01*
X80232970Y-137513478D02*
X80190703Y-137561498D01*
X106279585Y-93717031D02*
X106284147Y-93784879D01*
X80280989Y-137471211D02*
X80232970Y-137513478D01*
X175583449Y-132248776D02*
X175641188Y-132277745D01*
X80334166Y-137435292D02*
X80280989Y-137471211D01*
X91337477Y-61184888D02*
X91272398Y-61171594D01*
X80391905Y-137406323D02*
X80334166Y-137435292D01*
X119779585Y-80217031D02*
X119847410Y-80221597D01*
X80453612Y-137384892D02*
X80391905Y-137406323D01*
X175530287Y-132212857D02*
X175583449Y-132248776D01*
X80518690Y-137371594D02*
X80504439Y-137374509D01*
X91399183Y-61206323D02*
X91337477Y-61184888D01*
X80453612Y-137384892D02*
X80504439Y-137374509D01*
X119912489Y-80234891D02*
X119847410Y-80221597D01*
X80586531Y-137367032D02*
X80518690Y-137371594D01*
X175482283Y-132170590D02*
X175530287Y-132212857D01*
X248867079Y-74667027D02*
X248862471Y-74734876D01*
X91456923Y-61235295D02*
X91399183Y-61206323D01*
X248849165Y-74799947D02*
X248862471Y-74734876D01*
X119974196Y-80256322D02*
X119912489Y-80234891D01*
X248827742Y-74861650D02*
X248849165Y-74799947D01*
X175440016Y-132122571D02*
X175482283Y-132170590D01*
X248798781Y-74919385D02*
X248827742Y-74861650D01*
X91510100Y-61271214D02*
X91456923Y-61235295D01*
X248762861Y-74972562D02*
X248798781Y-74919385D01*
X120031935Y-80285295D02*
X119974196Y-80256322D01*
X248720595Y-75020581D02*
X248762861Y-74972562D01*
X175404097Y-132069394D02*
X175440016Y-132122571D01*
X248672590Y-75062848D02*
X248720595Y-75020581D01*
X91558119Y-61313478D02*
X91510100Y-61271214D01*
X248619429Y-75098763D02*
X248672590Y-75062848D01*
X120085112Y-80321210D02*
X120031935Y-80285295D01*
X248561690Y-75127736D02*
X248619429Y-75098763D01*
X175375136Y-132011655D02*
X175404097Y-132069394D01*
X248499983Y-75149167D02*
X248561690Y-75127736D01*
X91600386Y-61361493D02*
X91558119Y-61313478D01*
X248434920Y-75162461D02*
X248499983Y-75149167D01*
X120133131Y-80363477D02*
X120085112Y-80321210D01*
X248367079Y-75167027D02*
X248434920Y-75162461D01*
X175353712Y-131949948D02*
X175375136Y-132011655D01*
X235367079Y-75167027D02*
X235299208Y-75162461D01*
X91636305Y-61414670D02*
X91600386Y-61361493D01*
X235234144Y-75149167D02*
X235299208Y-75162461D01*
X120175398Y-80411496D02*
X120133131Y-80363477D01*
X235172438Y-75127736D02*
X235234144Y-75149167D01*
X175340407Y-131884877D02*
X175353712Y-131949948D01*
X235114699Y-75098763D02*
X235172438Y-75127736D01*
X91665282Y-61472409D02*
X91636305Y-61414670D01*
X235061537Y-75062848D02*
X235114699Y-75098763D01*
X120211317Y-80464673D02*
X120175398Y-80411496D01*
X235013533Y-75020581D02*
X235061537Y-75062848D01*
X175335829Y-131817029D02*
X175340407Y-131884877D01*
X234971266Y-74972562D02*
X235013533Y-75020581D01*
X91686720Y-61534108D02*
X91665282Y-61472409D01*
X234935347Y-74919385D02*
X234971266Y-74972562D01*
X120240294Y-80522408D02*
X120211317Y-80464673D01*
X234906386Y-74861650D02*
X234935347Y-74919385D01*
X188835829Y-118317029D02*
X188903700Y-118321584D01*
X234884962Y-74799947D02*
X234906386Y-74861650D01*
X91700011Y-61599183D02*
X91686720Y-61534108D01*
X234871657Y-74734876D02*
X234884962Y-74799947D01*
X120261732Y-80584111D02*
X120240294Y-80522408D01*
X234867079Y-74667027D02*
X234871657Y-74734876D01*
X188968764Y-118334882D02*
X188903700Y-118321584D01*
X248367079Y-61167027D02*
X248434950Y-61171594D01*
X91704573Y-61667027D02*
X91700011Y-61599183D01*
X248500014Y-61184888D02*
X248434950Y-61171594D01*
X120275023Y-80649182D02*
X120261732Y-80584111D01*
X248561720Y-61206323D02*
X248500014Y-61184888D01*
X189030470Y-118356313D02*
X188968764Y-118334882D01*
X248619459Y-61235295D02*
X248561720Y-61206323D01*
X77704573Y-61667027D02*
X77709120Y-61599183D01*
X248672621Y-61271214D02*
X248619459Y-61235295D01*
X120279585Y-80717031D02*
X120275023Y-80649182D01*
X248720625Y-61313478D02*
X248672621Y-61271214D01*
X189088209Y-118385282D02*
X189030470Y-118356313D01*
X248762892Y-61361493D02*
X248720625Y-61313478D01*
X77722410Y-61534108D02*
X77709120Y-61599183D01*
X248798811Y-61414670D02*
X248762892Y-61361493D01*
X106279585Y-80717031D02*
X106284132Y-80649182D01*
X248827772Y-61472409D02*
X248798811Y-61414670D01*
X189141371Y-118421201D02*
X189088209Y-118385282D01*
X248849196Y-61534108D02*
X248827772Y-61472409D01*
X77743849Y-61472409D02*
X77722410Y-61534108D01*
X248862501Y-61599183D02*
X248849196Y-61534108D01*
X106297423Y-80584111D02*
X106284132Y-80649182D01*
X248867079Y-61667027D02*
X248862501Y-61599183D01*
X189189375Y-118463468D02*
X189141371Y-118421201D01*
X234867079Y-61667027D02*
X234871687Y-61599183D01*
X77772825Y-61414670D02*
X77743849Y-61472409D01*
X234884993Y-61534108D02*
X234871687Y-61599183D01*
X106318861Y-80522408D02*
X106297423Y-80584111D01*
X234906416Y-61472409D02*
X234884993Y-61534108D01*
X189231642Y-118511487D02*
X189189375Y-118463468D01*
X234935377Y-61414670D02*
X234906416Y-61472409D01*
X77808745Y-61361493D02*
X77772825Y-61414670D01*
X234971297Y-61361493D02*
X234935377Y-61414670D01*
X106347838Y-80464673D02*
X106318861Y-80522408D01*
X235013563Y-61313478D02*
X234971297Y-61361493D01*
X189267561Y-118564664D02*
X189231642Y-118511487D01*
X235061568Y-61271214D02*
X235013563Y-61313478D01*
X77851011Y-61313478D02*
X77808745Y-61361493D01*
X235114729Y-61235295D02*
X235061568Y-61271214D01*
X106383757Y-80411496D02*
X106347838Y-80464673D01*
X235172468Y-61206323D02*
X235114729Y-61235295D01*
X189296522Y-118622403D02*
X189267561Y-118564664D01*
X235234175Y-61184888D02*
X235172468Y-61206323D01*
X77899031Y-61271214D02*
X77851011Y-61313478D01*
X235299238Y-61171594D02*
X235234175Y-61184888D01*
X106426024Y-80363477D02*
X106383757Y-80411496D01*
X235367079Y-61167027D02*
X235299238Y-61171594D01*
X189317946Y-118684110D02*
X189296522Y-118622403D01*
X229817091Y-74667027D02*
X229812483Y-74734876D01*
X77952208Y-61235295D02*
X77899031Y-61271214D01*
X229799177Y-74799947D02*
X229812483Y-74734876D01*
X106474043Y-80321210D02*
X106426024Y-80363477D01*
X248867079Y-93717031D02*
X248862471Y-93784879D01*
X189331251Y-118749181D02*
X189317946Y-118684110D01*
X229777754Y-74861650D02*
X229799177Y-74799947D01*
X78009947Y-61206323D02*
X77952208Y-61235295D01*
X248849165Y-93849950D02*
X248862471Y-93784879D01*
X106527220Y-80285295D02*
X106474043Y-80321210D01*
X229748793Y-74919385D02*
X229777754Y-74861650D01*
X189334822Y-118802175D02*
X189331251Y-118749181D01*
X248827742Y-93911653D02*
X248849165Y-93849950D01*
X189335432Y-118811055D02*
X189334822Y-118802175D01*
X189335829Y-118817029D02*
X189335432Y-118811055D01*
X229712874Y-74972562D02*
X229748793Y-74919385D01*
X78071654Y-61184888D02*
X78009947Y-61206323D01*
X248798781Y-93969388D02*
X248827742Y-93911653D01*
X106584959Y-80256322D02*
X106527220Y-80285295D01*
X229670607Y-75020581D02*
X229712874Y-74972562D01*
X175340437Y-118749188D02*
X175338576Y-118776471D01*
X175335829Y-118817029D02*
X175338576Y-118776471D01*
X248762861Y-94022565D02*
X248798781Y-93969388D01*
X78136732Y-61171594D02*
X78071654Y-61184888D01*
X229622603Y-75062848D02*
X229670607Y-75020581D01*
X106646666Y-80234891D02*
X106584959Y-80256322D01*
X248720595Y-94070584D02*
X248762861Y-94022565D01*
X175353743Y-118684117D02*
X175340437Y-118749188D01*
X229569441Y-75098763D02*
X229622603Y-75062848D01*
X78204573Y-61167027D02*
X78136732Y-61171594D01*
X248672590Y-94112851D02*
X248720595Y-94070584D01*
X106711745Y-80221597D02*
X106646666Y-80234891D01*
X229511702Y-75127736D02*
X229569441Y-75098763D01*
X175375166Y-118622411D02*
X175353743Y-118684117D01*
X248619429Y-94148770D02*
X248672590Y-94112851D01*
X72654585Y-74667027D02*
X72650038Y-74734876D01*
X229449995Y-75149167D02*
X229511702Y-75127736D01*
X106779585Y-80217031D02*
X106711745Y-80221597D01*
X248561690Y-94177739D02*
X248619429Y-94148770D01*
X175404127Y-118564672D02*
X175375166Y-118622411D01*
X229384932Y-75162461D02*
X229449995Y-75149167D01*
X72636748Y-74799947D02*
X72650038Y-74734876D01*
X248499983Y-94199170D02*
X248561690Y-94177739D01*
X101229582Y-93717031D02*
X101225035Y-93784879D01*
X229317091Y-75167027D02*
X229384932Y-75162461D01*
X175440047Y-118511495D02*
X175404127Y-118564672D01*
X248434920Y-94212468D02*
X248499983Y-94199170D01*
X72615309Y-74861650D02*
X72636748Y-74799947D01*
X216317091Y-75167027D02*
X216249220Y-75162461D01*
X101211745Y-93849950D02*
X101225035Y-93784879D01*
X248367079Y-94217031D02*
X248434920Y-94212468D01*
X175482313Y-118463475D02*
X175440047Y-118511495D01*
X216184157Y-75149167D02*
X216249220Y-75162461D01*
X72586333Y-74919385D02*
X72615309Y-74861650D01*
X235367079Y-94217031D02*
X235299208Y-94212468D01*
X101190306Y-93911653D02*
X101211745Y-93849950D01*
X216122450Y-75127736D02*
X216184157Y-75149167D01*
X175530318Y-118421208D02*
X175482313Y-118463475D01*
X235234144Y-94199170D02*
X235299208Y-94212468D01*
X72550413Y-74972562D02*
X72586333Y-74919385D01*
X216064711Y-75098763D02*
X216122450Y-75127736D01*
X101161329Y-93969388D02*
X101190306Y-93911653D01*
X235172438Y-94177739D02*
X235234144Y-94199170D01*
X175583479Y-118385289D02*
X175530318Y-118421208D01*
X216011549Y-75062848D02*
X216064711Y-75098763D01*
X72508147Y-75020581D02*
X72550413Y-74972562D01*
X235114699Y-94148770D02*
X235172438Y-94177739D01*
X101125410Y-94022565D02*
X101161329Y-93969388D01*
X215963545Y-75020581D02*
X216011549Y-75062848D01*
X175641218Y-118356320D02*
X175583479Y-118385289D01*
X235061537Y-94112851D02*
X235114699Y-94148770D01*
X72460127Y-75062848D02*
X72508147Y-75020581D01*
X101083143Y-94070584D02*
X101125410Y-94022565D01*
X175702925Y-118334889D02*
X175678114Y-118343511D01*
X175678114Y-118343511D02*
X175641218Y-118356320D01*
X72406950Y-75098763D02*
X72460127Y-75062848D01*
X101035124Y-94112851D02*
X101083143Y-94070584D01*
X48150892Y-65339974D02*
X48308882Y-65139569D01*
X175767988Y-118321591D02*
X175702925Y-118334889D01*
X48450667Y-64927388D02*
X48308882Y-65139569D01*
X72349211Y-75127736D02*
X72406950Y-75098763D01*
X48575346Y-64704736D02*
X48450667Y-64927388D01*
X100981947Y-94148770D02*
X101035124Y-94112851D01*
X48682188Y-64472989D02*
X48575346Y-64704736D01*
X175835829Y-118317029D02*
X175767988Y-118321591D01*
X48770506Y-64233575D02*
X48682188Y-64472989D01*
X72287504Y-75149167D02*
X72349211Y-75127736D01*
X48839781Y-63987966D02*
X48770506Y-64233575D01*
X100924208Y-94177739D02*
X100981947Y-94148770D01*
X48889570Y-63737679D02*
X48839781Y-63987966D01*
X153617079Y-131817029D02*
X153612471Y-131884870D01*
X48919554Y-63484262D02*
X48889570Y-63737679D01*
X72222426Y-75162461D02*
X72287504Y-75149167D01*
X48929579Y-63229268D02*
X48919554Y-63484262D01*
X100862501Y-94199170D02*
X100924208Y-94177739D01*
X48919554Y-62974275D02*
X48929579Y-63229268D01*
X153599165Y-131949941D02*
X153612471Y-131884870D01*
X48889570Y-62720857D02*
X48919554Y-62974275D01*
X72154585Y-75167027D02*
X72222426Y-75162461D01*
X48839781Y-62470571D02*
X48889570Y-62720857D01*
X100797423Y-94212468D02*
X100862501Y-94199170D01*
X48770506Y-62224961D02*
X48839781Y-62470571D01*
X153577742Y-132011647D02*
X153599165Y-131949941D01*
X48682188Y-61985547D02*
X48770506Y-62224961D01*
X59154585Y-75167027D02*
X59086760Y-75162461D01*
X48575346Y-61753797D02*
X48682188Y-61985547D01*
X100729582Y-94217031D02*
X100797423Y-94212468D01*
X48450667Y-61531148D02*
X48575346Y-61753797D01*
X153548781Y-132069386D02*
X153577742Y-132011647D01*
X48308882Y-61318967D02*
X48450667Y-61531148D01*
X59021681Y-75149167D02*
X59086760Y-75162461D01*
X48150892Y-61118562D02*
X48308882Y-61318967D01*
X87729582Y-94217031D02*
X87661757Y-94212468D01*
X47977675Y-60931172D02*
X48150892Y-61118562D01*
X153512861Y-132122563D02*
X153548781Y-132069386D01*
X47790282Y-60757947D02*
X47977675Y-60931172D01*
X58959975Y-75127736D02*
X59021681Y-75149167D01*
X47589888Y-60599965D02*
X47790282Y-60757947D01*
X87596678Y-94199170D02*
X87661757Y-94212468D01*
X47377699Y-60458188D02*
X47589888Y-60599965D01*
X153470595Y-132170583D02*
X153512861Y-132122563D01*
X47155043Y-60333497D02*
X47377699Y-60458188D01*
X58902235Y-75098763D02*
X58959975Y-75127736D01*
X46923308Y-60226659D02*
X47155043Y-60333497D01*
X87534971Y-94177739D02*
X87596678Y-94199170D01*
X46683882Y-60138333D02*
X46923308Y-60226659D01*
X153422590Y-132212850D02*
X153470595Y-132170583D01*
X46438277Y-60069066D02*
X46683882Y-60138333D01*
X58849058Y-75062848D02*
X58902235Y-75098763D01*
X46187987Y-60019280D02*
X46438277Y-60069066D01*
X87477232Y-94148770D02*
X87534971Y-94177739D01*
X45934569Y-59989285D02*
X45679579Y-59979268D01*
X153369429Y-132248769D02*
X153422590Y-132212850D01*
X143724592Y-154517049D02*
X143978010Y-154547048D01*
X58801039Y-75020581D02*
X58849058Y-75062848D01*
X143469588Y-154507031D02*
X143214583Y-154517049D01*
X87424055Y-94112851D02*
X87477232Y-94148770D01*
X142961165Y-154547048D02*
X143214583Y-154517049D01*
X153311690Y-132277738D02*
X153369429Y-132248769D01*
X142710890Y-154596829D02*
X142961165Y-154547048D01*
X58758772Y-74972562D02*
X58801039Y-75020581D01*
X142465285Y-154666097D02*
X142710890Y-154596829D01*
X87376036Y-94070584D02*
X87424055Y-94112851D01*
X142225874Y-154754422D02*
X142465285Y-154666097D01*
X153249983Y-132299169D02*
X153311690Y-132277738D01*
X141994124Y-154861257D02*
X142225874Y-154754422D01*
X58722853Y-74919385D02*
X58758772Y-74972562D01*
X141771467Y-154985951D02*
X141994124Y-154861257D01*
X87333769Y-94022565D02*
X87376036Y-94070584D01*
X141559279Y-155127728D02*
X141771467Y-154985951D01*
X153184920Y-132312467D02*
X153249983Y-132299169D01*
X141358870Y-155285710D02*
X141559279Y-155127728D01*
X58693876Y-74861650D02*
X58722853Y-74919385D01*
X141171492Y-155458936D02*
X141358870Y-155285710D01*
X87297850Y-93969388D02*
X87333769Y-94022565D01*
X140998274Y-155646329D02*
X141171492Y-155458936D01*
X153117079Y-132317029D02*
X153184920Y-132312467D01*
X140840285Y-155846730D02*
X140998274Y-155646329D01*
X58672438Y-74799947D02*
X58693876Y-74861650D01*
X140698500Y-156058911D02*
X140840285Y-155846730D01*
X87268873Y-93911653D02*
X87297850Y-93969388D01*
X140573820Y-156281560D02*
X140698500Y-156058911D01*
X140117079Y-132317029D02*
X140049254Y-132312474D01*
X140466978Y-156513310D02*
X140573820Y-156281560D01*
X58659147Y-74734876D02*
X58672438Y-74799947D01*
X140378660Y-156752728D02*
X140466978Y-156513310D01*
X87247435Y-93849950D02*
X87268873Y-93911653D01*
X140309386Y-156998334D02*
X140378660Y-156752728D01*
X139984175Y-132299176D02*
X140049254Y-132312474D01*
X140259596Y-157248616D02*
X140309386Y-156998334D01*
X58654585Y-74667027D02*
X58659147Y-74734876D01*
X140229613Y-157502042D02*
X140259596Y-157248616D01*
X87234144Y-93784879D02*
X87247435Y-93849950D01*
X140219588Y-157757031D02*
X140229613Y-157502042D01*
X139922468Y-132277745D02*
X139984175Y-132299176D01*
X146719588Y-157757031D02*
X146709578Y-157502042D01*
X72154585Y-61167027D02*
X72222410Y-61171594D01*
X146679579Y-157248616D02*
X146709578Y-157502042D01*
X87229582Y-93717031D02*
X87234144Y-93784879D01*
X146629805Y-156998334D02*
X146679579Y-157248616D01*
X139864729Y-132248776D02*
X139922468Y-132277745D01*
X146560530Y-156752728D02*
X146629805Y-156998334D01*
X72287489Y-61184888D02*
X72222410Y-61171594D01*
X146472182Y-156513310D02*
X146560530Y-156752728D01*
X100729582Y-80217031D02*
X100797407Y-80221597D01*
X146365370Y-156281560D02*
X146472182Y-156513310D01*
X139811552Y-132212857D02*
X139864729Y-132248776D01*
X146240675Y-156058911D02*
X146365370Y-156281560D01*
X72349196Y-61206323D02*
X72287489Y-61184888D01*
X146098891Y-155846730D02*
X146240675Y-156058911D01*
X100862486Y-80234891D02*
X100797407Y-80221597D01*
X145940901Y-155646329D02*
X146098891Y-155846730D01*
X139763533Y-132170590D02*
X139811552Y-132212857D01*
X145767683Y-155458936D02*
X145940901Y-155646329D01*
X72406935Y-61235295D02*
X72349196Y-61206323D01*
X145580305Y-155285710D02*
X145767683Y-155458936D01*
X100924193Y-80256322D02*
X100862486Y-80234891D01*
X145379896Y-155127728D02*
X145580305Y-155285710D01*
X139721266Y-132122571D02*
X139763533Y-132170590D01*
X145167708Y-154985951D02*
X145379896Y-155127728D01*
X72460112Y-61271214D02*
X72406935Y-61235295D01*
X144945051Y-154861257D02*
X145167708Y-154985951D01*
X100981932Y-80285295D02*
X100924193Y-80256322D01*
X144713301Y-154754422D02*
X144945051Y-154861257D01*
X139685347Y-132069394D02*
X139721266Y-132122571D01*
X144473891Y-154666097D02*
X144713301Y-154754422D01*
X72508131Y-61313478D02*
X72460112Y-61271214D01*
X144228285Y-154596829D02*
X144473891Y-154666097D01*
X101035109Y-80321210D02*
X100981932Y-80285295D01*
X144228285Y-154596829D02*
X143978010Y-154547048D01*
X139656370Y-132011655D02*
X139685347Y-132069394D01*
X143724592Y-154517049D02*
X143469588Y-154507031D01*
X72550398Y-61361493D02*
X72508131Y-61313478D01*
X46673887Y-99163198D02*
X46428282Y-99093930D01*
X101083128Y-80363477D02*
X101035109Y-80321210D01*
X45669584Y-105504132D02*
X45924574Y-105494115D01*
X139634932Y-131949948D02*
X139656370Y-132011655D01*
X46177992Y-105464116D02*
X45924574Y-105494115D01*
X72586317Y-61414670D02*
X72550398Y-61361493D01*
X46428282Y-105414334D02*
X46177992Y-105464116D01*
X101125395Y-80411496D02*
X101083128Y-80363477D01*
X46673887Y-105345067D02*
X46428282Y-105414334D01*
X139621641Y-131884877D02*
X139634932Y-131949948D01*
X46913313Y-105256742D02*
X46673887Y-105345067D01*
X72615294Y-61472409D02*
X72586317Y-61414670D01*
X47145048Y-105149907D02*
X46913313Y-105256742D01*
X101161314Y-80464673D02*
X101125395Y-80411496D01*
X47367705Y-105025212D02*
X47145048Y-105149907D01*
X139617079Y-131817029D02*
X139621641Y-131884877D01*
X47579893Y-104883435D02*
X47367705Y-105025212D01*
X72636732Y-61534108D02*
X72615294Y-61472409D01*
X47780287Y-104725453D02*
X47579893Y-104883435D01*
X101190291Y-80522408D02*
X101161314Y-80464673D01*
X47967680Y-104552228D02*
X47780287Y-104725453D01*
X153117079Y-118317029D02*
X153184950Y-118321584D01*
X48140898Y-104364835D02*
X47967680Y-104552228D01*
X72650023Y-61599183D02*
X72636732Y-61534108D01*
X48298887Y-104164433D02*
X48140898Y-104364835D01*
X101211729Y-80584111D02*
X101190291Y-80522408D01*
X48440672Y-103952252D02*
X48298887Y-104164433D01*
X153250014Y-118334882D02*
X153184950Y-118321584D01*
X48565352Y-103729604D02*
X48440672Y-103952252D01*
X72654585Y-61667027D02*
X72650023Y-61599183D01*
X48672194Y-103497853D02*
X48565352Y-103729604D01*
X101225020Y-80649182D02*
X101211729Y-80584111D01*
X48760512Y-103258435D02*
X48672194Y-103497853D01*
X153311720Y-118356313D02*
X153250014Y-118334882D01*
X48829787Y-103012830D02*
X48760512Y-103258435D01*
X58654585Y-61667027D02*
X58659132Y-61599183D01*
X48879576Y-102762547D02*
X48829787Y-103012830D01*
X101229582Y-80717031D02*
X101225020Y-80649182D01*
X48909559Y-102509122D02*
X48879576Y-102762547D01*
X153369459Y-118385282D02*
X153311720Y-118356313D01*
X48919584Y-102254132D02*
X48909559Y-102509122D01*
X58672423Y-61534108D02*
X58659132Y-61599183D01*
X48909559Y-101999143D02*
X48919584Y-102254132D01*
X87229582Y-80717031D02*
X87234129Y-80649182D01*
X48879576Y-101745717D02*
X48909559Y-101999143D01*
X153422621Y-118421201D02*
X153369459Y-118385282D01*
X48829787Y-101495435D02*
X48879576Y-101745717D01*
X58693861Y-61472409D02*
X58672423Y-61534108D01*
X48760512Y-101249829D02*
X48829787Y-101495435D01*
X87247420Y-80584111D02*
X87234129Y-80649182D01*
X48672194Y-101010411D02*
X48760512Y-101249829D01*
X153470625Y-118463468D02*
X153422621Y-118421201D01*
X48565352Y-100778661D02*
X48672194Y-101010411D01*
X58722838Y-61414670D02*
X58693861Y-61472409D01*
X48440672Y-100556012D02*
X48565352Y-100778661D01*
X87268858Y-80522408D02*
X87247420Y-80584111D01*
X48298887Y-100343831D02*
X48440672Y-100556012D01*
X153512892Y-118511487D02*
X153470625Y-118463468D01*
X48140898Y-100143430D02*
X48298887Y-100343831D01*
X58758757Y-61361493D02*
X58722838Y-61414670D01*
X47967680Y-99956037D02*
X48140898Y-100143430D01*
X87297835Y-80464673D02*
X87268858Y-80522408D01*
X46177992Y-99044148D02*
X46428282Y-99093930D01*
X153548811Y-118564664D02*
X153512892Y-118511487D01*
X45924574Y-99014150D02*
X46177992Y-99044148D01*
X58801024Y-61313478D02*
X58758757Y-61361493D01*
X45669584Y-99004132D02*
X45924574Y-99014150D01*
X87333754Y-80411496D02*
X87297835Y-80464673D01*
X46913313Y-99251523D02*
X47145048Y-99358357D01*
X153577772Y-118622403D02*
X153548811Y-118564664D01*
X47367705Y-99483052D02*
X47145048Y-99358357D01*
X58849043Y-61271214D02*
X58801024Y-61313478D01*
X46913313Y-99251523D02*
X46673887Y-99163198D01*
X87376021Y-80363477D02*
X87333754Y-80411496D01*
X47579893Y-99624829D02*
X47367705Y-99483052D01*
X153599196Y-118684110D02*
X153577772Y-118622403D01*
X47780287Y-99782811D02*
X47579893Y-99624829D01*
X58902220Y-61235295D02*
X58849043Y-61271214D01*
X47967680Y-99956037D02*
X47780287Y-99782811D01*
X87424040Y-80321210D02*
X87376021Y-80363477D01*
X41579573Y-66479268D02*
X45679579Y-66479268D01*
X153612501Y-118749181D02*
X153599196Y-118684110D01*
X58959959Y-61206323D02*
X58902220Y-61235295D01*
X87477217Y-80285295D02*
X87424040Y-80321210D01*
X44867079Y-118317029D02*
X50095762Y-118317029D01*
X153617079Y-118817029D02*
X153612501Y-118749181D01*
X59021666Y-61184888D02*
X58959959Y-61206323D01*
X87534956Y-80256322D02*
X87477217Y-80285295D01*
X139617079Y-118817029D02*
X139621626Y-118749188D01*
X153904188Y-30175000D02*
X87959440Y-30175000D01*
X43590559Y-30175000D02*
X87959440Y-30175000D01*
X59086745Y-61171594D02*
X59021666Y-61184888D01*
X161894972Y-22629491D02*
X157118147Y-27140149D01*
X157118147Y-27140149D02*
X153904188Y-30175000D01*
X87596663Y-80234891D02*
X87534956Y-80256322D01*
X41858519Y-31175000D02*
X41972532Y-30999433D01*
X139634917Y-118684117D02*
X139621626Y-118749188D01*
X43381514Y-30185956D02*
X43590559Y-30175000D01*
X59154585Y-61167027D02*
X59086745Y-61171594D01*
X43174757Y-30218701D02*
X43381514Y-30185956D01*
X87661741Y-80221597D02*
X87596663Y-80234891D01*
X42972532Y-30272885D02*
X43174757Y-30218701D01*
X139656355Y-118622411D02*
X139634917Y-118684117D01*
X42777098Y-30347913D02*
X42972532Y-30272885D01*
X87729582Y-80217031D02*
X87661741Y-80221597D01*
X42590574Y-30442952D02*
X42777098Y-30347913D01*
X139685332Y-118564672D02*
X139656355Y-118622411D01*
X42415007Y-30556966D02*
X42590574Y-30442952D01*
X82179579Y-93717031D02*
X82175032Y-93784879D01*
X42252302Y-30688710D02*
X42415007Y-30556966D01*
X139721251Y-118511495D02*
X139685332Y-118564672D01*
X42104277Y-30836736D02*
X42252302Y-30688710D01*
X82161741Y-93849950D02*
X82175032Y-93784879D01*
X41972532Y-30999433D02*
X42104277Y-30836736D01*
X139763518Y-118463475D02*
X139721251Y-118511495D01*
X41763472Y-31361524D02*
X41858519Y-31175000D01*
X82140303Y-93911653D02*
X82161741Y-93849950D01*
X41688444Y-31556966D02*
X41763472Y-31361524D01*
X139811537Y-118421208D02*
X139763518Y-118463475D01*
X41634260Y-31759175D02*
X41688444Y-31556966D01*
X82111326Y-93969388D02*
X82140303Y-93911653D01*
X41579573Y-31965947D02*
X41634260Y-31759175D01*
X139864714Y-118385289D02*
X139811537Y-118421208D01*
X216011549Y-46487844D02*
X215963545Y-46445580D01*
X82075407Y-94022565D02*
X82111326Y-93969388D01*
X215921278Y-46397565D02*
X215963545Y-46445580D01*
X139922453Y-118356320D02*
X139864714Y-118385289D01*
X215885359Y-46344388D02*
X215921278Y-46397565D01*
X82033140Y-94070584D02*
X82075407Y-94022565D01*
X215856398Y-46286649D02*
X215885359Y-46344388D01*
X139984160Y-118334889D02*
X139922453Y-118356320D01*
X72942076Y-99767026D02*
X72942076Y-109920194D01*
X81985121Y-94112851D02*
X82033140Y-94070584D01*
X72942076Y-111622014D02*
X72942076Y-109920194D01*
X72942076Y-112767026D02*
X72942076Y-111622014D01*
X140049238Y-118321591D02*
X139984160Y-118334889D01*
X215834975Y-46224950D02*
X215856398Y-46286649D01*
X81931944Y-94148770D02*
X81985121Y-94112851D01*
X215821669Y-46159875D02*
X215834975Y-46224950D01*
X140117079Y-118317029D02*
X140049238Y-118321591D01*
X215817091Y-46092031D02*
X215821669Y-46159875D01*
X81874205Y-94177739D02*
X81931944Y-94148770D01*
X174541579Y-62167027D02*
X180541579Y-62167027D01*
X134567076Y-131817029D02*
X134562529Y-131884870D01*
X229317091Y-32592031D02*
X229384962Y-32596593D01*
X81812498Y-94199170D02*
X81874205Y-94177739D01*
X197773817Y-133817029D02*
X197773817Y-119817029D01*
X134549238Y-131949941D02*
X134562529Y-131884870D01*
X229450026Y-32609891D02*
X229384962Y-32596593D01*
X81747420Y-94212468D02*
X81812498Y-94199170D01*
X49629576Y-80217031D02*
X62629576Y-80217031D01*
X134527800Y-132011647D02*
X134549238Y-131949941D01*
X229511732Y-32631322D02*
X229450026Y-32609891D01*
X81679579Y-94217031D02*
X81747420Y-94212468D01*
X229569472Y-32660291D02*
X229511732Y-32631322D01*
X134498823Y-132069386D02*
X134527800Y-132011647D01*
X44867079Y-132317029D02*
X57867079Y-132317029D01*
X68679579Y-94217031D02*
X68611754Y-94212468D01*
X229622633Y-32696210D02*
X229569472Y-32660291D01*
X134462904Y-132122563D02*
X134498823Y-132069386D01*
X229670637Y-32738477D02*
X229622633Y-32696210D01*
X68546675Y-94199170D02*
X68611754Y-94212468D01*
X87729582Y-32592031D02*
X100729582Y-32592031D01*
X134420637Y-132170583D02*
X134462904Y-132122563D01*
X229712904Y-32786496D02*
X229670637Y-32738477D01*
X68484968Y-94177739D02*
X68546675Y-94199170D01*
X153117079Y-132317029D02*
X140117079Y-132317029D01*
X134372618Y-132212850D02*
X134420637Y-132170583D01*
X229748823Y-32839673D02*
X229712904Y-32786496D01*
X68427229Y-94148770D02*
X68484968Y-94177739D01*
X106279585Y-33092031D02*
X106279585Y-43245198D01*
X134319441Y-132248769D02*
X134372618Y-132212850D01*
X106279585Y-44947015D02*
X106279585Y-43245198D01*
X106279585Y-46092031D02*
X106279585Y-44947015D01*
X68374052Y-94112851D02*
X68427229Y-94148770D01*
X229777785Y-32897405D02*
X229748823Y-32839673D01*
X134261702Y-132277738D02*
X134319441Y-132248769D01*
X229799208Y-32959111D02*
X229777785Y-32897405D01*
X68326033Y-94070584D02*
X68374052Y-94112851D01*
X229812514Y-33024182D02*
X229799208Y-32959111D01*
X134199995Y-132299169D02*
X134261702Y-132277738D01*
X229817091Y-33092031D02*
X229812514Y-33024182D01*
X68283766Y-94022565D02*
X68326033Y-94070584D01*
X196479567Y-61667027D02*
X196479567Y-74667027D01*
X134134917Y-132312467D02*
X134199995Y-132299169D01*
X215817091Y-33092031D02*
X215821699Y-33024182D01*
X68247847Y-93969388D02*
X68283766Y-94022565D01*
X73442076Y-99267026D02*
X86442076Y-99267026D01*
X134067076Y-132317029D02*
X134134917Y-132312467D01*
X215835005Y-32959111D02*
X215821699Y-33024182D01*
X68218870Y-93911653D02*
X68247847Y-93969388D01*
X215856428Y-32897405D02*
X215835005Y-32959111D01*
X121067076Y-132317029D02*
X120999251Y-132312474D01*
X215885390Y-32839673D02*
X215856428Y-32897405D01*
X68197432Y-93849950D02*
X68218870Y-93911653D01*
X167404585Y-32592031D02*
X159633284Y-32592031D01*
X154404585Y-32592031D02*
X159633284Y-32592031D01*
X120934172Y-132299176D02*
X120999251Y-132312474D01*
X215921309Y-32786496D02*
X215885390Y-32839673D01*
X68184141Y-93784879D02*
X68197432Y-93849950D01*
X202123335Y-112180028D02*
X188123335Y-112180028D01*
X120872465Y-132277745D02*
X120934172Y-132299176D01*
X215963576Y-32738477D02*
X215921309Y-32786496D01*
X68179579Y-93717031D02*
X68184141Y-93784879D01*
X216011580Y-32696210D02*
X215963576Y-32738477D01*
X120814726Y-132248776D02*
X120872465Y-132277745D01*
X216064741Y-32660291D02*
X216011580Y-32696210D01*
X81679579Y-80217031D02*
X81747404Y-80221597D01*
X102024519Y-138367032D02*
X96024519Y-138367032D01*
X120761549Y-132212857D02*
X120814726Y-132248776D01*
X216122481Y-32631322D02*
X216064741Y-32660291D01*
X81812483Y-80234891D02*
X81747404Y-80221597D01*
X216184187Y-32609891D02*
X216122481Y-32631322D01*
X120713530Y-132170590D02*
X120761549Y-132212857D01*
X216249251Y-32596593D02*
X216184187Y-32609891D01*
X81874190Y-80256322D02*
X81812483Y-80234891D01*
X87229582Y-88488343D02*
X87229582Y-80717031D01*
X87229582Y-88488343D02*
X87229582Y-93717031D01*
X120671263Y-132122571D02*
X120713530Y-132170590D01*
X216317091Y-32592031D02*
X216249251Y-32596593D01*
X81931929Y-80285295D02*
X81874190Y-80256322D01*
X235367079Y-156129529D02*
X248367079Y-156129529D01*
X120635344Y-132069394D02*
X120671263Y-132122571D01*
X206004591Y-46092031D02*
X205999983Y-46159875D01*
X81985106Y-80321210D02*
X81931929Y-80285295D01*
X96754576Y-69438340D02*
X96754576Y-61667027D01*
X96754576Y-69438340D02*
X96754576Y-74667027D01*
X120606367Y-132011655D02*
X120635344Y-132069394D01*
X205986677Y-46224950D02*
X205999983Y-46159875D01*
X82033125Y-80363477D02*
X81985106Y-80321210D01*
X182979567Y-61167027D02*
X195979567Y-61167027D01*
X120584929Y-131949948D02*
X120606367Y-132011655D01*
X205965254Y-46286649D02*
X205986677Y-46224950D01*
X82075392Y-80411496D02*
X82033125Y-80363477D01*
X205936293Y-46344388D02*
X205965254Y-46286649D01*
X120571638Y-131884877D02*
X120584929Y-131949948D01*
X134567076Y-118817029D02*
X134567076Y-128970197D01*
X82111311Y-80464673D02*
X82075392Y-80411496D01*
X134567076Y-128970197D02*
X134567076Y-131817029D01*
X120567076Y-131817029D02*
X120571638Y-131884877D01*
X205900374Y-46397565D02*
X205936293Y-46344388D01*
X82140288Y-80522408D02*
X82111311Y-80464673D01*
X134854582Y-33092031D02*
X134854582Y-46092031D01*
X134067076Y-118317029D02*
X134134901Y-118321584D01*
X205858107Y-46445580D02*
X205900374Y-46397565D01*
X82161726Y-80584111D02*
X82140288Y-80522408D01*
X153617079Y-118817029D02*
X153617079Y-131817029D01*
X134199980Y-118334882D02*
X134134901Y-118321584D01*
X205810103Y-46487844D02*
X205858107Y-46445580D01*
X82175017Y-80649182D02*
X82161726Y-80584111D01*
X187623335Y-105680028D02*
X187623335Y-111680028D01*
X134261687Y-118356313D02*
X134199980Y-118334882D01*
X205756941Y-46523763D02*
X205810103Y-46487844D01*
X82179579Y-80717031D02*
X82175017Y-80649182D01*
X205699202Y-46552735D02*
X205756941Y-46523763D01*
X134319426Y-118385282D02*
X134261687Y-118356313D01*
X205637495Y-46574170D02*
X205699202Y-46552735D01*
X68179579Y-80717031D02*
X68184126Y-80649182D01*
X229817091Y-61667027D02*
X229817091Y-67736527D01*
X229817091Y-71820199D02*
X229817091Y-67736527D01*
X134372603Y-118421201D02*
X134319426Y-118385282D01*
X229817091Y-71820199D02*
X229817091Y-74667027D01*
X68197417Y-80584111D02*
X68184126Y-80649182D01*
X205572432Y-46587464D02*
X205637495Y-46574170D01*
X134420622Y-118463468D02*
X134372603Y-118421201D01*
X205504591Y-46592031D02*
X205572432Y-46587464D01*
X68218855Y-80522408D02*
X68197417Y-80584111D01*
X192504591Y-46592031D02*
X192436720Y-46587464D01*
X134462889Y-118511487D02*
X134420622Y-118463468D01*
X95967085Y-132317029D02*
X95391798Y-132317029D01*
X88195769Y-132317029D02*
X95391798Y-132317029D01*
X82967085Y-132317029D02*
X88195769Y-132317029D01*
X68247832Y-80464673D02*
X68218855Y-80522408D01*
X192371657Y-46574170D02*
X192436720Y-46587464D01*
X134498808Y-118564664D02*
X134462889Y-118511487D01*
X192309950Y-46552735D02*
X192371657Y-46574170D01*
X68283751Y-80411496D02*
X68247832Y-80464673D01*
X163429579Y-80717031D02*
X163429579Y-93717031D01*
X134527785Y-118622403D02*
X134498808Y-118564664D01*
X192252211Y-46523763D02*
X192309950Y-46552735D01*
X68326018Y-80363477D02*
X68283751Y-80411496D01*
X181041579Y-62667027D02*
X181041579Y-76667027D01*
X134549223Y-118684110D02*
X134527785Y-118622403D01*
X192199049Y-46487844D02*
X192252211Y-46523763D01*
X68374037Y-80321210D02*
X68326018Y-80363477D01*
X102524519Y-138867032D02*
X102524519Y-152867032D01*
X134562514Y-118749181D02*
X134549223Y-118684110D01*
X192151045Y-46445580D02*
X192199049Y-46487844D01*
X68427214Y-80285295D02*
X68374037Y-80321210D01*
X192108778Y-46397565D02*
X192151045Y-46445580D01*
X134562514Y-118749181D02*
X134567076Y-118817029D01*
X78148512Y-153367032D02*
X72148512Y-153367032D01*
X68484953Y-80256322D02*
X68427214Y-80285295D01*
X192072859Y-46344388D02*
X192108778Y-46397565D01*
X120567076Y-118817029D02*
X120571623Y-118749188D01*
X182192091Y-99767026D02*
X182192091Y-112767026D01*
X68546660Y-80234891D02*
X68484953Y-80256322D01*
X192043898Y-46286649D02*
X192072859Y-46344388D01*
X120584913Y-118684117D02*
X120571623Y-118749188D01*
X144092085Y-99767026D02*
X144092085Y-107538342D01*
X144092085Y-112767026D02*
X144092085Y-107538342D01*
X68611738Y-80221597D02*
X68546660Y-80234891D01*
X192022475Y-46224950D02*
X192043898Y-46286649D01*
X120606352Y-118622411D02*
X120584913Y-118684117D01*
X77704573Y-67736527D02*
X77704573Y-61667027D01*
X77704573Y-71820199D02*
X77704573Y-67736527D01*
X68679579Y-80217031D02*
X68611738Y-80221597D01*
X77704573Y-71820199D02*
X77704573Y-74667027D01*
X120635329Y-118564672D02*
X120606352Y-118622411D01*
X192009169Y-46159875D02*
X192022475Y-46224950D01*
X63129576Y-93717031D02*
X63125029Y-93784879D01*
X192004591Y-46092031D02*
X192009169Y-46159875D01*
X120671248Y-118511495D02*
X120635329Y-118564672D01*
X205504591Y-32592031D02*
X205572462Y-32596593D01*
X63111738Y-93849950D02*
X63125029Y-93784879D01*
X205637526Y-32609891D02*
X205572462Y-32596593D01*
X120713515Y-118463475D02*
X120671248Y-118511495D01*
X181692091Y-113267026D02*
X173920790Y-113267026D01*
X168692091Y-113267026D02*
X173920790Y-113267026D01*
X63090300Y-93911653D02*
X63111738Y-93849950D01*
X205699232Y-32631322D02*
X205637526Y-32609891D01*
X120761534Y-118421208D02*
X120713515Y-118463475D01*
X205756972Y-32660291D02*
X205699232Y-32631322D01*
X63061323Y-93969388D02*
X63090300Y-93911653D01*
X197267073Y-156129529D02*
X210267073Y-156129529D01*
X120814711Y-118385289D02*
X120761534Y-118421208D01*
X205810133Y-32696210D02*
X205756972Y-32660291D01*
X63025404Y-94022565D02*
X63061323Y-93969388D01*
X235367079Y-32592031D02*
X248367079Y-32592031D01*
X120872450Y-118356320D02*
X120814711Y-118385289D01*
X205858137Y-32738477D02*
X205810133Y-32696210D01*
X62983137Y-94070584D02*
X63025404Y-94022565D01*
X44367079Y-118817029D02*
X44367079Y-126588346D01*
X44367079Y-131817029D02*
X44367079Y-126588346D01*
X120934157Y-118334889D02*
X120872450Y-118356320D01*
X205900404Y-32786496D02*
X205858137Y-32738477D01*
X62935118Y-94112851D02*
X62983137Y-94070584D01*
X205936323Y-32839673D02*
X205900404Y-32786496D01*
X120999235Y-118321591D02*
X120934157Y-118334889D01*
X68179579Y-88488343D02*
X68179579Y-80717031D01*
X68179579Y-88488343D02*
X68179579Y-93717031D01*
X62881941Y-94148770D02*
X62935118Y-94112851D01*
X205965285Y-32897405D02*
X205936323Y-32839673D01*
X121067076Y-118317029D02*
X120999235Y-118321591D01*
X168692091Y-99267026D02*
X181692091Y-99267026D01*
X62824202Y-94177739D02*
X62881941Y-94148770D01*
X205986708Y-32959111D02*
X205965285Y-32897405D01*
X115517073Y-131817029D02*
X115512526Y-131884870D01*
X206000014Y-33024182D02*
X205986708Y-32959111D01*
X62762495Y-94199170D02*
X62824202Y-94177739D01*
X205504591Y-46592031D02*
X192504591Y-46592031D01*
X115499235Y-131949941D02*
X115512526Y-131884870D01*
X206004591Y-33092031D02*
X206000014Y-33024182D01*
X62697417Y-94212468D02*
X62762495Y-94199170D01*
X129804579Y-61667027D02*
X129804579Y-69438340D01*
X129804579Y-74667027D02*
X129804579Y-69438340D01*
X115477797Y-132011647D02*
X115499235Y-131949941D01*
X192004591Y-33092031D02*
X192009199Y-33024182D01*
X62629576Y-94217031D02*
X62697417Y-94212468D01*
X87229582Y-33092031D02*
X87229582Y-46092031D01*
X115448820Y-132069386D02*
X115477797Y-132011647D01*
X192022505Y-32959111D02*
X192009199Y-33024182D01*
X49629576Y-94217031D02*
X49561751Y-94212468D01*
X192043928Y-32897405D02*
X192022505Y-32959111D01*
X115412901Y-132122563D02*
X115448820Y-132069386D01*
X106779585Y-46592031D02*
X119779585Y-46592031D01*
X49496672Y-94199170D02*
X49561751Y-94212468D01*
X192072890Y-32839673D02*
X192043928Y-32897405D01*
X115370634Y-132170583D02*
X115412901Y-132122563D01*
X192108809Y-32786496D02*
X192072890Y-32839673D01*
X49434965Y-94177739D02*
X49496672Y-94199170D01*
X106279585Y-88488343D02*
X106279585Y-80717031D01*
X106279585Y-88488343D02*
X106279585Y-93717031D01*
X115322615Y-132212850D02*
X115370634Y-132170583D01*
X192151076Y-32738477D02*
X192108809Y-32786496D01*
X49377226Y-94148770D02*
X49434965Y-94177739D01*
X192199080Y-32696210D02*
X192151076Y-32738477D01*
X115269438Y-132248769D02*
X115322615Y-132212850D01*
X192252241Y-32660291D02*
X192199080Y-32696210D01*
X49324049Y-94112851D02*
X49377226Y-94148770D01*
X54392073Y-99267026D02*
X67392073Y-99267026D01*
X115211699Y-132277738D02*
X115269438Y-132248769D01*
X192309981Y-32631322D02*
X192252241Y-32660291D01*
X49276030Y-94070584D02*
X49324049Y-94112851D01*
X215817091Y-61667027D02*
X215817091Y-69438340D01*
X215817091Y-74667027D02*
X215817091Y-69438340D01*
X115149992Y-132299169D02*
X115211699Y-132277738D01*
X192371687Y-32609891D02*
X192309981Y-32631322D01*
X49233763Y-94022565D02*
X49276030Y-94070584D01*
X216317091Y-80217031D02*
X229317091Y-80217031D01*
X115084913Y-132312467D02*
X115149992Y-132299169D01*
X192436751Y-32596593D02*
X192371687Y-32609891D01*
X49197844Y-93969388D02*
X49233763Y-94022565D01*
X197273817Y-119317029D02*
X191273817Y-119317029D01*
X115017073Y-132317029D02*
X115084913Y-132312467D01*
X192504591Y-32592031D02*
X192436751Y-32596593D01*
X49168867Y-93911653D02*
X49197844Y-93969388D01*
X134067076Y-118317029D02*
X121067076Y-118317029D01*
X102017073Y-132317029D02*
X101949248Y-132312474D01*
X186954573Y-46092031D02*
X186949965Y-46159875D01*
X49147429Y-93849950D02*
X49168867Y-93911653D01*
X186936659Y-46224950D02*
X186949965Y-46159875D01*
X101884169Y-132299176D02*
X101949248Y-132312474D01*
X197267073Y-142129529D02*
X210267073Y-142129529D01*
X49134138Y-93784879D02*
X49147429Y-93849950D01*
X186915236Y-46286649D02*
X186936659Y-46224950D01*
X101822462Y-132277745D02*
X101884169Y-132299176D01*
X248867079Y-80717031D02*
X248867079Y-93717031D01*
X49129576Y-93717031D02*
X49134138Y-93784879D01*
X186886275Y-46344388D02*
X186915236Y-46286649D01*
X101764723Y-132248776D02*
X101822462Y-132277745D01*
X111042082Y-99767026D02*
X111042082Y-109920194D01*
X62697401Y-80221597D02*
X62629576Y-80217031D01*
X111042082Y-111622014D02*
X111042082Y-109920194D01*
X111042082Y-112767026D02*
X111042082Y-111622014D01*
X101711546Y-132212857D02*
X101764723Y-132248776D01*
X186850355Y-46397565D02*
X186886275Y-46344388D01*
X62762480Y-80234891D02*
X62697401Y-80221597D01*
X102024519Y-153367032D02*
X96024519Y-153367032D01*
X101663527Y-132170590D02*
X101711546Y-132212857D01*
X157879591Y-80217031D02*
X147726423Y-80217031D01*
X62824187Y-80256322D02*
X62762480Y-80234891D01*
X147491804Y-80217031D02*
X147726423Y-80217031D01*
X147491804Y-80217031D02*
X144879591Y-80217031D01*
X101621260Y-132122571D02*
X101663527Y-132170590D01*
X186808089Y-46445580D02*
X186850355Y-46397565D01*
X62881926Y-80285295D02*
X62824187Y-80256322D01*
X81679579Y-94217031D02*
X68679579Y-94217031D01*
X101585341Y-132069394D02*
X101621260Y-132122571D01*
X186760084Y-46487844D02*
X186808089Y-46445580D01*
X62935103Y-80321210D02*
X62881926Y-80285295D01*
X186706923Y-46523763D02*
X186760084Y-46487844D01*
X101556364Y-132011655D02*
X101585341Y-132069394D01*
X81679579Y-32592031D02*
X71526411Y-32592031D01*
X62983122Y-80363477D02*
X62935103Y-80321210D01*
X68679579Y-32592031D02*
X71526411Y-32592031D01*
X101534926Y-131949948D02*
X101556364Y-132011655D01*
X186649183Y-46552735D02*
X186706923Y-46523763D01*
X63025389Y-80411496D02*
X62983122Y-80363477D01*
X80086531Y-137867032D02*
X80086531Y-147622296D01*
X80086531Y-147622296D02*
X80086531Y-150867032D01*
X101521635Y-131884877D02*
X101534926Y-131949948D01*
X186587477Y-46574170D02*
X186649183Y-46552735D01*
X63061308Y-80464673D02*
X63025389Y-80411496D01*
X149642073Y-99267026D02*
X162642073Y-99267026D01*
X101517073Y-131817029D02*
X101521635Y-131884877D01*
X186522413Y-46587464D02*
X186587477Y-46574170D01*
X63090285Y-80522408D02*
X63061308Y-80464673D01*
X186454573Y-46592031D02*
X186522413Y-46587464D01*
X115017073Y-118317029D02*
X115084898Y-118321584D01*
X182187483Y-112834867D02*
X182192091Y-112767026D01*
X63111723Y-80584111D02*
X63090285Y-80522408D01*
X78148512Y-138367032D02*
X72148512Y-138367032D01*
X115149977Y-118334882D02*
X115084898Y-118321584D01*
X173454573Y-46592031D02*
X173386702Y-46587464D01*
X63125014Y-80649182D02*
X63111723Y-80584111D01*
X182174177Y-112899938D02*
X182187483Y-112834867D01*
X115211683Y-118356313D02*
X115149977Y-118334882D01*
X235367079Y-80217031D02*
X248367079Y-80217031D01*
X63129576Y-80717031D02*
X63125014Y-80649182D01*
X173321638Y-46574170D02*
X173386702Y-46587464D01*
X115269423Y-118385282D02*
X115211683Y-118356313D01*
X182152754Y-112961644D02*
X182174177Y-112899938D01*
X49129576Y-80717031D02*
X49134123Y-80649182D01*
X248367079Y-61167027D02*
X235367079Y-61167027D01*
X115322600Y-118421201D02*
X115269423Y-118385282D01*
X173259932Y-46552735D02*
X173321638Y-46574170D01*
X49147413Y-80584111D02*
X49134123Y-80649182D01*
X182123793Y-113019383D02*
X182152754Y-112961644D01*
X115370619Y-118463468D02*
X115322600Y-118421201D01*
X120567076Y-128970197D02*
X120567076Y-118817029D01*
X49168852Y-80522408D02*
X49147413Y-80584111D01*
X120567076Y-130672017D02*
X120567076Y-128970197D01*
X120567076Y-130672017D02*
X120567076Y-131817029D01*
X115412886Y-118511487D02*
X115370619Y-118463468D01*
X173202193Y-46523763D02*
X173259932Y-46552735D01*
X49197829Y-80464673D02*
X49168852Y-80522408D01*
X182087874Y-113072560D02*
X182123793Y-113019383D01*
X115448805Y-118564664D02*
X115412886Y-118511487D01*
X173897841Y-119817029D02*
X173897841Y-133817029D01*
X49233748Y-80411496D02*
X49197829Y-80464673D01*
X175335829Y-118817029D02*
X175335829Y-131817029D01*
X115477782Y-118622403D02*
X115448805Y-118564664D01*
X173149031Y-46487844D02*
X173202193Y-46523763D01*
X49276015Y-80363477D02*
X49233748Y-80411496D01*
X182045607Y-113120580D02*
X182087874Y-113072560D01*
X115499220Y-118684110D02*
X115477782Y-118622403D01*
X216317091Y-123079526D02*
X229317091Y-123079526D01*
X49324034Y-80321210D02*
X49276015Y-80363477D01*
X173101027Y-46445580D02*
X173149031Y-46487844D01*
X115512511Y-118749181D02*
X115499220Y-118684110D01*
X181997603Y-113162847D02*
X182045607Y-113120580D01*
X49377211Y-80285295D02*
X49324034Y-80321210D01*
X186954573Y-33092031D02*
X186954573Y-40863343D01*
X186954573Y-40863343D02*
X186954573Y-46092031D01*
X115517073Y-118817029D02*
X115512511Y-118749181D01*
X173058760Y-46397565D02*
X173101027Y-46445580D01*
X49434950Y-80256322D02*
X49377211Y-80285295D01*
X181944441Y-113198766D02*
X181997603Y-113162847D01*
X101517073Y-118817029D02*
X101521620Y-118749188D01*
X173022841Y-46344388D02*
X173058760Y-46397565D01*
X49496657Y-80234891D02*
X49434950Y-80256322D01*
X181886702Y-113227735D02*
X181944441Y-113198766D01*
X101534910Y-118684117D02*
X101521620Y-118749188D01*
X58367079Y-118817029D02*
X58367079Y-128970197D01*
X49561735Y-80221597D02*
X49496657Y-80234891D01*
X58367079Y-131817029D02*
X58367079Y-128970197D01*
X101556349Y-118622411D02*
X101534910Y-118684117D01*
X172993880Y-46286649D02*
X173022841Y-46344388D01*
X49561735Y-80221597D02*
X49629576Y-80217031D01*
X181824995Y-113249166D02*
X181886702Y-113227735D01*
X101585325Y-118564672D02*
X101556349Y-118622411D01*
X202123335Y-105180028D02*
X188123335Y-105180028D01*
X101621245Y-118511495D02*
X101585325Y-118564672D01*
X115517073Y-128970197D02*
X115517073Y-118817029D01*
X101663511Y-118463475D02*
X101621245Y-118511495D01*
X115517073Y-130672017D02*
X115517073Y-128970197D01*
X115517073Y-130672017D02*
X115517073Y-131817029D01*
X101711531Y-118421208D02*
X101663511Y-118463475D01*
X172972456Y-46224950D02*
X172993880Y-46286649D01*
X101764708Y-118385289D02*
X101711531Y-118421208D01*
X181759932Y-113262464D02*
X181824995Y-113249166D01*
X101822447Y-118356320D02*
X101764708Y-118385289D01*
X176929579Y-94217031D02*
X169158278Y-94217031D01*
X163929579Y-94217031D02*
X169158278Y-94217031D01*
X101884154Y-118334889D02*
X101822447Y-118356320D01*
X172959151Y-46159875D02*
X172972456Y-46224950D01*
X101949232Y-118321591D02*
X101884154Y-118334889D01*
X181759932Y-113262464D02*
X181692091Y-113267026D01*
X102017073Y-118317029D02*
X101949232Y-118321591D01*
X163929579Y-80217031D02*
X176929579Y-80217031D01*
X96467085Y-131817029D02*
X96462538Y-131884870D01*
X172954573Y-46092031D02*
X172959151Y-46159875D01*
X96449248Y-131949941D02*
X96462538Y-131884870D01*
X168624220Y-113262471D02*
X168692091Y-113267026D01*
X96427809Y-132011647D02*
X96449248Y-131949941D01*
X131685835Y-137367032D02*
X118685835Y-137367032D01*
X96398833Y-132069386D02*
X96427809Y-132011647D01*
X186454573Y-32592031D02*
X186522444Y-32596593D01*
X96362913Y-132122563D02*
X96398833Y-132069386D01*
X168559157Y-113249173D02*
X168624220Y-113262471D01*
X96320647Y-132170583D02*
X96362913Y-132122563D01*
X144379591Y-80717031D02*
X144379591Y-88488343D01*
X144379591Y-93717031D02*
X144379591Y-88488343D01*
X96272627Y-132212850D02*
X96320647Y-132170583D01*
X248367079Y-94217031D02*
X235367079Y-94217031D01*
X96219450Y-132248769D02*
X96272627Y-132212850D01*
X186587507Y-32609891D02*
X186522444Y-32596593D01*
X96161711Y-132277738D02*
X96219450Y-132248769D01*
X168497450Y-113227742D02*
X168559157Y-113249173D01*
X96100004Y-132299169D02*
X96161711Y-132277738D01*
X139617079Y-118817029D02*
X139617079Y-131817029D01*
X96034926Y-132312467D02*
X96100004Y-132299169D01*
X180541579Y-77167027D02*
X177740278Y-77167027D01*
X175855513Y-77167027D02*
X177740278Y-77167027D01*
X96034926Y-132312467D02*
X95967085Y-132317029D01*
X174541579Y-77167027D02*
X175855513Y-77167027D01*
X82899260Y-132312474D02*
X82967085Y-132317029D01*
X186649214Y-32631322D02*
X186587507Y-32609891D01*
X82834181Y-132299176D02*
X82899260Y-132312474D01*
X168439711Y-113198773D02*
X168497450Y-113227742D01*
X82772475Y-132277745D02*
X82834181Y-132299176D01*
X72154585Y-75167027D02*
X59154585Y-75167027D01*
X82714735Y-132248776D02*
X82772475Y-132277745D01*
X229817091Y-142629529D02*
X229817091Y-152782697D01*
X82661558Y-132212857D02*
X82714735Y-132248776D01*
X229817091Y-154484517D02*
X229817091Y-152782697D01*
X229817091Y-155629529D02*
X229817091Y-154484517D01*
X82613539Y-132170590D02*
X82661558Y-132212857D01*
X186706953Y-32660291D02*
X186649214Y-32631322D01*
X82571272Y-132122571D02*
X82613539Y-132170590D01*
X168386549Y-113162854D02*
X168439711Y-113198773D01*
X82535353Y-132069394D02*
X82571272Y-132122571D01*
X198417586Y-62167027D02*
X204417586Y-62167027D01*
X82506376Y-132011655D02*
X82535353Y-132069394D01*
X101517073Y-124886525D02*
X101517073Y-118817029D01*
X101517073Y-128970197D02*
X101517073Y-124886525D01*
X82484938Y-131949948D02*
X82506376Y-132011655D01*
X101517073Y-128970197D02*
X101517073Y-131817029D01*
X82471647Y-131884877D02*
X82484938Y-131949948D01*
X186760115Y-32696210D02*
X186706953Y-32660291D01*
X82467085Y-131817029D02*
X82471647Y-131884877D01*
X168338545Y-113120587D02*
X168386549Y-113162854D01*
X95967085Y-118317029D02*
X96034910Y-118321584D01*
X54392073Y-113267026D02*
X67392073Y-113267026D01*
X96099989Y-118334882D02*
X96034910Y-118321584D01*
X202123335Y-81304029D02*
X188123335Y-81304029D01*
X96161696Y-118356313D02*
X96099989Y-118334882D01*
X186808119Y-32738477D02*
X186760115Y-32696210D01*
X96219435Y-118385282D02*
X96161696Y-118356313D01*
X168296278Y-113072568D02*
X168338545Y-113120587D01*
X96272612Y-118421201D02*
X96219435Y-118385282D01*
X129304579Y-61167027D02*
X116304579Y-61167027D01*
X96320631Y-118463468D02*
X96272612Y-118421201D01*
X71648512Y-138867032D02*
X71648512Y-152867032D01*
X96362898Y-118511487D02*
X96320631Y-118463468D01*
X186850386Y-32786496D02*
X186808119Y-32738477D01*
X96398817Y-118564664D02*
X96362898Y-118511487D01*
X168260359Y-113019391D02*
X168296278Y-113072568D01*
X96427794Y-118622403D02*
X96398817Y-118564664D01*
X189335829Y-118817029D02*
X189335829Y-131817029D01*
X96449232Y-118684110D02*
X96427794Y-118622403D01*
X186886305Y-32839673D02*
X186850386Y-32786496D01*
X96462523Y-118749181D02*
X96449232Y-118684110D01*
X168231398Y-112961652D02*
X168260359Y-113019391D01*
X96467085Y-118817029D02*
X96462523Y-118749181D01*
X116304579Y-75167027D02*
X129304579Y-75167027D01*
X82467085Y-118817029D02*
X82471632Y-118749188D01*
X62629576Y-94217031D02*
X49629576Y-94217031D01*
X82484923Y-118684117D02*
X82471632Y-118749188D01*
X186915266Y-32897405D02*
X186886305Y-32839673D01*
X82506361Y-118622411D02*
X82484923Y-118684117D01*
X168209975Y-112899945D02*
X168231398Y-112961652D01*
X82535338Y-118564672D02*
X82506361Y-118622411D01*
X167904585Y-33092031D02*
X167904585Y-43245198D01*
X82571257Y-118511495D02*
X82535338Y-118564672D01*
X167904585Y-44947015D02*
X167904585Y-43245198D01*
X167904585Y-46092031D02*
X167904585Y-44947015D01*
X82613524Y-118463475D02*
X82571257Y-118511495D01*
X186936690Y-32959111D02*
X186915266Y-32897405D01*
X82661543Y-118421208D02*
X82613524Y-118463475D01*
X168196669Y-112834874D02*
X168209975Y-112899945D01*
X82714720Y-118385289D02*
X82661543Y-118421208D01*
X130592085Y-99267026D02*
X143592085Y-99267026D01*
X82772459Y-118356320D02*
X82714720Y-118385289D01*
X186949995Y-33024182D02*
X186936690Y-32959111D01*
X82834166Y-118334889D02*
X82772459Y-118356320D01*
X168192091Y-112767026D02*
X168196669Y-112834874D01*
X82899245Y-118321591D02*
X82834166Y-118334889D01*
X134854582Y-61667027D02*
X134854582Y-69438340D01*
X134854582Y-74667027D02*
X134854582Y-69438340D01*
X82967085Y-118317029D02*
X82899245Y-118321591D01*
X186949995Y-33024182D02*
X186954573Y-33092031D01*
X77417082Y-131817029D02*
X77412535Y-131884870D01*
X181759962Y-99271581D02*
X181692091Y-99267026D01*
X77399245Y-131949941D02*
X77412535Y-131884870D01*
X172954573Y-33092031D02*
X172959181Y-33024182D01*
X77377806Y-132011647D02*
X77399245Y-131949941D01*
X181825026Y-99284879D02*
X181759962Y-99271581D01*
X77348829Y-132069386D02*
X77377806Y-132011647D01*
X167904585Y-61667027D02*
X167904585Y-74667027D01*
X77312910Y-132122563D02*
X77348829Y-132069386D01*
X172972487Y-32959111D02*
X172959181Y-33024182D01*
X77270643Y-132170583D02*
X77312910Y-132122563D01*
X181886732Y-99306310D02*
X181825026Y-99284879D01*
X77222624Y-132212850D02*
X77270643Y-132170583D01*
X91704573Y-69438340D02*
X91704573Y-61667027D01*
X91704573Y-69438340D02*
X91704573Y-74667027D01*
X77169447Y-132248769D02*
X77222624Y-132212850D01*
X234867079Y-80717031D02*
X234867079Y-86786530D01*
X234867079Y-90870202D02*
X234867079Y-86786530D01*
X77111708Y-132277738D02*
X77169447Y-132248769D01*
X234867079Y-93717031D02*
X234867079Y-90870202D01*
X77050001Y-132299169D02*
X77111708Y-132277738D01*
X172993910Y-32897405D02*
X172972487Y-32959111D01*
X76999174Y-132309552D02*
X77050001Y-132299169D01*
X181944472Y-99335279D02*
X181886732Y-99306310D01*
X76984923Y-132312467D02*
X76999174Y-132309552D01*
X135354582Y-75167027D02*
X148354567Y-75167027D01*
X76917082Y-132317029D02*
X76984923Y-132312467D01*
X165810835Y-137867032D02*
X165810835Y-150867032D01*
X63917082Y-132317029D02*
X63849257Y-132312474D01*
X173022871Y-32839673D02*
X172993910Y-32897405D01*
X63784178Y-132299176D02*
X63849257Y-132312474D01*
X181997633Y-99371198D02*
X181944472Y-99335279D01*
X63722471Y-132277745D02*
X63784178Y-132299176D01*
X173058790Y-32786496D02*
X173022871Y-32839673D01*
X63664732Y-132248776D02*
X63722471Y-132277745D01*
X182045637Y-99413465D02*
X181997633Y-99371198D01*
X63611555Y-132212857D02*
X63664732Y-132248776D01*
X215817091Y-142629529D02*
X215817091Y-152782697D01*
X63563536Y-132170590D02*
X63611555Y-132212857D01*
X215817091Y-155629529D02*
X215817091Y-152782697D01*
X63521269Y-132122571D02*
X63563536Y-132170590D01*
X229317091Y-75167027D02*
X216317091Y-75167027D01*
X63485350Y-132069394D02*
X63521269Y-132122571D01*
X173101057Y-32738477D02*
X173058790Y-32786496D01*
X63456373Y-132011655D02*
X63485350Y-132069394D01*
X182087904Y-99461484D02*
X182045637Y-99413465D01*
X63434935Y-131949948D02*
X63456373Y-132011655D01*
X197917586Y-62667027D02*
X197917586Y-76667027D01*
X63421644Y-131884877D02*
X63434935Y-131949948D01*
X189623335Y-90242028D02*
X189623335Y-103242032D01*
X63417082Y-131817029D02*
X63421644Y-131884877D01*
X173149061Y-32696210D02*
X173101057Y-32738477D01*
X76917082Y-118317029D02*
X76984907Y-118321584D01*
X182123823Y-99514661D02*
X182087904Y-99461484D01*
X77049986Y-118334882D02*
X76984907Y-118321584D01*
X110254576Y-61167027D02*
X97254576Y-61167027D01*
X77111693Y-118356313D02*
X77049986Y-118334882D01*
X172954573Y-43245198D02*
X172954573Y-33092031D01*
X77169432Y-118385282D02*
X77111693Y-118356313D01*
X172954573Y-44947015D02*
X172954573Y-43245198D01*
X172954573Y-44947015D02*
X172954573Y-46092031D01*
X77222609Y-118421201D02*
X77169432Y-118385282D01*
X173202223Y-32660291D02*
X173149061Y-32696210D01*
X77270628Y-118463468D02*
X77222609Y-118421201D01*
X182152785Y-99572400D02*
X182123823Y-99514661D01*
X77312895Y-118511487D02*
X77270628Y-118463468D01*
X90341795Y-137367032D02*
X93586531Y-137367032D01*
X90341795Y-137367032D02*
X80586531Y-137367032D01*
X77348814Y-118564664D02*
X77312895Y-118511487D01*
X173259962Y-32631322D02*
X173202223Y-32660291D01*
X77377791Y-118622403D02*
X77348814Y-118564664D01*
X182174208Y-99634107D02*
X182152785Y-99572400D01*
X77399229Y-118684110D02*
X77377791Y-118622403D01*
X154404585Y-46592031D02*
X167404585Y-46592031D01*
X77412520Y-118749181D02*
X77399229Y-118684110D01*
X173321669Y-32609891D02*
X173259962Y-32631322D01*
X77417082Y-118817029D02*
X77412520Y-118749181D01*
X182187514Y-99699178D02*
X182174208Y-99634107D01*
X63417082Y-118817029D02*
X63421629Y-118749188D01*
X139329573Y-88488343D02*
X139329573Y-80717031D01*
X139329573Y-88488343D02*
X139329573Y-93717031D01*
X63434920Y-118684117D02*
X63421629Y-118749188D01*
X115017073Y-118317029D02*
X102017073Y-118317029D01*
X63456358Y-118622411D02*
X63434920Y-118684117D01*
X173386732Y-32596593D02*
X173321669Y-32609891D01*
X63485335Y-118564672D02*
X63456358Y-118622411D01*
X182187514Y-99699178D02*
X182192091Y-99767026D01*
X63521254Y-118511495D02*
X63485335Y-118564672D01*
X215817091Y-33092031D02*
X215817091Y-46092031D01*
X63563521Y-118463475D02*
X63521254Y-118511495D01*
X248867079Y-142629529D02*
X248867079Y-155629529D01*
X63611540Y-118421208D02*
X63563521Y-118463475D01*
X173454573Y-32592031D02*
X173386732Y-32596593D01*
X63664717Y-118385289D02*
X63611540Y-118421208D01*
X168192091Y-99767026D02*
X168196699Y-99699185D01*
X63722456Y-118356320D02*
X63664717Y-118385289D01*
X149142073Y-99767026D02*
X149142073Y-107538342D01*
X149142073Y-112767026D02*
X149142073Y-107538342D01*
X63784163Y-118334889D02*
X63722456Y-118356320D01*
X167899977Y-46159875D02*
X167904585Y-46092031D01*
X63849241Y-118321591D02*
X63784163Y-118334889D01*
X168210005Y-99634114D02*
X168196699Y-99699185D01*
X63917082Y-118317029D02*
X63849241Y-118321591D01*
X202123335Y-88304029D02*
X188123335Y-88304029D01*
X58362532Y-131884870D02*
X58367079Y-131817029D01*
X168711775Y-134317029D02*
X173397841Y-134317029D01*
X58349241Y-131949941D02*
X58362532Y-131884870D01*
X168711775Y-134317029D02*
X167397841Y-134317029D01*
X58327803Y-132011647D02*
X58349241Y-131949941D01*
X167886671Y-46224950D02*
X167899977Y-46159875D01*
X58298826Y-132069386D02*
X58327803Y-132011647D01*
X168231428Y-99572408D02*
X168210005Y-99634114D01*
X58262907Y-132122563D02*
X58298826Y-132069386D01*
X105992079Y-99767026D02*
X105992079Y-109920194D01*
X58220640Y-132170583D02*
X58262907Y-132122563D01*
X105992079Y-111622014D02*
X105992079Y-109920194D01*
X105992079Y-112767026D02*
X105992079Y-111622014D01*
X58172621Y-132212850D02*
X58220640Y-132170583D01*
X192004591Y-40863343D02*
X192004591Y-33092031D01*
X192004591Y-40863343D02*
X192004591Y-46092031D01*
X58119444Y-132248769D02*
X58172621Y-132212850D01*
X167865248Y-46286649D02*
X167886671Y-46224950D01*
X251925581Y-22629491D02*
X251925581Y-26854527D01*
X58061705Y-132277738D02*
X58119444Y-132248769D01*
X168260390Y-99514668D02*
X168231428Y-99572408D01*
X251925581Y-160808026D02*
X209611037Y-160808026D01*
X146719588Y-160808026D02*
X209611037Y-160808026D01*
X57999998Y-132299169D02*
X58061705Y-132277738D01*
X166897841Y-119817029D02*
X166897841Y-133817029D01*
X41579573Y-154504025D02*
X45669584Y-154504025D01*
X57934920Y-132312467D02*
X57999998Y-132299169D01*
X167836287Y-46344388D02*
X167865248Y-46286649D01*
X259243574Y-30104527D02*
X255175581Y-30104527D01*
X57934920Y-132312467D02*
X57867079Y-132317029D01*
X168296309Y-99461492D02*
X168260390Y-99514668D01*
X259243574Y-154007031D02*
X255175581Y-154007031D01*
X44799254Y-132312474D02*
X44867079Y-132317029D01*
X234867079Y-142629529D02*
X234867079Y-152782697D01*
X251925581Y-157257031D02*
X251925581Y-160808026D01*
X44734175Y-132299176D02*
X44799254Y-132312474D01*
X234867079Y-154484517D02*
X234867079Y-152782697D01*
X234867079Y-155629529D02*
X234867079Y-154484517D01*
X140219588Y-160808026D02*
X140219588Y-157757031D01*
X44672468Y-132277745D02*
X44734175Y-132299176D01*
X153904585Y-33092031D02*
X153904585Y-43245198D01*
X146719588Y-160808026D02*
X146719588Y-157757031D01*
X44614729Y-132248776D02*
X44672468Y-132277745D01*
X153904585Y-46092031D02*
X153904585Y-43245198D01*
X48919584Y-160808026D02*
X48919584Y-157754025D01*
X44561552Y-132212857D02*
X44614729Y-132248776D01*
X167800368Y-46397565D02*
X167836287Y-46344388D01*
X41579573Y-105504132D02*
X45669584Y-105504132D01*
X44513533Y-132170590D02*
X44561552Y-132212857D01*
X168338576Y-99413472D02*
X168296309Y-99461492D01*
X41579573Y-59979268D02*
X45679579Y-59979268D01*
X44471266Y-132122571D02*
X44513533Y-132170590D01*
X215817091Y-123579526D02*
X215817091Y-136579526D01*
X41579573Y-99004132D02*
X45669584Y-99004132D01*
X44435347Y-132069394D02*
X44471266Y-132122571D01*
X167758101Y-46445580D02*
X167800368Y-46397565D01*
X216186568Y-106004186D02*
X216441572Y-106014203D01*
X44406370Y-132011655D02*
X44435347Y-132069394D01*
X168386580Y-99371205D02*
X168338576Y-99413472D01*
X216694990Y-106044202D02*
X216441572Y-106014203D01*
X44384932Y-131949948D02*
X44406370Y-132011655D01*
X167710097Y-46487844D02*
X167758101Y-46445580D01*
X216945265Y-106093984D02*
X216694990Y-106044202D01*
X44371641Y-131884877D02*
X44384932Y-131949948D01*
X168439741Y-99335286D02*
X168386580Y-99371205D01*
X217190871Y-106163251D02*
X216945265Y-106093984D01*
X44371641Y-131884877D02*
X44367079Y-131817029D01*
X216317091Y-61167027D02*
X229317091Y-61167027D01*
X217430281Y-106251576D02*
X217190871Y-106163251D01*
X57867079Y-118317029D02*
X57934904Y-118321584D01*
X204417586Y-77167027D02*
X200830824Y-77167027D01*
X198417586Y-77167027D02*
X200830824Y-77167027D01*
X217662031Y-106358411D02*
X217430281Y-106251576D01*
X57999983Y-118334882D02*
X57934904Y-118321584D01*
X167656935Y-46523763D02*
X167710097Y-46487844D01*
X217884688Y-106483106D02*
X217662031Y-106358411D01*
X58061690Y-118356313D02*
X57999983Y-118334882D01*
X168497481Y-99306317D02*
X168439741Y-99335286D01*
X218096876Y-106624883D02*
X217884688Y-106483106D01*
X58119429Y-118385282D02*
X58061690Y-118356313D01*
X58654585Y-61667027D02*
X58654585Y-74667027D01*
X218297285Y-106782865D02*
X218096876Y-106624883D01*
X58172606Y-118421201D02*
X58119429Y-118385282D01*
X203623335Y-90242028D02*
X203623335Y-103242032D01*
X218484663Y-106956090D02*
X218297285Y-106782865D01*
X58220625Y-118463468D02*
X58172606Y-118421201D01*
X167599196Y-46552735D02*
X167656935Y-46523763D01*
X218657881Y-107143483D02*
X218484663Y-106956090D01*
X58262892Y-118511487D02*
X58220625Y-118463468D01*
X168559187Y-99284886D02*
X168497481Y-99306317D01*
X218815871Y-107343884D02*
X218657881Y-107143483D01*
X58298811Y-118564664D02*
X58262892Y-118511487D01*
X167537489Y-46574170D02*
X167599196Y-46552735D01*
X218957655Y-107556066D02*
X218815871Y-107343884D01*
X58327788Y-118622403D02*
X58298811Y-118564664D01*
X168624251Y-99271588D02*
X168559187Y-99284886D01*
X219082350Y-107778714D02*
X218957655Y-107556066D01*
X58349226Y-118684110D02*
X58327788Y-118622403D01*
X167472426Y-46587464D02*
X167537489Y-46574170D01*
X219189162Y-108010465D02*
X219082350Y-107778714D01*
X58362517Y-118749181D02*
X58349226Y-118684110D01*
X168624251Y-99271588D02*
X168692091Y-99267026D01*
X219277510Y-108249883D02*
X219189162Y-108010465D01*
X58362517Y-118749181D02*
X58367079Y-118817029D01*
X63129576Y-33092031D02*
X63129576Y-43245198D01*
X219346785Y-108495488D02*
X219277510Y-108249883D01*
X44371626Y-118749188D02*
X44367079Y-118817029D01*
X63129576Y-46092031D02*
X63129576Y-43245198D01*
X219396559Y-108745770D02*
X219346785Y-108495488D01*
X44384917Y-118684117D02*
X44371626Y-118749188D01*
X187623335Y-81804029D02*
X187623335Y-87804029D01*
X219426558Y-108999196D02*
X219396559Y-108745770D01*
X44406355Y-118622411D02*
X44384917Y-118684117D01*
X167472426Y-46587464D02*
X167404585Y-46592031D01*
X219436568Y-109254186D02*
X219426558Y-108999196D01*
X44435332Y-118564672D02*
X44406355Y-118622411D01*
X163142073Y-112767026D02*
X163137465Y-112834867D01*
X219426558Y-109509175D02*
X219436568Y-109254186D01*
X44471251Y-118511495D02*
X44435332Y-118564672D01*
X248867079Y-61667027D02*
X248867079Y-74667027D01*
X219396559Y-109762601D02*
X219426558Y-109509175D01*
X44513518Y-118463475D02*
X44471251Y-118511495D01*
X72154585Y-61167027D02*
X59154585Y-61167027D01*
X219346785Y-110012883D02*
X219396559Y-109762601D01*
X44561537Y-118421208D02*
X44513518Y-118463475D01*
X154336714Y-46587464D02*
X154404585Y-46592031D01*
X219277510Y-110258489D02*
X219346785Y-110012883D01*
X44614714Y-118385289D02*
X44561537Y-118421208D01*
X163124159Y-112899938D02*
X163137465Y-112834867D01*
X219189162Y-110497907D02*
X219277510Y-110258489D01*
X44672453Y-118356320D02*
X44614714Y-118385289D01*
X87729582Y-46592031D02*
X100729582Y-46592031D01*
X219082350Y-110729657D02*
X219189162Y-110497907D01*
X44734160Y-118334889D02*
X44672453Y-118356320D01*
X148854567Y-61667027D02*
X148854567Y-71820199D01*
X218957655Y-110952306D02*
X219082350Y-110729657D01*
X44799238Y-118321591D02*
X44734160Y-118334889D01*
X148854567Y-74667027D02*
X148854567Y-71820199D01*
X218815871Y-111164487D02*
X218957655Y-110952306D01*
X44867079Y-118317029D02*
X44799238Y-118321591D01*
X154271651Y-46574170D02*
X154336714Y-46587464D01*
X218657881Y-111364888D02*
X218815871Y-111164487D01*
X248867079Y-46092031D02*
X248862471Y-46159875D01*
X163102736Y-112961644D02*
X163124159Y-112899938D01*
X218484663Y-111552281D02*
X218657881Y-111364888D01*
X248849165Y-46224950D02*
X248862471Y-46159875D01*
X125329573Y-88488343D02*
X125329573Y-80717031D01*
X125329573Y-88488343D02*
X125329573Y-93717031D01*
X218297285Y-111725507D02*
X218484663Y-111552281D01*
X248827742Y-46286649D02*
X248849165Y-46224950D01*
X154209944Y-46552735D02*
X154271651Y-46574170D01*
X218096876Y-111883489D02*
X218297285Y-111725507D01*
X248798781Y-46344388D02*
X248827742Y-46286649D01*
X163073775Y-113019383D02*
X163102736Y-112961644D01*
X217884688Y-112025266D02*
X218096876Y-111883489D01*
X248762861Y-46397565D02*
X248798781Y-46344388D01*
X141998335Y-137867032D02*
X141998335Y-150867032D01*
X217662031Y-112149961D02*
X217884688Y-112025266D01*
X53892073Y-99767026D02*
X53892073Y-112767026D01*
X205504591Y-32592031D02*
X192504591Y-32592031D01*
X217430281Y-112256795D02*
X217662031Y-112149961D01*
X248720595Y-46445580D02*
X248762861Y-46397565D01*
X154152205Y-46523763D02*
X154209944Y-46552735D01*
X217190871Y-112345120D02*
X217430281Y-112256795D01*
X248672590Y-46487844D02*
X248720595Y-46445580D01*
X163037855Y-113072560D02*
X163073775Y-113019383D01*
X216945265Y-112414388D02*
X217190871Y-112345120D01*
X248619429Y-46523763D02*
X248672590Y-46487844D01*
X154099043Y-46487844D02*
X154152205Y-46523763D01*
X216694990Y-112464170D02*
X216945265Y-112414388D01*
X101229582Y-88488343D02*
X101229582Y-80717031D01*
X101229582Y-88488343D02*
X101229582Y-93717031D01*
X162995589Y-113120580D02*
X163037855Y-113072560D01*
X216441572Y-112494168D02*
X216694990Y-112464170D01*
X248561690Y-46552735D02*
X248619429Y-46523763D01*
X106779585Y-32592031D02*
X119779585Y-32592031D01*
X216186568Y-112504186D02*
X216441572Y-112494168D01*
X248499983Y-46574170D02*
X248561690Y-46552735D01*
X206004591Y-33092031D02*
X206004591Y-46092031D01*
X215931563Y-112494168D02*
X216186568Y-112504186D01*
X248434920Y-46587464D02*
X248499983Y-46574170D01*
X154051039Y-46445580D02*
X154099043Y-46487844D01*
X215678145Y-112464170D02*
X215931563Y-112494168D01*
X125042082Y-99767026D02*
X125042082Y-105836522D01*
X125042082Y-109920194D02*
X125042082Y-105836522D01*
X162947584Y-113162847D02*
X162995589Y-113120580D01*
X215427870Y-112414388D02*
X215678145Y-112464170D01*
X125042082Y-112767026D02*
X125042082Y-109920194D01*
X72654585Y-67736527D02*
X72654585Y-61667027D01*
X72654585Y-71820199D02*
X72654585Y-67736527D01*
X215182265Y-112345120D02*
X215427870Y-112414388D01*
X248367079Y-46592031D02*
X248434920Y-46587464D01*
X72654585Y-71820199D02*
X72654585Y-74667027D01*
X214942854Y-112256795D02*
X215182265Y-112345120D01*
X235367079Y-46592031D02*
X235299208Y-46587464D01*
X216317091Y-46592031D02*
X229317091Y-46592031D01*
X214711104Y-112149961D02*
X214942854Y-112256795D01*
X81679579Y-80217031D02*
X68679579Y-80217031D01*
X154008772Y-46397565D02*
X154051039Y-46445580D01*
X214488447Y-112025266D02*
X214711104Y-112149961D01*
X235234144Y-46574170D02*
X235299208Y-46587464D01*
X162894423Y-113198766D02*
X162947584Y-113162847D01*
X214276259Y-111883489D02*
X214488447Y-112025266D01*
X155998335Y-150867032D02*
X155998335Y-137867032D01*
X191273817Y-134317029D02*
X197273817Y-134317029D01*
X214075850Y-111725507D02*
X214276259Y-111883489D01*
X235172438Y-46552735D02*
X235234144Y-46574170D01*
X153972853Y-46344388D02*
X154008772Y-46397565D01*
X213888472Y-111552281D02*
X214075850Y-111725507D01*
X153904585Y-61667027D02*
X153904585Y-71820199D01*
X162836683Y-113227735D02*
X162894423Y-113198766D01*
X213715254Y-111364888D02*
X213888472Y-111552281D01*
X153904585Y-74667027D02*
X153904585Y-71820199D01*
X155498335Y-151367032D02*
X142498335Y-151367032D01*
X213557265Y-111164487D02*
X213715254Y-111364888D01*
X235114699Y-46523763D02*
X235172438Y-46552735D01*
X73442076Y-113267026D02*
X86442076Y-113267026D01*
X213415480Y-110952306D02*
X213557265Y-111164487D01*
X235061537Y-46487844D02*
X235114699Y-46523763D01*
X153943892Y-46286649D02*
X153972853Y-46344388D01*
X213290785Y-110729657D02*
X213415480Y-110952306D01*
X235013533Y-46445580D02*
X235061537Y-46487844D01*
X162774977Y-113249166D02*
X162836683Y-113227735D01*
X213183974Y-110497907D02*
X213290785Y-110729657D01*
X234971266Y-46397565D02*
X235013533Y-46445580D01*
X49629576Y-46592031D02*
X62629576Y-46592031D01*
X213095625Y-110258489D02*
X213183974Y-110497907D01*
X135354582Y-32592031D02*
X148354567Y-32592031D01*
X91204573Y-75167027D02*
X78204573Y-75167027D01*
X213026350Y-110012883D02*
X213095625Y-110258489D01*
X234935347Y-46344388D02*
X234971266Y-46397565D01*
X153922468Y-46224950D02*
X153943892Y-46286649D01*
X212976576Y-109762601D02*
X213026350Y-110012883D01*
X196767073Y-142629529D02*
X196767073Y-155629529D01*
X162709913Y-113262464D02*
X162774977Y-113249166D01*
X212946577Y-109509175D02*
X212976576Y-109762601D01*
X234906386Y-46286649D02*
X234935347Y-46344388D01*
X110254576Y-75167027D02*
X97254576Y-75167027D01*
X212936568Y-109254186D02*
X212946577Y-109509175D01*
X95967085Y-118317029D02*
X82967085Y-118317029D01*
X153909163Y-46159875D02*
X153922468Y-46224950D01*
X212946577Y-108999196D02*
X212936568Y-109254186D01*
X234884962Y-46224950D02*
X234906386Y-46286649D01*
X162642073Y-113267026D02*
X162709913Y-113262464D01*
X212976576Y-108745770D02*
X212946577Y-108999196D01*
X119779585Y-80217031D02*
X106779585Y-80217031D01*
X68679579Y-46592031D02*
X81679579Y-46592031D01*
X213026350Y-108495488D02*
X212976576Y-108745770D01*
X234871657Y-46159875D02*
X234884962Y-46224950D01*
X182479567Y-61667027D02*
X182479567Y-74667027D01*
X213095625Y-108249883D02*
X213026350Y-108495488D01*
X67892073Y-99767026D02*
X67892073Y-109920194D01*
X153909163Y-46159875D02*
X153904585Y-46092031D01*
X213183974Y-108010465D02*
X213095625Y-108249883D01*
X67892073Y-111622014D02*
X67892073Y-109920194D01*
X67892073Y-112767026D02*
X67892073Y-111622014D01*
X149642073Y-113267026D02*
X149574202Y-113262471D01*
X213290785Y-107778714D02*
X213183974Y-108010465D01*
X234867079Y-46092031D02*
X234871657Y-46159875D01*
X167472456Y-32596593D02*
X167404585Y-32592031D01*
X213415480Y-107556066D02*
X213290785Y-107778714D01*
X248434950Y-32596593D02*
X248367079Y-32592031D01*
X149509138Y-113249173D02*
X149574202Y-113262471D01*
X213557265Y-107343884D02*
X213415480Y-107556066D01*
X162642073Y-113267026D02*
X149642073Y-113267026D01*
X49629576Y-32592031D02*
X62629576Y-32592031D01*
X213715254Y-107143483D02*
X213557265Y-107343884D01*
X248500014Y-32609891D02*
X248434950Y-32596593D01*
X167537520Y-32609891D02*
X167472456Y-32596593D01*
X213888472Y-106956090D02*
X213715254Y-107143483D01*
X190773817Y-133817029D02*
X190773817Y-119817029D01*
X149447432Y-113227742D02*
X149509138Y-113249173D01*
X214075850Y-106782865D02*
X213888472Y-106956090D01*
X248561720Y-32631322D02*
X248500014Y-32609891D01*
X131685835Y-151367032D02*
X118685835Y-151367032D01*
X214276259Y-106624883D02*
X214075850Y-106782865D01*
X177429579Y-80717031D02*
X177429579Y-93717031D01*
X167599226Y-32631322D02*
X167537520Y-32609891D01*
X214488447Y-106483106D02*
X214276259Y-106624883D01*
X248619459Y-32660291D02*
X248561720Y-32631322D01*
X149389693Y-113198773D02*
X149447432Y-113227742D01*
X214711104Y-106358411D02*
X214488447Y-106483106D01*
X168711775Y-119317029D02*
X173397841Y-119317029D01*
X167656965Y-32660291D02*
X167599226Y-32631322D01*
X214942854Y-106251576D02*
X214711104Y-106358411D01*
X168711775Y-119317029D02*
X167397841Y-119317029D01*
X149336531Y-113162854D02*
X149389693Y-113198773D01*
X215182265Y-106163251D02*
X214942854Y-106251576D01*
X248672621Y-32696210D02*
X248619459Y-32660291D01*
X63129576Y-88488343D02*
X63129576Y-80717031D01*
X63129576Y-88488343D02*
X63129576Y-93717031D01*
X215427870Y-106093984D02*
X215182265Y-106163251D01*
X248720625Y-32738477D02*
X248672621Y-32696210D01*
X101229582Y-33092031D02*
X101229582Y-43245198D01*
X215678145Y-106044202D02*
X215427870Y-106093984D01*
X163142073Y-99767026D02*
X163142073Y-109920194D01*
X101229582Y-44947015D02*
X101229582Y-43245198D01*
X101229582Y-46092031D02*
X101229582Y-44947015D01*
X215931563Y-106014203D02*
X215678145Y-106044202D01*
X163142073Y-109920194D02*
X163142073Y-112767026D01*
X167710127Y-32696210D02*
X167656965Y-32660291D01*
X216186568Y-106004186D02*
X215931563Y-106014203D01*
X248745894Y-32767182D02*
X248720625Y-32738477D01*
X248762892Y-32786496D02*
X248745894Y-32767182D01*
X149288527Y-113120587D02*
X149336531Y-113162854D01*
X254920576Y-30094510D02*
X255175581Y-30104527D01*
X120279585Y-33092031D02*
X120279585Y-46092031D01*
X82179579Y-33092031D02*
X82179579Y-46092031D01*
X254667158Y-30064519D02*
X254920576Y-30094510D01*
X248798811Y-32839673D02*
X248762892Y-32786496D01*
X167758131Y-32738477D02*
X167710127Y-32696210D01*
X254416884Y-30014730D02*
X254667158Y-30064519D01*
X49129576Y-80717031D02*
X49129576Y-93717031D01*
X149246260Y-113072568D02*
X149288527Y-113120587D01*
X254171278Y-29945462D02*
X254416884Y-30014730D01*
X248827772Y-32897405D02*
X248798811Y-32839673D01*
X124542082Y-113267026D02*
X114441801Y-113267026D01*
X111542082Y-113267026D02*
X114441801Y-113267026D01*
X253931868Y-29857137D02*
X254171278Y-29945462D01*
X248849196Y-32959111D02*
X248827772Y-32897405D01*
X153117079Y-118317029D02*
X140117079Y-118317029D01*
X253700117Y-29750302D02*
X253931868Y-29857137D01*
X248862501Y-33024182D02*
X248849196Y-32959111D01*
X167800398Y-32786496D02*
X167758131Y-32738477D01*
X253477461Y-29625607D02*
X253700117Y-29750302D01*
X82467085Y-118817029D02*
X82467085Y-131817029D01*
X149210341Y-113019391D02*
X149246260Y-113072568D01*
X253265272Y-29483838D02*
X253477461Y-29625607D01*
X248867079Y-33092031D02*
X248862501Y-33024182D01*
X167836317Y-32839673D02*
X167800398Y-32786496D01*
X253064863Y-29325849D02*
X253265272Y-29483838D01*
X234867079Y-33092031D02*
X234871687Y-33024182D01*
X149181380Y-112961652D02*
X149210341Y-113019391D01*
X252877485Y-29152623D02*
X253064863Y-29325849D01*
X91992079Y-99767026D02*
X91992079Y-105836522D01*
X91992079Y-109920194D02*
X91992079Y-105836522D01*
X229817091Y-39161527D02*
X229817091Y-33092031D01*
X229817091Y-43245198D02*
X229817091Y-39161527D01*
X252704268Y-28965238D02*
X252807814Y-29077252D01*
X252807814Y-29077252D02*
X252877485Y-29152623D01*
X91992079Y-112767026D02*
X91992079Y-109920194D01*
X229817091Y-46092031D02*
X229817091Y-43245198D01*
X252546278Y-28764829D02*
X252704268Y-28965238D01*
X234884993Y-32959111D02*
X234871687Y-33024182D01*
X144879591Y-94217031D02*
X157879591Y-94217031D01*
X252404494Y-28552648D02*
X252546278Y-28764829D01*
X234906416Y-32897405D02*
X234884993Y-32959111D01*
X167865278Y-32897405D02*
X167836317Y-32839673D01*
X252279799Y-28329999D02*
X252404494Y-28552648D01*
X234935377Y-32839673D02*
X234906416Y-32897405D01*
X149159956Y-112899945D02*
X149181380Y-112961652D01*
X252172987Y-28098248D02*
X252279799Y-28329999D01*
X234867079Y-39161527D02*
X234867079Y-33092031D01*
X234867079Y-43245198D02*
X234867079Y-39161527D01*
X188835829Y-132317029D02*
X175835829Y-132317029D01*
X252084639Y-27858838D02*
X252172987Y-28098248D01*
X234867079Y-43245198D02*
X234867079Y-46092031D01*
X167886702Y-32959111D02*
X167865278Y-32897405D01*
X252015364Y-27613225D02*
X252084639Y-27858838D01*
X234971297Y-32786496D02*
X234935377Y-32839673D01*
X149146651Y-112834874D02*
X149159956Y-112899945D01*
X251965590Y-27362943D02*
X252015364Y-27613225D01*
X82179579Y-88488343D02*
X82179579Y-80717031D01*
X82179579Y-88488343D02*
X82179579Y-93717031D01*
X167900007Y-33024182D02*
X167886702Y-32959111D01*
X251935591Y-27109525D02*
X251965590Y-27362943D01*
X235013563Y-32738477D02*
X234971297Y-32786496D01*
X149146651Y-112834874D02*
X149142073Y-112767026D01*
X251925581Y-26854527D02*
X251935591Y-27109525D01*
X182766340Y-118317029D02*
X188835829Y-118317029D01*
X178682661Y-118317029D02*
X182766340Y-118317029D01*
X167900007Y-33024182D02*
X167904585Y-33092031D01*
X254920576Y-154017049D02*
X255175581Y-154007031D01*
X178682661Y-118317029D02*
X175835829Y-118317029D01*
X162709944Y-99271581D02*
X162642073Y-99267026D01*
X254667158Y-154047048D02*
X254920576Y-154017049D01*
X235061568Y-32696210D02*
X235013563Y-32738477D01*
X203123335Y-103742032D02*
X190123335Y-103742032D01*
X254416884Y-154096829D02*
X254667158Y-154047048D01*
X235114729Y-32660291D02*
X235061568Y-32696210D01*
X153909193Y-33024182D02*
X153904585Y-33092031D01*
X254171278Y-154166097D02*
X254416884Y-154096829D01*
X202623335Y-105680028D02*
X202623335Y-109266789D01*
X202623335Y-111680028D02*
X202623335Y-109266789D01*
X162775007Y-99284879D02*
X162760756Y-99281964D01*
X253931868Y-154254422D02*
X254171278Y-154166097D01*
X235172468Y-32631322D02*
X235114729Y-32660291D01*
X162709944Y-99271581D02*
X162760756Y-99281964D01*
X253700117Y-154361257D02*
X253931868Y-154254422D01*
X95524519Y-138867032D02*
X95524519Y-152867032D01*
X153922499Y-32959111D02*
X153909193Y-33024182D01*
X253477461Y-154485951D02*
X253700117Y-154361257D01*
X235234175Y-32609891D02*
X235172468Y-32631322D01*
X162836714Y-99306310D02*
X162775007Y-99284879D01*
X253265272Y-154627728D02*
X253477461Y-154485951D01*
X93586531Y-151367032D02*
X80586531Y-151367032D01*
X174041579Y-62667027D02*
X174041579Y-76667027D01*
X253064863Y-154785710D02*
X253265272Y-154627728D01*
X235299238Y-32596593D02*
X235234175Y-32609891D01*
X153943922Y-32897405D02*
X153922499Y-32959111D01*
X252877485Y-154958936D02*
X253064863Y-154785710D01*
X235299238Y-32596593D02*
X235367079Y-32592031D01*
X162894453Y-99335279D02*
X162836714Y-99306310D01*
X252704268Y-155146329D02*
X252877485Y-154958936D01*
X229812483Y-46159875D02*
X229817091Y-46092031D01*
X91204573Y-61167027D02*
X78204573Y-61167027D01*
X252546278Y-155346730D02*
X252704268Y-155146329D01*
X229799177Y-46224950D02*
X229812483Y-46159875D01*
X153972883Y-32839673D02*
X153943922Y-32897405D01*
X252404494Y-155558911D02*
X252546278Y-155346730D01*
X229777754Y-46286649D02*
X229799177Y-46224950D01*
X162947615Y-99371198D02*
X162894453Y-99335279D01*
X252279799Y-155781560D02*
X252404494Y-155558911D01*
X166310835Y-151367032D02*
X179310835Y-151367032D01*
X92492079Y-99267026D02*
X105492079Y-99267026D01*
X252172987Y-156013310D02*
X252279799Y-155781560D01*
X229748793Y-46344388D02*
X229777754Y-46286649D01*
X216317091Y-94217031D02*
X229317091Y-94217031D01*
X252084639Y-156252728D02*
X252172987Y-156013310D01*
X216317091Y-137079526D02*
X229317091Y-137079526D01*
X154008803Y-32786496D02*
X153972883Y-32839673D01*
X252015364Y-156498334D02*
X252084639Y-156252728D01*
X229712874Y-46397565D02*
X229748793Y-46344388D01*
X162995619Y-99413465D02*
X162947615Y-99371198D01*
X251965590Y-156748616D02*
X252015364Y-156498334D01*
X182979567Y-75167027D02*
X195979567Y-75167027D01*
X154051069Y-32738477D02*
X154008803Y-32786496D01*
X251935591Y-157002042D02*
X251965590Y-156748616D01*
X229670607Y-46445580D02*
X229712874Y-46397565D01*
X163037886Y-99461484D02*
X162995619Y-99413465D01*
X251935591Y-157002042D02*
X251925581Y-157257031D01*
X130092085Y-99767026D02*
X130092085Y-105836522D01*
X130092085Y-109920194D02*
X130092085Y-105836522D01*
X210767073Y-142629529D02*
X210767073Y-152782697D01*
X45924574Y-154514043D02*
X45669584Y-154504025D01*
X130092085Y-112767026D02*
X130092085Y-109920194D01*
X210767073Y-155629529D02*
X210767073Y-152782697D01*
X46177992Y-154544042D02*
X45924574Y-154514043D01*
X229622603Y-46487844D02*
X229670607Y-46445580D01*
X52638396Y-118317029D02*
X57867079Y-118317029D01*
X46428282Y-154593823D02*
X46177992Y-154544042D01*
X76917082Y-132317029D02*
X63917082Y-132317029D01*
X154099074Y-32696210D02*
X154051069Y-32738477D01*
X46673887Y-154663091D02*
X46428282Y-154593823D01*
X229569441Y-46523763D02*
X229622603Y-46487844D01*
X163073805Y-99514661D02*
X163037886Y-99461484D01*
X46913313Y-154751416D02*
X46673887Y-154663091D01*
X135354582Y-61167027D02*
X148354567Y-61167027D01*
X115804579Y-61667027D02*
X115804579Y-69438340D01*
X115804579Y-74667027D02*
X115804579Y-69438340D01*
X47145048Y-154858251D02*
X46913313Y-154751416D01*
X229511702Y-46552735D02*
X229569441Y-46523763D01*
X154152235Y-32660291D02*
X154099074Y-32696210D01*
X47367705Y-154982945D02*
X47145048Y-154858251D01*
X229449995Y-46574170D02*
X229511702Y-46552735D01*
X163102766Y-99572400D02*
X163073805Y-99514661D01*
X47579893Y-155124722D02*
X47367705Y-154982945D01*
X119779585Y-94217031D02*
X106779585Y-94217031D01*
X203123335Y-89742028D02*
X190123335Y-89742028D01*
X47780287Y-155282704D02*
X47579893Y-155124722D01*
X229384932Y-46587464D02*
X229449995Y-46574170D01*
X229817091Y-123579526D02*
X229817091Y-136579526D01*
X47967680Y-155455930D02*
X47780287Y-155282704D01*
X100729582Y-80217031D02*
X87729582Y-80217031D01*
X154209975Y-32631322D02*
X154152235Y-32660291D01*
X48140898Y-155643323D02*
X47967680Y-155455930D01*
X229384932Y-46587464D02*
X229317091Y-46592031D01*
X163124190Y-99634107D02*
X163102766Y-99572400D01*
X48298887Y-155843724D02*
X48140898Y-155643323D01*
X216249220Y-46587464D02*
X216317091Y-46592031D01*
X248367079Y-46592031D02*
X235367079Y-46592031D01*
X48440672Y-156055905D02*
X48298887Y-155843724D01*
X135354582Y-46592031D02*
X148354567Y-46592031D01*
X132185835Y-137867032D02*
X132185835Y-150867032D01*
X48565352Y-156278554D02*
X48440672Y-156055905D01*
X216184157Y-46574170D02*
X216249220Y-46587464D01*
X154271681Y-32609891D02*
X154209975Y-32631322D01*
X48672194Y-156510304D02*
X48565352Y-156278554D01*
X66763914Y-118317029D02*
X76917082Y-118317029D01*
X163137495Y-99699178D02*
X163124190Y-99634107D01*
X48760512Y-156749722D02*
X48672194Y-156510304D01*
X66763914Y-118317029D02*
X63917082Y-118317029D01*
X154336745Y-32596593D02*
X154271681Y-32609891D01*
X48829787Y-156995328D02*
X48760512Y-156749722D01*
X216122450Y-46552735D02*
X216184157Y-46574170D01*
X163137495Y-99699178D02*
X163142073Y-99767026D01*
X48879576Y-157245610D02*
X48829787Y-156995328D01*
X216064711Y-46523763D02*
X216122450Y-46552735D01*
X235367079Y-142129529D02*
X248367079Y-142129529D01*
X48909559Y-157499036D02*
X48879576Y-157245610D01*
X215817091Y-80717031D02*
X215817091Y-93717031D01*
X148854567Y-33092031D02*
X148854567Y-46092031D01*
X48919584Y-157754025D02*
X48909559Y-157499036D01*
X216064711Y-46523763D02*
X216011549Y-46487844D01*
X154336745Y-32596593D02*
X154404585Y-32592031D01*
X46187987Y-60019280D02*
X45934569Y-59989285D01*
X149146681Y-99699185D02*
X149142073Y-99767026D01*
X45934569Y-66469251D02*
X45679579Y-66479268D01*
X41579573Y-111044003D02*
X41579573Y-127221997D01*
X78648512Y-147236142D02*
X78648512Y-138867032D01*
X78648512Y-147236142D02*
X78648512Y-152867032D01*
X46187987Y-66439256D02*
X45934569Y-66469251D01*
X41579573Y-137505002D02*
X41579573Y-127221997D01*
X148849959Y-46159875D02*
X148854567Y-46092031D01*
X46438277Y-66389470D02*
X46187987Y-66439256D01*
X41579573Y-149686002D02*
X41579573Y-137505002D01*
X149159987Y-99634114D02*
X149146681Y-99699185D01*
X46683882Y-66320203D02*
X46438277Y-66389470D01*
X41579573Y-149686002D02*
X41579573Y-154504025D01*
X68179579Y-33092031D02*
X68179579Y-43245198D01*
X46923308Y-66231877D02*
X46683882Y-66320203D01*
X48919584Y-160808026D02*
X140219588Y-160808026D01*
X68179579Y-46092031D02*
X68179579Y-43245198D01*
X47155043Y-66125039D02*
X46923308Y-66231877D01*
X259243574Y-79938935D02*
X259243574Y-30104527D01*
X259243574Y-79938935D02*
X259243574Y-154007031D01*
X148836653Y-46224950D02*
X148849959Y-46159875D01*
X47377699Y-66000348D02*
X47155043Y-66125039D01*
X251925581Y-22629491D02*
X161894972Y-22629491D01*
X149181410Y-99572408D02*
X149159987Y-99634114D01*
X47589888Y-65858575D02*
X47377699Y-66000348D01*
X41579573Y-44314294D02*
X41579573Y-31965947D01*
X148815230Y-46286649D02*
X148836653Y-46224950D01*
X47790282Y-65700589D02*
X47589888Y-65858575D01*
X41579573Y-44314294D02*
X41579573Y-59979268D01*
X149210371Y-99514668D02*
X149181410Y-99572408D01*
X47977675Y-65527364D02*
X47790282Y-65700589D01*
X41579573Y-66479268D02*
X41579573Y-99004132D01*
X96467085Y-124886525D02*
X96467085Y-118817029D01*
X96467085Y-128970197D02*
X96467085Y-124886525D01*
X47977675Y-65527364D02*
X48150892Y-65339974D01*
X41579573Y-105504132D02*
X41579573Y-111044003D01*
X96467085Y-128970197D02*
X96467085Y-131817029D01*
X148786268Y-46344388D02*
X148815230Y-46286649D01*
X149246290Y-99461492D02*
X149210371Y-99514668D01*
X148750349Y-46397565D02*
X148786268Y-46344388D01*
X149288557Y-99413472D02*
X149246290Y-99461492D01*
X215921278Y-74972562D02*
X215963545Y-75020581D01*
X120279585Y-88488343D02*
X120279585Y-80717031D01*
X120279585Y-88488343D02*
X120279585Y-93717031D01*
X235013533Y-94070584D02*
X235061537Y-94112851D01*
X148708082Y-46445580D02*
X148750349Y-46397565D01*
X215885359Y-74919385D02*
X215921278Y-74972562D01*
X149336561Y-99371205D02*
X149288557Y-99413472D01*
X234971266Y-94022565D02*
X235013533Y-94070584D01*
X110754576Y-69438340D02*
X110754576Y-61667027D01*
X110754576Y-69438340D02*
X110754576Y-74667027D01*
X215856398Y-74861650D02*
X215885359Y-74919385D01*
X148660078Y-46487844D02*
X148708082Y-46445580D01*
X234935347Y-93969388D02*
X234971266Y-94022565D01*
X149389723Y-99335286D02*
X149336561Y-99371205D01*
X215834975Y-74799947D02*
X215856398Y-74861650D01*
X204917586Y-62667027D02*
X204917586Y-69203412D01*
X204917586Y-73601213D02*
X204917586Y-69203412D01*
X234906386Y-93911653D02*
X234935347Y-93969388D01*
X204917586Y-76667027D02*
X204917586Y-73601213D01*
X215821669Y-74734876D02*
X215834975Y-74799947D01*
X148606917Y-46523763D02*
X148660078Y-46487844D01*
X234884962Y-93849950D02*
X234906386Y-93911653D01*
X149447462Y-99306317D02*
X149389723Y-99335286D01*
X215821669Y-74734876D02*
X215817091Y-74667027D01*
X148549177Y-46552735D02*
X148606917Y-46523763D01*
X234871657Y-93784879D02*
X234884962Y-93849950D01*
X149509169Y-99284886D02*
X149447462Y-99306317D01*
X229384962Y-61171594D02*
X229317091Y-61167027D01*
X168192091Y-109920194D02*
X168192091Y-99767026D01*
X234871657Y-93784879D02*
X234867079Y-93717031D01*
X168192091Y-109920194D02*
X168192091Y-112767026D01*
X229450026Y-61184888D02*
X229384962Y-61171594D01*
X148487471Y-46574170D02*
X148549177Y-46552735D01*
X248434950Y-80221597D02*
X248367079Y-80217031D01*
X149574232Y-99271588D02*
X149509169Y-99284886D01*
X229511732Y-61206323D02*
X229450026Y-61184888D01*
X86942076Y-99767026D02*
X86942076Y-105836522D01*
X86942076Y-109920194D02*
X86942076Y-105836522D01*
X248500014Y-80234891D02*
X248434950Y-80221597D01*
X86942076Y-112767026D02*
X86942076Y-109920194D01*
X229569472Y-61235295D02*
X229511732Y-61206323D01*
X148422407Y-46587464D02*
X148487471Y-46574170D01*
X248561720Y-80256322D02*
X248500014Y-80234891D01*
X149574232Y-99271588D02*
X149642073Y-99267026D01*
X229622633Y-61271214D02*
X229569472Y-61235295D01*
X148422407Y-46587464D02*
X148354567Y-46592031D01*
X248619459Y-80285295D02*
X248561720Y-80256322D01*
X144087477Y-112834867D02*
X144092085Y-112767026D01*
X229670637Y-61313478D02*
X229622633Y-61271214D01*
X229817091Y-80717031D02*
X229817091Y-86786530D01*
X229817091Y-90870202D02*
X229817091Y-86786530D01*
X248672621Y-80321210D02*
X248619459Y-80285295D01*
X229817091Y-93717031D02*
X229817091Y-90870202D01*
X229712904Y-61361493D02*
X229670637Y-61313478D01*
X135286757Y-46587464D02*
X135354582Y-46592031D01*
X248720625Y-80363477D02*
X248672621Y-80321210D01*
X144074171Y-112899938D02*
X144087477Y-112834867D01*
X229748823Y-61414670D02*
X229712904Y-61361493D01*
X135221678Y-46574170D02*
X135286757Y-46587464D01*
X248762892Y-80411496D02*
X248720625Y-80363477D01*
X144052748Y-112961644D02*
X144074171Y-112899938D01*
X229777785Y-61472409D02*
X229748823Y-61414670D01*
X135159971Y-46552735D02*
X135221678Y-46574170D01*
X248798811Y-80464673D02*
X248762892Y-80411496D01*
X144023787Y-113019383D02*
X144052748Y-112961644D01*
X229799208Y-61534108D02*
X229777785Y-61472409D01*
X135102232Y-46523763D02*
X135159971Y-46552735D01*
X248827772Y-80522408D02*
X248798811Y-80464673D01*
X143987868Y-113072560D02*
X144023787Y-113019383D01*
X229812514Y-61599183D02*
X229799208Y-61534108D01*
X179310835Y-137367032D02*
X173241347Y-137367032D01*
X169157667Y-137367032D02*
X173241347Y-137367032D01*
X248849196Y-80584111D02*
X248827772Y-80522408D01*
X167455855Y-137367032D02*
X169157667Y-137367032D01*
X166310835Y-137367032D02*
X167455855Y-137367032D01*
X229812514Y-61599183D02*
X229817091Y-61667027D01*
X135049055Y-46487844D02*
X135102232Y-46523763D01*
X248862501Y-80649182D02*
X248849196Y-80584111D01*
X143945601Y-113120580D02*
X143987868Y-113072560D01*
X215821699Y-61599183D02*
X215817091Y-61667027D01*
X135001036Y-46445580D02*
X135049055Y-46487844D01*
X248862501Y-80649182D02*
X248867079Y-80717031D01*
X143897597Y-113162847D02*
X143945601Y-113120580D01*
X215835005Y-61534108D02*
X215821699Y-61599183D01*
X229317091Y-32592031D02*
X216317091Y-32592031D01*
X234871687Y-80649182D02*
X234867079Y-80717031D01*
X134958769Y-46397565D02*
X135001036Y-46445580D01*
X215856428Y-61472409D02*
X215835005Y-61534108D01*
X143844435Y-113198766D02*
X143897597Y-113162847D01*
X234884993Y-80584111D02*
X234871687Y-80649182D01*
X186454573Y-32592031D02*
X173454573Y-32592031D01*
X215885390Y-61414670D02*
X215856428Y-61472409D01*
X134922850Y-46344388D02*
X134958769Y-46397565D01*
X234906416Y-80522408D02*
X234884993Y-80584111D01*
X143786696Y-113227735D02*
X143844435Y-113198766D01*
X215921309Y-61361493D02*
X215885390Y-61414670D01*
X134893873Y-46286649D02*
X134922850Y-46344388D01*
X234935377Y-80464673D02*
X234906416Y-80522408D01*
X143724989Y-113249166D02*
X143786696Y-113227735D01*
X215963576Y-61313478D02*
X215921309Y-61361493D01*
X134872435Y-46224950D02*
X134893873Y-46286649D01*
X234971297Y-80411496D02*
X234935377Y-80464673D01*
X143659926Y-113262464D02*
X143724989Y-113249166D01*
X216011580Y-61271214D02*
X215963576Y-61313478D01*
X63417082Y-128970197D02*
X63417082Y-118817029D01*
X235013563Y-80363477D02*
X234971297Y-80411496D01*
X63417082Y-128970197D02*
X63417082Y-131817029D01*
X216064741Y-61235295D02*
X216011580Y-61271214D01*
X134859144Y-46159875D02*
X134872435Y-46224950D01*
X235061568Y-80321210D02*
X235013563Y-80363477D01*
X143592085Y-113267026D02*
X143659926Y-113262464D01*
X216122481Y-61206323D02*
X216064741Y-61235295D01*
X248867079Y-33092031D02*
X248867079Y-46092031D01*
X235114729Y-80285295D02*
X235061568Y-80321210D01*
X134859144Y-46159875D02*
X134854582Y-46092031D01*
X216184187Y-61184888D02*
X216122481Y-61206323D01*
X130592085Y-113267026D02*
X130524260Y-113262471D01*
X235172468Y-80256322D02*
X235114729Y-80285295D01*
X134067076Y-132317029D02*
X121067076Y-132317029D01*
X216249251Y-61171594D02*
X216184187Y-61184888D01*
X148422438Y-32596593D02*
X148354567Y-32592031D01*
X235234175Y-80234891D02*
X235172468Y-80256322D01*
X130459181Y-113249173D02*
X130524260Y-113262471D01*
X216249251Y-61171594D02*
X216317091Y-61167027D01*
X155498335Y-137367032D02*
X142498335Y-137367032D01*
X235299238Y-80221597D02*
X235234175Y-80234891D01*
X148487501Y-32609891D02*
X148422438Y-32596593D01*
X204912977Y-76734876D02*
X204917586Y-76667027D01*
X130397475Y-113227742D02*
X130459181Y-113249173D01*
X235299238Y-80221597D02*
X235367079Y-80217031D01*
X148549208Y-32631322D02*
X148487501Y-32609891D01*
X204899672Y-76799947D02*
X204912977Y-76734876D01*
X130339735Y-113198773D02*
X130397475Y-113227742D01*
X229812483Y-93784879D02*
X229817091Y-93717031D01*
X148606947Y-32660291D02*
X148549208Y-32631322D01*
X204878248Y-76861650D02*
X204899672Y-76799947D01*
X130286558Y-113162854D02*
X130339735Y-113198773D01*
X229799177Y-93849950D02*
X229812483Y-93784879D01*
X148660109Y-32696210D02*
X148606947Y-32660291D01*
X204849287Y-76919385D02*
X204878248Y-76861650D01*
X130238539Y-113120587D02*
X130286558Y-113162854D01*
X229777754Y-93911653D02*
X229799177Y-93849950D01*
X234867079Y-67736527D02*
X234867079Y-61667027D01*
X234867079Y-71820199D02*
X234867079Y-67736527D01*
X204813368Y-76972562D02*
X204849287Y-76919385D01*
X234867079Y-71820199D02*
X234867079Y-74667027D01*
X229748793Y-93969388D02*
X229777754Y-93911653D01*
X148708113Y-32738477D02*
X148660109Y-32696210D01*
X204771101Y-77020581D02*
X204813368Y-76972562D01*
X130196272Y-113072568D02*
X130238539Y-113120587D01*
X229712874Y-94022565D02*
X229748793Y-93969388D01*
X148750380Y-32786496D02*
X148708113Y-32738477D01*
X204723097Y-77062848D02*
X204771101Y-77020581D01*
X130160353Y-113019391D02*
X130196272Y-113072568D01*
X229670607Y-94070584D02*
X229712874Y-94022565D01*
X111542082Y-99267026D02*
X124542082Y-99267026D01*
X204669935Y-77098763D02*
X204723097Y-77062848D01*
X148786299Y-32839673D02*
X148750380Y-32786496D01*
X229622603Y-94112851D02*
X229670607Y-94070584D01*
X130131376Y-112961652D02*
X130160353Y-113019391D01*
X204612196Y-77127736D02*
X204669935Y-77098763D01*
X148815260Y-32897405D02*
X148786299Y-32839673D01*
X229569441Y-94148770D02*
X229622603Y-94112851D01*
X130109938Y-112899945D02*
X130131376Y-112961652D01*
X204550490Y-77149167D02*
X204612196Y-77127736D01*
X167404585Y-75167027D02*
X159633284Y-75167027D01*
X154404585Y-75167027D02*
X159633284Y-75167027D01*
X229511702Y-94177739D02*
X229569441Y-94148770D01*
X148836683Y-32959111D02*
X148815260Y-32897405D01*
X204485426Y-77162461D02*
X204550490Y-77149167D01*
X130096647Y-112834874D02*
X130109938Y-112899945D01*
X229449995Y-94199170D02*
X229511702Y-94177739D01*
X138829573Y-94217031D02*
X125829573Y-94217031D01*
X204432448Y-77166028D02*
X204485426Y-77162461D01*
X148849989Y-33024182D02*
X148836683Y-32959111D01*
X204432448Y-77166028D02*
X204417586Y-77167027D01*
X130096647Y-112834874D02*
X130092085Y-112767026D01*
X229384932Y-94212468D02*
X229449995Y-94199170D01*
X143592085Y-113267026D02*
X130592085Y-113267026D01*
X198349714Y-77162461D02*
X198417586Y-77167027D01*
X148849989Y-33024182D02*
X148854567Y-33092031D01*
X229384932Y-94212468D02*
X229317091Y-94217031D01*
X143659956Y-99271581D02*
X143592085Y-99267026D01*
X198284651Y-77149167D02*
X198349714Y-77162461D01*
X92492079Y-113267026D02*
X105492079Y-113267026D01*
X216249220Y-94212468D02*
X216317091Y-94217031D01*
X134859129Y-33024182D02*
X134854582Y-33092031D01*
X198222944Y-77127736D02*
X198284651Y-77149167D01*
X143725020Y-99284879D02*
X143710768Y-99281964D01*
X216184157Y-94199170D02*
X216249220Y-94212468D01*
X143659956Y-99271581D02*
X143710768Y-99281964D01*
X198165205Y-77098763D02*
X198222944Y-77127736D01*
X134872420Y-32959111D02*
X134859129Y-33024182D01*
X216122450Y-94177739D02*
X216184157Y-94199170D01*
X143786726Y-99306310D02*
X143725020Y-99284879D01*
X198112044Y-77062848D02*
X198165205Y-77098763D01*
X134893858Y-32897405D02*
X134872420Y-32959111D01*
X216064711Y-94148770D02*
X216122450Y-94177739D01*
X143844465Y-99335279D02*
X143786726Y-99306310D01*
X198064039Y-77020581D02*
X198112044Y-77062848D01*
X134922835Y-32839673D02*
X134893858Y-32897405D01*
X216011549Y-94112851D02*
X216064711Y-94148770D01*
X143897627Y-99371198D02*
X143844465Y-99335279D01*
X198021773Y-76972562D02*
X198064039Y-77020581D01*
X186454573Y-46592031D02*
X173454573Y-46592031D01*
X215963545Y-94070584D02*
X216011549Y-94112851D01*
X134958754Y-32786496D02*
X134922835Y-32839673D01*
X197985853Y-76919385D02*
X198021773Y-76972562D01*
X143945631Y-99413465D02*
X143897627Y-99371198D01*
X215921278Y-94022565D02*
X215963545Y-94070584D01*
X216317091Y-156129529D02*
X229317091Y-156129529D01*
X197956892Y-76861650D02*
X197985853Y-76919385D01*
X135001021Y-32738477D02*
X134958754Y-32786496D01*
X215885359Y-93969388D02*
X215921278Y-94022565D01*
X143987898Y-99461484D02*
X143945631Y-99413465D01*
X197935469Y-76799947D02*
X197956892Y-76861650D01*
X135049040Y-32696210D02*
X135001021Y-32738477D01*
X215856398Y-93911653D02*
X215885359Y-93969388D01*
X144023817Y-99514661D02*
X143987898Y-99461484D01*
X197922163Y-76734876D02*
X197935469Y-76799947D01*
X138829573Y-80217031D02*
X125829573Y-80217031D01*
X215834975Y-93849950D02*
X215856398Y-93911653D01*
X135102217Y-32660291D02*
X135049040Y-32696210D01*
X197922163Y-76734876D02*
X197917586Y-76667027D01*
X144052778Y-99572400D02*
X144023817Y-99514661D01*
X215821669Y-93784879D02*
X215834975Y-93849950D01*
X158379591Y-80717031D02*
X158379591Y-93717031D01*
X204485457Y-62171594D02*
X204417586Y-62167027D01*
X135159956Y-32631322D02*
X135102217Y-32660291D01*
X215821669Y-93784879D02*
X215817091Y-93717031D01*
X144074202Y-99634107D02*
X144052778Y-99572400D01*
X204550520Y-62184888D02*
X204485457Y-62171594D01*
X94086531Y-137867032D02*
X94086531Y-150867032D01*
X229384962Y-80221597D02*
X229317091Y-80217031D01*
X135221663Y-32609891D02*
X135159956Y-32631322D01*
X204612227Y-62206319D02*
X204550520Y-62184888D01*
X144087507Y-99699178D02*
X144074202Y-99634107D01*
X229450026Y-80234891D02*
X229384962Y-80221597D01*
X118185835Y-137867032D02*
X118185835Y-150867032D01*
X204669966Y-62235291D02*
X204612227Y-62206319D01*
X135286741Y-32596593D02*
X135221663Y-32609891D01*
X229511732Y-80256322D02*
X229450026Y-80234891D01*
X144087507Y-99699178D02*
X144092085Y-99767026D01*
X204723128Y-62271207D02*
X204669966Y-62235291D01*
X115017073Y-132317029D02*
X102017073Y-132317029D01*
X229569472Y-80285295D02*
X229511732Y-80256322D01*
X135286741Y-32596593D02*
X135354582Y-32592031D01*
X204771132Y-62313474D02*
X204723128Y-62271207D01*
X130096632Y-99699185D02*
X130092085Y-99767026D01*
X229622633Y-80321210D02*
X229569472Y-80285295D01*
X120275038Y-46159875D02*
X120279585Y-46092031D01*
X204813399Y-62361493D02*
X204771132Y-62313474D01*
X130109923Y-99634114D02*
X130096632Y-99699185D01*
X229670637Y-80363477D02*
X229622633Y-80321210D01*
X120261748Y-46224950D02*
X120275038Y-46159875D01*
X204849318Y-62414670D02*
X204813399Y-62361493D01*
X130131361Y-99572408D02*
X130109923Y-99634114D01*
X229712904Y-80411496D02*
X229670637Y-80363477D01*
X77417082Y-118817029D02*
X77417082Y-131817029D01*
X204878279Y-62472405D02*
X204849318Y-62414670D01*
X120240309Y-46286649D02*
X120261748Y-46224950D01*
X229748823Y-80464673D02*
X229712904Y-80411496D01*
X130160338Y-99514668D02*
X130131361Y-99572408D01*
X204899702Y-62534108D02*
X204878279Y-62472405D01*
X120211333Y-46344388D02*
X120240309Y-46286649D01*
X229777785Y-80522408D02*
X229748823Y-80464673D01*
X130196257Y-99461492D02*
X130160338Y-99514668D01*
X204913008Y-62599179D02*
X204899702Y-62534108D01*
X120175413Y-46397565D02*
X120211333Y-46344388D01*
X229799208Y-80584111D02*
X229777785Y-80522408D01*
X130238524Y-99413472D02*
X130196257Y-99461492D01*
X204913008Y-62599179D02*
X204917586Y-62667027D01*
X179810835Y-137867032D02*
X179810835Y-150867032D01*
X229812514Y-80649182D02*
X229799208Y-80584111D01*
X120133147Y-46445580D02*
X120175413Y-46397565D01*
X197922194Y-62599179D02*
X197917586Y-62667027D01*
X130286543Y-99371205D02*
X130238524Y-99413472D01*
X229812514Y-80649182D02*
X229817091Y-80717031D01*
X120085127Y-46487844D02*
X120133147Y-46445580D01*
X197935499Y-62534108D02*
X197922194Y-62599179D01*
X130339720Y-99335286D02*
X130286543Y-99371205D01*
X215821699Y-80649182D02*
X215817091Y-80717031D01*
X49129576Y-33092031D02*
X49129576Y-46092031D01*
X197956923Y-62472405D02*
X197935499Y-62534108D01*
X120031950Y-46523763D02*
X120085127Y-46487844D01*
X215835005Y-80584111D02*
X215821699Y-80649182D01*
X130397459Y-99306317D02*
X130339720Y-99335286D01*
X197985884Y-62414670D02*
X197983320Y-62419755D01*
X197979536Y-62427312D02*
X197983320Y-62419755D01*
X119974211Y-46552735D02*
X120031950Y-46523763D01*
X197956923Y-62472405D02*
X197979536Y-62427312D01*
X130459166Y-99284886D02*
X130397459Y-99306317D01*
X215856428Y-80522408D02*
X215835005Y-80584111D01*
X119912504Y-46574170D02*
X119974211Y-46552735D01*
X198021803Y-62361493D02*
X197985884Y-62414670D01*
X130524245Y-99271588D02*
X130459166Y-99284886D01*
X215885390Y-80464673D02*
X215856428Y-80522408D01*
X119847426Y-46587464D02*
X119912504Y-46574170D01*
X198064070Y-62313474D02*
X198021803Y-62361493D01*
X130524245Y-99271588D02*
X130592085Y-99267026D01*
X215921309Y-80411496D02*
X215885390Y-80464673D01*
X119847426Y-46587464D02*
X119779585Y-46592031D01*
X198112074Y-62271207D02*
X198064070Y-62313474D01*
X125037535Y-112834867D02*
X125042082Y-112767026D01*
X215963576Y-80363477D02*
X215921309Y-80411496D01*
X106711760Y-46587464D02*
X106779585Y-46592031D01*
X198165236Y-62235291D02*
X198112074Y-62271207D01*
X125024245Y-112899938D02*
X125037535Y-112834867D01*
X216011580Y-80321210D02*
X215963576Y-80363477D01*
X106646681Y-46574170D02*
X106711760Y-46587464D01*
X198222975Y-62206319D02*
X198165236Y-62235291D01*
X125002806Y-112961644D02*
X125024245Y-112899938D01*
X216064741Y-80285295D02*
X216011580Y-80321210D01*
X202623335Y-81804029D02*
X202623335Y-87804029D01*
X198284682Y-62184888D02*
X198222975Y-62206319D01*
X106584975Y-46552735D02*
X106646681Y-46574170D01*
X216122481Y-80256322D02*
X216064741Y-80285295D01*
X124973829Y-113019383D02*
X125002806Y-112961644D01*
X198349745Y-62171594D02*
X198284682Y-62184888D01*
X154404585Y-61167027D02*
X167404585Y-61167027D01*
X216184187Y-80234891D02*
X216122481Y-80256322D01*
X124937910Y-113072560D02*
X124973829Y-113019383D01*
X198349745Y-62171594D02*
X198417586Y-62167027D01*
X106527235Y-46523763D02*
X106584975Y-46552735D01*
X216249251Y-80221597D02*
X216184187Y-80234891D01*
X124895643Y-113120580D02*
X124937910Y-113072560D01*
X181036970Y-76734876D02*
X181041579Y-76667027D01*
X106474058Y-46487844D02*
X106527235Y-46523763D01*
X216249251Y-80221597D02*
X216317091Y-80217031D01*
X216317091Y-142129529D02*
X229317091Y-142129529D01*
X181023665Y-76799947D02*
X181036970Y-76734876D01*
X124847624Y-113162847D02*
X124895643Y-113120580D01*
X188055464Y-112175473D02*
X188123335Y-112180028D01*
X106426039Y-46445580D02*
X106474058Y-46487844D01*
X181002241Y-76861650D02*
X181023665Y-76799947D01*
X238213911Y-75167027D02*
X248367079Y-75167027D01*
X187990401Y-112162175D02*
X188055464Y-112175473D01*
X238213911Y-75167027D02*
X235367079Y-75167027D01*
X180973280Y-76919385D02*
X181002241Y-76861650D01*
X124794447Y-113198766D02*
X124847624Y-113162847D01*
X187928694Y-112140744D02*
X187990401Y-112162175D01*
X106383772Y-46397565D02*
X106426039Y-46445580D01*
X180937361Y-76972562D02*
X180973280Y-76919385D01*
X100729582Y-94217031D02*
X87729582Y-94217031D01*
X187870955Y-112111775D02*
X187928694Y-112140744D01*
X124736708Y-113227735D02*
X124794447Y-113198766D01*
X180895094Y-77020581D02*
X180937361Y-76972562D01*
X106347853Y-46344388D02*
X106383772Y-46397565D01*
X187817793Y-112075856D02*
X187870955Y-112111775D01*
X248862471Y-155697370D02*
X248867079Y-155629529D01*
X180847090Y-77062848D02*
X180895094Y-77020581D01*
X124675001Y-113249166D02*
X124736708Y-113227735D01*
X187769789Y-112033589D02*
X187817793Y-112075856D01*
X106318876Y-46286649D02*
X106347853Y-46344388D01*
X180793928Y-77098763D02*
X180847090Y-77062848D01*
X248849165Y-155762441D02*
X248862471Y-155697370D01*
X187727522Y-111985570D02*
X187769789Y-112033589D01*
X124609923Y-113262464D02*
X124675001Y-113249166D01*
X180736189Y-77127736D02*
X180793928Y-77098763D01*
X106297438Y-46224950D02*
X106318876Y-46286649D01*
X187691603Y-111932393D02*
X187727522Y-111985570D01*
X248827742Y-155824147D02*
X248849165Y-155762441D01*
X180674483Y-77149167D02*
X180736189Y-77127736D01*
X124609923Y-113262464D02*
X124542082Y-113267026D01*
X187662642Y-111874654D02*
X187691603Y-111932393D01*
X106284147Y-46159875D02*
X106297438Y-46224950D01*
X180609419Y-77162461D02*
X180674483Y-77149167D01*
X248798781Y-155881886D02*
X248827742Y-155824147D01*
X187641218Y-111812947D02*
X187662642Y-111874654D01*
X111474257Y-113262471D02*
X111542082Y-113267026D01*
X180609419Y-77162461D02*
X180541579Y-77167027D01*
X106284147Y-46159875D02*
X106279585Y-46092031D01*
X187627913Y-111747876D02*
X187641218Y-111812947D01*
X248762861Y-155935063D02*
X248798781Y-155881886D01*
X174473707Y-77162461D02*
X174541579Y-77167027D01*
X111409178Y-113249173D02*
X111474257Y-113262471D01*
X187627913Y-111747876D02*
X187623335Y-111680028D01*
X119847410Y-32596593D02*
X119779585Y-32592031D01*
X174408644Y-77149167D02*
X174473707Y-77162461D01*
X248720595Y-155983083D02*
X248762861Y-155935063D01*
X187627943Y-105612187D02*
X187623335Y-105680028D01*
X111347471Y-113227742D02*
X111409178Y-113249173D01*
X174346937Y-77127736D02*
X174408644Y-77149167D01*
X119912489Y-32609891D02*
X119847410Y-32596593D01*
X187641249Y-105547116D02*
X187627943Y-105612187D01*
X248672590Y-156025350D02*
X248720595Y-155983083D01*
X174289198Y-77098763D02*
X174346937Y-77127736D01*
X111289732Y-113198773D02*
X111347471Y-113227742D01*
X187662672Y-105485410D02*
X187641249Y-105547116D01*
X119974196Y-32631322D02*
X119912489Y-32609891D01*
X174236037Y-77062848D02*
X174289198Y-77098763D01*
X248619429Y-156061269D02*
X248672590Y-156025350D01*
X187691633Y-105427670D02*
X187662672Y-105485410D01*
X111236555Y-113162854D02*
X111289732Y-113198773D01*
X174188032Y-77020581D02*
X174236037Y-77062848D01*
X120031935Y-32660291D02*
X119974196Y-32631322D01*
X187727553Y-105374494D02*
X187691633Y-105427670D01*
X248561690Y-156090238D02*
X248619429Y-156061269D01*
X174145766Y-76972562D02*
X174188032Y-77020581D01*
X111188536Y-113120587D02*
X111236555Y-113162854D01*
X187769819Y-105326474D02*
X187727553Y-105374494D01*
X120085112Y-32696210D02*
X120031935Y-32660291D01*
X174109846Y-76919385D02*
X174145766Y-76972562D01*
X248499983Y-156111669D02*
X248561690Y-156090238D01*
X187817824Y-105284207D02*
X187769819Y-105326474D01*
X111146269Y-113072568D02*
X111188536Y-113120587D01*
X174080885Y-76861650D02*
X174109846Y-76919385D01*
X120133131Y-32738477D02*
X120085112Y-32696210D01*
X187870985Y-105248288D02*
X187817824Y-105284207D01*
X248434920Y-156124967D02*
X248499983Y-156111669D01*
X174059462Y-76799947D02*
X174080885Y-76861650D01*
X111110350Y-113019391D02*
X111146269Y-113072568D01*
X187928725Y-105219319D02*
X187870985Y-105248288D01*
X120175398Y-32786496D02*
X120133131Y-32738477D01*
X174046156Y-76734876D02*
X174059462Y-76799947D01*
X248434920Y-156124967D02*
X248367079Y-156129529D01*
X187990431Y-105197888D02*
X187928725Y-105219319D01*
X111081373Y-112961652D02*
X111110350Y-113019391D01*
X174046156Y-76734876D02*
X174041579Y-76667027D01*
X120211317Y-32839673D02*
X120175398Y-32786496D01*
X188055495Y-105184590D02*
X187990431Y-105197888D01*
X235299208Y-156124974D02*
X235367079Y-156129529D01*
X180609450Y-62171594D02*
X180541579Y-62167027D01*
X111059935Y-112899945D02*
X111081373Y-112961652D01*
X188055495Y-105184590D02*
X188123335Y-105180028D01*
X120240294Y-32897405D02*
X120211317Y-32839673D01*
X180674513Y-62184888D02*
X180609450Y-62171594D01*
X235234144Y-156111676D02*
X235299208Y-156124974D01*
X202618727Y-111747869D02*
X202623335Y-111680028D01*
X111046644Y-112834874D02*
X111059935Y-112899945D01*
X180736220Y-62206319D02*
X180674513Y-62184888D01*
X120261732Y-32959111D02*
X120240294Y-32897405D01*
X202605421Y-111812940D02*
X202618727Y-111747869D01*
X235172438Y-156090245D02*
X235234144Y-156111676D01*
X180793959Y-62235291D02*
X180736220Y-62206319D01*
X111046644Y-112834874D02*
X111042082Y-112767026D01*
X202583998Y-111874646D02*
X202605421Y-111812940D01*
X120275023Y-33024182D02*
X120261732Y-32959111D01*
X180847121Y-62271207D02*
X180793959Y-62235291D01*
X235114699Y-156061276D02*
X235172438Y-156090245D01*
X202555037Y-111932385D02*
X202583998Y-111874646D01*
X124609907Y-99271581D02*
X124542082Y-99267026D01*
X180895125Y-62313474D02*
X180884627Y-62304219D01*
X120275023Y-33024182D02*
X120279585Y-33092031D01*
X180847121Y-62271207D02*
X180884627Y-62304219D01*
X235061537Y-156025357D02*
X235114699Y-156061276D01*
X202519118Y-111985562D02*
X202555037Y-111932385D01*
X124674986Y-99284879D02*
X124609907Y-99271581D01*
X180937392Y-62361493D02*
X180895125Y-62313474D01*
X106284132Y-33024182D02*
X106279585Y-33092031D01*
X202476851Y-112033582D02*
X202519118Y-111985562D01*
X235013533Y-155983090D02*
X235061537Y-156025357D01*
X180973311Y-62414670D02*
X180937392Y-62361493D01*
X124736693Y-99306310D02*
X124674986Y-99284879D01*
X202428847Y-112075849D02*
X202476851Y-112033582D01*
X106297423Y-32959111D02*
X106284132Y-33024182D01*
X181002272Y-62472405D02*
X180973311Y-62414670D01*
X234971266Y-155935071D02*
X235013533Y-155983090D01*
X202375685Y-112111768D02*
X202428847Y-112075849D01*
X124794432Y-99335279D02*
X124736693Y-99306310D01*
X181023695Y-62534108D02*
X181002272Y-62472405D01*
X106318861Y-32897405D02*
X106297423Y-32959111D01*
X202317946Y-112140737D02*
X202375685Y-112111768D01*
X234935347Y-155881894D02*
X234971266Y-155935071D01*
X181037001Y-62599179D02*
X181023695Y-62534108D01*
X124847609Y-99371198D02*
X124794432Y-99335279D01*
X202256239Y-112162168D02*
X202317946Y-112140737D01*
X106347838Y-32839673D02*
X106318861Y-32897405D01*
X181037001Y-62599179D02*
X181041579Y-62667027D01*
X234906386Y-155824155D02*
X234935347Y-155881894D01*
X202191176Y-112175466D02*
X202256239Y-112162168D01*
X124895628Y-99413465D02*
X124847609Y-99371198D01*
X174046187Y-62599179D02*
X174041579Y-62667027D01*
X106383757Y-32786496D02*
X106347838Y-32839673D01*
X202191176Y-112175466D02*
X202123335Y-112180028D01*
X234884962Y-155762448D02*
X234906386Y-155824155D01*
X174059492Y-62534108D02*
X174046187Y-62599179D01*
X124937895Y-99461484D02*
X124895628Y-99413465D01*
X202191206Y-105184583D02*
X202123335Y-105180028D01*
X106426024Y-32738477D02*
X106383757Y-32786496D01*
X174080916Y-62472405D02*
X174059492Y-62534108D01*
X234871657Y-155697377D02*
X234884962Y-155762448D01*
X202256270Y-105197881D02*
X202191206Y-105184583D01*
X124973814Y-99514661D02*
X124937895Y-99461484D01*
X174109877Y-62414670D02*
X174080916Y-62472405D01*
X106474043Y-32696210D02*
X106426024Y-32738477D01*
X202317976Y-105219312D02*
X202256270Y-105197881D01*
X234871657Y-155697377D02*
X234867079Y-155629529D01*
X174145796Y-62361493D02*
X174109877Y-62414670D01*
X125002791Y-99572400D02*
X124973814Y-99514661D01*
X202375715Y-105248281D02*
X202370619Y-105245732D01*
X202363081Y-105241940D02*
X202370619Y-105245732D01*
X106527220Y-32660291D02*
X106474043Y-32696210D01*
X202317976Y-105219312D02*
X202363081Y-105241940D01*
X248434950Y-142134084D02*
X248367079Y-142129529D01*
X174188063Y-62313474D02*
X174145796Y-62361493D01*
X125024229Y-99634107D02*
X125002791Y-99572400D01*
X202428877Y-105284200D02*
X202375715Y-105248281D01*
X106584959Y-32631322D02*
X106527220Y-32660291D01*
X174236067Y-62271207D02*
X174188063Y-62313474D01*
X248500014Y-142147382D02*
X248434950Y-142134084D01*
X202476881Y-105326467D02*
X202428877Y-105284200D01*
X125037520Y-99699178D02*
X125024229Y-99634107D01*
X174289229Y-62235291D02*
X174236067Y-62271207D01*
X106646666Y-32609891D02*
X106584959Y-32631322D01*
X202519148Y-105374486D02*
X202476881Y-105326467D01*
X248561720Y-142168813D02*
X248500014Y-142147382D01*
X174346968Y-62206319D02*
X174289229Y-62235291D01*
X125037520Y-99699178D02*
X125042082Y-99767026D01*
X202555067Y-105427663D02*
X202519148Y-105374486D01*
X106711745Y-32596593D02*
X106646666Y-32609891D01*
X174408674Y-62184888D02*
X174346968Y-62206319D01*
X248619459Y-142197782D02*
X248561720Y-142168813D01*
X202584028Y-105485402D02*
X202555067Y-105427663D01*
X111046629Y-99699185D02*
X111042082Y-99767026D01*
X174473738Y-62171594D02*
X174408674Y-62184888D01*
X106711745Y-32596593D02*
X106779585Y-32592031D01*
X202605452Y-105547109D02*
X202584028Y-105485402D01*
X248672621Y-142233701D02*
X248619459Y-142197782D01*
X174473738Y-62171594D02*
X174541579Y-62167027D01*
X111059920Y-99634114D02*
X111046629Y-99699185D01*
X202618757Y-105612180D02*
X202605452Y-105547109D01*
X101225035Y-46159875D02*
X101229582Y-46092031D01*
X196474959Y-74734876D02*
X196479567Y-74667027D01*
X248720625Y-142275968D02*
X248672621Y-142233701D01*
X202618757Y-105612180D02*
X202623335Y-105680028D01*
X111081358Y-99572408D02*
X111059920Y-99634114D01*
X196461653Y-74799947D02*
X196474959Y-74734876D01*
X101211745Y-46224950D02*
X101225035Y-46159875D01*
X188055464Y-88299462D02*
X188123335Y-88304029D01*
X248762892Y-142323987D02*
X248720625Y-142275968D01*
X196440230Y-74861650D02*
X196461653Y-74799947D01*
X111110335Y-99514668D02*
X111081358Y-99572408D01*
X187990401Y-88286168D02*
X188055464Y-88299462D01*
X101190306Y-46286649D02*
X101211745Y-46224950D01*
X196411268Y-74919385D02*
X196440230Y-74861650D01*
X248798811Y-142377164D02*
X248762892Y-142323987D01*
X187928694Y-88264737D02*
X187990401Y-88286168D01*
X111146254Y-99461492D02*
X111110335Y-99514668D01*
X196375349Y-74972562D02*
X196411268Y-74919385D01*
X101161329Y-46344388D02*
X101190306Y-46286649D01*
X187870955Y-88235765D02*
X187928694Y-88264737D01*
X248827772Y-142434903D02*
X248798811Y-142377164D01*
X196333082Y-75020581D02*
X196375349Y-74972562D01*
X111188521Y-99413472D02*
X111146254Y-99461492D01*
X187817793Y-88199849D02*
X187870955Y-88235765D01*
X101125410Y-46397565D02*
X101161329Y-46344388D01*
X196285078Y-75062848D02*
X196333082Y-75020581D01*
X248849196Y-142496610D02*
X248827772Y-142434903D01*
X187769789Y-88157582D02*
X187817793Y-88199849D01*
X111236540Y-99371205D02*
X111188521Y-99413472D01*
X196231917Y-75098763D02*
X196285078Y-75062848D01*
X101083143Y-46445580D02*
X101125410Y-46397565D01*
X187727522Y-88109563D02*
X187769789Y-88157582D01*
X248862501Y-142561681D02*
X248849196Y-142496610D01*
X196174177Y-75127736D02*
X196231917Y-75098763D01*
X111289717Y-99335286D02*
X111236540Y-99371205D01*
X187691603Y-88056386D02*
X187727522Y-88109563D01*
X101035124Y-46487844D02*
X101083143Y-46445580D01*
X196112471Y-75149167D02*
X196174177Y-75127736D01*
X248862501Y-142561681D02*
X248867079Y-142629529D01*
X187662642Y-87998651D02*
X187691603Y-88056386D01*
X111347456Y-99306317D02*
X111289717Y-99335286D01*
X196047407Y-75162461D02*
X196112471Y-75149167D01*
X100981947Y-46523763D02*
X101035124Y-46487844D01*
X187641218Y-87936948D02*
X187662642Y-87998651D01*
X234871687Y-142561688D02*
X234867079Y-142629529D01*
X196047407Y-75162461D02*
X195979567Y-75167027D01*
X111409163Y-99284886D02*
X111347456Y-99306317D01*
X187627913Y-87871877D02*
X187641218Y-87936948D01*
X100924208Y-46552735D02*
X100981947Y-46523763D01*
X182911696Y-75162461D02*
X182979567Y-75167027D01*
X234884993Y-142496617D02*
X234871687Y-142561688D01*
X187627913Y-87871877D02*
X187623335Y-87804029D01*
X111474241Y-99271588D02*
X111409163Y-99284886D01*
X182846632Y-75149167D02*
X182911696Y-75162461D01*
X100862501Y-46574170D02*
X100924208Y-46552735D01*
X187627943Y-81736180D02*
X187623335Y-81804029D01*
X234906416Y-142434911D02*
X234884993Y-142496617D01*
X182784926Y-75127736D02*
X182846632Y-75149167D01*
X111474241Y-99271588D02*
X111542082Y-99267026D01*
X187641249Y-81671109D02*
X187627943Y-81736180D01*
X100797423Y-46587464D02*
X100862501Y-46574170D01*
X182727186Y-75098763D02*
X182784926Y-75127736D01*
X234935377Y-142377172D02*
X234906416Y-142434911D01*
X187662672Y-81609406D02*
X187641249Y-81671109D01*
X105987532Y-112834867D02*
X105992079Y-112767026D01*
X182674025Y-75062848D02*
X182727186Y-75098763D01*
X100797423Y-46587464D02*
X100729582Y-46592031D01*
X187691633Y-81551671D02*
X187662672Y-81609406D01*
X234971297Y-142323995D02*
X234935377Y-142377172D01*
X182626021Y-75020581D02*
X182674025Y-75062848D01*
X105974241Y-112899938D02*
X105987532Y-112834867D01*
X187727553Y-81498494D02*
X187691633Y-81551671D01*
X87661757Y-46587464D02*
X87729582Y-46592031D01*
X182583754Y-74972562D02*
X182626021Y-75020581D01*
X235013563Y-142275975D02*
X234971297Y-142323995D01*
X187769819Y-81450475D02*
X187727553Y-81498494D01*
X105952803Y-112961644D02*
X105974241Y-112899938D01*
X182547835Y-74919385D02*
X182583754Y-74972562D01*
X87596678Y-46574170D02*
X87661757Y-46587464D01*
X187817824Y-81408208D02*
X187769819Y-81450475D01*
X235061568Y-142233708D02*
X235013563Y-142275975D01*
X182518873Y-74861650D02*
X182547835Y-74919385D01*
X105923826Y-113019383D02*
X105952803Y-112961644D01*
X187870985Y-81372293D02*
X187817824Y-81408208D01*
X87534971Y-46552735D02*
X87596678Y-46574170D01*
X182497450Y-74799947D02*
X182518873Y-74861650D01*
X235114729Y-142197789D02*
X235061568Y-142233708D01*
X187928725Y-81343320D02*
X187870985Y-81372293D01*
X105887907Y-113072560D02*
X105923826Y-113019383D01*
X182484144Y-74734876D02*
X182497450Y-74799947D01*
X87477232Y-46523763D02*
X87534971Y-46552735D01*
X187990431Y-81321889D02*
X187928725Y-81343320D01*
X235172468Y-142168820D02*
X235114729Y-142197789D01*
X182484144Y-74734876D02*
X182479567Y-74667027D01*
X105845640Y-113120580D02*
X105887907Y-113072560D01*
X188055495Y-81308595D02*
X187990431Y-81321889D01*
X87424055Y-46487844D02*
X87477232Y-46523763D01*
X196047438Y-61171594D02*
X195979567Y-61167027D01*
X235234175Y-142147389D02*
X235172468Y-142168820D01*
X188055495Y-81308595D02*
X188123335Y-81304029D01*
X105797621Y-113162847D02*
X105845640Y-113120580D01*
X196112501Y-61184888D02*
X196047438Y-61171594D01*
X87376036Y-46445580D02*
X87424055Y-46487844D01*
X202618727Y-87871877D02*
X202623335Y-87804029D01*
X235299238Y-142134091D02*
X235234175Y-142147389D01*
X196174208Y-61206323D02*
X196112501Y-61184888D01*
X105744444Y-113198766D02*
X105797621Y-113162847D01*
X202605421Y-87936948D02*
X202618727Y-87871877D01*
X87333769Y-46397565D02*
X87376036Y-46445580D01*
X196231947Y-61235295D02*
X196174208Y-61206323D01*
X235299238Y-142134091D02*
X235367079Y-142129529D01*
X202583998Y-87998651D02*
X202605421Y-87936948D01*
X105686705Y-113227735D02*
X105744444Y-113198766D01*
X196285109Y-61271214D02*
X196231947Y-61235295D01*
X87297850Y-46344388D02*
X87333769Y-46397565D01*
X202555037Y-88056386D02*
X202583998Y-87998651D01*
X229812483Y-155697370D02*
X229817091Y-155629529D01*
X196333113Y-61313478D02*
X196285109Y-61271214D01*
X105624998Y-113249166D02*
X105686705Y-113227735D01*
X202519118Y-88109563D02*
X202555037Y-88056386D01*
X87268873Y-46286649D02*
X87297850Y-46344388D01*
X196375380Y-61361493D02*
X196333113Y-61313478D01*
X229799177Y-155762441D02*
X229812483Y-155697370D01*
X202486098Y-88147065D02*
X202519118Y-88109563D01*
X105559920Y-113262464D02*
X105624998Y-113249166D01*
X202480574Y-88153352D02*
X202486098Y-88147065D01*
X202476851Y-88157582D02*
X202480574Y-88153352D01*
X87247435Y-46224950D02*
X87268873Y-46286649D01*
X196411299Y-61414670D02*
X196375380Y-61361493D01*
X229777754Y-155824147D02*
X229799177Y-155762441D01*
X202428847Y-88199849D02*
X202476851Y-88157582D01*
X105559920Y-113262464D02*
X105492079Y-113267026D01*
X196440260Y-61472409D02*
X196411299Y-61414670D01*
X87234144Y-46159875D02*
X87247435Y-46224950D01*
X202375685Y-88235765D02*
X202428847Y-88199849D01*
X229748793Y-155881886D02*
X229777754Y-155824147D01*
X196461683Y-61534108D02*
X196440260Y-61472409D01*
X92424254Y-113262471D02*
X92492079Y-113267026D01*
X202317946Y-88264737D02*
X202375685Y-88235765D01*
X87234144Y-46159875D02*
X87229582Y-46092031D01*
X196474989Y-61599183D02*
X196461683Y-61534108D01*
X229712874Y-155935063D02*
X229748793Y-155881886D01*
X202256239Y-88286168D02*
X202317946Y-88264737D01*
X92359175Y-113249173D02*
X92424254Y-113262471D01*
X196478560Y-61652173D02*
X196474989Y-61599183D01*
X100797407Y-32596593D02*
X100729582Y-32592031D01*
X196478560Y-61652173D02*
X196479567Y-61667027D01*
X229670607Y-155983083D02*
X229712874Y-155935063D01*
X202191176Y-88299462D02*
X202256239Y-88286168D01*
X92297468Y-113227742D02*
X92359175Y-113249173D01*
X182484175Y-61599183D02*
X182483168Y-61614041D01*
X100862486Y-32609891D02*
X100797407Y-32596593D01*
X182479567Y-61667027D02*
X182483168Y-61614041D01*
X229622603Y-156025350D02*
X229670607Y-155983083D01*
X202191176Y-88299462D02*
X202123335Y-88304029D01*
X92239729Y-113198773D02*
X92297468Y-113227742D01*
X182497481Y-61534108D02*
X182484175Y-61599183D01*
X100924193Y-32631322D02*
X100862486Y-32609891D01*
X202191206Y-81308595D02*
X202123335Y-81304029D01*
X229569441Y-156061269D02*
X229622603Y-156025350D01*
X182518904Y-61472409D02*
X182497481Y-61534108D01*
X92186552Y-113162854D02*
X92239729Y-113198773D01*
X202256270Y-81321889D02*
X202191206Y-81308595D01*
X100981932Y-32660291D02*
X100924193Y-32631322D01*
X182547865Y-61414670D02*
X182518904Y-61472409D01*
X229511702Y-156090238D02*
X229569441Y-156061269D01*
X202317976Y-81343320D02*
X202256270Y-81321889D01*
X92138533Y-113120587D02*
X92186552Y-113162854D01*
X182583784Y-61361493D02*
X182547865Y-61414670D01*
X101035109Y-32696210D02*
X100981932Y-32660291D01*
X202375715Y-81372293D02*
X202317976Y-81343320D01*
X229449995Y-156111669D02*
X229511702Y-156090238D01*
X182626051Y-61313478D02*
X182583784Y-61361493D01*
X92096266Y-113072568D02*
X92138533Y-113120587D01*
X202428877Y-81408208D02*
X202375715Y-81372293D01*
X101083128Y-32738477D02*
X101035109Y-32696210D01*
X182674055Y-61271214D02*
X182626051Y-61313478D01*
X229384932Y-156124967D02*
X229449995Y-156111669D01*
X202476881Y-81450475D02*
X202428877Y-81408208D01*
X92060347Y-113019391D02*
X92096266Y-113072568D01*
X182727217Y-61235295D02*
X182674055Y-61271214D01*
X101125395Y-32786496D02*
X101083128Y-32738477D01*
X202519148Y-81498494D02*
X202476881Y-81450475D01*
X229384932Y-156124967D02*
X229317091Y-156129529D01*
X182784956Y-61206323D02*
X182727217Y-61235295D01*
X92031370Y-112961652D02*
X92060347Y-113019391D01*
X202555067Y-81551671D02*
X202519148Y-81498494D01*
X101161314Y-32839673D02*
X101125395Y-32786496D01*
X182846663Y-61184888D02*
X182784956Y-61206323D01*
X216249220Y-156124974D02*
X216317091Y-156129529D01*
X202584028Y-81609406D02*
X202555067Y-81551671D01*
X92009932Y-112899945D02*
X92031370Y-112961652D01*
X182911726Y-61171594D02*
X182846663Y-61184888D01*
X101190291Y-32897405D02*
X101161314Y-32839673D01*
X202605452Y-81671109D02*
X202584028Y-81609406D01*
X216184157Y-156111676D02*
X216249220Y-156124974D01*
X182911726Y-61171594D02*
X182979567Y-61167027D01*
X91996641Y-112834874D02*
X92009932Y-112899945D01*
X202618757Y-81736180D02*
X202605452Y-81671109D01*
X101211729Y-32959111D02*
X101190291Y-32897405D01*
X167899977Y-74734876D02*
X167904585Y-74667027D01*
X216122450Y-156090245D02*
X216184157Y-156111676D01*
X202618757Y-81736180D02*
X202623335Y-81804029D01*
X91996641Y-112834874D02*
X91992079Y-112767026D01*
X167886671Y-74799947D02*
X167899977Y-74734876D01*
X101225020Y-33024182D02*
X101211729Y-32959111D01*
X190055464Y-103737477D02*
X190123335Y-103742032D01*
X216064711Y-156061276D02*
X216122450Y-156090245D01*
X167865248Y-74861650D02*
X167886671Y-74799947D01*
X105559904Y-99271581D02*
X105492079Y-99267026D01*
X189990401Y-103724179D02*
X190055464Y-103737477D01*
X101225020Y-33024182D02*
X101229582Y-33092031D01*
X167836287Y-74919385D02*
X167865248Y-74861650D01*
X216011549Y-156025357D02*
X216064711Y-156061276D01*
X189928694Y-103702748D02*
X189990401Y-103724179D01*
X105624983Y-99284879D02*
X105559904Y-99271581D01*
X167800368Y-74972562D02*
X167836287Y-74919385D01*
X87234129Y-33024182D02*
X87229582Y-33092031D01*
X189870955Y-103673779D02*
X189928694Y-103702748D01*
X215963545Y-155983090D02*
X216011549Y-156025357D01*
X167758101Y-75020581D02*
X167800368Y-74972562D01*
X105686690Y-99306310D02*
X105624983Y-99284879D01*
X189817793Y-103637860D02*
X189870955Y-103673779D01*
X87247420Y-32959111D02*
X87234129Y-33024182D01*
X167710097Y-75062848D02*
X167758101Y-75020581D01*
X215921278Y-155935071D02*
X215963545Y-155983090D01*
X189769789Y-103595593D02*
X189817793Y-103637860D01*
X105744429Y-99335279D02*
X105686690Y-99306310D01*
X167656935Y-75098763D02*
X167710097Y-75062848D01*
X87268858Y-32897405D02*
X87247420Y-32959111D01*
X189727522Y-103547574D02*
X189769789Y-103595593D01*
X215885359Y-155881894D02*
X215921278Y-155935071D01*
X167599196Y-75127736D02*
X167656935Y-75098763D01*
X105797606Y-99371198D02*
X105744429Y-99335279D01*
X189691603Y-103494397D02*
X189727522Y-103547574D01*
X87297835Y-32839673D02*
X87268858Y-32897405D01*
X167537489Y-75149167D02*
X167599196Y-75127736D01*
X215856398Y-155824155D02*
X215885359Y-155881894D01*
X189662642Y-103436658D02*
X189691603Y-103494397D01*
X105845625Y-99413465D02*
X105797606Y-99371198D01*
X167472426Y-75162461D02*
X167537489Y-75149167D01*
X87333754Y-32786496D02*
X87297835Y-32839673D01*
X189641218Y-103374951D02*
X189662642Y-103436658D01*
X215834975Y-155762448D02*
X215856398Y-155824155D01*
X167472426Y-75162461D02*
X167404585Y-75167027D01*
X105887892Y-99461484D02*
X105845625Y-99413465D01*
X189627913Y-103309880D02*
X189641218Y-103374951D01*
X87376021Y-32738477D02*
X87333754Y-32786496D01*
X154336714Y-75162461D02*
X154404585Y-75167027D01*
X215821669Y-155697377D02*
X215834975Y-155762448D01*
X189627913Y-103309880D02*
X189623335Y-103242032D01*
X105923811Y-99514661D02*
X105887892Y-99461484D01*
X154271651Y-75149167D02*
X154336714Y-75162461D01*
X87424040Y-32696210D02*
X87376021Y-32738477D01*
X189627943Y-90174180D02*
X189623335Y-90242028D01*
X215821669Y-155697377D02*
X215817091Y-155629529D01*
X154209944Y-75127736D02*
X154271651Y-75149167D01*
X105952788Y-99572400D02*
X105923811Y-99514661D01*
X189641249Y-90109109D02*
X189627943Y-90174180D01*
X87477217Y-32660291D02*
X87424040Y-32696210D01*
X154152205Y-75098763D02*
X154209944Y-75127736D01*
X229384962Y-142134084D02*
X229317091Y-142129529D01*
X189662672Y-90047406D02*
X189641249Y-90109109D01*
X105974226Y-99634107D02*
X105952788Y-99572400D01*
X154099043Y-75062848D02*
X154152205Y-75098763D01*
X87534956Y-32631322D02*
X87477217Y-32660291D01*
X189691633Y-89989671D02*
X189662672Y-90047406D01*
X229450026Y-142147382D02*
X229384962Y-142134084D01*
X154051039Y-75020581D02*
X154099043Y-75062848D01*
X105987517Y-99699178D02*
X105974226Y-99634107D01*
X189727553Y-89936494D02*
X189691633Y-89989671D01*
X87596663Y-32609891D02*
X87534956Y-32631322D01*
X154008772Y-74972562D02*
X154051039Y-75020581D01*
X229511732Y-142168813D02*
X229450026Y-142147382D01*
X189769819Y-89888474D02*
X189727553Y-89936494D01*
X105987517Y-99699178D02*
X105992079Y-99767026D01*
X153972853Y-74919385D02*
X154008772Y-74972562D01*
X87661741Y-32596593D02*
X87596663Y-32609891D01*
X189817824Y-89846208D02*
X189769819Y-89888474D01*
X229569472Y-142197782D02*
X229511732Y-142168813D01*
X153943892Y-74861650D02*
X153972853Y-74919385D01*
X91996626Y-99699185D02*
X91992079Y-99767026D01*
X189870985Y-89810292D02*
X189817824Y-89846208D01*
X87661741Y-32596593D02*
X87729582Y-32592031D01*
X153922468Y-74799947D02*
X153943892Y-74861650D01*
X229622633Y-142233701D02*
X229569472Y-142197782D01*
X189928725Y-89781320D02*
X189870985Y-89810292D01*
X92009917Y-99634114D02*
X91996626Y-99699185D01*
X153909163Y-74734876D02*
X153922468Y-74799947D01*
X82175032Y-46159875D02*
X82179579Y-46092031D01*
X189990431Y-89759889D02*
X189928725Y-89781320D01*
X229670637Y-142275968D02*
X229622633Y-142233701D01*
X153909163Y-74734876D02*
X153904585Y-74667027D01*
X92031355Y-99572408D02*
X92009917Y-99634114D01*
X190055495Y-89746594D02*
X189990431Y-89759889D01*
X82161741Y-46224950D02*
X82175032Y-46159875D01*
X167472456Y-61171594D02*
X167404585Y-61167027D01*
X229712904Y-142323987D02*
X229670637Y-142275968D01*
X190055495Y-89746594D02*
X190123335Y-89742028D01*
X92060332Y-99514668D02*
X92031355Y-99572408D01*
X167537520Y-61184888D02*
X167472456Y-61171594D01*
X82140303Y-46286649D02*
X82161741Y-46224950D01*
X203618727Y-103309873D02*
X203623335Y-103242032D01*
X229748823Y-142377164D02*
X229712904Y-142323987D01*
X167599226Y-61206323D02*
X167537520Y-61184888D01*
X92096251Y-99461492D02*
X92060332Y-99514668D01*
X203605421Y-103374944D02*
X203618727Y-103309873D01*
X82111326Y-46344388D02*
X82140303Y-46286649D01*
X167656965Y-61235295D02*
X167599226Y-61206323D01*
X229777785Y-142434903D02*
X229748823Y-142377164D01*
X203583998Y-103436650D02*
X203605421Y-103374944D01*
X92138518Y-99413472D02*
X92096251Y-99461492D01*
X167710127Y-61271214D02*
X167656965Y-61235295D01*
X82075407Y-46397565D02*
X82111326Y-46344388D01*
X203555037Y-103494390D02*
X203583998Y-103436650D01*
X229799208Y-142496610D02*
X229777785Y-142434903D01*
X167758131Y-61313478D02*
X167710127Y-61271214D01*
X92186537Y-99371205D02*
X92138518Y-99413472D01*
X203519118Y-103547566D02*
X203555037Y-103494390D01*
X82033140Y-46445580D02*
X82075407Y-46397565D01*
X167800398Y-61361493D02*
X167758131Y-61313478D01*
X229812514Y-142561681D02*
X229799208Y-142496610D01*
X203476851Y-103595586D02*
X203519118Y-103547566D01*
X92239714Y-99335286D02*
X92186537Y-99371205D01*
X167836317Y-61414670D02*
X167800398Y-61361493D01*
X81985121Y-46487844D02*
X82033140Y-46445580D01*
X203428847Y-103637853D02*
X203476851Y-103595586D01*
X229812514Y-142561681D02*
X229817091Y-142629529D01*
X167865278Y-61472409D02*
X167836317Y-61414670D01*
X92297453Y-99306317D02*
X92239714Y-99335286D01*
X203375685Y-103673772D02*
X203428847Y-103637853D01*
X81931944Y-46523763D02*
X81985121Y-46487844D01*
X167886702Y-61534108D02*
X167865278Y-61472409D01*
X215821699Y-142561688D02*
X215817091Y-142629529D01*
X203317946Y-103702741D02*
X203375685Y-103673772D01*
X92359160Y-99284886D02*
X92297453Y-99306317D01*
X167900007Y-61599183D02*
X167886702Y-61534108D01*
X81874205Y-46552735D02*
X81931944Y-46523763D01*
X203256239Y-103724172D02*
X203317946Y-103702741D01*
X215835005Y-142496617D02*
X215821699Y-142561688D01*
X167900007Y-61599183D02*
X167904585Y-61667027D01*
X92424238Y-99271588D02*
X92359160Y-99284886D01*
X203191176Y-103737470D02*
X203256239Y-103724172D01*
X81812498Y-46574170D02*
X81874205Y-46552735D01*
X153909193Y-61599183D02*
X153904585Y-61667027D01*
X215856428Y-142434911D02*
X215835005Y-142496617D01*
X203138197Y-103741033D02*
X203191176Y-103737470D01*
X92424238Y-99271588D02*
X92492079Y-99267026D01*
X203129317Y-103741628D02*
X203138197Y-103741033D01*
X203129317Y-103741628D02*
X203123335Y-103742032D01*
X81747420Y-46587464D02*
X81812498Y-46574170D01*
X153922499Y-61534108D02*
X153909193Y-61599183D01*
X215885390Y-142377172D02*
X215856428Y-142434911D01*
X203191206Y-89746594D02*
X203176344Y-89745595D01*
X86937529Y-112834867D02*
X86942076Y-112767026D01*
X203155012Y-89744161D02*
X203176344Y-89745595D01*
X203155012Y-89744161D02*
X203123335Y-89742028D01*
X81747420Y-46587464D02*
X81679579Y-46592031D01*
X153943922Y-61472409D02*
X153922499Y-61534108D01*
X215921309Y-142323995D02*
X215885390Y-142377172D01*
X203256270Y-89759889D02*
X203191206Y-89746594D01*
X86924238Y-112899938D02*
X86937529Y-112834867D01*
X153972883Y-61414670D02*
X153943922Y-61472409D01*
X68611754Y-46587464D02*
X68679579Y-46592031D01*
X203317976Y-89781320D02*
X203256270Y-89759889D01*
X215963576Y-142275975D02*
X215921309Y-142323995D01*
X154008803Y-61361493D02*
X153972883Y-61414670D01*
X86902800Y-112961644D02*
X86924238Y-112899938D01*
X203375715Y-89810292D02*
X203317976Y-89781320D01*
X68546675Y-46574170D02*
X68611754Y-46587464D01*
X154051069Y-61313478D02*
X154008803Y-61361493D01*
X216011580Y-142233708D02*
X215963576Y-142275975D01*
X203428877Y-89846208D02*
X203375715Y-89810292D01*
X86873823Y-113019383D02*
X86902800Y-112961644D01*
X154099074Y-61271214D02*
X154051069Y-61313478D01*
X68484968Y-46552735D02*
X68546675Y-46574170D01*
X203476881Y-89888474D02*
X203428877Y-89846208D01*
X216064741Y-142197789D02*
X216011580Y-142233708D01*
X154152235Y-61235295D02*
X154099074Y-61271214D01*
X86837904Y-113072560D02*
X86873823Y-113019383D01*
X203519148Y-89936494D02*
X203476881Y-89888474D01*
X68427229Y-46523763D02*
X68484968Y-46552735D01*
X154209975Y-61206323D02*
X154152235Y-61235295D01*
X216122481Y-142168820D02*
X216064741Y-142197789D01*
X203555067Y-89989671D02*
X203519148Y-89936494D01*
X86795637Y-113120580D02*
X86837904Y-113072560D01*
X154271681Y-61184888D02*
X154209975Y-61206323D01*
X68374052Y-46487844D02*
X68427229Y-46523763D01*
X203584028Y-90047406D02*
X203555067Y-89989671D01*
X216184187Y-142147389D02*
X216122481Y-142168820D01*
X154336745Y-61171594D02*
X154271681Y-61184888D01*
X86747618Y-113162847D02*
X86795637Y-113120580D01*
X203605452Y-90109109D02*
X203584028Y-90047406D01*
X68326033Y-46445580D02*
X68374052Y-46487844D01*
X154336745Y-61171594D02*
X154404585Y-61167027D01*
X216249251Y-142134091D02*
X216184187Y-142147389D01*
X203618757Y-90174180D02*
X203605452Y-90109109D01*
X86694441Y-113198766D02*
X86747618Y-113162847D01*
X148849959Y-74734876D02*
X148854567Y-74667027D01*
X68283766Y-46397565D02*
X68326033Y-46445580D01*
X203618757Y-90174180D02*
X203623335Y-90242028D01*
X216249251Y-142134091D02*
X216317091Y-142129529D01*
X148836653Y-74799947D02*
X148849959Y-74734876D01*
X86636702Y-113227735D02*
X86694441Y-113198766D01*
X177424971Y-93784879D02*
X177429579Y-93717031D01*
X68247847Y-46344388D02*
X68283766Y-46397565D01*
X148815230Y-74861650D02*
X148836653Y-74799947D01*
X210762465Y-155697370D02*
X210767073Y-155629529D01*
X177411665Y-93849950D02*
X177424971Y-93784879D01*
X86574995Y-113249166D02*
X86636702Y-113227735D01*
X148786268Y-74919385D02*
X148815230Y-74861650D01*
X68218870Y-46286649D02*
X68247847Y-46344388D01*
X177390242Y-93911653D02*
X177411665Y-93849950D01*
X210749159Y-155762441D02*
X210762465Y-155697370D01*
X148750349Y-74972562D02*
X148786268Y-74919385D01*
X86509917Y-113262464D02*
X86574995Y-113249166D01*
X177361281Y-93969388D02*
X177390242Y-93911653D01*
X68197432Y-46224950D02*
X68218870Y-46286649D01*
X148708082Y-75020581D02*
X148750349Y-74972562D01*
X210727736Y-155824147D02*
X210749159Y-155762441D01*
X177325361Y-94022565D02*
X177361281Y-93969388D01*
X86509917Y-113262464D02*
X86442076Y-113267026D01*
X148660078Y-75062848D02*
X148708082Y-75020581D01*
X68184141Y-46159875D02*
X68197432Y-46224950D01*
X177283095Y-94070584D02*
X177325361Y-94022565D01*
X210698775Y-155881886D02*
X210727736Y-155824147D01*
X148606917Y-75098763D02*
X148660078Y-75062848D01*
X73374251Y-113262471D02*
X73442076Y-113267026D01*
X177235090Y-94112851D02*
X177283095Y-94070584D01*
X68184141Y-46159875D02*
X68179579Y-46092031D01*
X148549177Y-75127736D02*
X148606917Y-75098763D01*
X210662855Y-155935063D02*
X210698775Y-155881886D01*
X177181929Y-94148770D02*
X177235090Y-94112851D01*
X73309172Y-113249173D02*
X73374251Y-113262471D01*
X148487471Y-75149167D02*
X148549177Y-75127736D01*
X81747404Y-32596593D02*
X81679579Y-32592031D01*
X177124190Y-94177739D02*
X177181929Y-94148770D01*
X210620589Y-155983083D02*
X210662855Y-155935063D01*
X229812483Y-136647367D02*
X229817091Y-136579526D01*
X73247465Y-113227742D02*
X73309172Y-113249173D01*
X148422407Y-75162461D02*
X148487471Y-75149167D01*
X81812483Y-32609891D02*
X81747404Y-32596593D01*
X177062483Y-94199170D02*
X177124190Y-94177739D01*
X210572584Y-156025350D02*
X210620589Y-155983083D01*
X229799177Y-136712438D02*
X229812483Y-136647367D01*
X73189726Y-113198773D02*
X73247465Y-113227742D01*
X148422407Y-75162461D02*
X148354567Y-75167027D01*
X81874190Y-32631322D02*
X81812483Y-32609891D01*
X176997420Y-94212468D02*
X177062483Y-94199170D01*
X210519423Y-156061269D02*
X210572584Y-156025350D01*
X229777754Y-136774144D02*
X229799177Y-136712438D01*
X73136549Y-113162854D02*
X73189726Y-113198773D01*
X135286757Y-75162461D02*
X135354582Y-75167027D01*
X81931929Y-32660291D02*
X81874190Y-32631322D01*
X176997420Y-94212468D02*
X176929579Y-94217031D01*
X210461683Y-156090238D02*
X210519423Y-156061269D01*
X229748793Y-136831883D02*
X229777754Y-136774144D01*
X73088530Y-113120587D02*
X73136549Y-113162854D01*
X135221678Y-75149167D02*
X135286757Y-75162461D01*
X81985106Y-32696210D02*
X81931929Y-32660291D01*
X163861708Y-94212468D02*
X163929579Y-94217031D01*
X210399977Y-156111669D02*
X210461683Y-156090238D01*
X229712874Y-136885060D02*
X229748793Y-136831883D01*
X73046263Y-113072568D02*
X73088530Y-113120587D01*
X135159971Y-75127736D02*
X135221678Y-75149167D01*
X82033125Y-32738477D02*
X81985106Y-32696210D01*
X163796644Y-94199170D02*
X163861708Y-94212468D01*
X210334913Y-156124967D02*
X210399977Y-156111669D01*
X229670607Y-136933080D02*
X229712874Y-136885060D01*
X73010344Y-113019391D02*
X73046263Y-113072568D01*
X135102232Y-75098763D02*
X135159971Y-75127736D01*
X82075392Y-32786496D02*
X82033125Y-32738477D01*
X163734938Y-94177739D02*
X163796644Y-94199170D01*
X210334913Y-156124967D02*
X210267073Y-156129529D01*
X229622603Y-136975347D02*
X229670607Y-136933080D01*
X72981367Y-112961652D02*
X73010344Y-113019391D01*
X135049055Y-75062848D02*
X135102232Y-75098763D01*
X82111311Y-32839673D02*
X82075392Y-32786496D01*
X163677199Y-94148770D02*
X163734938Y-94177739D01*
X197199202Y-156124974D02*
X197267073Y-156129529D01*
X229569441Y-137011266D02*
X229622603Y-136975347D01*
X72959929Y-112899945D02*
X72981367Y-112961652D01*
X135001036Y-75020581D02*
X135049055Y-75062848D01*
X82140288Y-32897405D02*
X82111311Y-32839673D01*
X163624037Y-94112851D02*
X163677199Y-94148770D01*
X197134138Y-156111676D02*
X197199202Y-156124974D01*
X229511702Y-137040235D02*
X229569441Y-137011266D01*
X72946638Y-112834874D02*
X72959929Y-112899945D01*
X134958769Y-74972562D02*
X135001036Y-75020581D01*
X82161726Y-32959111D02*
X82140288Y-32897405D01*
X163576033Y-94070584D02*
X163624037Y-94112851D01*
X197072432Y-156090245D02*
X197134138Y-156111676D01*
X229449995Y-137061666D02*
X229511702Y-137040235D01*
X72946638Y-112834874D02*
X72942076Y-112767026D01*
X134922850Y-74919385D02*
X134958769Y-74972562D01*
X82175017Y-33024182D02*
X82161726Y-32959111D01*
X163533766Y-94022565D02*
X163576033Y-94070584D01*
X197014693Y-156061276D02*
X197072432Y-156090245D01*
X229384932Y-137074964D02*
X229449995Y-137061666D01*
X86509901Y-99271581D02*
X86442076Y-99267026D01*
X134893873Y-74861650D02*
X134922850Y-74919385D01*
X82175017Y-33024182D02*
X82179579Y-33092031D01*
X163497847Y-93969388D02*
X163533766Y-94022565D01*
X196961531Y-156025357D02*
X197014693Y-156061276D01*
X229384932Y-137074964D02*
X229317091Y-137079526D01*
X86574980Y-99284879D02*
X86509901Y-99271581D01*
X134872435Y-74799947D02*
X134893873Y-74861650D01*
X68184126Y-33024182D02*
X68179579Y-33092031D01*
X163468886Y-93911653D02*
X163497847Y-93969388D01*
X196913527Y-155983090D02*
X196961531Y-156025357D01*
X216249220Y-137074971D02*
X216317091Y-137079526D01*
X86636687Y-99306310D02*
X86574980Y-99284879D01*
X134859144Y-74734876D02*
X134872435Y-74799947D01*
X68197417Y-32959111D02*
X68184126Y-33024182D01*
X163447462Y-93849950D02*
X163468886Y-93911653D01*
X196871260Y-155935071D02*
X196913527Y-155983090D01*
X216184157Y-137061673D02*
X216249220Y-137074971D01*
X86694426Y-99335279D02*
X86636687Y-99306310D01*
X134859144Y-74734876D02*
X134854582Y-74667027D01*
X68218855Y-32897405D02*
X68197417Y-32959111D01*
X163434157Y-93784879D02*
X163447462Y-93849950D01*
X196835341Y-155881894D02*
X196871260Y-155935071D01*
X216122450Y-137040242D02*
X216184157Y-137061673D01*
X86747603Y-99371198D02*
X86694426Y-99335279D01*
X148422438Y-61171594D02*
X148354567Y-61167027D01*
X68247832Y-32839673D02*
X68218855Y-32897405D01*
X163434157Y-93784879D02*
X163429579Y-93717031D01*
X196806380Y-155824155D02*
X196835341Y-155881894D01*
X216064711Y-137011273D02*
X216122450Y-137040242D01*
X86795622Y-99413465D02*
X86747603Y-99371198D01*
X148487501Y-61184888D02*
X148422438Y-61171594D01*
X68283751Y-32786496D02*
X68247832Y-32839673D01*
X176997450Y-80221597D02*
X176982588Y-80220597D01*
X196784956Y-155762448D02*
X196806380Y-155824155D01*
X176929579Y-80217031D02*
X176982588Y-80220597D01*
X86837889Y-99461484D02*
X86795622Y-99413465D01*
X216011549Y-136975354D02*
X216064711Y-137011273D01*
X68326018Y-32738477D02*
X68283751Y-32786496D01*
X148549208Y-61206323D02*
X148487501Y-61184888D01*
X196771651Y-155697377D02*
X196784956Y-155762448D01*
X177062514Y-80234891D02*
X176997450Y-80221597D01*
X86873808Y-99514661D02*
X86837889Y-99461484D01*
X215963545Y-136933087D02*
X216011549Y-136975354D01*
X68374037Y-32696210D02*
X68326018Y-32738477D01*
X148606947Y-61235295D02*
X148549208Y-61206323D01*
X196771651Y-155697377D02*
X196767073Y-155629529D01*
X177124220Y-80256322D02*
X177062514Y-80234891D01*
X86902785Y-99572400D02*
X86873808Y-99514661D01*
X215921278Y-136885068D02*
X215963545Y-136933087D01*
X68427214Y-32660291D02*
X68374037Y-32696210D01*
X148660109Y-61271214D02*
X148606947Y-61235295D01*
X210334944Y-142134084D02*
X210267073Y-142129529D01*
X177181959Y-80285295D02*
X177124220Y-80256322D01*
X86924223Y-99634107D02*
X86902785Y-99572400D01*
X215885359Y-136831891D02*
X215921278Y-136885068D01*
X68484953Y-32631322D02*
X68427214Y-32660291D01*
X148708113Y-61313478D02*
X148660109Y-61271214D01*
X210400007Y-142147382D02*
X210334944Y-142134084D01*
X177235121Y-80321210D02*
X177181959Y-80285295D01*
X86937514Y-99699178D02*
X86924223Y-99634107D01*
X215856398Y-136774152D02*
X215885359Y-136831891D01*
X68546660Y-32609891D02*
X68484953Y-32631322D01*
X148750380Y-61361493D02*
X148708113Y-61313478D01*
X210461714Y-142168813D02*
X210400007Y-142147382D01*
X177283125Y-80363477D02*
X177235121Y-80321210D01*
X86937514Y-99699178D02*
X86942076Y-99767026D01*
X215834975Y-136712445D02*
X215856398Y-136774152D01*
X68611738Y-32596593D02*
X68546660Y-32609891D01*
X148786299Y-61414670D02*
X148750380Y-61361493D01*
X210519453Y-142197782D02*
X210461714Y-142168813D01*
X177325392Y-80411496D02*
X177283125Y-80363477D01*
X72946623Y-99699185D02*
X72942076Y-99767026D01*
X215821669Y-136647374D02*
X215834975Y-136712445D01*
X68611738Y-32596593D02*
X68679579Y-32592031D01*
X148815260Y-61472409D02*
X148786299Y-61414670D01*
X210572615Y-142233701D02*
X210519453Y-142197782D01*
X177361311Y-80464673D02*
X177325392Y-80411496D01*
X72959913Y-99634114D02*
X72946623Y-99699185D01*
X215821669Y-136647374D02*
X215817091Y-136579526D01*
X63125029Y-46159875D02*
X63129576Y-46092031D01*
X148836683Y-61534108D02*
X148815260Y-61472409D01*
X210620619Y-142275968D02*
X210572615Y-142233701D01*
X177390272Y-80522408D02*
X177361311Y-80464673D01*
X72981352Y-99572408D02*
X72959913Y-99634114D01*
X229384962Y-123084081D02*
X229317091Y-123079526D01*
X63111738Y-46224950D02*
X63125029Y-46159875D01*
X148849989Y-61599183D02*
X148836683Y-61534108D01*
X210662886Y-142323987D02*
X210620619Y-142275968D01*
X177411696Y-80584111D02*
X177390272Y-80522408D01*
X73010329Y-99514668D02*
X72981352Y-99572408D01*
X229450026Y-123097379D02*
X229384962Y-123084081D01*
X63090300Y-46286649D02*
X63111738Y-46224950D01*
X148849989Y-61599183D02*
X148854567Y-61667027D01*
X210698805Y-142377164D02*
X210662886Y-142323987D01*
X177425001Y-80649182D02*
X177411696Y-80584111D01*
X73046248Y-99461492D02*
X73010329Y-99514668D01*
X229511732Y-123118810D02*
X229450026Y-123097379D01*
X63061323Y-46344388D02*
X63090300Y-46286649D01*
X134859129Y-61599183D02*
X134854582Y-61667027D01*
X210727766Y-142434903D02*
X210698805Y-142377164D01*
X177425001Y-80649182D02*
X177429579Y-80717031D01*
X73088515Y-99413472D02*
X73046248Y-99461492D01*
X229569472Y-123147779D02*
X229511732Y-123118810D01*
X63025404Y-46397565D02*
X63061323Y-46344388D01*
X134872420Y-61534108D02*
X134859129Y-61599183D01*
X210749190Y-142496610D02*
X210727766Y-142434903D01*
X163434187Y-80649182D02*
X163429579Y-80717031D01*
X73136534Y-99371205D02*
X73088515Y-99413472D01*
X229622633Y-123183698D02*
X229569472Y-123147779D01*
X62983137Y-46445580D02*
X63025404Y-46397565D01*
X134893858Y-61472409D02*
X134872420Y-61534108D01*
X210762495Y-142561681D02*
X210749190Y-142496610D01*
X163447493Y-80584111D02*
X163434187Y-80649182D01*
X73189711Y-99335286D02*
X73136534Y-99371205D01*
X229670637Y-123225965D02*
X229622633Y-123183698D01*
X62935118Y-46487844D02*
X62983137Y-46445580D01*
X134922835Y-61414670D02*
X134893858Y-61472409D01*
X210762495Y-142561681D02*
X210767073Y-142629529D01*
X163468916Y-80522408D02*
X163447493Y-80584111D01*
X73247450Y-99306317D02*
X73189711Y-99335286D01*
X229712904Y-123273984D02*
X229670637Y-123225965D01*
X62881941Y-46523763D02*
X62935118Y-46487844D01*
X134958754Y-61361493D02*
X134922835Y-61414670D01*
X196771681Y-142561688D02*
X196767073Y-142629529D01*
X163497877Y-80464673D02*
X163468916Y-80522408D01*
X73309157Y-99284886D02*
X73247450Y-99306317D01*
X229748823Y-123327161D02*
X229712904Y-123273984D01*
X62824202Y-46552735D02*
X62881941Y-46523763D01*
X135001021Y-61313478D02*
X134958754Y-61361493D01*
X196784987Y-142496617D02*
X196771681Y-142561688D01*
X163533797Y-80411496D02*
X163497877Y-80464673D01*
X73374235Y-99271588D02*
X73309157Y-99284886D01*
X229777785Y-123384900D02*
X229748823Y-123327161D01*
X62762495Y-46574170D02*
X62824202Y-46552735D01*
X135049040Y-61271214D02*
X135001021Y-61313478D01*
X196806410Y-142434911D02*
X196784987Y-142496617D01*
X163576063Y-80363477D02*
X163533797Y-80411496D01*
X73374235Y-99271588D02*
X73442076Y-99267026D01*
X229799208Y-123446607D02*
X229777785Y-123384900D01*
X62697417Y-46587464D02*
X62762495Y-46574170D01*
X135102217Y-61235295D02*
X135049040Y-61271214D01*
X196835371Y-142377172D02*
X196806410Y-142434911D01*
X163624068Y-80321210D02*
X163576063Y-80363477D01*
X67887526Y-112834867D02*
X67892073Y-112767026D01*
X229812514Y-123511678D02*
X229799208Y-123446607D01*
X62697417Y-46587464D02*
X62629576Y-46592031D01*
X135159956Y-61206323D02*
X135102217Y-61235295D01*
X196871290Y-142323995D02*
X196835371Y-142377172D01*
X163677229Y-80285295D02*
X163624068Y-80321210D01*
X67874235Y-112899938D02*
X67887526Y-112834867D01*
X229812514Y-123511678D02*
X229817091Y-123579526D01*
X49561751Y-46587464D02*
X49629576Y-46592031D01*
X135221663Y-61184888D02*
X135159956Y-61206323D01*
X196913557Y-142275975D02*
X196871290Y-142323995D01*
X163734968Y-80256322D02*
X163677229Y-80285295D01*
X67852797Y-112961644D02*
X67874235Y-112899938D01*
X215821699Y-123511685D02*
X215817091Y-123579526D01*
X49496672Y-46574170D02*
X49561751Y-46587464D01*
X135286741Y-61171594D02*
X135221663Y-61184888D01*
X196961561Y-142233708D02*
X196913557Y-142275975D01*
X163796675Y-80234891D02*
X163734968Y-80256322D01*
X67823820Y-113019383D02*
X67852797Y-112961644D01*
X215835005Y-123446614D02*
X215821699Y-123511685D01*
X49434965Y-46552735D02*
X49496672Y-46574170D01*
X135286741Y-61171594D02*
X135354582Y-61167027D01*
X197014723Y-142197789D02*
X196961561Y-142233708D01*
X163861738Y-80221597D02*
X163796675Y-80234891D01*
X67787901Y-113072560D02*
X67823820Y-113019383D01*
X215856428Y-123384908D02*
X215835005Y-123446614D01*
X49377226Y-46523763D02*
X49434965Y-46552735D01*
X129800032Y-74734876D02*
X129804579Y-74667027D01*
X197072462Y-142168820D02*
X197014723Y-142197789D01*
X163861738Y-80221597D02*
X163929579Y-80217031D01*
X67745634Y-113120580D02*
X67787901Y-113072560D01*
X215885390Y-123327168D02*
X215856428Y-123384908D01*
X49324049Y-46487844D02*
X49377226Y-46523763D01*
X129786741Y-74799947D02*
X129800032Y-74734876D01*
X197134169Y-142147389D02*
X197072462Y-142168820D01*
X158374983Y-93784879D02*
X158379591Y-93717031D01*
X67697615Y-113162847D02*
X67745634Y-113120580D01*
X215921309Y-123273992D02*
X215885390Y-123327168D01*
X49276030Y-46445580D02*
X49324049Y-46487844D01*
X129765303Y-74861650D02*
X129786741Y-74799947D01*
X197199232Y-142134091D02*
X197134169Y-142147389D01*
X158361677Y-93849950D02*
X158374983Y-93784879D01*
X67644438Y-113198766D02*
X67697615Y-113162847D01*
X215963576Y-123225972D02*
X215921309Y-123273992D01*
X49233763Y-46397565D02*
X49276030Y-46445580D01*
X129736326Y-74919385D02*
X129765303Y-74861650D01*
X197252211Y-142130528D02*
X197267073Y-142129529D01*
X158340254Y-93911653D02*
X158361677Y-93849950D01*
X197199232Y-142134091D02*
X197252211Y-142130528D01*
X216011580Y-123183705D02*
X215963576Y-123225972D01*
X67586699Y-113227735D02*
X67644438Y-113198766D01*
X129700407Y-74972562D02*
X129736326Y-74919385D01*
X49197844Y-46344388D02*
X49233763Y-46397565D01*
X158311293Y-93969388D02*
X158340254Y-93911653D01*
X179806227Y-150934873D02*
X179810835Y-150867032D01*
X216064741Y-123147786D02*
X216011580Y-123183705D01*
X67524992Y-113249166D02*
X67586699Y-113227735D01*
X129658140Y-75020581D02*
X129700407Y-74972562D01*
X49168867Y-46286649D02*
X49197844Y-46344388D01*
X158275374Y-94022565D02*
X158311293Y-93969388D01*
X179792921Y-150999944D02*
X179806227Y-150934873D01*
X216122481Y-123118817D02*
X216064741Y-123147786D01*
X67459913Y-113262464D02*
X67524992Y-113249166D01*
X129610121Y-75062848D02*
X129658140Y-75020581D01*
X49147429Y-46224950D02*
X49168867Y-46286649D01*
X158233107Y-94070584D02*
X158275374Y-94022565D01*
X179771498Y-151061650D02*
X179792921Y-150999944D01*
X216184187Y-123097386D02*
X216122481Y-123118817D01*
X67459913Y-113262464D02*
X67392073Y-113267026D01*
X129556944Y-75098763D02*
X129610121Y-75062848D01*
X49134138Y-46159875D02*
X49147429Y-46224950D01*
X158185103Y-94112851D02*
X158233107Y-94070584D01*
X179742537Y-151119390D02*
X179771498Y-151061650D01*
X216249251Y-123084088D02*
X216184187Y-123097386D01*
X54324248Y-113262471D02*
X54392073Y-113267026D01*
X129499205Y-75127736D02*
X129556944Y-75098763D01*
X49134138Y-46159875D02*
X49129576Y-46092031D01*
X158131941Y-94148770D02*
X158185103Y-94112851D01*
X179706618Y-151172566D02*
X179742537Y-151119390D01*
X216249251Y-123084088D02*
X216317091Y-123079526D01*
X54259169Y-113249173D02*
X54324248Y-113262471D01*
X129437498Y-75149167D02*
X129499205Y-75127736D01*
X62697401Y-32596593D02*
X62629576Y-32592031D01*
X158074202Y-94177739D02*
X158131941Y-94148770D01*
X179664351Y-151220586D02*
X179706618Y-151172566D01*
X197769209Y-133884870D02*
X197773817Y-133817029D01*
X54197462Y-113227742D02*
X54259169Y-113249173D01*
X129372420Y-75162461D02*
X129437498Y-75149167D01*
X62762480Y-32609891D02*
X62697401Y-32596593D01*
X158012495Y-94199170D02*
X158074202Y-94177739D01*
X179616347Y-151262853D02*
X179664351Y-151220586D01*
X197755903Y-133949941D02*
X197769209Y-133884870D01*
X54139723Y-113198773D02*
X54197462Y-113227742D01*
X129372420Y-75162461D02*
X129304579Y-75167027D01*
X62824187Y-32631322D02*
X62762480Y-32609891D01*
X157947432Y-94212468D02*
X158012495Y-94199170D01*
X179563185Y-151298772D02*
X179616347Y-151262853D01*
X197734480Y-134011647D02*
X197755903Y-133949941D01*
X54086546Y-113162854D02*
X54139723Y-113198773D01*
X116236754Y-75162461D02*
X116304579Y-75167027D01*
X62881926Y-32660291D02*
X62824187Y-32631322D01*
X157947432Y-94212468D02*
X157879591Y-94217031D01*
X179505446Y-151327741D02*
X179563185Y-151298772D01*
X197705519Y-134069386D02*
X197734480Y-134011647D01*
X54038527Y-113120587D02*
X54086546Y-113162854D01*
X116171675Y-75149167D02*
X116236754Y-75162461D01*
X62935103Y-32696210D02*
X62881926Y-32660291D01*
X144811720Y-94212468D02*
X144879591Y-94217031D01*
X179443739Y-151349172D02*
X179505446Y-151327741D01*
X197669600Y-134122563D02*
X197705519Y-134069386D01*
X53996260Y-113072568D02*
X54038527Y-113120587D01*
X116109968Y-75127736D02*
X116171675Y-75149167D01*
X62983122Y-32738477D02*
X62935103Y-32696210D01*
X144746657Y-94199170D02*
X144811720Y-94212468D01*
X179378676Y-151362470D02*
X179443739Y-151349172D01*
X197627333Y-134170583D02*
X197669600Y-134122563D01*
X53960341Y-113019391D02*
X53996260Y-113072568D01*
X116052229Y-75098763D02*
X116109968Y-75127736D01*
X63025389Y-32786496D02*
X62983122Y-32738477D01*
X144684950Y-94177739D02*
X144746657Y-94199170D01*
X179378676Y-151362470D02*
X179310835Y-151367032D01*
X197579329Y-134212850D02*
X197627333Y-134170583D01*
X53931364Y-112961652D02*
X53960341Y-113019391D01*
X115999052Y-75062848D02*
X116052229Y-75098763D01*
X63061308Y-32839673D02*
X63025389Y-32786496D01*
X144627211Y-94148770D02*
X144684950Y-94177739D01*
X166242964Y-151362477D02*
X166310835Y-151367032D01*
X197526167Y-134248769D02*
X197579329Y-134212850D01*
X53909926Y-112899945D02*
X53931364Y-112961652D01*
X115951033Y-75020581D02*
X115999052Y-75062848D01*
X63090285Y-32897405D02*
X63061308Y-32839673D01*
X144574049Y-94112851D02*
X144627211Y-94148770D01*
X166177901Y-151349179D02*
X166242964Y-151362477D01*
X197468428Y-134277738D02*
X197526167Y-134248769D01*
X53896635Y-112834874D02*
X53909926Y-112899945D01*
X115908766Y-74972562D02*
X115951033Y-75020581D01*
X63111723Y-32959111D02*
X63090285Y-32897405D01*
X144526045Y-94070584D02*
X144574049Y-94112851D01*
X166116194Y-151327748D02*
X166177901Y-151349179D01*
X197406721Y-134299169D02*
X197468428Y-134277738D01*
X53896635Y-112834874D02*
X53892073Y-112767026D01*
X115872847Y-74919385D02*
X115908766Y-74972562D01*
X63125014Y-33024182D02*
X63111723Y-32959111D01*
X144483778Y-94022565D02*
X144526045Y-94070584D01*
X166058455Y-151298779D02*
X166116194Y-151327748D01*
X197341658Y-134312467D02*
X197406721Y-134299169D01*
X67459898Y-99271581D02*
X67392073Y-99267026D01*
X115843870Y-74861650D02*
X115872847Y-74919385D01*
X63125014Y-33024182D02*
X63129576Y-33092031D01*
X144447859Y-93969388D02*
X144483778Y-94022565D01*
X166005293Y-151262860D02*
X166058455Y-151298779D01*
X197288679Y-134316030D02*
X197341658Y-134312467D01*
X67524977Y-99284879D02*
X67459898Y-99271581D01*
X197288679Y-134316030D02*
X197273817Y-134317029D01*
X49134123Y-33024182D02*
X49129576Y-33092031D01*
X115822432Y-74799947D02*
X115843870Y-74861650D01*
X165957289Y-151220593D02*
X166005293Y-151262860D01*
X144418898Y-93911653D02*
X144447859Y-93969388D01*
X67586683Y-99306310D02*
X67524977Y-99284879D01*
X191205946Y-134312474D02*
X191273817Y-134317029D01*
X49147413Y-32959111D02*
X49134123Y-33024182D01*
X115809141Y-74734876D02*
X115822432Y-74799947D01*
X165915022Y-151172574D02*
X165957289Y-151220593D01*
X144397475Y-93849950D02*
X144418898Y-93911653D01*
X67644423Y-99335279D02*
X67586683Y-99306310D01*
X191140883Y-134299176D02*
X191205946Y-134312474D01*
X49168852Y-32897405D02*
X49147413Y-32959111D01*
X115809141Y-74734876D02*
X115804579Y-74667027D01*
X165879103Y-151119397D02*
X165915022Y-151172574D01*
X144384169Y-93784879D02*
X144397475Y-93849950D01*
X67697600Y-99371198D02*
X67644423Y-99335279D01*
X191079176Y-134277745D02*
X191140883Y-134299176D01*
X49197829Y-32839673D02*
X49168852Y-32897405D01*
X129372404Y-61171594D02*
X129304579Y-61167027D01*
X165850142Y-151061658D02*
X165879103Y-151119397D01*
X144384169Y-93784879D02*
X144379591Y-93717031D01*
X67745619Y-99413465D02*
X67697600Y-99371198D01*
X191021437Y-134248776D02*
X191079176Y-134277745D01*
X49233748Y-32786496D02*
X49197829Y-32839673D01*
X129437483Y-61184888D02*
X129372404Y-61171594D01*
X165828718Y-150999951D02*
X165850142Y-151061658D01*
X157947462Y-80221597D02*
X157879591Y-80217031D01*
X67787886Y-99461484D02*
X67745619Y-99413465D01*
X190968275Y-134212857D02*
X191021437Y-134248776D01*
X49276015Y-32738477D02*
X49233748Y-32786496D01*
X129499190Y-61206323D02*
X129437483Y-61184888D01*
X165815413Y-150934880D02*
X165828718Y-150999951D01*
X158012526Y-80234891D02*
X157947462Y-80221597D01*
X67823805Y-99514661D02*
X67787886Y-99461484D01*
X190920271Y-134170590D02*
X190968275Y-134212857D01*
X49324034Y-32696210D02*
X49276015Y-32738477D01*
X129556929Y-61235295D02*
X129499190Y-61206323D01*
X165815413Y-150934880D02*
X165810835Y-150867032D01*
X158074232Y-80256322D02*
X158012526Y-80234891D01*
X67852782Y-99572400D02*
X67823805Y-99514661D01*
X190878004Y-134122571D02*
X190920271Y-134170590D01*
X49377211Y-32660291D02*
X49324034Y-32696210D01*
X129610106Y-61271214D02*
X129556929Y-61235295D01*
X179378706Y-137371587D02*
X179310835Y-137367032D01*
X158131972Y-80285295D02*
X158074232Y-80256322D01*
X67874220Y-99634107D02*
X67852782Y-99572400D01*
X190842085Y-134069394D02*
X190878004Y-134122571D01*
X49434950Y-32631322D02*
X49377211Y-32660291D01*
X129658125Y-61313478D02*
X129610106Y-61271214D01*
X179443770Y-137384885D02*
X179378706Y-137371587D01*
X158185133Y-80321210D02*
X158131972Y-80285295D01*
X67887511Y-99699178D02*
X67874220Y-99634107D01*
X190813124Y-134011655D02*
X190842085Y-134069394D01*
X49496657Y-32609891D02*
X49434950Y-32631322D01*
X129700392Y-61361493D02*
X129658125Y-61313478D01*
X179505476Y-137406316D02*
X179443770Y-137384885D01*
X158233137Y-80363477D02*
X158185133Y-80321210D01*
X67887511Y-99699178D02*
X67892073Y-99767026D01*
X190791701Y-133949948D02*
X190813124Y-134011655D01*
X49561735Y-32596593D02*
X49496657Y-32609891D01*
X129736311Y-61414670D02*
X129700392Y-61361493D01*
X179563215Y-137435285D02*
X179505476Y-137406316D01*
X158275404Y-80411496D02*
X158233137Y-80363477D01*
X53896620Y-99699185D02*
X53892073Y-99767026D01*
X190778395Y-133884877D02*
X190791701Y-133949948D01*
X49561735Y-32596593D02*
X49629576Y-32592031D01*
X129765288Y-61472409D02*
X129736311Y-61414670D01*
X179616377Y-137471204D02*
X179563215Y-137435285D01*
X158311323Y-80464673D02*
X158275404Y-80411496D01*
X53909910Y-99634114D02*
X53896620Y-99699185D01*
X190778395Y-133884877D02*
X190773817Y-133817029D01*
X179664381Y-137513471D02*
X179616377Y-137471204D01*
X129786726Y-61534108D02*
X129765288Y-61472409D01*
X53931349Y-99572408D02*
X53909910Y-99634114D01*
X158340285Y-80522408D02*
X158311323Y-80464673D01*
X179706648Y-137561490D02*
X179664381Y-137513471D01*
X197341688Y-119321584D02*
X197273817Y-119317029D01*
X53960325Y-99514668D02*
X53931349Y-99572408D01*
X129800017Y-61599183D02*
X129786726Y-61534108D01*
X179742567Y-137614667D02*
X179706648Y-137561490D01*
X158361708Y-80584111D02*
X158340285Y-80522408D01*
X53996245Y-99461492D02*
X53960325Y-99514668D01*
X197406752Y-119334882D02*
X197341688Y-119321584D01*
X179771528Y-137672406D02*
X179742567Y-137614667D01*
X129800017Y-61599183D02*
X129804579Y-61667027D01*
X54038511Y-99413472D02*
X53996245Y-99461492D01*
X158375014Y-80649182D02*
X158361708Y-80584111D01*
X179792952Y-137734113D02*
X179771528Y-137672406D01*
X197468458Y-119356313D02*
X197406752Y-119334882D01*
X54086531Y-99371205D02*
X54038511Y-99413472D01*
X115809126Y-61599183D02*
X115804579Y-61667027D01*
X179806257Y-137799184D02*
X179792952Y-137734113D01*
X158375014Y-80649182D02*
X158379591Y-80717031D01*
X54139708Y-99335286D02*
X54086531Y-99371205D01*
X197526198Y-119385282D02*
X197468458Y-119356313D01*
X179806257Y-137799184D02*
X179810835Y-137867032D01*
X115822417Y-61534108D02*
X115809126Y-61599183D01*
X54197447Y-99306317D02*
X54139708Y-99335286D01*
X144384199Y-80649182D02*
X144379591Y-80717031D01*
X165815443Y-137799191D02*
X165810835Y-137867032D01*
X197579359Y-119421201D02*
X197526198Y-119385282D01*
X54259154Y-99284886D02*
X54197447Y-99306317D01*
X115843855Y-61472409D02*
X115822417Y-61534108D01*
X165828749Y-137734120D02*
X165815443Y-137799191D01*
X144397505Y-80584111D02*
X144384199Y-80649182D01*
X54324232Y-99271588D02*
X54259154Y-99284886D01*
X197627363Y-119463468D02*
X197579359Y-119421201D01*
X165850172Y-137672414D02*
X165828749Y-137734120D01*
X115872832Y-61414670D02*
X115843855Y-61472409D01*
X54324232Y-99271588D02*
X54392073Y-99267026D01*
X144418928Y-80522408D02*
X144397505Y-80584111D01*
X165879133Y-137614675D02*
X165850172Y-137672414D01*
X197669630Y-119511487D02*
X197627363Y-119463468D01*
X165915053Y-137561498D02*
X165879133Y-137614675D01*
X115908751Y-61361493D02*
X115872832Y-61414670D01*
X165957319Y-137513478D02*
X165915053Y-137561498D01*
X144447890Y-80464673D02*
X144418928Y-80522408D01*
X166005324Y-137471211D02*
X165957319Y-137513478D01*
X197705549Y-119564664D02*
X197669630Y-119511487D01*
X166058485Y-137435292D02*
X166005324Y-137471211D01*
X115951018Y-61313478D02*
X115908751Y-61361493D01*
X166116225Y-137406323D02*
X166058485Y-137435292D01*
X144483809Y-80411496D02*
X144447890Y-80464673D01*
X166177931Y-137384892D02*
X166116225Y-137406323D01*
X197734511Y-119622403D02*
X197705549Y-119564664D01*
X166242995Y-137371594D02*
X166177931Y-137384892D01*
X115951018Y-61313478D02*
X115999037Y-61271214D01*
X166242995Y-137371594D02*
X166310835Y-137367032D01*
X144483809Y-80411496D02*
X144526076Y-80363477D01*
X155993727Y-150934873D02*
X155998335Y-150867032D01*
X197734511Y-119622403D02*
X197755934Y-119684110D01*
X155993727Y-150934873D02*
X155980421Y-150999944D01*
M02*
