M48
; DRILL file {KiCad 7.0.9-1.fc39} date ti  2. tammikuuta 2024 19.26.52
; FORMAT={-:-/ absolute / metric / decimal}
; #@! TF.CreationDate,2024-01-02T19:26:52+02:00
; #@! TF.GenerationSoftware,Kicad,Pcbnew,7.0.9-1.fc39
; #@! TF.FileFunction,NonPlated,1,2,NPTH
FMAT,2
METRIC
; #@! TA.AperFunction,NonPlated,NPTH,ComponentDrill
T1C0.800
; #@! TA.AperFunction,NonPlated,NPTH,ComponentDrill
T2C1.750
; #@! TA.AperFunction,NonPlated,NPTH,ComponentDrill
T3C3.048
; #@! TA.AperFunction,NonPlated,NPTH,ComponentDrill
T4C3.200
; #@! TA.AperFunction,NonPlated,NPTH,ComponentDrill
T5C3.988
%
G90
G05
T1
X53.131Y-4.731
X58.081Y-9.681
T2
X46.117Y-119.063
X50.88Y-33.338
X50.88Y-80.963
X55.642Y-100.013
X56.277Y-119.063
X60.405Y-61.913
X61.04Y-33.338
X61.04Y-80.963
X65.167Y-119.063
X65.802Y-100.013
X69.93Y-33.338
X69.93Y-80.963
X70.565Y-61.913
X74.692Y-100.013
X75.327Y-119.063
X79.455Y-61.912
X80.09Y-33.338
X80.09Y-80.963
X81.836Y-138.113
X84.217Y-119.063
X84.852Y-100.013
X88.98Y-33.338
X88.98Y-80.963
X89.615Y-61.912
X91.996Y-138.113
X93.742Y-100.013
X94.377Y-119.063
X98.505Y-61.913
X99.14Y-33.338
X99.14Y-80.963
X103.267Y-119.063
X103.902Y-100.013
X108.027Y-80.961
X108.03Y-33.338
X108.665Y-61.913
X112.792Y-100.013
X113.427Y-119.063
X117.555Y-61.913
X118.187Y-80.961
X118.19Y-33.338
X119.936Y-138.113
X122.317Y-119.063
X122.952Y-100.013
X127.08Y-80.963
X127.715Y-61.913
X130.096Y-138.113
X131.842Y-100.013
X132.477Y-119.063
X136.605Y-33.338
X136.605Y-61.913
X137.24Y-80.963
X141.367Y-119.063
X142.002Y-100.013
X143.749Y-138.113
X146.13Y-80.963
X146.765Y-33.338
X146.765Y-61.913
X150.893Y-100.013
X151.527Y-119.063
X153.909Y-138.113
X155.655Y-33.338
X155.655Y-61.913
X156.29Y-80.963
X161.053Y-100.013
X165.18Y-80.963
X165.815Y-33.338
X165.815Y-61.913
X167.561Y-138.113
X169.943Y-100.013
X174.705Y-33.338
X175.34Y-80.963
X177.086Y-119.063
X177.721Y-138.113
X180.103Y-100.013
X184.23Y-61.913
X184.865Y-33.338
X187.246Y-119.063
X193.755Y-33.338
X194.39Y-61.913
X196.454Y-85.408
X196.454Y-95.568
X198.518Y-142.876
X203.915Y-33.338
X208.678Y-142.876
X217.551Y-80.963
X217.568Y-33.338
X217.568Y-61.913
X217.568Y-123.826
X217.568Y-142.876
X227.711Y-80.963
X227.728Y-33.338
X227.728Y-61.913
X227.728Y-123.826
X227.728Y-142.876
X236.612Y-33.337
X236.612Y-142.872
X236.618Y-61.913
X236.618Y-80.963
X246.772Y-33.337
X246.772Y-142.872
X246.778Y-61.913
X246.778Y-80.963
T3
X75.01Y-131.128
X98.822Y-131.128
X170.26Y-112.078
X177.404Y-54.928
X194.073Y-112.078
X201.216Y-54.928
X203.439Y-78.55
X203.439Y-102.426
T4
X44.5Y-12.7
X44.7Y-96.0
X44.8Y-56.975
X45.5Y-151.0
X64.8Y-15.9
X82.9Y20.0
X117.575Y-15.2
X143.3Y-151.5
X153.6Y-47.2
X216.0Y-103.0
X254.9Y-20.6
X255.0Y-151.0
T5
X51.197Y-119.063
X55.96Y-33.338
X55.96Y-80.963
X60.722Y-100.013
X65.485Y-61.913
X70.247Y-119.063
X75.01Y-33.338
X75.01Y-80.963
X75.01Y-146.368
X79.772Y-100.013
X84.535Y-61.912
X86.916Y-138.113
X89.297Y-119.063
X94.06Y-33.338
X94.06Y-80.963
X98.822Y-146.368
X98.822Y-100.013
X103.585Y-61.913
X108.347Y-119.063
X113.107Y-80.961
X113.11Y-33.338
X117.872Y-100.013
X122.635Y-61.913
X125.016Y-138.113
X127.397Y-119.063
X132.16Y-80.963
X136.922Y-100.013
X141.685Y-33.338
X141.685Y-61.913
X146.447Y-119.063
X148.829Y-138.113
X151.21Y-80.963
X155.973Y-100.013
X160.735Y-33.338
X160.735Y-61.913
X170.26Y-80.963
X170.26Y-127.318
X172.641Y-138.113
X175.023Y-100.013
X177.404Y-70.168
X179.785Y-33.338
X182.166Y-119.063
X188.199Y-78.55
X188.199Y-102.426
X189.31Y-61.913
X194.073Y-127.318
X196.454Y-90.488
X198.835Y-33.338
X201.216Y-70.168
X203.598Y-142.876
X222.631Y-80.963
X222.648Y-33.338
X222.648Y-61.913
X222.648Y-123.826
X222.648Y-142.876
X241.692Y-33.337
X241.692Y-142.872
X241.698Y-61.913
X241.698Y-80.963
T0
M30
