G04 #@! TF.GenerationSoftware,KiCad,Pcbnew,7.0.9-1.fc39*
G04 #@! TF.CreationDate,2024-01-02T19:26:34+02:00*
G04 #@! TF.ProjectId,SplitHside5,53706c69-7448-4736-9964-65352e6b6963,rev?*
G04 #@! TF.SameCoordinates,Original*
G04 #@! TF.FileFunction,Paste,Bot*
G04 #@! TF.FilePolarity,Positive*
%FSLAX46Y46*%
G04 Gerber Fmt 4.6, Leading zero omitted, Abs format (unit mm)*
G04 Created by KiCad (PCBNEW 7.0.9-1.fc39) date 2024-01-02 19:26:34*
%MOMM*%
%LPD*%
G01*
G04 APERTURE LIST*
%ADD10R,1.200000X1.600000*%
G04 APERTURE END LIST*
D10*
X46433400Y-32770300D03*
X46433400Y-35570300D03*
X56356250Y-61200000D03*
X56356250Y-64000000D03*
X46831250Y-80500000D03*
X46831250Y-83300000D03*
X52000000Y-99500000D03*
X52000000Y-102300000D03*
X62500000Y-119200000D03*
X62500000Y-122000000D03*
X75000000Y-61200000D03*
X75000000Y-64000000D03*
X65881250Y-80500000D03*
X65881250Y-83300000D03*
X71500000Y-99600000D03*
X71500000Y-102400000D03*
X81000000Y-119200000D03*
X81000000Y-122000000D03*
X84234950Y-32770300D03*
X84234950Y-35570300D03*
X94456250Y-61000000D03*
X94456250Y-63800000D03*
X85000000Y-80700000D03*
X85000000Y-83500000D03*
X90500000Y-99600000D03*
X90500000Y-102400000D03*
X100500000Y-119100000D03*
X100500000Y-121900000D03*
X103284550Y-32770300D03*
X103284550Y-35570300D03*
X113500000Y-61200000D03*
X113500000Y-64000000D03*
X103981250Y-80700000D03*
X103981250Y-83500000D03*
X109500000Y-99700000D03*
X109500000Y-102500000D03*
X119500000Y-119100000D03*
X119500000Y-121900000D03*
X133644850Y-32740375D03*
X133644850Y-35540375D03*
X132500000Y-61200000D03*
X132500000Y-64000000D03*
X123000000Y-80600000D03*
X123000000Y-83400000D03*
X127793750Y-99600000D03*
X127793750Y-102400000D03*
X138500000Y-119000000D03*
X138500000Y-121800000D03*
X151652675Y-32740375D03*
X151652675Y-35540375D03*
X151606250Y-61200000D03*
X151606250Y-64000000D03*
X142081250Y-80700000D03*
X142081250Y-83500000D03*
X148000000Y-99700000D03*
X148000000Y-102500000D03*
X164500000Y-119000000D03*
X164500000Y-121800000D03*
X169958150Y-32740375D03*
X169958150Y-35540375D03*
X173000000Y-61200000D03*
X173000000Y-64000000D03*
X161000000Y-80700000D03*
X161000000Y-83500000D03*
X166500000Y-99600000D03*
X166500000Y-102400000D03*
X215000000Y-124100000D03*
X215000000Y-126900000D03*
X189603050Y-32770300D03*
X189603050Y-35570300D03*
X207500000Y-92000000D03*
X207500000Y-94800000D03*
X212500000Y-80100000D03*
X212500000Y-82900000D03*
X211931250Y-32890000D03*
X211931250Y-35690000D03*
X212725000Y-61100000D03*
X212725000Y-63900000D03*
X231775000Y-80100000D03*
X231775000Y-82900000D03*
X233000000Y-32700000D03*
X233000000Y-35500000D03*
X232500000Y-61200000D03*
X232500000Y-64000000D03*
X64293750Y-32770300D03*
X64293750Y-35570300D03*
X69056540Y-138141820D03*
X69056540Y-140941820D03*
X114300480Y-138141820D03*
X114300480Y-140941820D03*
X136949899Y-138200000D03*
X136949899Y-141000000D03*
X161925680Y-138141820D03*
X161925680Y-140941820D03*
X194072690Y-142666230D03*
X194072690Y-145466230D03*
X213122770Y-142428120D03*
X213122770Y-145228120D03*
X232172850Y-142666230D03*
X232172850Y-145466230D03*
X59500000Y-119100001D03*
X59500000Y-121900001D03*
M02*
