G04 #@! TF.GenerationSoftware,KiCad,Pcbnew,7.0.9-1.fc39*
G04 #@! TF.CreationDate,2024-01-02T19:26:35+02:00*
G04 #@! TF.ProjectId,SplitHside5,53706c69-7448-4736-9964-65352e6b6963,rev?*
G04 #@! TF.SameCoordinates,Original*
G04 #@! TF.FileFunction,Soldermask,Top*
G04 #@! TF.FilePolarity,Negative*
%FSLAX46Y46*%
G04 Gerber Fmt 4.6, Leading zero omitted, Abs format (unit mm)*
G04 Created by KiCad (PCBNEW 7.0.9-1.fc39) date 2024-01-02 19:26:35*
%MOMM*%
%LPD*%
G01*
G04 APERTURE LIST*
G04 Aperture macros list*
%AMHorizOval*
0 Thick line with rounded ends*
0 $1 width*
0 $2 $3 position (X,Y) of the first rounded end (center of the circle)*
0 $4 $5 position (X,Y) of the second rounded end (center of the circle)*
0 Add line between two ends*
20,1,$1,$2,$3,$4,$5,0*
0 Add two circle primitives to create the rounded ends*
1,1,$1,$2,$3*
1,1,$1,$4,$5*%
%AMRotRect*
0 Rectangle, with rotation*
0 The origin of the aperture is its center*
0 $1 length*
0 $2 width*
0 $3 Rotation angle, in degrees counterclockwise*
0 Add horizontal line*
21,1,$1,$2,0,0,$3*%
G04 Aperture macros list end*
%ADD10C,1.750000*%
%ADD11C,3.987800*%
%ADD12RotRect,1.752600X1.752600X315.000000*%
%ADD13C,1.752600*%
%ADD14C,0.800000*%
%ADD15HorizOval,1.600000X-0.141421X0.141421X0.141421X-0.141421X0*%
%ADD16R,1.600000X1.600000*%
%ADD17C,1.600000*%
%ADD18C,3.048000*%
%ADD19C,3.200000*%
%ADD20C,1.651000*%
G04 APERTURE END LIST*
D10*
X108027000Y-80960800D03*
D11*
X113107000Y-80960800D03*
D10*
X118187000Y-80960800D03*
D12*
X65586300Y656563D03*
D13*
X67382351Y-1139488D03*
X69178402Y-2935539D03*
X70974453Y-4731591D03*
X72770504Y-6527642D03*
X74566556Y-8323693D03*
X76362607Y-10119744D03*
X78158658Y-11915796D03*
X79954709Y-13711847D03*
X81750761Y-15507898D03*
X83546812Y-17303949D03*
X85342863Y-19100000D03*
X96119170Y-8323693D03*
X94323119Y-6527642D03*
X92527068Y-4731591D03*
X90731017Y-2935539D03*
X88934966Y-1139488D03*
X87138914Y656563D03*
X85342863Y2452614D03*
X83546812Y4248666D03*
X81750761Y6044717D03*
X79954709Y7840768D03*
X78158658Y9636819D03*
X76362607Y11432870D03*
D14*
X53131371Y-4731371D03*
X58081118Y-9681118D03*
D15*
X58363961Y-13216652D03*
X60838835Y-9186144D03*
X58010408Y-6357716D03*
X55889087Y-4236396D03*
D16*
X46433400Y-30270300D03*
D17*
X46433400Y-38070300D03*
D16*
X56356250Y-58700000D03*
D17*
X56356250Y-66500000D03*
D16*
X46831250Y-78000000D03*
D17*
X46831250Y-85800000D03*
D16*
X52000000Y-97000000D03*
D17*
X52000000Y-104800000D03*
D16*
X62500000Y-116700000D03*
D17*
X62500000Y-124500000D03*
D16*
X75000000Y-58700000D03*
D17*
X75000000Y-66500000D03*
D16*
X65881250Y-78000000D03*
D17*
X65881250Y-85800000D03*
D16*
X71500000Y-97100000D03*
D17*
X71500000Y-104900000D03*
D16*
X81000000Y-116700000D03*
D17*
X81000000Y-124500000D03*
D16*
X84234950Y-30270300D03*
D17*
X84234950Y-38070300D03*
D16*
X94456250Y-58500000D03*
D17*
X94456250Y-66300000D03*
D16*
X85000000Y-78200000D03*
D17*
X85000000Y-86000000D03*
D16*
X90500000Y-97100000D03*
D17*
X90500000Y-104900000D03*
D16*
X100500000Y-116600000D03*
D17*
X100500000Y-124400000D03*
D16*
X103284550Y-30270300D03*
D17*
X103284550Y-38070300D03*
D16*
X113500000Y-58700000D03*
D17*
X113500000Y-66500000D03*
D16*
X103981250Y-78200000D03*
D17*
X103981250Y-86000000D03*
D16*
X109500000Y-97200000D03*
D17*
X109500000Y-105000000D03*
D16*
X119500000Y-116600000D03*
D17*
X119500000Y-124400000D03*
D16*
X133644850Y-30240375D03*
D17*
X133644850Y-38040375D03*
D16*
X132500000Y-58700000D03*
D17*
X132500000Y-66500000D03*
D16*
X123000000Y-78100000D03*
D17*
X123000000Y-85900000D03*
D16*
X127793750Y-97100000D03*
D17*
X127793750Y-104900000D03*
D16*
X138500000Y-116500000D03*
D17*
X138500000Y-124300000D03*
D16*
X151652675Y-30240375D03*
D17*
X151652675Y-38040375D03*
D16*
X151606250Y-58700000D03*
D17*
X151606250Y-66500000D03*
D16*
X142081250Y-78200000D03*
D17*
X142081250Y-86000000D03*
D16*
X148000000Y-97200000D03*
D17*
X148000000Y-105000000D03*
D16*
X164500000Y-116500000D03*
D17*
X164500000Y-124300000D03*
D16*
X169958150Y-30240375D03*
D17*
X169958150Y-38040375D03*
D16*
X173000000Y-58700000D03*
D17*
X173000000Y-66500000D03*
D16*
X161000000Y-78200000D03*
D17*
X161000000Y-86000000D03*
D16*
X166500000Y-97100000D03*
D17*
X166500000Y-104900000D03*
D16*
X215000000Y-121600000D03*
D17*
X215000000Y-129400000D03*
D16*
X189603050Y-30270300D03*
D17*
X189603050Y-38070300D03*
D16*
X207500000Y-89500000D03*
D17*
X207500000Y-97300000D03*
D16*
X212500000Y-77600000D03*
D17*
X212500000Y-85400000D03*
D16*
X211931250Y-30390000D03*
D17*
X211931250Y-38190000D03*
D16*
X212725000Y-58600000D03*
D17*
X212725000Y-66400000D03*
D16*
X231775000Y-77600000D03*
D17*
X231775000Y-85400000D03*
D16*
X233000000Y-30200000D03*
D17*
X233000000Y-38000000D03*
D16*
X232500000Y-58700000D03*
D17*
X232500000Y-66500000D03*
D10*
X50879610Y-33337640D03*
D11*
X55959610Y-33337640D03*
D10*
X61039610Y-33337640D03*
X60404650Y-61912760D03*
D11*
X65484650Y-61912760D03*
D10*
X70564650Y-61912760D03*
X50879610Y-80962840D03*
D11*
X55959610Y-80962840D03*
D10*
X61039610Y-80962840D03*
X55642130Y-100012920D03*
D11*
X60722130Y-100012920D03*
D10*
X65802130Y-100012920D03*
X65167170Y-119063000D03*
D11*
X70247170Y-119063000D03*
D10*
X75327170Y-119063000D03*
X79454730Y-61912500D03*
D11*
X84534730Y-61912500D03*
D10*
X89614730Y-61912500D03*
X69929690Y-80962840D03*
D11*
X75009690Y-80962840D03*
D10*
X80089690Y-80962840D03*
X74692210Y-100012920D03*
D11*
X79772210Y-100012920D03*
D10*
X84852210Y-100012920D03*
X84217250Y-119063000D03*
D11*
X89297250Y-119063000D03*
D10*
X94377250Y-119063000D03*
X88979770Y-33337640D03*
D11*
X94059770Y-33337640D03*
D10*
X99139770Y-33337640D03*
X98504810Y-61912760D03*
D11*
X103584810Y-61912760D03*
D10*
X108664810Y-61912760D03*
X88979770Y-80962840D03*
D11*
X94059770Y-80962840D03*
D10*
X99139770Y-80962840D03*
X93742290Y-100012920D03*
D11*
X98822290Y-100012920D03*
D10*
X103902290Y-100012920D03*
X103267330Y-119063000D03*
D11*
X108347330Y-119063000D03*
D10*
X113427330Y-119063000D03*
X108029850Y-33337640D03*
D11*
X113109850Y-33337640D03*
D10*
X118189850Y-33337640D03*
X117554890Y-61912760D03*
D11*
X122634890Y-61912760D03*
D10*
X127714890Y-61912760D03*
X112792370Y-100012920D03*
D11*
X117872370Y-100012920D03*
D10*
X122952370Y-100012920D03*
X122317410Y-119063000D03*
D11*
X127397410Y-119063000D03*
D10*
X132477410Y-119063000D03*
X136604970Y-33337640D03*
D11*
X141684970Y-33337640D03*
D10*
X146764970Y-33337640D03*
X136604970Y-61912760D03*
D11*
X141684970Y-61912760D03*
D10*
X146764970Y-61912760D03*
X127079930Y-80962840D03*
D11*
X132159930Y-80962840D03*
D10*
X137239930Y-80962840D03*
X131842450Y-100012920D03*
D11*
X136922450Y-100012920D03*
D10*
X142002450Y-100012920D03*
X141367490Y-119063000D03*
D11*
X146447490Y-119063000D03*
D10*
X151527490Y-119063000D03*
X155655050Y-33337640D03*
D11*
X160735050Y-33337640D03*
D10*
X165815050Y-33337640D03*
X155655050Y-61912760D03*
D11*
X160735050Y-61912760D03*
D10*
X165815050Y-61912760D03*
X146130010Y-80962840D03*
D11*
X151210010Y-80962840D03*
D10*
X156290010Y-80962840D03*
X150892530Y-100012920D03*
D11*
X155972530Y-100012920D03*
D10*
X161052530Y-100012920D03*
D18*
X170260140Y-112078000D03*
D11*
X170260140Y-127318000D03*
D10*
X177086390Y-119063000D03*
D11*
X182166390Y-119063000D03*
D10*
X187246390Y-119063000D03*
D18*
X194072640Y-112078000D03*
D11*
X194072640Y-127318000D03*
D10*
X174705130Y-33337640D03*
D11*
X179785130Y-33337640D03*
D10*
X184865130Y-33337640D03*
D18*
X177403920Y-54927760D03*
D11*
X177403920Y-70167760D03*
D10*
X184230170Y-61912760D03*
D11*
X189310170Y-61912760D03*
D10*
X194390170Y-61912760D03*
D18*
X201216420Y-54927760D03*
D11*
X201216420Y-70167760D03*
D10*
X165180090Y-80962840D03*
D11*
X170260090Y-80962840D03*
D10*
X175340090Y-80962840D03*
X169942610Y-100012920D03*
D11*
X175022610Y-100012920D03*
D10*
X180102610Y-100012920D03*
X193755210Y-33337640D03*
D11*
X198835210Y-33337640D03*
D10*
X203915210Y-33337640D03*
X217551000Y-80962840D03*
D11*
X222631000Y-80962840D03*
D10*
X227711000Y-80962840D03*
X217567810Y-33337640D03*
D11*
X222647810Y-33337640D03*
D10*
X227727810Y-33337640D03*
X217567810Y-61912760D03*
D11*
X222647810Y-61912760D03*
D10*
X227727810Y-61912760D03*
X236617890Y-80962840D03*
D11*
X241697890Y-80962840D03*
D10*
X246777890Y-80962840D03*
X236617890Y-61912760D03*
D11*
X241697890Y-61912760D03*
D10*
X246777890Y-61912760D03*
D11*
X188198950Y-78549880D03*
X188198950Y-102425880D03*
D10*
X196453950Y-85407880D03*
D11*
X196453950Y-90487880D03*
D10*
X196453950Y-95567880D03*
D18*
X203438950Y-78549880D03*
X203438950Y-102425880D03*
D16*
X64293750Y-30270300D03*
D17*
X64293750Y-38070300D03*
D10*
X69929690Y-33337640D03*
D11*
X75009690Y-33337640D03*
D10*
X80089690Y-33337640D03*
D16*
X69056540Y-135641820D03*
D17*
X69056540Y-143441820D03*
D16*
X114300480Y-135641820D03*
D17*
X114300480Y-143441820D03*
D16*
X136949899Y-135700000D03*
D17*
X136949899Y-143500000D03*
D16*
X161925680Y-135641820D03*
D17*
X161925680Y-143441820D03*
D16*
X194072690Y-140166230D03*
D17*
X194072690Y-147966230D03*
D16*
X213122770Y-139928120D03*
D17*
X213122770Y-147728120D03*
D16*
X232172850Y-140166230D03*
D17*
X232172850Y-147966230D03*
D10*
X119936150Y-138113080D03*
D11*
X125016150Y-138113080D03*
D10*
X130096150Y-138113080D03*
X167561350Y-138113080D03*
D11*
X172641350Y-138113080D03*
D10*
X177721350Y-138113080D03*
X198517730Y-142875600D03*
D11*
X203597730Y-142875600D03*
D10*
X208677730Y-142875600D03*
X217567810Y-142875600D03*
D11*
X222647810Y-142875600D03*
D10*
X227727810Y-142875600D03*
D18*
X75009740Y-131128080D03*
D11*
X75009740Y-146368080D03*
D10*
X81835990Y-138113080D03*
D11*
X86915990Y-138113080D03*
D10*
X91995990Y-138113080D03*
D18*
X98822240Y-131128080D03*
D11*
X98822240Y-146368080D03*
D10*
X217567810Y-123825520D03*
D11*
X222647810Y-123825520D03*
D10*
X227727810Y-123825520D03*
X143748750Y-138113080D03*
D11*
X148828750Y-138113080D03*
D10*
X153908750Y-138113080D03*
D19*
X216000000Y-103000000D03*
X254900000Y-20600000D03*
X153600000Y-47200000D03*
X44800000Y-56975000D03*
X44700000Y-96000000D03*
X143300000Y-151500000D03*
X255000000Y-151000000D03*
D20*
X68700000Y-7400000D03*
X61515796Y-215796D03*
X59900000Y-2100000D03*
X67084204Y-9284204D03*
D10*
X236611800Y-33337500D03*
D11*
X241691800Y-33337500D03*
D10*
X246771800Y-33337500D03*
X236611800Y-142872000D03*
D11*
X241691800Y-142872000D03*
D10*
X246771800Y-142872000D03*
D19*
X44500000Y-12700000D03*
D10*
X46117170Y-119063000D03*
D11*
X51197170Y-119063000D03*
D10*
X56277170Y-119063000D03*
D16*
X59500000Y-116600001D03*
D17*
X59500000Y-124400001D03*
D19*
X82900000Y20000000D03*
X64800000Y-15900000D03*
X117575000Y-15200000D03*
X45500000Y-151000000D03*
M02*
