M48
; DRILL file {KiCad 7.0.9-1.fc39} date ti  2. tammikuuta 2024 19.26.52
; FORMAT={-:-/ absolute / metric / decimal}
; #@! TF.CreationDate,2024-01-02T19:26:52+02:00
; #@! TF.GenerationSoftware,Kicad,Pcbnew,7.0.9-1.fc39
; #@! TF.FileFunction,Plated,1,2,PTH
FMAT,2
METRIC
; #@! TA.AperFunction,Plated,PTH,ViaDrill
T1C0.400
; #@! TA.AperFunction,Plated,PTH,ComponentDrill
T2C0.900
; #@! TA.AperFunction,Plated,PTH,ComponentDrill
T3C0.991
; #@! TA.AperFunction,Plated,PTH,ComponentDrill
T4C1.000
; #@! TA.AperFunction,Plated,PTH,ComponentDrill
T5C1.092
; #@! TA.AperFunction,Plated,PTH,ComponentDrill
T6C1.470
%
G90
G05
T1
X94.379Y4.249
X142.15Y-51.35
X235.077Y-19.05
T3
X59.9Y-2.1
X61.516Y-0.216
X67.084Y-9.284
X68.7Y-7.4
T4
X46.433Y-30.27
X46.433Y-38.07
X46.831Y-78.0
X46.831Y-85.8
X52.0Y-97.0
X52.0Y-104.8
X56.356Y-58.7
X56.356Y-66.5
X59.5Y-116.6
X59.5Y-124.4
X62.5Y-116.7
X62.5Y-124.5
X64.294Y-30.27
X64.294Y-38.07
X65.881Y-78.0
X65.881Y-85.8
X69.057Y-135.642
X69.057Y-143.442
X71.5Y-97.1
X71.5Y-104.9
X75.0Y-58.7
X75.0Y-66.5
X81.0Y-116.7
X81.0Y-124.5
X84.235Y-30.27
X84.235Y-38.07
X85.0Y-78.2
X85.0Y-86.0
X90.5Y-97.1
X90.5Y-104.9
X94.456Y-58.5
X94.456Y-66.3
X100.5Y-116.6
X100.5Y-124.4
X103.285Y-30.27
X103.285Y-38.07
X103.981Y-78.2
X103.981Y-86.0
X109.5Y-97.2
X109.5Y-105.0
X113.5Y-58.7
X113.5Y-66.5
X114.3Y-135.642
X114.3Y-143.442
X119.5Y-116.6
X119.5Y-124.4
X123.0Y-78.1
X123.0Y-85.9
X127.794Y-97.1
X127.794Y-104.9
X132.5Y-58.7
X132.5Y-66.5
X133.645Y-30.24
X133.645Y-38.04
X136.95Y-135.7
X136.95Y-143.5
X138.5Y-116.5
X138.5Y-124.3
X142.081Y-78.2
X142.081Y-86.0
X148.0Y-97.2
X148.0Y-105.0
X151.606Y-58.7
X151.606Y-66.5
X151.653Y-30.24
X151.653Y-38.04
X161.0Y-78.2
X161.0Y-86.0
X161.926Y-135.642
X161.926Y-143.442
X164.5Y-116.5
X164.5Y-124.3
X166.5Y-97.1
X166.5Y-104.9
X169.958Y-30.24
X169.958Y-38.04
X173.0Y-58.7
X173.0Y-66.5
X189.603Y-30.27
X189.603Y-38.07
X194.073Y-140.166
X194.073Y-147.966
X207.5Y-89.5
X207.5Y-97.3
X211.931Y-30.39
X211.931Y-38.19
X212.5Y-77.6
X212.5Y-85.4
X212.725Y-58.6
X212.725Y-66.4
X213.123Y-139.928
X213.123Y-147.728
X215.0Y-121.6
X215.0Y-129.4
X231.775Y-77.6
X231.775Y-85.4
X232.173Y-140.166
X232.173Y-147.966
X232.5Y-58.7
X232.5Y-66.5
X233.0Y-30.2
X233.0Y-38.0
T5
X65.586Y0.657
X67.382Y-1.139
X69.178Y-2.936
X70.974Y-4.732
X72.771Y-6.528
X74.567Y-8.324
X76.363Y11.433
X76.363Y-10.12
X78.159Y9.637
X78.159Y-11.916
X79.955Y7.841
X79.955Y-13.712
X81.751Y6.045
X81.751Y-15.508
X83.547Y4.249
X83.547Y-17.304
X85.343Y2.453
X85.343Y-19.1
X87.139Y0.657
X88.935Y-1.139
X90.731Y-2.936
X92.527Y-4.732
X94.323Y-6.528
X96.119Y-8.324
T6
X47.387Y-116.523
X52.15Y-30.798
X52.15Y-78.423
X53.737Y-113.983
X56.912Y-97.473
X58.5Y-28.258
X58.5Y-75.883
X61.675Y-59.373
X63.262Y-94.933
X66.437Y-116.523
X68.025Y-56.833
X71.2Y-30.798
X71.2Y-78.423
X72.787Y-113.983
X75.962Y-97.473
X77.55Y-28.258
X77.55Y-75.883
X80.725Y-59.372
X82.312Y-94.933
X83.106Y-135.573
X85.487Y-116.523
X87.075Y-56.832
X89.456Y-133.033
X90.25Y-30.798
X90.25Y-78.423
X91.837Y-113.983
X95.012Y-97.473
X96.6Y-28.258
X96.6Y-75.883
X99.775Y-59.373
X101.362Y-94.933
X104.537Y-116.523
X106.125Y-56.833
X109.297Y-78.421
X109.3Y-30.798
X110.887Y-113.983
X114.062Y-97.473
X115.647Y-75.881
X115.65Y-28.258
X118.825Y-59.373
X120.412Y-94.933
X121.206Y-135.573
X123.587Y-116.523
X125.175Y-56.833
X127.556Y-133.033
X128.35Y-78.423
X129.937Y-113.983
X133.112Y-97.473
X134.7Y-75.883
X137.875Y-30.798
X137.875Y-59.373
X139.462Y-94.933
X142.637Y-116.523
X144.225Y-28.258
X144.225Y-56.833
X145.019Y-135.573
X147.4Y-78.423
X148.987Y-113.983
X151.369Y-133.033
X152.163Y-97.473
X153.75Y-75.883
X156.925Y-30.798
X156.925Y-59.373
X158.513Y-94.933
X163.275Y-28.258
X163.275Y-56.833
X166.45Y-78.423
X168.831Y-135.573
X171.213Y-97.473
X172.8Y-75.883
X175.181Y-133.033
X175.975Y-30.798
X177.563Y-94.933
X178.356Y-116.523
X182.325Y-28.258
X184.706Y-113.983
X185.5Y-59.373
X191.85Y-56.833
X195.025Y-30.798
X198.994Y-86.678
X199.788Y-140.336
X201.375Y-28.258
X201.534Y-93.028
X206.138Y-137.796
X218.821Y-78.423
X218.838Y-30.798
X218.838Y-59.373
X218.838Y-121.286
X218.838Y-140.336
X225.171Y-75.883
X225.188Y-28.258
X225.188Y-56.833
X225.188Y-118.746
X225.188Y-137.796
X237.882Y-30.797
X237.882Y-140.332
X237.888Y-59.373
X237.888Y-78.423
X244.232Y-28.258
X244.232Y-137.792
X244.238Y-56.833
X244.238Y-75.883
T2
X55.748Y-4.095G85X56.031Y-4.378
G05
X57.869Y-6.216G85X58.152Y-6.499
G05
X58.223Y-13.075G85X58.505Y-13.358
G05
X60.697Y-9.045G85X60.98Y-9.328
G05
T0
M30
