%TF.GenerationSoftware,KiCad,Pcbnew,7.0.9-1.fc39*%
%TF.CreationDate,2024-01-02T19:26:53+02:00*%
%TF.ProjectId,SplitHside5,53706c69-7448-4736-9964-65352e6b6963,rev?*%
%TF.SameCoordinates,Original*%
%TF.FileFunction,Drillmap*%
%TF.FilePolarity,Positive*%
%FSLAX45Y45*%
G04 Gerber Fmt 4.5, Leading zero omitted, Abs format (unit mm)*
G04 Created by KiCad (PCBNEW 7.0.9-1.fc39) date 2024-01-02 19:26:53*
%MOMM*%
%LPD*%
G01*
G04 APERTURE LIST*
%ADD10C,0.050000*%
%ADD11C,0.100000*%
%ADD12C,0.200000*%
%ADD13C,0.175000*%
%ADD14C,0.304800*%
%ADD15C,0.320000*%
%ADD16C,0.398780*%
G04 APERTURE END LIST*
D10*
X4140200Y-14957500D02*
G75*
G03*
X4640200Y-15457500I500000J0D01*
G01*
X4142500Y-1547432D02*
X4142500Y-1480000D01*
X4655000Y-15457500D02*
X4640200Y-15457500D01*
X8255000Y-15457500D02*
X8405000Y-15457500D01*
X25035000Y-1637500D02*
X25196447Y-1637500D01*
X4433972Y-832719D02*
X7155598Y1888907D01*
X4142500Y-1754583D02*
X4142500Y-1547432D01*
X13982700Y-1638300D02*
X24820543Y-1639330D01*
X9276919Y1888907D02*
G75*
G03*
X7155599Y1888907I-1060660J-1060660D01*
G01*
X13779500Y-1638300D02*
X13709131Y-1637493D01*
X25910000Y-2137500D02*
G75*
G03*
X25410000Y-1637500I-500000J0D01*
G01*
X25196447Y-15457500D02*
X25035000Y-15457500D01*
X25910000Y-2137500D02*
X25910000Y-2436600D01*
X25290000Y-1637500D02*
X25336447Y-1637500D01*
X4655000Y-15457500D02*
X8255000Y-15457500D01*
D11*
X25910000Y-14957500D02*
X25910000Y-2436600D01*
D10*
X25410000Y-1637500D02*
X25336447Y-1637500D01*
X24820543Y-1639330D02*
X24821980Y-1639330D01*
X25035000Y-15457500D02*
X8405000Y-15457500D01*
D11*
X25410000Y-15457500D02*
G75*
G03*
X25910000Y-14957500I0J500000D01*
G01*
D10*
X25035000Y-1637500D02*
X24821980Y-1639330D01*
X9276919Y1888907D02*
X12053451Y-1050746D01*
X25196447Y-1637500D02*
X25290000Y-1637500D01*
X25290000Y-15457500D02*
X25196447Y-15457500D01*
X25336447Y-15457500D02*
X25290000Y-15457500D01*
X4141823Y-1331622D02*
X4142500Y-1381622D01*
D11*
X12053451Y-1050746D02*
G75*
G03*
X13470000Y-1637500I1416549J1416546D01*
G01*
D10*
X4142500Y-1381622D02*
X4142500Y-1480000D01*
X4142500Y-1754583D02*
X4140200Y-14957500D01*
X13982700Y-1638300D02*
X13779500Y-1638300D01*
X4288700Y-977639D02*
X4433972Y-832719D01*
X4288699Y-977639D02*
G75*
G03*
X4141823Y-1331622I353121J-353981D01*
G01*
X13470000Y-1637500D02*
X13709131Y-1637493D01*
X25410000Y-15457500D02*
X25336447Y-15457500D01*
D12*
D11*
X5273137Y-433137D02*
X5353137Y-513137D01*
X5353137Y-433137D02*
X5273137Y-513137D01*
X5768112Y-928112D02*
X5848112Y-1008112D01*
X5848112Y-928112D02*
X5768112Y-1008112D01*
D13*
X4699217Y-11906300D02*
G75*
G03*
X4699217Y-11906300I-87500J0D01*
G01*
X5175461Y-3333764D02*
G75*
G03*
X5175461Y-3333764I-87500J0D01*
G01*
X5175461Y-8096284D02*
G75*
G03*
X5175461Y-8096284I-87500J0D01*
G01*
X5651713Y-10001292D02*
G75*
G03*
X5651713Y-10001292I-87500J0D01*
G01*
X5715217Y-11906300D02*
G75*
G03*
X5715217Y-11906300I-87500J0D01*
G01*
X6127965Y-6191276D02*
G75*
G03*
X6127965Y-6191276I-87500J0D01*
G01*
X6191461Y-3333764D02*
G75*
G03*
X6191461Y-3333764I-87500J0D01*
G01*
X6191461Y-8096284D02*
G75*
G03*
X6191461Y-8096284I-87500J0D01*
G01*
X6604217Y-11906300D02*
G75*
G03*
X6604217Y-11906300I-87500J0D01*
G01*
X6667713Y-10001292D02*
G75*
G03*
X6667713Y-10001292I-87500J0D01*
G01*
X7080469Y-3333764D02*
G75*
G03*
X7080469Y-3333764I-87500J0D01*
G01*
X7080469Y-8096284D02*
G75*
G03*
X7080469Y-8096284I-87500J0D01*
G01*
X7143965Y-6191276D02*
G75*
G03*
X7143965Y-6191276I-87500J0D01*
G01*
X7556721Y-10001292D02*
G75*
G03*
X7556721Y-10001292I-87500J0D01*
G01*
X7620217Y-11906300D02*
G75*
G03*
X7620217Y-11906300I-87500J0D01*
G01*
X8032973Y-6191250D02*
G75*
G03*
X8032973Y-6191250I-87500J0D01*
G01*
X8096469Y-3333764D02*
G75*
G03*
X8096469Y-3333764I-87500J0D01*
G01*
X8096469Y-8096284D02*
G75*
G03*
X8096469Y-8096284I-87500J0D01*
G01*
X8271099Y-13811308D02*
G75*
G03*
X8271099Y-13811308I-87500J0D01*
G01*
X8509225Y-11906300D02*
G75*
G03*
X8509225Y-11906300I-87500J0D01*
G01*
X8572721Y-10001292D02*
G75*
G03*
X8572721Y-10001292I-87500J0D01*
G01*
X8985477Y-3333764D02*
G75*
G03*
X8985477Y-3333764I-87500J0D01*
G01*
X8985477Y-8096284D02*
G75*
G03*
X8985477Y-8096284I-87500J0D01*
G01*
X9048973Y-6191250D02*
G75*
G03*
X9048973Y-6191250I-87500J0D01*
G01*
X9287099Y-13811308D02*
G75*
G03*
X9287099Y-13811308I-87500J0D01*
G01*
X9461729Y-10001292D02*
G75*
G03*
X9461729Y-10001292I-87500J0D01*
G01*
X9525225Y-11906300D02*
G75*
G03*
X9525225Y-11906300I-87500J0D01*
G01*
X9937981Y-6191276D02*
G75*
G03*
X9937981Y-6191276I-87500J0D01*
G01*
X10001477Y-3333764D02*
G75*
G03*
X10001477Y-3333764I-87500J0D01*
G01*
X10001477Y-8096284D02*
G75*
G03*
X10001477Y-8096284I-87500J0D01*
G01*
X10414233Y-11906300D02*
G75*
G03*
X10414233Y-11906300I-87500J0D01*
G01*
X10477729Y-10001292D02*
G75*
G03*
X10477729Y-10001292I-87500J0D01*
G01*
X10890200Y-8096080D02*
G75*
G03*
X10890200Y-8096080I-87500J0D01*
G01*
X10890485Y-3333764D02*
G75*
G03*
X10890485Y-3333764I-87500J0D01*
G01*
X10953981Y-6191276D02*
G75*
G03*
X10953981Y-6191276I-87500J0D01*
G01*
X11366737Y-10001292D02*
G75*
G03*
X11366737Y-10001292I-87500J0D01*
G01*
X11430233Y-11906300D02*
G75*
G03*
X11430233Y-11906300I-87500J0D01*
G01*
X11842989Y-6191276D02*
G75*
G03*
X11842989Y-6191276I-87500J0D01*
G01*
X11906200Y-8096080D02*
G75*
G03*
X11906200Y-8096080I-87500J0D01*
G01*
X11906485Y-3333764D02*
G75*
G03*
X11906485Y-3333764I-87500J0D01*
G01*
X12081115Y-13811308D02*
G75*
G03*
X12081115Y-13811308I-87500J0D01*
G01*
X12319241Y-11906300D02*
G75*
G03*
X12319241Y-11906300I-87500J0D01*
G01*
X12382737Y-10001292D02*
G75*
G03*
X12382737Y-10001292I-87500J0D01*
G01*
X12795493Y-8096284D02*
G75*
G03*
X12795493Y-8096284I-87500J0D01*
G01*
X12858989Y-6191276D02*
G75*
G03*
X12858989Y-6191276I-87500J0D01*
G01*
X13097115Y-13811308D02*
G75*
G03*
X13097115Y-13811308I-87500J0D01*
G01*
X13271745Y-10001292D02*
G75*
G03*
X13271745Y-10001292I-87500J0D01*
G01*
X13335241Y-11906300D02*
G75*
G03*
X13335241Y-11906300I-87500J0D01*
G01*
X13747997Y-3333764D02*
G75*
G03*
X13747997Y-3333764I-87500J0D01*
G01*
X13747997Y-6191276D02*
G75*
G03*
X13747997Y-6191276I-87500J0D01*
G01*
X13811493Y-8096284D02*
G75*
G03*
X13811493Y-8096284I-87500J0D01*
G01*
X14224249Y-11906300D02*
G75*
G03*
X14224249Y-11906300I-87500J0D01*
G01*
X14287745Y-10001292D02*
G75*
G03*
X14287745Y-10001292I-87500J0D01*
G01*
X14462375Y-13811308D02*
G75*
G03*
X14462375Y-13811308I-87500J0D01*
G01*
X14700501Y-8096284D02*
G75*
G03*
X14700501Y-8096284I-87500J0D01*
G01*
X14763997Y-3333764D02*
G75*
G03*
X14763997Y-3333764I-87500J0D01*
G01*
X14763997Y-6191276D02*
G75*
G03*
X14763997Y-6191276I-87500J0D01*
G01*
X15176753Y-10001292D02*
G75*
G03*
X15176753Y-10001292I-87500J0D01*
G01*
X15240249Y-11906300D02*
G75*
G03*
X15240249Y-11906300I-87500J0D01*
G01*
X15478375Y-13811308D02*
G75*
G03*
X15478375Y-13811308I-87500J0D01*
G01*
X15653005Y-3333764D02*
G75*
G03*
X15653005Y-3333764I-87500J0D01*
G01*
X15653005Y-6191276D02*
G75*
G03*
X15653005Y-6191276I-87500J0D01*
G01*
X15716501Y-8096284D02*
G75*
G03*
X15716501Y-8096284I-87500J0D01*
G01*
X16192753Y-10001292D02*
G75*
G03*
X16192753Y-10001292I-87500J0D01*
G01*
X16605509Y-8096284D02*
G75*
G03*
X16605509Y-8096284I-87500J0D01*
G01*
X16669005Y-3333764D02*
G75*
G03*
X16669005Y-3333764I-87500J0D01*
G01*
X16669005Y-6191276D02*
G75*
G03*
X16669005Y-6191276I-87500J0D01*
G01*
X16843635Y-13811308D02*
G75*
G03*
X16843635Y-13811308I-87500J0D01*
G01*
X17081761Y-10001292D02*
G75*
G03*
X17081761Y-10001292I-87500J0D01*
G01*
X17558013Y-3333764D02*
G75*
G03*
X17558013Y-3333764I-87500J0D01*
G01*
X17621509Y-8096284D02*
G75*
G03*
X17621509Y-8096284I-87500J0D01*
G01*
X17796139Y-11906300D02*
G75*
G03*
X17796139Y-11906300I-87500J0D01*
G01*
X17859635Y-13811308D02*
G75*
G03*
X17859635Y-13811308I-87500J0D01*
G01*
X18097761Y-10001292D02*
G75*
G03*
X18097761Y-10001292I-87500J0D01*
G01*
X18510517Y-6191276D02*
G75*
G03*
X18510517Y-6191276I-87500J0D01*
G01*
X18574013Y-3333764D02*
G75*
G03*
X18574013Y-3333764I-87500J0D01*
G01*
X18812139Y-11906300D02*
G75*
G03*
X18812139Y-11906300I-87500J0D01*
G01*
X19463021Y-3333764D02*
G75*
G03*
X19463021Y-3333764I-87500J0D01*
G01*
X19526517Y-6191276D02*
G75*
G03*
X19526517Y-6191276I-87500J0D01*
G01*
X19732895Y-8540788D02*
G75*
G03*
X19732895Y-8540788I-87500J0D01*
G01*
X19732895Y-9556788D02*
G75*
G03*
X19732895Y-9556788I-87500J0D01*
G01*
X19939273Y-14287560D02*
G75*
G03*
X19939273Y-14287560I-87500J0D01*
G01*
X20479021Y-3333764D02*
G75*
G03*
X20479021Y-3333764I-87500J0D01*
G01*
X20955273Y-14287560D02*
G75*
G03*
X20955273Y-14287560I-87500J0D01*
G01*
X21842600Y-8096284D02*
G75*
G03*
X21842600Y-8096284I-87500J0D01*
G01*
X21844281Y-3333764D02*
G75*
G03*
X21844281Y-3333764I-87500J0D01*
G01*
X21844281Y-6191276D02*
G75*
G03*
X21844281Y-6191276I-87500J0D01*
G01*
X21844281Y-12382552D02*
G75*
G03*
X21844281Y-12382552I-87500J0D01*
G01*
X21844281Y-14287560D02*
G75*
G03*
X21844281Y-14287560I-87500J0D01*
G01*
X22858600Y-8096284D02*
G75*
G03*
X22858600Y-8096284I-87500J0D01*
G01*
X22860281Y-3333764D02*
G75*
G03*
X22860281Y-3333764I-87500J0D01*
G01*
X22860281Y-6191276D02*
G75*
G03*
X22860281Y-6191276I-87500J0D01*
G01*
X22860281Y-12382552D02*
G75*
G03*
X22860281Y-12382552I-87500J0D01*
G01*
X22860281Y-14287560D02*
G75*
G03*
X22860281Y-14287560I-87500J0D01*
G01*
X23748680Y-3333750D02*
G75*
G03*
X23748680Y-3333750I-87500J0D01*
G01*
X23748680Y-14287200D02*
G75*
G03*
X23748680Y-14287200I-87500J0D01*
G01*
X23749289Y-6191276D02*
G75*
G03*
X23749289Y-6191276I-87500J0D01*
G01*
X23749289Y-8096284D02*
G75*
G03*
X23749289Y-8096284I-87500J0D01*
G01*
X24764680Y-3333750D02*
G75*
G03*
X24764680Y-3333750I-87500J0D01*
G01*
X24764680Y-14287200D02*
G75*
G03*
X24764680Y-14287200I-87500J0D01*
G01*
X24765289Y-6191276D02*
G75*
G03*
X24765289Y-6191276I-87500J0D01*
G01*
X24765289Y-8096284D02*
G75*
G03*
X24765289Y-8096284I-87500J0D01*
G01*
D14*
X7500974Y-12960408D02*
X7500974Y-13265208D01*
X7348574Y-13112808D02*
X7653374Y-13112808D01*
X9882224Y-12960408D02*
X9882224Y-13265208D01*
X9729824Y-13112808D02*
X10034624Y-13112808D01*
X17026014Y-11055400D02*
X17026014Y-11360200D01*
X16873614Y-11207800D02*
X17178414Y-11207800D01*
X17740392Y-5340376D02*
X17740392Y-5645176D01*
X17587992Y-5492776D02*
X17892792Y-5492776D01*
X19407264Y-11055400D02*
X19407264Y-11360200D01*
X19254864Y-11207800D02*
X19559664Y-11207800D01*
X20121642Y-5340376D02*
X20121642Y-5645176D01*
X19969242Y-5492776D02*
X20274042Y-5492776D01*
X20343895Y-7702588D02*
X20343895Y-8007388D01*
X20191495Y-7854988D02*
X20496295Y-7854988D01*
X20343895Y-10090188D02*
X20343895Y-10394988D01*
X20191495Y-10242588D02*
X20496295Y-10242588D01*
D15*
X4563138Y-1383138D02*
X4563138Y-1156862D01*
X4336862Y-1156862D01*
X4336862Y-1383138D01*
X4563138Y-1383138D01*
X4583138Y-9713138D02*
X4583138Y-9486862D01*
X4356862Y-9486862D01*
X4356862Y-9713138D01*
X4583138Y-9713138D01*
X4593138Y-5810638D02*
X4593138Y-5584362D01*
X4366862Y-5584362D01*
X4366862Y-5810638D01*
X4593138Y-5810638D01*
X4663138Y-15213138D02*
X4663138Y-14986862D01*
X4436862Y-14986862D01*
X4436862Y-15213138D01*
X4663138Y-15213138D01*
X6593138Y-1703138D02*
X6593138Y-1476862D01*
X6366862Y-1476862D01*
X6366862Y-1703138D01*
X6593138Y-1703138D01*
X8403138Y1886862D02*
X8403138Y2113138D01*
X8176862Y2113138D01*
X8176862Y1886862D01*
X8403138Y1886862D01*
X11870638Y-1633138D02*
X11870638Y-1406862D01*
X11644362Y-1406862D01*
X11644362Y-1633138D01*
X11870638Y-1633138D01*
X14443138Y-15263138D02*
X14443138Y-15036862D01*
X14216862Y-15036862D01*
X14216862Y-15263138D01*
X14443138Y-15263138D01*
X15473138Y-4833138D02*
X15473138Y-4606862D01*
X15246862Y-4606862D01*
X15246862Y-4833138D01*
X15473138Y-4833138D01*
X21713138Y-10413138D02*
X21713138Y-10186862D01*
X21486862Y-10186862D01*
X21486862Y-10413138D01*
X21713138Y-10413138D01*
X25603138Y-2173138D02*
X25603138Y-1946862D01*
X25376862Y-1946862D01*
X25376862Y-2173138D01*
X25603138Y-2173138D01*
X25613138Y-15213138D02*
X25613138Y-14986862D01*
X25386862Y-14986862D01*
X25386862Y-15213138D01*
X25613138Y-15213138D01*
D16*
X5119717Y-12105690D02*
X5319107Y-11906300D01*
X5119717Y-11706910D01*
X4920327Y-11906300D01*
X5119717Y-12105690D01*
X5595961Y-3533154D02*
X5795351Y-3333764D01*
X5595961Y-3134374D01*
X5396571Y-3333764D01*
X5595961Y-3533154D01*
X5595961Y-8295674D02*
X5795351Y-8096284D01*
X5595961Y-7896894D01*
X5396571Y-8096284D01*
X5595961Y-8295674D01*
X6072213Y-10200682D02*
X6271603Y-10001292D01*
X6072213Y-9801902D01*
X5872823Y-10001292D01*
X6072213Y-10200682D01*
X6548465Y-6390666D02*
X6747855Y-6191276D01*
X6548465Y-5991886D01*
X6349075Y-6191276D01*
X6548465Y-6390666D01*
X7024717Y-12105690D02*
X7224107Y-11906300D01*
X7024717Y-11706910D01*
X6825327Y-11906300D01*
X7024717Y-12105690D01*
X7500969Y-3533154D02*
X7700359Y-3333764D01*
X7500969Y-3134374D01*
X7301579Y-3333764D01*
X7500969Y-3533154D01*
X7500969Y-8295674D02*
X7700359Y-8096284D01*
X7500969Y-7896894D01*
X7301579Y-8096284D01*
X7500969Y-8295674D01*
X7500974Y-14836198D02*
X7700364Y-14636808D01*
X7500974Y-14437418D01*
X7301584Y-14636808D01*
X7500974Y-14836198D01*
X7977221Y-10200682D02*
X8176611Y-10001292D01*
X7977221Y-9801902D01*
X7777831Y-10001292D01*
X7977221Y-10200682D01*
X8453473Y-6390640D02*
X8652863Y-6191250D01*
X8453473Y-5991860D01*
X8254083Y-6191250D01*
X8453473Y-6390640D01*
X8691599Y-14010698D02*
X8890989Y-13811308D01*
X8691599Y-13611918D01*
X8492209Y-13811308D01*
X8691599Y-14010698D01*
X8929725Y-12105690D02*
X9129115Y-11906300D01*
X8929725Y-11706910D01*
X8730335Y-11906300D01*
X8929725Y-12105690D01*
X9405977Y-3533154D02*
X9605367Y-3333764D01*
X9405977Y-3134374D01*
X9206587Y-3333764D01*
X9405977Y-3533154D01*
X9405977Y-8295674D02*
X9605367Y-8096284D01*
X9405977Y-7896894D01*
X9206587Y-8096284D01*
X9405977Y-8295674D01*
X9882224Y-14836198D02*
X10081614Y-14636808D01*
X9882224Y-14437418D01*
X9682834Y-14636808D01*
X9882224Y-14836198D01*
X9882229Y-10200682D02*
X10081619Y-10001292D01*
X9882229Y-9801902D01*
X9682839Y-10001292D01*
X9882229Y-10200682D01*
X10358481Y-6390666D02*
X10557871Y-6191276D01*
X10358481Y-5991886D01*
X10159091Y-6191276D01*
X10358481Y-6390666D01*
X10834733Y-12105690D02*
X11034123Y-11906300D01*
X10834733Y-11706910D01*
X10635343Y-11906300D01*
X10834733Y-12105690D01*
X11310700Y-8295470D02*
X11510090Y-8096080D01*
X11310700Y-7896690D01*
X11111310Y-8096080D01*
X11310700Y-8295470D01*
X11310985Y-3533154D02*
X11510375Y-3333764D01*
X11310985Y-3134374D01*
X11111595Y-3333764D01*
X11310985Y-3533154D01*
X11787237Y-10200682D02*
X11986627Y-10001292D01*
X11787237Y-9801902D01*
X11587847Y-10001292D01*
X11787237Y-10200682D01*
X12263489Y-6390666D02*
X12462879Y-6191276D01*
X12263489Y-5991886D01*
X12064099Y-6191276D01*
X12263489Y-6390666D01*
X12501615Y-14010698D02*
X12701005Y-13811308D01*
X12501615Y-13611918D01*
X12302225Y-13811308D01*
X12501615Y-14010698D01*
X12739741Y-12105690D02*
X12939131Y-11906300D01*
X12739741Y-11706910D01*
X12540351Y-11906300D01*
X12739741Y-12105690D01*
X13215993Y-8295674D02*
X13415383Y-8096284D01*
X13215993Y-7896894D01*
X13016603Y-8096284D01*
X13215993Y-8295674D01*
X13692245Y-10200682D02*
X13891635Y-10001292D01*
X13692245Y-9801902D01*
X13492855Y-10001292D01*
X13692245Y-10200682D01*
X14168497Y-3533154D02*
X14367887Y-3333764D01*
X14168497Y-3134374D01*
X13969107Y-3333764D01*
X14168497Y-3533154D01*
X14168497Y-6390666D02*
X14367887Y-6191276D01*
X14168497Y-5991886D01*
X13969107Y-6191276D01*
X14168497Y-6390666D01*
X14644749Y-12105690D02*
X14844139Y-11906300D01*
X14644749Y-11706910D01*
X14445359Y-11906300D01*
X14644749Y-12105690D01*
X14882875Y-14010698D02*
X15082265Y-13811308D01*
X14882875Y-13611918D01*
X14683485Y-13811308D01*
X14882875Y-14010698D01*
X15121001Y-8295674D02*
X15320391Y-8096284D01*
X15121001Y-7896894D01*
X14921611Y-8096284D01*
X15121001Y-8295674D01*
X15597253Y-10200682D02*
X15796643Y-10001292D01*
X15597253Y-9801902D01*
X15397863Y-10001292D01*
X15597253Y-10200682D01*
X16073505Y-3533154D02*
X16272895Y-3333764D01*
X16073505Y-3134374D01*
X15874115Y-3333764D01*
X16073505Y-3533154D01*
X16073505Y-6390666D02*
X16272895Y-6191276D01*
X16073505Y-5991886D01*
X15874115Y-6191276D01*
X16073505Y-6390666D01*
X17026009Y-8295674D02*
X17225399Y-8096284D01*
X17026009Y-7896894D01*
X16826619Y-8096284D01*
X17026009Y-8295674D01*
X17026014Y-12931190D02*
X17225404Y-12731800D01*
X17026014Y-12532410D01*
X16826624Y-12731800D01*
X17026014Y-12931190D01*
X17264135Y-14010698D02*
X17463525Y-13811308D01*
X17264135Y-13611918D01*
X17064745Y-13811308D01*
X17264135Y-14010698D01*
X17502261Y-10200682D02*
X17701651Y-10001292D01*
X17502261Y-9801902D01*
X17302871Y-10001292D01*
X17502261Y-10200682D01*
X17740392Y-7216166D02*
X17939782Y-7016776D01*
X17740392Y-6817386D01*
X17541002Y-7016776D01*
X17740392Y-7216166D01*
X17978513Y-3533154D02*
X18177903Y-3333764D01*
X17978513Y-3134374D01*
X17779123Y-3333764D01*
X17978513Y-3533154D01*
X18216639Y-12105690D02*
X18416029Y-11906300D01*
X18216639Y-11706910D01*
X18017249Y-11906300D01*
X18216639Y-12105690D01*
X18819895Y-8054378D02*
X19019285Y-7854988D01*
X18819895Y-7655598D01*
X18620505Y-7854988D01*
X18819895Y-8054378D01*
X18819895Y-10441978D02*
X19019285Y-10242588D01*
X18819895Y-10043198D01*
X18620505Y-10242588D01*
X18819895Y-10441978D01*
X18931017Y-6390666D02*
X19130407Y-6191276D01*
X18931017Y-5991886D01*
X18731627Y-6191276D01*
X18931017Y-6390666D01*
X19407264Y-12931190D02*
X19606654Y-12731800D01*
X19407264Y-12532410D01*
X19207874Y-12731800D01*
X19407264Y-12931190D01*
X19645395Y-9248178D02*
X19844785Y-9048788D01*
X19645395Y-8849398D01*
X19446005Y-9048788D01*
X19645395Y-9248178D01*
X19883521Y-3533154D02*
X20082911Y-3333764D01*
X19883521Y-3134374D01*
X19684131Y-3333764D01*
X19883521Y-3533154D01*
X20121642Y-7216166D02*
X20321032Y-7016776D01*
X20121642Y-6817386D01*
X19922252Y-7016776D01*
X20121642Y-7216166D01*
X20359773Y-14486950D02*
X20559163Y-14287560D01*
X20359773Y-14088170D01*
X20160383Y-14287560D01*
X20359773Y-14486950D01*
X22263100Y-8295674D02*
X22462490Y-8096284D01*
X22263100Y-7896894D01*
X22063710Y-8096284D01*
X22263100Y-8295674D01*
X22264781Y-3533154D02*
X22464171Y-3333764D01*
X22264781Y-3134374D01*
X22065391Y-3333764D01*
X22264781Y-3533154D01*
X22264781Y-6390666D02*
X22464171Y-6191276D01*
X22264781Y-5991886D01*
X22065391Y-6191276D01*
X22264781Y-6390666D01*
X22264781Y-12581942D02*
X22464171Y-12382552D01*
X22264781Y-12183162D01*
X22065391Y-12382552D01*
X22264781Y-12581942D01*
X22264781Y-14486950D02*
X22464171Y-14287560D01*
X22264781Y-14088170D01*
X22065391Y-14287560D01*
X22264781Y-14486950D01*
X24169180Y-3533140D02*
X24368570Y-3333750D01*
X24169180Y-3134360D01*
X23969790Y-3333750D01*
X24169180Y-3533140D01*
X24169180Y-14486590D02*
X24368570Y-14287200D01*
X24169180Y-14087810D01*
X23969790Y-14287200D01*
X24169180Y-14486590D01*
X24169789Y-6390666D02*
X24369179Y-6191276D01*
X24169789Y-5991886D01*
X23970399Y-6191276D01*
X24169789Y-6390666D01*
X24169789Y-8295674D02*
X24369179Y-8096284D01*
X24169789Y-7896894D01*
X23970399Y-8096284D01*
X24169789Y-8295674D01*
D12*
X4398477Y-15773984D02*
X4398477Y-15573984D01*
X4398477Y-15573984D02*
X4446096Y-15573984D01*
X4446096Y-15573984D02*
X4474667Y-15583508D01*
X4474667Y-15583508D02*
X4493715Y-15602555D01*
X4493715Y-15602555D02*
X4503239Y-15621603D01*
X4503239Y-15621603D02*
X4512763Y-15659698D01*
X4512763Y-15659698D02*
X4512763Y-15688269D01*
X4512763Y-15688269D02*
X4503239Y-15726365D01*
X4503239Y-15726365D02*
X4493715Y-15745412D01*
X4493715Y-15745412D02*
X4474667Y-15764460D01*
X4474667Y-15764460D02*
X4446096Y-15773984D01*
X4446096Y-15773984D02*
X4398477Y-15773984D01*
X4598477Y-15773984D02*
X4598477Y-15640650D01*
X4598477Y-15678746D02*
X4608001Y-15659698D01*
X4608001Y-15659698D02*
X4617524Y-15650174D01*
X4617524Y-15650174D02*
X4636572Y-15640650D01*
X4636572Y-15640650D02*
X4655620Y-15640650D01*
X4722286Y-15773984D02*
X4722286Y-15640650D01*
X4722286Y-15573984D02*
X4712763Y-15583508D01*
X4712763Y-15583508D02*
X4722286Y-15593031D01*
X4722286Y-15593031D02*
X4731810Y-15583508D01*
X4731810Y-15583508D02*
X4722286Y-15573984D01*
X4722286Y-15573984D02*
X4722286Y-15593031D01*
X4846096Y-15773984D02*
X4827048Y-15764460D01*
X4827048Y-15764460D02*
X4817524Y-15745412D01*
X4817524Y-15745412D02*
X4817524Y-15573984D01*
X4950858Y-15773984D02*
X4931810Y-15764460D01*
X4931810Y-15764460D02*
X4922286Y-15745412D01*
X4922286Y-15745412D02*
X4922286Y-15573984D01*
X5179429Y-15773984D02*
X5179429Y-15573984D01*
X5179429Y-15573984D02*
X5246096Y-15716841D01*
X5246096Y-15716841D02*
X5312763Y-15573984D01*
X5312763Y-15573984D02*
X5312763Y-15773984D01*
X5493715Y-15773984D02*
X5493715Y-15669222D01*
X5493715Y-15669222D02*
X5484191Y-15650174D01*
X5484191Y-15650174D02*
X5465144Y-15640650D01*
X5465144Y-15640650D02*
X5427048Y-15640650D01*
X5427048Y-15640650D02*
X5408001Y-15650174D01*
X5493715Y-15764460D02*
X5474667Y-15773984D01*
X5474667Y-15773984D02*
X5427048Y-15773984D01*
X5427048Y-15773984D02*
X5408001Y-15764460D01*
X5408001Y-15764460D02*
X5398477Y-15745412D01*
X5398477Y-15745412D02*
X5398477Y-15726365D01*
X5398477Y-15726365D02*
X5408001Y-15707317D01*
X5408001Y-15707317D02*
X5427048Y-15697793D01*
X5427048Y-15697793D02*
X5474667Y-15697793D01*
X5474667Y-15697793D02*
X5493715Y-15688269D01*
X5588953Y-15640650D02*
X5588953Y-15840650D01*
X5588953Y-15650174D02*
X5608001Y-15640650D01*
X5608001Y-15640650D02*
X5646096Y-15640650D01*
X5646096Y-15640650D02*
X5665143Y-15650174D01*
X5665143Y-15650174D02*
X5674667Y-15659698D01*
X5674667Y-15659698D02*
X5684191Y-15678746D01*
X5684191Y-15678746D02*
X5684191Y-15735888D01*
X5684191Y-15735888D02*
X5674667Y-15754936D01*
X5674667Y-15754936D02*
X5665143Y-15764460D01*
X5665143Y-15764460D02*
X5646096Y-15773984D01*
X5646096Y-15773984D02*
X5608001Y-15773984D01*
X5608001Y-15773984D02*
X5588953Y-15764460D01*
X5769905Y-15754936D02*
X5779429Y-15764460D01*
X5779429Y-15764460D02*
X5769905Y-15773984D01*
X5769905Y-15773984D02*
X5760382Y-15764460D01*
X5760382Y-15764460D02*
X5769905Y-15754936D01*
X5769905Y-15754936D02*
X5769905Y-15773984D01*
X5769905Y-15650174D02*
X5779429Y-15659698D01*
X5779429Y-15659698D02*
X5769905Y-15669222D01*
X5769905Y-15669222D02*
X5760382Y-15659698D01*
X5760382Y-15659698D02*
X5769905Y-15650174D01*
X5769905Y-15650174D02*
X5769905Y-15669222D01*
D11*
X4057700Y-16062500D02*
X4137700Y-16142500D01*
X4137700Y-16062500D02*
X4057700Y-16142500D01*
D12*
X4436572Y-15993984D02*
X4455620Y-15993984D01*
X4455620Y-15993984D02*
X4474667Y-16003508D01*
X4474667Y-16003508D02*
X4484191Y-16013031D01*
X4484191Y-16013031D02*
X4493715Y-16032079D01*
X4493715Y-16032079D02*
X4503239Y-16070174D01*
X4503239Y-16070174D02*
X4503239Y-16117793D01*
X4503239Y-16117793D02*
X4493715Y-16155888D01*
X4493715Y-16155888D02*
X4484191Y-16174936D01*
X4484191Y-16174936D02*
X4474667Y-16184460D01*
X4474667Y-16184460D02*
X4455620Y-16193984D01*
X4455620Y-16193984D02*
X4436572Y-16193984D01*
X4436572Y-16193984D02*
X4417524Y-16184460D01*
X4417524Y-16184460D02*
X4408001Y-16174936D01*
X4408001Y-16174936D02*
X4398477Y-16155888D01*
X4398477Y-16155888D02*
X4388953Y-16117793D01*
X4388953Y-16117793D02*
X4388953Y-16070174D01*
X4388953Y-16070174D02*
X4398477Y-16032079D01*
X4398477Y-16032079D02*
X4408001Y-16013031D01*
X4408001Y-16013031D02*
X4417524Y-16003508D01*
X4417524Y-16003508D02*
X4436572Y-15993984D01*
X4588953Y-16174936D02*
X4598477Y-16184460D01*
X4598477Y-16184460D02*
X4588953Y-16193984D01*
X4588953Y-16193984D02*
X4579429Y-16184460D01*
X4579429Y-16184460D02*
X4588953Y-16174936D01*
X4588953Y-16174936D02*
X4588953Y-16193984D01*
X4712763Y-16079698D02*
X4693715Y-16070174D01*
X4693715Y-16070174D02*
X4684191Y-16060650D01*
X4684191Y-16060650D02*
X4674667Y-16041603D01*
X4674667Y-16041603D02*
X4674667Y-16032079D01*
X4674667Y-16032079D02*
X4684191Y-16013031D01*
X4684191Y-16013031D02*
X4693715Y-16003508D01*
X4693715Y-16003508D02*
X4712763Y-15993984D01*
X4712763Y-15993984D02*
X4750858Y-15993984D01*
X4750858Y-15993984D02*
X4769905Y-16003508D01*
X4769905Y-16003508D02*
X4779429Y-16013031D01*
X4779429Y-16013031D02*
X4788953Y-16032079D01*
X4788953Y-16032079D02*
X4788953Y-16041603D01*
X4788953Y-16041603D02*
X4779429Y-16060650D01*
X4779429Y-16060650D02*
X4769905Y-16070174D01*
X4769905Y-16070174D02*
X4750858Y-16079698D01*
X4750858Y-16079698D02*
X4712763Y-16079698D01*
X4712763Y-16079698D02*
X4693715Y-16089222D01*
X4693715Y-16089222D02*
X4684191Y-16098746D01*
X4684191Y-16098746D02*
X4674667Y-16117793D01*
X4674667Y-16117793D02*
X4674667Y-16155888D01*
X4674667Y-16155888D02*
X4684191Y-16174936D01*
X4684191Y-16174936D02*
X4693715Y-16184460D01*
X4693715Y-16184460D02*
X4712763Y-16193984D01*
X4712763Y-16193984D02*
X4750858Y-16193984D01*
X4750858Y-16193984D02*
X4769905Y-16184460D01*
X4769905Y-16184460D02*
X4779429Y-16174936D01*
X4779429Y-16174936D02*
X4788953Y-16155888D01*
X4788953Y-16155888D02*
X4788953Y-16117793D01*
X4788953Y-16117793D02*
X4779429Y-16098746D01*
X4779429Y-16098746D02*
X4769905Y-16089222D01*
X4769905Y-16089222D02*
X4750858Y-16079698D01*
X4912763Y-15993984D02*
X4931810Y-15993984D01*
X4931810Y-15993984D02*
X4950858Y-16003508D01*
X4950858Y-16003508D02*
X4960382Y-16013031D01*
X4960382Y-16013031D02*
X4969905Y-16032079D01*
X4969905Y-16032079D02*
X4979429Y-16070174D01*
X4979429Y-16070174D02*
X4979429Y-16117793D01*
X4979429Y-16117793D02*
X4969905Y-16155888D01*
X4969905Y-16155888D02*
X4960382Y-16174936D01*
X4960382Y-16174936D02*
X4950858Y-16184460D01*
X4950858Y-16184460D02*
X4931810Y-16193984D01*
X4931810Y-16193984D02*
X4912763Y-16193984D01*
X4912763Y-16193984D02*
X4893715Y-16184460D01*
X4893715Y-16184460D02*
X4884191Y-16174936D01*
X4884191Y-16174936D02*
X4874667Y-16155888D01*
X4874667Y-16155888D02*
X4865144Y-16117793D01*
X4865144Y-16117793D02*
X4865144Y-16070174D01*
X4865144Y-16070174D02*
X4874667Y-16032079D01*
X4874667Y-16032079D02*
X4884191Y-16013031D01*
X4884191Y-16013031D02*
X4893715Y-16003508D01*
X4893715Y-16003508D02*
X4912763Y-15993984D01*
X5103239Y-15993984D02*
X5122286Y-15993984D01*
X5122286Y-15993984D02*
X5141334Y-16003508D01*
X5141334Y-16003508D02*
X5150858Y-16013031D01*
X5150858Y-16013031D02*
X5160382Y-16032079D01*
X5160382Y-16032079D02*
X5169905Y-16070174D01*
X5169905Y-16070174D02*
X5169905Y-16117793D01*
X5169905Y-16117793D02*
X5160382Y-16155888D01*
X5160382Y-16155888D02*
X5150858Y-16174936D01*
X5150858Y-16174936D02*
X5141334Y-16184460D01*
X5141334Y-16184460D02*
X5122286Y-16193984D01*
X5122286Y-16193984D02*
X5103239Y-16193984D01*
X5103239Y-16193984D02*
X5084191Y-16184460D01*
X5084191Y-16184460D02*
X5074667Y-16174936D01*
X5074667Y-16174936D02*
X5065144Y-16155888D01*
X5065144Y-16155888D02*
X5055620Y-16117793D01*
X5055620Y-16117793D02*
X5055620Y-16070174D01*
X5055620Y-16070174D02*
X5065144Y-16032079D01*
X5065144Y-16032079D02*
X5074667Y-16013031D01*
X5074667Y-16013031D02*
X5084191Y-16003508D01*
X5084191Y-16003508D02*
X5103239Y-15993984D01*
X5255620Y-16193984D02*
X5255620Y-16060650D01*
X5255620Y-16079698D02*
X5265144Y-16070174D01*
X5265144Y-16070174D02*
X5284191Y-16060650D01*
X5284191Y-16060650D02*
X5312763Y-16060650D01*
X5312763Y-16060650D02*
X5331810Y-16070174D01*
X5331810Y-16070174D02*
X5341334Y-16089222D01*
X5341334Y-16089222D02*
X5341334Y-16193984D01*
X5341334Y-16089222D02*
X5350858Y-16070174D01*
X5350858Y-16070174D02*
X5369905Y-16060650D01*
X5369905Y-16060650D02*
X5398477Y-16060650D01*
X5398477Y-16060650D02*
X5417525Y-16070174D01*
X5417525Y-16070174D02*
X5427048Y-16089222D01*
X5427048Y-16089222D02*
X5427048Y-16193984D01*
X5522286Y-16193984D02*
X5522286Y-16060650D01*
X5522286Y-16079698D02*
X5531810Y-16070174D01*
X5531810Y-16070174D02*
X5550858Y-16060650D01*
X5550858Y-16060650D02*
X5579429Y-16060650D01*
X5579429Y-16060650D02*
X5598477Y-16070174D01*
X5598477Y-16070174D02*
X5608001Y-16089222D01*
X5608001Y-16089222D02*
X5608001Y-16193984D01*
X5608001Y-16089222D02*
X5617524Y-16070174D01*
X5617524Y-16070174D02*
X5636572Y-16060650D01*
X5636572Y-16060650D02*
X5665143Y-16060650D01*
X5665143Y-16060650D02*
X5684191Y-16070174D01*
X5684191Y-16070174D02*
X5693715Y-16089222D01*
X5693715Y-16089222D02*
X5693715Y-16193984D01*
X6084191Y-15984460D02*
X5912763Y-16241603D01*
X6341334Y-15993984D02*
X6360382Y-15993984D01*
X6360382Y-15993984D02*
X6379429Y-16003508D01*
X6379429Y-16003508D02*
X6388953Y-16013031D01*
X6388953Y-16013031D02*
X6398477Y-16032079D01*
X6398477Y-16032079D02*
X6408001Y-16070174D01*
X6408001Y-16070174D02*
X6408001Y-16117793D01*
X6408001Y-16117793D02*
X6398477Y-16155888D01*
X6398477Y-16155888D02*
X6388953Y-16174936D01*
X6388953Y-16174936D02*
X6379429Y-16184460D01*
X6379429Y-16184460D02*
X6360382Y-16193984D01*
X6360382Y-16193984D02*
X6341334Y-16193984D01*
X6341334Y-16193984D02*
X6322286Y-16184460D01*
X6322286Y-16184460D02*
X6312763Y-16174936D01*
X6312763Y-16174936D02*
X6303239Y-16155888D01*
X6303239Y-16155888D02*
X6293715Y-16117793D01*
X6293715Y-16117793D02*
X6293715Y-16070174D01*
X6293715Y-16070174D02*
X6303239Y-16032079D01*
X6303239Y-16032079D02*
X6312763Y-16013031D01*
X6312763Y-16013031D02*
X6322286Y-16003508D01*
X6322286Y-16003508D02*
X6341334Y-15993984D01*
X6493715Y-16174936D02*
X6503239Y-16184460D01*
X6503239Y-16184460D02*
X6493715Y-16193984D01*
X6493715Y-16193984D02*
X6484191Y-16184460D01*
X6484191Y-16184460D02*
X6493715Y-16174936D01*
X6493715Y-16174936D02*
X6493715Y-16193984D01*
X6627048Y-15993984D02*
X6646096Y-15993984D01*
X6646096Y-15993984D02*
X6665144Y-16003508D01*
X6665144Y-16003508D02*
X6674667Y-16013031D01*
X6674667Y-16013031D02*
X6684191Y-16032079D01*
X6684191Y-16032079D02*
X6693715Y-16070174D01*
X6693715Y-16070174D02*
X6693715Y-16117793D01*
X6693715Y-16117793D02*
X6684191Y-16155888D01*
X6684191Y-16155888D02*
X6674667Y-16174936D01*
X6674667Y-16174936D02*
X6665144Y-16184460D01*
X6665144Y-16184460D02*
X6646096Y-16193984D01*
X6646096Y-16193984D02*
X6627048Y-16193984D01*
X6627048Y-16193984D02*
X6608001Y-16184460D01*
X6608001Y-16184460D02*
X6598477Y-16174936D01*
X6598477Y-16174936D02*
X6588953Y-16155888D01*
X6588953Y-16155888D02*
X6579429Y-16117793D01*
X6579429Y-16117793D02*
X6579429Y-16070174D01*
X6579429Y-16070174D02*
X6588953Y-16032079D01*
X6588953Y-16032079D02*
X6598477Y-16013031D01*
X6598477Y-16013031D02*
X6608001Y-16003508D01*
X6608001Y-16003508D02*
X6627048Y-15993984D01*
X6760382Y-15993984D02*
X6884191Y-15993984D01*
X6884191Y-15993984D02*
X6817525Y-16070174D01*
X6817525Y-16070174D02*
X6846096Y-16070174D01*
X6846096Y-16070174D02*
X6865144Y-16079698D01*
X6865144Y-16079698D02*
X6874667Y-16089222D01*
X6874667Y-16089222D02*
X6884191Y-16108269D01*
X6884191Y-16108269D02*
X6884191Y-16155888D01*
X6884191Y-16155888D02*
X6874667Y-16174936D01*
X6874667Y-16174936D02*
X6865144Y-16184460D01*
X6865144Y-16184460D02*
X6846096Y-16193984D01*
X6846096Y-16193984D02*
X6788953Y-16193984D01*
X6788953Y-16193984D02*
X6769906Y-16184460D01*
X6769906Y-16184460D02*
X6760382Y-16174936D01*
X7074667Y-16193984D02*
X6960382Y-16193984D01*
X7017525Y-16193984D02*
X7017525Y-15993984D01*
X7017525Y-15993984D02*
X6998477Y-16022555D01*
X6998477Y-16022555D02*
X6979429Y-16041603D01*
X6979429Y-16041603D02*
X6960382Y-16051127D01*
X7255620Y-15993984D02*
X7160382Y-15993984D01*
X7160382Y-15993984D02*
X7150858Y-16089222D01*
X7150858Y-16089222D02*
X7160382Y-16079698D01*
X7160382Y-16079698D02*
X7179429Y-16070174D01*
X7179429Y-16070174D02*
X7227048Y-16070174D01*
X7227048Y-16070174D02*
X7246096Y-16079698D01*
X7246096Y-16079698D02*
X7255620Y-16089222D01*
X7255620Y-16089222D02*
X7265144Y-16108269D01*
X7265144Y-16108269D02*
X7265144Y-16155888D01*
X7265144Y-16155888D02*
X7255620Y-16174936D01*
X7255620Y-16174936D02*
X7246096Y-16184460D01*
X7246096Y-16184460D02*
X7227048Y-16193984D01*
X7227048Y-16193984D02*
X7179429Y-16193984D01*
X7179429Y-16193984D02*
X7160382Y-16184460D01*
X7160382Y-16184460D02*
X7150858Y-16174936D01*
X7341334Y-15993984D02*
X7341334Y-16032079D01*
X7417525Y-15993984D02*
X7417525Y-16032079D01*
X7712763Y-16270174D02*
X7703239Y-16260650D01*
X7703239Y-16260650D02*
X7684191Y-16232079D01*
X7684191Y-16232079D02*
X7674668Y-16213031D01*
X7674668Y-16213031D02*
X7665144Y-16184460D01*
X7665144Y-16184460D02*
X7655620Y-16136841D01*
X7655620Y-16136841D02*
X7655620Y-16098746D01*
X7655620Y-16098746D02*
X7665144Y-16051127D01*
X7665144Y-16051127D02*
X7674668Y-16022555D01*
X7674668Y-16022555D02*
X7684191Y-16003508D01*
X7684191Y-16003508D02*
X7703239Y-15974936D01*
X7703239Y-15974936D02*
X7712763Y-15965412D01*
X7779429Y-16013031D02*
X7788953Y-16003508D01*
X7788953Y-16003508D02*
X7808001Y-15993984D01*
X7808001Y-15993984D02*
X7855620Y-15993984D01*
X7855620Y-15993984D02*
X7874668Y-16003508D01*
X7874668Y-16003508D02*
X7884191Y-16013031D01*
X7884191Y-16013031D02*
X7893715Y-16032079D01*
X7893715Y-16032079D02*
X7893715Y-16051127D01*
X7893715Y-16051127D02*
X7884191Y-16079698D01*
X7884191Y-16079698D02*
X7769906Y-16193984D01*
X7769906Y-16193984D02*
X7893715Y-16193984D01*
X8131810Y-16193984D02*
X8131810Y-15993984D01*
X8217525Y-16193984D02*
X8217525Y-16089222D01*
X8217525Y-16089222D02*
X8208001Y-16070174D01*
X8208001Y-16070174D02*
X8188953Y-16060650D01*
X8188953Y-16060650D02*
X8160382Y-16060650D01*
X8160382Y-16060650D02*
X8141334Y-16070174D01*
X8141334Y-16070174D02*
X8131810Y-16079698D01*
X8341334Y-16193984D02*
X8322287Y-16184460D01*
X8322287Y-16184460D02*
X8312763Y-16174936D01*
X8312763Y-16174936D02*
X8303239Y-16155888D01*
X8303239Y-16155888D02*
X8303239Y-16098746D01*
X8303239Y-16098746D02*
X8312763Y-16079698D01*
X8312763Y-16079698D02*
X8322287Y-16070174D01*
X8322287Y-16070174D02*
X8341334Y-16060650D01*
X8341334Y-16060650D02*
X8369906Y-16060650D01*
X8369906Y-16060650D02*
X8388953Y-16070174D01*
X8388953Y-16070174D02*
X8398477Y-16079698D01*
X8398477Y-16079698D02*
X8408001Y-16098746D01*
X8408001Y-16098746D02*
X8408001Y-16155888D01*
X8408001Y-16155888D02*
X8398477Y-16174936D01*
X8398477Y-16174936D02*
X8388953Y-16184460D01*
X8388953Y-16184460D02*
X8369906Y-16193984D01*
X8369906Y-16193984D02*
X8341334Y-16193984D01*
X8522287Y-16193984D02*
X8503239Y-16184460D01*
X8503239Y-16184460D02*
X8493715Y-16165412D01*
X8493715Y-16165412D02*
X8493715Y-15993984D01*
X8674668Y-16184460D02*
X8655620Y-16193984D01*
X8655620Y-16193984D02*
X8617525Y-16193984D01*
X8617525Y-16193984D02*
X8598477Y-16184460D01*
X8598477Y-16184460D02*
X8588953Y-16165412D01*
X8588953Y-16165412D02*
X8588953Y-16089222D01*
X8588953Y-16089222D02*
X8598477Y-16070174D01*
X8598477Y-16070174D02*
X8617525Y-16060650D01*
X8617525Y-16060650D02*
X8655620Y-16060650D01*
X8655620Y-16060650D02*
X8674668Y-16070174D01*
X8674668Y-16070174D02*
X8684192Y-16089222D01*
X8684192Y-16089222D02*
X8684192Y-16108269D01*
X8684192Y-16108269D02*
X8588953Y-16127317D01*
X8760382Y-16184460D02*
X8779430Y-16193984D01*
X8779430Y-16193984D02*
X8817525Y-16193984D01*
X8817525Y-16193984D02*
X8836573Y-16184460D01*
X8836573Y-16184460D02*
X8846096Y-16165412D01*
X8846096Y-16165412D02*
X8846096Y-16155888D01*
X8846096Y-16155888D02*
X8836573Y-16136841D01*
X8836573Y-16136841D02*
X8817525Y-16127317D01*
X8817525Y-16127317D02*
X8788953Y-16127317D01*
X8788953Y-16127317D02*
X8769906Y-16117793D01*
X8769906Y-16117793D02*
X8760382Y-16098746D01*
X8760382Y-16098746D02*
X8760382Y-16089222D01*
X8760382Y-16089222D02*
X8769906Y-16070174D01*
X8769906Y-16070174D02*
X8788953Y-16060650D01*
X8788953Y-16060650D02*
X8817525Y-16060650D01*
X8817525Y-16060650D02*
X8836573Y-16070174D01*
X8912763Y-16270174D02*
X8922287Y-16260650D01*
X8922287Y-16260650D02*
X8941334Y-16232079D01*
X8941334Y-16232079D02*
X8950858Y-16213031D01*
X8950858Y-16213031D02*
X8960382Y-16184460D01*
X8960382Y-16184460D02*
X8969906Y-16136841D01*
X8969906Y-16136841D02*
X8969906Y-16098746D01*
X8969906Y-16098746D02*
X8960382Y-16051127D01*
X8960382Y-16051127D02*
X8950858Y-16022555D01*
X8950858Y-16022555D02*
X8941334Y-16003508D01*
X8941334Y-16003508D02*
X8922287Y-15974936D01*
X8922287Y-15974936D02*
X8912763Y-15965412D01*
X9274668Y-16270174D02*
X9265144Y-16260650D01*
X9265144Y-16260650D02*
X9246096Y-16232079D01*
X9246096Y-16232079D02*
X9236573Y-16213031D01*
X9236573Y-16213031D02*
X9227049Y-16184460D01*
X9227049Y-16184460D02*
X9217525Y-16136841D01*
X9217525Y-16136841D02*
X9217525Y-16098746D01*
X9217525Y-16098746D02*
X9227049Y-16051127D01*
X9227049Y-16051127D02*
X9236573Y-16022555D01*
X9236573Y-16022555D02*
X9246096Y-16003508D01*
X9246096Y-16003508D02*
X9265144Y-15974936D01*
X9265144Y-15974936D02*
X9274668Y-15965412D01*
X9350858Y-16060650D02*
X9350858Y-16193984D01*
X9350858Y-16079698D02*
X9360382Y-16070174D01*
X9360382Y-16070174D02*
X9379430Y-16060650D01*
X9379430Y-16060650D02*
X9408001Y-16060650D01*
X9408001Y-16060650D02*
X9427049Y-16070174D01*
X9427049Y-16070174D02*
X9436573Y-16089222D01*
X9436573Y-16089222D02*
X9436573Y-16193984D01*
X9560382Y-16193984D02*
X9541334Y-16184460D01*
X9541334Y-16184460D02*
X9531811Y-16174936D01*
X9531811Y-16174936D02*
X9522287Y-16155888D01*
X9522287Y-16155888D02*
X9522287Y-16098746D01*
X9522287Y-16098746D02*
X9531811Y-16079698D01*
X9531811Y-16079698D02*
X9541334Y-16070174D01*
X9541334Y-16070174D02*
X9560382Y-16060650D01*
X9560382Y-16060650D02*
X9588954Y-16060650D01*
X9588954Y-16060650D02*
X9608001Y-16070174D01*
X9608001Y-16070174D02*
X9617525Y-16079698D01*
X9617525Y-16079698D02*
X9627049Y-16098746D01*
X9627049Y-16098746D02*
X9627049Y-16155888D01*
X9627049Y-16155888D02*
X9617525Y-16174936D01*
X9617525Y-16174936D02*
X9608001Y-16184460D01*
X9608001Y-16184460D02*
X9588954Y-16193984D01*
X9588954Y-16193984D02*
X9560382Y-16193984D01*
X9684192Y-16060650D02*
X9760382Y-16060650D01*
X9712763Y-15993984D02*
X9712763Y-16165412D01*
X9712763Y-16165412D02*
X9722287Y-16184460D01*
X9722287Y-16184460D02*
X9741334Y-16193984D01*
X9741334Y-16193984D02*
X9760382Y-16193984D01*
X9979430Y-16060650D02*
X9979430Y-16260650D01*
X9979430Y-16070174D02*
X9998477Y-16060650D01*
X9998477Y-16060650D02*
X10036573Y-16060650D01*
X10036573Y-16060650D02*
X10055620Y-16070174D01*
X10055620Y-16070174D02*
X10065144Y-16079698D01*
X10065144Y-16079698D02*
X10074668Y-16098746D01*
X10074668Y-16098746D02*
X10074668Y-16155888D01*
X10074668Y-16155888D02*
X10065144Y-16174936D01*
X10065144Y-16174936D02*
X10055620Y-16184460D01*
X10055620Y-16184460D02*
X10036573Y-16193984D01*
X10036573Y-16193984D02*
X9998477Y-16193984D01*
X9998477Y-16193984D02*
X9979430Y-16184460D01*
X10188954Y-16193984D02*
X10169906Y-16184460D01*
X10169906Y-16184460D02*
X10160382Y-16165412D01*
X10160382Y-16165412D02*
X10160382Y-15993984D01*
X10350858Y-16193984D02*
X10350858Y-16089222D01*
X10350858Y-16089222D02*
X10341335Y-16070174D01*
X10341335Y-16070174D02*
X10322287Y-16060650D01*
X10322287Y-16060650D02*
X10284192Y-16060650D01*
X10284192Y-16060650D02*
X10265144Y-16070174D01*
X10350858Y-16184460D02*
X10331811Y-16193984D01*
X10331811Y-16193984D02*
X10284192Y-16193984D01*
X10284192Y-16193984D02*
X10265144Y-16184460D01*
X10265144Y-16184460D02*
X10255620Y-16165412D01*
X10255620Y-16165412D02*
X10255620Y-16146365D01*
X10255620Y-16146365D02*
X10265144Y-16127317D01*
X10265144Y-16127317D02*
X10284192Y-16117793D01*
X10284192Y-16117793D02*
X10331811Y-16117793D01*
X10331811Y-16117793D02*
X10350858Y-16108269D01*
X10417525Y-16060650D02*
X10493715Y-16060650D01*
X10446096Y-15993984D02*
X10446096Y-16165412D01*
X10446096Y-16165412D02*
X10455620Y-16184460D01*
X10455620Y-16184460D02*
X10474668Y-16193984D01*
X10474668Y-16193984D02*
X10493715Y-16193984D01*
X10636573Y-16184460D02*
X10617525Y-16193984D01*
X10617525Y-16193984D02*
X10579430Y-16193984D01*
X10579430Y-16193984D02*
X10560382Y-16184460D01*
X10560382Y-16184460D02*
X10550858Y-16165412D01*
X10550858Y-16165412D02*
X10550858Y-16089222D01*
X10550858Y-16089222D02*
X10560382Y-16070174D01*
X10560382Y-16070174D02*
X10579430Y-16060650D01*
X10579430Y-16060650D02*
X10617525Y-16060650D01*
X10617525Y-16060650D02*
X10636573Y-16070174D01*
X10636573Y-16070174D02*
X10646096Y-16089222D01*
X10646096Y-16089222D02*
X10646096Y-16108269D01*
X10646096Y-16108269D02*
X10550858Y-16127317D01*
X10817525Y-16193984D02*
X10817525Y-15993984D01*
X10817525Y-16184460D02*
X10798477Y-16193984D01*
X10798477Y-16193984D02*
X10760382Y-16193984D01*
X10760382Y-16193984D02*
X10741335Y-16184460D01*
X10741335Y-16184460D02*
X10731811Y-16174936D01*
X10731811Y-16174936D02*
X10722287Y-16155888D01*
X10722287Y-16155888D02*
X10722287Y-16098746D01*
X10722287Y-16098746D02*
X10731811Y-16079698D01*
X10731811Y-16079698D02*
X10741335Y-16070174D01*
X10741335Y-16070174D02*
X10760382Y-16060650D01*
X10760382Y-16060650D02*
X10798477Y-16060650D01*
X10798477Y-16060650D02*
X10817525Y-16070174D01*
X10893716Y-16270174D02*
X10903239Y-16260650D01*
X10903239Y-16260650D02*
X10922287Y-16232079D01*
X10922287Y-16232079D02*
X10931811Y-16213031D01*
X10931811Y-16213031D02*
X10941335Y-16184460D01*
X10941335Y-16184460D02*
X10950858Y-16136841D01*
X10950858Y-16136841D02*
X10950858Y-16098746D01*
X10950858Y-16098746D02*
X10941335Y-16051127D01*
X10941335Y-16051127D02*
X10931811Y-16022555D01*
X10931811Y-16022555D02*
X10922287Y-16003508D01*
X10922287Y-16003508D02*
X10903239Y-15974936D01*
X10903239Y-15974936D02*
X10893716Y-15965412D01*
D13*
X4137700Y-16366500D02*
G75*
G03*
X4137700Y-16366500I-87500J0D01*
G01*
D12*
X4503239Y-16457984D02*
X4388953Y-16457984D01*
X4446096Y-16457984D02*
X4446096Y-16257984D01*
X4446096Y-16257984D02*
X4427048Y-16286555D01*
X4427048Y-16286555D02*
X4408001Y-16305603D01*
X4408001Y-16305603D02*
X4388953Y-16315127D01*
X4588953Y-16438936D02*
X4598477Y-16448460D01*
X4598477Y-16448460D02*
X4588953Y-16457984D01*
X4588953Y-16457984D02*
X4579429Y-16448460D01*
X4579429Y-16448460D02*
X4588953Y-16438936D01*
X4588953Y-16438936D02*
X4588953Y-16457984D01*
X4665144Y-16257984D02*
X4798477Y-16257984D01*
X4798477Y-16257984D02*
X4712763Y-16457984D01*
X4969905Y-16257984D02*
X4874667Y-16257984D01*
X4874667Y-16257984D02*
X4865144Y-16353222D01*
X4865144Y-16353222D02*
X4874667Y-16343698D01*
X4874667Y-16343698D02*
X4893715Y-16334174D01*
X4893715Y-16334174D02*
X4941334Y-16334174D01*
X4941334Y-16334174D02*
X4960382Y-16343698D01*
X4960382Y-16343698D02*
X4969905Y-16353222D01*
X4969905Y-16353222D02*
X4979429Y-16372269D01*
X4979429Y-16372269D02*
X4979429Y-16419888D01*
X4979429Y-16419888D02*
X4969905Y-16438936D01*
X4969905Y-16438936D02*
X4960382Y-16448460D01*
X4960382Y-16448460D02*
X4941334Y-16457984D01*
X4941334Y-16457984D02*
X4893715Y-16457984D01*
X4893715Y-16457984D02*
X4874667Y-16448460D01*
X4874667Y-16448460D02*
X4865144Y-16438936D01*
X5103239Y-16257984D02*
X5122286Y-16257984D01*
X5122286Y-16257984D02*
X5141334Y-16267508D01*
X5141334Y-16267508D02*
X5150858Y-16277031D01*
X5150858Y-16277031D02*
X5160382Y-16296079D01*
X5160382Y-16296079D02*
X5169905Y-16334174D01*
X5169905Y-16334174D02*
X5169905Y-16381793D01*
X5169905Y-16381793D02*
X5160382Y-16419888D01*
X5160382Y-16419888D02*
X5150858Y-16438936D01*
X5150858Y-16438936D02*
X5141334Y-16448460D01*
X5141334Y-16448460D02*
X5122286Y-16457984D01*
X5122286Y-16457984D02*
X5103239Y-16457984D01*
X5103239Y-16457984D02*
X5084191Y-16448460D01*
X5084191Y-16448460D02*
X5074667Y-16438936D01*
X5074667Y-16438936D02*
X5065144Y-16419888D01*
X5065144Y-16419888D02*
X5055620Y-16381793D01*
X5055620Y-16381793D02*
X5055620Y-16334174D01*
X5055620Y-16334174D02*
X5065144Y-16296079D01*
X5065144Y-16296079D02*
X5074667Y-16277031D01*
X5074667Y-16277031D02*
X5084191Y-16267508D01*
X5084191Y-16267508D02*
X5103239Y-16257984D01*
X5255620Y-16457984D02*
X5255620Y-16324650D01*
X5255620Y-16343698D02*
X5265144Y-16334174D01*
X5265144Y-16334174D02*
X5284191Y-16324650D01*
X5284191Y-16324650D02*
X5312763Y-16324650D01*
X5312763Y-16324650D02*
X5331810Y-16334174D01*
X5331810Y-16334174D02*
X5341334Y-16353222D01*
X5341334Y-16353222D02*
X5341334Y-16457984D01*
X5341334Y-16353222D02*
X5350858Y-16334174D01*
X5350858Y-16334174D02*
X5369905Y-16324650D01*
X5369905Y-16324650D02*
X5398477Y-16324650D01*
X5398477Y-16324650D02*
X5417525Y-16334174D01*
X5417525Y-16334174D02*
X5427048Y-16353222D01*
X5427048Y-16353222D02*
X5427048Y-16457984D01*
X5522286Y-16457984D02*
X5522286Y-16324650D01*
X5522286Y-16343698D02*
X5531810Y-16334174D01*
X5531810Y-16334174D02*
X5550858Y-16324650D01*
X5550858Y-16324650D02*
X5579429Y-16324650D01*
X5579429Y-16324650D02*
X5598477Y-16334174D01*
X5598477Y-16334174D02*
X5608001Y-16353222D01*
X5608001Y-16353222D02*
X5608001Y-16457984D01*
X5608001Y-16353222D02*
X5617524Y-16334174D01*
X5617524Y-16334174D02*
X5636572Y-16324650D01*
X5636572Y-16324650D02*
X5665143Y-16324650D01*
X5665143Y-16324650D02*
X5684191Y-16334174D01*
X5684191Y-16334174D02*
X5693715Y-16353222D01*
X5693715Y-16353222D02*
X5693715Y-16457984D01*
X6084191Y-16248460D02*
X5912763Y-16505603D01*
X6341334Y-16257984D02*
X6360382Y-16257984D01*
X6360382Y-16257984D02*
X6379429Y-16267508D01*
X6379429Y-16267508D02*
X6388953Y-16277031D01*
X6388953Y-16277031D02*
X6398477Y-16296079D01*
X6398477Y-16296079D02*
X6408001Y-16334174D01*
X6408001Y-16334174D02*
X6408001Y-16381793D01*
X6408001Y-16381793D02*
X6398477Y-16419888D01*
X6398477Y-16419888D02*
X6388953Y-16438936D01*
X6388953Y-16438936D02*
X6379429Y-16448460D01*
X6379429Y-16448460D02*
X6360382Y-16457984D01*
X6360382Y-16457984D02*
X6341334Y-16457984D01*
X6341334Y-16457984D02*
X6322286Y-16448460D01*
X6322286Y-16448460D02*
X6312763Y-16438936D01*
X6312763Y-16438936D02*
X6303239Y-16419888D01*
X6303239Y-16419888D02*
X6293715Y-16381793D01*
X6293715Y-16381793D02*
X6293715Y-16334174D01*
X6293715Y-16334174D02*
X6303239Y-16296079D01*
X6303239Y-16296079D02*
X6312763Y-16277031D01*
X6312763Y-16277031D02*
X6322286Y-16267508D01*
X6322286Y-16267508D02*
X6341334Y-16257984D01*
X6493715Y-16438936D02*
X6503239Y-16448460D01*
X6503239Y-16448460D02*
X6493715Y-16457984D01*
X6493715Y-16457984D02*
X6484191Y-16448460D01*
X6484191Y-16448460D02*
X6493715Y-16438936D01*
X6493715Y-16438936D02*
X6493715Y-16457984D01*
X6627048Y-16257984D02*
X6646096Y-16257984D01*
X6646096Y-16257984D02*
X6665144Y-16267508D01*
X6665144Y-16267508D02*
X6674667Y-16277031D01*
X6674667Y-16277031D02*
X6684191Y-16296079D01*
X6684191Y-16296079D02*
X6693715Y-16334174D01*
X6693715Y-16334174D02*
X6693715Y-16381793D01*
X6693715Y-16381793D02*
X6684191Y-16419888D01*
X6684191Y-16419888D02*
X6674667Y-16438936D01*
X6674667Y-16438936D02*
X6665144Y-16448460D01*
X6665144Y-16448460D02*
X6646096Y-16457984D01*
X6646096Y-16457984D02*
X6627048Y-16457984D01*
X6627048Y-16457984D02*
X6608001Y-16448460D01*
X6608001Y-16448460D02*
X6598477Y-16438936D01*
X6598477Y-16438936D02*
X6588953Y-16419888D01*
X6588953Y-16419888D02*
X6579429Y-16381793D01*
X6579429Y-16381793D02*
X6579429Y-16334174D01*
X6579429Y-16334174D02*
X6588953Y-16296079D01*
X6588953Y-16296079D02*
X6598477Y-16277031D01*
X6598477Y-16277031D02*
X6608001Y-16267508D01*
X6608001Y-16267508D02*
X6627048Y-16257984D01*
X6865144Y-16257984D02*
X6827048Y-16257984D01*
X6827048Y-16257984D02*
X6808001Y-16267508D01*
X6808001Y-16267508D02*
X6798477Y-16277031D01*
X6798477Y-16277031D02*
X6779429Y-16305603D01*
X6779429Y-16305603D02*
X6769906Y-16343698D01*
X6769906Y-16343698D02*
X6769906Y-16419888D01*
X6769906Y-16419888D02*
X6779429Y-16438936D01*
X6779429Y-16438936D02*
X6788953Y-16448460D01*
X6788953Y-16448460D02*
X6808001Y-16457984D01*
X6808001Y-16457984D02*
X6846096Y-16457984D01*
X6846096Y-16457984D02*
X6865144Y-16448460D01*
X6865144Y-16448460D02*
X6874667Y-16438936D01*
X6874667Y-16438936D02*
X6884191Y-16419888D01*
X6884191Y-16419888D02*
X6884191Y-16372269D01*
X6884191Y-16372269D02*
X6874667Y-16353222D01*
X6874667Y-16353222D02*
X6865144Y-16343698D01*
X6865144Y-16343698D02*
X6846096Y-16334174D01*
X6846096Y-16334174D02*
X6808001Y-16334174D01*
X6808001Y-16334174D02*
X6788953Y-16343698D01*
X6788953Y-16343698D02*
X6779429Y-16353222D01*
X6779429Y-16353222D02*
X6769906Y-16372269D01*
X6998477Y-16343698D02*
X6979429Y-16334174D01*
X6979429Y-16334174D02*
X6969906Y-16324650D01*
X6969906Y-16324650D02*
X6960382Y-16305603D01*
X6960382Y-16305603D02*
X6960382Y-16296079D01*
X6960382Y-16296079D02*
X6969906Y-16277031D01*
X6969906Y-16277031D02*
X6979429Y-16267508D01*
X6979429Y-16267508D02*
X6998477Y-16257984D01*
X6998477Y-16257984D02*
X7036572Y-16257984D01*
X7036572Y-16257984D02*
X7055620Y-16267508D01*
X7055620Y-16267508D02*
X7065144Y-16277031D01*
X7065144Y-16277031D02*
X7074667Y-16296079D01*
X7074667Y-16296079D02*
X7074667Y-16305603D01*
X7074667Y-16305603D02*
X7065144Y-16324650D01*
X7065144Y-16324650D02*
X7055620Y-16334174D01*
X7055620Y-16334174D02*
X7036572Y-16343698D01*
X7036572Y-16343698D02*
X6998477Y-16343698D01*
X6998477Y-16343698D02*
X6979429Y-16353222D01*
X6979429Y-16353222D02*
X6969906Y-16362746D01*
X6969906Y-16362746D02*
X6960382Y-16381793D01*
X6960382Y-16381793D02*
X6960382Y-16419888D01*
X6960382Y-16419888D02*
X6969906Y-16438936D01*
X6969906Y-16438936D02*
X6979429Y-16448460D01*
X6979429Y-16448460D02*
X6998477Y-16457984D01*
X6998477Y-16457984D02*
X7036572Y-16457984D01*
X7036572Y-16457984D02*
X7055620Y-16448460D01*
X7055620Y-16448460D02*
X7065144Y-16438936D01*
X7065144Y-16438936D02*
X7074667Y-16419888D01*
X7074667Y-16419888D02*
X7074667Y-16381793D01*
X7074667Y-16381793D02*
X7065144Y-16362746D01*
X7065144Y-16362746D02*
X7055620Y-16353222D01*
X7055620Y-16353222D02*
X7036572Y-16343698D01*
X7169906Y-16457984D02*
X7208001Y-16457984D01*
X7208001Y-16457984D02*
X7227048Y-16448460D01*
X7227048Y-16448460D02*
X7236572Y-16438936D01*
X7236572Y-16438936D02*
X7255620Y-16410365D01*
X7255620Y-16410365D02*
X7265144Y-16372269D01*
X7265144Y-16372269D02*
X7265144Y-16296079D01*
X7265144Y-16296079D02*
X7255620Y-16277031D01*
X7255620Y-16277031D02*
X7246096Y-16267508D01*
X7246096Y-16267508D02*
X7227048Y-16257984D01*
X7227048Y-16257984D02*
X7188953Y-16257984D01*
X7188953Y-16257984D02*
X7169906Y-16267508D01*
X7169906Y-16267508D02*
X7160382Y-16277031D01*
X7160382Y-16277031D02*
X7150858Y-16296079D01*
X7150858Y-16296079D02*
X7150858Y-16343698D01*
X7150858Y-16343698D02*
X7160382Y-16362746D01*
X7160382Y-16362746D02*
X7169906Y-16372269D01*
X7169906Y-16372269D02*
X7188953Y-16381793D01*
X7188953Y-16381793D02*
X7227048Y-16381793D01*
X7227048Y-16381793D02*
X7246096Y-16372269D01*
X7246096Y-16372269D02*
X7255620Y-16362746D01*
X7255620Y-16362746D02*
X7265144Y-16343698D01*
X7341334Y-16257984D02*
X7341334Y-16296079D01*
X7417525Y-16257984D02*
X7417525Y-16296079D01*
X7712763Y-16534174D02*
X7703239Y-16524650D01*
X7703239Y-16524650D02*
X7684191Y-16496079D01*
X7684191Y-16496079D02*
X7674668Y-16477031D01*
X7674668Y-16477031D02*
X7665144Y-16448460D01*
X7665144Y-16448460D02*
X7655620Y-16400841D01*
X7655620Y-16400841D02*
X7655620Y-16362746D01*
X7655620Y-16362746D02*
X7665144Y-16315127D01*
X7665144Y-16315127D02*
X7674668Y-16286555D01*
X7674668Y-16286555D02*
X7684191Y-16267508D01*
X7684191Y-16267508D02*
X7703239Y-16238936D01*
X7703239Y-16238936D02*
X7712763Y-16229412D01*
X7893715Y-16457984D02*
X7779429Y-16457984D01*
X7836572Y-16457984D02*
X7836572Y-16257984D01*
X7836572Y-16257984D02*
X7817525Y-16286555D01*
X7817525Y-16286555D02*
X7798477Y-16305603D01*
X7798477Y-16305603D02*
X7779429Y-16315127D01*
X8017525Y-16257984D02*
X8036572Y-16257984D01*
X8036572Y-16257984D02*
X8055620Y-16267508D01*
X8055620Y-16267508D02*
X8065144Y-16277031D01*
X8065144Y-16277031D02*
X8074668Y-16296079D01*
X8074668Y-16296079D02*
X8084191Y-16334174D01*
X8084191Y-16334174D02*
X8084191Y-16381793D01*
X8084191Y-16381793D02*
X8074668Y-16419888D01*
X8074668Y-16419888D02*
X8065144Y-16438936D01*
X8065144Y-16438936D02*
X8055620Y-16448460D01*
X8055620Y-16448460D02*
X8036572Y-16457984D01*
X8036572Y-16457984D02*
X8017525Y-16457984D01*
X8017525Y-16457984D02*
X7998477Y-16448460D01*
X7998477Y-16448460D02*
X7988953Y-16438936D01*
X7988953Y-16438936D02*
X7979429Y-16419888D01*
X7979429Y-16419888D02*
X7969906Y-16381793D01*
X7969906Y-16381793D02*
X7969906Y-16334174D01*
X7969906Y-16334174D02*
X7979429Y-16296079D01*
X7979429Y-16296079D02*
X7988953Y-16277031D01*
X7988953Y-16277031D02*
X7998477Y-16267508D01*
X7998477Y-16267508D02*
X8017525Y-16257984D01*
X8160382Y-16277031D02*
X8169906Y-16267508D01*
X8169906Y-16267508D02*
X8188953Y-16257984D01*
X8188953Y-16257984D02*
X8236572Y-16257984D01*
X8236572Y-16257984D02*
X8255620Y-16267508D01*
X8255620Y-16267508D02*
X8265144Y-16277031D01*
X8265144Y-16277031D02*
X8274668Y-16296079D01*
X8274668Y-16296079D02*
X8274668Y-16315127D01*
X8274668Y-16315127D02*
X8265144Y-16343698D01*
X8265144Y-16343698D02*
X8150858Y-16457984D01*
X8150858Y-16457984D02*
X8274668Y-16457984D01*
X8512763Y-16457984D02*
X8512763Y-16257984D01*
X8598477Y-16457984D02*
X8598477Y-16353222D01*
X8598477Y-16353222D02*
X8588953Y-16334174D01*
X8588953Y-16334174D02*
X8569906Y-16324650D01*
X8569906Y-16324650D02*
X8541334Y-16324650D01*
X8541334Y-16324650D02*
X8522287Y-16334174D01*
X8522287Y-16334174D02*
X8512763Y-16343698D01*
X8722287Y-16457984D02*
X8703239Y-16448460D01*
X8703239Y-16448460D02*
X8693715Y-16438936D01*
X8693715Y-16438936D02*
X8684192Y-16419888D01*
X8684192Y-16419888D02*
X8684192Y-16362746D01*
X8684192Y-16362746D02*
X8693715Y-16343698D01*
X8693715Y-16343698D02*
X8703239Y-16334174D01*
X8703239Y-16334174D02*
X8722287Y-16324650D01*
X8722287Y-16324650D02*
X8750858Y-16324650D01*
X8750858Y-16324650D02*
X8769906Y-16334174D01*
X8769906Y-16334174D02*
X8779430Y-16343698D01*
X8779430Y-16343698D02*
X8788953Y-16362746D01*
X8788953Y-16362746D02*
X8788953Y-16419888D01*
X8788953Y-16419888D02*
X8779430Y-16438936D01*
X8779430Y-16438936D02*
X8769906Y-16448460D01*
X8769906Y-16448460D02*
X8750858Y-16457984D01*
X8750858Y-16457984D02*
X8722287Y-16457984D01*
X8903239Y-16457984D02*
X8884192Y-16448460D01*
X8884192Y-16448460D02*
X8874668Y-16429412D01*
X8874668Y-16429412D02*
X8874668Y-16257984D01*
X9055620Y-16448460D02*
X9036573Y-16457984D01*
X9036573Y-16457984D02*
X8998477Y-16457984D01*
X8998477Y-16457984D02*
X8979430Y-16448460D01*
X8979430Y-16448460D02*
X8969906Y-16429412D01*
X8969906Y-16429412D02*
X8969906Y-16353222D01*
X8969906Y-16353222D02*
X8979430Y-16334174D01*
X8979430Y-16334174D02*
X8998477Y-16324650D01*
X8998477Y-16324650D02*
X9036573Y-16324650D01*
X9036573Y-16324650D02*
X9055620Y-16334174D01*
X9055620Y-16334174D02*
X9065144Y-16353222D01*
X9065144Y-16353222D02*
X9065144Y-16372269D01*
X9065144Y-16372269D02*
X8969906Y-16391317D01*
X9141334Y-16448460D02*
X9160382Y-16457984D01*
X9160382Y-16457984D02*
X9198477Y-16457984D01*
X9198477Y-16457984D02*
X9217525Y-16448460D01*
X9217525Y-16448460D02*
X9227049Y-16429412D01*
X9227049Y-16429412D02*
X9227049Y-16419888D01*
X9227049Y-16419888D02*
X9217525Y-16400841D01*
X9217525Y-16400841D02*
X9198477Y-16391317D01*
X9198477Y-16391317D02*
X9169906Y-16391317D01*
X9169906Y-16391317D02*
X9150858Y-16381793D01*
X9150858Y-16381793D02*
X9141334Y-16362746D01*
X9141334Y-16362746D02*
X9141334Y-16353222D01*
X9141334Y-16353222D02*
X9150858Y-16334174D01*
X9150858Y-16334174D02*
X9169906Y-16324650D01*
X9169906Y-16324650D02*
X9198477Y-16324650D01*
X9198477Y-16324650D02*
X9217525Y-16334174D01*
X9293715Y-16534174D02*
X9303239Y-16524650D01*
X9303239Y-16524650D02*
X9322287Y-16496079D01*
X9322287Y-16496079D02*
X9331811Y-16477031D01*
X9331811Y-16477031D02*
X9341334Y-16448460D01*
X9341334Y-16448460D02*
X9350858Y-16400841D01*
X9350858Y-16400841D02*
X9350858Y-16362746D01*
X9350858Y-16362746D02*
X9341334Y-16315127D01*
X9341334Y-16315127D02*
X9331811Y-16286555D01*
X9331811Y-16286555D02*
X9322287Y-16267508D01*
X9322287Y-16267508D02*
X9303239Y-16238936D01*
X9303239Y-16238936D02*
X9293715Y-16229412D01*
X9655620Y-16534174D02*
X9646096Y-16524650D01*
X9646096Y-16524650D02*
X9627049Y-16496079D01*
X9627049Y-16496079D02*
X9617525Y-16477031D01*
X9617525Y-16477031D02*
X9608001Y-16448460D01*
X9608001Y-16448460D02*
X9598477Y-16400841D01*
X9598477Y-16400841D02*
X9598477Y-16362746D01*
X9598477Y-16362746D02*
X9608001Y-16315127D01*
X9608001Y-16315127D02*
X9617525Y-16286555D01*
X9617525Y-16286555D02*
X9627049Y-16267508D01*
X9627049Y-16267508D02*
X9646096Y-16238936D01*
X9646096Y-16238936D02*
X9655620Y-16229412D01*
X9731811Y-16324650D02*
X9731811Y-16457984D01*
X9731811Y-16343698D02*
X9741334Y-16334174D01*
X9741334Y-16334174D02*
X9760382Y-16324650D01*
X9760382Y-16324650D02*
X9788954Y-16324650D01*
X9788954Y-16324650D02*
X9808001Y-16334174D01*
X9808001Y-16334174D02*
X9817525Y-16353222D01*
X9817525Y-16353222D02*
X9817525Y-16457984D01*
X9941334Y-16457984D02*
X9922287Y-16448460D01*
X9922287Y-16448460D02*
X9912763Y-16438936D01*
X9912763Y-16438936D02*
X9903239Y-16419888D01*
X9903239Y-16419888D02*
X9903239Y-16362746D01*
X9903239Y-16362746D02*
X9912763Y-16343698D01*
X9912763Y-16343698D02*
X9922287Y-16334174D01*
X9922287Y-16334174D02*
X9941334Y-16324650D01*
X9941334Y-16324650D02*
X9969906Y-16324650D01*
X9969906Y-16324650D02*
X9988954Y-16334174D01*
X9988954Y-16334174D02*
X9998477Y-16343698D01*
X9998477Y-16343698D02*
X10008001Y-16362746D01*
X10008001Y-16362746D02*
X10008001Y-16419888D01*
X10008001Y-16419888D02*
X9998477Y-16438936D01*
X9998477Y-16438936D02*
X9988954Y-16448460D01*
X9988954Y-16448460D02*
X9969906Y-16457984D01*
X9969906Y-16457984D02*
X9941334Y-16457984D01*
X10065144Y-16324650D02*
X10141334Y-16324650D01*
X10093715Y-16257984D02*
X10093715Y-16429412D01*
X10093715Y-16429412D02*
X10103239Y-16448460D01*
X10103239Y-16448460D02*
X10122287Y-16457984D01*
X10122287Y-16457984D02*
X10141334Y-16457984D01*
X10360382Y-16324650D02*
X10360382Y-16524650D01*
X10360382Y-16334174D02*
X10379430Y-16324650D01*
X10379430Y-16324650D02*
X10417525Y-16324650D01*
X10417525Y-16324650D02*
X10436573Y-16334174D01*
X10436573Y-16334174D02*
X10446096Y-16343698D01*
X10446096Y-16343698D02*
X10455620Y-16362746D01*
X10455620Y-16362746D02*
X10455620Y-16419888D01*
X10455620Y-16419888D02*
X10446096Y-16438936D01*
X10446096Y-16438936D02*
X10436573Y-16448460D01*
X10436573Y-16448460D02*
X10417525Y-16457984D01*
X10417525Y-16457984D02*
X10379430Y-16457984D01*
X10379430Y-16457984D02*
X10360382Y-16448460D01*
X10569906Y-16457984D02*
X10550858Y-16448460D01*
X10550858Y-16448460D02*
X10541335Y-16429412D01*
X10541335Y-16429412D02*
X10541335Y-16257984D01*
X10731811Y-16457984D02*
X10731811Y-16353222D01*
X10731811Y-16353222D02*
X10722287Y-16334174D01*
X10722287Y-16334174D02*
X10703239Y-16324650D01*
X10703239Y-16324650D02*
X10665144Y-16324650D01*
X10665144Y-16324650D02*
X10646096Y-16334174D01*
X10731811Y-16448460D02*
X10712763Y-16457984D01*
X10712763Y-16457984D02*
X10665144Y-16457984D01*
X10665144Y-16457984D02*
X10646096Y-16448460D01*
X10646096Y-16448460D02*
X10636573Y-16429412D01*
X10636573Y-16429412D02*
X10636573Y-16410365D01*
X10636573Y-16410365D02*
X10646096Y-16391317D01*
X10646096Y-16391317D02*
X10665144Y-16381793D01*
X10665144Y-16381793D02*
X10712763Y-16381793D01*
X10712763Y-16381793D02*
X10731811Y-16372269D01*
X10798477Y-16324650D02*
X10874668Y-16324650D01*
X10827049Y-16257984D02*
X10827049Y-16429412D01*
X10827049Y-16429412D02*
X10836573Y-16448460D01*
X10836573Y-16448460D02*
X10855620Y-16457984D01*
X10855620Y-16457984D02*
X10874668Y-16457984D01*
X11017525Y-16448460D02*
X10998477Y-16457984D01*
X10998477Y-16457984D02*
X10960382Y-16457984D01*
X10960382Y-16457984D02*
X10941335Y-16448460D01*
X10941335Y-16448460D02*
X10931811Y-16429412D01*
X10931811Y-16429412D02*
X10931811Y-16353222D01*
X10931811Y-16353222D02*
X10941335Y-16334174D01*
X10941335Y-16334174D02*
X10960382Y-16324650D01*
X10960382Y-16324650D02*
X10998477Y-16324650D01*
X10998477Y-16324650D02*
X11017525Y-16334174D01*
X11017525Y-16334174D02*
X11027049Y-16353222D01*
X11027049Y-16353222D02*
X11027049Y-16372269D01*
X11027049Y-16372269D02*
X10931811Y-16391317D01*
X11198477Y-16457984D02*
X11198477Y-16257984D01*
X11198477Y-16448460D02*
X11179430Y-16457984D01*
X11179430Y-16457984D02*
X11141335Y-16457984D01*
X11141335Y-16457984D02*
X11122287Y-16448460D01*
X11122287Y-16448460D02*
X11112763Y-16438936D01*
X11112763Y-16438936D02*
X11103239Y-16419888D01*
X11103239Y-16419888D02*
X11103239Y-16362746D01*
X11103239Y-16362746D02*
X11112763Y-16343698D01*
X11112763Y-16343698D02*
X11122287Y-16334174D01*
X11122287Y-16334174D02*
X11141335Y-16324650D01*
X11141335Y-16324650D02*
X11179430Y-16324650D01*
X11179430Y-16324650D02*
X11198477Y-16334174D01*
X11274668Y-16534174D02*
X11284192Y-16524650D01*
X11284192Y-16524650D02*
X11303239Y-16496079D01*
X11303239Y-16496079D02*
X11312763Y-16477031D01*
X11312763Y-16477031D02*
X11322287Y-16448460D01*
X11322287Y-16448460D02*
X11331811Y-16400841D01*
X11331811Y-16400841D02*
X11331811Y-16362746D01*
X11331811Y-16362746D02*
X11322287Y-16315127D01*
X11322287Y-16315127D02*
X11312763Y-16286555D01*
X11312763Y-16286555D02*
X11303239Y-16267508D01*
X11303239Y-16267508D02*
X11284192Y-16238936D01*
X11284192Y-16238936D02*
X11274668Y-16229412D01*
X4037700Y-16561500D02*
X4037700Y-16761500D01*
X3937700Y-16661500D02*
X4137700Y-16661500D01*
X4379429Y-16552984D02*
X4503239Y-16552984D01*
X4503239Y-16552984D02*
X4436572Y-16629174D01*
X4436572Y-16629174D02*
X4465144Y-16629174D01*
X4465144Y-16629174D02*
X4484191Y-16638698D01*
X4484191Y-16638698D02*
X4493715Y-16648222D01*
X4493715Y-16648222D02*
X4503239Y-16667269D01*
X4503239Y-16667269D02*
X4503239Y-16714888D01*
X4503239Y-16714888D02*
X4493715Y-16733936D01*
X4493715Y-16733936D02*
X4484191Y-16743460D01*
X4484191Y-16743460D02*
X4465144Y-16752984D01*
X4465144Y-16752984D02*
X4408001Y-16752984D01*
X4408001Y-16752984D02*
X4388953Y-16743460D01*
X4388953Y-16743460D02*
X4379429Y-16733936D01*
X4588953Y-16733936D02*
X4598477Y-16743460D01*
X4598477Y-16743460D02*
X4588953Y-16752984D01*
X4588953Y-16752984D02*
X4579429Y-16743460D01*
X4579429Y-16743460D02*
X4588953Y-16733936D01*
X4588953Y-16733936D02*
X4588953Y-16752984D01*
X4722286Y-16552984D02*
X4741334Y-16552984D01*
X4741334Y-16552984D02*
X4760382Y-16562508D01*
X4760382Y-16562508D02*
X4769905Y-16572031D01*
X4769905Y-16572031D02*
X4779429Y-16591079D01*
X4779429Y-16591079D02*
X4788953Y-16629174D01*
X4788953Y-16629174D02*
X4788953Y-16676793D01*
X4788953Y-16676793D02*
X4779429Y-16714888D01*
X4779429Y-16714888D02*
X4769905Y-16733936D01*
X4769905Y-16733936D02*
X4760382Y-16743460D01*
X4760382Y-16743460D02*
X4741334Y-16752984D01*
X4741334Y-16752984D02*
X4722286Y-16752984D01*
X4722286Y-16752984D02*
X4703239Y-16743460D01*
X4703239Y-16743460D02*
X4693715Y-16733936D01*
X4693715Y-16733936D02*
X4684191Y-16714888D01*
X4684191Y-16714888D02*
X4674667Y-16676793D01*
X4674667Y-16676793D02*
X4674667Y-16629174D01*
X4674667Y-16629174D02*
X4684191Y-16591079D01*
X4684191Y-16591079D02*
X4693715Y-16572031D01*
X4693715Y-16572031D02*
X4703239Y-16562508D01*
X4703239Y-16562508D02*
X4722286Y-16552984D01*
X4960382Y-16619650D02*
X4960382Y-16752984D01*
X4912763Y-16543460D02*
X4865144Y-16686317D01*
X4865144Y-16686317D02*
X4988953Y-16686317D01*
X5093715Y-16638698D02*
X5074667Y-16629174D01*
X5074667Y-16629174D02*
X5065144Y-16619650D01*
X5065144Y-16619650D02*
X5055620Y-16600603D01*
X5055620Y-16600603D02*
X5055620Y-16591079D01*
X5055620Y-16591079D02*
X5065144Y-16572031D01*
X5065144Y-16572031D02*
X5074667Y-16562508D01*
X5074667Y-16562508D02*
X5093715Y-16552984D01*
X5093715Y-16552984D02*
X5131810Y-16552984D01*
X5131810Y-16552984D02*
X5150858Y-16562508D01*
X5150858Y-16562508D02*
X5160382Y-16572031D01*
X5160382Y-16572031D02*
X5169905Y-16591079D01*
X5169905Y-16591079D02*
X5169905Y-16600603D01*
X5169905Y-16600603D02*
X5160382Y-16619650D01*
X5160382Y-16619650D02*
X5150858Y-16629174D01*
X5150858Y-16629174D02*
X5131810Y-16638698D01*
X5131810Y-16638698D02*
X5093715Y-16638698D01*
X5093715Y-16638698D02*
X5074667Y-16648222D01*
X5074667Y-16648222D02*
X5065144Y-16657746D01*
X5065144Y-16657746D02*
X5055620Y-16676793D01*
X5055620Y-16676793D02*
X5055620Y-16714888D01*
X5055620Y-16714888D02*
X5065144Y-16733936D01*
X5065144Y-16733936D02*
X5074667Y-16743460D01*
X5074667Y-16743460D02*
X5093715Y-16752984D01*
X5093715Y-16752984D02*
X5131810Y-16752984D01*
X5131810Y-16752984D02*
X5150858Y-16743460D01*
X5150858Y-16743460D02*
X5160382Y-16733936D01*
X5160382Y-16733936D02*
X5169905Y-16714888D01*
X5169905Y-16714888D02*
X5169905Y-16676793D01*
X5169905Y-16676793D02*
X5160382Y-16657746D01*
X5160382Y-16657746D02*
X5150858Y-16648222D01*
X5150858Y-16648222D02*
X5131810Y-16638698D01*
X5255620Y-16752984D02*
X5255620Y-16619650D01*
X5255620Y-16638698D02*
X5265144Y-16629174D01*
X5265144Y-16629174D02*
X5284191Y-16619650D01*
X5284191Y-16619650D02*
X5312763Y-16619650D01*
X5312763Y-16619650D02*
X5331810Y-16629174D01*
X5331810Y-16629174D02*
X5341334Y-16648222D01*
X5341334Y-16648222D02*
X5341334Y-16752984D01*
X5341334Y-16648222D02*
X5350858Y-16629174D01*
X5350858Y-16629174D02*
X5369905Y-16619650D01*
X5369905Y-16619650D02*
X5398477Y-16619650D01*
X5398477Y-16619650D02*
X5417525Y-16629174D01*
X5417525Y-16629174D02*
X5427048Y-16648222D01*
X5427048Y-16648222D02*
X5427048Y-16752984D01*
X5522286Y-16752984D02*
X5522286Y-16619650D01*
X5522286Y-16638698D02*
X5531810Y-16629174D01*
X5531810Y-16629174D02*
X5550858Y-16619650D01*
X5550858Y-16619650D02*
X5579429Y-16619650D01*
X5579429Y-16619650D02*
X5598477Y-16629174D01*
X5598477Y-16629174D02*
X5608001Y-16648222D01*
X5608001Y-16648222D02*
X5608001Y-16752984D01*
X5608001Y-16648222D02*
X5617524Y-16629174D01*
X5617524Y-16629174D02*
X5636572Y-16619650D01*
X5636572Y-16619650D02*
X5665143Y-16619650D01*
X5665143Y-16619650D02*
X5684191Y-16629174D01*
X5684191Y-16629174D02*
X5693715Y-16648222D01*
X5693715Y-16648222D02*
X5693715Y-16752984D01*
X6084191Y-16543460D02*
X5912763Y-16800603D01*
X6341334Y-16552984D02*
X6360382Y-16552984D01*
X6360382Y-16552984D02*
X6379429Y-16562508D01*
X6379429Y-16562508D02*
X6388953Y-16572031D01*
X6388953Y-16572031D02*
X6398477Y-16591079D01*
X6398477Y-16591079D02*
X6408001Y-16629174D01*
X6408001Y-16629174D02*
X6408001Y-16676793D01*
X6408001Y-16676793D02*
X6398477Y-16714888D01*
X6398477Y-16714888D02*
X6388953Y-16733936D01*
X6388953Y-16733936D02*
X6379429Y-16743460D01*
X6379429Y-16743460D02*
X6360382Y-16752984D01*
X6360382Y-16752984D02*
X6341334Y-16752984D01*
X6341334Y-16752984D02*
X6322286Y-16743460D01*
X6322286Y-16743460D02*
X6312763Y-16733936D01*
X6312763Y-16733936D02*
X6303239Y-16714888D01*
X6303239Y-16714888D02*
X6293715Y-16676793D01*
X6293715Y-16676793D02*
X6293715Y-16629174D01*
X6293715Y-16629174D02*
X6303239Y-16591079D01*
X6303239Y-16591079D02*
X6312763Y-16572031D01*
X6312763Y-16572031D02*
X6322286Y-16562508D01*
X6322286Y-16562508D02*
X6341334Y-16552984D01*
X6493715Y-16733936D02*
X6503239Y-16743460D01*
X6503239Y-16743460D02*
X6493715Y-16752984D01*
X6493715Y-16752984D02*
X6484191Y-16743460D01*
X6484191Y-16743460D02*
X6493715Y-16733936D01*
X6493715Y-16733936D02*
X6493715Y-16752984D01*
X6693715Y-16752984D02*
X6579429Y-16752984D01*
X6636572Y-16752984D02*
X6636572Y-16552984D01*
X6636572Y-16552984D02*
X6617525Y-16581555D01*
X6617525Y-16581555D02*
X6598477Y-16600603D01*
X6598477Y-16600603D02*
X6579429Y-16610127D01*
X6769906Y-16572031D02*
X6779429Y-16562508D01*
X6779429Y-16562508D02*
X6798477Y-16552984D01*
X6798477Y-16552984D02*
X6846096Y-16552984D01*
X6846096Y-16552984D02*
X6865144Y-16562508D01*
X6865144Y-16562508D02*
X6874667Y-16572031D01*
X6874667Y-16572031D02*
X6884191Y-16591079D01*
X6884191Y-16591079D02*
X6884191Y-16610127D01*
X6884191Y-16610127D02*
X6874667Y-16638698D01*
X6874667Y-16638698D02*
X6760382Y-16752984D01*
X6760382Y-16752984D02*
X6884191Y-16752984D01*
X7008001Y-16552984D02*
X7027048Y-16552984D01*
X7027048Y-16552984D02*
X7046096Y-16562508D01*
X7046096Y-16562508D02*
X7055620Y-16572031D01*
X7055620Y-16572031D02*
X7065144Y-16591079D01*
X7065144Y-16591079D02*
X7074667Y-16629174D01*
X7074667Y-16629174D02*
X7074667Y-16676793D01*
X7074667Y-16676793D02*
X7065144Y-16714888D01*
X7065144Y-16714888D02*
X7055620Y-16733936D01*
X7055620Y-16733936D02*
X7046096Y-16743460D01*
X7046096Y-16743460D02*
X7027048Y-16752984D01*
X7027048Y-16752984D02*
X7008001Y-16752984D01*
X7008001Y-16752984D02*
X6988953Y-16743460D01*
X6988953Y-16743460D02*
X6979429Y-16733936D01*
X6979429Y-16733936D02*
X6969906Y-16714888D01*
X6969906Y-16714888D02*
X6960382Y-16676793D01*
X6960382Y-16676793D02*
X6960382Y-16629174D01*
X6960382Y-16629174D02*
X6969906Y-16591079D01*
X6969906Y-16591079D02*
X6979429Y-16572031D01*
X6979429Y-16572031D02*
X6988953Y-16562508D01*
X6988953Y-16562508D02*
X7008001Y-16552984D01*
X7198477Y-16552984D02*
X7217525Y-16552984D01*
X7217525Y-16552984D02*
X7236572Y-16562508D01*
X7236572Y-16562508D02*
X7246096Y-16572031D01*
X7246096Y-16572031D02*
X7255620Y-16591079D01*
X7255620Y-16591079D02*
X7265144Y-16629174D01*
X7265144Y-16629174D02*
X7265144Y-16676793D01*
X7265144Y-16676793D02*
X7255620Y-16714888D01*
X7255620Y-16714888D02*
X7246096Y-16733936D01*
X7246096Y-16733936D02*
X7236572Y-16743460D01*
X7236572Y-16743460D02*
X7217525Y-16752984D01*
X7217525Y-16752984D02*
X7198477Y-16752984D01*
X7198477Y-16752984D02*
X7179429Y-16743460D01*
X7179429Y-16743460D02*
X7169906Y-16733936D01*
X7169906Y-16733936D02*
X7160382Y-16714888D01*
X7160382Y-16714888D02*
X7150858Y-16676793D01*
X7150858Y-16676793D02*
X7150858Y-16629174D01*
X7150858Y-16629174D02*
X7160382Y-16591079D01*
X7160382Y-16591079D02*
X7169906Y-16572031D01*
X7169906Y-16572031D02*
X7179429Y-16562508D01*
X7179429Y-16562508D02*
X7198477Y-16552984D01*
X7341334Y-16552984D02*
X7341334Y-16591079D01*
X7417525Y-16552984D02*
X7417525Y-16591079D01*
X7712763Y-16829174D02*
X7703239Y-16819650D01*
X7703239Y-16819650D02*
X7684191Y-16791079D01*
X7684191Y-16791079D02*
X7674668Y-16772031D01*
X7674668Y-16772031D02*
X7665144Y-16743460D01*
X7665144Y-16743460D02*
X7655620Y-16695841D01*
X7655620Y-16695841D02*
X7655620Y-16657746D01*
X7655620Y-16657746D02*
X7665144Y-16610127D01*
X7665144Y-16610127D02*
X7674668Y-16581555D01*
X7674668Y-16581555D02*
X7684191Y-16562508D01*
X7684191Y-16562508D02*
X7703239Y-16533936D01*
X7703239Y-16533936D02*
X7712763Y-16524412D01*
X7817525Y-16638698D02*
X7798477Y-16629174D01*
X7798477Y-16629174D02*
X7788953Y-16619650D01*
X7788953Y-16619650D02*
X7779429Y-16600603D01*
X7779429Y-16600603D02*
X7779429Y-16591079D01*
X7779429Y-16591079D02*
X7788953Y-16572031D01*
X7788953Y-16572031D02*
X7798477Y-16562508D01*
X7798477Y-16562508D02*
X7817525Y-16552984D01*
X7817525Y-16552984D02*
X7855620Y-16552984D01*
X7855620Y-16552984D02*
X7874668Y-16562508D01*
X7874668Y-16562508D02*
X7884191Y-16572031D01*
X7884191Y-16572031D02*
X7893715Y-16591079D01*
X7893715Y-16591079D02*
X7893715Y-16600603D01*
X7893715Y-16600603D02*
X7884191Y-16619650D01*
X7884191Y-16619650D02*
X7874668Y-16629174D01*
X7874668Y-16629174D02*
X7855620Y-16638698D01*
X7855620Y-16638698D02*
X7817525Y-16638698D01*
X7817525Y-16638698D02*
X7798477Y-16648222D01*
X7798477Y-16648222D02*
X7788953Y-16657746D01*
X7788953Y-16657746D02*
X7779429Y-16676793D01*
X7779429Y-16676793D02*
X7779429Y-16714888D01*
X7779429Y-16714888D02*
X7788953Y-16733936D01*
X7788953Y-16733936D02*
X7798477Y-16743460D01*
X7798477Y-16743460D02*
X7817525Y-16752984D01*
X7817525Y-16752984D02*
X7855620Y-16752984D01*
X7855620Y-16752984D02*
X7874668Y-16743460D01*
X7874668Y-16743460D02*
X7884191Y-16733936D01*
X7884191Y-16733936D02*
X7893715Y-16714888D01*
X7893715Y-16714888D02*
X7893715Y-16676793D01*
X7893715Y-16676793D02*
X7884191Y-16657746D01*
X7884191Y-16657746D02*
X7874668Y-16648222D01*
X7874668Y-16648222D02*
X7855620Y-16638698D01*
X8131810Y-16752984D02*
X8131810Y-16552984D01*
X8217525Y-16752984D02*
X8217525Y-16648222D01*
X8217525Y-16648222D02*
X8208001Y-16629174D01*
X8208001Y-16629174D02*
X8188953Y-16619650D01*
X8188953Y-16619650D02*
X8160382Y-16619650D01*
X8160382Y-16619650D02*
X8141334Y-16629174D01*
X8141334Y-16629174D02*
X8131810Y-16638698D01*
X8341334Y-16752984D02*
X8322287Y-16743460D01*
X8322287Y-16743460D02*
X8312763Y-16733936D01*
X8312763Y-16733936D02*
X8303239Y-16714888D01*
X8303239Y-16714888D02*
X8303239Y-16657746D01*
X8303239Y-16657746D02*
X8312763Y-16638698D01*
X8312763Y-16638698D02*
X8322287Y-16629174D01*
X8322287Y-16629174D02*
X8341334Y-16619650D01*
X8341334Y-16619650D02*
X8369906Y-16619650D01*
X8369906Y-16619650D02*
X8388953Y-16629174D01*
X8388953Y-16629174D02*
X8398477Y-16638698D01*
X8398477Y-16638698D02*
X8408001Y-16657746D01*
X8408001Y-16657746D02*
X8408001Y-16714888D01*
X8408001Y-16714888D02*
X8398477Y-16733936D01*
X8398477Y-16733936D02*
X8388953Y-16743460D01*
X8388953Y-16743460D02*
X8369906Y-16752984D01*
X8369906Y-16752984D02*
X8341334Y-16752984D01*
X8522287Y-16752984D02*
X8503239Y-16743460D01*
X8503239Y-16743460D02*
X8493715Y-16724412D01*
X8493715Y-16724412D02*
X8493715Y-16552984D01*
X8674668Y-16743460D02*
X8655620Y-16752984D01*
X8655620Y-16752984D02*
X8617525Y-16752984D01*
X8617525Y-16752984D02*
X8598477Y-16743460D01*
X8598477Y-16743460D02*
X8588953Y-16724412D01*
X8588953Y-16724412D02*
X8588953Y-16648222D01*
X8588953Y-16648222D02*
X8598477Y-16629174D01*
X8598477Y-16629174D02*
X8617525Y-16619650D01*
X8617525Y-16619650D02*
X8655620Y-16619650D01*
X8655620Y-16619650D02*
X8674668Y-16629174D01*
X8674668Y-16629174D02*
X8684192Y-16648222D01*
X8684192Y-16648222D02*
X8684192Y-16667269D01*
X8684192Y-16667269D02*
X8588953Y-16686317D01*
X8760382Y-16743460D02*
X8779430Y-16752984D01*
X8779430Y-16752984D02*
X8817525Y-16752984D01*
X8817525Y-16752984D02*
X8836573Y-16743460D01*
X8836573Y-16743460D02*
X8846096Y-16724412D01*
X8846096Y-16724412D02*
X8846096Y-16714888D01*
X8846096Y-16714888D02*
X8836573Y-16695841D01*
X8836573Y-16695841D02*
X8817525Y-16686317D01*
X8817525Y-16686317D02*
X8788953Y-16686317D01*
X8788953Y-16686317D02*
X8769906Y-16676793D01*
X8769906Y-16676793D02*
X8760382Y-16657746D01*
X8760382Y-16657746D02*
X8760382Y-16648222D01*
X8760382Y-16648222D02*
X8769906Y-16629174D01*
X8769906Y-16629174D02*
X8788953Y-16619650D01*
X8788953Y-16619650D02*
X8817525Y-16619650D01*
X8817525Y-16619650D02*
X8836573Y-16629174D01*
X8912763Y-16829174D02*
X8922287Y-16819650D01*
X8922287Y-16819650D02*
X8941334Y-16791079D01*
X8941334Y-16791079D02*
X8950858Y-16772031D01*
X8950858Y-16772031D02*
X8960382Y-16743460D01*
X8960382Y-16743460D02*
X8969906Y-16695841D01*
X8969906Y-16695841D02*
X8969906Y-16657746D01*
X8969906Y-16657746D02*
X8960382Y-16610127D01*
X8960382Y-16610127D02*
X8950858Y-16581555D01*
X8950858Y-16581555D02*
X8941334Y-16562508D01*
X8941334Y-16562508D02*
X8922287Y-16533936D01*
X8922287Y-16533936D02*
X8912763Y-16524412D01*
X9274668Y-16829174D02*
X9265144Y-16819650D01*
X9265144Y-16819650D02*
X9246096Y-16791079D01*
X9246096Y-16791079D02*
X9236573Y-16772031D01*
X9236573Y-16772031D02*
X9227049Y-16743460D01*
X9227049Y-16743460D02*
X9217525Y-16695841D01*
X9217525Y-16695841D02*
X9217525Y-16657746D01*
X9217525Y-16657746D02*
X9227049Y-16610127D01*
X9227049Y-16610127D02*
X9236573Y-16581555D01*
X9236573Y-16581555D02*
X9246096Y-16562508D01*
X9246096Y-16562508D02*
X9265144Y-16533936D01*
X9265144Y-16533936D02*
X9274668Y-16524412D01*
X9350858Y-16619650D02*
X9350858Y-16752984D01*
X9350858Y-16638698D02*
X9360382Y-16629174D01*
X9360382Y-16629174D02*
X9379430Y-16619650D01*
X9379430Y-16619650D02*
X9408001Y-16619650D01*
X9408001Y-16619650D02*
X9427049Y-16629174D01*
X9427049Y-16629174D02*
X9436573Y-16648222D01*
X9436573Y-16648222D02*
X9436573Y-16752984D01*
X9560382Y-16752984D02*
X9541334Y-16743460D01*
X9541334Y-16743460D02*
X9531811Y-16733936D01*
X9531811Y-16733936D02*
X9522287Y-16714888D01*
X9522287Y-16714888D02*
X9522287Y-16657746D01*
X9522287Y-16657746D02*
X9531811Y-16638698D01*
X9531811Y-16638698D02*
X9541334Y-16629174D01*
X9541334Y-16629174D02*
X9560382Y-16619650D01*
X9560382Y-16619650D02*
X9588954Y-16619650D01*
X9588954Y-16619650D02*
X9608001Y-16629174D01*
X9608001Y-16629174D02*
X9617525Y-16638698D01*
X9617525Y-16638698D02*
X9627049Y-16657746D01*
X9627049Y-16657746D02*
X9627049Y-16714888D01*
X9627049Y-16714888D02*
X9617525Y-16733936D01*
X9617525Y-16733936D02*
X9608001Y-16743460D01*
X9608001Y-16743460D02*
X9588954Y-16752984D01*
X9588954Y-16752984D02*
X9560382Y-16752984D01*
X9684192Y-16619650D02*
X9760382Y-16619650D01*
X9712763Y-16552984D02*
X9712763Y-16724412D01*
X9712763Y-16724412D02*
X9722287Y-16743460D01*
X9722287Y-16743460D02*
X9741334Y-16752984D01*
X9741334Y-16752984D02*
X9760382Y-16752984D01*
X9979430Y-16619650D02*
X9979430Y-16819650D01*
X9979430Y-16629174D02*
X9998477Y-16619650D01*
X9998477Y-16619650D02*
X10036573Y-16619650D01*
X10036573Y-16619650D02*
X10055620Y-16629174D01*
X10055620Y-16629174D02*
X10065144Y-16638698D01*
X10065144Y-16638698D02*
X10074668Y-16657746D01*
X10074668Y-16657746D02*
X10074668Y-16714888D01*
X10074668Y-16714888D02*
X10065144Y-16733936D01*
X10065144Y-16733936D02*
X10055620Y-16743460D01*
X10055620Y-16743460D02*
X10036573Y-16752984D01*
X10036573Y-16752984D02*
X9998477Y-16752984D01*
X9998477Y-16752984D02*
X9979430Y-16743460D01*
X10188954Y-16752984D02*
X10169906Y-16743460D01*
X10169906Y-16743460D02*
X10160382Y-16724412D01*
X10160382Y-16724412D02*
X10160382Y-16552984D01*
X10350858Y-16752984D02*
X10350858Y-16648222D01*
X10350858Y-16648222D02*
X10341335Y-16629174D01*
X10341335Y-16629174D02*
X10322287Y-16619650D01*
X10322287Y-16619650D02*
X10284192Y-16619650D01*
X10284192Y-16619650D02*
X10265144Y-16629174D01*
X10350858Y-16743460D02*
X10331811Y-16752984D01*
X10331811Y-16752984D02*
X10284192Y-16752984D01*
X10284192Y-16752984D02*
X10265144Y-16743460D01*
X10265144Y-16743460D02*
X10255620Y-16724412D01*
X10255620Y-16724412D02*
X10255620Y-16705365D01*
X10255620Y-16705365D02*
X10265144Y-16686317D01*
X10265144Y-16686317D02*
X10284192Y-16676793D01*
X10284192Y-16676793D02*
X10331811Y-16676793D01*
X10331811Y-16676793D02*
X10350858Y-16667269D01*
X10417525Y-16619650D02*
X10493715Y-16619650D01*
X10446096Y-16552984D02*
X10446096Y-16724412D01*
X10446096Y-16724412D02*
X10455620Y-16743460D01*
X10455620Y-16743460D02*
X10474668Y-16752984D01*
X10474668Y-16752984D02*
X10493715Y-16752984D01*
X10636573Y-16743460D02*
X10617525Y-16752984D01*
X10617525Y-16752984D02*
X10579430Y-16752984D01*
X10579430Y-16752984D02*
X10560382Y-16743460D01*
X10560382Y-16743460D02*
X10550858Y-16724412D01*
X10550858Y-16724412D02*
X10550858Y-16648222D01*
X10550858Y-16648222D02*
X10560382Y-16629174D01*
X10560382Y-16629174D02*
X10579430Y-16619650D01*
X10579430Y-16619650D02*
X10617525Y-16619650D01*
X10617525Y-16619650D02*
X10636573Y-16629174D01*
X10636573Y-16629174D02*
X10646096Y-16648222D01*
X10646096Y-16648222D02*
X10646096Y-16667269D01*
X10646096Y-16667269D02*
X10550858Y-16686317D01*
X10817525Y-16752984D02*
X10817525Y-16552984D01*
X10817525Y-16743460D02*
X10798477Y-16752984D01*
X10798477Y-16752984D02*
X10760382Y-16752984D01*
X10760382Y-16752984D02*
X10741335Y-16743460D01*
X10741335Y-16743460D02*
X10731811Y-16733936D01*
X10731811Y-16733936D02*
X10722287Y-16714888D01*
X10722287Y-16714888D02*
X10722287Y-16657746D01*
X10722287Y-16657746D02*
X10731811Y-16638698D01*
X10731811Y-16638698D02*
X10741335Y-16629174D01*
X10741335Y-16629174D02*
X10760382Y-16619650D01*
X10760382Y-16619650D02*
X10798477Y-16619650D01*
X10798477Y-16619650D02*
X10817525Y-16629174D01*
X10893716Y-16829174D02*
X10903239Y-16819650D01*
X10903239Y-16819650D02*
X10922287Y-16791079D01*
X10922287Y-16791079D02*
X10931811Y-16772031D01*
X10931811Y-16772031D02*
X10941335Y-16743460D01*
X10941335Y-16743460D02*
X10950858Y-16695841D01*
X10950858Y-16695841D02*
X10950858Y-16657746D01*
X10950858Y-16657746D02*
X10941335Y-16610127D01*
X10941335Y-16610127D02*
X10931811Y-16581555D01*
X10931811Y-16581555D02*
X10922287Y-16562508D01*
X10922287Y-16562508D02*
X10903239Y-16533936D01*
X10903239Y-16533936D02*
X10893716Y-16524412D01*
X4108411Y-17052211D02*
X4108411Y-16910789D01*
X3966989Y-16910789D01*
X3966989Y-17052211D01*
X4108411Y-17052211D01*
X4379429Y-16872984D02*
X4503239Y-16872984D01*
X4503239Y-16872984D02*
X4436572Y-16949174D01*
X4436572Y-16949174D02*
X4465144Y-16949174D01*
X4465144Y-16949174D02*
X4484191Y-16958698D01*
X4484191Y-16958698D02*
X4493715Y-16968222D01*
X4493715Y-16968222D02*
X4503239Y-16987270D01*
X4503239Y-16987270D02*
X4503239Y-17034889D01*
X4503239Y-17034889D02*
X4493715Y-17053936D01*
X4493715Y-17053936D02*
X4484191Y-17063460D01*
X4484191Y-17063460D02*
X4465144Y-17072984D01*
X4465144Y-17072984D02*
X4408001Y-17072984D01*
X4408001Y-17072984D02*
X4388953Y-17063460D01*
X4388953Y-17063460D02*
X4379429Y-17053936D01*
X4588953Y-17053936D02*
X4598477Y-17063460D01*
X4598477Y-17063460D02*
X4588953Y-17072984D01*
X4588953Y-17072984D02*
X4579429Y-17063460D01*
X4579429Y-17063460D02*
X4588953Y-17053936D01*
X4588953Y-17053936D02*
X4588953Y-17072984D01*
X4674667Y-16892031D02*
X4684191Y-16882508D01*
X4684191Y-16882508D02*
X4703239Y-16872984D01*
X4703239Y-16872984D02*
X4750858Y-16872984D01*
X4750858Y-16872984D02*
X4769905Y-16882508D01*
X4769905Y-16882508D02*
X4779429Y-16892031D01*
X4779429Y-16892031D02*
X4788953Y-16911079D01*
X4788953Y-16911079D02*
X4788953Y-16930127D01*
X4788953Y-16930127D02*
X4779429Y-16958698D01*
X4779429Y-16958698D02*
X4665144Y-17072984D01*
X4665144Y-17072984D02*
X4788953Y-17072984D01*
X4912763Y-16872984D02*
X4931810Y-16872984D01*
X4931810Y-16872984D02*
X4950858Y-16882508D01*
X4950858Y-16882508D02*
X4960382Y-16892031D01*
X4960382Y-16892031D02*
X4969905Y-16911079D01*
X4969905Y-16911079D02*
X4979429Y-16949174D01*
X4979429Y-16949174D02*
X4979429Y-16996793D01*
X4979429Y-16996793D02*
X4969905Y-17034889D01*
X4969905Y-17034889D02*
X4960382Y-17053936D01*
X4960382Y-17053936D02*
X4950858Y-17063460D01*
X4950858Y-17063460D02*
X4931810Y-17072984D01*
X4931810Y-17072984D02*
X4912763Y-17072984D01*
X4912763Y-17072984D02*
X4893715Y-17063460D01*
X4893715Y-17063460D02*
X4884191Y-17053936D01*
X4884191Y-17053936D02*
X4874667Y-17034889D01*
X4874667Y-17034889D02*
X4865144Y-16996793D01*
X4865144Y-16996793D02*
X4865144Y-16949174D01*
X4865144Y-16949174D02*
X4874667Y-16911079D01*
X4874667Y-16911079D02*
X4884191Y-16892031D01*
X4884191Y-16892031D02*
X4893715Y-16882508D01*
X4893715Y-16882508D02*
X4912763Y-16872984D01*
X5103239Y-16872984D02*
X5122286Y-16872984D01*
X5122286Y-16872984D02*
X5141334Y-16882508D01*
X5141334Y-16882508D02*
X5150858Y-16892031D01*
X5150858Y-16892031D02*
X5160382Y-16911079D01*
X5160382Y-16911079D02*
X5169905Y-16949174D01*
X5169905Y-16949174D02*
X5169905Y-16996793D01*
X5169905Y-16996793D02*
X5160382Y-17034889D01*
X5160382Y-17034889D02*
X5150858Y-17053936D01*
X5150858Y-17053936D02*
X5141334Y-17063460D01*
X5141334Y-17063460D02*
X5122286Y-17072984D01*
X5122286Y-17072984D02*
X5103239Y-17072984D01*
X5103239Y-17072984D02*
X5084191Y-17063460D01*
X5084191Y-17063460D02*
X5074667Y-17053936D01*
X5074667Y-17053936D02*
X5065144Y-17034889D01*
X5065144Y-17034889D02*
X5055620Y-16996793D01*
X5055620Y-16996793D02*
X5055620Y-16949174D01*
X5055620Y-16949174D02*
X5065144Y-16911079D01*
X5065144Y-16911079D02*
X5074667Y-16892031D01*
X5074667Y-16892031D02*
X5084191Y-16882508D01*
X5084191Y-16882508D02*
X5103239Y-16872984D01*
X5255620Y-17072984D02*
X5255620Y-16939650D01*
X5255620Y-16958698D02*
X5265144Y-16949174D01*
X5265144Y-16949174D02*
X5284191Y-16939650D01*
X5284191Y-16939650D02*
X5312763Y-16939650D01*
X5312763Y-16939650D02*
X5331810Y-16949174D01*
X5331810Y-16949174D02*
X5341334Y-16968222D01*
X5341334Y-16968222D02*
X5341334Y-17072984D01*
X5341334Y-16968222D02*
X5350858Y-16949174D01*
X5350858Y-16949174D02*
X5369905Y-16939650D01*
X5369905Y-16939650D02*
X5398477Y-16939650D01*
X5398477Y-16939650D02*
X5417525Y-16949174D01*
X5417525Y-16949174D02*
X5427048Y-16968222D01*
X5427048Y-16968222D02*
X5427048Y-17072984D01*
X5522286Y-17072984D02*
X5522286Y-16939650D01*
X5522286Y-16958698D02*
X5531810Y-16949174D01*
X5531810Y-16949174D02*
X5550858Y-16939650D01*
X5550858Y-16939650D02*
X5579429Y-16939650D01*
X5579429Y-16939650D02*
X5598477Y-16949174D01*
X5598477Y-16949174D02*
X5608001Y-16968222D01*
X5608001Y-16968222D02*
X5608001Y-17072984D01*
X5608001Y-16968222D02*
X5617524Y-16949174D01*
X5617524Y-16949174D02*
X5636572Y-16939650D01*
X5636572Y-16939650D02*
X5665143Y-16939650D01*
X5665143Y-16939650D02*
X5684191Y-16949174D01*
X5684191Y-16949174D02*
X5693715Y-16968222D01*
X5693715Y-16968222D02*
X5693715Y-17072984D01*
X6084191Y-16863460D02*
X5912763Y-17120603D01*
X6341334Y-16872984D02*
X6360382Y-16872984D01*
X6360382Y-16872984D02*
X6379429Y-16882508D01*
X6379429Y-16882508D02*
X6388953Y-16892031D01*
X6388953Y-16892031D02*
X6398477Y-16911079D01*
X6398477Y-16911079D02*
X6408001Y-16949174D01*
X6408001Y-16949174D02*
X6408001Y-16996793D01*
X6408001Y-16996793D02*
X6398477Y-17034889D01*
X6398477Y-17034889D02*
X6388953Y-17053936D01*
X6388953Y-17053936D02*
X6379429Y-17063460D01*
X6379429Y-17063460D02*
X6360382Y-17072984D01*
X6360382Y-17072984D02*
X6341334Y-17072984D01*
X6341334Y-17072984D02*
X6322286Y-17063460D01*
X6322286Y-17063460D02*
X6312763Y-17053936D01*
X6312763Y-17053936D02*
X6303239Y-17034889D01*
X6303239Y-17034889D02*
X6293715Y-16996793D01*
X6293715Y-16996793D02*
X6293715Y-16949174D01*
X6293715Y-16949174D02*
X6303239Y-16911079D01*
X6303239Y-16911079D02*
X6312763Y-16892031D01*
X6312763Y-16892031D02*
X6322286Y-16882508D01*
X6322286Y-16882508D02*
X6341334Y-16872984D01*
X6493715Y-17053936D02*
X6503239Y-17063460D01*
X6503239Y-17063460D02*
X6493715Y-17072984D01*
X6493715Y-17072984D02*
X6484191Y-17063460D01*
X6484191Y-17063460D02*
X6493715Y-17053936D01*
X6493715Y-17053936D02*
X6493715Y-17072984D01*
X6693715Y-17072984D02*
X6579429Y-17072984D01*
X6636572Y-17072984D02*
X6636572Y-16872984D01*
X6636572Y-16872984D02*
X6617525Y-16901555D01*
X6617525Y-16901555D02*
X6598477Y-16920603D01*
X6598477Y-16920603D02*
X6579429Y-16930127D01*
X6769906Y-16892031D02*
X6779429Y-16882508D01*
X6779429Y-16882508D02*
X6798477Y-16872984D01*
X6798477Y-16872984D02*
X6846096Y-16872984D01*
X6846096Y-16872984D02*
X6865144Y-16882508D01*
X6865144Y-16882508D02*
X6874667Y-16892031D01*
X6874667Y-16892031D02*
X6884191Y-16911079D01*
X6884191Y-16911079D02*
X6884191Y-16930127D01*
X6884191Y-16930127D02*
X6874667Y-16958698D01*
X6874667Y-16958698D02*
X6760382Y-17072984D01*
X6760382Y-17072984D02*
X6884191Y-17072984D01*
X7055620Y-16872984D02*
X7017525Y-16872984D01*
X7017525Y-16872984D02*
X6998477Y-16882508D01*
X6998477Y-16882508D02*
X6988953Y-16892031D01*
X6988953Y-16892031D02*
X6969906Y-16920603D01*
X6969906Y-16920603D02*
X6960382Y-16958698D01*
X6960382Y-16958698D02*
X6960382Y-17034889D01*
X6960382Y-17034889D02*
X6969906Y-17053936D01*
X6969906Y-17053936D02*
X6979429Y-17063460D01*
X6979429Y-17063460D02*
X6998477Y-17072984D01*
X6998477Y-17072984D02*
X7036572Y-17072984D01*
X7036572Y-17072984D02*
X7055620Y-17063460D01*
X7055620Y-17063460D02*
X7065144Y-17053936D01*
X7065144Y-17053936D02*
X7074667Y-17034889D01*
X7074667Y-17034889D02*
X7074667Y-16987270D01*
X7074667Y-16987270D02*
X7065144Y-16968222D01*
X7065144Y-16968222D02*
X7055620Y-16958698D01*
X7055620Y-16958698D02*
X7036572Y-16949174D01*
X7036572Y-16949174D02*
X6998477Y-16949174D01*
X6998477Y-16949174D02*
X6979429Y-16958698D01*
X6979429Y-16958698D02*
X6969906Y-16968222D01*
X6969906Y-16968222D02*
X6960382Y-16987270D01*
X7198477Y-16872984D02*
X7217525Y-16872984D01*
X7217525Y-16872984D02*
X7236572Y-16882508D01*
X7236572Y-16882508D02*
X7246096Y-16892031D01*
X7246096Y-16892031D02*
X7255620Y-16911079D01*
X7255620Y-16911079D02*
X7265144Y-16949174D01*
X7265144Y-16949174D02*
X7265144Y-16996793D01*
X7265144Y-16996793D02*
X7255620Y-17034889D01*
X7255620Y-17034889D02*
X7246096Y-17053936D01*
X7246096Y-17053936D02*
X7236572Y-17063460D01*
X7236572Y-17063460D02*
X7217525Y-17072984D01*
X7217525Y-17072984D02*
X7198477Y-17072984D01*
X7198477Y-17072984D02*
X7179429Y-17063460D01*
X7179429Y-17063460D02*
X7169906Y-17053936D01*
X7169906Y-17053936D02*
X7160382Y-17034889D01*
X7160382Y-17034889D02*
X7150858Y-16996793D01*
X7150858Y-16996793D02*
X7150858Y-16949174D01*
X7150858Y-16949174D02*
X7160382Y-16911079D01*
X7160382Y-16911079D02*
X7169906Y-16892031D01*
X7169906Y-16892031D02*
X7179429Y-16882508D01*
X7179429Y-16882508D02*
X7198477Y-16872984D01*
X7341334Y-16872984D02*
X7341334Y-16911079D01*
X7417525Y-16872984D02*
X7417525Y-16911079D01*
X7712763Y-17149174D02*
X7703239Y-17139650D01*
X7703239Y-17139650D02*
X7684191Y-17111079D01*
X7684191Y-17111079D02*
X7674668Y-17092031D01*
X7674668Y-17092031D02*
X7665144Y-17063460D01*
X7665144Y-17063460D02*
X7655620Y-17015841D01*
X7655620Y-17015841D02*
X7655620Y-16977746D01*
X7655620Y-16977746D02*
X7665144Y-16930127D01*
X7665144Y-16930127D02*
X7674668Y-16901555D01*
X7674668Y-16901555D02*
X7684191Y-16882508D01*
X7684191Y-16882508D02*
X7703239Y-16853936D01*
X7703239Y-16853936D02*
X7712763Y-16844412D01*
X7893715Y-17072984D02*
X7779429Y-17072984D01*
X7836572Y-17072984D02*
X7836572Y-16872984D01*
X7836572Y-16872984D02*
X7817525Y-16901555D01*
X7817525Y-16901555D02*
X7798477Y-16920603D01*
X7798477Y-16920603D02*
X7779429Y-16930127D01*
X7969906Y-16892031D02*
X7979429Y-16882508D01*
X7979429Y-16882508D02*
X7998477Y-16872984D01*
X7998477Y-16872984D02*
X8046096Y-16872984D01*
X8046096Y-16872984D02*
X8065144Y-16882508D01*
X8065144Y-16882508D02*
X8074668Y-16892031D01*
X8074668Y-16892031D02*
X8084191Y-16911079D01*
X8084191Y-16911079D02*
X8084191Y-16930127D01*
X8084191Y-16930127D02*
X8074668Y-16958698D01*
X8074668Y-16958698D02*
X7960382Y-17072984D01*
X7960382Y-17072984D02*
X8084191Y-17072984D01*
X8322287Y-17072984D02*
X8322287Y-16872984D01*
X8408001Y-17072984D02*
X8408001Y-16968222D01*
X8408001Y-16968222D02*
X8398477Y-16949174D01*
X8398477Y-16949174D02*
X8379430Y-16939650D01*
X8379430Y-16939650D02*
X8350858Y-16939650D01*
X8350858Y-16939650D02*
X8331810Y-16949174D01*
X8331810Y-16949174D02*
X8322287Y-16958698D01*
X8531811Y-17072984D02*
X8512763Y-17063460D01*
X8512763Y-17063460D02*
X8503239Y-17053936D01*
X8503239Y-17053936D02*
X8493715Y-17034889D01*
X8493715Y-17034889D02*
X8493715Y-16977746D01*
X8493715Y-16977746D02*
X8503239Y-16958698D01*
X8503239Y-16958698D02*
X8512763Y-16949174D01*
X8512763Y-16949174D02*
X8531811Y-16939650D01*
X8531811Y-16939650D02*
X8560382Y-16939650D01*
X8560382Y-16939650D02*
X8579430Y-16949174D01*
X8579430Y-16949174D02*
X8588953Y-16958698D01*
X8588953Y-16958698D02*
X8598477Y-16977746D01*
X8598477Y-16977746D02*
X8598477Y-17034889D01*
X8598477Y-17034889D02*
X8588953Y-17053936D01*
X8588953Y-17053936D02*
X8579430Y-17063460D01*
X8579430Y-17063460D02*
X8560382Y-17072984D01*
X8560382Y-17072984D02*
X8531811Y-17072984D01*
X8712763Y-17072984D02*
X8693715Y-17063460D01*
X8693715Y-17063460D02*
X8684192Y-17044412D01*
X8684192Y-17044412D02*
X8684192Y-16872984D01*
X8865144Y-17063460D02*
X8846096Y-17072984D01*
X8846096Y-17072984D02*
X8808001Y-17072984D01*
X8808001Y-17072984D02*
X8788953Y-17063460D01*
X8788953Y-17063460D02*
X8779430Y-17044412D01*
X8779430Y-17044412D02*
X8779430Y-16968222D01*
X8779430Y-16968222D02*
X8788953Y-16949174D01*
X8788953Y-16949174D02*
X8808001Y-16939650D01*
X8808001Y-16939650D02*
X8846096Y-16939650D01*
X8846096Y-16939650D02*
X8865144Y-16949174D01*
X8865144Y-16949174D02*
X8874668Y-16968222D01*
X8874668Y-16968222D02*
X8874668Y-16987270D01*
X8874668Y-16987270D02*
X8779430Y-17006317D01*
X8950858Y-17063460D02*
X8969906Y-17072984D01*
X8969906Y-17072984D02*
X9008001Y-17072984D01*
X9008001Y-17072984D02*
X9027049Y-17063460D01*
X9027049Y-17063460D02*
X9036573Y-17044412D01*
X9036573Y-17044412D02*
X9036573Y-17034889D01*
X9036573Y-17034889D02*
X9027049Y-17015841D01*
X9027049Y-17015841D02*
X9008001Y-17006317D01*
X9008001Y-17006317D02*
X8979430Y-17006317D01*
X8979430Y-17006317D02*
X8960382Y-16996793D01*
X8960382Y-16996793D02*
X8950858Y-16977746D01*
X8950858Y-16977746D02*
X8950858Y-16968222D01*
X8950858Y-16968222D02*
X8960382Y-16949174D01*
X8960382Y-16949174D02*
X8979430Y-16939650D01*
X8979430Y-16939650D02*
X9008001Y-16939650D01*
X9008001Y-16939650D02*
X9027049Y-16949174D01*
X9103239Y-17149174D02*
X9112763Y-17139650D01*
X9112763Y-17139650D02*
X9131811Y-17111079D01*
X9131811Y-17111079D02*
X9141334Y-17092031D01*
X9141334Y-17092031D02*
X9150858Y-17063460D01*
X9150858Y-17063460D02*
X9160382Y-17015841D01*
X9160382Y-17015841D02*
X9160382Y-16977746D01*
X9160382Y-16977746D02*
X9150858Y-16930127D01*
X9150858Y-16930127D02*
X9141334Y-16901555D01*
X9141334Y-16901555D02*
X9131811Y-16882508D01*
X9131811Y-16882508D02*
X9112763Y-16853936D01*
X9112763Y-16853936D02*
X9103239Y-16844412D01*
X9465144Y-17149174D02*
X9455620Y-17139650D01*
X9455620Y-17139650D02*
X9436573Y-17111079D01*
X9436573Y-17111079D02*
X9427049Y-17092031D01*
X9427049Y-17092031D02*
X9417525Y-17063460D01*
X9417525Y-17063460D02*
X9408001Y-17015841D01*
X9408001Y-17015841D02*
X9408001Y-16977746D01*
X9408001Y-16977746D02*
X9417525Y-16930127D01*
X9417525Y-16930127D02*
X9427049Y-16901555D01*
X9427049Y-16901555D02*
X9436573Y-16882508D01*
X9436573Y-16882508D02*
X9455620Y-16853936D01*
X9455620Y-16853936D02*
X9465144Y-16844412D01*
X9541334Y-16939650D02*
X9541334Y-17072984D01*
X9541334Y-16958698D02*
X9550858Y-16949174D01*
X9550858Y-16949174D02*
X9569906Y-16939650D01*
X9569906Y-16939650D02*
X9598477Y-16939650D01*
X9598477Y-16939650D02*
X9617525Y-16949174D01*
X9617525Y-16949174D02*
X9627049Y-16968222D01*
X9627049Y-16968222D02*
X9627049Y-17072984D01*
X9750858Y-17072984D02*
X9731811Y-17063460D01*
X9731811Y-17063460D02*
X9722287Y-17053936D01*
X9722287Y-17053936D02*
X9712763Y-17034889D01*
X9712763Y-17034889D02*
X9712763Y-16977746D01*
X9712763Y-16977746D02*
X9722287Y-16958698D01*
X9722287Y-16958698D02*
X9731811Y-16949174D01*
X9731811Y-16949174D02*
X9750858Y-16939650D01*
X9750858Y-16939650D02*
X9779430Y-16939650D01*
X9779430Y-16939650D02*
X9798477Y-16949174D01*
X9798477Y-16949174D02*
X9808001Y-16958698D01*
X9808001Y-16958698D02*
X9817525Y-16977746D01*
X9817525Y-16977746D02*
X9817525Y-17034889D01*
X9817525Y-17034889D02*
X9808001Y-17053936D01*
X9808001Y-17053936D02*
X9798477Y-17063460D01*
X9798477Y-17063460D02*
X9779430Y-17072984D01*
X9779430Y-17072984D02*
X9750858Y-17072984D01*
X9874668Y-16939650D02*
X9950858Y-16939650D01*
X9903239Y-16872984D02*
X9903239Y-17044412D01*
X9903239Y-17044412D02*
X9912763Y-17063460D01*
X9912763Y-17063460D02*
X9931811Y-17072984D01*
X9931811Y-17072984D02*
X9950858Y-17072984D01*
X10169906Y-16939650D02*
X10169906Y-17139650D01*
X10169906Y-16949174D02*
X10188954Y-16939650D01*
X10188954Y-16939650D02*
X10227049Y-16939650D01*
X10227049Y-16939650D02*
X10246096Y-16949174D01*
X10246096Y-16949174D02*
X10255620Y-16958698D01*
X10255620Y-16958698D02*
X10265144Y-16977746D01*
X10265144Y-16977746D02*
X10265144Y-17034889D01*
X10265144Y-17034889D02*
X10255620Y-17053936D01*
X10255620Y-17053936D02*
X10246096Y-17063460D01*
X10246096Y-17063460D02*
X10227049Y-17072984D01*
X10227049Y-17072984D02*
X10188954Y-17072984D01*
X10188954Y-17072984D02*
X10169906Y-17063460D01*
X10379430Y-17072984D02*
X10360382Y-17063460D01*
X10360382Y-17063460D02*
X10350858Y-17044412D01*
X10350858Y-17044412D02*
X10350858Y-16872984D01*
X10541335Y-17072984D02*
X10541335Y-16968222D01*
X10541335Y-16968222D02*
X10531811Y-16949174D01*
X10531811Y-16949174D02*
X10512763Y-16939650D01*
X10512763Y-16939650D02*
X10474668Y-16939650D01*
X10474668Y-16939650D02*
X10455620Y-16949174D01*
X10541335Y-17063460D02*
X10522287Y-17072984D01*
X10522287Y-17072984D02*
X10474668Y-17072984D01*
X10474668Y-17072984D02*
X10455620Y-17063460D01*
X10455620Y-17063460D02*
X10446096Y-17044412D01*
X10446096Y-17044412D02*
X10446096Y-17025365D01*
X10446096Y-17025365D02*
X10455620Y-17006317D01*
X10455620Y-17006317D02*
X10474668Y-16996793D01*
X10474668Y-16996793D02*
X10522287Y-16996793D01*
X10522287Y-16996793D02*
X10541335Y-16987270D01*
X10608001Y-16939650D02*
X10684192Y-16939650D01*
X10636573Y-16872984D02*
X10636573Y-17044412D01*
X10636573Y-17044412D02*
X10646096Y-17063460D01*
X10646096Y-17063460D02*
X10665144Y-17072984D01*
X10665144Y-17072984D02*
X10684192Y-17072984D01*
X10827049Y-17063460D02*
X10808001Y-17072984D01*
X10808001Y-17072984D02*
X10769906Y-17072984D01*
X10769906Y-17072984D02*
X10750858Y-17063460D01*
X10750858Y-17063460D02*
X10741335Y-17044412D01*
X10741335Y-17044412D02*
X10741335Y-16968222D01*
X10741335Y-16968222D02*
X10750858Y-16949174D01*
X10750858Y-16949174D02*
X10769906Y-16939650D01*
X10769906Y-16939650D02*
X10808001Y-16939650D01*
X10808001Y-16939650D02*
X10827049Y-16949174D01*
X10827049Y-16949174D02*
X10836573Y-16968222D01*
X10836573Y-16968222D02*
X10836573Y-16987270D01*
X10836573Y-16987270D02*
X10741335Y-17006317D01*
X11008001Y-17072984D02*
X11008001Y-16872984D01*
X11008001Y-17063460D02*
X10988954Y-17072984D01*
X10988954Y-17072984D02*
X10950858Y-17072984D01*
X10950858Y-17072984D02*
X10931811Y-17063460D01*
X10931811Y-17063460D02*
X10922287Y-17053936D01*
X10922287Y-17053936D02*
X10912763Y-17034889D01*
X10912763Y-17034889D02*
X10912763Y-16977746D01*
X10912763Y-16977746D02*
X10922287Y-16958698D01*
X10922287Y-16958698D02*
X10931811Y-16949174D01*
X10931811Y-16949174D02*
X10950858Y-16939650D01*
X10950858Y-16939650D02*
X10988954Y-16939650D01*
X10988954Y-16939650D02*
X11008001Y-16949174D01*
X11084192Y-17149174D02*
X11093716Y-17139650D01*
X11093716Y-17139650D02*
X11112763Y-17111079D01*
X11112763Y-17111079D02*
X11122287Y-17092031D01*
X11122287Y-17092031D02*
X11131811Y-17063460D01*
X11131811Y-17063460D02*
X11141335Y-17015841D01*
X11141335Y-17015841D02*
X11141335Y-16977746D01*
X11141335Y-16977746D02*
X11131811Y-16930127D01*
X11131811Y-16930127D02*
X11122287Y-16901555D01*
X11122287Y-16901555D02*
X11112763Y-16882508D01*
X11112763Y-16882508D02*
X11093716Y-16853936D01*
X11093716Y-16853936D02*
X11084192Y-16844412D01*
X4037700Y-17401500D02*
X4137700Y-17301500D01*
X4037700Y-17201500D01*
X3937700Y-17301500D01*
X4037700Y-17401500D01*
X4379429Y-17192984D02*
X4503239Y-17192984D01*
X4503239Y-17192984D02*
X4436572Y-17269174D01*
X4436572Y-17269174D02*
X4465144Y-17269174D01*
X4465144Y-17269174D02*
X4484191Y-17278698D01*
X4484191Y-17278698D02*
X4493715Y-17288222D01*
X4493715Y-17288222D02*
X4503239Y-17307270D01*
X4503239Y-17307270D02*
X4503239Y-17354889D01*
X4503239Y-17354889D02*
X4493715Y-17373936D01*
X4493715Y-17373936D02*
X4484191Y-17383460D01*
X4484191Y-17383460D02*
X4465144Y-17392984D01*
X4465144Y-17392984D02*
X4408001Y-17392984D01*
X4408001Y-17392984D02*
X4388953Y-17383460D01*
X4388953Y-17383460D02*
X4379429Y-17373936D01*
X4588953Y-17373936D02*
X4598477Y-17383460D01*
X4598477Y-17383460D02*
X4588953Y-17392984D01*
X4588953Y-17392984D02*
X4579429Y-17383460D01*
X4579429Y-17383460D02*
X4588953Y-17373936D01*
X4588953Y-17373936D02*
X4588953Y-17392984D01*
X4693715Y-17392984D02*
X4731810Y-17392984D01*
X4731810Y-17392984D02*
X4750858Y-17383460D01*
X4750858Y-17383460D02*
X4760382Y-17373936D01*
X4760382Y-17373936D02*
X4779429Y-17345365D01*
X4779429Y-17345365D02*
X4788953Y-17307270D01*
X4788953Y-17307270D02*
X4788953Y-17231079D01*
X4788953Y-17231079D02*
X4779429Y-17212031D01*
X4779429Y-17212031D02*
X4769905Y-17202508D01*
X4769905Y-17202508D02*
X4750858Y-17192984D01*
X4750858Y-17192984D02*
X4712763Y-17192984D01*
X4712763Y-17192984D02*
X4693715Y-17202508D01*
X4693715Y-17202508D02*
X4684191Y-17212031D01*
X4684191Y-17212031D02*
X4674667Y-17231079D01*
X4674667Y-17231079D02*
X4674667Y-17278698D01*
X4674667Y-17278698D02*
X4684191Y-17297746D01*
X4684191Y-17297746D02*
X4693715Y-17307270D01*
X4693715Y-17307270D02*
X4712763Y-17316793D01*
X4712763Y-17316793D02*
X4750858Y-17316793D01*
X4750858Y-17316793D02*
X4769905Y-17307270D01*
X4769905Y-17307270D02*
X4779429Y-17297746D01*
X4779429Y-17297746D02*
X4788953Y-17278698D01*
X4903239Y-17278698D02*
X4884191Y-17269174D01*
X4884191Y-17269174D02*
X4874667Y-17259650D01*
X4874667Y-17259650D02*
X4865144Y-17240603D01*
X4865144Y-17240603D02*
X4865144Y-17231079D01*
X4865144Y-17231079D02*
X4874667Y-17212031D01*
X4874667Y-17212031D02*
X4884191Y-17202508D01*
X4884191Y-17202508D02*
X4903239Y-17192984D01*
X4903239Y-17192984D02*
X4941334Y-17192984D01*
X4941334Y-17192984D02*
X4960382Y-17202508D01*
X4960382Y-17202508D02*
X4969905Y-17212031D01*
X4969905Y-17212031D02*
X4979429Y-17231079D01*
X4979429Y-17231079D02*
X4979429Y-17240603D01*
X4979429Y-17240603D02*
X4969905Y-17259650D01*
X4969905Y-17259650D02*
X4960382Y-17269174D01*
X4960382Y-17269174D02*
X4941334Y-17278698D01*
X4941334Y-17278698D02*
X4903239Y-17278698D01*
X4903239Y-17278698D02*
X4884191Y-17288222D01*
X4884191Y-17288222D02*
X4874667Y-17297746D01*
X4874667Y-17297746D02*
X4865144Y-17316793D01*
X4865144Y-17316793D02*
X4865144Y-17354889D01*
X4865144Y-17354889D02*
X4874667Y-17373936D01*
X4874667Y-17373936D02*
X4884191Y-17383460D01*
X4884191Y-17383460D02*
X4903239Y-17392984D01*
X4903239Y-17392984D02*
X4941334Y-17392984D01*
X4941334Y-17392984D02*
X4960382Y-17383460D01*
X4960382Y-17383460D02*
X4969905Y-17373936D01*
X4969905Y-17373936D02*
X4979429Y-17354889D01*
X4979429Y-17354889D02*
X4979429Y-17316793D01*
X4979429Y-17316793D02*
X4969905Y-17297746D01*
X4969905Y-17297746D02*
X4960382Y-17288222D01*
X4960382Y-17288222D02*
X4941334Y-17278698D01*
X5093715Y-17278698D02*
X5074667Y-17269174D01*
X5074667Y-17269174D02*
X5065144Y-17259650D01*
X5065144Y-17259650D02*
X5055620Y-17240603D01*
X5055620Y-17240603D02*
X5055620Y-17231079D01*
X5055620Y-17231079D02*
X5065144Y-17212031D01*
X5065144Y-17212031D02*
X5074667Y-17202508D01*
X5074667Y-17202508D02*
X5093715Y-17192984D01*
X5093715Y-17192984D02*
X5131810Y-17192984D01*
X5131810Y-17192984D02*
X5150858Y-17202508D01*
X5150858Y-17202508D02*
X5160382Y-17212031D01*
X5160382Y-17212031D02*
X5169905Y-17231079D01*
X5169905Y-17231079D02*
X5169905Y-17240603D01*
X5169905Y-17240603D02*
X5160382Y-17259650D01*
X5160382Y-17259650D02*
X5150858Y-17269174D01*
X5150858Y-17269174D02*
X5131810Y-17278698D01*
X5131810Y-17278698D02*
X5093715Y-17278698D01*
X5093715Y-17278698D02*
X5074667Y-17288222D01*
X5074667Y-17288222D02*
X5065144Y-17297746D01*
X5065144Y-17297746D02*
X5055620Y-17316793D01*
X5055620Y-17316793D02*
X5055620Y-17354889D01*
X5055620Y-17354889D02*
X5065144Y-17373936D01*
X5065144Y-17373936D02*
X5074667Y-17383460D01*
X5074667Y-17383460D02*
X5093715Y-17392984D01*
X5093715Y-17392984D02*
X5131810Y-17392984D01*
X5131810Y-17392984D02*
X5150858Y-17383460D01*
X5150858Y-17383460D02*
X5160382Y-17373936D01*
X5160382Y-17373936D02*
X5169905Y-17354889D01*
X5169905Y-17354889D02*
X5169905Y-17316793D01*
X5169905Y-17316793D02*
X5160382Y-17297746D01*
X5160382Y-17297746D02*
X5150858Y-17288222D01*
X5150858Y-17288222D02*
X5131810Y-17278698D01*
X5255620Y-17392984D02*
X5255620Y-17259650D01*
X5255620Y-17278698D02*
X5265144Y-17269174D01*
X5265144Y-17269174D02*
X5284191Y-17259650D01*
X5284191Y-17259650D02*
X5312763Y-17259650D01*
X5312763Y-17259650D02*
X5331810Y-17269174D01*
X5331810Y-17269174D02*
X5341334Y-17288222D01*
X5341334Y-17288222D02*
X5341334Y-17392984D01*
X5341334Y-17288222D02*
X5350858Y-17269174D01*
X5350858Y-17269174D02*
X5369905Y-17259650D01*
X5369905Y-17259650D02*
X5398477Y-17259650D01*
X5398477Y-17259650D02*
X5417525Y-17269174D01*
X5417525Y-17269174D02*
X5427048Y-17288222D01*
X5427048Y-17288222D02*
X5427048Y-17392984D01*
X5522286Y-17392984D02*
X5522286Y-17259650D01*
X5522286Y-17278698D02*
X5531810Y-17269174D01*
X5531810Y-17269174D02*
X5550858Y-17259650D01*
X5550858Y-17259650D02*
X5579429Y-17259650D01*
X5579429Y-17259650D02*
X5598477Y-17269174D01*
X5598477Y-17269174D02*
X5608001Y-17288222D01*
X5608001Y-17288222D02*
X5608001Y-17392984D01*
X5608001Y-17288222D02*
X5617524Y-17269174D01*
X5617524Y-17269174D02*
X5636572Y-17259650D01*
X5636572Y-17259650D02*
X5665143Y-17259650D01*
X5665143Y-17259650D02*
X5684191Y-17269174D01*
X5684191Y-17269174D02*
X5693715Y-17288222D01*
X5693715Y-17288222D02*
X5693715Y-17392984D01*
X6084191Y-17183460D02*
X5912763Y-17440603D01*
X6341334Y-17192984D02*
X6360382Y-17192984D01*
X6360382Y-17192984D02*
X6379429Y-17202508D01*
X6379429Y-17202508D02*
X6388953Y-17212031D01*
X6388953Y-17212031D02*
X6398477Y-17231079D01*
X6398477Y-17231079D02*
X6408001Y-17269174D01*
X6408001Y-17269174D02*
X6408001Y-17316793D01*
X6408001Y-17316793D02*
X6398477Y-17354889D01*
X6398477Y-17354889D02*
X6388953Y-17373936D01*
X6388953Y-17373936D02*
X6379429Y-17383460D01*
X6379429Y-17383460D02*
X6360382Y-17392984D01*
X6360382Y-17392984D02*
X6341334Y-17392984D01*
X6341334Y-17392984D02*
X6322286Y-17383460D01*
X6322286Y-17383460D02*
X6312763Y-17373936D01*
X6312763Y-17373936D02*
X6303239Y-17354889D01*
X6303239Y-17354889D02*
X6293715Y-17316793D01*
X6293715Y-17316793D02*
X6293715Y-17269174D01*
X6293715Y-17269174D02*
X6303239Y-17231079D01*
X6303239Y-17231079D02*
X6312763Y-17212031D01*
X6312763Y-17212031D02*
X6322286Y-17202508D01*
X6322286Y-17202508D02*
X6341334Y-17192984D01*
X6493715Y-17373936D02*
X6503239Y-17383460D01*
X6503239Y-17383460D02*
X6493715Y-17392984D01*
X6493715Y-17392984D02*
X6484191Y-17383460D01*
X6484191Y-17383460D02*
X6493715Y-17373936D01*
X6493715Y-17373936D02*
X6493715Y-17392984D01*
X6693715Y-17392984D02*
X6579429Y-17392984D01*
X6636572Y-17392984D02*
X6636572Y-17192984D01*
X6636572Y-17192984D02*
X6617525Y-17221555D01*
X6617525Y-17221555D02*
X6598477Y-17240603D01*
X6598477Y-17240603D02*
X6579429Y-17250127D01*
X6874667Y-17192984D02*
X6779429Y-17192984D01*
X6779429Y-17192984D02*
X6769906Y-17288222D01*
X6769906Y-17288222D02*
X6779429Y-17278698D01*
X6779429Y-17278698D02*
X6798477Y-17269174D01*
X6798477Y-17269174D02*
X6846096Y-17269174D01*
X6846096Y-17269174D02*
X6865144Y-17278698D01*
X6865144Y-17278698D02*
X6874667Y-17288222D01*
X6874667Y-17288222D02*
X6884191Y-17307270D01*
X6884191Y-17307270D02*
X6884191Y-17354889D01*
X6884191Y-17354889D02*
X6874667Y-17373936D01*
X6874667Y-17373936D02*
X6865144Y-17383460D01*
X6865144Y-17383460D02*
X6846096Y-17392984D01*
X6846096Y-17392984D02*
X6798477Y-17392984D01*
X6798477Y-17392984D02*
X6779429Y-17383460D01*
X6779429Y-17383460D02*
X6769906Y-17373936D01*
X6950858Y-17192984D02*
X7084191Y-17192984D01*
X7084191Y-17192984D02*
X6998477Y-17392984D01*
X7198477Y-17192984D02*
X7217525Y-17192984D01*
X7217525Y-17192984D02*
X7236572Y-17202508D01*
X7236572Y-17202508D02*
X7246096Y-17212031D01*
X7246096Y-17212031D02*
X7255620Y-17231079D01*
X7255620Y-17231079D02*
X7265144Y-17269174D01*
X7265144Y-17269174D02*
X7265144Y-17316793D01*
X7265144Y-17316793D02*
X7255620Y-17354889D01*
X7255620Y-17354889D02*
X7246096Y-17373936D01*
X7246096Y-17373936D02*
X7236572Y-17383460D01*
X7236572Y-17383460D02*
X7217525Y-17392984D01*
X7217525Y-17392984D02*
X7198477Y-17392984D01*
X7198477Y-17392984D02*
X7179429Y-17383460D01*
X7179429Y-17383460D02*
X7169906Y-17373936D01*
X7169906Y-17373936D02*
X7160382Y-17354889D01*
X7160382Y-17354889D02*
X7150858Y-17316793D01*
X7150858Y-17316793D02*
X7150858Y-17269174D01*
X7150858Y-17269174D02*
X7160382Y-17231079D01*
X7160382Y-17231079D02*
X7169906Y-17212031D01*
X7169906Y-17212031D02*
X7179429Y-17202508D01*
X7179429Y-17202508D02*
X7198477Y-17192984D01*
X7341334Y-17192984D02*
X7341334Y-17231079D01*
X7417525Y-17192984D02*
X7417525Y-17231079D01*
X7712763Y-17469174D02*
X7703239Y-17459650D01*
X7703239Y-17459650D02*
X7684191Y-17431079D01*
X7684191Y-17431079D02*
X7674668Y-17412031D01*
X7674668Y-17412031D02*
X7665144Y-17383460D01*
X7665144Y-17383460D02*
X7655620Y-17335841D01*
X7655620Y-17335841D02*
X7655620Y-17297746D01*
X7655620Y-17297746D02*
X7665144Y-17250127D01*
X7665144Y-17250127D02*
X7674668Y-17221555D01*
X7674668Y-17221555D02*
X7684191Y-17202508D01*
X7684191Y-17202508D02*
X7703239Y-17173936D01*
X7703239Y-17173936D02*
X7712763Y-17164412D01*
X7884191Y-17192984D02*
X7788953Y-17192984D01*
X7788953Y-17192984D02*
X7779429Y-17288222D01*
X7779429Y-17288222D02*
X7788953Y-17278698D01*
X7788953Y-17278698D02*
X7808001Y-17269174D01*
X7808001Y-17269174D02*
X7855620Y-17269174D01*
X7855620Y-17269174D02*
X7874668Y-17278698D01*
X7874668Y-17278698D02*
X7884191Y-17288222D01*
X7884191Y-17288222D02*
X7893715Y-17307270D01*
X7893715Y-17307270D02*
X7893715Y-17354889D01*
X7893715Y-17354889D02*
X7884191Y-17373936D01*
X7884191Y-17373936D02*
X7874668Y-17383460D01*
X7874668Y-17383460D02*
X7855620Y-17392984D01*
X7855620Y-17392984D02*
X7808001Y-17392984D01*
X7808001Y-17392984D02*
X7788953Y-17383460D01*
X7788953Y-17383460D02*
X7779429Y-17373936D01*
X7988953Y-17392984D02*
X8027048Y-17392984D01*
X8027048Y-17392984D02*
X8046096Y-17383460D01*
X8046096Y-17383460D02*
X8055620Y-17373936D01*
X8055620Y-17373936D02*
X8074668Y-17345365D01*
X8074668Y-17345365D02*
X8084191Y-17307270D01*
X8084191Y-17307270D02*
X8084191Y-17231079D01*
X8084191Y-17231079D02*
X8074668Y-17212031D01*
X8074668Y-17212031D02*
X8065144Y-17202508D01*
X8065144Y-17202508D02*
X8046096Y-17192984D01*
X8046096Y-17192984D02*
X8008001Y-17192984D01*
X8008001Y-17192984D02*
X7988953Y-17202508D01*
X7988953Y-17202508D02*
X7979429Y-17212031D01*
X7979429Y-17212031D02*
X7969906Y-17231079D01*
X7969906Y-17231079D02*
X7969906Y-17278698D01*
X7969906Y-17278698D02*
X7979429Y-17297746D01*
X7979429Y-17297746D02*
X7988953Y-17307270D01*
X7988953Y-17307270D02*
X8008001Y-17316793D01*
X8008001Y-17316793D02*
X8046096Y-17316793D01*
X8046096Y-17316793D02*
X8065144Y-17307270D01*
X8065144Y-17307270D02*
X8074668Y-17297746D01*
X8074668Y-17297746D02*
X8084191Y-17278698D01*
X8322287Y-17392984D02*
X8322287Y-17192984D01*
X8408001Y-17392984D02*
X8408001Y-17288222D01*
X8408001Y-17288222D02*
X8398477Y-17269174D01*
X8398477Y-17269174D02*
X8379430Y-17259650D01*
X8379430Y-17259650D02*
X8350858Y-17259650D01*
X8350858Y-17259650D02*
X8331810Y-17269174D01*
X8331810Y-17269174D02*
X8322287Y-17278698D01*
X8531811Y-17392984D02*
X8512763Y-17383460D01*
X8512763Y-17383460D02*
X8503239Y-17373936D01*
X8503239Y-17373936D02*
X8493715Y-17354889D01*
X8493715Y-17354889D02*
X8493715Y-17297746D01*
X8493715Y-17297746D02*
X8503239Y-17278698D01*
X8503239Y-17278698D02*
X8512763Y-17269174D01*
X8512763Y-17269174D02*
X8531811Y-17259650D01*
X8531811Y-17259650D02*
X8560382Y-17259650D01*
X8560382Y-17259650D02*
X8579430Y-17269174D01*
X8579430Y-17269174D02*
X8588953Y-17278698D01*
X8588953Y-17278698D02*
X8598477Y-17297746D01*
X8598477Y-17297746D02*
X8598477Y-17354889D01*
X8598477Y-17354889D02*
X8588953Y-17373936D01*
X8588953Y-17373936D02*
X8579430Y-17383460D01*
X8579430Y-17383460D02*
X8560382Y-17392984D01*
X8560382Y-17392984D02*
X8531811Y-17392984D01*
X8712763Y-17392984D02*
X8693715Y-17383460D01*
X8693715Y-17383460D02*
X8684192Y-17364412D01*
X8684192Y-17364412D02*
X8684192Y-17192984D01*
X8865144Y-17383460D02*
X8846096Y-17392984D01*
X8846096Y-17392984D02*
X8808001Y-17392984D01*
X8808001Y-17392984D02*
X8788953Y-17383460D01*
X8788953Y-17383460D02*
X8779430Y-17364412D01*
X8779430Y-17364412D02*
X8779430Y-17288222D01*
X8779430Y-17288222D02*
X8788953Y-17269174D01*
X8788953Y-17269174D02*
X8808001Y-17259650D01*
X8808001Y-17259650D02*
X8846096Y-17259650D01*
X8846096Y-17259650D02*
X8865144Y-17269174D01*
X8865144Y-17269174D02*
X8874668Y-17288222D01*
X8874668Y-17288222D02*
X8874668Y-17307270D01*
X8874668Y-17307270D02*
X8779430Y-17326317D01*
X8950858Y-17383460D02*
X8969906Y-17392984D01*
X8969906Y-17392984D02*
X9008001Y-17392984D01*
X9008001Y-17392984D02*
X9027049Y-17383460D01*
X9027049Y-17383460D02*
X9036573Y-17364412D01*
X9036573Y-17364412D02*
X9036573Y-17354889D01*
X9036573Y-17354889D02*
X9027049Y-17335841D01*
X9027049Y-17335841D02*
X9008001Y-17326317D01*
X9008001Y-17326317D02*
X8979430Y-17326317D01*
X8979430Y-17326317D02*
X8960382Y-17316793D01*
X8960382Y-17316793D02*
X8950858Y-17297746D01*
X8950858Y-17297746D02*
X8950858Y-17288222D01*
X8950858Y-17288222D02*
X8960382Y-17269174D01*
X8960382Y-17269174D02*
X8979430Y-17259650D01*
X8979430Y-17259650D02*
X9008001Y-17259650D01*
X9008001Y-17259650D02*
X9027049Y-17269174D01*
X9103239Y-17469174D02*
X9112763Y-17459650D01*
X9112763Y-17459650D02*
X9131811Y-17431079D01*
X9131811Y-17431079D02*
X9141334Y-17412031D01*
X9141334Y-17412031D02*
X9150858Y-17383460D01*
X9150858Y-17383460D02*
X9160382Y-17335841D01*
X9160382Y-17335841D02*
X9160382Y-17297746D01*
X9160382Y-17297746D02*
X9150858Y-17250127D01*
X9150858Y-17250127D02*
X9141334Y-17221555D01*
X9141334Y-17221555D02*
X9131811Y-17202508D01*
X9131811Y-17202508D02*
X9112763Y-17173936D01*
X9112763Y-17173936D02*
X9103239Y-17164412D01*
X9465144Y-17469174D02*
X9455620Y-17459650D01*
X9455620Y-17459650D02*
X9436573Y-17431079D01*
X9436573Y-17431079D02*
X9427049Y-17412031D01*
X9427049Y-17412031D02*
X9417525Y-17383460D01*
X9417525Y-17383460D02*
X9408001Y-17335841D01*
X9408001Y-17335841D02*
X9408001Y-17297746D01*
X9408001Y-17297746D02*
X9417525Y-17250127D01*
X9417525Y-17250127D02*
X9427049Y-17221555D01*
X9427049Y-17221555D02*
X9436573Y-17202508D01*
X9436573Y-17202508D02*
X9455620Y-17173936D01*
X9455620Y-17173936D02*
X9465144Y-17164412D01*
X9541334Y-17259650D02*
X9541334Y-17392984D01*
X9541334Y-17278698D02*
X9550858Y-17269174D01*
X9550858Y-17269174D02*
X9569906Y-17259650D01*
X9569906Y-17259650D02*
X9598477Y-17259650D01*
X9598477Y-17259650D02*
X9617525Y-17269174D01*
X9617525Y-17269174D02*
X9627049Y-17288222D01*
X9627049Y-17288222D02*
X9627049Y-17392984D01*
X9750858Y-17392984D02*
X9731811Y-17383460D01*
X9731811Y-17383460D02*
X9722287Y-17373936D01*
X9722287Y-17373936D02*
X9712763Y-17354889D01*
X9712763Y-17354889D02*
X9712763Y-17297746D01*
X9712763Y-17297746D02*
X9722287Y-17278698D01*
X9722287Y-17278698D02*
X9731811Y-17269174D01*
X9731811Y-17269174D02*
X9750858Y-17259650D01*
X9750858Y-17259650D02*
X9779430Y-17259650D01*
X9779430Y-17259650D02*
X9798477Y-17269174D01*
X9798477Y-17269174D02*
X9808001Y-17278698D01*
X9808001Y-17278698D02*
X9817525Y-17297746D01*
X9817525Y-17297746D02*
X9817525Y-17354889D01*
X9817525Y-17354889D02*
X9808001Y-17373936D01*
X9808001Y-17373936D02*
X9798477Y-17383460D01*
X9798477Y-17383460D02*
X9779430Y-17392984D01*
X9779430Y-17392984D02*
X9750858Y-17392984D01*
X9874668Y-17259650D02*
X9950858Y-17259650D01*
X9903239Y-17192984D02*
X9903239Y-17364412D01*
X9903239Y-17364412D02*
X9912763Y-17383460D01*
X9912763Y-17383460D02*
X9931811Y-17392984D01*
X9931811Y-17392984D02*
X9950858Y-17392984D01*
X10169906Y-17259650D02*
X10169906Y-17459650D01*
X10169906Y-17269174D02*
X10188954Y-17259650D01*
X10188954Y-17259650D02*
X10227049Y-17259650D01*
X10227049Y-17259650D02*
X10246096Y-17269174D01*
X10246096Y-17269174D02*
X10255620Y-17278698D01*
X10255620Y-17278698D02*
X10265144Y-17297746D01*
X10265144Y-17297746D02*
X10265144Y-17354889D01*
X10265144Y-17354889D02*
X10255620Y-17373936D01*
X10255620Y-17373936D02*
X10246096Y-17383460D01*
X10246096Y-17383460D02*
X10227049Y-17392984D01*
X10227049Y-17392984D02*
X10188954Y-17392984D01*
X10188954Y-17392984D02*
X10169906Y-17383460D01*
X10379430Y-17392984D02*
X10360382Y-17383460D01*
X10360382Y-17383460D02*
X10350858Y-17364412D01*
X10350858Y-17364412D02*
X10350858Y-17192984D01*
X10541335Y-17392984D02*
X10541335Y-17288222D01*
X10541335Y-17288222D02*
X10531811Y-17269174D01*
X10531811Y-17269174D02*
X10512763Y-17259650D01*
X10512763Y-17259650D02*
X10474668Y-17259650D01*
X10474668Y-17259650D02*
X10455620Y-17269174D01*
X10541335Y-17383460D02*
X10522287Y-17392984D01*
X10522287Y-17392984D02*
X10474668Y-17392984D01*
X10474668Y-17392984D02*
X10455620Y-17383460D01*
X10455620Y-17383460D02*
X10446096Y-17364412D01*
X10446096Y-17364412D02*
X10446096Y-17345365D01*
X10446096Y-17345365D02*
X10455620Y-17326317D01*
X10455620Y-17326317D02*
X10474668Y-17316793D01*
X10474668Y-17316793D02*
X10522287Y-17316793D01*
X10522287Y-17316793D02*
X10541335Y-17307270D01*
X10608001Y-17259650D02*
X10684192Y-17259650D01*
X10636573Y-17192984D02*
X10636573Y-17364412D01*
X10636573Y-17364412D02*
X10646096Y-17383460D01*
X10646096Y-17383460D02*
X10665144Y-17392984D01*
X10665144Y-17392984D02*
X10684192Y-17392984D01*
X10827049Y-17383460D02*
X10808001Y-17392984D01*
X10808001Y-17392984D02*
X10769906Y-17392984D01*
X10769906Y-17392984D02*
X10750858Y-17383460D01*
X10750858Y-17383460D02*
X10741335Y-17364412D01*
X10741335Y-17364412D02*
X10741335Y-17288222D01*
X10741335Y-17288222D02*
X10750858Y-17269174D01*
X10750858Y-17269174D02*
X10769906Y-17259650D01*
X10769906Y-17259650D02*
X10808001Y-17259650D01*
X10808001Y-17259650D02*
X10827049Y-17269174D01*
X10827049Y-17269174D02*
X10836573Y-17288222D01*
X10836573Y-17288222D02*
X10836573Y-17307270D01*
X10836573Y-17307270D02*
X10741335Y-17326317D01*
X11008001Y-17392984D02*
X11008001Y-17192984D01*
X11008001Y-17383460D02*
X10988954Y-17392984D01*
X10988954Y-17392984D02*
X10950858Y-17392984D01*
X10950858Y-17392984D02*
X10931811Y-17383460D01*
X10931811Y-17383460D02*
X10922287Y-17373936D01*
X10922287Y-17373936D02*
X10912763Y-17354889D01*
X10912763Y-17354889D02*
X10912763Y-17297746D01*
X10912763Y-17297746D02*
X10922287Y-17278698D01*
X10922287Y-17278698D02*
X10931811Y-17269174D01*
X10931811Y-17269174D02*
X10950858Y-17259650D01*
X10950858Y-17259650D02*
X10988954Y-17259650D01*
X10988954Y-17259650D02*
X11008001Y-17269174D01*
X11084192Y-17469174D02*
X11093716Y-17459650D01*
X11093716Y-17459650D02*
X11112763Y-17431079D01*
X11112763Y-17431079D02*
X11122287Y-17412031D01*
X11122287Y-17412031D02*
X11131811Y-17383460D01*
X11131811Y-17383460D02*
X11141335Y-17335841D01*
X11141335Y-17335841D02*
X11141335Y-17297746D01*
X11141335Y-17297746D02*
X11131811Y-17250127D01*
X11131811Y-17250127D02*
X11122287Y-17221555D01*
X11122287Y-17221555D02*
X11112763Y-17202508D01*
X11112763Y-17202508D02*
X11093716Y-17173936D01*
X11093716Y-17173936D02*
X11084192Y-17164412D01*
M02*
