%TF.GenerationSoftware,KiCad,Pcbnew,7.0.9-1.fc39*%
%TF.CreationDate,2024-01-02T19:26:53+02:00*%
%TF.ProjectId,SplitHside5,53706c69-7448-4736-9964-65352e6b6963,rev?*%
%TF.SameCoordinates,Original*%
%TF.FileFunction,Drillmap*%
%TF.FilePolarity,Positive*%
%FSLAX45Y45*%
G04 Gerber Fmt 4.5, Leading zero omitted, Abs format (unit mm)*
G04 Created by KiCad (PCBNEW 7.0.9-1.fc39) date 2024-01-02 19:26:53*
%MOMM*%
%LPD*%
G01*
G04 APERTURE LIST*
%ADD10C,0.050000*%
%ADD11C,0.100000*%
%ADD12C,0.200000*%
%ADD13C,0.109220*%
%ADD14C,0.147000*%
G04 APERTURE END LIST*
D10*
X4140200Y-14957500D02*
G75*
G03*
X4640200Y-15457500I500000J0D01*
G01*
X4142500Y-1547432D02*
X4142500Y-1480000D01*
X4655000Y-15457500D02*
X4640200Y-15457500D01*
X8255000Y-15457500D02*
X8405000Y-15457500D01*
X25035000Y-1637500D02*
X25196447Y-1637500D01*
X4433972Y-832719D02*
X7155598Y1888907D01*
X4142500Y-1754583D02*
X4142500Y-1547432D01*
X13982700Y-1638300D02*
X24820543Y-1639330D01*
X9276919Y1888907D02*
G75*
G03*
X7155599Y1888907I-1060660J-1060660D01*
G01*
X13779500Y-1638300D02*
X13709131Y-1637493D01*
X25910000Y-2137500D02*
G75*
G03*
X25410000Y-1637500I-500000J0D01*
G01*
X25196447Y-15457500D02*
X25035000Y-15457500D01*
X25910000Y-2137500D02*
X25910000Y-2436600D01*
X25290000Y-1637500D02*
X25336447Y-1637500D01*
X4655000Y-15457500D02*
X8255000Y-15457500D01*
D11*
X25910000Y-14957500D02*
X25910000Y-2436600D01*
D10*
X25410000Y-1637500D02*
X25336447Y-1637500D01*
X24820543Y-1639330D02*
X24821980Y-1639330D01*
X25035000Y-15457500D02*
X8405000Y-15457500D01*
D11*
X25410000Y-15457500D02*
G75*
G03*
X25910000Y-14957500I0J500000D01*
G01*
D10*
X25035000Y-1637500D02*
X24821980Y-1639330D01*
X9276919Y1888907D02*
X12053451Y-1050746D01*
X25196447Y-1637500D02*
X25290000Y-1637500D01*
X25290000Y-15457500D02*
X25196447Y-15457500D01*
X25336447Y-15457500D02*
X25290000Y-15457500D01*
X4141823Y-1331622D02*
X4142500Y-1381622D01*
D11*
X12053451Y-1050746D02*
G75*
G03*
X13470000Y-1637500I1416549J1416546D01*
G01*
D10*
X4142500Y-1381622D02*
X4142500Y-1480000D01*
X4142500Y-1754583D02*
X4140200Y-14957500D01*
X13982700Y-1638300D02*
X13779500Y-1638300D01*
X4288700Y-977639D02*
X4433972Y-832719D01*
X4288699Y-977639D02*
G75*
G03*
X4141823Y-1331622I353121J-353981D01*
G01*
X13470000Y-1637500D02*
X13709131Y-1637493D01*
X25410000Y-15457500D02*
X25336447Y-15457500D01*
D12*
D11*
X9417856Y444931D02*
X9457856Y404931D01*
X9457856Y444931D02*
X9417856Y404931D01*
X14195000Y-5115000D02*
X14235000Y-5155000D01*
X14235000Y-5115000D02*
X14195000Y-5155000D01*
X23487700Y-1885000D02*
X23527700Y-1925000D01*
X23527700Y-1885000D02*
X23487700Y-1925000D01*
X5633909Y-423640D02*
G75*
G03*
X5633909Y-423640I-45000J0D01*
G01*
X5542947Y-441317D02*
X5571231Y-469601D01*
X5571231Y-469601D02*
G75*
G03*
X5634871Y-405962I31820J31820D01*
G01*
X5634871Y-405962D02*
X5606586Y-377678D01*
X5606586Y-377678D02*
G75*
G03*
X5542947Y-441317I-31820J-31820D01*
G01*
X5846041Y-635772D02*
G75*
G03*
X5846041Y-635772I-45000J0D01*
G01*
X5755079Y-653449D02*
X5783363Y-681734D01*
X5783363Y-681734D02*
G75*
G03*
X5847003Y-618094I31820J31820D01*
G01*
X5847003Y-618094D02*
X5818718Y-589810D01*
X5818718Y-589810D02*
G75*
G03*
X5755079Y-653449I-31820J-31820D01*
G01*
X5881396Y-1321665D02*
G75*
G03*
X5881396Y-1321665I-45000J0D01*
G01*
X5790434Y-1339343D02*
X5818718Y-1367627D01*
X5818718Y-1367627D02*
G75*
G03*
X5882358Y-1303988I31820J31820D01*
G01*
X5882358Y-1303988D02*
X5854074Y-1275703D01*
X5854074Y-1275703D02*
G75*
G03*
X5790434Y-1339343I-31820J-31820D01*
G01*
X6128883Y-918614D02*
G75*
G03*
X6128883Y-918614I-45000J0D01*
G01*
X6037922Y-936292D02*
X6066206Y-964576D01*
X6066206Y-964576D02*
G75*
G03*
X6129845Y-900937I31820J31820D01*
G01*
X6129845Y-900937D02*
X6101561Y-872652D01*
X6101561Y-872652D02*
G75*
G03*
X6037922Y-936292I-31820J-31820D01*
G01*
X5990000Y-160470D02*
X5990000Y-259530D01*
X5940470Y-210000D02*
X6039530Y-210000D01*
X6151580Y27950D02*
X6151580Y-71110D01*
X6102050Y-21580D02*
X6201110Y-21580D01*
X6708420Y-878890D02*
X6708420Y-977950D01*
X6658890Y-928420D02*
X6757950Y-928420D01*
X6870000Y-690470D02*
X6870000Y-789530D01*
X6820470Y-740000D02*
X6919530Y-740000D01*
X4678696Y-3062386D02*
X4678696Y-2991674D01*
X4607984Y-2991674D01*
X4607984Y-3062386D01*
X4678696Y-3062386D01*
X4678696Y-3842386D02*
X4678696Y-3771674D01*
X4607984Y-3771674D01*
X4607984Y-3842386D01*
X4678696Y-3842386D01*
X4718481Y-7835356D02*
X4718481Y-7764644D01*
X4647769Y-7764644D01*
X4647769Y-7835356D01*
X4718481Y-7835356D01*
X4718481Y-8615356D02*
X4718481Y-8544644D01*
X4647769Y-8544644D01*
X4647769Y-8615356D01*
X4718481Y-8615356D01*
X5235356Y-9735356D02*
X5235356Y-9664644D01*
X5164644Y-9664644D01*
X5164644Y-9735356D01*
X5235356Y-9735356D01*
X5235356Y-10515356D02*
X5235356Y-10444644D01*
X5164644Y-10444644D01*
X5164644Y-10515356D01*
X5235356Y-10515356D01*
X5670981Y-5905356D02*
X5670981Y-5834644D01*
X5600269Y-5834644D01*
X5600269Y-5905356D01*
X5670981Y-5905356D01*
X5670981Y-6685356D02*
X5670981Y-6614644D01*
X5600269Y-6614644D01*
X5600269Y-6685356D01*
X5670981Y-6685356D01*
X5985356Y-11695356D02*
X5985356Y-11624644D01*
X5914644Y-11624644D01*
X5914644Y-11695356D01*
X5985356Y-11695356D01*
X5985356Y-12475356D02*
X5985356Y-12404644D01*
X5914644Y-12404644D01*
X5914644Y-12475356D01*
X5985356Y-12475356D01*
X6285356Y-11705356D02*
X6285356Y-11634644D01*
X6214644Y-11634644D01*
X6214644Y-11705356D01*
X6285356Y-11705356D01*
X6285356Y-12485356D02*
X6285356Y-12414644D01*
X6214644Y-12414644D01*
X6214644Y-12485356D01*
X6285356Y-12485356D01*
X6464731Y-3062386D02*
X6464731Y-2991674D01*
X6394019Y-2991674D01*
X6394019Y-3062386D01*
X6464731Y-3062386D01*
X6464731Y-3842386D02*
X6464731Y-3771674D01*
X6394019Y-3771674D01*
X6394019Y-3842386D01*
X6464731Y-3842386D01*
X6623481Y-7835356D02*
X6623481Y-7764644D01*
X6552769Y-7764644D01*
X6552769Y-7835356D01*
X6623481Y-7835356D01*
X6623481Y-8615356D02*
X6623481Y-8544644D01*
X6552769Y-8544644D01*
X6552769Y-8615356D01*
X6623481Y-8615356D01*
X6941010Y-13599538D02*
X6941010Y-13528826D01*
X6870298Y-13528826D01*
X6870298Y-13599538D01*
X6941010Y-13599538D01*
X6941010Y-14379538D02*
X6941010Y-14308826D01*
X6870298Y-14308826D01*
X6870298Y-14379538D01*
X6941010Y-14379538D01*
X7185356Y-9745356D02*
X7185356Y-9674644D01*
X7114644Y-9674644D01*
X7114644Y-9745356D01*
X7185356Y-9745356D01*
X7185356Y-10525356D02*
X7185356Y-10454644D01*
X7114644Y-10454644D01*
X7114644Y-10525356D01*
X7185356Y-10525356D01*
X7535356Y-5905356D02*
X7535356Y-5834644D01*
X7464644Y-5834644D01*
X7464644Y-5905356D01*
X7535356Y-5905356D01*
X7535356Y-6685356D02*
X7535356Y-6614644D01*
X7464644Y-6614644D01*
X7464644Y-6685356D01*
X7535356Y-6685356D01*
X8135356Y-11705356D02*
X8135356Y-11634644D01*
X8064644Y-11634644D01*
X8064644Y-11705356D01*
X8135356Y-11705356D01*
X8135356Y-12485356D02*
X8135356Y-12414644D01*
X8064644Y-12414644D01*
X8064644Y-12485356D01*
X8135356Y-12485356D01*
X8458851Y-3062386D02*
X8458851Y-2991674D01*
X8388139Y-2991674D01*
X8388139Y-3062386D01*
X8458851Y-3062386D01*
X8458851Y-3842386D02*
X8458851Y-3771674D01*
X8388139Y-3771674D01*
X8388139Y-3842386D01*
X8458851Y-3842386D01*
X8535356Y-7855356D02*
X8535356Y-7784644D01*
X8464644Y-7784644D01*
X8464644Y-7855356D01*
X8535356Y-7855356D01*
X8535356Y-8635356D02*
X8535356Y-8564644D01*
X8464644Y-8564644D01*
X8464644Y-8635356D01*
X8535356Y-8635356D01*
X9085356Y-9745356D02*
X9085356Y-9674644D01*
X9014644Y-9674644D01*
X9014644Y-9745356D01*
X9085356Y-9745356D01*
X9085356Y-10525356D02*
X9085356Y-10454644D01*
X9014644Y-10454644D01*
X9014644Y-10525356D01*
X9085356Y-10525356D01*
X9480981Y-5885356D02*
X9480981Y-5814644D01*
X9410269Y-5814644D01*
X9410269Y-5885356D01*
X9480981Y-5885356D01*
X9480981Y-6665356D02*
X9480981Y-6594644D01*
X9410269Y-6594644D01*
X9410269Y-6665356D01*
X9480981Y-6665356D01*
X10085356Y-11695356D02*
X10085356Y-11624644D01*
X10014644Y-11624644D01*
X10014644Y-11695356D01*
X10085356Y-11695356D01*
X10085356Y-12475356D02*
X10085356Y-12404644D01*
X10014644Y-12404644D01*
X10014644Y-12475356D01*
X10085356Y-12475356D01*
X10363811Y-3062386D02*
X10363811Y-2991674D01*
X10293099Y-2991674D01*
X10293099Y-3062386D01*
X10363811Y-3062386D01*
X10363811Y-3842386D02*
X10363811Y-3771674D01*
X10293099Y-3771674D01*
X10293099Y-3842386D01*
X10363811Y-3842386D01*
X10433481Y-7855356D02*
X10433481Y-7784644D01*
X10362769Y-7784644D01*
X10362769Y-7855356D01*
X10433481Y-7855356D01*
X10433481Y-8635356D02*
X10433481Y-8564644D01*
X10362769Y-8564644D01*
X10362769Y-8635356D01*
X10433481Y-8635356D01*
X10985356Y-9755356D02*
X10985356Y-9684644D01*
X10914644Y-9684644D01*
X10914644Y-9755356D01*
X10985356Y-9755356D01*
X10985356Y-10535356D02*
X10985356Y-10464644D01*
X10914644Y-10464644D01*
X10914644Y-10535356D01*
X10985356Y-10535356D01*
X11385356Y-5905356D02*
X11385356Y-5834644D01*
X11314644Y-5834644D01*
X11314644Y-5905356D01*
X11385356Y-5905356D01*
X11385356Y-6685356D02*
X11385356Y-6614644D01*
X11314644Y-6614644D01*
X11314644Y-6685356D01*
X11385356Y-6685356D01*
X11465404Y-13599538D02*
X11465404Y-13528826D01*
X11394692Y-13528826D01*
X11394692Y-13599538D01*
X11465404Y-13599538D01*
X11465404Y-14379538D02*
X11465404Y-14308826D01*
X11394692Y-14308826D01*
X11394692Y-14379538D01*
X11465404Y-14379538D01*
X11985356Y-11695356D02*
X11985356Y-11624644D01*
X11914644Y-11624644D01*
X11914644Y-11695356D01*
X11985356Y-11695356D01*
X11985356Y-12475356D02*
X11985356Y-12404644D01*
X11914644Y-12404644D01*
X11914644Y-12475356D01*
X11985356Y-12475356D01*
X12335356Y-7845356D02*
X12335356Y-7774644D01*
X12264644Y-7774644D01*
X12264644Y-7845356D01*
X12335356Y-7845356D01*
X12335356Y-8625356D02*
X12335356Y-8554644D01*
X12264644Y-8554644D01*
X12264644Y-8625356D01*
X12335356Y-8625356D01*
X12814731Y-9745356D02*
X12814731Y-9674644D01*
X12744019Y-9674644D01*
X12744019Y-9745356D01*
X12814731Y-9745356D01*
X12814731Y-10525356D02*
X12814731Y-10454644D01*
X12744019Y-10454644D01*
X12744019Y-10525356D01*
X12814731Y-10525356D01*
X13285356Y-5905356D02*
X13285356Y-5834644D01*
X13214644Y-5834644D01*
X13214644Y-5905356D01*
X13285356Y-5905356D01*
X13285356Y-6685356D02*
X13285356Y-6614644D01*
X13214644Y-6614644D01*
X13214644Y-6685356D01*
X13285356Y-6685356D01*
X13399841Y-3059393D02*
X13399841Y-2988682D01*
X13329129Y-2988682D01*
X13329129Y-3059393D01*
X13399841Y-3059393D01*
X13399841Y-3839393D02*
X13399841Y-3768682D01*
X13329129Y-3768682D01*
X13329129Y-3839393D01*
X13399841Y-3839393D01*
X13730346Y-13605356D02*
X13730346Y-13534644D01*
X13659634Y-13534644D01*
X13659634Y-13605356D01*
X13730346Y-13605356D01*
X13730346Y-14385356D02*
X13730346Y-14314644D01*
X13659634Y-14314644D01*
X13659634Y-14385356D01*
X13730346Y-14385356D01*
X13885356Y-11685356D02*
X13885356Y-11614644D01*
X13814644Y-11614644D01*
X13814644Y-11685356D01*
X13885356Y-11685356D01*
X13885356Y-12465356D02*
X13885356Y-12394644D01*
X13814644Y-12394644D01*
X13814644Y-12465356D01*
X13885356Y-12465356D01*
X14243481Y-7855356D02*
X14243481Y-7784644D01*
X14172769Y-7784644D01*
X14172769Y-7855356D01*
X14243481Y-7855356D01*
X14243481Y-8635356D02*
X14243481Y-8564644D01*
X14172769Y-8564644D01*
X14172769Y-8635356D01*
X14243481Y-8635356D01*
X14835356Y-9755356D02*
X14835356Y-9684644D01*
X14764644Y-9684644D01*
X14764644Y-9755356D01*
X14835356Y-9755356D01*
X14835356Y-10535356D02*
X14835356Y-10464644D01*
X14764644Y-10464644D01*
X14764644Y-10535356D01*
X14835356Y-10535356D01*
X15195981Y-5905356D02*
X15195981Y-5834644D01*
X15125269Y-5834644D01*
X15125269Y-5905356D01*
X15195981Y-5905356D01*
X15195981Y-6685356D02*
X15195981Y-6614644D01*
X15125269Y-6614644D01*
X15125269Y-6685356D01*
X15195981Y-6685356D01*
X15200623Y-3059393D02*
X15200623Y-2988682D01*
X15129912Y-2988682D01*
X15129912Y-3059393D01*
X15200623Y-3059393D01*
X15200623Y-3839393D02*
X15200623Y-3768682D01*
X15129912Y-3768682D01*
X15129912Y-3839393D01*
X15200623Y-3839393D01*
X16135356Y-7855356D02*
X16135356Y-7784644D01*
X16064644Y-7784644D01*
X16064644Y-7855356D01*
X16135356Y-7855356D01*
X16135356Y-8635356D02*
X16135356Y-8564644D01*
X16064644Y-8564644D01*
X16064644Y-8635356D01*
X16135356Y-8635356D01*
X16227924Y-13599538D02*
X16227924Y-13528826D01*
X16157212Y-13528826D01*
X16157212Y-13599538D01*
X16227924Y-13599538D01*
X16227924Y-14379538D02*
X16227924Y-14308826D01*
X16157212Y-14308826D01*
X16157212Y-14379538D01*
X16227924Y-14379538D01*
X16485356Y-11685356D02*
X16485356Y-11614644D01*
X16414644Y-11614644D01*
X16414644Y-11685356D01*
X16485356Y-11685356D01*
X16485356Y-12465356D02*
X16485356Y-12394644D01*
X16414644Y-12394644D01*
X16414644Y-12465356D01*
X16485356Y-12465356D01*
X16685356Y-9745356D02*
X16685356Y-9674644D01*
X16614644Y-9674644D01*
X16614644Y-9745356D01*
X16685356Y-9745356D01*
X16685356Y-10525356D02*
X16685356Y-10454644D01*
X16614644Y-10454644D01*
X16614644Y-10525356D01*
X16685356Y-10525356D01*
X17031171Y-3059393D02*
X17031171Y-2988682D01*
X16960459Y-2988682D01*
X16960459Y-3059393D01*
X17031171Y-3059393D01*
X17031171Y-3839393D02*
X17031171Y-3768682D01*
X16960459Y-3768682D01*
X16960459Y-3839393D01*
X17031171Y-3839393D01*
X17335356Y-5905356D02*
X17335356Y-5834644D01*
X17264644Y-5834644D01*
X17264644Y-5905356D01*
X17335356Y-5905356D01*
X17335356Y-6685356D02*
X17335356Y-6614644D01*
X17264644Y-6614644D01*
X17264644Y-6685356D01*
X17335356Y-6685356D01*
X18995661Y-3062386D02*
X18995661Y-2991674D01*
X18924949Y-2991674D01*
X18924949Y-3062386D01*
X18995661Y-3062386D01*
X18995661Y-3842386D02*
X18995661Y-3771674D01*
X18924949Y-3771674D01*
X18924949Y-3842386D01*
X18995661Y-3842386D01*
X19442625Y-14051979D02*
X19442625Y-13981267D01*
X19371913Y-13981267D01*
X19371913Y-14051979D01*
X19442625Y-14051979D01*
X19442625Y-14831979D02*
X19442625Y-14761267D01*
X19371913Y-14761267D01*
X19371913Y-14831979D01*
X19442625Y-14831979D01*
X20785356Y-8985356D02*
X20785356Y-8914644D01*
X20714644Y-8914644D01*
X20714644Y-8985356D01*
X20785356Y-8985356D01*
X20785356Y-9765356D02*
X20785356Y-9694644D01*
X20714644Y-9694644D01*
X20714644Y-9765356D01*
X20785356Y-9765356D01*
X21228481Y-3074356D02*
X21228481Y-3003644D01*
X21157769Y-3003644D01*
X21157769Y-3074356D01*
X21228481Y-3074356D01*
X21228481Y-3854356D02*
X21228481Y-3783644D01*
X21157769Y-3783644D01*
X21157769Y-3854356D01*
X21228481Y-3854356D01*
X21285356Y-7795356D02*
X21285356Y-7724644D01*
X21214644Y-7724644D01*
X21214644Y-7795356D01*
X21285356Y-7795356D01*
X21285356Y-8575356D02*
X21285356Y-8504644D01*
X21214644Y-8504644D01*
X21214644Y-8575356D01*
X21285356Y-8575356D01*
X21307856Y-5895356D02*
X21307856Y-5824644D01*
X21237144Y-5824644D01*
X21237144Y-5895356D01*
X21307856Y-5895356D01*
X21307856Y-6675356D02*
X21307856Y-6604644D01*
X21237144Y-6604644D01*
X21237144Y-6675356D01*
X21307856Y-6675356D01*
X21347633Y-14028168D02*
X21347633Y-13957456D01*
X21276921Y-13957456D01*
X21276921Y-14028168D01*
X21347633Y-14028168D01*
X21347633Y-14808168D02*
X21347633Y-14737456D01*
X21276921Y-14737456D01*
X21276921Y-14808168D01*
X21347633Y-14808168D01*
X21535356Y-12195356D02*
X21535356Y-12124644D01*
X21464644Y-12124644D01*
X21464644Y-12195356D01*
X21535356Y-12195356D01*
X21535356Y-12975356D02*
X21535356Y-12904644D01*
X21464644Y-12904644D01*
X21464644Y-12975356D01*
X21535356Y-12975356D01*
X23212856Y-7795356D02*
X23212856Y-7724644D01*
X23142144Y-7724644D01*
X23142144Y-7795356D01*
X23212856Y-7795356D01*
X23212856Y-8575356D02*
X23212856Y-8504644D01*
X23142144Y-8504644D01*
X23142144Y-8575356D01*
X23212856Y-8575356D01*
X23252641Y-14051979D02*
X23252641Y-13981267D01*
X23181929Y-13981267D01*
X23181929Y-14051979D01*
X23252641Y-14051979D01*
X23252641Y-14831979D02*
X23252641Y-14761267D01*
X23181929Y-14761267D01*
X23181929Y-14831979D01*
X23252641Y-14831979D01*
X23285356Y-5905356D02*
X23285356Y-5834644D01*
X23214644Y-5834644D01*
X23214644Y-5905356D01*
X23285356Y-5905356D01*
X23285356Y-6685356D02*
X23285356Y-6614644D01*
X23214644Y-6614644D01*
X23214644Y-6685356D01*
X23285356Y-6685356D01*
X23335356Y-3055356D02*
X23335356Y-2984644D01*
X23264644Y-2984644D01*
X23264644Y-3055356D01*
X23335356Y-3055356D01*
X23335356Y-3835356D02*
X23335356Y-3764644D01*
X23264644Y-3764644D01*
X23264644Y-3835356D01*
X23335356Y-3835356D01*
D13*
X6558630Y11046D02*
X6613240Y65656D01*
X6558630Y120266D01*
X6504020Y65656D01*
X6558630Y11046D01*
X6738235Y-168559D02*
X6792845Y-113949D01*
X6738235Y-59339D01*
X6683625Y-113949D01*
X6738235Y-168559D01*
X6917840Y-348164D02*
X6972450Y-293554D01*
X6917840Y-238944D01*
X6863230Y-293554D01*
X6917840Y-348164D01*
X7097445Y-527769D02*
X7152055Y-473159D01*
X7097445Y-418549D01*
X7042835Y-473159D01*
X7097445Y-527769D01*
X7277050Y-707374D02*
X7331660Y-652764D01*
X7277050Y-598154D01*
X7222440Y-652764D01*
X7277050Y-707374D01*
X7456656Y-886979D02*
X7511266Y-832369D01*
X7456656Y-777759D01*
X7402046Y-832369D01*
X7456656Y-886979D01*
X7636261Y1088677D02*
X7690871Y1143287D01*
X7636261Y1197897D01*
X7581651Y1143287D01*
X7636261Y1088677D01*
X7636261Y-1066584D02*
X7690871Y-1011974D01*
X7636261Y-957364D01*
X7581651Y-1011974D01*
X7636261Y-1066584D01*
X7815866Y909072D02*
X7870476Y963682D01*
X7815866Y1018292D01*
X7761256Y963682D01*
X7815866Y909072D01*
X7815866Y-1246190D02*
X7870476Y-1191580D01*
X7815866Y-1136970D01*
X7761256Y-1191580D01*
X7815866Y-1246190D01*
X7995471Y729467D02*
X8050081Y784077D01*
X7995471Y838687D01*
X7940861Y784077D01*
X7995471Y729467D01*
X7995471Y-1425795D02*
X8050081Y-1371185D01*
X7995471Y-1316575D01*
X7940861Y-1371185D01*
X7995471Y-1425795D01*
X8175076Y549862D02*
X8229686Y604472D01*
X8175076Y659082D01*
X8120466Y604472D01*
X8175076Y549862D01*
X8175076Y-1605400D02*
X8229686Y-1550790D01*
X8175076Y-1496180D01*
X8120466Y-1550790D01*
X8175076Y-1605400D01*
X8354681Y370257D02*
X8409291Y424867D01*
X8354681Y479477D01*
X8300071Y424867D01*
X8354681Y370257D01*
X8354681Y-1785005D02*
X8409291Y-1730395D01*
X8354681Y-1675785D01*
X8300071Y-1730395D01*
X8354681Y-1785005D01*
X8534286Y190651D02*
X8588896Y245261D01*
X8534286Y299871D01*
X8479676Y245261D01*
X8534286Y190651D01*
X8534286Y-1964610D02*
X8588896Y-1910000D01*
X8534286Y-1855390D01*
X8479676Y-1910000D01*
X8534286Y-1964610D01*
X8713891Y11046D02*
X8768501Y65656D01*
X8713891Y120266D01*
X8659281Y65656D01*
X8713891Y11046D01*
X8893497Y-168559D02*
X8948107Y-113949D01*
X8893497Y-59339D01*
X8838887Y-113949D01*
X8893497Y-168559D01*
X9073102Y-348164D02*
X9127712Y-293554D01*
X9073102Y-238944D01*
X9018492Y-293554D01*
X9073102Y-348164D01*
X9252707Y-527769D02*
X9307317Y-473159D01*
X9252707Y-418549D01*
X9198097Y-473159D01*
X9252707Y-527769D01*
X9432312Y-707374D02*
X9486922Y-652764D01*
X9432312Y-598154D01*
X9377702Y-652764D01*
X9432312Y-707374D01*
X9611917Y-886979D02*
X9666527Y-832369D01*
X9611917Y-777759D01*
X9557307Y-832369D01*
X9611917Y-886979D01*
D14*
X4665217Y-11578800D02*
X4812217Y-11725800D01*
X4812217Y-11578800D02*
X4665217Y-11725800D01*
X4812217Y-11652300D02*
G75*
G03*
X4812217Y-11652300I-73500J0D01*
G01*
X5141461Y-3006264D02*
X5288461Y-3153264D01*
X5288461Y-3006264D02*
X5141461Y-3153264D01*
X5288461Y-3079764D02*
G75*
G03*
X5288461Y-3079764I-73500J0D01*
G01*
X5141461Y-7768784D02*
X5288461Y-7915784D01*
X5288461Y-7768784D02*
X5141461Y-7915784D01*
X5288461Y-7842284D02*
G75*
G03*
X5288461Y-7842284I-73500J0D01*
G01*
X5300217Y-11324800D02*
X5447217Y-11471800D01*
X5447217Y-11324800D02*
X5300217Y-11471800D01*
X5447217Y-11398300D02*
G75*
G03*
X5447217Y-11398300I-73500J0D01*
G01*
X5617713Y-9673792D02*
X5764713Y-9820792D01*
X5764713Y-9673792D02*
X5617713Y-9820792D01*
X5764713Y-9747292D02*
G75*
G03*
X5764713Y-9747292I-73500J0D01*
G01*
X5776461Y-2752264D02*
X5923461Y-2899264D01*
X5923461Y-2752264D02*
X5776461Y-2899264D01*
X5923461Y-2825764D02*
G75*
G03*
X5923461Y-2825764I-73500J0D01*
G01*
X5776461Y-7514784D02*
X5923461Y-7661784D01*
X5923461Y-7514784D02*
X5776461Y-7661784D01*
X5923461Y-7588284D02*
G75*
G03*
X5923461Y-7588284I-73500J0D01*
G01*
X6093965Y-5863776D02*
X6240965Y-6010776D01*
X6240965Y-5863776D02*
X6093965Y-6010776D01*
X6240965Y-5937276D02*
G75*
G03*
X6240965Y-5937276I-73500J0D01*
G01*
X6252713Y-9419792D02*
X6399713Y-9566792D01*
X6399713Y-9419792D02*
X6252713Y-9566792D01*
X6399713Y-9493292D02*
G75*
G03*
X6399713Y-9493292I-73500J0D01*
G01*
X6570217Y-11578800D02*
X6717217Y-11725800D01*
X6717217Y-11578800D02*
X6570217Y-11725800D01*
X6717217Y-11652300D02*
G75*
G03*
X6717217Y-11652300I-73500J0D01*
G01*
X6728965Y-5609776D02*
X6875965Y-5756776D01*
X6875965Y-5609776D02*
X6728965Y-5756776D01*
X6875965Y-5683276D02*
G75*
G03*
X6875965Y-5683276I-73500J0D01*
G01*
X7046469Y-3006264D02*
X7193469Y-3153264D01*
X7193469Y-3006264D02*
X7046469Y-3153264D01*
X7193469Y-3079764D02*
G75*
G03*
X7193469Y-3079764I-73500J0D01*
G01*
X7046469Y-7768784D02*
X7193469Y-7915784D01*
X7193469Y-7768784D02*
X7046469Y-7915784D01*
X7193469Y-7842284D02*
G75*
G03*
X7193469Y-7842284I-73500J0D01*
G01*
X7205217Y-11324800D02*
X7352217Y-11471800D01*
X7352217Y-11324800D02*
X7205217Y-11471800D01*
X7352217Y-11398300D02*
G75*
G03*
X7352217Y-11398300I-73500J0D01*
G01*
X7522721Y-9673792D02*
X7669721Y-9820792D01*
X7669721Y-9673792D02*
X7522721Y-9820792D01*
X7669721Y-9747292D02*
G75*
G03*
X7669721Y-9747292I-73500J0D01*
G01*
X7681469Y-2752264D02*
X7828469Y-2899264D01*
X7828469Y-2752264D02*
X7681469Y-2899264D01*
X7828469Y-2825764D02*
G75*
G03*
X7828469Y-2825764I-73500J0D01*
G01*
X7681469Y-7514784D02*
X7828469Y-7661784D01*
X7828469Y-7514784D02*
X7681469Y-7661784D01*
X7828469Y-7588284D02*
G75*
G03*
X7828469Y-7588284I-73500J0D01*
G01*
X7998973Y-5863750D02*
X8145973Y-6010750D01*
X8145973Y-5863750D02*
X7998973Y-6010750D01*
X8145973Y-5937250D02*
G75*
G03*
X8145973Y-5937250I-73500J0D01*
G01*
X8157721Y-9419792D02*
X8304721Y-9566792D01*
X8304721Y-9419792D02*
X8157721Y-9566792D01*
X8304721Y-9493292D02*
G75*
G03*
X8304721Y-9493292I-73500J0D01*
G01*
X8237099Y-13483808D02*
X8384099Y-13630808D01*
X8384099Y-13483808D02*
X8237099Y-13630808D01*
X8384099Y-13557308D02*
G75*
G03*
X8384099Y-13557308I-73500J0D01*
G01*
X8475225Y-11578800D02*
X8622225Y-11725800D01*
X8622225Y-11578800D02*
X8475225Y-11725800D01*
X8622225Y-11652300D02*
G75*
G03*
X8622225Y-11652300I-73500J0D01*
G01*
X8633973Y-5609750D02*
X8780973Y-5756750D01*
X8780973Y-5609750D02*
X8633973Y-5756750D01*
X8780973Y-5683250D02*
G75*
G03*
X8780973Y-5683250I-73500J0D01*
G01*
X8872099Y-13229808D02*
X9019099Y-13376808D01*
X9019099Y-13229808D02*
X8872099Y-13376808D01*
X9019099Y-13303308D02*
G75*
G03*
X9019099Y-13303308I-73500J0D01*
G01*
X8951477Y-3006264D02*
X9098477Y-3153264D01*
X9098477Y-3006264D02*
X8951477Y-3153264D01*
X9098477Y-3079764D02*
G75*
G03*
X9098477Y-3079764I-73500J0D01*
G01*
X8951477Y-7768784D02*
X9098477Y-7915784D01*
X9098477Y-7768784D02*
X8951477Y-7915784D01*
X9098477Y-7842284D02*
G75*
G03*
X9098477Y-7842284I-73500J0D01*
G01*
X9110225Y-11324800D02*
X9257225Y-11471800D01*
X9257225Y-11324800D02*
X9110225Y-11471800D01*
X9257225Y-11398300D02*
G75*
G03*
X9257225Y-11398300I-73500J0D01*
G01*
X9427729Y-9673792D02*
X9574729Y-9820792D01*
X9574729Y-9673792D02*
X9427729Y-9820792D01*
X9574729Y-9747292D02*
G75*
G03*
X9574729Y-9747292I-73500J0D01*
G01*
X9586477Y-2752264D02*
X9733477Y-2899264D01*
X9733477Y-2752264D02*
X9586477Y-2899264D01*
X9733477Y-2825764D02*
G75*
G03*
X9733477Y-2825764I-73500J0D01*
G01*
X9586477Y-7514784D02*
X9733477Y-7661784D01*
X9733477Y-7514784D02*
X9586477Y-7661784D01*
X9733477Y-7588284D02*
G75*
G03*
X9733477Y-7588284I-73500J0D01*
G01*
X9903981Y-5863776D02*
X10050981Y-6010776D01*
X10050981Y-5863776D02*
X9903981Y-6010776D01*
X10050981Y-5937276D02*
G75*
G03*
X10050981Y-5937276I-73500J0D01*
G01*
X10062729Y-9419792D02*
X10209729Y-9566792D01*
X10209729Y-9419792D02*
X10062729Y-9566792D01*
X10209729Y-9493292D02*
G75*
G03*
X10209729Y-9493292I-73500J0D01*
G01*
X10380233Y-11578800D02*
X10527233Y-11725800D01*
X10527233Y-11578800D02*
X10380233Y-11725800D01*
X10527233Y-11652300D02*
G75*
G03*
X10527233Y-11652300I-73500J0D01*
G01*
X10538981Y-5609776D02*
X10685981Y-5756776D01*
X10685981Y-5609776D02*
X10538981Y-5756776D01*
X10685981Y-5683276D02*
G75*
G03*
X10685981Y-5683276I-73500J0D01*
G01*
X10856200Y-7768580D02*
X11003200Y-7915580D01*
X11003200Y-7768580D02*
X10856200Y-7915580D01*
X11003200Y-7842080D02*
G75*
G03*
X11003200Y-7842080I-73500J0D01*
G01*
X10856485Y-3006264D02*
X11003485Y-3153264D01*
X11003485Y-3006264D02*
X10856485Y-3153264D01*
X11003485Y-3079764D02*
G75*
G03*
X11003485Y-3079764I-73500J0D01*
G01*
X11015233Y-11324800D02*
X11162233Y-11471800D01*
X11162233Y-11324800D02*
X11015233Y-11471800D01*
X11162233Y-11398300D02*
G75*
G03*
X11162233Y-11398300I-73500J0D01*
G01*
X11332737Y-9673792D02*
X11479737Y-9820792D01*
X11479737Y-9673792D02*
X11332737Y-9820792D01*
X11479737Y-9747292D02*
G75*
G03*
X11479737Y-9747292I-73500J0D01*
G01*
X11491200Y-7514580D02*
X11638200Y-7661580D01*
X11638200Y-7514580D02*
X11491200Y-7661580D01*
X11638200Y-7588080D02*
G75*
G03*
X11638200Y-7588080I-73500J0D01*
G01*
X11491485Y-2752264D02*
X11638485Y-2899264D01*
X11638485Y-2752264D02*
X11491485Y-2899264D01*
X11638485Y-2825764D02*
G75*
G03*
X11638485Y-2825764I-73500J0D01*
G01*
X11808989Y-5863776D02*
X11955989Y-6010776D01*
X11955989Y-5863776D02*
X11808989Y-6010776D01*
X11955989Y-5937276D02*
G75*
G03*
X11955989Y-5937276I-73500J0D01*
G01*
X11967737Y-9419792D02*
X12114737Y-9566792D01*
X12114737Y-9419792D02*
X11967737Y-9566792D01*
X12114737Y-9493292D02*
G75*
G03*
X12114737Y-9493292I-73500J0D01*
G01*
X12047115Y-13483808D02*
X12194115Y-13630808D01*
X12194115Y-13483808D02*
X12047115Y-13630808D01*
X12194115Y-13557308D02*
G75*
G03*
X12194115Y-13557308I-73500J0D01*
G01*
X12285241Y-11578800D02*
X12432241Y-11725800D01*
X12432241Y-11578800D02*
X12285241Y-11725800D01*
X12432241Y-11652300D02*
G75*
G03*
X12432241Y-11652300I-73500J0D01*
G01*
X12443989Y-5609776D02*
X12590989Y-5756776D01*
X12590989Y-5609776D02*
X12443989Y-5756776D01*
X12590989Y-5683276D02*
G75*
G03*
X12590989Y-5683276I-73500J0D01*
G01*
X12682115Y-13229808D02*
X12829115Y-13376808D01*
X12829115Y-13229808D02*
X12682115Y-13376808D01*
X12829115Y-13303308D02*
G75*
G03*
X12829115Y-13303308I-73500J0D01*
G01*
X12761493Y-7768784D02*
X12908493Y-7915784D01*
X12908493Y-7768784D02*
X12761493Y-7915784D01*
X12908493Y-7842284D02*
G75*
G03*
X12908493Y-7842284I-73500J0D01*
G01*
X12920241Y-11324800D02*
X13067241Y-11471800D01*
X13067241Y-11324800D02*
X12920241Y-11471800D01*
X13067241Y-11398300D02*
G75*
G03*
X13067241Y-11398300I-73500J0D01*
G01*
X13237745Y-9673792D02*
X13384745Y-9820792D01*
X13384745Y-9673792D02*
X13237745Y-9820792D01*
X13384745Y-9747292D02*
G75*
G03*
X13384745Y-9747292I-73500J0D01*
G01*
X13396493Y-7514784D02*
X13543493Y-7661784D01*
X13543493Y-7514784D02*
X13396493Y-7661784D01*
X13543493Y-7588284D02*
G75*
G03*
X13543493Y-7588284I-73500J0D01*
G01*
X13713997Y-3006264D02*
X13860997Y-3153264D01*
X13860997Y-3006264D02*
X13713997Y-3153264D01*
X13860997Y-3079764D02*
G75*
G03*
X13860997Y-3079764I-73500J0D01*
G01*
X13713997Y-5863776D02*
X13860997Y-6010776D01*
X13860997Y-5863776D02*
X13713997Y-6010776D01*
X13860997Y-5937276D02*
G75*
G03*
X13860997Y-5937276I-73500J0D01*
G01*
X13872745Y-9419792D02*
X14019745Y-9566792D01*
X14019745Y-9419792D02*
X13872745Y-9566792D01*
X14019745Y-9493292D02*
G75*
G03*
X14019745Y-9493292I-73500J0D01*
G01*
X14190249Y-11578800D02*
X14337249Y-11725800D01*
X14337249Y-11578800D02*
X14190249Y-11725800D01*
X14337249Y-11652300D02*
G75*
G03*
X14337249Y-11652300I-73500J0D01*
G01*
X14348997Y-2752264D02*
X14495997Y-2899264D01*
X14495997Y-2752264D02*
X14348997Y-2899264D01*
X14495997Y-2825764D02*
G75*
G03*
X14495997Y-2825764I-73500J0D01*
G01*
X14348997Y-5609776D02*
X14495997Y-5756776D01*
X14495997Y-5609776D02*
X14348997Y-5756776D01*
X14495997Y-5683276D02*
G75*
G03*
X14495997Y-5683276I-73500J0D01*
G01*
X14428375Y-13483808D02*
X14575375Y-13630808D01*
X14575375Y-13483808D02*
X14428375Y-13630808D01*
X14575375Y-13557308D02*
G75*
G03*
X14575375Y-13557308I-73500J0D01*
G01*
X14666501Y-7768784D02*
X14813501Y-7915784D01*
X14813501Y-7768784D02*
X14666501Y-7915784D01*
X14813501Y-7842284D02*
G75*
G03*
X14813501Y-7842284I-73500J0D01*
G01*
X14825249Y-11324800D02*
X14972249Y-11471800D01*
X14972249Y-11324800D02*
X14825249Y-11471800D01*
X14972249Y-11398300D02*
G75*
G03*
X14972249Y-11398300I-73500J0D01*
G01*
X15063375Y-13229808D02*
X15210375Y-13376808D01*
X15210375Y-13229808D02*
X15063375Y-13376808D01*
X15210375Y-13303308D02*
G75*
G03*
X15210375Y-13303308I-73500J0D01*
G01*
X15142753Y-9673792D02*
X15289753Y-9820792D01*
X15289753Y-9673792D02*
X15142753Y-9820792D01*
X15289753Y-9747292D02*
G75*
G03*
X15289753Y-9747292I-73500J0D01*
G01*
X15301501Y-7514784D02*
X15448501Y-7661784D01*
X15448501Y-7514784D02*
X15301501Y-7661784D01*
X15448501Y-7588284D02*
G75*
G03*
X15448501Y-7588284I-73500J0D01*
G01*
X15619005Y-3006264D02*
X15766005Y-3153264D01*
X15766005Y-3006264D02*
X15619005Y-3153264D01*
X15766005Y-3079764D02*
G75*
G03*
X15766005Y-3079764I-73500J0D01*
G01*
X15619005Y-5863776D02*
X15766005Y-6010776D01*
X15766005Y-5863776D02*
X15619005Y-6010776D01*
X15766005Y-5937276D02*
G75*
G03*
X15766005Y-5937276I-73500J0D01*
G01*
X15777753Y-9419792D02*
X15924753Y-9566792D01*
X15924753Y-9419792D02*
X15777753Y-9566792D01*
X15924753Y-9493292D02*
G75*
G03*
X15924753Y-9493292I-73500J0D01*
G01*
X16254005Y-2752264D02*
X16401005Y-2899264D01*
X16401005Y-2752264D02*
X16254005Y-2899264D01*
X16401005Y-2825764D02*
G75*
G03*
X16401005Y-2825764I-73500J0D01*
G01*
X16254005Y-5609776D02*
X16401005Y-5756776D01*
X16401005Y-5609776D02*
X16254005Y-5756776D01*
X16401005Y-5683276D02*
G75*
G03*
X16401005Y-5683276I-73500J0D01*
G01*
X16571509Y-7768784D02*
X16718509Y-7915784D01*
X16718509Y-7768784D02*
X16571509Y-7915784D01*
X16718509Y-7842284D02*
G75*
G03*
X16718509Y-7842284I-73500J0D01*
G01*
X16809635Y-13483808D02*
X16956635Y-13630808D01*
X16956635Y-13483808D02*
X16809635Y-13630808D01*
X16956635Y-13557308D02*
G75*
G03*
X16956635Y-13557308I-73500J0D01*
G01*
X17047761Y-9673792D02*
X17194761Y-9820792D01*
X17194761Y-9673792D02*
X17047761Y-9820792D01*
X17194761Y-9747292D02*
G75*
G03*
X17194761Y-9747292I-73500J0D01*
G01*
X17206509Y-7514784D02*
X17353509Y-7661784D01*
X17353509Y-7514784D02*
X17206509Y-7661784D01*
X17353509Y-7588284D02*
G75*
G03*
X17353509Y-7588284I-73500J0D01*
G01*
X17444635Y-13229808D02*
X17591635Y-13376808D01*
X17591635Y-13229808D02*
X17444635Y-13376808D01*
X17591635Y-13303308D02*
G75*
G03*
X17591635Y-13303308I-73500J0D01*
G01*
X17524013Y-3006264D02*
X17671013Y-3153264D01*
X17671013Y-3006264D02*
X17524013Y-3153264D01*
X17671013Y-3079764D02*
G75*
G03*
X17671013Y-3079764I-73500J0D01*
G01*
X17682761Y-9419792D02*
X17829761Y-9566792D01*
X17829761Y-9419792D02*
X17682761Y-9566792D01*
X17829761Y-9493292D02*
G75*
G03*
X17829761Y-9493292I-73500J0D01*
G01*
X17762139Y-11578800D02*
X17909139Y-11725800D01*
X17909139Y-11578800D02*
X17762139Y-11725800D01*
X17909139Y-11652300D02*
G75*
G03*
X17909139Y-11652300I-73500J0D01*
G01*
X18159013Y-2752264D02*
X18306013Y-2899264D01*
X18306013Y-2752264D02*
X18159013Y-2899264D01*
X18306013Y-2825764D02*
G75*
G03*
X18306013Y-2825764I-73500J0D01*
G01*
X18397139Y-11324800D02*
X18544139Y-11471800D01*
X18544139Y-11324800D02*
X18397139Y-11471800D01*
X18544139Y-11398300D02*
G75*
G03*
X18544139Y-11398300I-73500J0D01*
G01*
X18476517Y-5863776D02*
X18623517Y-6010776D01*
X18623517Y-5863776D02*
X18476517Y-6010776D01*
X18623517Y-5937276D02*
G75*
G03*
X18623517Y-5937276I-73500J0D01*
G01*
X19111517Y-5609776D02*
X19258517Y-5756776D01*
X19258517Y-5609776D02*
X19111517Y-5756776D01*
X19258517Y-5683276D02*
G75*
G03*
X19258517Y-5683276I-73500J0D01*
G01*
X19429021Y-3006264D02*
X19576021Y-3153264D01*
X19576021Y-3006264D02*
X19429021Y-3153264D01*
X19576021Y-3079764D02*
G75*
G03*
X19576021Y-3079764I-73500J0D01*
G01*
X19825895Y-8594288D02*
X19972895Y-8741288D01*
X19972895Y-8594288D02*
X19825895Y-8741288D01*
X19972895Y-8667788D02*
G75*
G03*
X19972895Y-8667788I-73500J0D01*
G01*
X19905273Y-13960060D02*
X20052273Y-14107060D01*
X20052273Y-13960060D02*
X19905273Y-14107060D01*
X20052273Y-14033560D02*
G75*
G03*
X20052273Y-14033560I-73500J0D01*
G01*
X20064021Y-2752264D02*
X20211021Y-2899264D01*
X20211021Y-2752264D02*
X20064021Y-2899264D01*
X20211021Y-2825764D02*
G75*
G03*
X20211021Y-2825764I-73500J0D01*
G01*
X20079895Y-9229288D02*
X20226895Y-9376288D01*
X20226895Y-9229288D02*
X20079895Y-9376288D01*
X20226895Y-9302788D02*
G75*
G03*
X20226895Y-9302788I-73500J0D01*
G01*
X20540273Y-13706060D02*
X20687273Y-13853060D01*
X20687273Y-13706060D02*
X20540273Y-13853060D01*
X20687273Y-13779560D02*
G75*
G03*
X20687273Y-13779560I-73500J0D01*
G01*
X21808600Y-7768784D02*
X21955600Y-7915784D01*
X21955600Y-7768784D02*
X21808600Y-7915784D01*
X21955600Y-7842284D02*
G75*
G03*
X21955600Y-7842284I-73500J0D01*
G01*
X21810281Y-3006264D02*
X21957281Y-3153264D01*
X21957281Y-3006264D02*
X21810281Y-3153264D01*
X21957281Y-3079764D02*
G75*
G03*
X21957281Y-3079764I-73500J0D01*
G01*
X21810281Y-5863776D02*
X21957281Y-6010776D01*
X21957281Y-5863776D02*
X21810281Y-6010776D01*
X21957281Y-5937276D02*
G75*
G03*
X21957281Y-5937276I-73500J0D01*
G01*
X21810281Y-12055052D02*
X21957281Y-12202052D01*
X21957281Y-12055052D02*
X21810281Y-12202052D01*
X21957281Y-12128552D02*
G75*
G03*
X21957281Y-12128552I-73500J0D01*
G01*
X21810281Y-13960060D02*
X21957281Y-14107060D01*
X21957281Y-13960060D02*
X21810281Y-14107060D01*
X21957281Y-14033560D02*
G75*
G03*
X21957281Y-14033560I-73500J0D01*
G01*
X22443600Y-7514784D02*
X22590600Y-7661784D01*
X22590600Y-7514784D02*
X22443600Y-7661784D01*
X22590600Y-7588284D02*
G75*
G03*
X22590600Y-7588284I-73500J0D01*
G01*
X22445281Y-2752264D02*
X22592281Y-2899264D01*
X22592281Y-2752264D02*
X22445281Y-2899264D01*
X22592281Y-2825764D02*
G75*
G03*
X22592281Y-2825764I-73500J0D01*
G01*
X22445281Y-5609776D02*
X22592281Y-5756776D01*
X22592281Y-5609776D02*
X22445281Y-5756776D01*
X22592281Y-5683276D02*
G75*
G03*
X22592281Y-5683276I-73500J0D01*
G01*
X22445281Y-11801052D02*
X22592281Y-11948052D01*
X22592281Y-11801052D02*
X22445281Y-11948052D01*
X22592281Y-11874552D02*
G75*
G03*
X22592281Y-11874552I-73500J0D01*
G01*
X22445281Y-13706060D02*
X22592281Y-13853060D01*
X22592281Y-13706060D02*
X22445281Y-13853060D01*
X22592281Y-13779560D02*
G75*
G03*
X22592281Y-13779560I-73500J0D01*
G01*
X23714680Y-3006250D02*
X23861680Y-3153250D01*
X23861680Y-3006250D02*
X23714680Y-3153250D01*
X23861680Y-3079750D02*
G75*
G03*
X23861680Y-3079750I-73500J0D01*
G01*
X23714680Y-13959700D02*
X23861680Y-14106700D01*
X23861680Y-13959700D02*
X23714680Y-14106700D01*
X23861680Y-14033200D02*
G75*
G03*
X23861680Y-14033200I-73500J0D01*
G01*
X23715289Y-5863776D02*
X23862289Y-6010776D01*
X23862289Y-5863776D02*
X23715289Y-6010776D01*
X23862289Y-5937276D02*
G75*
G03*
X23862289Y-5937276I-73500J0D01*
G01*
X23715289Y-7768784D02*
X23862289Y-7915784D01*
X23862289Y-7768784D02*
X23715289Y-7915784D01*
X23862289Y-7842284D02*
G75*
G03*
X23862289Y-7842284I-73500J0D01*
G01*
X24349680Y-2752250D02*
X24496680Y-2899250D01*
X24496680Y-2752250D02*
X24349680Y-2899250D01*
X24496680Y-2825750D02*
G75*
G03*
X24496680Y-2825750I-73500J0D01*
G01*
X24349680Y-13705700D02*
X24496680Y-13852700D01*
X24496680Y-13705700D02*
X24349680Y-13852700D01*
X24496680Y-13779200D02*
G75*
G03*
X24496680Y-13779200I-73500J0D01*
G01*
X24350289Y-5609776D02*
X24497289Y-5756776D01*
X24497289Y-5609776D02*
X24350289Y-5756776D01*
X24497289Y-5683276D02*
G75*
G03*
X24497289Y-5683276I-73500J0D01*
G01*
X24350289Y-7514784D02*
X24497289Y-7661784D01*
X24497289Y-7514784D02*
X24350289Y-7661784D01*
X24497289Y-7588284D02*
G75*
G03*
X24497289Y-7588284I-73500J0D01*
G01*
D12*
X4398477Y-15773984D02*
X4398477Y-15573984D01*
X4398477Y-15573984D02*
X4446096Y-15573984D01*
X4446096Y-15573984D02*
X4474667Y-15583508D01*
X4474667Y-15583508D02*
X4493715Y-15602555D01*
X4493715Y-15602555D02*
X4503239Y-15621603D01*
X4503239Y-15621603D02*
X4512763Y-15659698D01*
X4512763Y-15659698D02*
X4512763Y-15688269D01*
X4512763Y-15688269D02*
X4503239Y-15726365D01*
X4503239Y-15726365D02*
X4493715Y-15745412D01*
X4493715Y-15745412D02*
X4474667Y-15764460D01*
X4474667Y-15764460D02*
X4446096Y-15773984D01*
X4446096Y-15773984D02*
X4398477Y-15773984D01*
X4598477Y-15773984D02*
X4598477Y-15640650D01*
X4598477Y-15678746D02*
X4608001Y-15659698D01*
X4608001Y-15659698D02*
X4617524Y-15650174D01*
X4617524Y-15650174D02*
X4636572Y-15640650D01*
X4636572Y-15640650D02*
X4655620Y-15640650D01*
X4722286Y-15773984D02*
X4722286Y-15640650D01*
X4722286Y-15573984D02*
X4712763Y-15583508D01*
X4712763Y-15583508D02*
X4722286Y-15593031D01*
X4722286Y-15593031D02*
X4731810Y-15583508D01*
X4731810Y-15583508D02*
X4722286Y-15573984D01*
X4722286Y-15573984D02*
X4722286Y-15593031D01*
X4846096Y-15773984D02*
X4827048Y-15764460D01*
X4827048Y-15764460D02*
X4817524Y-15745412D01*
X4817524Y-15745412D02*
X4817524Y-15573984D01*
X4950858Y-15773984D02*
X4931810Y-15764460D01*
X4931810Y-15764460D02*
X4922286Y-15745412D01*
X4922286Y-15745412D02*
X4922286Y-15573984D01*
X5179429Y-15773984D02*
X5179429Y-15573984D01*
X5179429Y-15573984D02*
X5246096Y-15716841D01*
X5246096Y-15716841D02*
X5312763Y-15573984D01*
X5312763Y-15573984D02*
X5312763Y-15773984D01*
X5493715Y-15773984D02*
X5493715Y-15669222D01*
X5493715Y-15669222D02*
X5484191Y-15650174D01*
X5484191Y-15650174D02*
X5465144Y-15640650D01*
X5465144Y-15640650D02*
X5427048Y-15640650D01*
X5427048Y-15640650D02*
X5408001Y-15650174D01*
X5493715Y-15764460D02*
X5474667Y-15773984D01*
X5474667Y-15773984D02*
X5427048Y-15773984D01*
X5427048Y-15773984D02*
X5408001Y-15764460D01*
X5408001Y-15764460D02*
X5398477Y-15745412D01*
X5398477Y-15745412D02*
X5398477Y-15726365D01*
X5398477Y-15726365D02*
X5408001Y-15707317D01*
X5408001Y-15707317D02*
X5427048Y-15697793D01*
X5427048Y-15697793D02*
X5474667Y-15697793D01*
X5474667Y-15697793D02*
X5493715Y-15688269D01*
X5588953Y-15640650D02*
X5588953Y-15840650D01*
X5588953Y-15650174D02*
X5608001Y-15640650D01*
X5608001Y-15640650D02*
X5646096Y-15640650D01*
X5646096Y-15640650D02*
X5665143Y-15650174D01*
X5665143Y-15650174D02*
X5674667Y-15659698D01*
X5674667Y-15659698D02*
X5684191Y-15678746D01*
X5684191Y-15678746D02*
X5684191Y-15735888D01*
X5684191Y-15735888D02*
X5674667Y-15754936D01*
X5674667Y-15754936D02*
X5665143Y-15764460D01*
X5665143Y-15764460D02*
X5646096Y-15773984D01*
X5646096Y-15773984D02*
X5608001Y-15773984D01*
X5608001Y-15773984D02*
X5588953Y-15764460D01*
X5769905Y-15754936D02*
X5779429Y-15764460D01*
X5779429Y-15764460D02*
X5769905Y-15773984D01*
X5769905Y-15773984D02*
X5760382Y-15764460D01*
X5760382Y-15764460D02*
X5769905Y-15754936D01*
X5769905Y-15754936D02*
X5769905Y-15773984D01*
X5769905Y-15650174D02*
X5779429Y-15659698D01*
X5779429Y-15659698D02*
X5769905Y-15669222D01*
X5769905Y-15669222D02*
X5760382Y-15659698D01*
X5760382Y-15659698D02*
X5769905Y-15650174D01*
X5769905Y-15650174D02*
X5769905Y-15669222D01*
D11*
X4097700Y-16082500D02*
X4137700Y-16122500D01*
X4137700Y-16082500D02*
X4097700Y-16122500D01*
D12*
X4436572Y-15993984D02*
X4455620Y-15993984D01*
X4455620Y-15993984D02*
X4474667Y-16003508D01*
X4474667Y-16003508D02*
X4484191Y-16013031D01*
X4484191Y-16013031D02*
X4493715Y-16032079D01*
X4493715Y-16032079D02*
X4503239Y-16070174D01*
X4503239Y-16070174D02*
X4503239Y-16117793D01*
X4503239Y-16117793D02*
X4493715Y-16155888D01*
X4493715Y-16155888D02*
X4484191Y-16174936D01*
X4484191Y-16174936D02*
X4474667Y-16184460D01*
X4474667Y-16184460D02*
X4455620Y-16193984D01*
X4455620Y-16193984D02*
X4436572Y-16193984D01*
X4436572Y-16193984D02*
X4417524Y-16184460D01*
X4417524Y-16184460D02*
X4408001Y-16174936D01*
X4408001Y-16174936D02*
X4398477Y-16155888D01*
X4398477Y-16155888D02*
X4388953Y-16117793D01*
X4388953Y-16117793D02*
X4388953Y-16070174D01*
X4388953Y-16070174D02*
X4398477Y-16032079D01*
X4398477Y-16032079D02*
X4408001Y-16013031D01*
X4408001Y-16013031D02*
X4417524Y-16003508D01*
X4417524Y-16003508D02*
X4436572Y-15993984D01*
X4588953Y-16174936D02*
X4598477Y-16184460D01*
X4598477Y-16184460D02*
X4588953Y-16193984D01*
X4588953Y-16193984D02*
X4579429Y-16184460D01*
X4579429Y-16184460D02*
X4588953Y-16174936D01*
X4588953Y-16174936D02*
X4588953Y-16193984D01*
X4769905Y-16060650D02*
X4769905Y-16193984D01*
X4722286Y-15984460D02*
X4674667Y-16127317D01*
X4674667Y-16127317D02*
X4798477Y-16127317D01*
X4912763Y-15993984D02*
X4931810Y-15993984D01*
X4931810Y-15993984D02*
X4950858Y-16003508D01*
X4950858Y-16003508D02*
X4960382Y-16013031D01*
X4960382Y-16013031D02*
X4969905Y-16032079D01*
X4969905Y-16032079D02*
X4979429Y-16070174D01*
X4979429Y-16070174D02*
X4979429Y-16117793D01*
X4979429Y-16117793D02*
X4969905Y-16155888D01*
X4969905Y-16155888D02*
X4960382Y-16174936D01*
X4960382Y-16174936D02*
X4950858Y-16184460D01*
X4950858Y-16184460D02*
X4931810Y-16193984D01*
X4931810Y-16193984D02*
X4912763Y-16193984D01*
X4912763Y-16193984D02*
X4893715Y-16184460D01*
X4893715Y-16184460D02*
X4884191Y-16174936D01*
X4884191Y-16174936D02*
X4874667Y-16155888D01*
X4874667Y-16155888D02*
X4865144Y-16117793D01*
X4865144Y-16117793D02*
X4865144Y-16070174D01*
X4865144Y-16070174D02*
X4874667Y-16032079D01*
X4874667Y-16032079D02*
X4884191Y-16013031D01*
X4884191Y-16013031D02*
X4893715Y-16003508D01*
X4893715Y-16003508D02*
X4912763Y-15993984D01*
X5103239Y-15993984D02*
X5122286Y-15993984D01*
X5122286Y-15993984D02*
X5141334Y-16003508D01*
X5141334Y-16003508D02*
X5150858Y-16013031D01*
X5150858Y-16013031D02*
X5160382Y-16032079D01*
X5160382Y-16032079D02*
X5169905Y-16070174D01*
X5169905Y-16070174D02*
X5169905Y-16117793D01*
X5169905Y-16117793D02*
X5160382Y-16155888D01*
X5160382Y-16155888D02*
X5150858Y-16174936D01*
X5150858Y-16174936D02*
X5141334Y-16184460D01*
X5141334Y-16184460D02*
X5122286Y-16193984D01*
X5122286Y-16193984D02*
X5103239Y-16193984D01*
X5103239Y-16193984D02*
X5084191Y-16184460D01*
X5084191Y-16184460D02*
X5074667Y-16174936D01*
X5074667Y-16174936D02*
X5065144Y-16155888D01*
X5065144Y-16155888D02*
X5055620Y-16117793D01*
X5055620Y-16117793D02*
X5055620Y-16070174D01*
X5055620Y-16070174D02*
X5065144Y-16032079D01*
X5065144Y-16032079D02*
X5074667Y-16013031D01*
X5074667Y-16013031D02*
X5084191Y-16003508D01*
X5084191Y-16003508D02*
X5103239Y-15993984D01*
X5255620Y-16193984D02*
X5255620Y-16060650D01*
X5255620Y-16079698D02*
X5265144Y-16070174D01*
X5265144Y-16070174D02*
X5284191Y-16060650D01*
X5284191Y-16060650D02*
X5312763Y-16060650D01*
X5312763Y-16060650D02*
X5331810Y-16070174D01*
X5331810Y-16070174D02*
X5341334Y-16089222D01*
X5341334Y-16089222D02*
X5341334Y-16193984D01*
X5341334Y-16089222D02*
X5350858Y-16070174D01*
X5350858Y-16070174D02*
X5369905Y-16060650D01*
X5369905Y-16060650D02*
X5398477Y-16060650D01*
X5398477Y-16060650D02*
X5417525Y-16070174D01*
X5417525Y-16070174D02*
X5427048Y-16089222D01*
X5427048Y-16089222D02*
X5427048Y-16193984D01*
X5522286Y-16193984D02*
X5522286Y-16060650D01*
X5522286Y-16079698D02*
X5531810Y-16070174D01*
X5531810Y-16070174D02*
X5550858Y-16060650D01*
X5550858Y-16060650D02*
X5579429Y-16060650D01*
X5579429Y-16060650D02*
X5598477Y-16070174D01*
X5598477Y-16070174D02*
X5608001Y-16089222D01*
X5608001Y-16089222D02*
X5608001Y-16193984D01*
X5608001Y-16089222D02*
X5617524Y-16070174D01*
X5617524Y-16070174D02*
X5636572Y-16060650D01*
X5636572Y-16060650D02*
X5665143Y-16060650D01*
X5665143Y-16060650D02*
X5684191Y-16070174D01*
X5684191Y-16070174D02*
X5693715Y-16089222D01*
X5693715Y-16089222D02*
X5693715Y-16193984D01*
X6084191Y-15984460D02*
X5912763Y-16241603D01*
X6341334Y-15993984D02*
X6360382Y-15993984D01*
X6360382Y-15993984D02*
X6379429Y-16003508D01*
X6379429Y-16003508D02*
X6388953Y-16013031D01*
X6388953Y-16013031D02*
X6398477Y-16032079D01*
X6398477Y-16032079D02*
X6408001Y-16070174D01*
X6408001Y-16070174D02*
X6408001Y-16117793D01*
X6408001Y-16117793D02*
X6398477Y-16155888D01*
X6398477Y-16155888D02*
X6388953Y-16174936D01*
X6388953Y-16174936D02*
X6379429Y-16184460D01*
X6379429Y-16184460D02*
X6360382Y-16193984D01*
X6360382Y-16193984D02*
X6341334Y-16193984D01*
X6341334Y-16193984D02*
X6322286Y-16184460D01*
X6322286Y-16184460D02*
X6312763Y-16174936D01*
X6312763Y-16174936D02*
X6303239Y-16155888D01*
X6303239Y-16155888D02*
X6293715Y-16117793D01*
X6293715Y-16117793D02*
X6293715Y-16070174D01*
X6293715Y-16070174D02*
X6303239Y-16032079D01*
X6303239Y-16032079D02*
X6312763Y-16013031D01*
X6312763Y-16013031D02*
X6322286Y-16003508D01*
X6322286Y-16003508D02*
X6341334Y-15993984D01*
X6493715Y-16174936D02*
X6503239Y-16184460D01*
X6503239Y-16184460D02*
X6493715Y-16193984D01*
X6493715Y-16193984D02*
X6484191Y-16184460D01*
X6484191Y-16184460D02*
X6493715Y-16174936D01*
X6493715Y-16174936D02*
X6493715Y-16193984D01*
X6627048Y-15993984D02*
X6646096Y-15993984D01*
X6646096Y-15993984D02*
X6665144Y-16003508D01*
X6665144Y-16003508D02*
X6674667Y-16013031D01*
X6674667Y-16013031D02*
X6684191Y-16032079D01*
X6684191Y-16032079D02*
X6693715Y-16070174D01*
X6693715Y-16070174D02*
X6693715Y-16117793D01*
X6693715Y-16117793D02*
X6684191Y-16155888D01*
X6684191Y-16155888D02*
X6674667Y-16174936D01*
X6674667Y-16174936D02*
X6665144Y-16184460D01*
X6665144Y-16184460D02*
X6646096Y-16193984D01*
X6646096Y-16193984D02*
X6627048Y-16193984D01*
X6627048Y-16193984D02*
X6608001Y-16184460D01*
X6608001Y-16184460D02*
X6598477Y-16174936D01*
X6598477Y-16174936D02*
X6588953Y-16155888D01*
X6588953Y-16155888D02*
X6579429Y-16117793D01*
X6579429Y-16117793D02*
X6579429Y-16070174D01*
X6579429Y-16070174D02*
X6588953Y-16032079D01*
X6588953Y-16032079D02*
X6598477Y-16013031D01*
X6598477Y-16013031D02*
X6608001Y-16003508D01*
X6608001Y-16003508D02*
X6627048Y-15993984D01*
X6884191Y-16193984D02*
X6769906Y-16193984D01*
X6827048Y-16193984D02*
X6827048Y-15993984D01*
X6827048Y-15993984D02*
X6808001Y-16022555D01*
X6808001Y-16022555D02*
X6788953Y-16041603D01*
X6788953Y-16041603D02*
X6769906Y-16051127D01*
X7065144Y-15993984D02*
X6969906Y-15993984D01*
X6969906Y-15993984D02*
X6960382Y-16089222D01*
X6960382Y-16089222D02*
X6969906Y-16079698D01*
X6969906Y-16079698D02*
X6988953Y-16070174D01*
X6988953Y-16070174D02*
X7036572Y-16070174D01*
X7036572Y-16070174D02*
X7055620Y-16079698D01*
X7055620Y-16079698D02*
X7065144Y-16089222D01*
X7065144Y-16089222D02*
X7074667Y-16108269D01*
X7074667Y-16108269D02*
X7074667Y-16155888D01*
X7074667Y-16155888D02*
X7065144Y-16174936D01*
X7065144Y-16174936D02*
X7055620Y-16184460D01*
X7055620Y-16184460D02*
X7036572Y-16193984D01*
X7036572Y-16193984D02*
X6988953Y-16193984D01*
X6988953Y-16193984D02*
X6969906Y-16184460D01*
X6969906Y-16184460D02*
X6960382Y-16174936D01*
X7141334Y-15993984D02*
X7274667Y-15993984D01*
X7274667Y-15993984D02*
X7188953Y-16193984D01*
X7341334Y-15993984D02*
X7341334Y-16032079D01*
X7417525Y-15993984D02*
X7417525Y-16032079D01*
X7712763Y-16270174D02*
X7703239Y-16260650D01*
X7703239Y-16260650D02*
X7684191Y-16232079D01*
X7684191Y-16232079D02*
X7674668Y-16213031D01*
X7674668Y-16213031D02*
X7665144Y-16184460D01*
X7665144Y-16184460D02*
X7655620Y-16136841D01*
X7655620Y-16136841D02*
X7655620Y-16098746D01*
X7655620Y-16098746D02*
X7665144Y-16051127D01*
X7665144Y-16051127D02*
X7674668Y-16022555D01*
X7674668Y-16022555D02*
X7684191Y-16003508D01*
X7684191Y-16003508D02*
X7703239Y-15974936D01*
X7703239Y-15974936D02*
X7712763Y-15965412D01*
X7769906Y-15993984D02*
X7893715Y-15993984D01*
X7893715Y-15993984D02*
X7827048Y-16070174D01*
X7827048Y-16070174D02*
X7855620Y-16070174D01*
X7855620Y-16070174D02*
X7874668Y-16079698D01*
X7874668Y-16079698D02*
X7884191Y-16089222D01*
X7884191Y-16089222D02*
X7893715Y-16108269D01*
X7893715Y-16108269D02*
X7893715Y-16155888D01*
X7893715Y-16155888D02*
X7884191Y-16174936D01*
X7884191Y-16174936D02*
X7874668Y-16184460D01*
X7874668Y-16184460D02*
X7855620Y-16193984D01*
X7855620Y-16193984D02*
X7798477Y-16193984D01*
X7798477Y-16193984D02*
X7779429Y-16184460D01*
X7779429Y-16184460D02*
X7769906Y-16174936D01*
X8131810Y-16193984D02*
X8131810Y-15993984D01*
X8217525Y-16193984D02*
X8217525Y-16089222D01*
X8217525Y-16089222D02*
X8208001Y-16070174D01*
X8208001Y-16070174D02*
X8188953Y-16060650D01*
X8188953Y-16060650D02*
X8160382Y-16060650D01*
X8160382Y-16060650D02*
X8141334Y-16070174D01*
X8141334Y-16070174D02*
X8131810Y-16079698D01*
X8341334Y-16193984D02*
X8322287Y-16184460D01*
X8322287Y-16184460D02*
X8312763Y-16174936D01*
X8312763Y-16174936D02*
X8303239Y-16155888D01*
X8303239Y-16155888D02*
X8303239Y-16098746D01*
X8303239Y-16098746D02*
X8312763Y-16079698D01*
X8312763Y-16079698D02*
X8322287Y-16070174D01*
X8322287Y-16070174D02*
X8341334Y-16060650D01*
X8341334Y-16060650D02*
X8369906Y-16060650D01*
X8369906Y-16060650D02*
X8388953Y-16070174D01*
X8388953Y-16070174D02*
X8398477Y-16079698D01*
X8398477Y-16079698D02*
X8408001Y-16098746D01*
X8408001Y-16098746D02*
X8408001Y-16155888D01*
X8408001Y-16155888D02*
X8398477Y-16174936D01*
X8398477Y-16174936D02*
X8388953Y-16184460D01*
X8388953Y-16184460D02*
X8369906Y-16193984D01*
X8369906Y-16193984D02*
X8341334Y-16193984D01*
X8522287Y-16193984D02*
X8503239Y-16184460D01*
X8503239Y-16184460D02*
X8493715Y-16165412D01*
X8493715Y-16165412D02*
X8493715Y-15993984D01*
X8674668Y-16184460D02*
X8655620Y-16193984D01*
X8655620Y-16193984D02*
X8617525Y-16193984D01*
X8617525Y-16193984D02*
X8598477Y-16184460D01*
X8598477Y-16184460D02*
X8588953Y-16165412D01*
X8588953Y-16165412D02*
X8588953Y-16089222D01*
X8588953Y-16089222D02*
X8598477Y-16070174D01*
X8598477Y-16070174D02*
X8617525Y-16060650D01*
X8617525Y-16060650D02*
X8655620Y-16060650D01*
X8655620Y-16060650D02*
X8674668Y-16070174D01*
X8674668Y-16070174D02*
X8684192Y-16089222D01*
X8684192Y-16089222D02*
X8684192Y-16108269D01*
X8684192Y-16108269D02*
X8588953Y-16127317D01*
X8760382Y-16184460D02*
X8779430Y-16193984D01*
X8779430Y-16193984D02*
X8817525Y-16193984D01*
X8817525Y-16193984D02*
X8836573Y-16184460D01*
X8836573Y-16184460D02*
X8846096Y-16165412D01*
X8846096Y-16165412D02*
X8846096Y-16155888D01*
X8846096Y-16155888D02*
X8836573Y-16136841D01*
X8836573Y-16136841D02*
X8817525Y-16127317D01*
X8817525Y-16127317D02*
X8788953Y-16127317D01*
X8788953Y-16127317D02*
X8769906Y-16117793D01*
X8769906Y-16117793D02*
X8760382Y-16098746D01*
X8760382Y-16098746D02*
X8760382Y-16089222D01*
X8760382Y-16089222D02*
X8769906Y-16070174D01*
X8769906Y-16070174D02*
X8788953Y-16060650D01*
X8788953Y-16060650D02*
X8817525Y-16060650D01*
X8817525Y-16060650D02*
X8836573Y-16070174D01*
X8912763Y-16270174D02*
X8922287Y-16260650D01*
X8922287Y-16260650D02*
X8941334Y-16232079D01*
X8941334Y-16232079D02*
X8950858Y-16213031D01*
X8950858Y-16213031D02*
X8960382Y-16184460D01*
X8960382Y-16184460D02*
X8969906Y-16136841D01*
X8969906Y-16136841D02*
X8969906Y-16098746D01*
X8969906Y-16098746D02*
X8960382Y-16051127D01*
X8960382Y-16051127D02*
X8950858Y-16022555D01*
X8950858Y-16022555D02*
X8941334Y-16003508D01*
X8941334Y-16003508D02*
X8922287Y-15974936D01*
X8922287Y-15974936D02*
X8912763Y-15965412D01*
D11*
X4137700Y-16366500D02*
G75*
G03*
X4137700Y-16366500I-45000J0D01*
G01*
D12*
X4436572Y-16257984D02*
X4455620Y-16257984D01*
X4455620Y-16257984D02*
X4474667Y-16267508D01*
X4474667Y-16267508D02*
X4484191Y-16277031D01*
X4484191Y-16277031D02*
X4493715Y-16296079D01*
X4493715Y-16296079D02*
X4503239Y-16334174D01*
X4503239Y-16334174D02*
X4503239Y-16381793D01*
X4503239Y-16381793D02*
X4493715Y-16419888D01*
X4493715Y-16419888D02*
X4484191Y-16438936D01*
X4484191Y-16438936D02*
X4474667Y-16448460D01*
X4474667Y-16448460D02*
X4455620Y-16457984D01*
X4455620Y-16457984D02*
X4436572Y-16457984D01*
X4436572Y-16457984D02*
X4417524Y-16448460D01*
X4417524Y-16448460D02*
X4408001Y-16438936D01*
X4408001Y-16438936D02*
X4398477Y-16419888D01*
X4398477Y-16419888D02*
X4388953Y-16381793D01*
X4388953Y-16381793D02*
X4388953Y-16334174D01*
X4388953Y-16334174D02*
X4398477Y-16296079D01*
X4398477Y-16296079D02*
X4408001Y-16277031D01*
X4408001Y-16277031D02*
X4417524Y-16267508D01*
X4417524Y-16267508D02*
X4436572Y-16257984D01*
X4588953Y-16438936D02*
X4598477Y-16448460D01*
X4598477Y-16448460D02*
X4588953Y-16457984D01*
X4588953Y-16457984D02*
X4579429Y-16448460D01*
X4579429Y-16448460D02*
X4588953Y-16438936D01*
X4588953Y-16438936D02*
X4588953Y-16457984D01*
X4693715Y-16457984D02*
X4731810Y-16457984D01*
X4731810Y-16457984D02*
X4750858Y-16448460D01*
X4750858Y-16448460D02*
X4760382Y-16438936D01*
X4760382Y-16438936D02*
X4779429Y-16410365D01*
X4779429Y-16410365D02*
X4788953Y-16372269D01*
X4788953Y-16372269D02*
X4788953Y-16296079D01*
X4788953Y-16296079D02*
X4779429Y-16277031D01*
X4779429Y-16277031D02*
X4769905Y-16267508D01*
X4769905Y-16267508D02*
X4750858Y-16257984D01*
X4750858Y-16257984D02*
X4712763Y-16257984D01*
X4712763Y-16257984D02*
X4693715Y-16267508D01*
X4693715Y-16267508D02*
X4684191Y-16277031D01*
X4684191Y-16277031D02*
X4674667Y-16296079D01*
X4674667Y-16296079D02*
X4674667Y-16343698D01*
X4674667Y-16343698D02*
X4684191Y-16362746D01*
X4684191Y-16362746D02*
X4693715Y-16372269D01*
X4693715Y-16372269D02*
X4712763Y-16381793D01*
X4712763Y-16381793D02*
X4750858Y-16381793D01*
X4750858Y-16381793D02*
X4769905Y-16372269D01*
X4769905Y-16372269D02*
X4779429Y-16362746D01*
X4779429Y-16362746D02*
X4788953Y-16343698D01*
X4912763Y-16257984D02*
X4931810Y-16257984D01*
X4931810Y-16257984D02*
X4950858Y-16267508D01*
X4950858Y-16267508D02*
X4960382Y-16277031D01*
X4960382Y-16277031D02*
X4969905Y-16296079D01*
X4969905Y-16296079D02*
X4979429Y-16334174D01*
X4979429Y-16334174D02*
X4979429Y-16381793D01*
X4979429Y-16381793D02*
X4969905Y-16419888D01*
X4969905Y-16419888D02*
X4960382Y-16438936D01*
X4960382Y-16438936D02*
X4950858Y-16448460D01*
X4950858Y-16448460D02*
X4931810Y-16457984D01*
X4931810Y-16457984D02*
X4912763Y-16457984D01*
X4912763Y-16457984D02*
X4893715Y-16448460D01*
X4893715Y-16448460D02*
X4884191Y-16438936D01*
X4884191Y-16438936D02*
X4874667Y-16419888D01*
X4874667Y-16419888D02*
X4865144Y-16381793D01*
X4865144Y-16381793D02*
X4865144Y-16334174D01*
X4865144Y-16334174D02*
X4874667Y-16296079D01*
X4874667Y-16296079D02*
X4884191Y-16277031D01*
X4884191Y-16277031D02*
X4893715Y-16267508D01*
X4893715Y-16267508D02*
X4912763Y-16257984D01*
X5103239Y-16257984D02*
X5122286Y-16257984D01*
X5122286Y-16257984D02*
X5141334Y-16267508D01*
X5141334Y-16267508D02*
X5150858Y-16277031D01*
X5150858Y-16277031D02*
X5160382Y-16296079D01*
X5160382Y-16296079D02*
X5169905Y-16334174D01*
X5169905Y-16334174D02*
X5169905Y-16381793D01*
X5169905Y-16381793D02*
X5160382Y-16419888D01*
X5160382Y-16419888D02*
X5150858Y-16438936D01*
X5150858Y-16438936D02*
X5141334Y-16448460D01*
X5141334Y-16448460D02*
X5122286Y-16457984D01*
X5122286Y-16457984D02*
X5103239Y-16457984D01*
X5103239Y-16457984D02*
X5084191Y-16448460D01*
X5084191Y-16448460D02*
X5074667Y-16438936D01*
X5074667Y-16438936D02*
X5065144Y-16419888D01*
X5065144Y-16419888D02*
X5055620Y-16381793D01*
X5055620Y-16381793D02*
X5055620Y-16334174D01*
X5055620Y-16334174D02*
X5065144Y-16296079D01*
X5065144Y-16296079D02*
X5074667Y-16277031D01*
X5074667Y-16277031D02*
X5084191Y-16267508D01*
X5084191Y-16267508D02*
X5103239Y-16257984D01*
X5255620Y-16457984D02*
X5255620Y-16324650D01*
X5255620Y-16343698D02*
X5265144Y-16334174D01*
X5265144Y-16334174D02*
X5284191Y-16324650D01*
X5284191Y-16324650D02*
X5312763Y-16324650D01*
X5312763Y-16324650D02*
X5331810Y-16334174D01*
X5331810Y-16334174D02*
X5341334Y-16353222D01*
X5341334Y-16353222D02*
X5341334Y-16457984D01*
X5341334Y-16353222D02*
X5350858Y-16334174D01*
X5350858Y-16334174D02*
X5369905Y-16324650D01*
X5369905Y-16324650D02*
X5398477Y-16324650D01*
X5398477Y-16324650D02*
X5417525Y-16334174D01*
X5417525Y-16334174D02*
X5427048Y-16353222D01*
X5427048Y-16353222D02*
X5427048Y-16457984D01*
X5522286Y-16457984D02*
X5522286Y-16324650D01*
X5522286Y-16343698D02*
X5531810Y-16334174D01*
X5531810Y-16334174D02*
X5550858Y-16324650D01*
X5550858Y-16324650D02*
X5579429Y-16324650D01*
X5579429Y-16324650D02*
X5598477Y-16334174D01*
X5598477Y-16334174D02*
X5608001Y-16353222D01*
X5608001Y-16353222D02*
X5608001Y-16457984D01*
X5608001Y-16353222D02*
X5617524Y-16334174D01*
X5617524Y-16334174D02*
X5636572Y-16324650D01*
X5636572Y-16324650D02*
X5665143Y-16324650D01*
X5665143Y-16324650D02*
X5684191Y-16334174D01*
X5684191Y-16334174D02*
X5693715Y-16353222D01*
X5693715Y-16353222D02*
X5693715Y-16457984D01*
X6084191Y-16248460D02*
X5912763Y-16505603D01*
X6341334Y-16257984D02*
X6360382Y-16257984D01*
X6360382Y-16257984D02*
X6379429Y-16267508D01*
X6379429Y-16267508D02*
X6388953Y-16277031D01*
X6388953Y-16277031D02*
X6398477Y-16296079D01*
X6398477Y-16296079D02*
X6408001Y-16334174D01*
X6408001Y-16334174D02*
X6408001Y-16381793D01*
X6408001Y-16381793D02*
X6398477Y-16419888D01*
X6398477Y-16419888D02*
X6388953Y-16438936D01*
X6388953Y-16438936D02*
X6379429Y-16448460D01*
X6379429Y-16448460D02*
X6360382Y-16457984D01*
X6360382Y-16457984D02*
X6341334Y-16457984D01*
X6341334Y-16457984D02*
X6322286Y-16448460D01*
X6322286Y-16448460D02*
X6312763Y-16438936D01*
X6312763Y-16438936D02*
X6303239Y-16419888D01*
X6303239Y-16419888D02*
X6293715Y-16381793D01*
X6293715Y-16381793D02*
X6293715Y-16334174D01*
X6293715Y-16334174D02*
X6303239Y-16296079D01*
X6303239Y-16296079D02*
X6312763Y-16277031D01*
X6312763Y-16277031D02*
X6322286Y-16267508D01*
X6322286Y-16267508D02*
X6341334Y-16257984D01*
X6493715Y-16438936D02*
X6503239Y-16448460D01*
X6503239Y-16448460D02*
X6493715Y-16457984D01*
X6493715Y-16457984D02*
X6484191Y-16448460D01*
X6484191Y-16448460D02*
X6493715Y-16438936D01*
X6493715Y-16438936D02*
X6493715Y-16457984D01*
X6627048Y-16257984D02*
X6646096Y-16257984D01*
X6646096Y-16257984D02*
X6665144Y-16267508D01*
X6665144Y-16267508D02*
X6674667Y-16277031D01*
X6674667Y-16277031D02*
X6684191Y-16296079D01*
X6684191Y-16296079D02*
X6693715Y-16334174D01*
X6693715Y-16334174D02*
X6693715Y-16381793D01*
X6693715Y-16381793D02*
X6684191Y-16419888D01*
X6684191Y-16419888D02*
X6674667Y-16438936D01*
X6674667Y-16438936D02*
X6665144Y-16448460D01*
X6665144Y-16448460D02*
X6646096Y-16457984D01*
X6646096Y-16457984D02*
X6627048Y-16457984D01*
X6627048Y-16457984D02*
X6608001Y-16448460D01*
X6608001Y-16448460D02*
X6598477Y-16438936D01*
X6598477Y-16438936D02*
X6588953Y-16419888D01*
X6588953Y-16419888D02*
X6579429Y-16381793D01*
X6579429Y-16381793D02*
X6579429Y-16334174D01*
X6579429Y-16334174D02*
X6588953Y-16296079D01*
X6588953Y-16296079D02*
X6598477Y-16277031D01*
X6598477Y-16277031D02*
X6608001Y-16267508D01*
X6608001Y-16267508D02*
X6627048Y-16257984D01*
X6760382Y-16257984D02*
X6884191Y-16257984D01*
X6884191Y-16257984D02*
X6817525Y-16334174D01*
X6817525Y-16334174D02*
X6846096Y-16334174D01*
X6846096Y-16334174D02*
X6865144Y-16343698D01*
X6865144Y-16343698D02*
X6874667Y-16353222D01*
X6874667Y-16353222D02*
X6884191Y-16372269D01*
X6884191Y-16372269D02*
X6884191Y-16419888D01*
X6884191Y-16419888D02*
X6874667Y-16438936D01*
X6874667Y-16438936D02*
X6865144Y-16448460D01*
X6865144Y-16448460D02*
X6846096Y-16457984D01*
X6846096Y-16457984D02*
X6788953Y-16457984D01*
X6788953Y-16457984D02*
X6769906Y-16448460D01*
X6769906Y-16448460D02*
X6760382Y-16438936D01*
X7065144Y-16257984D02*
X6969906Y-16257984D01*
X6969906Y-16257984D02*
X6960382Y-16353222D01*
X6960382Y-16353222D02*
X6969906Y-16343698D01*
X6969906Y-16343698D02*
X6988953Y-16334174D01*
X6988953Y-16334174D02*
X7036572Y-16334174D01*
X7036572Y-16334174D02*
X7055620Y-16343698D01*
X7055620Y-16343698D02*
X7065144Y-16353222D01*
X7065144Y-16353222D02*
X7074667Y-16372269D01*
X7074667Y-16372269D02*
X7074667Y-16419888D01*
X7074667Y-16419888D02*
X7065144Y-16438936D01*
X7065144Y-16438936D02*
X7055620Y-16448460D01*
X7055620Y-16448460D02*
X7036572Y-16457984D01*
X7036572Y-16457984D02*
X6988953Y-16457984D01*
X6988953Y-16457984D02*
X6969906Y-16448460D01*
X6969906Y-16448460D02*
X6960382Y-16438936D01*
X7246096Y-16324650D02*
X7246096Y-16457984D01*
X7198477Y-16248460D02*
X7150858Y-16391317D01*
X7150858Y-16391317D02*
X7274667Y-16391317D01*
X7341334Y-16257984D02*
X7341334Y-16296079D01*
X7417525Y-16257984D02*
X7417525Y-16296079D01*
X7712763Y-16534174D02*
X7703239Y-16524650D01*
X7703239Y-16524650D02*
X7684191Y-16496079D01*
X7684191Y-16496079D02*
X7674668Y-16477031D01*
X7674668Y-16477031D02*
X7665144Y-16448460D01*
X7665144Y-16448460D02*
X7655620Y-16400841D01*
X7655620Y-16400841D02*
X7655620Y-16362746D01*
X7655620Y-16362746D02*
X7665144Y-16315127D01*
X7665144Y-16315127D02*
X7674668Y-16286555D01*
X7674668Y-16286555D02*
X7684191Y-16267508D01*
X7684191Y-16267508D02*
X7703239Y-16238936D01*
X7703239Y-16238936D02*
X7712763Y-16229412D01*
X7827048Y-16257984D02*
X7846096Y-16257984D01*
X7846096Y-16257984D02*
X7865144Y-16267508D01*
X7865144Y-16267508D02*
X7874668Y-16277031D01*
X7874668Y-16277031D02*
X7884191Y-16296079D01*
X7884191Y-16296079D02*
X7893715Y-16334174D01*
X7893715Y-16334174D02*
X7893715Y-16381793D01*
X7893715Y-16381793D02*
X7884191Y-16419888D01*
X7884191Y-16419888D02*
X7874668Y-16438936D01*
X7874668Y-16438936D02*
X7865144Y-16448460D01*
X7865144Y-16448460D02*
X7846096Y-16457984D01*
X7846096Y-16457984D02*
X7827048Y-16457984D01*
X7827048Y-16457984D02*
X7808001Y-16448460D01*
X7808001Y-16448460D02*
X7798477Y-16438936D01*
X7798477Y-16438936D02*
X7788953Y-16419888D01*
X7788953Y-16419888D02*
X7779429Y-16381793D01*
X7779429Y-16381793D02*
X7779429Y-16334174D01*
X7779429Y-16334174D02*
X7788953Y-16296079D01*
X7788953Y-16296079D02*
X7798477Y-16277031D01*
X7798477Y-16277031D02*
X7808001Y-16267508D01*
X7808001Y-16267508D02*
X7827048Y-16257984D01*
X8131810Y-16457984D02*
X8131810Y-16257984D01*
X8217525Y-16457984D02*
X8217525Y-16353222D01*
X8217525Y-16353222D02*
X8208001Y-16334174D01*
X8208001Y-16334174D02*
X8188953Y-16324650D01*
X8188953Y-16324650D02*
X8160382Y-16324650D01*
X8160382Y-16324650D02*
X8141334Y-16334174D01*
X8141334Y-16334174D02*
X8131810Y-16343698D01*
X8341334Y-16457984D02*
X8322287Y-16448460D01*
X8322287Y-16448460D02*
X8312763Y-16438936D01*
X8312763Y-16438936D02*
X8303239Y-16419888D01*
X8303239Y-16419888D02*
X8303239Y-16362746D01*
X8303239Y-16362746D02*
X8312763Y-16343698D01*
X8312763Y-16343698D02*
X8322287Y-16334174D01*
X8322287Y-16334174D02*
X8341334Y-16324650D01*
X8341334Y-16324650D02*
X8369906Y-16324650D01*
X8369906Y-16324650D02*
X8388953Y-16334174D01*
X8388953Y-16334174D02*
X8398477Y-16343698D01*
X8398477Y-16343698D02*
X8408001Y-16362746D01*
X8408001Y-16362746D02*
X8408001Y-16419888D01*
X8408001Y-16419888D02*
X8398477Y-16438936D01*
X8398477Y-16438936D02*
X8388953Y-16448460D01*
X8388953Y-16448460D02*
X8369906Y-16457984D01*
X8369906Y-16457984D02*
X8341334Y-16457984D01*
X8522287Y-16457984D02*
X8503239Y-16448460D01*
X8503239Y-16448460D02*
X8493715Y-16429412D01*
X8493715Y-16429412D02*
X8493715Y-16257984D01*
X8674668Y-16448460D02*
X8655620Y-16457984D01*
X8655620Y-16457984D02*
X8617525Y-16457984D01*
X8617525Y-16457984D02*
X8598477Y-16448460D01*
X8598477Y-16448460D02*
X8588953Y-16429412D01*
X8588953Y-16429412D02*
X8588953Y-16353222D01*
X8588953Y-16353222D02*
X8598477Y-16334174D01*
X8598477Y-16334174D02*
X8617525Y-16324650D01*
X8617525Y-16324650D02*
X8655620Y-16324650D01*
X8655620Y-16324650D02*
X8674668Y-16334174D01*
X8674668Y-16334174D02*
X8684192Y-16353222D01*
X8684192Y-16353222D02*
X8684192Y-16372269D01*
X8684192Y-16372269D02*
X8588953Y-16391317D01*
X8760382Y-16448460D02*
X8779430Y-16457984D01*
X8779430Y-16457984D02*
X8817525Y-16457984D01*
X8817525Y-16457984D02*
X8836573Y-16448460D01*
X8836573Y-16448460D02*
X8846096Y-16429412D01*
X8846096Y-16429412D02*
X8846096Y-16419888D01*
X8846096Y-16419888D02*
X8836573Y-16400841D01*
X8836573Y-16400841D02*
X8817525Y-16391317D01*
X8817525Y-16391317D02*
X8788953Y-16391317D01*
X8788953Y-16391317D02*
X8769906Y-16381793D01*
X8769906Y-16381793D02*
X8760382Y-16362746D01*
X8760382Y-16362746D02*
X8760382Y-16353222D01*
X8760382Y-16353222D02*
X8769906Y-16334174D01*
X8769906Y-16334174D02*
X8788953Y-16324650D01*
X8788953Y-16324650D02*
X8817525Y-16324650D01*
X8817525Y-16324650D02*
X8836573Y-16334174D01*
X9084192Y-16381793D02*
X9236573Y-16381793D01*
X9160382Y-16457984D02*
X9160382Y-16305603D01*
X9569906Y-16324650D02*
X9569906Y-16457984D01*
X9522287Y-16248460D02*
X9474668Y-16391317D01*
X9474668Y-16391317D02*
X9598477Y-16391317D01*
X9817525Y-16448460D02*
X9836573Y-16457984D01*
X9836573Y-16457984D02*
X9874668Y-16457984D01*
X9874668Y-16457984D02*
X9893716Y-16448460D01*
X9893716Y-16448460D02*
X9903239Y-16429412D01*
X9903239Y-16429412D02*
X9903239Y-16419888D01*
X9903239Y-16419888D02*
X9893716Y-16400841D01*
X9893716Y-16400841D02*
X9874668Y-16391317D01*
X9874668Y-16391317D02*
X9846096Y-16391317D01*
X9846096Y-16391317D02*
X9827049Y-16381793D01*
X9827049Y-16381793D02*
X9817525Y-16362746D01*
X9817525Y-16362746D02*
X9817525Y-16353222D01*
X9817525Y-16353222D02*
X9827049Y-16334174D01*
X9827049Y-16334174D02*
X9846096Y-16324650D01*
X9846096Y-16324650D02*
X9874668Y-16324650D01*
X9874668Y-16324650D02*
X9893716Y-16334174D01*
X10017525Y-16457984D02*
X9998477Y-16448460D01*
X9998477Y-16448460D02*
X9988954Y-16429412D01*
X9988954Y-16429412D02*
X9988954Y-16257984D01*
X10122287Y-16457984D02*
X10103239Y-16448460D01*
X10103239Y-16448460D02*
X10093716Y-16438936D01*
X10093716Y-16438936D02*
X10084192Y-16419888D01*
X10084192Y-16419888D02*
X10084192Y-16362746D01*
X10084192Y-16362746D02*
X10093716Y-16343698D01*
X10093716Y-16343698D02*
X10103239Y-16334174D01*
X10103239Y-16334174D02*
X10122287Y-16324650D01*
X10122287Y-16324650D02*
X10150858Y-16324650D01*
X10150858Y-16324650D02*
X10169906Y-16334174D01*
X10169906Y-16334174D02*
X10179430Y-16343698D01*
X10179430Y-16343698D02*
X10188954Y-16362746D01*
X10188954Y-16362746D02*
X10188954Y-16419888D01*
X10188954Y-16419888D02*
X10179430Y-16438936D01*
X10179430Y-16438936D02*
X10169906Y-16448460D01*
X10169906Y-16448460D02*
X10150858Y-16457984D01*
X10150858Y-16457984D02*
X10122287Y-16457984D01*
X10246097Y-16324650D02*
X10322287Y-16324650D01*
X10274668Y-16257984D02*
X10274668Y-16429412D01*
X10274668Y-16429412D02*
X10284192Y-16448460D01*
X10284192Y-16448460D02*
X10303239Y-16457984D01*
X10303239Y-16457984D02*
X10322287Y-16457984D01*
X10379430Y-16448460D02*
X10398477Y-16457984D01*
X10398477Y-16457984D02*
X10436573Y-16457984D01*
X10436573Y-16457984D02*
X10455620Y-16448460D01*
X10455620Y-16448460D02*
X10465144Y-16429412D01*
X10465144Y-16429412D02*
X10465144Y-16419888D01*
X10465144Y-16419888D02*
X10455620Y-16400841D01*
X10455620Y-16400841D02*
X10436573Y-16391317D01*
X10436573Y-16391317D02*
X10408001Y-16391317D01*
X10408001Y-16391317D02*
X10388954Y-16381793D01*
X10388954Y-16381793D02*
X10379430Y-16362746D01*
X10379430Y-16362746D02*
X10379430Y-16353222D01*
X10379430Y-16353222D02*
X10388954Y-16334174D01*
X10388954Y-16334174D02*
X10408001Y-16324650D01*
X10408001Y-16324650D02*
X10436573Y-16324650D01*
X10436573Y-16324650D02*
X10455620Y-16334174D01*
X10531811Y-16534174D02*
X10541335Y-16524650D01*
X10541335Y-16524650D02*
X10560382Y-16496079D01*
X10560382Y-16496079D02*
X10569906Y-16477031D01*
X10569906Y-16477031D02*
X10579430Y-16448460D01*
X10579430Y-16448460D02*
X10588954Y-16400841D01*
X10588954Y-16400841D02*
X10588954Y-16362746D01*
X10588954Y-16362746D02*
X10579430Y-16315127D01*
X10579430Y-16315127D02*
X10569906Y-16286555D01*
X10569906Y-16286555D02*
X10560382Y-16267508D01*
X10560382Y-16267508D02*
X10541335Y-16238936D01*
X10541335Y-16238936D02*
X10531811Y-16229412D01*
D11*
X4088170Y-16580970D02*
X4088170Y-16680030D01*
X4038640Y-16630500D02*
X4137700Y-16630500D01*
D12*
X4436572Y-16521984D02*
X4455620Y-16521984D01*
X4455620Y-16521984D02*
X4474667Y-16531508D01*
X4474667Y-16531508D02*
X4484191Y-16541031D01*
X4484191Y-16541031D02*
X4493715Y-16560079D01*
X4493715Y-16560079D02*
X4503239Y-16598174D01*
X4503239Y-16598174D02*
X4503239Y-16645793D01*
X4503239Y-16645793D02*
X4493715Y-16683888D01*
X4493715Y-16683888D02*
X4484191Y-16702936D01*
X4484191Y-16702936D02*
X4474667Y-16712460D01*
X4474667Y-16712460D02*
X4455620Y-16721984D01*
X4455620Y-16721984D02*
X4436572Y-16721984D01*
X4436572Y-16721984D02*
X4417524Y-16712460D01*
X4417524Y-16712460D02*
X4408001Y-16702936D01*
X4408001Y-16702936D02*
X4398477Y-16683888D01*
X4398477Y-16683888D02*
X4388953Y-16645793D01*
X4388953Y-16645793D02*
X4388953Y-16598174D01*
X4388953Y-16598174D02*
X4398477Y-16560079D01*
X4398477Y-16560079D02*
X4408001Y-16541031D01*
X4408001Y-16541031D02*
X4417524Y-16531508D01*
X4417524Y-16531508D02*
X4436572Y-16521984D01*
X4588953Y-16702936D02*
X4598477Y-16712460D01*
X4598477Y-16712460D02*
X4588953Y-16721984D01*
X4588953Y-16721984D02*
X4579429Y-16712460D01*
X4579429Y-16712460D02*
X4588953Y-16702936D01*
X4588953Y-16702936D02*
X4588953Y-16721984D01*
X4693715Y-16721984D02*
X4731810Y-16721984D01*
X4731810Y-16721984D02*
X4750858Y-16712460D01*
X4750858Y-16712460D02*
X4760382Y-16702936D01*
X4760382Y-16702936D02*
X4779429Y-16674365D01*
X4779429Y-16674365D02*
X4788953Y-16636269D01*
X4788953Y-16636269D02*
X4788953Y-16560079D01*
X4788953Y-16560079D02*
X4779429Y-16541031D01*
X4779429Y-16541031D02*
X4769905Y-16531508D01*
X4769905Y-16531508D02*
X4750858Y-16521984D01*
X4750858Y-16521984D02*
X4712763Y-16521984D01*
X4712763Y-16521984D02*
X4693715Y-16531508D01*
X4693715Y-16531508D02*
X4684191Y-16541031D01*
X4684191Y-16541031D02*
X4674667Y-16560079D01*
X4674667Y-16560079D02*
X4674667Y-16607698D01*
X4674667Y-16607698D02*
X4684191Y-16626746D01*
X4684191Y-16626746D02*
X4693715Y-16636269D01*
X4693715Y-16636269D02*
X4712763Y-16645793D01*
X4712763Y-16645793D02*
X4750858Y-16645793D01*
X4750858Y-16645793D02*
X4769905Y-16636269D01*
X4769905Y-16636269D02*
X4779429Y-16626746D01*
X4779429Y-16626746D02*
X4788953Y-16607698D01*
X4884191Y-16721984D02*
X4922286Y-16721984D01*
X4922286Y-16721984D02*
X4941334Y-16712460D01*
X4941334Y-16712460D02*
X4950858Y-16702936D01*
X4950858Y-16702936D02*
X4969905Y-16674365D01*
X4969905Y-16674365D02*
X4979429Y-16636269D01*
X4979429Y-16636269D02*
X4979429Y-16560079D01*
X4979429Y-16560079D02*
X4969905Y-16541031D01*
X4969905Y-16541031D02*
X4960382Y-16531508D01*
X4960382Y-16531508D02*
X4941334Y-16521984D01*
X4941334Y-16521984D02*
X4903239Y-16521984D01*
X4903239Y-16521984D02*
X4884191Y-16531508D01*
X4884191Y-16531508D02*
X4874667Y-16541031D01*
X4874667Y-16541031D02*
X4865144Y-16560079D01*
X4865144Y-16560079D02*
X4865144Y-16607698D01*
X4865144Y-16607698D02*
X4874667Y-16626746D01*
X4874667Y-16626746D02*
X4884191Y-16636269D01*
X4884191Y-16636269D02*
X4903239Y-16645793D01*
X4903239Y-16645793D02*
X4941334Y-16645793D01*
X4941334Y-16645793D02*
X4960382Y-16636269D01*
X4960382Y-16636269D02*
X4969905Y-16626746D01*
X4969905Y-16626746D02*
X4979429Y-16607698D01*
X5169905Y-16721984D02*
X5055620Y-16721984D01*
X5112763Y-16721984D02*
X5112763Y-16521984D01*
X5112763Y-16521984D02*
X5093715Y-16550555D01*
X5093715Y-16550555D02*
X5074667Y-16569603D01*
X5074667Y-16569603D02*
X5055620Y-16579127D01*
X5255620Y-16721984D02*
X5255620Y-16588650D01*
X5255620Y-16607698D02*
X5265144Y-16598174D01*
X5265144Y-16598174D02*
X5284191Y-16588650D01*
X5284191Y-16588650D02*
X5312763Y-16588650D01*
X5312763Y-16588650D02*
X5331810Y-16598174D01*
X5331810Y-16598174D02*
X5341334Y-16617222D01*
X5341334Y-16617222D02*
X5341334Y-16721984D01*
X5341334Y-16617222D02*
X5350858Y-16598174D01*
X5350858Y-16598174D02*
X5369905Y-16588650D01*
X5369905Y-16588650D02*
X5398477Y-16588650D01*
X5398477Y-16588650D02*
X5417525Y-16598174D01*
X5417525Y-16598174D02*
X5427048Y-16617222D01*
X5427048Y-16617222D02*
X5427048Y-16721984D01*
X5522286Y-16721984D02*
X5522286Y-16588650D01*
X5522286Y-16607698D02*
X5531810Y-16598174D01*
X5531810Y-16598174D02*
X5550858Y-16588650D01*
X5550858Y-16588650D02*
X5579429Y-16588650D01*
X5579429Y-16588650D02*
X5598477Y-16598174D01*
X5598477Y-16598174D02*
X5608001Y-16617222D01*
X5608001Y-16617222D02*
X5608001Y-16721984D01*
X5608001Y-16617222D02*
X5617524Y-16598174D01*
X5617524Y-16598174D02*
X5636572Y-16588650D01*
X5636572Y-16588650D02*
X5665143Y-16588650D01*
X5665143Y-16588650D02*
X5684191Y-16598174D01*
X5684191Y-16598174D02*
X5693715Y-16617222D01*
X5693715Y-16617222D02*
X5693715Y-16721984D01*
X6084191Y-16512460D02*
X5912763Y-16769603D01*
X6341334Y-16521984D02*
X6360382Y-16521984D01*
X6360382Y-16521984D02*
X6379429Y-16531508D01*
X6379429Y-16531508D02*
X6388953Y-16541031D01*
X6388953Y-16541031D02*
X6398477Y-16560079D01*
X6398477Y-16560079D02*
X6408001Y-16598174D01*
X6408001Y-16598174D02*
X6408001Y-16645793D01*
X6408001Y-16645793D02*
X6398477Y-16683888D01*
X6398477Y-16683888D02*
X6388953Y-16702936D01*
X6388953Y-16702936D02*
X6379429Y-16712460D01*
X6379429Y-16712460D02*
X6360382Y-16721984D01*
X6360382Y-16721984D02*
X6341334Y-16721984D01*
X6341334Y-16721984D02*
X6322286Y-16712460D01*
X6322286Y-16712460D02*
X6312763Y-16702936D01*
X6312763Y-16702936D02*
X6303239Y-16683888D01*
X6303239Y-16683888D02*
X6293715Y-16645793D01*
X6293715Y-16645793D02*
X6293715Y-16598174D01*
X6293715Y-16598174D02*
X6303239Y-16560079D01*
X6303239Y-16560079D02*
X6312763Y-16541031D01*
X6312763Y-16541031D02*
X6322286Y-16531508D01*
X6322286Y-16531508D02*
X6341334Y-16521984D01*
X6493715Y-16702936D02*
X6503239Y-16712460D01*
X6503239Y-16712460D02*
X6493715Y-16721984D01*
X6493715Y-16721984D02*
X6484191Y-16712460D01*
X6484191Y-16712460D02*
X6493715Y-16702936D01*
X6493715Y-16702936D02*
X6493715Y-16721984D01*
X6627048Y-16521984D02*
X6646096Y-16521984D01*
X6646096Y-16521984D02*
X6665144Y-16531508D01*
X6665144Y-16531508D02*
X6674667Y-16541031D01*
X6674667Y-16541031D02*
X6684191Y-16560079D01*
X6684191Y-16560079D02*
X6693715Y-16598174D01*
X6693715Y-16598174D02*
X6693715Y-16645793D01*
X6693715Y-16645793D02*
X6684191Y-16683888D01*
X6684191Y-16683888D02*
X6674667Y-16702936D01*
X6674667Y-16702936D02*
X6665144Y-16712460D01*
X6665144Y-16712460D02*
X6646096Y-16721984D01*
X6646096Y-16721984D02*
X6627048Y-16721984D01*
X6627048Y-16721984D02*
X6608001Y-16712460D01*
X6608001Y-16712460D02*
X6598477Y-16702936D01*
X6598477Y-16702936D02*
X6588953Y-16683888D01*
X6588953Y-16683888D02*
X6579429Y-16645793D01*
X6579429Y-16645793D02*
X6579429Y-16598174D01*
X6579429Y-16598174D02*
X6588953Y-16560079D01*
X6588953Y-16560079D02*
X6598477Y-16541031D01*
X6598477Y-16541031D02*
X6608001Y-16531508D01*
X6608001Y-16531508D02*
X6627048Y-16521984D01*
X6760382Y-16521984D02*
X6884191Y-16521984D01*
X6884191Y-16521984D02*
X6817525Y-16598174D01*
X6817525Y-16598174D02*
X6846096Y-16598174D01*
X6846096Y-16598174D02*
X6865144Y-16607698D01*
X6865144Y-16607698D02*
X6874667Y-16617222D01*
X6874667Y-16617222D02*
X6884191Y-16636269D01*
X6884191Y-16636269D02*
X6884191Y-16683888D01*
X6884191Y-16683888D02*
X6874667Y-16702936D01*
X6874667Y-16702936D02*
X6865144Y-16712460D01*
X6865144Y-16712460D02*
X6846096Y-16721984D01*
X6846096Y-16721984D02*
X6788953Y-16721984D01*
X6788953Y-16721984D02*
X6769906Y-16712460D01*
X6769906Y-16712460D02*
X6760382Y-16702936D01*
X6979429Y-16721984D02*
X7017525Y-16721984D01*
X7017525Y-16721984D02*
X7036572Y-16712460D01*
X7036572Y-16712460D02*
X7046096Y-16702936D01*
X7046096Y-16702936D02*
X7065144Y-16674365D01*
X7065144Y-16674365D02*
X7074667Y-16636269D01*
X7074667Y-16636269D02*
X7074667Y-16560079D01*
X7074667Y-16560079D02*
X7065144Y-16541031D01*
X7065144Y-16541031D02*
X7055620Y-16531508D01*
X7055620Y-16531508D02*
X7036572Y-16521984D01*
X7036572Y-16521984D02*
X6998477Y-16521984D01*
X6998477Y-16521984D02*
X6979429Y-16531508D01*
X6979429Y-16531508D02*
X6969906Y-16541031D01*
X6969906Y-16541031D02*
X6960382Y-16560079D01*
X6960382Y-16560079D02*
X6960382Y-16607698D01*
X6960382Y-16607698D02*
X6969906Y-16626746D01*
X6969906Y-16626746D02*
X6979429Y-16636269D01*
X6979429Y-16636269D02*
X6998477Y-16645793D01*
X6998477Y-16645793D02*
X7036572Y-16645793D01*
X7036572Y-16645793D02*
X7055620Y-16636269D01*
X7055620Y-16636269D02*
X7065144Y-16626746D01*
X7065144Y-16626746D02*
X7074667Y-16607698D01*
X7198477Y-16521984D02*
X7217525Y-16521984D01*
X7217525Y-16521984D02*
X7236572Y-16531508D01*
X7236572Y-16531508D02*
X7246096Y-16541031D01*
X7246096Y-16541031D02*
X7255620Y-16560079D01*
X7255620Y-16560079D02*
X7265144Y-16598174D01*
X7265144Y-16598174D02*
X7265144Y-16645793D01*
X7265144Y-16645793D02*
X7255620Y-16683888D01*
X7255620Y-16683888D02*
X7246096Y-16702936D01*
X7246096Y-16702936D02*
X7236572Y-16712460D01*
X7236572Y-16712460D02*
X7217525Y-16721984D01*
X7217525Y-16721984D02*
X7198477Y-16721984D01*
X7198477Y-16721984D02*
X7179429Y-16712460D01*
X7179429Y-16712460D02*
X7169906Y-16702936D01*
X7169906Y-16702936D02*
X7160382Y-16683888D01*
X7160382Y-16683888D02*
X7150858Y-16645793D01*
X7150858Y-16645793D02*
X7150858Y-16598174D01*
X7150858Y-16598174D02*
X7160382Y-16560079D01*
X7160382Y-16560079D02*
X7169906Y-16541031D01*
X7169906Y-16541031D02*
X7179429Y-16531508D01*
X7179429Y-16531508D02*
X7198477Y-16521984D01*
X7341334Y-16521984D02*
X7341334Y-16560079D01*
X7417525Y-16521984D02*
X7417525Y-16560079D01*
X7712763Y-16798174D02*
X7703239Y-16788650D01*
X7703239Y-16788650D02*
X7684191Y-16760079D01*
X7684191Y-16760079D02*
X7674668Y-16741031D01*
X7674668Y-16741031D02*
X7665144Y-16712460D01*
X7665144Y-16712460D02*
X7655620Y-16664841D01*
X7655620Y-16664841D02*
X7655620Y-16626746D01*
X7655620Y-16626746D02*
X7665144Y-16579127D01*
X7665144Y-16579127D02*
X7674668Y-16550555D01*
X7674668Y-16550555D02*
X7684191Y-16531508D01*
X7684191Y-16531508D02*
X7703239Y-16502936D01*
X7703239Y-16502936D02*
X7712763Y-16493412D01*
X7874668Y-16588650D02*
X7874668Y-16721984D01*
X7827048Y-16512460D02*
X7779429Y-16655317D01*
X7779429Y-16655317D02*
X7903239Y-16655317D01*
X8131810Y-16721984D02*
X8131810Y-16521984D01*
X8217525Y-16721984D02*
X8217525Y-16617222D01*
X8217525Y-16617222D02*
X8208001Y-16598174D01*
X8208001Y-16598174D02*
X8188953Y-16588650D01*
X8188953Y-16588650D02*
X8160382Y-16588650D01*
X8160382Y-16588650D02*
X8141334Y-16598174D01*
X8141334Y-16598174D02*
X8131810Y-16607698D01*
X8341334Y-16721984D02*
X8322287Y-16712460D01*
X8322287Y-16712460D02*
X8312763Y-16702936D01*
X8312763Y-16702936D02*
X8303239Y-16683888D01*
X8303239Y-16683888D02*
X8303239Y-16626746D01*
X8303239Y-16626746D02*
X8312763Y-16607698D01*
X8312763Y-16607698D02*
X8322287Y-16598174D01*
X8322287Y-16598174D02*
X8341334Y-16588650D01*
X8341334Y-16588650D02*
X8369906Y-16588650D01*
X8369906Y-16588650D02*
X8388953Y-16598174D01*
X8388953Y-16598174D02*
X8398477Y-16607698D01*
X8398477Y-16607698D02*
X8408001Y-16626746D01*
X8408001Y-16626746D02*
X8408001Y-16683888D01*
X8408001Y-16683888D02*
X8398477Y-16702936D01*
X8398477Y-16702936D02*
X8388953Y-16712460D01*
X8388953Y-16712460D02*
X8369906Y-16721984D01*
X8369906Y-16721984D02*
X8341334Y-16721984D01*
X8522287Y-16721984D02*
X8503239Y-16712460D01*
X8503239Y-16712460D02*
X8493715Y-16693412D01*
X8493715Y-16693412D02*
X8493715Y-16521984D01*
X8674668Y-16712460D02*
X8655620Y-16721984D01*
X8655620Y-16721984D02*
X8617525Y-16721984D01*
X8617525Y-16721984D02*
X8598477Y-16712460D01*
X8598477Y-16712460D02*
X8588953Y-16693412D01*
X8588953Y-16693412D02*
X8588953Y-16617222D01*
X8588953Y-16617222D02*
X8598477Y-16598174D01*
X8598477Y-16598174D02*
X8617525Y-16588650D01*
X8617525Y-16588650D02*
X8655620Y-16588650D01*
X8655620Y-16588650D02*
X8674668Y-16598174D01*
X8674668Y-16598174D02*
X8684192Y-16617222D01*
X8684192Y-16617222D02*
X8684192Y-16636269D01*
X8684192Y-16636269D02*
X8588953Y-16655317D01*
X8760382Y-16712460D02*
X8779430Y-16721984D01*
X8779430Y-16721984D02*
X8817525Y-16721984D01*
X8817525Y-16721984D02*
X8836573Y-16712460D01*
X8836573Y-16712460D02*
X8846096Y-16693412D01*
X8846096Y-16693412D02*
X8846096Y-16683888D01*
X8846096Y-16683888D02*
X8836573Y-16664841D01*
X8836573Y-16664841D02*
X8817525Y-16655317D01*
X8817525Y-16655317D02*
X8788953Y-16655317D01*
X8788953Y-16655317D02*
X8769906Y-16645793D01*
X8769906Y-16645793D02*
X8760382Y-16626746D01*
X8760382Y-16626746D02*
X8760382Y-16617222D01*
X8760382Y-16617222D02*
X8769906Y-16598174D01*
X8769906Y-16598174D02*
X8788953Y-16588650D01*
X8788953Y-16588650D02*
X8817525Y-16588650D01*
X8817525Y-16588650D02*
X8836573Y-16598174D01*
X8912763Y-16798174D02*
X8922287Y-16788650D01*
X8922287Y-16788650D02*
X8941334Y-16760079D01*
X8941334Y-16760079D02*
X8950858Y-16741031D01*
X8950858Y-16741031D02*
X8960382Y-16712460D01*
X8960382Y-16712460D02*
X8969906Y-16664841D01*
X8969906Y-16664841D02*
X8969906Y-16626746D01*
X8969906Y-16626746D02*
X8960382Y-16579127D01*
X8960382Y-16579127D02*
X8950858Y-16550555D01*
X8950858Y-16550555D02*
X8941334Y-16531508D01*
X8941334Y-16531508D02*
X8922287Y-16502936D01*
X8922287Y-16502936D02*
X8912763Y-16493412D01*
D11*
X4123056Y-16929856D02*
X4123056Y-16859144D01*
X4052344Y-16859144D01*
X4052344Y-16929856D01*
X4123056Y-16929856D01*
D12*
X4503239Y-16985984D02*
X4388953Y-16985984D01*
X4446096Y-16985984D02*
X4446096Y-16785984D01*
X4446096Y-16785984D02*
X4427048Y-16814555D01*
X4427048Y-16814555D02*
X4408001Y-16833603D01*
X4408001Y-16833603D02*
X4388953Y-16843127D01*
X4588953Y-16966936D02*
X4598477Y-16976460D01*
X4598477Y-16976460D02*
X4588953Y-16985984D01*
X4588953Y-16985984D02*
X4579429Y-16976460D01*
X4579429Y-16976460D02*
X4588953Y-16966936D01*
X4588953Y-16966936D02*
X4588953Y-16985984D01*
X4722286Y-16785984D02*
X4741334Y-16785984D01*
X4741334Y-16785984D02*
X4760382Y-16795508D01*
X4760382Y-16795508D02*
X4769905Y-16805031D01*
X4769905Y-16805031D02*
X4779429Y-16824079D01*
X4779429Y-16824079D02*
X4788953Y-16862174D01*
X4788953Y-16862174D02*
X4788953Y-16909793D01*
X4788953Y-16909793D02*
X4779429Y-16947889D01*
X4779429Y-16947889D02*
X4769905Y-16966936D01*
X4769905Y-16966936D02*
X4760382Y-16976460D01*
X4760382Y-16976460D02*
X4741334Y-16985984D01*
X4741334Y-16985984D02*
X4722286Y-16985984D01*
X4722286Y-16985984D02*
X4703239Y-16976460D01*
X4703239Y-16976460D02*
X4693715Y-16966936D01*
X4693715Y-16966936D02*
X4684191Y-16947889D01*
X4684191Y-16947889D02*
X4674667Y-16909793D01*
X4674667Y-16909793D02*
X4674667Y-16862174D01*
X4674667Y-16862174D02*
X4684191Y-16824079D01*
X4684191Y-16824079D02*
X4693715Y-16805031D01*
X4693715Y-16805031D02*
X4703239Y-16795508D01*
X4703239Y-16795508D02*
X4722286Y-16785984D01*
X4912763Y-16785984D02*
X4931810Y-16785984D01*
X4931810Y-16785984D02*
X4950858Y-16795508D01*
X4950858Y-16795508D02*
X4960382Y-16805031D01*
X4960382Y-16805031D02*
X4969905Y-16824079D01*
X4969905Y-16824079D02*
X4979429Y-16862174D01*
X4979429Y-16862174D02*
X4979429Y-16909793D01*
X4979429Y-16909793D02*
X4969905Y-16947889D01*
X4969905Y-16947889D02*
X4960382Y-16966936D01*
X4960382Y-16966936D02*
X4950858Y-16976460D01*
X4950858Y-16976460D02*
X4931810Y-16985984D01*
X4931810Y-16985984D02*
X4912763Y-16985984D01*
X4912763Y-16985984D02*
X4893715Y-16976460D01*
X4893715Y-16976460D02*
X4884191Y-16966936D01*
X4884191Y-16966936D02*
X4874667Y-16947889D01*
X4874667Y-16947889D02*
X4865144Y-16909793D01*
X4865144Y-16909793D02*
X4865144Y-16862174D01*
X4865144Y-16862174D02*
X4874667Y-16824079D01*
X4874667Y-16824079D02*
X4884191Y-16805031D01*
X4884191Y-16805031D02*
X4893715Y-16795508D01*
X4893715Y-16795508D02*
X4912763Y-16785984D01*
X5103239Y-16785984D02*
X5122286Y-16785984D01*
X5122286Y-16785984D02*
X5141334Y-16795508D01*
X5141334Y-16795508D02*
X5150858Y-16805031D01*
X5150858Y-16805031D02*
X5160382Y-16824079D01*
X5160382Y-16824079D02*
X5169905Y-16862174D01*
X5169905Y-16862174D02*
X5169905Y-16909793D01*
X5169905Y-16909793D02*
X5160382Y-16947889D01*
X5160382Y-16947889D02*
X5150858Y-16966936D01*
X5150858Y-16966936D02*
X5141334Y-16976460D01*
X5141334Y-16976460D02*
X5122286Y-16985984D01*
X5122286Y-16985984D02*
X5103239Y-16985984D01*
X5103239Y-16985984D02*
X5084191Y-16976460D01*
X5084191Y-16976460D02*
X5074667Y-16966936D01*
X5074667Y-16966936D02*
X5065144Y-16947889D01*
X5065144Y-16947889D02*
X5055620Y-16909793D01*
X5055620Y-16909793D02*
X5055620Y-16862174D01*
X5055620Y-16862174D02*
X5065144Y-16824079D01*
X5065144Y-16824079D02*
X5074667Y-16805031D01*
X5074667Y-16805031D02*
X5084191Y-16795508D01*
X5084191Y-16795508D02*
X5103239Y-16785984D01*
X5255620Y-16985984D02*
X5255620Y-16852650D01*
X5255620Y-16871698D02*
X5265144Y-16862174D01*
X5265144Y-16862174D02*
X5284191Y-16852650D01*
X5284191Y-16852650D02*
X5312763Y-16852650D01*
X5312763Y-16852650D02*
X5331810Y-16862174D01*
X5331810Y-16862174D02*
X5341334Y-16881222D01*
X5341334Y-16881222D02*
X5341334Y-16985984D01*
X5341334Y-16881222D02*
X5350858Y-16862174D01*
X5350858Y-16862174D02*
X5369905Y-16852650D01*
X5369905Y-16852650D02*
X5398477Y-16852650D01*
X5398477Y-16852650D02*
X5417525Y-16862174D01*
X5417525Y-16862174D02*
X5427048Y-16881222D01*
X5427048Y-16881222D02*
X5427048Y-16985984D01*
X5522286Y-16985984D02*
X5522286Y-16852650D01*
X5522286Y-16871698D02*
X5531810Y-16862174D01*
X5531810Y-16862174D02*
X5550858Y-16852650D01*
X5550858Y-16852650D02*
X5579429Y-16852650D01*
X5579429Y-16852650D02*
X5598477Y-16862174D01*
X5598477Y-16862174D02*
X5608001Y-16881222D01*
X5608001Y-16881222D02*
X5608001Y-16985984D01*
X5608001Y-16881222D02*
X5617524Y-16862174D01*
X5617524Y-16862174D02*
X5636572Y-16852650D01*
X5636572Y-16852650D02*
X5665143Y-16852650D01*
X5665143Y-16852650D02*
X5684191Y-16862174D01*
X5684191Y-16862174D02*
X5693715Y-16881222D01*
X5693715Y-16881222D02*
X5693715Y-16985984D01*
X6084191Y-16776460D02*
X5912763Y-17033603D01*
X6341334Y-16785984D02*
X6360382Y-16785984D01*
X6360382Y-16785984D02*
X6379429Y-16795508D01*
X6379429Y-16795508D02*
X6388953Y-16805031D01*
X6388953Y-16805031D02*
X6398477Y-16824079D01*
X6398477Y-16824079D02*
X6408001Y-16862174D01*
X6408001Y-16862174D02*
X6408001Y-16909793D01*
X6408001Y-16909793D02*
X6398477Y-16947889D01*
X6398477Y-16947889D02*
X6388953Y-16966936D01*
X6388953Y-16966936D02*
X6379429Y-16976460D01*
X6379429Y-16976460D02*
X6360382Y-16985984D01*
X6360382Y-16985984D02*
X6341334Y-16985984D01*
X6341334Y-16985984D02*
X6322286Y-16976460D01*
X6322286Y-16976460D02*
X6312763Y-16966936D01*
X6312763Y-16966936D02*
X6303239Y-16947889D01*
X6303239Y-16947889D02*
X6293715Y-16909793D01*
X6293715Y-16909793D02*
X6293715Y-16862174D01*
X6293715Y-16862174D02*
X6303239Y-16824079D01*
X6303239Y-16824079D02*
X6312763Y-16805031D01*
X6312763Y-16805031D02*
X6322286Y-16795508D01*
X6322286Y-16795508D02*
X6341334Y-16785984D01*
X6493715Y-16966936D02*
X6503239Y-16976460D01*
X6503239Y-16976460D02*
X6493715Y-16985984D01*
X6493715Y-16985984D02*
X6484191Y-16976460D01*
X6484191Y-16976460D02*
X6493715Y-16966936D01*
X6493715Y-16966936D02*
X6493715Y-16985984D01*
X6627048Y-16785984D02*
X6646096Y-16785984D01*
X6646096Y-16785984D02*
X6665144Y-16795508D01*
X6665144Y-16795508D02*
X6674667Y-16805031D01*
X6674667Y-16805031D02*
X6684191Y-16824079D01*
X6684191Y-16824079D02*
X6693715Y-16862174D01*
X6693715Y-16862174D02*
X6693715Y-16909793D01*
X6693715Y-16909793D02*
X6684191Y-16947889D01*
X6684191Y-16947889D02*
X6674667Y-16966936D01*
X6674667Y-16966936D02*
X6665144Y-16976460D01*
X6665144Y-16976460D02*
X6646096Y-16985984D01*
X6646096Y-16985984D02*
X6627048Y-16985984D01*
X6627048Y-16985984D02*
X6608001Y-16976460D01*
X6608001Y-16976460D02*
X6598477Y-16966936D01*
X6598477Y-16966936D02*
X6588953Y-16947889D01*
X6588953Y-16947889D02*
X6579429Y-16909793D01*
X6579429Y-16909793D02*
X6579429Y-16862174D01*
X6579429Y-16862174D02*
X6588953Y-16824079D01*
X6588953Y-16824079D02*
X6598477Y-16805031D01*
X6598477Y-16805031D02*
X6608001Y-16795508D01*
X6608001Y-16795508D02*
X6627048Y-16785984D01*
X6760382Y-16785984D02*
X6884191Y-16785984D01*
X6884191Y-16785984D02*
X6817525Y-16862174D01*
X6817525Y-16862174D02*
X6846096Y-16862174D01*
X6846096Y-16862174D02*
X6865144Y-16871698D01*
X6865144Y-16871698D02*
X6874667Y-16881222D01*
X6874667Y-16881222D02*
X6884191Y-16900270D01*
X6884191Y-16900270D02*
X6884191Y-16947889D01*
X6884191Y-16947889D02*
X6874667Y-16966936D01*
X6874667Y-16966936D02*
X6865144Y-16976460D01*
X6865144Y-16976460D02*
X6846096Y-16985984D01*
X6846096Y-16985984D02*
X6788953Y-16985984D01*
X6788953Y-16985984D02*
X6769906Y-16976460D01*
X6769906Y-16976460D02*
X6760382Y-16966936D01*
X6979429Y-16985984D02*
X7017525Y-16985984D01*
X7017525Y-16985984D02*
X7036572Y-16976460D01*
X7036572Y-16976460D02*
X7046096Y-16966936D01*
X7046096Y-16966936D02*
X7065144Y-16938365D01*
X7065144Y-16938365D02*
X7074667Y-16900270D01*
X7074667Y-16900270D02*
X7074667Y-16824079D01*
X7074667Y-16824079D02*
X7065144Y-16805031D01*
X7065144Y-16805031D02*
X7055620Y-16795508D01*
X7055620Y-16795508D02*
X7036572Y-16785984D01*
X7036572Y-16785984D02*
X6998477Y-16785984D01*
X6998477Y-16785984D02*
X6979429Y-16795508D01*
X6979429Y-16795508D02*
X6969906Y-16805031D01*
X6969906Y-16805031D02*
X6960382Y-16824079D01*
X6960382Y-16824079D02*
X6960382Y-16871698D01*
X6960382Y-16871698D02*
X6969906Y-16890746D01*
X6969906Y-16890746D02*
X6979429Y-16900270D01*
X6979429Y-16900270D02*
X6998477Y-16909793D01*
X6998477Y-16909793D02*
X7036572Y-16909793D01*
X7036572Y-16909793D02*
X7055620Y-16900270D01*
X7055620Y-16900270D02*
X7065144Y-16890746D01*
X7065144Y-16890746D02*
X7074667Y-16871698D01*
X7246096Y-16852650D02*
X7246096Y-16985984D01*
X7198477Y-16776460D02*
X7150858Y-16919317D01*
X7150858Y-16919317D02*
X7274667Y-16919317D01*
X7341334Y-16785984D02*
X7341334Y-16824079D01*
X7417525Y-16785984D02*
X7417525Y-16824079D01*
X7712763Y-17062174D02*
X7703239Y-17052650D01*
X7703239Y-17052650D02*
X7684191Y-17024079D01*
X7684191Y-17024079D02*
X7674668Y-17005031D01*
X7674668Y-17005031D02*
X7665144Y-16976460D01*
X7665144Y-16976460D02*
X7655620Y-16928841D01*
X7655620Y-16928841D02*
X7655620Y-16890746D01*
X7655620Y-16890746D02*
X7665144Y-16843127D01*
X7665144Y-16843127D02*
X7674668Y-16814555D01*
X7674668Y-16814555D02*
X7684191Y-16795508D01*
X7684191Y-16795508D02*
X7703239Y-16766936D01*
X7703239Y-16766936D02*
X7712763Y-16757412D01*
X7893715Y-16985984D02*
X7779429Y-16985984D01*
X7836572Y-16985984D02*
X7836572Y-16785984D01*
X7836572Y-16785984D02*
X7817525Y-16814555D01*
X7817525Y-16814555D02*
X7798477Y-16833603D01*
X7798477Y-16833603D02*
X7779429Y-16843127D01*
X8017525Y-16785984D02*
X8036572Y-16785984D01*
X8036572Y-16785984D02*
X8055620Y-16795508D01*
X8055620Y-16795508D02*
X8065144Y-16805031D01*
X8065144Y-16805031D02*
X8074668Y-16824079D01*
X8074668Y-16824079D02*
X8084191Y-16862174D01*
X8084191Y-16862174D02*
X8084191Y-16909793D01*
X8084191Y-16909793D02*
X8074668Y-16947889D01*
X8074668Y-16947889D02*
X8065144Y-16966936D01*
X8065144Y-16966936D02*
X8055620Y-16976460D01*
X8055620Y-16976460D02*
X8036572Y-16985984D01*
X8036572Y-16985984D02*
X8017525Y-16985984D01*
X8017525Y-16985984D02*
X7998477Y-16976460D01*
X7998477Y-16976460D02*
X7988953Y-16966936D01*
X7988953Y-16966936D02*
X7979429Y-16947889D01*
X7979429Y-16947889D02*
X7969906Y-16909793D01*
X7969906Y-16909793D02*
X7969906Y-16862174D01*
X7969906Y-16862174D02*
X7979429Y-16824079D01*
X7979429Y-16824079D02*
X7988953Y-16805031D01*
X7988953Y-16805031D02*
X7998477Y-16795508D01*
X7998477Y-16795508D02*
X8017525Y-16785984D01*
X8160382Y-16805031D02*
X8169906Y-16795508D01*
X8169906Y-16795508D02*
X8188953Y-16785984D01*
X8188953Y-16785984D02*
X8236572Y-16785984D01*
X8236572Y-16785984D02*
X8255620Y-16795508D01*
X8255620Y-16795508D02*
X8265144Y-16805031D01*
X8265144Y-16805031D02*
X8274668Y-16824079D01*
X8274668Y-16824079D02*
X8274668Y-16843127D01*
X8274668Y-16843127D02*
X8265144Y-16871698D01*
X8265144Y-16871698D02*
X8150858Y-16985984D01*
X8150858Y-16985984D02*
X8274668Y-16985984D01*
X8512763Y-16985984D02*
X8512763Y-16785984D01*
X8598477Y-16985984D02*
X8598477Y-16881222D01*
X8598477Y-16881222D02*
X8588953Y-16862174D01*
X8588953Y-16862174D02*
X8569906Y-16852650D01*
X8569906Y-16852650D02*
X8541334Y-16852650D01*
X8541334Y-16852650D02*
X8522287Y-16862174D01*
X8522287Y-16862174D02*
X8512763Y-16871698D01*
X8722287Y-16985984D02*
X8703239Y-16976460D01*
X8703239Y-16976460D02*
X8693715Y-16966936D01*
X8693715Y-16966936D02*
X8684192Y-16947889D01*
X8684192Y-16947889D02*
X8684192Y-16890746D01*
X8684192Y-16890746D02*
X8693715Y-16871698D01*
X8693715Y-16871698D02*
X8703239Y-16862174D01*
X8703239Y-16862174D02*
X8722287Y-16852650D01*
X8722287Y-16852650D02*
X8750858Y-16852650D01*
X8750858Y-16852650D02*
X8769906Y-16862174D01*
X8769906Y-16862174D02*
X8779430Y-16871698D01*
X8779430Y-16871698D02*
X8788953Y-16890746D01*
X8788953Y-16890746D02*
X8788953Y-16947889D01*
X8788953Y-16947889D02*
X8779430Y-16966936D01*
X8779430Y-16966936D02*
X8769906Y-16976460D01*
X8769906Y-16976460D02*
X8750858Y-16985984D01*
X8750858Y-16985984D02*
X8722287Y-16985984D01*
X8903239Y-16985984D02*
X8884192Y-16976460D01*
X8884192Y-16976460D02*
X8874668Y-16957412D01*
X8874668Y-16957412D02*
X8874668Y-16785984D01*
X9055620Y-16976460D02*
X9036573Y-16985984D01*
X9036573Y-16985984D02*
X8998477Y-16985984D01*
X8998477Y-16985984D02*
X8979430Y-16976460D01*
X8979430Y-16976460D02*
X8969906Y-16957412D01*
X8969906Y-16957412D02*
X8969906Y-16881222D01*
X8969906Y-16881222D02*
X8979430Y-16862174D01*
X8979430Y-16862174D02*
X8998477Y-16852650D01*
X8998477Y-16852650D02*
X9036573Y-16852650D01*
X9036573Y-16852650D02*
X9055620Y-16862174D01*
X9055620Y-16862174D02*
X9065144Y-16881222D01*
X9065144Y-16881222D02*
X9065144Y-16900270D01*
X9065144Y-16900270D02*
X8969906Y-16919317D01*
X9141334Y-16976460D02*
X9160382Y-16985984D01*
X9160382Y-16985984D02*
X9198477Y-16985984D01*
X9198477Y-16985984D02*
X9217525Y-16976460D01*
X9217525Y-16976460D02*
X9227049Y-16957412D01*
X9227049Y-16957412D02*
X9227049Y-16947889D01*
X9227049Y-16947889D02*
X9217525Y-16928841D01*
X9217525Y-16928841D02*
X9198477Y-16919317D01*
X9198477Y-16919317D02*
X9169906Y-16919317D01*
X9169906Y-16919317D02*
X9150858Y-16909793D01*
X9150858Y-16909793D02*
X9141334Y-16890746D01*
X9141334Y-16890746D02*
X9141334Y-16881222D01*
X9141334Y-16881222D02*
X9150858Y-16862174D01*
X9150858Y-16862174D02*
X9169906Y-16852650D01*
X9169906Y-16852650D02*
X9198477Y-16852650D01*
X9198477Y-16852650D02*
X9217525Y-16862174D01*
X9293715Y-17062174D02*
X9303239Y-17052650D01*
X9303239Y-17052650D02*
X9322287Y-17024079D01*
X9322287Y-17024079D02*
X9331811Y-17005031D01*
X9331811Y-17005031D02*
X9341334Y-16976460D01*
X9341334Y-16976460D02*
X9350858Y-16928841D01*
X9350858Y-16928841D02*
X9350858Y-16890746D01*
X9350858Y-16890746D02*
X9341334Y-16843127D01*
X9341334Y-16843127D02*
X9331811Y-16814555D01*
X9331811Y-16814555D02*
X9322287Y-16795508D01*
X9322287Y-16795508D02*
X9303239Y-16766936D01*
X9303239Y-16766936D02*
X9293715Y-16757412D01*
D13*
X4083090Y-17213110D02*
X4137700Y-17158500D01*
X4083090Y-17103890D01*
X4028480Y-17158500D01*
X4083090Y-17213110D01*
D12*
X4503239Y-17249984D02*
X4388953Y-17249984D01*
X4446096Y-17249984D02*
X4446096Y-17049984D01*
X4446096Y-17049984D02*
X4427048Y-17078555D01*
X4427048Y-17078555D02*
X4408001Y-17097603D01*
X4408001Y-17097603D02*
X4388953Y-17107127D01*
X4588953Y-17230936D02*
X4598477Y-17240460D01*
X4598477Y-17240460D02*
X4588953Y-17249984D01*
X4588953Y-17249984D02*
X4579429Y-17240460D01*
X4579429Y-17240460D02*
X4588953Y-17230936D01*
X4588953Y-17230936D02*
X4588953Y-17249984D01*
X4722286Y-17049984D02*
X4741334Y-17049984D01*
X4741334Y-17049984D02*
X4760382Y-17059508D01*
X4760382Y-17059508D02*
X4769905Y-17069031D01*
X4769905Y-17069031D02*
X4779429Y-17088079D01*
X4779429Y-17088079D02*
X4788953Y-17126174D01*
X4788953Y-17126174D02*
X4788953Y-17173793D01*
X4788953Y-17173793D02*
X4779429Y-17211889D01*
X4779429Y-17211889D02*
X4769905Y-17230936D01*
X4769905Y-17230936D02*
X4760382Y-17240460D01*
X4760382Y-17240460D02*
X4741334Y-17249984D01*
X4741334Y-17249984D02*
X4722286Y-17249984D01*
X4722286Y-17249984D02*
X4703239Y-17240460D01*
X4703239Y-17240460D02*
X4693715Y-17230936D01*
X4693715Y-17230936D02*
X4684191Y-17211889D01*
X4684191Y-17211889D02*
X4674667Y-17173793D01*
X4674667Y-17173793D02*
X4674667Y-17126174D01*
X4674667Y-17126174D02*
X4684191Y-17088079D01*
X4684191Y-17088079D02*
X4693715Y-17069031D01*
X4693715Y-17069031D02*
X4703239Y-17059508D01*
X4703239Y-17059508D02*
X4722286Y-17049984D01*
X4884191Y-17249984D02*
X4922286Y-17249984D01*
X4922286Y-17249984D02*
X4941334Y-17240460D01*
X4941334Y-17240460D02*
X4950858Y-17230936D01*
X4950858Y-17230936D02*
X4969905Y-17202365D01*
X4969905Y-17202365D02*
X4979429Y-17164270D01*
X4979429Y-17164270D02*
X4979429Y-17088079D01*
X4979429Y-17088079D02*
X4969905Y-17069031D01*
X4969905Y-17069031D02*
X4960382Y-17059508D01*
X4960382Y-17059508D02*
X4941334Y-17049984D01*
X4941334Y-17049984D02*
X4903239Y-17049984D01*
X4903239Y-17049984D02*
X4884191Y-17059508D01*
X4884191Y-17059508D02*
X4874667Y-17069031D01*
X4874667Y-17069031D02*
X4865144Y-17088079D01*
X4865144Y-17088079D02*
X4865144Y-17135698D01*
X4865144Y-17135698D02*
X4874667Y-17154746D01*
X4874667Y-17154746D02*
X4884191Y-17164270D01*
X4884191Y-17164270D02*
X4903239Y-17173793D01*
X4903239Y-17173793D02*
X4941334Y-17173793D01*
X4941334Y-17173793D02*
X4960382Y-17164270D01*
X4960382Y-17164270D02*
X4969905Y-17154746D01*
X4969905Y-17154746D02*
X4979429Y-17135698D01*
X5055620Y-17069031D02*
X5065144Y-17059508D01*
X5065144Y-17059508D02*
X5084191Y-17049984D01*
X5084191Y-17049984D02*
X5131810Y-17049984D01*
X5131810Y-17049984D02*
X5150858Y-17059508D01*
X5150858Y-17059508D02*
X5160382Y-17069031D01*
X5160382Y-17069031D02*
X5169905Y-17088079D01*
X5169905Y-17088079D02*
X5169905Y-17107127D01*
X5169905Y-17107127D02*
X5160382Y-17135698D01*
X5160382Y-17135698D02*
X5046096Y-17249984D01*
X5046096Y-17249984D02*
X5169905Y-17249984D01*
X5255620Y-17249984D02*
X5255620Y-17116650D01*
X5255620Y-17135698D02*
X5265144Y-17126174D01*
X5265144Y-17126174D02*
X5284191Y-17116650D01*
X5284191Y-17116650D02*
X5312763Y-17116650D01*
X5312763Y-17116650D02*
X5331810Y-17126174D01*
X5331810Y-17126174D02*
X5341334Y-17145222D01*
X5341334Y-17145222D02*
X5341334Y-17249984D01*
X5341334Y-17145222D02*
X5350858Y-17126174D01*
X5350858Y-17126174D02*
X5369905Y-17116650D01*
X5369905Y-17116650D02*
X5398477Y-17116650D01*
X5398477Y-17116650D02*
X5417525Y-17126174D01*
X5417525Y-17126174D02*
X5427048Y-17145222D01*
X5427048Y-17145222D02*
X5427048Y-17249984D01*
X5522286Y-17249984D02*
X5522286Y-17116650D01*
X5522286Y-17135698D02*
X5531810Y-17126174D01*
X5531810Y-17126174D02*
X5550858Y-17116650D01*
X5550858Y-17116650D02*
X5579429Y-17116650D01*
X5579429Y-17116650D02*
X5598477Y-17126174D01*
X5598477Y-17126174D02*
X5608001Y-17145222D01*
X5608001Y-17145222D02*
X5608001Y-17249984D01*
X5608001Y-17145222D02*
X5617524Y-17126174D01*
X5617524Y-17126174D02*
X5636572Y-17116650D01*
X5636572Y-17116650D02*
X5665143Y-17116650D01*
X5665143Y-17116650D02*
X5684191Y-17126174D01*
X5684191Y-17126174D02*
X5693715Y-17145222D01*
X5693715Y-17145222D02*
X5693715Y-17249984D01*
X6084191Y-17040460D02*
X5912763Y-17297603D01*
X6341334Y-17049984D02*
X6360382Y-17049984D01*
X6360382Y-17049984D02*
X6379429Y-17059508D01*
X6379429Y-17059508D02*
X6388953Y-17069031D01*
X6388953Y-17069031D02*
X6398477Y-17088079D01*
X6398477Y-17088079D02*
X6408001Y-17126174D01*
X6408001Y-17126174D02*
X6408001Y-17173793D01*
X6408001Y-17173793D02*
X6398477Y-17211889D01*
X6398477Y-17211889D02*
X6388953Y-17230936D01*
X6388953Y-17230936D02*
X6379429Y-17240460D01*
X6379429Y-17240460D02*
X6360382Y-17249984D01*
X6360382Y-17249984D02*
X6341334Y-17249984D01*
X6341334Y-17249984D02*
X6322286Y-17240460D01*
X6322286Y-17240460D02*
X6312763Y-17230936D01*
X6312763Y-17230936D02*
X6303239Y-17211889D01*
X6303239Y-17211889D02*
X6293715Y-17173793D01*
X6293715Y-17173793D02*
X6293715Y-17126174D01*
X6293715Y-17126174D02*
X6303239Y-17088079D01*
X6303239Y-17088079D02*
X6312763Y-17069031D01*
X6312763Y-17069031D02*
X6322286Y-17059508D01*
X6322286Y-17059508D02*
X6341334Y-17049984D01*
X6493715Y-17230936D02*
X6503239Y-17240460D01*
X6503239Y-17240460D02*
X6493715Y-17249984D01*
X6493715Y-17249984D02*
X6484191Y-17240460D01*
X6484191Y-17240460D02*
X6493715Y-17230936D01*
X6493715Y-17230936D02*
X6493715Y-17249984D01*
X6627048Y-17049984D02*
X6646096Y-17049984D01*
X6646096Y-17049984D02*
X6665144Y-17059508D01*
X6665144Y-17059508D02*
X6674667Y-17069031D01*
X6674667Y-17069031D02*
X6684191Y-17088079D01*
X6684191Y-17088079D02*
X6693715Y-17126174D01*
X6693715Y-17126174D02*
X6693715Y-17173793D01*
X6693715Y-17173793D02*
X6684191Y-17211889D01*
X6684191Y-17211889D02*
X6674667Y-17230936D01*
X6674667Y-17230936D02*
X6665144Y-17240460D01*
X6665144Y-17240460D02*
X6646096Y-17249984D01*
X6646096Y-17249984D02*
X6627048Y-17249984D01*
X6627048Y-17249984D02*
X6608001Y-17240460D01*
X6608001Y-17240460D02*
X6598477Y-17230936D01*
X6598477Y-17230936D02*
X6588953Y-17211889D01*
X6588953Y-17211889D02*
X6579429Y-17173793D01*
X6579429Y-17173793D02*
X6579429Y-17126174D01*
X6579429Y-17126174D02*
X6588953Y-17088079D01*
X6588953Y-17088079D02*
X6598477Y-17069031D01*
X6598477Y-17069031D02*
X6608001Y-17059508D01*
X6608001Y-17059508D02*
X6627048Y-17049984D01*
X6865144Y-17116650D02*
X6865144Y-17249984D01*
X6817525Y-17040460D02*
X6769906Y-17183317D01*
X6769906Y-17183317D02*
X6893715Y-17183317D01*
X6950858Y-17049984D02*
X7074667Y-17049984D01*
X7074667Y-17049984D02*
X7008001Y-17126174D01*
X7008001Y-17126174D02*
X7036572Y-17126174D01*
X7036572Y-17126174D02*
X7055620Y-17135698D01*
X7055620Y-17135698D02*
X7065144Y-17145222D01*
X7065144Y-17145222D02*
X7074667Y-17164270D01*
X7074667Y-17164270D02*
X7074667Y-17211889D01*
X7074667Y-17211889D02*
X7065144Y-17230936D01*
X7065144Y-17230936D02*
X7055620Y-17240460D01*
X7055620Y-17240460D02*
X7036572Y-17249984D01*
X7036572Y-17249984D02*
X6979429Y-17249984D01*
X6979429Y-17249984D02*
X6960382Y-17240460D01*
X6960382Y-17240460D02*
X6950858Y-17230936D01*
X7198477Y-17049984D02*
X7217525Y-17049984D01*
X7217525Y-17049984D02*
X7236572Y-17059508D01*
X7236572Y-17059508D02*
X7246096Y-17069031D01*
X7246096Y-17069031D02*
X7255620Y-17088079D01*
X7255620Y-17088079D02*
X7265144Y-17126174D01*
X7265144Y-17126174D02*
X7265144Y-17173793D01*
X7265144Y-17173793D02*
X7255620Y-17211889D01*
X7255620Y-17211889D02*
X7246096Y-17230936D01*
X7246096Y-17230936D02*
X7236572Y-17240460D01*
X7236572Y-17240460D02*
X7217525Y-17249984D01*
X7217525Y-17249984D02*
X7198477Y-17249984D01*
X7198477Y-17249984D02*
X7179429Y-17240460D01*
X7179429Y-17240460D02*
X7169906Y-17230936D01*
X7169906Y-17230936D02*
X7160382Y-17211889D01*
X7160382Y-17211889D02*
X7150858Y-17173793D01*
X7150858Y-17173793D02*
X7150858Y-17126174D01*
X7150858Y-17126174D02*
X7160382Y-17088079D01*
X7160382Y-17088079D02*
X7169906Y-17069031D01*
X7169906Y-17069031D02*
X7179429Y-17059508D01*
X7179429Y-17059508D02*
X7198477Y-17049984D01*
X7341334Y-17049984D02*
X7341334Y-17088079D01*
X7417525Y-17049984D02*
X7417525Y-17088079D01*
X7712763Y-17326174D02*
X7703239Y-17316650D01*
X7703239Y-17316650D02*
X7684191Y-17288079D01*
X7684191Y-17288079D02*
X7674668Y-17269031D01*
X7674668Y-17269031D02*
X7665144Y-17240460D01*
X7665144Y-17240460D02*
X7655620Y-17192841D01*
X7655620Y-17192841D02*
X7655620Y-17154746D01*
X7655620Y-17154746D02*
X7665144Y-17107127D01*
X7665144Y-17107127D02*
X7674668Y-17078555D01*
X7674668Y-17078555D02*
X7684191Y-17059508D01*
X7684191Y-17059508D02*
X7703239Y-17030936D01*
X7703239Y-17030936D02*
X7712763Y-17021412D01*
X7779429Y-17069031D02*
X7788953Y-17059508D01*
X7788953Y-17059508D02*
X7808001Y-17049984D01*
X7808001Y-17049984D02*
X7855620Y-17049984D01*
X7855620Y-17049984D02*
X7874668Y-17059508D01*
X7874668Y-17059508D02*
X7884191Y-17069031D01*
X7884191Y-17069031D02*
X7893715Y-17088079D01*
X7893715Y-17088079D02*
X7893715Y-17107127D01*
X7893715Y-17107127D02*
X7884191Y-17135698D01*
X7884191Y-17135698D02*
X7769906Y-17249984D01*
X7769906Y-17249984D02*
X7893715Y-17249984D01*
X8065144Y-17116650D02*
X8065144Y-17249984D01*
X8017525Y-17040460D02*
X7969906Y-17183317D01*
X7969906Y-17183317D02*
X8093715Y-17183317D01*
X8322287Y-17249984D02*
X8322287Y-17049984D01*
X8408001Y-17249984D02*
X8408001Y-17145222D01*
X8408001Y-17145222D02*
X8398477Y-17126174D01*
X8398477Y-17126174D02*
X8379430Y-17116650D01*
X8379430Y-17116650D02*
X8350858Y-17116650D01*
X8350858Y-17116650D02*
X8331810Y-17126174D01*
X8331810Y-17126174D02*
X8322287Y-17135698D01*
X8531811Y-17249984D02*
X8512763Y-17240460D01*
X8512763Y-17240460D02*
X8503239Y-17230936D01*
X8503239Y-17230936D02*
X8493715Y-17211889D01*
X8493715Y-17211889D02*
X8493715Y-17154746D01*
X8493715Y-17154746D02*
X8503239Y-17135698D01*
X8503239Y-17135698D02*
X8512763Y-17126174D01*
X8512763Y-17126174D02*
X8531811Y-17116650D01*
X8531811Y-17116650D02*
X8560382Y-17116650D01*
X8560382Y-17116650D02*
X8579430Y-17126174D01*
X8579430Y-17126174D02*
X8588953Y-17135698D01*
X8588953Y-17135698D02*
X8598477Y-17154746D01*
X8598477Y-17154746D02*
X8598477Y-17211889D01*
X8598477Y-17211889D02*
X8588953Y-17230936D01*
X8588953Y-17230936D02*
X8579430Y-17240460D01*
X8579430Y-17240460D02*
X8560382Y-17249984D01*
X8560382Y-17249984D02*
X8531811Y-17249984D01*
X8712763Y-17249984D02*
X8693715Y-17240460D01*
X8693715Y-17240460D02*
X8684192Y-17221412D01*
X8684192Y-17221412D02*
X8684192Y-17049984D01*
X8865144Y-17240460D02*
X8846096Y-17249984D01*
X8846096Y-17249984D02*
X8808001Y-17249984D01*
X8808001Y-17249984D02*
X8788953Y-17240460D01*
X8788953Y-17240460D02*
X8779430Y-17221412D01*
X8779430Y-17221412D02*
X8779430Y-17145222D01*
X8779430Y-17145222D02*
X8788953Y-17126174D01*
X8788953Y-17126174D02*
X8808001Y-17116650D01*
X8808001Y-17116650D02*
X8846096Y-17116650D01*
X8846096Y-17116650D02*
X8865144Y-17126174D01*
X8865144Y-17126174D02*
X8874668Y-17145222D01*
X8874668Y-17145222D02*
X8874668Y-17164270D01*
X8874668Y-17164270D02*
X8779430Y-17183317D01*
X8950858Y-17240460D02*
X8969906Y-17249984D01*
X8969906Y-17249984D02*
X9008001Y-17249984D01*
X9008001Y-17249984D02*
X9027049Y-17240460D01*
X9027049Y-17240460D02*
X9036573Y-17221412D01*
X9036573Y-17221412D02*
X9036573Y-17211889D01*
X9036573Y-17211889D02*
X9027049Y-17192841D01*
X9027049Y-17192841D02*
X9008001Y-17183317D01*
X9008001Y-17183317D02*
X8979430Y-17183317D01*
X8979430Y-17183317D02*
X8960382Y-17173793D01*
X8960382Y-17173793D02*
X8950858Y-17154746D01*
X8950858Y-17154746D02*
X8950858Y-17145222D01*
X8950858Y-17145222D02*
X8960382Y-17126174D01*
X8960382Y-17126174D02*
X8979430Y-17116650D01*
X8979430Y-17116650D02*
X9008001Y-17116650D01*
X9008001Y-17116650D02*
X9027049Y-17126174D01*
X9103239Y-17326174D02*
X9112763Y-17316650D01*
X9112763Y-17316650D02*
X9131811Y-17288079D01*
X9131811Y-17288079D02*
X9141334Y-17269031D01*
X9141334Y-17269031D02*
X9150858Y-17240460D01*
X9150858Y-17240460D02*
X9160382Y-17192841D01*
X9160382Y-17192841D02*
X9160382Y-17154746D01*
X9160382Y-17154746D02*
X9150858Y-17107127D01*
X9150858Y-17107127D02*
X9141334Y-17078555D01*
X9141334Y-17078555D02*
X9131811Y-17059508D01*
X9131811Y-17059508D02*
X9112763Y-17030936D01*
X9112763Y-17030936D02*
X9103239Y-17021412D01*
D14*
X3990700Y-17349000D02*
X4137700Y-17496000D01*
X4137700Y-17349000D02*
X3990700Y-17496000D01*
X4137700Y-17422500D02*
G75*
G03*
X4137700Y-17422500I-73500J0D01*
G01*
D12*
X4503239Y-17513984D02*
X4388953Y-17513984D01*
X4446096Y-17513984D02*
X4446096Y-17313984D01*
X4446096Y-17313984D02*
X4427048Y-17342555D01*
X4427048Y-17342555D02*
X4408001Y-17361603D01*
X4408001Y-17361603D02*
X4388953Y-17371127D01*
X4588953Y-17494936D02*
X4598477Y-17504460D01*
X4598477Y-17504460D02*
X4588953Y-17513984D01*
X4588953Y-17513984D02*
X4579429Y-17504460D01*
X4579429Y-17504460D02*
X4588953Y-17494936D01*
X4588953Y-17494936D02*
X4588953Y-17513984D01*
X4769905Y-17380650D02*
X4769905Y-17513984D01*
X4722286Y-17304460D02*
X4674667Y-17447317D01*
X4674667Y-17447317D02*
X4798477Y-17447317D01*
X4855620Y-17313984D02*
X4988953Y-17313984D01*
X4988953Y-17313984D02*
X4903239Y-17513984D01*
X5103239Y-17313984D02*
X5122286Y-17313984D01*
X5122286Y-17313984D02*
X5141334Y-17323508D01*
X5141334Y-17323508D02*
X5150858Y-17333031D01*
X5150858Y-17333031D02*
X5160382Y-17352079D01*
X5160382Y-17352079D02*
X5169905Y-17390174D01*
X5169905Y-17390174D02*
X5169905Y-17437793D01*
X5169905Y-17437793D02*
X5160382Y-17475889D01*
X5160382Y-17475889D02*
X5150858Y-17494936D01*
X5150858Y-17494936D02*
X5141334Y-17504460D01*
X5141334Y-17504460D02*
X5122286Y-17513984D01*
X5122286Y-17513984D02*
X5103239Y-17513984D01*
X5103239Y-17513984D02*
X5084191Y-17504460D01*
X5084191Y-17504460D02*
X5074667Y-17494936D01*
X5074667Y-17494936D02*
X5065144Y-17475889D01*
X5065144Y-17475889D02*
X5055620Y-17437793D01*
X5055620Y-17437793D02*
X5055620Y-17390174D01*
X5055620Y-17390174D02*
X5065144Y-17352079D01*
X5065144Y-17352079D02*
X5074667Y-17333031D01*
X5074667Y-17333031D02*
X5084191Y-17323508D01*
X5084191Y-17323508D02*
X5103239Y-17313984D01*
X5255620Y-17513984D02*
X5255620Y-17380650D01*
X5255620Y-17399698D02*
X5265144Y-17390174D01*
X5265144Y-17390174D02*
X5284191Y-17380650D01*
X5284191Y-17380650D02*
X5312763Y-17380650D01*
X5312763Y-17380650D02*
X5331810Y-17390174D01*
X5331810Y-17390174D02*
X5341334Y-17409222D01*
X5341334Y-17409222D02*
X5341334Y-17513984D01*
X5341334Y-17409222D02*
X5350858Y-17390174D01*
X5350858Y-17390174D02*
X5369905Y-17380650D01*
X5369905Y-17380650D02*
X5398477Y-17380650D01*
X5398477Y-17380650D02*
X5417525Y-17390174D01*
X5417525Y-17390174D02*
X5427048Y-17409222D01*
X5427048Y-17409222D02*
X5427048Y-17513984D01*
X5522286Y-17513984D02*
X5522286Y-17380650D01*
X5522286Y-17399698D02*
X5531810Y-17390174D01*
X5531810Y-17390174D02*
X5550858Y-17380650D01*
X5550858Y-17380650D02*
X5579429Y-17380650D01*
X5579429Y-17380650D02*
X5598477Y-17390174D01*
X5598477Y-17390174D02*
X5608001Y-17409222D01*
X5608001Y-17409222D02*
X5608001Y-17513984D01*
X5608001Y-17409222D02*
X5617524Y-17390174D01*
X5617524Y-17390174D02*
X5636572Y-17380650D01*
X5636572Y-17380650D02*
X5665143Y-17380650D01*
X5665143Y-17380650D02*
X5684191Y-17390174D01*
X5684191Y-17390174D02*
X5693715Y-17409222D01*
X5693715Y-17409222D02*
X5693715Y-17513984D01*
X6084191Y-17304460D02*
X5912763Y-17561603D01*
X6341334Y-17313984D02*
X6360382Y-17313984D01*
X6360382Y-17313984D02*
X6379429Y-17323508D01*
X6379429Y-17323508D02*
X6388953Y-17333031D01*
X6388953Y-17333031D02*
X6398477Y-17352079D01*
X6398477Y-17352079D02*
X6408001Y-17390174D01*
X6408001Y-17390174D02*
X6408001Y-17437793D01*
X6408001Y-17437793D02*
X6398477Y-17475889D01*
X6398477Y-17475889D02*
X6388953Y-17494936D01*
X6388953Y-17494936D02*
X6379429Y-17504460D01*
X6379429Y-17504460D02*
X6360382Y-17513984D01*
X6360382Y-17513984D02*
X6341334Y-17513984D01*
X6341334Y-17513984D02*
X6322286Y-17504460D01*
X6322286Y-17504460D02*
X6312763Y-17494936D01*
X6312763Y-17494936D02*
X6303239Y-17475889D01*
X6303239Y-17475889D02*
X6293715Y-17437793D01*
X6293715Y-17437793D02*
X6293715Y-17390174D01*
X6293715Y-17390174D02*
X6303239Y-17352079D01*
X6303239Y-17352079D02*
X6312763Y-17333031D01*
X6312763Y-17333031D02*
X6322286Y-17323508D01*
X6322286Y-17323508D02*
X6341334Y-17313984D01*
X6493715Y-17494936D02*
X6503239Y-17504460D01*
X6503239Y-17504460D02*
X6493715Y-17513984D01*
X6493715Y-17513984D02*
X6484191Y-17504460D01*
X6484191Y-17504460D02*
X6493715Y-17494936D01*
X6493715Y-17494936D02*
X6493715Y-17513984D01*
X6627048Y-17313984D02*
X6646096Y-17313984D01*
X6646096Y-17313984D02*
X6665144Y-17323508D01*
X6665144Y-17323508D02*
X6674667Y-17333031D01*
X6674667Y-17333031D02*
X6684191Y-17352079D01*
X6684191Y-17352079D02*
X6693715Y-17390174D01*
X6693715Y-17390174D02*
X6693715Y-17437793D01*
X6693715Y-17437793D02*
X6684191Y-17475889D01*
X6684191Y-17475889D02*
X6674667Y-17494936D01*
X6674667Y-17494936D02*
X6665144Y-17504460D01*
X6665144Y-17504460D02*
X6646096Y-17513984D01*
X6646096Y-17513984D02*
X6627048Y-17513984D01*
X6627048Y-17513984D02*
X6608001Y-17504460D01*
X6608001Y-17504460D02*
X6598477Y-17494936D01*
X6598477Y-17494936D02*
X6588953Y-17475889D01*
X6588953Y-17475889D02*
X6579429Y-17437793D01*
X6579429Y-17437793D02*
X6579429Y-17390174D01*
X6579429Y-17390174D02*
X6588953Y-17352079D01*
X6588953Y-17352079D02*
X6598477Y-17333031D01*
X6598477Y-17333031D02*
X6608001Y-17323508D01*
X6608001Y-17323508D02*
X6627048Y-17313984D01*
X6874667Y-17313984D02*
X6779429Y-17313984D01*
X6779429Y-17313984D02*
X6769906Y-17409222D01*
X6769906Y-17409222D02*
X6779429Y-17399698D01*
X6779429Y-17399698D02*
X6798477Y-17390174D01*
X6798477Y-17390174D02*
X6846096Y-17390174D01*
X6846096Y-17390174D02*
X6865144Y-17399698D01*
X6865144Y-17399698D02*
X6874667Y-17409222D01*
X6874667Y-17409222D02*
X6884191Y-17428270D01*
X6884191Y-17428270D02*
X6884191Y-17475889D01*
X6884191Y-17475889D02*
X6874667Y-17494936D01*
X6874667Y-17494936D02*
X6865144Y-17504460D01*
X6865144Y-17504460D02*
X6846096Y-17513984D01*
X6846096Y-17513984D02*
X6798477Y-17513984D01*
X6798477Y-17513984D02*
X6779429Y-17504460D01*
X6779429Y-17504460D02*
X6769906Y-17494936D01*
X6950858Y-17313984D02*
X7084191Y-17313984D01*
X7084191Y-17313984D02*
X6998477Y-17513984D01*
X7169906Y-17513984D02*
X7208001Y-17513984D01*
X7208001Y-17513984D02*
X7227048Y-17504460D01*
X7227048Y-17504460D02*
X7236572Y-17494936D01*
X7236572Y-17494936D02*
X7255620Y-17466365D01*
X7255620Y-17466365D02*
X7265144Y-17428270D01*
X7265144Y-17428270D02*
X7265144Y-17352079D01*
X7265144Y-17352079D02*
X7255620Y-17333031D01*
X7255620Y-17333031D02*
X7246096Y-17323508D01*
X7246096Y-17323508D02*
X7227048Y-17313984D01*
X7227048Y-17313984D02*
X7188953Y-17313984D01*
X7188953Y-17313984D02*
X7169906Y-17323508D01*
X7169906Y-17323508D02*
X7160382Y-17333031D01*
X7160382Y-17333031D02*
X7150858Y-17352079D01*
X7150858Y-17352079D02*
X7150858Y-17399698D01*
X7150858Y-17399698D02*
X7160382Y-17418746D01*
X7160382Y-17418746D02*
X7169906Y-17428270D01*
X7169906Y-17428270D02*
X7188953Y-17437793D01*
X7188953Y-17437793D02*
X7227048Y-17437793D01*
X7227048Y-17437793D02*
X7246096Y-17428270D01*
X7246096Y-17428270D02*
X7255620Y-17418746D01*
X7255620Y-17418746D02*
X7265144Y-17399698D01*
X7341334Y-17313984D02*
X7341334Y-17352079D01*
X7417525Y-17313984D02*
X7417525Y-17352079D01*
X7712763Y-17590174D02*
X7703239Y-17580650D01*
X7703239Y-17580650D02*
X7684191Y-17552079D01*
X7684191Y-17552079D02*
X7674668Y-17533031D01*
X7674668Y-17533031D02*
X7665144Y-17504460D01*
X7665144Y-17504460D02*
X7655620Y-17456841D01*
X7655620Y-17456841D02*
X7655620Y-17418746D01*
X7655620Y-17418746D02*
X7665144Y-17371127D01*
X7665144Y-17371127D02*
X7674668Y-17342555D01*
X7674668Y-17342555D02*
X7684191Y-17323508D01*
X7684191Y-17323508D02*
X7703239Y-17294936D01*
X7703239Y-17294936D02*
X7712763Y-17285412D01*
X7893715Y-17513984D02*
X7779429Y-17513984D01*
X7836572Y-17513984D02*
X7836572Y-17313984D01*
X7836572Y-17313984D02*
X7817525Y-17342555D01*
X7817525Y-17342555D02*
X7798477Y-17361603D01*
X7798477Y-17361603D02*
X7779429Y-17371127D01*
X8017525Y-17313984D02*
X8036572Y-17313984D01*
X8036572Y-17313984D02*
X8055620Y-17323508D01*
X8055620Y-17323508D02*
X8065144Y-17333031D01*
X8065144Y-17333031D02*
X8074668Y-17352079D01*
X8074668Y-17352079D02*
X8084191Y-17390174D01*
X8084191Y-17390174D02*
X8084191Y-17437793D01*
X8084191Y-17437793D02*
X8074668Y-17475889D01*
X8074668Y-17475889D02*
X8065144Y-17494936D01*
X8065144Y-17494936D02*
X8055620Y-17504460D01*
X8055620Y-17504460D02*
X8036572Y-17513984D01*
X8036572Y-17513984D02*
X8017525Y-17513984D01*
X8017525Y-17513984D02*
X7998477Y-17504460D01*
X7998477Y-17504460D02*
X7988953Y-17494936D01*
X7988953Y-17494936D02*
X7979429Y-17475889D01*
X7979429Y-17475889D02*
X7969906Y-17437793D01*
X7969906Y-17437793D02*
X7969906Y-17390174D01*
X7969906Y-17390174D02*
X7979429Y-17352079D01*
X7979429Y-17352079D02*
X7988953Y-17333031D01*
X7988953Y-17333031D02*
X7998477Y-17323508D01*
X7998477Y-17323508D02*
X8017525Y-17313984D01*
X8160382Y-17333031D02*
X8169906Y-17323508D01*
X8169906Y-17323508D02*
X8188953Y-17313984D01*
X8188953Y-17313984D02*
X8236572Y-17313984D01*
X8236572Y-17313984D02*
X8255620Y-17323508D01*
X8255620Y-17323508D02*
X8265144Y-17333031D01*
X8265144Y-17333031D02*
X8274668Y-17352079D01*
X8274668Y-17352079D02*
X8274668Y-17371127D01*
X8274668Y-17371127D02*
X8265144Y-17399698D01*
X8265144Y-17399698D02*
X8150858Y-17513984D01*
X8150858Y-17513984D02*
X8274668Y-17513984D01*
X8512763Y-17513984D02*
X8512763Y-17313984D01*
X8598477Y-17513984D02*
X8598477Y-17409222D01*
X8598477Y-17409222D02*
X8588953Y-17390174D01*
X8588953Y-17390174D02*
X8569906Y-17380650D01*
X8569906Y-17380650D02*
X8541334Y-17380650D01*
X8541334Y-17380650D02*
X8522287Y-17390174D01*
X8522287Y-17390174D02*
X8512763Y-17399698D01*
X8722287Y-17513984D02*
X8703239Y-17504460D01*
X8703239Y-17504460D02*
X8693715Y-17494936D01*
X8693715Y-17494936D02*
X8684192Y-17475889D01*
X8684192Y-17475889D02*
X8684192Y-17418746D01*
X8684192Y-17418746D02*
X8693715Y-17399698D01*
X8693715Y-17399698D02*
X8703239Y-17390174D01*
X8703239Y-17390174D02*
X8722287Y-17380650D01*
X8722287Y-17380650D02*
X8750858Y-17380650D01*
X8750858Y-17380650D02*
X8769906Y-17390174D01*
X8769906Y-17390174D02*
X8779430Y-17399698D01*
X8779430Y-17399698D02*
X8788953Y-17418746D01*
X8788953Y-17418746D02*
X8788953Y-17475889D01*
X8788953Y-17475889D02*
X8779430Y-17494936D01*
X8779430Y-17494936D02*
X8769906Y-17504460D01*
X8769906Y-17504460D02*
X8750858Y-17513984D01*
X8750858Y-17513984D02*
X8722287Y-17513984D01*
X8903239Y-17513984D02*
X8884192Y-17504460D01*
X8884192Y-17504460D02*
X8874668Y-17485412D01*
X8874668Y-17485412D02*
X8874668Y-17313984D01*
X9055620Y-17504460D02*
X9036573Y-17513984D01*
X9036573Y-17513984D02*
X8998477Y-17513984D01*
X8998477Y-17513984D02*
X8979430Y-17504460D01*
X8979430Y-17504460D02*
X8969906Y-17485412D01*
X8969906Y-17485412D02*
X8969906Y-17409222D01*
X8969906Y-17409222D02*
X8979430Y-17390174D01*
X8979430Y-17390174D02*
X8998477Y-17380650D01*
X8998477Y-17380650D02*
X9036573Y-17380650D01*
X9036573Y-17380650D02*
X9055620Y-17390174D01*
X9055620Y-17390174D02*
X9065144Y-17409222D01*
X9065144Y-17409222D02*
X9065144Y-17428270D01*
X9065144Y-17428270D02*
X8969906Y-17447317D01*
X9141334Y-17504460D02*
X9160382Y-17513984D01*
X9160382Y-17513984D02*
X9198477Y-17513984D01*
X9198477Y-17513984D02*
X9217525Y-17504460D01*
X9217525Y-17504460D02*
X9227049Y-17485412D01*
X9227049Y-17485412D02*
X9227049Y-17475889D01*
X9227049Y-17475889D02*
X9217525Y-17456841D01*
X9217525Y-17456841D02*
X9198477Y-17447317D01*
X9198477Y-17447317D02*
X9169906Y-17447317D01*
X9169906Y-17447317D02*
X9150858Y-17437793D01*
X9150858Y-17437793D02*
X9141334Y-17418746D01*
X9141334Y-17418746D02*
X9141334Y-17409222D01*
X9141334Y-17409222D02*
X9150858Y-17390174D01*
X9150858Y-17390174D02*
X9169906Y-17380650D01*
X9169906Y-17380650D02*
X9198477Y-17380650D01*
X9198477Y-17380650D02*
X9217525Y-17390174D01*
X9293715Y-17590174D02*
X9303239Y-17580650D01*
X9303239Y-17580650D02*
X9322287Y-17552079D01*
X9322287Y-17552079D02*
X9331811Y-17533031D01*
X9331811Y-17533031D02*
X9341334Y-17504460D01*
X9341334Y-17504460D02*
X9350858Y-17456841D01*
X9350858Y-17456841D02*
X9350858Y-17418746D01*
X9350858Y-17418746D02*
X9341334Y-17371127D01*
X9341334Y-17371127D02*
X9331811Y-17342555D01*
X9331811Y-17342555D02*
X9322287Y-17323508D01*
X9322287Y-17323508D02*
X9303239Y-17294936D01*
X9303239Y-17294936D02*
X9293715Y-17285412D01*
M02*
