G04 #@! TF.GenerationSoftware,KiCad,Pcbnew,7.0.9-1.fc39*
G04 #@! TF.CreationDate,2024-01-02T19:26:35+02:00*
G04 #@! TF.ProjectId,SplitHside5,53706c69-7448-4736-9964-65352e6b6963,rev?*
G04 #@! TF.SameCoordinates,Original*
G04 #@! TF.FileFunction,Profile,NP*
%FSLAX46Y46*%
G04 Gerber Fmt 4.6, Leading zero omitted, Abs format (unit mm)*
G04 Created by KiCad (PCBNEW 7.0.9-1.fc39) date 2024-01-02 19:26:35*
%MOMM*%
%LPD*%
G01*
G04 APERTURE LIST*
G04 #@! TA.AperFunction,Profile*
%ADD10C,0.050000*%
G04 #@! TD*
G04 #@! TA.AperFunction,Profile*
%ADD11C,0.100000*%
G04 #@! TD*
G04 APERTURE END LIST*
D10*
X41402000Y-149575000D02*
G75*
G03*
X46402000Y-154575000I5000000J0D01*
G01*
X41425000Y-15474319D02*
X41425000Y-14800000D01*
X46550000Y-154575000D02*
X46402000Y-154575000D01*
X82550000Y-154575000D02*
X84050000Y-154575000D01*
X250350000Y-16375000D02*
X251964466Y-16375000D01*
X44339723Y-8327193D02*
X71555985Y18889069D01*
X41425000Y-17545829D02*
X41425000Y-15474319D01*
X139827000Y-16383000D02*
X248205434Y-16393302D01*
X92769186Y18889068D02*
G75*
G03*
X71555986Y18889068I-10606600J-10606600D01*
G01*
X137795000Y-16383000D02*
X137091307Y-16374926D01*
X259100000Y-21375000D02*
G75*
G03*
X254100000Y-16375000I-5000000J0D01*
G01*
X251964466Y-154575000D02*
X250350000Y-154575000D01*
X259100000Y-21375000D02*
X259100000Y-24366000D01*
X252900000Y-16375000D02*
X253364466Y-16375000D01*
X46550000Y-154575000D02*
X82550000Y-154575000D01*
D11*
X259100000Y-149575000D02*
X259100000Y-24366000D01*
D10*
X254100000Y-16375000D02*
X253364466Y-16375000D01*
X248205434Y-16393302D02*
X248219804Y-16393302D01*
X250350000Y-154575000D02*
X84050000Y-154575000D01*
D11*
X254100000Y-154575000D02*
G75*
G03*
X259100000Y-149575000I0J5000000D01*
G01*
D10*
X250350000Y-16375000D02*
X248219804Y-16393302D01*
X92769187Y18889069D02*
X120534514Y-10507455D01*
X251964466Y-16375000D02*
X252900000Y-16375000D01*
X252900000Y-154575000D02*
X251964466Y-154575000D01*
X253364466Y-154575000D02*
X252900000Y-154575000D01*
X41418235Y-13316220D02*
X41425000Y-13816220D01*
D11*
X120534514Y-10507455D02*
G75*
G03*
X134700000Y-16375000I14165486J14165455D01*
G01*
D10*
X41425000Y-13816220D02*
X41425000Y-14800000D01*
X41425000Y-17545829D02*
X41402000Y-149575000D01*
X139827000Y-16383000D02*
X137795000Y-16383000D01*
X42886997Y-9776395D02*
X44339723Y-8327193D01*
X42886994Y-9776392D02*
G75*
G03*
X41418235Y-13316220I3531206J-3539808D01*
G01*
X134700000Y-16375000D02*
X137091307Y-16374926D01*
X254100000Y-154575000D02*
X253364466Y-154575000D01*
M02*
